<?xml version="1.0" encoding="UTF-8"?>
<svg id="Layer_2" data-name="Layer 2" xmlns="http://www.w3.org/2000/svg" xmlns:xlink="http://www.w3.org/1999/xlink" viewBox="0 0 893.24 1247">
  <defs>
    <style>
      .cls-1 {
        letter-spacing: 0em;
      }

      .cls-2, .cls-3, .cls-4, .cls-5, .cls-6, .cls-7, .cls-8, .cls-9 {
        fill: #595a5a;
      }

      .cls-2, .cls-5, .cls-8, .cls-9 {
        font-family: Inter-Regular, Inter;
        font-variation-settings: 'wght' 400, 'slnt' 0;
      }

      .cls-10 {
        fill: url(#linear-gradient-12);
      }

      .cls-10, .cls-11 {
        opacity: .5;
      }

      .cls-12 {
        stroke: url(#linear-gradient-3);
      }

      .cls-12, .cls-13, .cls-14, .cls-15, .cls-16, .cls-17, .cls-18, .cls-19, .cls-20 {
        fill: none;
      }

      .cls-12, .cls-13, .cls-14, .cls-15, .cls-16, .cls-17, .cls-19, .cls-20 {
        stroke-miterlimit: 10;
      }

      .cls-21 {
        letter-spacing: .25em;
      }

      .cls-22 {
        letter-spacing: 0em;
      }

      .cls-23 {
        letter-spacing: .05em;
      }

      .cls-3, .cls-4, .cls-6 {
        font-family: Inter-Medium, Inter;
        font-variation-settings: 'wght' 500, 'slnt' 0;
        font-weight: 500;
      }

      .cls-24, .cls-25 {
        fill: #fff;
      }

      .cls-26 {
        letter-spacing: -.02em;
      }

      .cls-13 {
        stroke: url(#linear-gradient-9);
      }

      .cls-27, .cls-28 {
        letter-spacing: 0em;
      }

      .cls-29 {
        letter-spacing: -.02em;
      }

      .cls-30 {
        letter-spacing: .32em;
      }

      .cls-31 {
        letter-spacing: -.01em;
      }

      .cls-4, .cls-32 {
        font-size: 14.45px;
      }

      .cls-33 {
        letter-spacing: -.02em;
      }

      .cls-34 {
        letter-spacing: .81em;
      }

      .cls-35 {
        letter-spacing: 0em;
      }

      .cls-36 {
        letter-spacing: 0em;
      }

      .cls-37 {
        letter-spacing: -.02em;
      }

      .cls-38 {
        letter-spacing: .6em;
      }

      .cls-39 {
        font-size: 52.01px;
      }

      .cls-40 {
        letter-spacing: .5em;
      }

      .cls-41 {
        fill: url(#linear-gradient-11);
      }

      .cls-41, .cls-42, .cls-43 {
        opacity: .2;
      }

      .cls-44 {
        letter-spacing: .01em;
      }

      .cls-45 {
        letter-spacing: .81em;
      }

      .cls-46 {
        letter-spacing: -.02em;
      }

      .cls-14 {
        stroke: url(#linear-gradient-4);
      }

      .cls-47, .cls-48 {
        letter-spacing: 0em;
      }

      .cls-47, .cls-49 {
        font-size: 11.73px;
      }

      .cls-47, .cls-49, .cls-50 {
        font-family: Inter-Bold, Inter;
        font-variation-settings: 'wght' 700, 'slnt' 0;
        font-weight: 700;
      }

      .cls-51 {
        letter-spacing: .06em;
      }

      .cls-15 {
        stroke: url(#linear-gradient-6);
      }

      .cls-52 {
        letter-spacing: .02em;
      }

      .cls-28, .cls-53 {
        font-size: 20.23px;
      }

      .cls-28, .cls-53, .cls-54, .cls-55, .cls-56, .cls-57 {
        font-family: Inter-SemiBold, Inter;
        font-variation-settings: 'wght' 600, 'slnt' 0;
        font-weight: 600;
      }

      .cls-58 {
        letter-spacing: -.02em;
      }

      .cls-59 {
        letter-spacing: 0em;
      }

      .cls-60 {
        letter-spacing: .08em;
      }

      .cls-61 {
        letter-spacing: 0em;
      }

      .cls-62 {
        letter-spacing: .71em;
      }

      .cls-63 {
        letter-spacing: -.01em;
      }

      .cls-64 {
        letter-spacing: .12em;
      }

      .cls-65 {
        letter-spacing: .27em;
      }

      .cls-66 {
        letter-spacing: -.02em;
      }

      .cls-67 {
        letter-spacing: 0em;
      }

      .cls-68 {
        letter-spacing: -.02em;
      }

      .cls-69 {
        letter-spacing: 0em;
      }

      .cls-70 {
        letter-spacing: 0em;
      }

      .cls-71 {
        letter-spacing: 0em;
      }

      .cls-72 {
        letter-spacing: -.02em;
      }

      .cls-73 {
        letter-spacing: .06em;
      }

      .cls-42 {
        fill: url(#linear-gradient);
      }

      .cls-74 {
        letter-spacing: 0em;
      }

      .cls-75 {
        clip-path: url(#clippath-1);
      }

      .cls-76 {
        letter-spacing: .32em;
      }

      .cls-77 {
        letter-spacing: 1.09em;
      }

      .cls-78 {
        letter-spacing: -.02em;
      }

      .cls-79 {
        letter-spacing: -.02em;
      }

      .cls-80 {
        letter-spacing: 1.09em;
      }

      .cls-81 {
        letter-spacing: 0em;
      }

      .cls-82 {
        letter-spacing: .02em;
      }

      .cls-16 {
        stroke: url(#linear-gradient-7);
      }

      .cls-83 {
        letter-spacing: -.03em;
      }

      .cls-84 {
        letter-spacing: .82em;
      }

      .cls-85 {
        letter-spacing: -.06em;
      }

      .cls-86 {
        letter-spacing: .08em;
      }

      .cls-17 {
        stroke: url(#linear-gradient-5);
      }

      .cls-87 {
        letter-spacing: 0em;
      }

      .cls-88 {
        letter-spacing: .62em;
      }

      .cls-89 {
        letter-spacing: .56em;
      }

      .cls-54, .cls-56, .cls-9 {
        letter-spacing: 0em;
      }

      .cls-90 {
        letter-spacing: 0em;
      }

      .cls-25 {
        filter: url(#drop-shadow-1);
      }

      .cls-91 {
        letter-spacing: .56em;
      }

      .cls-92 {
        letter-spacing: .06em;
      }

      .cls-93 {
        letter-spacing: -.02em;
      }

      .cls-94 {
        letter-spacing: -.01em;
      }

      .cls-43 {
        fill: url(#linear-gradient-10);
      }

      .cls-11 {
        fill: url(#linear-gradient-2);
      }

      .cls-95 {
        letter-spacing: 0em;
      }

      .cls-96 {
        letter-spacing: -.04em;
      }

      .cls-97 {
        clip-path: url(#clippath);
      }

      .cls-98 {
        letter-spacing: 0em;
      }

      .cls-55 {
        letter-spacing: -.01em;
      }

      .cls-56 {
        fill: #221f1f;
      }

      .cls-99 {
        letter-spacing: -.02em;
      }

      .cls-100 {
        letter-spacing: 0em;
      }

      .cls-101 {
        letter-spacing: .05em;
      }

      .cls-102 {
        letter-spacing: .06em;
      }

      .cls-103 {
        letter-spacing: 0em;
      }

      .cls-19 {
        stroke: #3e5ca9;
      }

      .cls-104 {
        letter-spacing: -.02em;
      }

      .cls-105 {
        letter-spacing: .82em;
      }

      .cls-5 {
        letter-spacing: 0em;
      }

      .cls-106 {
        letter-spacing: -.06em;
      }

      .cls-107 {
        letter-spacing: -.08em;
      }

      .cls-108 {
        letter-spacing: .03em;
      }

      .cls-109 {
        letter-spacing: -.06em;
      }

      .cls-6 {
        font-size: 11.56px;
      }

      .cls-110 {
        letter-spacing: .27em;
      }

      .cls-111 {
        letter-spacing: .71em;
      }

      .cls-112 {
        letter-spacing: .02em;
      }

      .cls-113 {
        letter-spacing: .25em;
      }

      .cls-50 {
        font-size: 15.89px;
      }

      .cls-114 {
        letter-spacing: -.02em;
      }

      .cls-115 {
        letter-spacing: -.01em;
      }

      .cls-116 {
        letter-spacing: -.06em;
      }

      .cls-117 {
        letter-spacing: 0em;
      }

      .cls-118 {
        letter-spacing: 0em;
      }

      .cls-119 {
        letter-spacing: 0em;
      }

      .cls-120 {
        letter-spacing: -.02em;
      }

      .cls-121 {
        letter-spacing: -.01em;
      }

      .cls-122 {
        font-size: 24.56px;
      }

      .cls-122, .cls-7 {
        font-family: MyriadPro-Regular, 'Myriad Pro';
      }

      .cls-122, .cls-123 {
        fill: #3e5ca9;
      }

      .cls-20 {
        stroke: url(#linear-gradient-8);
      }

      .cls-8 {
        letter-spacing: -.02em;
      }

      .cls-124 {
        letter-spacing: .12em;
      }

      .cls-125 {
        letter-spacing: -.02em;
      }

      .cls-126 {
        letter-spacing: .51em;
      }

      .cls-127 {
        letter-spacing: -.07em;
      }

      .cls-128 {
        letter-spacing: 0em;
      }

      .cls-129 {
        letter-spacing: -.06em;
      }

      .cls-130 {
        letter-spacing: -.02em;
      }

      .cls-131 {
        letter-spacing: -.03em;
      }

      .cls-132 {
        letter-spacing: .57em;
      }
    </style>
    <filter id="drop-shadow-1" filterUnits="userSpaceOnUse">
      <feOffset dx="18" dy="15"/>
      <feGaussianBlur result="blur" stdDeviation="5"/>
      <feFlood flood-color="#000" flood-opacity=".4"/>
      <feComposite in2="blur" operator="in"/>
      <feComposite in="SourceGraphic"/>
    </filter>
    <clipPath id="clippath">
      <rect class="cls-18" y="793.5" width="423" height="423"/>
    </clipPath>
    <linearGradient id="linear-gradient" x1="4491.25" y1="1739.01" x2="4922.64" y2="1739.01" gradientTransform="translate(4206.29 -1594.28) rotate(123.92)" gradientUnits="userSpaceOnUse">
      <stop offset="0" stop-color="#45c4e3"/>
      <stop offset="1" stop-color="#4d62ac"/>
    </linearGradient>
    <linearGradient id="linear-gradient-2" x1="-62.93" y1="1223.23" x2="371.35" y2="1223.23" gradientTransform="matrix(1,0,0,1,0,0)" xlink:href="#linear-gradient"/>
    <linearGradient id="linear-gradient-3" x1="273.08" y1="166.77" x2="804.27" y2="166.77" gradientTransform="matrix(1,0,0,1,0,0)" xlink:href="#linear-gradient"/>
    <linearGradient id="linear-gradient-4" x1="273.33" y1="476.57" x2="806.08" y2="476.57" gradientTransform="matrix(1,0,0,1,0,0)" xlink:href="#linear-gradient"/>
    <linearGradient id="linear-gradient-5" x1="272.3" y1="314.51" x2="523.04" y2="314.51" gradientTransform="matrix(1,0,0,1,0,0)" xlink:href="#linear-gradient"/>
    <linearGradient id="linear-gradient-6" x1="273.19" y1="914.02" x2="806.08" y2="914.02" gradientTransform="matrix(1,0,0,1,0,0)" xlink:href="#linear-gradient"/>
    <linearGradient id="linear-gradient-7" x1="52.94" y1="314.51" x2="186.1" y2="314.51" gradientTransform="matrix(1,0,0,1,0,0)" xlink:href="#linear-gradient"/>
    <linearGradient id="linear-gradient-8" x1="53.9" y1="537.05" x2="175.63" y2="537.05" gradientTransform="matrix(1,0,0,1,0,0)" xlink:href="#linear-gradient"/>
    <linearGradient id="linear-gradient-9" x1="53.9" y1="950.81" x2="175.63" y2="950.81" gradientTransform="matrix(1,0,0,1,0,0)" xlink:href="#linear-gradient"/>
    <clipPath id="clippath-1">
      <rect class="cls-18" x="425.47" y=".1" width="434.62" height="203.21"/>
    </clipPath>
    <linearGradient id="linear-gradient-10" x1="484.37" y1="-79.62" x2="877.62" y2="-79.62" gradientTransform="matrix(1,0,0,1,0,0)" xlink:href="#linear-gradient"/>
    <linearGradient id="linear-gradient-11" x1="458.56" y1="-93.83" x2="876.29" y2="-93.83" gradientTransform="matrix(1,0,0,1,0,0)" xlink:href="#linear-gradient"/>
    <linearGradient id="linear-gradient-12" x1="547.71" y1="7.89" x2="873.87" y2="7.89" gradientTransform="matrix(1,0,0,1,0,0)" xlink:href="#linear-gradient"/>
  </defs>
  <g id="Layer_1-2" data-name="Layer 1">
    <g>
      <rect class="cls-25" y=".1" width="860.08" height="1216.4"/>
      <g class="cls-97">
        <rect class="cls-24" y=".1" width="860.08" height="1216.4"/>
        <g>
          <path class="cls-42" d="m210.46,1443.79c-35.25-2.45-71.22,5.45-103.3,22.17-83.85,43.7-162.12,13.2-183.94-9.82-25.33-26.76-34.29-65.38-29.49-102.49,4.81-37.11,22.3-72.83,44.77-104.91,17.57-25.07,38.87-48.81,66.16-64.41,26.66-15.25,57.29-21.81,87.32-27.56,38.62-7.4,78.04-13.93,116.36-10,31.24,3.19,64.84,17.18,71.51,45.73,5.68,24.34-10.28,51.31-4.14,75.52,8.6,33.91,54.28,44.92,72.99,74.44,21.83,34.43,6.31,77.89-21.45,90.62-28.94,13.27-77.72,13.43-116.79,10.72Z"/>
          <g>
            <path class="cls-123" d="m105.85,1254.8c-1.25,3.99-6.99,7.05-11.12,5.92-4.15-1.13-7.38-7.2-6.07-11.4,1.25-3.99,6.99-7.05,11.12-5.92,4.15,1.13,7.39,7.2,6.07,11.4Z"/>
            <path class="cls-123" d="m173.94,1243.64c4.18,1.39,7.22,7.56,5.7,11.59-1.5,4.01-7.33,6.88-11.31,5.56-4.18-1.39-7.22-7.56-5.7-11.59,1.5-4.01,7.33-6.88,11.31-5.56Z"/>
            <path class="cls-123" d="m128.22,1238.36c4.19,1.35,7.25,7.52,5.74,11.57-1.5,4.02-7.29,6.89-11.29,5.59-4.19-1.35-7.25-7.52-5.74-11.57,1.5-4.02,7.29-6.88,11.29-5.59Z"/>
            <path class="cls-123" d="m146.23,1238.37c1.71-5.26,4.95-6.83,10.4-5.06,5.18,1.69,6.72,4.97,4.91,10.47-1.61,4.92-5,6.56-10.11,4.91-5.26-1.7-6.93-5-5.2-10.32Z"/>
            <path class="cls-123" d="m191.84,1244.42c-.46-2.86,2.12-3.88,3.72-4.84,1.77-1.07,4.2-.98,6.63-.27,2.44.71,3.86,2.43,4.71,4.09.94,1.85,1.07,4.22.17,6.66-.85,2.3-2.48,3.77-4.15,4.65-1.69.89-3.94.88-6.23.24-2.43-.69-3.95-2.32-4.82-3.98-.96-1.83-1.97-4.36-.02-6.56Z"/>
            <path class="cls-123" d="m110.64,1228.1c2.89-.2,4.23,2.17,5.2,3.98.89,1.66.95,3.93.26,6.23-.71,2.39-2.29,3.91-3.95,4.85-1.84,1.05-4.2,1-6.64.37-2.49-.65-3.93-2.39-4.76-4.03-.83-1.64-1.38-3.83-.46-6.22.85-2.19,2.08-4.12,3.81-4.93,1.87-.88,4.3-2.13,6.54-.25Z"/>
            <path class="cls-123" d="m184.75,1228.18c4.14,1.38,6.44,6.18,5,10.43-1.38,4.05-6.26,6.31-10.5,4.85-3.83-1.32-6.15-6.17-4.85-10.15,1.37-4.19,6.13-6.55,10.36-5.14Z"/>
            <path class="cls-123" d="m82.59,1233.11c4.18,1.37,6.54,6.14,5.12,10.36-1.39,4.14-6.18,6.43-10.43,4.98-3.87-1.31-6.24-6.12-4.98-10.08,1.33-4.19,6.11-6.63,10.29-5.26Z"/>
            <path class="cls-123" d="m139.19,1222c4.18,1.35,6.59,6.13,5.2,10.32-1.37,4.14-6.18,6.48-10.4,5.06-3.94-1.33-6.31-6.04-5.06-10.04,1.33-4.22,6.07-6.69,10.25-5.34Z"/>
            <path class="cls-123" d="m54.17,1239.1c4.14,1.37,6.48,6.18,5.06,10.4-1.39,4.13-6.19,6.38-10.47,4.92-3.84-1.31-6.19-6.16-4.92-10.11,1.35-4.18,6.13-6.59,10.32-5.2Z"/>
            <path class="cls-123" d="m167.81,1216.07c4.14,1.38,6.44,6.18,5,10.43-1.38,4.05-6.26,6.31-10.5,4.85-3.83-1.32-6.15-6.17-4.85-10.15,1.37-4.19,6.13-6.55,10.36-5.14Z"/>
            <path class="cls-123" d="m121.7,1210.66c4.46,1.57,6.9,6.58,5.43,10.53-1.53,4.1-6.6,6.62-10.43,4.84-1.84-.85-3.66-2.03-4.55-4.24-.79-1.96-.94-3.93-.33-5.78.67-2,2-3.63,4.04-4.71,2.08-1.1,4.12-.61,5.84-.65Z"/>
            <path class="cls-123" d="m251.56,1255.56c-1.22,3.42-7.13,6.29-10.4,5.04-3.38-1.29-6.18-7.28-4.9-10.48,1.28-3.21,6.92-5.93,10.12-4.9,3.43,1.11,6.38,6.99,5.18,10.33Z"/>
            <path class="cls-123" d="m229.22,1233.05c3.39.92,6.5,6.7,5.47,10.19-.94,3.2-6.41,6.24-9.83,5.46-3.34-.75-6.64-6.51-5.75-10.04.85-3.36,6.61-6.55,10.11-5.61Z"/>
            <path class="cls-123" d="m98.97,1226.21c-1.22,3.42-7.13,6.29-10.4,5.04-3.38-1.29-6.18-7.28-4.9-10.48,1.28-3.21,6.92-5.93,10.12-4.9,3.43,1.11,6.38,6.99,5.18,10.33Z"/>
            <path class="cls-123" d="m155.75,1215.11c-1.48,1.56-2.66,3.59-4.41,4.42-1.74.83-4.28,1.08-6.06.45-1.79-.64-3.6-2.43-4.42-4.18-.82-1.74-1.03-4.29-.37-6.06.66-1.78,2.49-3.5,4.24-4.38,1.6-.8,4.01-1.03,5.65-.42,1.81.68,3.65,2.34,4.54,4.06.88,1.72.6,4.04.83,6.11Z"/>
            <path class="cls-123" d="m218.41,1232.41c-1.44,1.55-2.6,3.59-4.33,4.44-1.73.85-4.26,1.15-6.05.54-1.79-.61-3.64-2.37-4.48-4.1-.84-1.73-1.03-4.22-.47-6.07.51-1.68,2.17-3.44,3.77-4.23,1.76-.86,4.24-1.26,6.05-.7,1.81.56,3.69,2.27,4.6,3.98.91,1.71.66,4.03.92,6.14Z"/>
            <path class="cls-123" d="m65.41,1221.77c1.53,1.44,3.57,2.6,4.41,4.34.84,1.74,1.12,4.27.5,6.06-.62,1.79-2.4,3.62-4.14,4.45-1.74.83-4.23,1-6.07.42-1.67-.52-3.42-2.19-4.2-3.81-.84-1.77-1.3-4.32-.64-6.03.67-1.73,1.9-3.96,3.94-4.64,1.92-.64,4.08-.55,6.19-.79Z"/>
            <path class="cls-123" d="m30.07,1254.48c.02,2.15-1.67,2.94-3.33,4.07-2.12,1.44-3.88.62-5.9.18-2.14-.47-3.01-1.9-4.15-3.56-1.5-2.18-.47-3.91-.07-5.91.44-2.18,1.9-3.06,3.64-4.07,1.94-1.14,3.57-.7,5.47-.16,2,.57,3.2,1.58,4.26,3.44,1.2,2.11,1.07,3.89.08,6.01Z"/>
            <path class="cls-123" d="m105.67,1200.83c2.15-.02,2.95,1.67,4.07,3.33,1.43,2.12.63,3.87.18,5.9-.47,2.14-1.9,3.01-3.56,4.15-2.18,1.5-3.91.48-5.91.07-2.18-.44-3.06-1.89-4.08-3.64-1.13-1.94-.7-3.57-.16-5.47.57-2,1.58-3.2,3.44-4.26,2.11-1.2,3.89-1.07,6.01-.08Z"/>
            <path class="cls-123" d="m182.81,1209.95c.02,2.15-1.67,2.94-3.33,4.07-2.12,1.44-3.88.62-5.9.17-2.14-.47-3.01-1.9-4.15-3.56-1.5-2.18-.47-3.91-.07-5.91.44-2.18,1.9-3.06,3.64-4.07,1.95-1.14,3.57-.69,5.47-.15,2,.57,3.2,1.58,4.26,3.44,1.2,2.11,1.06,3.89.08,6.02Z"/>
            <path class="cls-123" d="m186.54,1216.51c.24-2.12,1.34-3.37,3.24-4.41,2.05-1.12,3.77-1.09,5.88-.39,1.95.65,3.21,1.55,4.28,3.43,1.2,2.11.86,3.83.28,5.9-.57,2.03-1.62,3.23-3.5,4.21-1.91.99-3.49,1.04-5.46.35-2.06-.71-3.63-1.5-4.58-3.71-.83-1.92-1.27-3.58-.13-5.38Z"/>
            <path class="cls-123" d="m124.71,1199.32c1.32-4.1,5.07-5.98,9.19-4.62,4.11,1.36,5.89,5.06,4.47,9.26-1.31,3.87-4.96,5.71-8.91,4.47-4.14-1.3-6.08-5.02-4.76-9.12Z"/>
            <path class="cls-123" d="m81.85,1214.66c-1.3,4.19-4.9,5.94-9.08,4.92-3.41-.83-6.03-5.42-4.87-8.79,1.45-4.22,4.95-6.35,8.96-5.12,4.26,1.3,6.26,4.9,5,9Z"/>
            <path class="cls-123" d="m166.05,1197.5c-1.32,4.1-5.07,5.98-9.19,4.62-4.11-1.36-5.89-5.06-4.48-9.26,1.31-3.87,4.96-5.71,8.91-4.47,4.14,1.3,6.08,5.02,4.76,9.12Z"/>
            <path class="cls-123" d="m37.02,1227.88c4.06,1.37,5.82,5.09,4.38,9.31-1.35,3.97-5.13,5.57-9.4,4.28-3.4-1.03-5.61-5.83-4.29-9.09,1.62-3.98,5.14-5.89,9.3-4.5Z"/>
            <path class="cls-123" d="m236.46,1231.61c-3.73-1.28-5.71-5.91-4.4-9.6,1.09-3.05,5.76-4.88,9.15-4.14,2.26.5,3.23,2.38,3.89,3.71.75,1.49,1.37,3.55.56,5.78-.75,2.09-2.91,2.32-3.72,4.01-1.95-.28-3.85,1.93-5.49.24Z"/>
            <path class="cls-123" d="m48.92,1211.51c1.42,1.37,3.28,2.49,4.05,4.13.71,1.49.71,3.71.15,5.31-.56,1.59-1.95,3.52-3.41,4-1.69.56-3.88,1.53-5.74.38-1.51-.94-3.45-2.09-3.93-3.56-.5-1.55-1.12-3.46-.51-5.35.66-2.06,2.42-3.27,3.89-4.29,1.28-.89,3.49-.44,5.48-.6Z"/>
            <path class="cls-123" d="m257.46,1228.64c1.46,1.3,3.47,2.26,3.99,3.75.59,1.69,1.49,3.88.41,5.73-.89,1.53-2.05,3.49-3.51,3.97-1.69.55-3.89,1.5-5.74.35-1.51-.95-3.41-2.1-3.92-3.58-.53-1.54-1.09-3.47-.47-5.35.67-2.03,2.42-3.27,3.9-4.28,1.29-.88,3.49-.44,5.33-.58Z"/>
            <path class="cls-123" d="m224.28,1205.57c1.42,1.37,3.28,2.49,4.05,4.13.71,1.49.71,3.71.15,5.3-.56,1.59-1.95,3.52-3.41,4-1.69.56-3.88,1.53-5.74.38-1.51-.94-3.45-2.09-3.93-3.56-.5-1.55-1.12-3.46-.51-5.35.66-2.06,2.42-3.27,3.89-4.29,1.28-.89,3.49-.44,5.49-.6Z"/>
            <path class="cls-123" d="m83.9,1202.26c-3-1.02-5.61-6.32-4.55-9.22,1.09-2.98,6.48-5.61,9.29-4.38,3.06,1.35,5.18,5.93,4.42,8.92-.72,2.84-6.42,5.79-9.16,4.69Z"/>
            <path class="cls-123" d="m206.68,1194.5c2.58.46,5.82,6.01,4.79,9.1-.91,2.75-5.88,5.49-8.76,4.78-2.97-.73-5.88-5.88-5.07-8.96.78-2.96,5.99-5.8,9.03-4.93Z"/>
            <path class="cls-123" d="m270.02,1253.8c-2.98-1.05-5.56-6.4-4.47-9.26,1.13-2.98,6.49-5.47,9.34-4.33,2.76,1.1,5.18,6.2,4.34,8.99-.92,3.03-6.75,5.74-9.2,4.61Z"/>
            <path class="cls-123" d="m121.25,1192.44c-.63,2.77-6.3,5.75-9.15,4.72-2.59-.93-5.39-5.38-4.67-8.8.63-2.99,5.91-5.84,8.97-4.99,2.97.82,5.76,6.05,4.85,9.07Z"/>
            <path class="cls-123" d="m145.21,1177.6c1.22,1.26,3.02,2.11,3.91,4.11.75,1.7.01,3.36.53,4.97-1.61,1.34-2.36,3.72-4.75,4.08-1.49.23-3.53.89-4.42.19-1.35-1.05-3.03-1.88-3.89-3.81-.77-1.73-.21-3.36-.51-5-.13-.7,1.2-1.78,1.83-2.66.78-1.08,2.46-1.67,3.86-2.07,1-.29,2.19.09,3.44.18Z"/>
            <path class="cls-123" d="m13.11,1242.89c-1.73,1.43-2.45,3.84-4.85,4.2-1.5.22-3.42.88-4.44.23-1.69-1.08-3.75-2.3-4.13-4.66-.24-1.49-.83-3.47-.15-4.43,1.07-1.5,2.14-3.25,4.28-4.02,1.6-.58,3.13.42,4.56-.41,1.32,1.43,3.12,2.25,4.07,4.22.84,1.74-.26,3.41.65,4.88Z"/>
            <path class="cls-123" d="m194.33,1192.33c-.95,1.06-1.92,2.24-2.99,3.31-1.72,1.7-4.07,1.34-6.09,1.27-1.1-.04-2.25-1.5-3.18-2.5-1.58-1.69-1.61-4.01-1.54-6.06.03-1.15,1.34-2.38,2.31-3.34,1.77-1.75,4.28-1.82,6.45-1.65,1.24.1,2.43,1.69,3.51,2.75,1.73,1.69.95,4.07,1.53,6.22Z"/>
            <path class="cls-123" d="m51.73,1199.32c1.38-4.25,3.62-5.34,8.03-3.9,4.25,1.38,5.34,3.62,3.9,8.03-1.38,4.25-3.62,5.34-8.03,3.9-4.25-1.38-5.34-3.62-3.9-8.03Z"/>
            <path class="cls-123" d="m173.01,1173.21c3.98,1.31,5.31,3.97,3.99,7.99-1.31,3.98-3.97,5.31-7.99,3.99-3.98-1.31-5.31-3.97-3.99-7.99,1.31-3.98,3.97-5.31,7.99-3.99Z"/>
            <path class="cls-123" d="m24.28,1225.65c-1.3,4.04-3.92,5.38-7.94,4.08-4.04-1.3-5.38-3.92-4.08-7.94,1.3-4.04,3.92-5.38,7.94-4.08,4.04,1.3,5.38,3.92,4.08,7.94Z"/>
            <path class="cls-123" d="m99.02,1173.02c4.03,1.28,5.42,3.92,4.15,7.91-1.28,4.03-3.92,5.41-7.91,4.15-4.03-1.28-5.42-3.92-4.15-7.91,1.28-4.03,3.92-5.42,7.91-4.15Z"/>
            <path class="cls-123" d="m119.73,1170.7c1-3.44,4.66-4.96,8.26-3.56,3.33,1.29,4.93,4.72,3.54,8.32-1.29,3.33-4.72,4.94-8.32,3.54-3.33-1.29-5.14-4.8-3.48-8.3Z"/>
            <path class="cls-123" d="m35.45,1208.65c.06,1.67-1.37,2.42-2.92,3.13-1.6.73-2.96,1.76-5,.82-1.43-.66-2.58-1.22-3.15-2.77-.59-1.61-1.95-2.9-1.05-4.97.68-1.55,1.14-2.94,2.95-3.56,1.63-.56,2.94-1.74,4.98-.94,3.13,1.23,5.28,4.86,4.19,8.29Z"/>
            <path class="cls-123" d="m234.94,1190.35c1.68-.06,2.42,1.37,3.13,2.92.73,1.6,1.75,2.96.81,5-.66,1.44-1.22,2.58-2.78,3.15-1.61.59-2.9,1.95-4.97,1.05-1.55-.68-2.93-1.14-3.56-2.95-.56-1.63-1.73-2.94-.93-4.98,1.23-3.13,4.86-5.27,8.29-4.19Z"/>
            <path class="cls-123" d="m62.81,1182.62c1.19-3.6,5.05-5.29,8.31-4.46,2.12.54,2.5,2.26,3.49,3.67,1.1,1.56.67,2.96.32,4.61-.48,2.21-2.33,2.46-3.75,3.42-1.37.92-2.63.71-4.18.41-2.2-.43-2.74-2.03-3.57-3.59-.78-1.47-1.81-2.89-.62-4.06Z"/>
            <path class="cls-123" d="m147.65,1166.41c1.19-3.6,5.05-5.29,8.31-4.46,2.12.54,2.5,2.26,3.49,3.67,1.1,1.56.67,2.96.32,4.61-.48,2.21-2.33,2.46-3.75,3.42-1.37.92-2.63.71-4.18.41-2.2-.43-2.74-2.03-3.57-3.59-.78-1.47-1.81-2.89-.62-4.06Z"/>
            <path class="cls-123" d="m244.13,1205.49c.02-2.38,2.12-2.59,3.51-3.59,1.53-1.09,2.94-.73,4.61-.36,2.21.48,2.41,2.37,3.45,3.73,1.21,1.58.56,3,.25,4.61-.44,2.24-2.4,2.4-3.79,3.38-1.36.95-2.64.66-4.18.36-2.2-.44-2.63-2.14-3.55-3.62-.93-1.5-1.39-2.95-.3-4.51Z"/>
            <path class="cls-123" d="m261.25,1216.74c1.04-2.94,5.29-4.97,8.13-3.89,2.92,1.11,4.87,5.37,3.75,8.2-1.07,2.69-5.12,4.65-7.84,3.74-3.26-1.09-4.98-5.66-4.04-8.05Z"/>
            <path class="cls-123" d="m193.43,1171.39c.63-2.48,4.7-5.19,7.98-4.17,2.74.85,4.88,4.81,4.17,7.62-.74,2.95-4.82,5.27-7.84,4.46-2.93-.79-5.19-4.92-4.32-7.91Z"/>
            <path class="cls-123" d="m289.56,1231.8c-1.05,2.94-5.29,4.97-8.13,3.89-2.92-1.11-4.87-5.37-3.75-8.2,1.07-2.7,5.12-4.65,7.84-3.74,3.29,1.11,4.97,5.7,4.03,8.05Z"/>
            <path class="cls-123" d="m209.76,1182.46c.79-2.93,4.92-5.19,7.91-4.32,2.72.79,4.95,4.7,4.31,7.55-.66,2.92-4.76,5.36-7.77,4.6-2.95-.74-5.27-4.82-4.46-7.84Z"/>
            <path class="cls-123" d="m114.56,1163.73c-1.7.96-1.74,3.33-3.74,3.63-1.51.23-3.48.92-4.45.26-1.27-.88-3.29-1.48-3.58-3.45-.22-1.51-.23-3.04-.33-4.57,1.71-.44,1.44-2.66,3.23-3.35,1.61-.62,3.16.43,4.59-.45.82,1.55,2.88,1.63,3.7,3.43.74,1.62-.6,3.17.58,4.5Z"/>
            <path class="cls-123" d="m42.22,1183.91c1.2,1.08,2.39,2.05,3.46,3.13,1.4,1.42.19,3.35.84,4.93-1.35.84-1.6,2.55-2.98,3.5-1.68,1.15-3.44-.17-5,.67-.67-1.52-2.54-1.58-3.48-3.03-1.03-1.59.39-3.23-.69-4.6.97-1.18,1.9-2.4,2.91-3.54,1.38-1.56,3.41.07,4.94-1.07Z"/>
            <path class="cls-123" d="m184.34,1156.02c1.14,1.19,2.62,2.22,3.31,3.64.63,1.28.92,3.22.38,4.45-.6,1.37-2.15,2.58-3.57,3.24-1.3.6-3.18.87-4.46.39-1.3-.49-2.52-1.91-3.14-3.23-.62-1.31-.97-3.2-.47-4.45.57-1.43,2.02-2.79,3.43-3.51,1.26-.65,2.99-.39,4.51-.53Z"/>
            <path class="cls-123" d="m305.75,1243.32c-1.21,3.91-2.92,4.9-6.57,3.79-3.77-1.15-4.77-3.05-3.97-6.51.87-3.79,4.01-5.08,6.92-3.97,3.57,1.36,4.71,3.18,3.63,6.69Z"/>
            <path class="cls-123" d="m141.98,1157.55c-.49,3.23-3.93,4.64-6.76,3.52-3.76-1.48-4.6-3.17-3.5-7.17.87-3.12,4.05-4.41,6.96-3.22,3.42,1.4,4.48,3.25,3.3,6.86Z"/>
            <path class="cls-123" d="m85.35,1168.59c-1.16,3.61-3.14,4.65-6.7,3.54-3.99-1.25-4.89-3.04-3.54-7.05,1.18-3.49,3.21-4.45,6.84-3.25,3.56,1.17,4.56,3.17,3.4,6.77Z"/>
            <path class="cls-123" d="m46.57,1171.26c1.01-3.13,3.69-4.5,6.81-3.5,3.13,1.01,4.5,3.69,3.5,6.81-1.01,3.13-3.69,4.5-6.81,3.5-3.13-1.01-4.5-3.69-3.5-6.81Z"/>
            <path class="cls-123" d="m167.23,1145.75c1.78.05,2.02,1.74,2.87,2.88,1.11,1.49.2,2.78-.01,4.19-.27,1.83-1.8,2.12-2.96,2.97-1.5,1.1-2.78.2-4.19-.01-1.83-.27-2.12-1.8-2.97-2.96-1.1-1.5-.2-2.78.01-4.19.27-1.83,1.69-2.28,2.98-2.93,1.69-.85,1.69-.83,4.26.05Z"/>
            <path class="cls-123" d="m2.83,1207.37c3.05,1.01,4.37,3.74,3.32,6.9-1.01,3.05-3.74,4.37-6.9,3.32-3.05-1.01-4.37-3.74-3.32-6.9,1.01-3.05,3.74-4.37,6.9-3.32Z"/>
            <path class="cls-123" d="m245.81,1173.96c2.36,1.07,4.43,3.49,3.28,6.88-.83,2.44-3.44,4.45-6.83,3.29-2.44-.83-4.45-3.45-3.29-6.83.83-2.44,3.4-4.31,6.85-3.34Z"/>
            <path class="cls-123" d="m266.34,1192.16c-1.32,2.74-3.95,4.32-6.92,3.19-2.83-1.08-4.34-3.9-3.21-6.87,1.08-2.83,3.89-4.34,6.87-3.21,2.83,1.08,4.16,3.83,3.26,6.89Z"/>
            <path class="cls-123" d="m149.53,1134.35c2.73.93,4.33,4.15,3.41,6.85-.93,2.73-4.15,4.33-6.85,3.41-2.73-.93-4.33-4.15-3.41-6.85.93-2.73,4.15-4.33,6.85-3.41Z"/>
            <path class="cls-123" d="m229.32,1162.95c2.88.99,4.33,4.26,3.49,6.81-.95,2.89-4.25,4.33-6.8,3.49-2.89-.95-4.33-4.25-3.49-6.8.95-2.89,4.24-4.3,6.8-3.5Z"/>
            <path class="cls-123" d="m279.95,1196.35c3.01,1.06,4.46,3.74,3.68,6.67-.82,3.07-3.69,4.47-6.62,3.69-3.08-.82-4.47-3.69-3.69-6.62.82-3.07,3.63-4.28,6.63-3.75Z"/>
            <path class="cls-123" d="m7.14,1193.6c.99-2.88,4.26-4.33,6.81-3.49,2.89.95,4.33,4.25,3.49,6.8-.95,2.89-4.25,4.33-6.8,3.49-2.89-.95-4.3-4.24-3.5-6.8Z"/>
            <path class="cls-123" d="m96.31,1152.24c-.94,2.77-4.14,4.35-6.81,3.48-2.78-.9-4.35-4.13-3.48-6.8.9-2.78,4.13-4.35,6.8-3.48,2.78.9,4.32,4.12,3.49,6.8Z"/>
            <path class="cls-123" d="m124.76,1146.32c-.93,2.73-4.15,4.33-6.85,3.41-2.73-.93-4.33-4.15-3.41-6.85.93-2.73,4.15-4.33,6.85-3.41,2.73.93,4.33,4.15,3.41,6.85Z"/>
            <path class="cls-123" d="m212.57,1150.91c2.74,1.33,4.32,3.95,3.19,6.92-1.08,2.83-3.89,4.34-6.87,3.21-2.83-1.08-4.34-3.9-3.21-6.87,1.08-2.83,3.82-4.16,6.89-3.26Z"/>
            <path class="cls-123" d="m68.99,1157.6c-.51,1.75-5.23,4.15-6.9,3.5-1.6-.62-3.83-4.79-3.5-6.54.32-1.7,4.83-4.22,6.75-3.78,1.72.39,4.17,4.99,3.64,6.82Z"/>
            <path class="cls-123" d="m198.69,1146.31c-.42,1.72-5.07,4.17-6.85,3.6-1.55-.5-3.87-4.7-3.59-6.49.26-1.68,4.75-4.27,6.7-3.88,1.71.35,4.2,4.87,3.74,6.77Z"/>
            <path class="cls-123" d="m18.27,1176.63c.84-1.99,5.13-4.36,6.73-3.73.96.38,1.79,1.36,2.41,2.26,2.18,3.18,1.29,5.97-2.27,7.44-2.45,1.01-4.3.49-5.54-1.88-.7-1.35-.96-2.92-1.32-4.08Z"/>
            <path class="cls-123" d="m172.03,1132.01c.99-3,2.57-3.78,5.65-2.79,3.27,1.05,3.97,2.55,2.79,6-.97,2.86-2.62,3.57-5.79,2.51-2.95-.99-3.68-2.58-2.65-5.72Z"/>
            <path class="cls-123" d="m299.71,1215.03c-1,3.09-2.55,3.92-5.56,2.97-3.31-1.04-4.08-2.58-2.97-5.91.99-2.96,2.58-3.71,5.7-2.69,3.02.99,3.81,2.58,2.83,5.63Z"/>
            <path class="cls-123" d="m104.76,1129.38c3,.99,3.78,2.57,2.79,5.65-1.05,3.27-2.55,3.97-6,2.79-2.86-.97-3.57-2.62-2.51-5.79.99-2.95,2.58-3.68,5.72-2.65Z"/>
            <path class="cls-123" d="m76.46,1134.46c2.37.76,3.65,3.18,2.95,5.57-.76,2.61-3.38,3.91-5.92,2.95-2.21-.84-3.45-3.48-2.67-5.71.82-2.34,3.28-3.57,5.64-2.81Z"/>
            <path class="cls-123" d="m313.07,1220.31c2.28.68,3.73,3.23,3.05,5.5-.79,2.66-2.82,3.7-5.42,3.18-2.62-.53-4.04-3.22-3.21-5.76.76-2.34,3.21-3.63,5.58-2.92Z"/>
            <path class="cls-123" d="m36.79,1157.67c2.45.72,3.59,3.48,2.9,5.6-.82,2.53-3.48,3.85-5.96,2.89-2.16-.83-3.4-3.56-2.61-5.74.83-2.3,3.35-3.52,5.67-2.75Z"/>
            <path class="cls-123" d="m133.28,1123.42c2.27.84,3.46,3.38,2.73,5.69-.92,2.9-4.17,3.57-6.05,2.74-2.16-.96-3.31-3.6-2.43-5.84.84-2.17,3.57-3.39,5.75-2.58Z"/>
            <path class="cls-123" d="m164.21,1123.93c-.6,1.85-3.82,3.5-5.68,2.9-1.85-.6-3.5-3.82-2.9-5.68.6-1.85,3.82-3.5,5.68-2.9,1.85.6,3.5,3.82,2.9,5.68Z"/>
            <path class="cls-123" d="m222.95,1135.31c1.4.33,3.44,4.06,3.07,5.59-.33,1.39-4.06,3.44-5.59,3.07-1.39-.33-3.44-4.06-3.07-5.59.33-1.39,4.06-3.44,5.59-3.07Z"/>
            <path class="cls-123" d="m243.2,1152.26c-.44,1.36-4.32,3.35-5.68,2.91-1.36-.44-3.35-4.32-2.91-5.68.44-1.36,4.32-3.35,5.68-2.91,1.36.44,3.35,4.32,2.91,5.67Z"/>
            <path class="cls-123" d="m268.18,1171.77c.37-1.35,4.19-3.38,5.64-2.98,1.35.37,3.38,4.19,2.98,5.64-.37,1.35-4.19,3.38-5.64,2.98-1.35-.37-3.38-4.19-2.98-5.64Z"/>
            <path class="cls-123" d="m47.99,1140.44c1.36.44,3.35,4.32,2.91,5.67-.44,1.36-4.32,3.35-5.68,2.91-1.36-.44-3.35-4.32-2.91-5.68.44-1.36,4.32-3.35,5.68-2.91Z"/>
            <path class="cls-123" d="m257.33,1157.78c1.38.3,3.48,4.01,3.15,5.55-.3,1.38-4.01,3.48-5.55,3.15-1.38-.3-3.48-4.01-3.15-5.55.3-1.38,4.01-3.48,5.55-3.15Z"/>
            <path class="cls-123" d="m203.42,1130.9c-2.95-.99-3.13-1.39-2.08-4.58,1.01-3.05,1.5-3.26,4.94-2.08,2.64.91,2.88,1.52,1.79,4.72-.97,2.85-1.39,3.03-4.65,1.93Z"/>
            <path class="cls-123" d="m332.36,1237.2c-.99,2.95-1.39,3.13-4.58,2.08-3.05-1.01-3.26-1.5-2.08-4.94.91-2.64,1.52-2.88,4.73-1.79,2.85.97,3.03,1.39,1.93,4.65Z"/>
            <path class="cls-123" d="m307.67,1192.98c1.83.55,2.98,2.56,2.49,4.37-.57,2.08-2.68,3.2-4.72,2.5-1.76-.61-2.79-2.71-2.21-4.51.58-1.79,2.66-2.89,4.44-2.35Z"/>
            <path class="cls-123" d="m86.94,1118.89c1.84.5,3.06,2.5,2.63,4.3-.49,2.04-2.66,3.28-4.65,2.64-1.79-.58-2.89-2.66-2.35-4.44.55-1.83,2.56-2.98,4.37-2.49Z"/>
            <path class="cls-123" d="m184.91,1115.57c.55-1.84,2.55-2.99,4.36-2.51,2.08.56,3.21,2.68,2.51,4.71-.61,1.76-2.72,2.8-4.5,2.23-1.8-.58-2.9-2.64-2.37-4.43Z"/>
            <path class="cls-123" d="m117.97,1117.42c-.55,1.83-2.56,2.98-4.37,2.49-2.08-.57-3.2-2.68-2.5-4.72.61-1.76,2.71-2.79,4.51-2.21,1.79.58,2.89,2.66,2.35,4.44Z"/>
            <path class="cls-123" d="m58.95,1124.07c1.79.58,2.9,2.65,2.37,4.43-.61,2.07-2.76,3.13-4.78,2.38-1.75-.65-2.71-2.76-2.09-4.57.6-1.76,2.72-2.81,4.5-2.23Z"/>
            <path class="cls-123" d="m8.08,1163.57c1.84.5,3.06,2.5,2.63,4.3-.49,2.05-2.66,3.27-4.65,2.63-1.78-.57-2.88-2.66-2.35-4.44.55-1.83,2.57-2.98,4.37-2.49Z"/>
            <path class="cls-123" d="m146.18,1112.26c-.54,1.86-2.51,3.02-4.34,2.55-2.06-.53-3.23-2.67-2.55-4.69.59-1.76,2.71-2.83,4.48-2.27,1.81.57,2.93,2.62,2.41,4.41Z"/>
            <path class="cls-123" d="m292.9,1186.21c-.55,1.83-2.56,2.98-4.37,2.49-2.08-.57-3.2-2.68-2.5-4.72.61-1.76,2.71-2.79,4.51-2.21,1.79.58,2.89,2.66,2.35,4.44Z"/>
            <path class="cls-123" d="m347.07,1243.47c.47.4.75.54.88.77.57,1.05,1.18,2.08,1.6,3.2.14.37-.17,1.03-.46,1.41-.24.32-.76.43-1.16.64-3.34,1.69-2.71,1.87-4.47-1.44-1.05-1.96-1.28-2.21,1.07-3.27.91-.41,1.78-.9,2.56-1.3Z"/>
            <path class="cls-123" d="m22.05,1150.6c-.31.47-.41.79-.62.91-1.04.58-2.12,1.1-3.17,1.65-.85.44-1.35.08-1.72-.69-.45-.94-1.03-1.83-1.38-2.8-.15-.42-.01-1.25.29-1.45,1.12-.73,2.35-1.29,3.56-1.86.21-.1.71,0,.81.17.81,1.38,1.55,2.8,2.24,4.07Z"/>
            <path class="cls-123" d="m126.37,1096.55c1.85.5,2.48,1.48,2.06,3.15-.47,1.87-1.46,2.58-3.08,2.2-2.08-.47-2.77-1.55-2.21-3.44.54-1.83,1.49-2.39,3.23-1.92Z"/>
            <path class="cls-123" d="m171.89,1102.71c1.83.54,2.39,1.49,1.92,3.23-.5,1.85-1.48,2.48-3.15,2.06-2.1-.53-2.7-1.54-2.06-3.51.58-1.79,1.53-2.3,3.3-1.78Z"/>
            <path class="cls-123" d="m97.94,1102.54c1.84.52,2.45,1.48,2.02,3.18-.48,1.86-1.46,2.54-3.11,2.16-2.07-.49-2.74-1.56-2.16-3.46.55-1.81,1.51-2.36,3.25-1.87Z"/>
            <path class="cls-123" d="m321.27,1206.96c.54-1.83,1.49-2.39,3.23-1.92,1.85.5,2.48,1.48,2.06,3.15-.53,2.1-1.54,2.7-3.51,2.07-1.8-.58-2.31-1.53-1.78-3.3Z"/>
            <path class="cls-123" d="m235.54,1123.14c-.54,1.83-1.49,2.39-3.23,1.92-1.85-.5-2.48-1.48-2.06-3.15.53-2.1,1.54-2.7,3.51-2.06,1.79.58,2.3,1.53,1.78,3.3Z"/>
            <path class="cls-123" d="m247.55,1132.94c.54-1.83,1.49-2.39,3.23-1.92,1.85.5,2.48,1.48,2.06,3.15-.53,2.1-1.54,2.7-3.51,2.07-1.8-.58-2.31-1.53-1.78-3.3Z"/>
            <path class="cls-123" d="m213.5,1110.59c1.44-.7,2.52-1.37,3.7-1.74.66-.21,2.43,3.04,1.87,3.47-.97.75-2.37,1.77-3.28,1.53-.9-.24-1.41-1.91-2.29-3.26Z"/>
            <path class="cls-123" d="m287.39,1157.99c-1.5.65-2.6,1.3-3.8,1.58-.71.16-2.31-3.15-1.74-3.53,1.03-.68,2.44-1.66,3.35-1.39.89.27,1.34,1.95,2.19,3.35Z"/>
            <path class="cls-123" d="m26.4,1132.37c1.51-.57,2.9-1.62,3.77-1.29.88.34,1.41,1.99,1.75,3.16.19.67-3.14,2.27-3.55,1.71-.73-.99-1.22-2.17-1.97-3.58Z"/>
            <path class="cls-123" d="m66.11,1109.18c1.51-.57,2.9-1.62,3.77-1.29.88.34,1.41,1.99,1.75,3.16.19.67-3.14,2.27-3.55,1.71-.73-.99-1.22-2.17-1.97-3.58Z"/>
            <path class="cls-123" d="m268.2,1141.83c.71,1.42,1.39,2.5,1.79,3.67.22.64-3.01,2.45-3.45,1.91-.77-.95-1.81-2.34-1.57-3.25.23-.9,1.89-1.43,3.23-2.33Z"/>
            <path class="cls-123" d="m154.91,1091.01c.65,1.49,1.3,2.59,1.59,3.79.17.71-3.14,2.32-3.53,1.75-.69-1.02-1.67-2.44-1.4-3.35.27-.89,1.95-1.35,3.34-2.19Z"/>
            <path class="cls-123" d="m340.54,1216.86c1.99.59,1.93.58,1.44,2.37-.32,1.2-.7,1.77-2.1,1.24-1.87-.71-1.85-.59-1.36-2.39.32-1.19.73-1.95,2.03-1.22Z"/>
            <path class="cls-123" d="m298.99,1167.35c.17-1.19.66-1.71,2.06-1.18,1.88.71,1.85.59,1.37,2.39-.32,1.2-.7,1.77-2.1,1.24-1.87-.71-1.91-.61-1.32-2.45Z"/>
            <path class="cls-123" d="m200.18,1098.58c1.49.17,1.34,1.04.91,2.18-.65,1.74-.56,1.65-2.51,1.13-1.47-.39-1.4-1.1-.97-2.24.65-1.74.59-1.76,2.56-1.07Z"/>
            <path class="cls-123" d="m41.42,1114.06c.41,1.17,1.06,2.1.83,2.68-.23.6-1.32.87-2.03,1.29-.42-.83-1.12-1.66-1.12-2.5,0-.42,1.28-.84,2.32-1.47Z"/>
            <path class="cls-123" d="m77.81,1093.24c1.15-.47,2.26-1.24,2.6-.98.67.5.91,1.57,1.32,2.4-.76.32-1.63,1.02-2.25.85-.6-.17-.95-1.24-1.66-2.27Z"/>
            <path class="cls-123" d="m106.35,1087.47c.97-.54,1.65-1.1,2.43-1.3.7-.18,1.9,1.71,1.42,2.29-.49.59-1.48,1.25-2.09,1.12-.61-.13-1.04-1.18-1.76-2.11Z"/>
            <path class="cls-123" d="m183.01,1085.87c.5,1.08,1.01,1.8,1.13,2.57.12.75-1.8,1.81-2.35,1.29-.56-.53-1.14-1.54-.99-2.16.15-.61,1.22-.98,2.21-1.7Z"/>
            <path class="cls-123" d="m137.49,1082.03c.24.32.61.8.97,1.28-.82.39-1.64.79-2.46,1.18-.33-.74-1.06-1.56-.92-2.19.31-1.4,1.35-.3,2.41-.28Z"/>
            <path class="cls-123" d="m314.04,1151.64c-.81.09-1.31.26-1.71.14-.22-.07-.46-.9-.37-.97.37-.28.85-.49,1.31-.52.16,0,.36.59.78,1.35Z"/>
            <path class="cls-123" d="m246.29,1106.08c-.81.09-1.31.26-1.71.14-.22-.07-.46-.9-.37-.97.37-.28.85-.49,1.31-.52.16,0,.36.59.78,1.35Z"/>
            <path class="cls-123" d="m260.14,1115.88c.8-.16,1.37-.41,1.49-.27.3.34.39.86.57,1.3-.35.13-.83.46-1.03.34-.37-.22-.56-.72-1.03-1.37Z"/>
            <path class="cls-123" d="m358.54,1231.05c-.76.26-1.21.55-1.64.52-.23-.02-.43-.57-.64-.88.4-.26.78-.63,1.22-.72.18-.04.49.49,1.05,1.09"/>
            <path class="cls-123" d="m316.64,1178.67c.8-.16,1.37-.41,1.49-.27.3.34.39.86.57,1.3-.35.13-.83.46-1.03.34-.36-.22-.56-.72-1.03-1.37Z"/>
            <path class="cls-123" d="m62.72,1081.54c.8-.16,1.37-.41,1.49-.27.3.34.39.86.57,1.3-.35.13-.83.46-1.03.34-.37-.22-.56-.72-1.03-1.37Z"/>
            <path class="cls-123" d="m296.92,1140.08c-.76.26-1.21.55-1.64.52-.23-.02-.43-.57-.64-.88.4-.26.78-.63,1.22-.72.18-.04.49.49,1.05,1.09Z"/>
            <path class="cls-123" d="m352.36,1201.22c.26.76.55,1.21.52,1.64-.02.23-.57.43-.88.64-.26-.4-.63-.78-.72-1.22-.04-.18.49-.49,1.09-1.05Z"/>
            <path class="cls-123" d="m52.48,1097.79c.09.81.26,1.31.14,1.71-.07.22-.9.46-.97.37-.28-.37-.49-.85-.52-1.31,0-.16.59-.36,1.35-.78Z"/>
            <path class="cls-123" d="m333.86,1189.91c.8-.16,1.37-.41,1.49-.27.3.34.39.86.57,1.3-.35.13-.83.46-1.03.34-.37-.22-.56-.72-1.03-1.37Z"/>
            <path class="cls-123" d="m278.63,1127.19c.26.76.55,1.21.52,1.64-.02.23-.57.43-.88.64-.26-.4-.63-.78-.72-1.22-.04-.18.49-.49,1.09-1.05Z"/>
            <path class="cls-123" d="m22.15,1104.46c.8-.16,1.37-.41,1.49-.27.3.34.39.86.57,1.3-.35.13-.83.46-1.03.34-.37-.22-.56-.72-1.03-1.37Z"/>
            <path class="cls-123" d="m11.18,1120.82c.8-.16,1.37-.41,1.49-.27.3.34.39.86.57,1.3-.35.13-.83.46-1.03.34-.36-.22-.56-.72-1.03-1.37Z"/>
            <path class="cls-123" d="m-.17,1138.36c.78-.37,1.29-.74,1.42-.64.36.28.62.74.76,1.18.03.1-.65.64-.87.57-.41-.14-.71-.57-1.31-1.11Z"/>
            <path class="cls-123" d="m228.06,1092.85c.37.78.74,1.29.64,1.42-.28.36-.74.62-1.18.76-.1.03-.64-.65-.57-.87.13-.4.57-.71,1.11-1.31Z"/>
          </g>
          <path class="cls-11" d="m218.52,1047.67c-49.62,10.21-114.5-42.23-150.36-48.6-32.82-5.83-77.53,15.49-104.79,41.82-27.26,26.34-36.1,72.9-13.25,103.13,9.95,13.15,24.54,22.15,34.69,35.15,32.48,41.61,8.08,102.88,20.12,154.26,13.89,59.22,74.66,96.08,134.06,109.13,37.78,8.3,78.96,9.34,113.46-8.15,34.49-17.49,59.53-57.36,50.47-94.96-8.16-33.88-41.16-67.06-24.76-97.8,11.46-21.51,40.16-25.34,60.54-38.69,31.93-20.93,40.74-67.39,25.04-102.19-15.71-34.8-36.48-60.96-74.62-62.79-17.8-.85-53.16,6.11-70.61,9.7Z"/>
          <path class="cls-19" d="m-29.45,1214.12c24.47,27.76,39.8,62.39,44.5,99.14,12.28,96.08,89.86,142.5,124.96,146.63,40.77,4.78,82.23-11.22,113.62-37.73,31.39-26.51,53.5-62.69,69.1-100.79,12.18-29.79,20.78-61.86,18.07-93.97-2.65-31.37-15.86-60.76-29.44-89.16-17.46-36.53-36.24-73.19-64.01-102.6-22.64-23.98-56.77-43.36-87.45-31.58-26.15,10.05-41.11,39.66-67.43,49.26-36.86,13.44-75.84-17.77-115.01-15.38-45.68,2.78-76.21,42.03-70.53,72.78,5.92,32.06,36.5,72.63,63.62,103.39Z"/>
        </g>
      </g>
      <text class="cls-39" transform="translate(53.01 136.65)"><tspan class="cls-55" x="0" y="0">P</tspan><tspan class="cls-54" x="32.92" y="0">aul</tspan><tspan class="cls-56" x="107.85" y="0"> </tspan><tspan class="cls-9" x="120.71" y="0">Harl</tspan><tspan class="cls-8" x="220.02" y="0">o</tspan><tspan class="cls-5" x="250.04" y="0">w</tspan></text>
      <text class="cls-122" transform="translate(53.01 172.26)"><tspan class="cls-61" x="0" y="0">M</tspan><tspan class="cls-117" x="19.87" y="0">a</tspan><tspan class="cls-87" x="31.68" y="0">r</tspan><tspan class="cls-117" x="39.79" y="0">keting </tspan><tspan class="cls-61" x="109.89" y="0">M</tspan><tspan class="cls-117" x="129.76" y="0">anager</tspan></text>
      <line class="cls-12" x1="273.08" y1="166.77" x2="804.27" y2="166.77"/>
      <text transform="translate(304.97 191.86)"><tspan class="cls-47"><tspan x="0" y="0">Phone</tspan></tspan><tspan class="cls-6"><tspan x="0" y="21.67">021</tspan><tspan class="cls-103" x="20.02" y="21.67">-</tspan><tspan x="25.26" y="21.67">3465552</tspan></tspan></text>
      <g id="phone_celuler_contact_call" data-name="phone celuler contact call">
        <path class="cls-123" d="m273.08,188.35c.02,2.43,1.94,5.54,5.71,9.24,4.42,4.34,7.38,5.7,9.35,5.7.91.02,1.79-.34,2.43-.98l1.77-1.78c.08-.08.16-.17.23-.27.76-1.04.54-2.5-.5-3.27l-2.34-1.72c-.6-.44-1.37-.56-2.07-.34l-2.96.95h0c-.16.05-.31.14-.41.28,0,0,0,0,0,0-.24.35-.15.84.2,1.08l2.96,2.08c.13.09.29.14.44.14.25,0,.49-.12.64-.33,0,0,0,0,0,0,.25-.35.16-.84-.19-1.08l-1.66-1.18,1.47-.46c.23-.07.49-.03.69.12l2.34,1.72c.18.13.3.34.32.57.02.23-.07.45-.23.61l-1.81,1.79c-1.49,1.5-5.08-.29-9.6-4.73-4.32-4.24-5.24-6.76-5.24-8.13-.03-.54.16-1.07.53-1.46l.12-.12,1.38,2.13c.14.22.39.35.65.35.15,0,.29-.04.42-.12.36-.23.47-.71.23-1.08l-1.56-2.41.52-.52s.06-.05.09-.07c.35-.25.83-.18,1.09.17l1.72,2.34c.15.19.21.44.15.68l-.09.3c-.22.69-.5,1.58-.66,2.14-.18.56-.13,1.17.13,1.69.5,1,1.14,1.93,1.92,2.73.3.3.79.3,1.1,0,0,0,0,0,0,0,.3-.31.3-.8,0-1.1-.65-.7-1.2-1.48-1.62-2.34-.08-.17-.09-.36-.04-.55.17-.58.44-1.44.65-2.13l.1-.3c.22-.71.09-1.47-.34-2.07l-1.72-2.34c-.07-.1-.15-.19-.23-.27-.91-.91-2.39-.91-3.3,0l-1.77,1.77c-.67.68-1.03,1.61-.99,2.57Z"/>
      </g>
      <text transform="translate(484.22 191.86)"><tspan class="cls-47"><tspan x="0" y="0">Email</tspan></tspan><tspan class="cls-6"><tspan x="0" y="21.67">paulharl346@gmail.com</tspan></tspan></text>
      <g id="mail_email_e-mail_letter" data-name="mail email e-mail letter">
        <g>
          <path class="cls-123" d="m469.83,188.45c-.47,0-.85.38-.85.85v6.84c0,.47-.38.85-.85.85h-17.09c-.47,0-.85-.38-.85-.85v-6.84c0-.47-.38-.85-.85-.85s-.85.38-.85.85v6.84c0,.68.27,1.33.75,1.81.48.48,1.13.75,1.81.75h17.09c.68,0,1.33-.27,1.81-.75.48-.48.75-1.13.75-1.81v-6.84c0-.47-.38-.85-.85-.85Z"/>
          <path class="cls-123" d="m459.06,193.41c.3.23.72.23,1.03,0l10.09-7.57c.32-.24.43-.68.26-1.05-.13-.26-.3-.5-.5-.71-.48-.48-1.13-.75-1.81-.75h-17.09c-.68,0-1.33.27-1.81.75-.21.21-.38.45-.5.71-.18.37-.07.81.26,1.05l10.09,7.57Zm-8.03-8.37h17.09c.08-.01.16-.01.24,0l-8.79,6.62-8.79-6.62c.08-.01.16-.01.24,0Z"/>
        </g>
      </g>
      <text transform="translate(715.88 191.86)"><tspan class="cls-49"><tspan class="cls-85" x="0" y="0">W</tspan><tspan class="cls-48" x="11.45" y="0">ebsi</tspan><tspan class="cls-70" x="35.65" y="0">t</tspan><tspan class="cls-48" x="40.13" y="0">e</tspan></tspan><tspan class="cls-6"><tspan x="0" y="21.67">paulharl.com</tspan></tspan></text>
      <g>
        <path class="cls-123" d="m697.58,183.33h-11.36c-2.24,0-4.05,1.82-4.06,4.06v11.36c0,2.24,1.82,4.05,4.06,4.06h11.36c2.24,0,4.05-1.82,4.06-4.06v-11.36c0-2.24-1.82-4.05-4.06-4.06Zm2.43,15.42c0,1.34-1.09,2.43-2.43,2.43h-11.36c-1.34,0-2.43-1.09-2.43-2.43v-11.36c0-1.34,1.09-2.43,2.43-2.43h11.36c1.34,0,2.43,1.09,2.43,2.43v11.36Z"/>
        <path class="cls-123" d="m697.58,189.01h-11.36c-.45,0-.81.36-.81.81s.36.81.81.81h11.36c.45,0,.81-.36.81-.81s-.36-.81-.81-.81Z"/>
        <circle class="cls-123" cx="686.22" cy="187.38" r=".81"/>
        <circle class="cls-123" cx="689.46" cy="187.38" r=".81"/>
        <circle class="cls-123" cx="697.58" cy="187.38" r=".81"/>
      </g>
      <line class="cls-14" x1="273.33" y1="476.57" x2="806.08" y2="476.57"/>
      <line class="cls-17" x1="272.3" y1="314.51" x2="523.04" y2="314.51"/>
      <text class="cls-53" transform="translate(52.94 491.29)"><tspan class="cls-116" x="0" y="0">W</tspan><tspan class="cls-27" x="19.21" y="0">ork</tspan><tspan class="cls-27"><tspan x="0" y="24.27">Experience</tspan></tspan></text>
      <line class="cls-15" x1="273.19" y1="914.02" x2="806.08" y2="914.02"/>
      <text class="cls-28" transform="translate(52.94 929.57)"><tspan x="0" y="0">Education</tspan></text>
      <line class="cls-16" x1="52.94" y1="314.51" x2="186.1" y2="314.51"/>
      <text class="cls-50" transform="translate(52.94 301.84)"><tspan class="cls-131" x="0" y="0">A</tspan><tspan class="cls-1" x="11.46" y="0">dd</tspan><tspan class="cls-131" x="31.63" y="0">r</tspan><tspan class="cls-1" x="37.7" y="0">ess</tspan></text>
      <text class="cls-4" transform="translate(52.94 346.2)"><tspan x="0" y="0">534 E </tspan><tspan class="cls-67" x="44.08" y="0">P</tspan><tspan x="53.25" y="0">al Dt</tspan><tspan class="cls-121" x="84.69" y="0">.</tspan><tspan x="88.62" y="0" xml:space="preserve"> Apt </tspan><tspan x="0" y="21.67">1201 Scot</tspan><tspan class="cls-90" x="67.25" y="21.67">t</tspan><tspan x="72.49" y="21.67">sdale</tspan><tspan class="cls-121" x="109.58" y="21.67">,</tspan><tspan x="113.58" y="21.67"> </tspan><tspan x="0" y="43.35">AZ 3222</tspan></text>
      <text class="cls-53" transform="translate(272.75 301.97)"><tspan class="cls-81" x="0" y="0">P</tspan><tspan class="cls-29" x="13" y="0">r</tspan><tspan class="cls-81" x="20.54" y="0">o</tspan><tspan class="cls-125" x="32.82" y="0">f</tspan><tspan class="cls-81" x="40.01" y="0">essional Summa</tspan><tspan class="cls-52" x="199.12" y="0">r</tspan><tspan class="cls-95" x="207.47" y="0">y</tspan></text>
      <text class="cls-4"><tspan class="cls-36" x="272.16" y="346.69">R</tspan><tspan x="281.38" y="346.69">esul</tspan><tspan class="cls-90" x="309.79" y="346.69">t</tspan><tspan x="315.03" y="346.69">s-dri</tspan><tspan class="cls-37" x="347.65" y="346.69">v</tspan><tspan x="355.56" y="346.69">en</tspan><tspan class="cls-82" x="372.67" y="346.69"> </tspan><tspan x="376.78" y="346.69">mar</tspan><tspan class="cls-99" x="403.32" y="346.69">k</tspan><tspan x="411.03" y="346.69">eting</tspan><tspan class="cls-112" x="446.03" y="346.69"> </tspan><tspan x="450.14" y="346.69">manager</tspan><tspan class="cls-82" x="510.94" y="346.69"> </tspan><tspan x="515.04" y="346.69">wi</tspan><tspan class="cls-44" x="530.56" y="346.69">t</tspan><tspan x="536.09" y="346.69">h</tspan><tspan class="cls-82" x="544.79" y="346.69"> </tspan><tspan x="548.9" y="346.69">3+</tspan><tspan class="cls-112" x="567.82" y="346.69"> </tspan><tspan class="cls-37" x="571.93" y="346.69">y</tspan><tspan x="579.83" y="346.69">ears</tspan><tspan class="cls-82" x="609.84" y="346.69"> </tspan><tspan x="613.94" y="346.69">of</tspan><tspan class="cls-82" x="627.98" y="346.69"> </tspan><tspan class="cls-63" x="632.08" y="346.69">e</tspan><tspan x="640.39" y="346.69">xperience</tspan><tspan class="cls-112" x="708.71" y="346.69"> </tspan><tspan x="712.81" y="346.69">in</tspan><tspan class="cls-82" x="725.04" y="346.69"> </tspan><tspan x="729.14" y="346.69">d</tspan><tspan class="cls-72" x="738.18" y="346.69">e</tspan><tspan class="cls-37" x="746.44" y="346.69">v</tspan><tspan x="754.34" y="346.69">eloping </tspan><tspan x="272.16" y="368.37">and</tspan><tspan class="cls-69" x="298.05" y="368.37"> </tspan><tspan x="302.01" y="368.37">implementing</tspan><tspan class="cls-74" x="395.77" y="368.37"> </tspan><tspan x="399.74" y="368.37">successful</tspan><tspan class="cls-69" x="473.96" y="368.37"> </tspan><tspan x="477.93" y="368.37">mar</tspan><tspan class="cls-99" x="504.47" y="368.37">k</tspan><tspan x="512.18" y="368.37">eting</tspan><tspan class="cls-74" x="547.18" y="368.37"> </tspan><tspan x="551.14" y="368.37">campaigns</tspan><tspan class="cls-69" x="626.37" y="368.37"> </tspan><tspan x="630.33" y="368.37">ac</tspan><tspan class="cls-33" x="646.76" y="368.37">r</tspan><tspan x="652.02" y="368.37">oss</tspan><tspan class="cls-74" x="676.21" y="368.37"> </tspan><tspan x="680.17" y="368.37">multiple</tspan><tspan class="cls-69" x="735.09" y="368.37"> </tspan><tspan x="739.05" y="368.37">channels</tspan><tspan class="cls-121" x="801.26" y="368.37">.</tspan><tspan class="cls-98" x="805.19" y="368.37"> </tspan><tspan x="272.16" y="390.04">Skilled</tspan><tspan class="cls-88" x="317.81" y="390.04"> </tspan><tspan x="330.65" y="390.04">in</tspan><tspan class="cls-88" x="342.88" y="390.04"> </tspan><tspan x="355.72" y="390.04">identifying</tspan><tspan class="cls-88" x="429.1" y="390.04"> </tspan><tspan x="441.94" y="390.04">ta</tspan><tspan class="cls-130" x="455.54" y="390.04">r</tspan><tspan x="460.8" y="390.04">get</tspan><tspan class="cls-88" x="483.58" y="390.04"> </tspan><tspan x="496.42" y="390.04">audiences</tspan><tspan class="cls-121" x="567.42" y="390.04">,</tspan><tspan class="cls-88" x="571.41" y="390.04"> </tspan><tspan x="584.25" y="390.04">and</tspan><tspan class="cls-88" x="610.15" y="390.04"> </tspan><tspan class="cls-44" x="622.99" y="390.04">t</tspan><tspan x="628.52" y="390.04">hri</tspan><tspan class="cls-37" x="646.37" y="390.04">v</tspan><tspan x="654.27" y="390.04">es</tspan><tspan class="cls-88" x="670.5" y="390.04"> </tspan><tspan x="683.34" y="390.04">in</tspan><tspan class="cls-88" x="695.57" y="390.04"> </tspan><tspan x="708.41" y="390.04">a</tspan><tspan class="cls-88" x="716.64" y="390.04"> </tspan><tspan class="cls-26" x="729.48" y="390.04">f</tspan><tspan x="734.56" y="390.04">as</tspan><tspan class="cls-104" x="750.53" y="390.04">t</tspan><tspan x="755.63" y="390.04">-paced </tspan><tspan x="272.16" y="411.71">e</tspan><tspan class="cls-130" x="280.64" y="411.71">n</tspan><tspan x="288.99" y="411.71">vi</tspan><tspan class="cls-33" x="300.77" y="411.71">r</tspan><tspan x="306.03" y="411.71">onment</tspan><tspan class="cls-121" x="358.62" y="411.71">,</tspan><tspan class="cls-65" x="362.61" y="411.71"> </tspan><tspan x="370.38" y="411.71">enj</tspan><tspan class="cls-37" x="391.09" y="411.71">o</tspan><tspan x="399.52" y="411.71">ys</tspan><tspan class="cls-110" x="415.44" y="411.71"> </tspan><tspan x="423.21" y="411.71">collabo</tspan><tspan class="cls-22" x="473.28" y="411.71">r</tspan><tspan x="478.76" y="411.71">ating</tspan><tspan class="cls-65" x="513.5" y="411.71"> </tspan><tspan x="521.27" y="411.71">wi</tspan><tspan class="cls-44" x="536.79" y="411.71">t</tspan><tspan x="542.32" y="411.71">h</tspan><tspan class="cls-65" x="551.02" y="411.71"> </tspan><tspan x="558.79" y="411.71">c</tspan><tspan class="cls-33" x="566.99" y="411.71">r</tspan><tspan x="572.26" y="411.71">oss-functional</tspan><tspan class="cls-110" x="672.01" y="411.71"> </tspan><tspan class="cls-100" x="679.78" y="411.71">t</tspan><tspan x="685.07" y="411.71">eams</tspan><tspan class="cls-65" x="722.29" y="411.71"> </tspan><tspan class="cls-100" x="730.06" y="411.71">t</tspan><tspan x="735.35" y="411.71">o</tspan><tspan class="cls-65" x="744.05" y="411.71"> </tspan><tspan x="751.82" y="411.71">achi</tspan><tspan class="cls-72" x="780.55" y="411.71">e</tspan><tspan class="cls-37" x="788.8" y="411.71">v</tspan><tspan x="796.7" y="411.71">e </tspan><tspan x="272.16" y="433.38">business objecti</tspan><tspan class="cls-37" x="384.55" y="433.38">v</tspan><tspan x="392.46" y="433.38">es</tspan><tspan class="cls-121" x="408.69" y="433.38">.</tspan></text>
      <text class="cls-32" transform="translate(272.59 953.45)"><tspan class="cls-57"><tspan x="0" y="0">2015 - 2019</tspan></tspan><tspan class="cls-7"><tspan class="cls-71" x="0" y="21.67">D</tspan><tspan x="9.68" y="21.67">elta Uni</tspan><tspan class="cls-35" x="55.89" y="21.67">v</tspan><tspan x="62.69" y="21.67">ersi</tspan><tspan class="cls-119" x="83.76" y="21.67">t</tspan><tspan class="cls-98" x="88.67" y="21.67">y </tspan></tspan><tspan class="cls-7"><tspan x="0" y="43.35">Dalla</tspan><tspan class="cls-115" x="30.37" y="43.35">s</tspan><tspan x="35.93" y="43.35">,</tspan><tspan class="cls-96" x="38.92" y="43.35"> </tspan><tspan class="cls-127" x="41.39" y="43.35">T</tspan><tspan class="cls-118" x="47.55" y="43.35">e</tspan><tspan x="54.74" y="43.35">xas</tspan></tspan></text>
      <text class="cls-32" transform="translate(411.27 953.45)"><tspan class="cls-57"><tspan x="0" y="0">Bachelors in Business Mar</tspan><tspan class="cls-99" x="183.46" y="0">k</tspan><tspan x="191.35" y="0">eting</tspan></tspan><tspan class="cls-3"><tspan x="0" y="21.67">I</tspan><tspan class="cls-73" x="3.89" y="21.67"> </tspan><tspan x="8.62" y="21.67">h</tspan><tspan class="cls-130" x="17.31" y="21.67">a</tspan><tspan class="cls-37" x="25.25" y="21.67">v</tspan><tspan x="33.16" y="21.67">e</tspan><tspan class="cls-102" x="41.64" y="21.67"> </tspan><tspan x="46.37" y="21.67">gained</tspan><tspan class="cls-73" x="93.26" y="21.67"> </tspan><tspan x="97.98" y="21.67">a</tspan><tspan class="cls-73" x="106.21" y="21.67"> </tspan><tspan x="110.93" y="21.67">comp</tspan><tspan class="cls-33" x="149.52" y="21.67">r</tspan><tspan x="154.78" y="21.67">ehensi</tspan><tspan class="cls-37" x="200.42" y="21.67">v</tspan><tspan x="208.33" y="21.67">e</tspan><tspan class="cls-102" x="216.81" y="21.67"> </tspan><tspan x="221.54" y="21.67">understanding</tspan><tspan class="cls-73" x="321.99" y="21.67"> </tspan><tspan x="326.71" y="21.67">of</tspan><tspan class="cls-102" x="340.74" y="21.67"> </tspan><tspan x="345.46" y="21.67">mar</tspan><tspan class="cls-99" x="372.01" y="21.67">k</tspan><tspan x="379.72" y="21.67">et </tspan></tspan><tspan class="cls-3"><tspan class="cls-130" x="0" y="43.35">r</tspan><tspan x="5.26" y="43.35">esea</tspan><tspan class="cls-33" x="38.2" y="43.35">r</tspan><tspan x="43.47" y="43.35">ch</tspan><tspan class="cls-121" x="60.37" y="43.35">,</tspan><tspan class="cls-38" x="64.36" y="43.35"> </tspan><tspan x="76.91" y="43.35">consumer</tspan><tspan class="cls-38" x="145.58" y="43.35"> </tspan><tspan x="158.13" y="43.35">beh</tspan><tspan class="cls-130" x="184.35" y="43.35">a</tspan><tspan x="192.29" y="43.35">vio</tspan><tspan class="cls-106" x="212.77" y="43.35">r</tspan><tspan class="cls-121" x="217.42" y="43.35">,</tspan><tspan class="cls-38" x="221.41" y="43.35"> </tspan><tspan x="233.96" y="43.35">ad</tspan><tspan class="cls-37" x="251.22" y="43.35">v</tspan><tspan x="259.13" y="43.35">e</tspan><tspan class="cls-108" x="267.62" y="43.35">r</tspan><tspan x="273.63" y="43.35">tising</tspan><tspan class="cls-121" x="311.48" y="43.35">,</tspan><tspan class="cls-38" x="315.48" y="43.35"> </tspan><tspan x="328.02" y="43.35">b</tspan><tspan class="cls-22" x="337.06" y="43.35">r</tspan><tspan x="342.55" y="43.35">anding</tspan><tspan class="cls-121" x="389.58" y="43.35">,</tspan><tspan x="393.58" y="43.35"> </tspan></tspan><tspan class="cls-3"><tspan x="0" y="65.02">sales</tspan><tspan class="cls-121" x="35.79" y="65.02">,</tspan><tspan class="cls-132" x="39.78" y="65.02"> </tspan><tspan x="51.9" y="65.02">and</tspan><tspan class="cls-132" x="77.79" y="65.02"> </tspan><tspan x="89.91" y="65.02">public</tspan><tspan class="cls-132" x="131.85" y="65.02"> </tspan><tspan class="cls-130" x="143.97" y="65.02">r</tspan><tspan x="149.23" y="65.02">elations</tspan><tspan class="cls-121" x="203.58" y="65.02">.</tspan><tspan class="cls-132" x="207.51" y="65.02"> </tspan><tspan x="219.62" y="65.02">I</tspan><tspan class="cls-132" x="223.51" y="65.02"> </tspan><tspan x="235.63" y="65.02">h</tspan><tspan class="cls-130" x="244.33" y="65.02">a</tspan><tspan class="cls-114" x="252.26" y="65.02">v</tspan><tspan x="260.17" y="65.02">e</tspan><tspan class="cls-132" x="268.66" y="65.02"> </tspan><tspan x="280.77" y="65.02">also</tspan><tspan class="cls-132" x="309.04" y="65.02"> </tspan><tspan x="321.15" y="65.02">d</tspan><tspan class="cls-72" x="330.19" y="65.02">e</tspan><tspan class="cls-37" x="338.44" y="65.02">v</tspan><tspan x="346.35" y="65.02">eloped </tspan></tspan><tspan class="cls-3"><tspan x="0" y="86.69">p</tspan><tspan class="cls-130" x="8.92" y="86.69">r</tspan><tspan x="14.18" y="86.69">oficiency</tspan><tspan class="cls-40" x="77.12" y="86.69"> </tspan><tspan x="88.24" y="86.69">in</tspan><tspan class="cls-126" x="100.47" y="86.69"> </tspan><tspan class="cls-72" x="111.59" y="86.69">v</tspan><tspan x="119.54" y="86.69">arious</tspan><tspan class="cls-40" x="161.94" y="86.69"> </tspan><tspan x="173.07" y="86.69">mar</tspan><tspan class="cls-79" x="199.61" y="86.69">k</tspan><tspan x="207.32" y="86.69">eting</tspan><tspan class="cls-126" x="242.32" y="86.69"> </tspan><tspan x="253.45" y="86.69">channels</tspan><tspan class="cls-121" x="315.66" y="86.69">,</tspan><tspan class="cls-40" x="319.65" y="86.69"> </tspan><tspan x="330.78" y="86.69">including </tspan></tspan><tspan class="cls-3"><tspan x="0" y="108.36">social</tspan><tspan class="cls-21" x="40.07" y="108.36"> </tspan><tspan x="47.57" y="108.36">media</tspan><tspan class="cls-121" x="89.69" y="108.36">,</tspan><tspan class="cls-113" x="93.68" y="108.36"> </tspan><tspan x="101.18" y="108.36">email</tspan><tspan class="cls-21" x="137.85" y="108.36"> </tspan><tspan x="145.36" y="108.36">mar</tspan><tspan class="cls-99" x="171.9" y="108.36">k</tspan><tspan x="179.61" y="108.36">eting</tspan><tspan class="cls-121" x="214.61" y="108.36">,</tspan><tspan class="cls-113" x="218.6" y="108.36"> </tspan><tspan x="226.11" y="108.36">con</tspan><tspan class="cls-100" x="251.65" y="108.36">t</tspan><tspan x="256.94" y="108.36">ent</tspan><tspan class="cls-21" x="279.42" y="108.36"> </tspan><tspan x="286.93" y="108.36">mar</tspan><tspan class="cls-99" x="313.47" y="108.36">k</tspan><tspan x="321.18" y="108.36">eting</tspan><tspan class="cls-121" x="356.19" y="108.36">,</tspan><tspan class="cls-113" x="360.18" y="108.36"> </tspan><tspan x="367.68" y="108.36">and </tspan></tspan><tspan class="cls-3"><tspan x="0" y="130.04">sea</tspan><tspan class="cls-130" x="24.45" y="130.04">r</tspan><tspan x="29.72" y="130.04">ch engine optimization</tspan><tspan class="cls-121" x="186.46" y="130.04">.</tspan></tspan></text>
      <text class="cls-32" transform="translate(272.44 718.1)"><tspan class="cls-57"><tspan x="0" y="0">2020 - 2022</tspan></tspan><tspan class="cls-2"><tspan x="0" y="21.67">Marina G</tspan><tspan class="cls-120" x="61.2" y="21.67">r</tspan><tspan x="66.33" y="21.67">oup</tspan></tspan><tspan class="cls-2"><tspan x="0" y="43.35">Massachusett</tspan></tspan></text>
      <text class="cls-32" transform="translate(410.42 718.1)"><tspan class="cls-57"><tspan x="0" y="0">Mar</tspan><tspan class="cls-99" x="27.13" y="0">k</tspan><tspan x="35.02" y="0">eting E</tspan><tspan class="cls-66" x="83.05" y="0">v</tspan><tspan x="91.1" y="0">ent Specialist</tspan></tspan><tspan class="cls-3"><tspan x="0" y="21.67">Designed</tspan><tspan class="cls-89" x="65.33" y="21.67"> </tspan><tspan x="77.19" y="21.67">and</tspan><tspan class="cls-91" x="103.08" y="21.67"> </tspan><tspan class="cls-63" x="114.95" y="21.67">e</tspan><tspan class="cls-93" x="123.25" y="21.67">x</tspan><tspan x="130.9" y="21.67">ecu</tspan><tspan class="cls-100" x="156.18" y="21.67">t</tspan><tspan x="161.47" y="21.67">ed</tspan><tspan class="cls-89" x="178.99" y="21.67"> </tspan><tspan x="190.86" y="21.67">successful</tspan><tspan class="cls-89" x="265.08" y="21.67"> </tspan><tspan x="276.95" y="21.67">email</tspan><tspan class="cls-91" x="313.62" y="21.67"> </tspan><tspan x="325.48" y="21.67">mar</tspan><tspan class="cls-99" x="352.02" y="21.67">k</tspan><tspan x="359.73" y="21.67">eting </tspan></tspan><tspan class="cls-3"><tspan x="0" y="43.35">campaigns</tspan><tspan class="cls-34" x="75.22" y="43.35"> </tspan><tspan class="cls-44" x="90.75" y="43.35">t</tspan><tspan x="96.29" y="43.35">hat</tspan><tspan class="cls-34" x="118.58" y="43.35"> </tspan><tspan x="134.12" y="43.35">gene</tspan><tspan class="cls-59" x="168.64" y="43.35">r</tspan><tspan x="174.12" y="43.35">a</tspan><tspan class="cls-100" x="182.34" y="43.35">t</tspan><tspan x="187.63" y="43.35">ed</tspan><tspan class="cls-34" x="205.16" y="43.35"> </tspan><tspan x="220.69" y="43.35">inc</tspan><tspan class="cls-130" x="241.12" y="43.35">r</tspan><tspan x="246.38" y="43.35">eased</tspan><tspan class="cls-45" x="288.36" y="43.35"> </tspan><tspan x="303.9" y="43.35">engagement</tspan><tspan class="cls-121" x="390.81" y="43.35">.</tspan><tspan x="394.74" y="43.35"> </tspan></tspan><tspan class="cls-3"><tspan x="0" y="65.02">C</tspan><tspan class="cls-59" x="10.63" y="65.02">r</tspan><tspan x="16.11" y="65.02">af</tspan><tspan class="cls-100" x="29.66" y="65.02">t</tspan><tspan x="34.95" y="65.02">ed</tspan><tspan class="cls-92" x="52.48" y="65.02"> </tspan><tspan x="57.1" y="65.02">compelling</tspan><tspan class="cls-51" x="132.52" y="65.02"> </tspan><tspan x="137.14" y="65.02">and</tspan><tspan class="cls-92" x="163.04" y="65.02"> </tspan><tspan x="167.66" y="65.02">ta</tspan><tspan class="cls-130" x="181.26" y="65.02">r</tspan><tspan x="186.53" y="65.02">ge</tspan><tspan class="cls-100" x="203.93" y="65.02">t</tspan><tspan x="209.22" y="65.02">ed</tspan><tspan class="cls-51" x="226.75" y="65.02"> </tspan><tspan x="231.37" y="65.02">social</tspan><tspan class="cls-92" x="271.44" y="65.02"> </tspan><tspan x="276.06" y="65.02">media</tspan><tspan class="cls-51" x="318.18" y="65.02"> </tspan><tspan x="322.81" y="65.02">con</tspan><tspan class="cls-100" x="348.34" y="65.02">t</tspan><tspan x="353.63" y="65.02">ent</tspan><tspan class="cls-92" x="376.12" y="65.02"> </tspan><tspan class="cls-100" x="380.75" y="65.02">t</tspan><tspan x="386.04" y="65.02">o </tspan></tspan><tspan class="cls-3"><tspan x="0" y="86.69">enhance</tspan><tspan class="cls-23" x="59.36" y="86.69"> </tspan><tspan x="63.9" y="86.69">b</tspan><tspan class="cls-59" x="72.94" y="86.69">r</tspan><tspan x="78.42" y="86.69">and</tspan><tspan class="cls-101" x="104.31" y="86.69"> </tspan><tspan x="108.85" y="86.69">awa</tspan><tspan class="cls-130" x="137.22" y="86.69">r</tspan><tspan x="142.49" y="86.69">eness</tspan><tspan class="cls-121" x="183.57" y="86.69">.</tspan><tspan class="cls-23" x="187.5" y="86.69"> </tspan><tspan x="192.04" y="86.69">Moni</tspan><tspan class="cls-100" x="225.94" y="86.69">t</tspan><tspan x="231.23" y="86.69">o</tspan><tspan class="cls-130" x="239.93" y="86.69">r</tspan><tspan x="245.19" y="86.69">ed</tspan><tspan class="cls-23" x="262.72" y="86.69"> </tspan><tspan x="267.26" y="86.69">and</tspan><tspan class="cls-23" x="293.16" y="86.69"> </tspan><tspan x="297.7" y="86.69">analy</tspan><tspan class="cls-46" x="334.56" y="86.69">z</tspan><tspan x="342.3" y="86.69">ed</tspan><tspan class="cls-101" x="359.83" y="86.69"> </tspan><tspan x="364.37" y="86.69">user </tspan></tspan><tspan class="cls-3"><tspan x="0" y="108.36">beh</tspan><tspan class="cls-130" x="26.22" y="108.36">a</tspan><tspan x="34.16" y="108.36">vio</tspan><tspan class="cls-109" x="54.64" y="108.36">r</tspan><tspan class="cls-121" x="59.29" y="108.36">,</tspan><tspan class="cls-80" x="63.28" y="108.36"> </tspan><tspan class="cls-130" x="82.93" y="108.36">r</tspan><tspan x="88.19" y="108.36">esulting</tspan><tspan class="cls-77" x="143.12" y="108.36"> </tspan><tspan x="162.76" y="108.36">in</tspan><tspan class="cls-80" x="174.99" y="108.36"> </tspan><tspan x="194.63" y="108.36">data-dri</tspan><tspan class="cls-37" x="250.37" y="108.36">v</tspan><tspan x="258.28" y="108.36">en</tspan><tspan class="cls-80" x="275.4" y="108.36"> </tspan><tspan x="295.04" y="108.36">insigh</tspan><tspan class="cls-90" x="336.22" y="108.36">t</tspan><tspan x="341.46" y="108.36">s</tspan><tspan class="cls-77" x="349.2" y="108.36"> </tspan><tspan x="368.84" y="108.36">and </tspan></tspan><tspan class="cls-3"><tspan x="0" y="130.04">imp</tspan><tspan class="cls-130" x="25.28" y="130.04">r</tspan><tspan class="cls-37" x="30.54" y="130.04">ov</tspan><tspan x="46.88" y="130.04">emen</tspan><tspan class="cls-90" x="85.24" y="130.04">t</tspan><tspan x="90.48" y="130.04">s </tspan><tspan class="cls-100" x="102.05" y="130.04">t</tspan><tspan x="107.34" y="130.04">o </tspan><tspan class="cls-68" x="119.87" y="130.04">w</tspan><tspan x="131.55" y="130.04">ebsi</tspan><tspan class="cls-100" x="160.42" y="130.04">t</tspan><tspan x="165.71" y="130.04">e pe</tspan><tspan class="cls-108" x="195.42" y="130.04">r</tspan><tspan class="cls-58" x="201.44" y="130.04">f</tspan><tspan x="206.46" y="130.04">ormance</tspan><tspan class="cls-121" x="267.02" y="130.04">.</tspan></tspan></text>
      <text class="cls-32" transform="translate(271.89 514.86)"><tspan class="cls-57"><tspan x="0" y="0">2023 - p</tspan><tspan class="cls-99" x="59.94" y="0">r</tspan><tspan x="65.34" y="0">esent </tspan></tspan><tspan class="cls-2"><tspan x="0" y="21.67">Alpine </tspan><tspan class="cls-129" x="46.36" y="21.67">T</tspan><tspan x="54.82" y="21.67">r</tspan><tspan class="cls-130" x="60.19" y="21.67">av</tspan><tspan x="75.81" y="21.67">el </tspan></tspan><tspan class="cls-2"><tspan x="0" y="43.35">Agenc</tspan><tspan class="cls-83" x="43.51" y="43.35">y</tspan><tspan x="51.06" y="43.35">, </tspan><tspan class="cls-107" x="59.17" y="43.35">T</tspan><tspan class="cls-94" x="67.3" y="43.35">e</tspan><tspan x="75.5" y="43.35">xas</tspan></tspan></text>
      <text class="cls-32" transform="translate(411.56 514.86)"><tspan class="cls-57"><tspan x="0" y="0">Mar</tspan><tspan class="cls-99" x="27.13" y="0">k</tspan><tspan x="35.02" y="0">eting E</tspan><tspan class="cls-78" x="83.05" y="0">x</tspan><tspan x="90.87" y="0">ecuti</tspan><tspan class="cls-66" x="125.82" y="0">v</tspan><tspan x="133.87" y="0">e</tspan></tspan><tspan class="cls-3"><tspan x="0" y="21.67">Managed</tspan><tspan class="cls-111" x="64.49" y="21.67"> </tspan><tspan x="78.56" y="21.67">po</tspan><tspan class="cls-108" x="96.18" y="21.67">r</tspan><tspan x="102.19" y="21.67">t</tspan><tspan class="cls-58" x="107.56" y="21.67">f</tspan><tspan x="112.58" y="21.67">olios</tspan><tspan class="cls-111" x="144.92" y="21.67"> </tspan><tspan x="158.98" y="21.67">of</tspan><tspan class="cls-111" x="173.02" y="21.67"> </tspan><tspan x="187.08" y="21.67">high-</tspan><tspan class="cls-72" x="223.68" y="21.67">v</tspan><tspan x="231.63" y="21.67">alue</tspan><tspan class="cls-111" x="260.52" y="21.67"> </tspan><tspan x="274.59" y="21.67">client</tspan><tspan class="cls-62" x="312.47" y="21.67"> </tspan><tspan x="326.54" y="21.67">accoun</tspan><tspan class="cls-90" x="377.09" y="21.67">t</tspan><tspan x="382.33" y="21.67">s</tspan><tspan class="cls-121" x="390.07" y="21.67">,</tspan><tspan x="394.06" y="21.67"> </tspan></tspan><tspan class="cls-3"><tspan x="0" y="43.35">achi</tspan><tspan class="cls-72" x="28.72" y="43.35">e</tspan><tspan x="36.97" y="43.35">ving</tspan><tspan class="cls-84" x="66.3" y="43.35"> </tspan><tspan x="81.97" y="43.35">a</tspan><tspan class="cls-84" x="90.19" y="43.35"> </tspan><tspan x="105.86" y="43.35">high</tspan><tspan class="cls-105" x="135.77" y="43.35"> </tspan><tspan x="151.44" y="43.35">l</tspan><tspan class="cls-72" x="155.04" y="43.35">e</tspan><tspan class="cls-37" x="163.29" y="43.35">v</tspan><tspan x="171.19" y="43.35">el</tspan><tspan class="cls-84" x="183.28" y="43.35"> </tspan><tspan x="198.95" y="43.35">of</tspan><tspan class="cls-84" x="212.98" y="43.35"> </tspan><tspan x="228.65" y="43.35">cus</tspan><tspan class="cls-100" x="253.18" y="43.35">t</tspan><tspan x="258.47" y="43.35">omer</tspan><tspan class="cls-84" x="293.98" y="43.35"> </tspan><tspan x="309.65" y="43.35">satis</tspan><tspan class="cls-26" x="342.33" y="43.35">f</tspan><tspan x="347.41" y="43.35">action</tspan><tspan class="cls-31" x="390.14" y="43.35">.</tspan><tspan x="394.07" y="43.35"> </tspan></tspan><tspan class="cls-3"><tspan x="0" y="65.02">Conduc</tspan><tspan class="cls-100" x="53.79" y="65.02">t</tspan><tspan x="59.08" y="65.02">ed</tspan><tspan class="cls-30" x="76.61" y="65.02"> </tspan><tspan class="cls-44" x="85.05" y="65.02">t</tspan><tspan x="90.58" y="65.02">ho</tspan><tspan class="cls-130" x="107.98" y="65.02">r</tspan><tspan x="113.25" y="65.02">ough</tspan><tspan class="cls-76" x="148.15" y="65.02"> </tspan><tspan x="156.59" y="65.02">mar</tspan><tspan class="cls-79" x="183.13" y="65.02">k</tspan><tspan x="190.84" y="65.02">et</tspan><tspan class="cls-30" x="204.7" y="65.02"> </tspan><tspan class="cls-130" x="213.14" y="65.02">r</tspan><tspan x="218.4" y="65.02">esea</tspan><tspan class="cls-130" x="251.34" y="65.02">r</tspan><tspan x="256.61" y="65.02">ch</tspan><tspan class="cls-76" x="273.51" y="65.02"> </tspan><tspan class="cls-100" x="281.95" y="65.02">t</tspan><tspan x="287.24" y="65.02">o</tspan><tspan class="cls-30" x="295.94" y="65.02"> </tspan><tspan x="304.38" y="65.02">identify</tspan><tspan class="cls-76" x="356.61" y="65.02"> </tspan><tspan x="365.05" y="65.02">n</tspan><tspan class="cls-128" x="373.68" y="65.02">e</tspan><tspan x="382.15" y="65.02">w </tspan></tspan><tspan class="cls-3"><tspan x="0" y="86.69">business</tspan><tspan class="cls-86" x="61.57" y="86.69"> </tspan><tspan x="66.58" y="86.69">oppo</tspan><tspan class="cls-108" x="101.81" y="86.69">r</tspan><tspan x="107.83" y="86.69">tunities</tspan><tspan class="cls-60" x="159.21" y="86.69"> </tspan><tspan x="164.22" y="86.69">and</tspan><tspan class="cls-86" x="190.11" y="86.69"> </tspan><tspan x="195.12" y="86.69">in</tspan><tspan class="cls-58" x="207.35" y="86.69">f</tspan><tspan x="212.37" y="86.69">orm</tspan><tspan class="cls-60" x="239.38" y="86.69"> </tspan><tspan x="244.39" y="86.69">sales</tspan><tspan class="cls-86" x="280.18" y="86.69"> </tspan><tspan x="285.19" y="86.69">st</tspan><tspan class="cls-59" x="298.3" y="86.69">r</tspan><tspan x="303.78" y="86.69">a</tspan><tspan class="cls-100" x="312.01" y="86.69">t</tspan><tspan x="317.3" y="86.69">egies</tspan><tspan class="cls-121" x="354.53" y="86.69">.</tspan><tspan class="cls-60" x="358.45" y="86.69"> </tspan><tspan x="363.46" y="86.69">Built </tspan></tspan><tspan class="cls-3"><tspan x="0" y="108.36">and</tspan><tspan class="cls-124" x="25.9" y="108.36"> </tspan><tspan x="31.49" y="108.36">maintained</tspan><tspan class="cls-124" x="108.05" y="108.36"> </tspan><tspan x="113.64" y="108.36">st</tspan><tspan class="cls-130" x="126.76" y="108.36">r</tspan><tspan x="132.02" y="108.36">ong</tspan><tspan class="cls-64" x="158.27" y="108.36"> </tspan><tspan class="cls-33" x="163.86" y="108.36">r</tspan><tspan x="169.13" y="108.36">elationships</tspan><tspan class="cls-124" x="252.43" y="108.36"> </tspan><tspan x="258.02" y="108.36">wi</tspan><tspan class="cls-44" x="273.54" y="108.36">t</tspan><tspan x="279.07" y="108.36">h</tspan><tspan class="cls-124" x="287.77" y="108.36"> </tspan><tspan x="293.36" y="108.36">p</tspan><tspan class="cls-130" x="302.28" y="108.36">r</tspan><tspan x="307.54" y="108.36">ospec</tspan><tspan class="cls-90" x="349.6" y="108.36">t</tspan><tspan x="354.84" y="108.36">s</tspan><tspan class="cls-124" x="362.58" y="108.36"> </tspan><tspan x="368.17" y="108.36">and </tspan></tspan><tspan class="cls-3"><tspan x="0" y="130.04">clien</tspan><tspan class="cls-90" x="32.51" y="130.04">t</tspan><tspan x="37.75" y="130.04">s </tspan><tspan class="cls-44" x="49.32" y="130.04">t</tspan><tspan x="54.86" y="130.04">h</tspan><tspan class="cls-33" x="63.56" y="130.04">r</tspan><tspan x="68.82" y="130.04">ough a </tspan><tspan class="cls-22" x="119.6" y="130.04">r</tspan><tspan x="125.08" y="130.04">ange of activities</tspan><tspan class="cls-121" x="243.41" y="130.04">.</tspan></tspan></text>
      <line class="cls-20" x1="53.9" y1="537.05" x2="175.63" y2="537.05"/>
      <line class="cls-13" x1="53.9" y1="950.81" x2="175.63" y2="950.81"/>
      <g class="cls-75">
        <g>
          <path class="cls-43" d="m628.06-204.67c28.47,11.65,60.36,14.93,91.44,9.87,81.24-13.24,137.61,33.34,149.36,58.33,13.63,29.03,10.5,63.4-3.6,92.77-14.1,29.36-38.32,54.11-65.64,74.5-21.37,15.93-45.45,29.73-72.27,35.19-26.2,5.33-53.31,2.39-79.7-1.05-33.94-4.42-68.31-9.79-98.91-23.49-24.95-11.16-48.9-31.9-46.63-57.32,1.95-21.67,22.5-39.61,24.04-61.3,2.15-30.37-32.6-51.94-40.02-81.46-8.65-34.42,16.04-66.11,42.47-69.05,27.54-3.07,67.91,10.12,99.46,23.02Z"/>
          <g>
            <path class="cls-123" d="m651.7.87c-2.44-.62-2.9-2.95-3.21-4.71-.28-1.62.28-3.5,1.48-5.22,1.24-1.78,2.96-2.6,4.59-2.93,1.81-.36,3.74.32,5.58,1.51,1.88,1.22,2.59,3.05,2.84,4.63.24,1.58.09,3.54-1.32,5.27-1.3,1.58-2.84,2.84-4.49,3.04-1.78.22-4.14.59-5.47-1.58Z"/>
            <path class="cls-123" d="m676.25,4.39c-3.08-2.27-3.73-6.86-1.41-9.96,2.27-3.04,6.87-3.62,9.99-1.27,2.84,2.14,3.49,6.76,1.36,9.69-2.25,3.1-6.86,3.81-9.94,1.54Z"/>
            <path class="cls-123" d="m701.38,7.19c-3.05-2.26-3.67-6.88-1.34-9.97,2.28-3.03,6.86-3.59,10-1.21,2.81,2.13,3.44,6.78,1.3,9.7-2.26,3.09-6.87,3.77-9.95,1.48Z"/>
            <path class="cls-123" d="m637.79,12.27c-3.26-2.51-3.91-7.32-1.62-10.18,2.38-2.97,7.26-3.67,9.94-1.15,1.29,1.21,2.48,2.68,2.61,4.75.12,1.84-.3,3.5-1.31,4.86-1.1,1.47-2.64,2.45-4.62,2.79-2.02.34-3.58-.62-5.01-1.06Z"/>
            <path class="cls-123" d="m740.25-.38c-2.55-1.73-3.48-7.38-1.64-9.93,1.73-2.39,7.06-3.35,9.63-1.74,2.55,1.6,3.64,7.23,1.92,9.88-1.66,2.55-7.3,3.56-9.91,1.78Z"/>
            <path class="cls-123" d="m660.83,5.62c1.94-2.5,7.61-3.25,9.98-1.33,2.44,1.99,3.12,7.7,1.19,10-1.94,2.3-7.34,3.02-9.7,1.29-2.53-1.85-3.36-7.52-1.46-9.96Z"/>
            <path class="cls-123" d="m610.87-.71c1.65-.89,3.18-2.24,4.85-2.45,1.67-.21,3.83.27,5.13,1.28,1.3,1.01,2.32,2.99,2.52,4.66.2,1.66-.32,3.83-1.35,5.11-1.03,1.29-3.01,2.22-4.7,2.46-1.54.23-3.59-.24-4.78-1.2-1.31-1.05-2.38-2.93-2.64-4.6-.26-1.66.61-3.5.98-5.27Z"/>
            <path class="cls-123" d="m687.36,18.45c-.88-1.61-2.24-3.12-2.46-4.79-.22-1.67.24-3.83,1.24-5.14,1-1.31,2.97-2.34,4.64-2.55,1.66-.21,3.77.33,5.13,1.31,1.24.89,2.23,2.75,2.43,4.29.22,1.69-.1,3.93-1.12,5.16-1.03,1.24-2.65,2.76-4.53,2.76-1.76,0-3.53-.66-5.34-1.04Z"/>
            <path class="cls-123" d="m725.5,1.06c.57-1.79,2.18-1.98,3.87-2.46,2.14-.61,3.37.54,4.92,1.47,1.64.97,1.97,2.39,2.46,4.07.64,2.21-.68,3.36-1.56,4.91-.96,1.68-2.4,2.01-4.12,2.37-1.92.41-3.14-.4-4.57-1.37-1.5-1.01-2.22-2.18-2.58-4.01-.42-2.07.18-3.51,1.58-4.99Z"/>
            <path class="cls-123" d="m648.36,24.77c-1.79-.57-1.98-2.18-2.46-3.87-.61-2.14.54-3.37,1.46-4.92.97-1.64,2.39-1.97,4.07-2.46,2.21-.64,3.36.67,4.91,1.55,1.68.96,2.01,2.4,2.38,4.12.41,1.92-.4,3.14-1.36,4.57-1.02,1.5-2.18,2.22-4,2.59-2.07.42-3.51-.18-4.99-1.57Z"/>
            <path class="cls-123" d="m587.09-3.83c.57-1.79,2.18-1.98,3.87-2.45,2.14-.61,3.37.55,4.92,1.47,1.64.97,1.97,2.39,2.46,4.07.64,2.21-.68,3.36-1.56,4.91-.96,1.68-2.4,2.01-4.12,2.37-1.92.41-3.14-.4-4.57-1.37-1.5-1.01-2.21-2.18-2.58-4.01-.42-2.07.18-3.51,1.58-4.99Z"/>
            <path class="cls-123" d="m632.21,20.82c-2.21,3.03-5.83,3.56-8.86,1.31-3.02-2.25-3.49-5.79-1.17-8.88,2.14-2.84,5.66-3.36,8.58-1.27,3.07,2.2,3.66,5.81,1.44,8.84Z"/>
            <path class="cls-123" d="m671.83,19.84c2.22-3.11,5.67-3.57,8.85-1.59,2.59,1.61,3.51,6.13,1.63,8.6-2.35,3.09-5.83,3.9-8.81,1.79-3.17-2.24-3.84-5.76-1.67-8.8Z"/>
            <path class="cls-123" d="m765.23,2.32c-3.02-2.25-3.49-5.79-1.17-8.88,2.22-2.96,5.81-3.37,8.9-1.03,2.78,2.11,3.25,5.7,1.12,8.6-2.21,3.03-5.83,3.56-8.86,1.3Z"/>
            <path class="cls-123" d="m597.54,11.04c2.21-3.03,5.83-3.56,8.86-1.31,3.02,2.25,3.49,5.79,1.17,8.88-2.14,2.85-5.66,3.36-8.58,1.27-3.07-2.2-3.66-5.81-1.45-8.83Z"/>
            <path class="cls-123" d="m712.49,21.15c-2.99-2.24-3.42-5.8-1.08-8.89,2.2-2.91,5.76-3.2,8.93-.97,2.53,1.78,3.05,6.35,1.06,8.69-2.43,2.85-5.86,3.47-8.92,1.18Z"/>
            <path class="cls-123" d="m698.19,31.43c-.8-1.52-2.03-2.96-2.22-4.52-.18-1.43.43-3.26,1.32-4.43.89-1.16,2.57-2.37,3.91-2.38,1.55,0,3.62-.21,4.84,1.26.99,1.19,2.28,2.67,2.27,4.02,0,1.42-.02,3.16-1.04,4.57-1.11,1.52-2.9,2.04-4.39,2.49-1.3.39-3-.58-4.7-1Z"/>
            <path class="cls-123" d="m750.16,3.99c1.59-.87,3.09-2.34,4.55-2.3,1.39.04,3.37-.23,4.5,1.14.99,1.2,2.19,2.54,2.44,3.97.24,1.43-.41,3.11-1,4.54-.72,1.77-2.77,2.18-4.25,2.64-1.27.4-3.24-.26-4.44-1.1-1.21-.84-2.35-2.41-2.6-3.82-.28-1.56.48-3.3.81-5.08Z"/>
            <path class="cls-123" d="m666.75,29.53c2.2,1.66,2.92,6.75,1.24,8.87-1.72,2.16-6.89,2.87-8.87,1.09-2.16-1.95-2.66-6.31-1.22-8.58,1.37-2.15,6.89-3.03,8.85-1.37Z"/>
            <path class="cls-123" d="m563.14,2.43c-2.01-1.09-3.17-6.56-1.48-8.83,1.51-2.02,6.36-2.93,8.54-1.56,2.25,1.41,3.26,6.47,1.74,8.79-1.46,2.23-6.53,3.16-8.81,1.61Z"/>
            <path class="cls-123" d="m633.2,27.46c1.28-2.12,6.78-3.03,8.85-1.41,1.88,1.48,2.99,5.92,1.46,8.55-1.34,2.3-6.48,3.21-8.78,1.68-2.23-1.49-3.11-6.57-1.53-8.82Z"/>
            <path class="cls-123" d="m609.34,33.18c-.66-1.38-1.92-2.57-2.11-4.47-.16-1.61.91-2.78.92-4.25,1.7-.66,2.97-2.43,5.04-2.08,1.3.22,3.16.23,3.7,1.05.83,1.23,1.99,2.38,2.17,4.21.17,1.64-.74,2.83-.94,4.27-.09.61-1.48,1.14-2.24,1.7-.94.68-2.49.71-3.76.66-.91-.04-1.79-.67-2.79-1.09Z"/>
            <path class="cls-123" d="m736.35,15.26c1.82-.71,3.07-2.51,5.16-2.15,1.3.22,3.07.21,3.73,1.02,1.1,1.35,2.48,2.93,2.14,4.98-.21,1.3-.26,3.1-1.09,3.7-1.3.95-2.65,2.1-4.63,2.16-1.48.04-2.47-1.2-3.88-.91-.7-1.54-1.96-2.71-2.22-4.6-.22-1.66,1.15-2.75.79-4.21Z"/>
            <path class="cls-123" d="m572.76,7.59c1.08-.62,2.2-1.33,3.38-1.92,1.89-.94,3.73,0,5.38.62.9.33,1.45,1.85,1.95,2.93.84,1.83.23,3.76-.38,5.43-.34.94-1.76,1.6-2.83,2.13-1.94.96-4.03.34-5.78-.4-1-.42-1.55-2.06-2.15-3.23-.97-1.86.32-3.62.43-5.56Z"/>
            <path class="cls-123" d="m692.53,40.74c-2.3,3.14-4.45,3.42-7.7,1.04-3.14-2.3-3.42-4.45-1.04-7.7,2.3-3.14,4.45-3.42,7.7-1.04,3.14,2.3,3.42,4.45,1.04,7.7Z"/>
            <path class="cls-123" d="m585.16,29.22c-2.93-2.17-3.31-4.73-1.12-7.69,2.17-2.93,4.73-3.31,7.69-1.12,2.93,2.17,3.31,4.73,1.12,7.69-2.17,2.93-4.73,3.31-7.69,1.12Z"/>
            <path class="cls-123" d="m722.42,26.47c2.18-2.98,4.71-3.38,7.68-1.21,2.98,2.18,3.38,4.71,1.21,7.68-2.18,2.98-4.71,3.38-7.68,1.21-2.98-2.18-3.38-4.71-1.21-7.68Z"/>
            <path class="cls-123" d="m646.27,49.58c-2.98-2.16-3.41-4.71-1.27-7.67,2.16-2.98,4.72-3.41,7.67-1.27,2.98,2.16,3.41,4.71,1.27,7.67-2.16,2.98-4.72,3.41-7.67,1.27Z"/>
            <path class="cls-123" d="m628.52,45.84c-1.77,2.57-5.21,2.83-7.8.69-2.4-1.98-2.79-5.25-.65-7.85,1.97-2.4,5.25-2.79,7.85-.65,2.4,1.98,2.94,5.37.61,7.81Z"/>
            <path class="cls-123" d="m708.54,37.47c.41-1.4,1.79-1.63,3.27-1.79,1.52-.16,2.93-.64,4.35.69,1.01.94,1.8,1.72,1.85,3.15.05,1.49.82,2.93-.49,4.39-.98,1.09-1.74,2.12-3.41,2.13-1.5.02-2.9.63-4.37-.58-2.25-1.87-3.03-5.46-1.2-8Z"/>
            <path class="cls-123" d="m678.82,51.52c-1.96,2.65-5.62,3-8.09,1.42-1.6-1.03-1.45-2.55-1.88-3.98-.49-1.59.25-2.63,1-3.9,1-1.69,2.6-1.4,4.04-1.8,1.38-.39,2.37.13,3.57.8,1.7.96,1.71,2.43,1.97,3.94.24,1.42.71,2.88-.6,3.52Z"/>
            <path class="cls-123" d="m604.27,41.76c-1.96,2.65-5.62,3-8.09,1.42-1.6-1.03-1.45-2.55-1.88-3.98-.49-1.59.25-2.63,1-3.9,1-1.69,2.6-1.4,4.04-1.8,1.38-.39,2.37.13,3.57.8,1.7.96,1.71,2.43,1.97,3.94.24,1.42.71,2.88-.6,3.52Z"/>
            <path class="cls-123" d="m567.78,25.15c-1.2,1.88-5.3,3.01-7.73,1.27-2.03-1.45-2.72-5.31-1.37-7.44,1.42-2.23,5.42-3.04,7.7-1.55,2.21,1.45,2.95,5.48,1.41,7.72Z"/>
            <path class="cls-123" d="m798.56,3.46c-1.67,2.14-5.73,2.67-7.78,1-2.11-1.71-2.56-5.77-.86-7.8,1.62-1.93,5.51-2.45,7.5-.95,2.4,1.79,2.57,6.04,1.14,7.75Z"/>
            <path class="cls-123" d="m784.62,14.54c-1.82,2.39-6.03,2.53-7.77,1.14-2.12-1.7-2.66-5.74-.99-7.79,1.61-1.98,5.37-2.51,7.49-1.1,1.84,1.22,3,5.28,1.27,7.75Z"/>
            <path class="cls-123" d="m763.1,27.02c-2.21-1.45-2.95-5.48-1.41-7.72,1.4-2.03,5.24-2.81,7.42-1.5,2.24,1.34,3.13,5.4,1.68,7.67-1.42,2.23-5.42,3.04-7.7,1.55Z"/>
            <path class="cls-123" d="m557.31,11.54c-1.45,2.21-5.48,2.95-7.72,1.41-2.03-1.4-2.81-5.24-1.5-7.42,1.34-2.24,5.4-3.13,7.67-1.68,2.23,1.42,3.04,5.42,1.55,7.7Z"/>
            <path class="cls-123" d="m630.89,53.01c1.67-.33,2.35-2.27,4.08-1.98,1.31.22,3.13.19,3.75,1,.81,1.08,2.31,2.12,2.01,3.83-.23,1.3-.64,2.58-.97,3.86-1.54-.1-1.92,1.81-3.58,1.89-1.5.07-2.5-1.22-3.92-.88-.26-1.51-1.93-2.13-2.12-3.85-.17-1.54,1.36-2.46.75-3.88Z"/>
            <path class="cls-123" d="m696.19,56.07c-.7-1.22-1.42-2.34-2.01-3.53-.77-1.55.75-2.82.65-4.31,1.35-.33,2.02-1.67,3.42-2.08,1.7-.49,2.8,1.08,4.32.81.14,1.44,1.67,2,2.05,3.45.42,1.59-1.2,2.56-.68,3.99-1.12.71-2.22,1.46-3.37,2.13-1.57.91-2.8-.99-4.38-.46Z"/>
            <path class="cls-123" d="m756.47,35.9c-1.61.25-2.33,2.19-4.04,1.89-1.3-.23-3.25-.26-3.71-1.06-.69-1.22-2.45-2.08-1.99-3.88.33-1.29.33-3.2,1.15-3.69,1.19-.71,2.11-2.4,3.92-1.92,1.17.31,2.86.24,3.39.99.79,1.14,2.34,2.08,2.07,3.81-.21,1.31-.53,2.6-.8,3.87Z"/>
            <path class="cls-123" d="m571.1,40.33c-.61-1.3-1.56-2.55-1.75-3.91-.17-1.23.12-2.92.9-3.78.87-.97,2.48-1.55,3.83-1.71,1.24-.14,2.86.15,3.79.9.94.76,1.57,2.27,1.72,3.52.15,1.25-.07,2.91-.83,3.81-.86,1.03-2.43,1.75-3.8,1.97-1.22.19-2.57-.5-3.87-.8Z"/>
            <path class="cls-123" d="m606.53,50.63c1.29-2.53,4.51-2.76,6.55-1.07,2.7,2.25,2.94,3.88.93,6.88-1.57,2.35-4.55,2.54-6.63.76-2.45-2.09-2.82-3.91-.86-6.57Z"/>
            <path class="cls-123" d="m656.36,56.96c1.95-2.67,3.87-2.99,6.5-1.09,2.96,2.13,3.21,3.85,1,6.8-1.92,2.56-3.87,2.81-6.54.82-2.62-1.94-2.9-3.86-.96-6.52Z"/>
            <path class="cls-123" d="m689.14,65.34c-1.69,2.31-4.28,2.72-6.58,1.03-2.31-1.69-2.72-4.28-1.03-6.58,1.69-2.31,4.28-2.72,6.58-1.03,2.31,1.69,2.72,4.28,1.03,6.58Z"/>
            <path class="cls-123" d="m582.45,53.49c-1.46-.52-1.19-1.99-1.59-3.17-.51-1.54.59-2.35,1.15-3.46.72-1.44,2.07-1.26,3.25-1.65,1.54-.5,2.35.6,3.46,1.16,1.44.72,1.26,2.07,1.65,3.25.5,1.54-.6,2.35-1.16,3.46-.72,1.44-2.02,1.42-3.27,1.61-1.63.24-1.63.23-3.51-1.2Z"/>
            <path class="cls-123" d="m735.15,47.44c-2.24-1.67-2.59-4.29-.87-6.61,1.67-2.24,4.29-2.59,6.61-.87,2.24,1.67,2.59,4.29.87,6.61-1.67,2.24-4.29,2.59-6.61.87Z"/>
            <path class="cls-123" d="m525.19,8.72c-1.66-1.53-2.71-4.1-.83-6.58,1.35-1.79,4.06-2.73,6.55-.86,1.79,1.35,2.73,4.06.86,6.55-1.35,1.79-3.98,2.63-6.57.89Z"/>
            <path class="cls-123" d="m593.96,67.75c-2-1.51-2.45-4.61-.95-6.59,1.51-2,4.61-2.45,6.59-.95,2,1.51,2.45,4.61.95,6.59-1.51,2-4.61,2.45-6.59.95Z"/>
            <path class="cls-123" d="m535.81,22.33c-2.11-1.6-2.41-4.7-1.03-6.58,1.57-2.13,4.69-2.42,6.57-1.03,2.13,1.57,2.42,4.69,1.03,6.57-1.57,2.13-4.68,2.4-6.58,1.04Z"/>
            <path class="cls-123" d="m727.83,57.64c-1.6,2.11-4.7,2.41-6.58,1.03-2.13-1.57-2.42-4.69-1.03-6.57,1.57-2.13,4.69-2.42,6.57-1.03,2.13,1.58,2.39,4.68,1.04,6.58Z"/>
            <path class="cls-123" d="m642.84,67.49c1.53-2.03,4.61-2.46,6.58-1.02,2.05,1.51,2.47,4.6,1.02,6.57-1.51,2.05-4.61,2.47-6.57,1.02-2.05-1.51-2.44-4.59-1.03-6.58Z"/>
            <path class="cls-123" d="m617.71,64.62c1.51-2,4.61-2.45,6.59-.95,2,1.51,2.45,4.61.95,6.59-1.51,2-4.61,2.45-6.59.95-2-1.51-2.45-4.61-.95-6.59Z"/>
            <path class="cls-123" d="m546.37,36.85c-1.9-1.84-2.5-4.44-.75-6.59,1.67-2.05,4.4-2.53,6.55-.78,2.05,1.67,2.53,4.41.78,6.55-1.67,2.05-4.3,2.4-6.58.82Z"/>
            <path class="cls-123" d="m666.88,70.52c.9-1.31,5.46-2,6.66-1.01,1.15.95,1.86,5,1.11,6.36-.73,1.32-5.14,2.17-6.61,1.28-1.31-.8-2.09-5.27-1.15-6.63Z"/>
            <path class="cls-123" d="m556.59,44.45c.82-1.31,5.33-2.06,6.64-1.1,1.14.84,1.92,4.94,1.2,6.35-.68,1.31-5.09,2.24-6.6,1.38-1.32-.75-2.14-5.17-1.24-6.62Z"/>
            <path class="cls-123" d="m714,68.63c-1.24,1.41-5.43,2.2-6.58,1.24-.69-.57-1.11-1.61-1.37-2.52-.94-3.22.57-5.29,3.9-5.53,2.3-.17,3.69.77,4.07,3.07.21,1.3,0,2.68-.02,3.74Z"/>
            <path class="cls-123" d="m574.73,63.54c-1.64,2.21-3.16,2.43-5.43.76-2.41-1.76-2.58-3.19-.67-5.72,1.58-2.1,3.14-2.24,5.47-.49,2.17,1.62,2.34,3.14.63,5.45Z"/>
            <path class="cls-123" d="m808.52,16.44c-1.66,2.27-3.17,2.53-5.41.92-2.45-1.76-2.66-3.25-.83-5.7,1.63-2.17,3.14-2.35,5.45-.65,2.22,1.64,2.44,3.16.78,5.43Z"/>
            <path class="cls-123" d="m629.61,84.08c-2.21-1.64-2.43-3.16-.76-5.43,1.76-2.41,3.19-2.58,5.72-.67,2.1,1.58,2.24,3.14.49,5.47-1.62,2.17-3.14,2.34-5.45.63Z"/>
            <path class="cls-123" d="m816.61,6.81c-2.31-1.67-2.58-3.18-1-5.39,1.77-2.47,3.26-2.71,5.69-.9,2.2,1.63,2.4,3.15.73,5.44-1.65,2.25-3.17,2.49-5.42.86Z"/>
            <path class="cls-123" d="m788.95,28.41c-2.21-1.64-2.43-3.16-.76-5.43,1.76-2.41,3.19-2.58,5.72-.67,2.1,1.58,2.24,3.14.49,5.47-1.62,2.17-3.14,2.34-5.45.63Z"/>
            <path class="cls-123" d="m774.27,39.07c-2.18-1.63-2.38-3.15-.69-5.44,1.74-2.36,3.21-2.51,5.73-.59,2.15,1.63,2.26,3.03.42,5.48-1.6,2.13-3.14,2.29-5.46.55Z"/>
            <path class="cls-123" d="m759.6,44.78c1.31-1.71,3.69-2.06,5.43-.8,1.88,1.37,2.26,3.99.68,5.7-1.55,1.68-3.5,2.02-5.44.53-1.65-1.26-1.93-3.79-.67-5.44Z"/>
            <path class="cls-123" d="m654.4,87.61c-1.75-1.28-2.15-3.62-.92-5.41,1.34-1.95,3.86-2.31,5.7-.82,1.6,1.29,1.9,3.82.64,5.45-1.32,1.71-3.69,2.05-5.43.78Z"/>
            <path class="cls-123" d="m693.52,79.25c-1.83-1.26-2.02-3.85-.87-5.42,1.37-1.87,3.92-2.23,5.72-.76,1.56,1.28,1.84,3.87.59,5.46-1.32,1.67-3.73,2-5.44.73Z"/>
            <path class="cls-123" d="m604.41,81.22c-1.65-1.31-1.94-3.74-.71-5.44,1.56-2.14,4.43-1.82,5.75-.61,1.52,1.38,1.75,3.88.42,5.49-1.29,1.56-3.87,1.83-5.46.56Z"/>
            <path class="cls-123" d="m746.91,60.9c-1.39-.99-1.91-4.09-.93-5.47.99-1.39,4.09-1.91,5.47-.93,1.39.99,1.91,4.09.93,5.47-.99,1.39-4.09,1.91-5.47.93Z"/>
            <path class="cls-123" d="m578.98,72.36c1-1.37,4.11-1.85,5.49-.85,1.37,1,1.85,4.11.85,5.49-1,1.37-4.11,1.85-5.49.85-1.37-1-1.85-4.11-.85-5.49Z"/>
            <path class="cls-123" d="m533.53,46.92c-1.06-.66-1.73-4.29-1.01-5.46.66-1.06,4.29-1.73,5.46-1.01,1.06.66,1.73,4.29,1.01,5.46-.66,1.06-4.29,1.73-5.46,1.01Z"/>
            <path class="cls-123" d="m521.42,27.37c.73-1,4.48-1.59,5.49-.86,1,.73,1.59,4.48.86,5.49-.73,1-4.48,1.59-5.49.86-1-.73-1.59-4.48-.86-5.49Z"/>
            <path class="cls-123" d="m506.1,4.43c-.67,1.02-4.38,1.65-5.47.93-1.02-.67-1.65-4.38-.93-5.47.67-1.02,4.38-1.65,5.47-.93,1.02.67,1.65,4.38.93,5.47Z"/>
            <path class="cls-123" d="m732.83,72c-1.02-.83-1.54-4.55-.77-5.5.83-1.02,4.55-1.54,5.5-.77,1.02.83,1.54,4.55.77,5.5-.83,1.02-4.55,1.54-5.5.77Z"/>
            <path class="cls-123" d="m679.55,90.44c-1-.73-1.59-4.48-.86-5.49.73-1,4.48-1.59,5.49-.86,1,.73,1.59,4.48.86,5.49-.73,1-4.48,1.59-5.49.86Z"/>
            <path class="cls-123" d="m511.24,18.96c-1.06-.62-1.78-4.26-1.09-5.45.62-1.06,4.26-1.78,5.45-1.09,1.06.62,1.78,4.26,1.09,5.45-.62,1.06-4.26,1.78-5.45,1.09Z"/>
            <path class="cls-123" d="m548.47,55.89c2.17,1.62,2.21,2,.47,4.35-1.66,2.25-2.13,2.28-4.65.37-1.94-1.47-1.96-2.04-.19-4.39,1.58-2.1,1.97-2.12,4.37-.33Z"/>
            <path class="cls-123" d="m641.47,97.61c-1.38-.91-1.85-2.9-1-4.27.96-1.55,3.1-1.98,4.56-.91,1.32.96,1.66,2.98.73,4.31-.96,1.36-2.93,1.76-4.29.87Z"/>
            <path class="cls-123" d="m559.59,73.61c-.96,1.37-2.92,1.78-4.29.88-1.57-1.03-1.92-3.09-.79-4.58.98-1.29,3.01-1.58,4.33-.61,1.33.97,1.68,2.98.75,4.31Z"/>
            <path class="cls-123" d="m615.43,90.36c.96-1.36,2.93-1.76,4.29-.87,1.57,1.04,1.92,3.09.77,4.58-.99,1.29-3,1.57-4.33.6-1.32-.96-1.66-2.98-.73-4.31Z"/>
            <path class="cls-123" d="m666.03,100.97c-1.32-.97-1.68-2.98-.75-4.31,1.07-1.54,3.13-1.84,4.6-.66,1.27,1.02,1.49,3.02.48,4.35-.98,1.29-3.01,1.58-4.33.62Z"/>
            <path class="cls-123" d="m718.86,82.21c-1.38-.92-1.85-2.9-1-4.27.97-1.56,3.09-1.98,4.56-.9,1.32.96,1.66,2.99.73,4.31-.96,1.36-2.94,1.76-4.29.86Z"/>
            <path class="cls-123" d="m590.7,86.92c.95-1.39,2.9-1.81,4.28-.92,1.56,1,1.94,3.09.83,4.57-.97,1.29-3.01,1.6-4.32.65-1.34-.97-1.7-2.97-.79-4.3Z"/>
            <path class="cls-123" d="m703.77,89.12c.38-.3.55-.54.76-.58,1.02-.19,2.05-.33,3.07-.5.82-.13,1.14.3,1.23,1.04.12.9.35,1.79.38,2.69,0,.38-.33,1.04-.63,1.12-1.12.3-2.29.43-3.45.56-.2.02-.59-.2-.62-.36-.29-1.36-.52-2.73-.74-3.98Z"/>
            <path class="cls-123" d="m602.79,105.32c-1.39-.92-1.65-1.9-.84-3.17.9-1.42,1.91-1.73,3.15-.98,1.59.96,1.87,2.04.89,3.44-.95,1.36-1.89,1.57-3.19.71Z"/>
            <path class="cls-123" d="m566.84,87.8c-1.36-.95-1.57-1.89-.71-3.19.92-1.39,1.9-1.65,3.17-.84,1.59,1.01,1.81,2.01.75,3.47-.97,1.33-1.89,1.49-3.21.57Z"/>
            <path class="cls-123" d="m775.81,62.52c-.97,1.34-1.88,1.52-3.21.61-1.57-1.08-1.71-2-.52-3.5.98-1.24,1.93-1.34,3.25-.34,1.29.98,1.43,1.9.48,3.23Z"/>
            <path class="cls-123" d="m627.92,108.13c-1.38-.93-1.62-1.89-.8-3.18.9-1.41,1.9-1.7,3.16-.94,1.58.97,1.84,2.04.84,3.45-.95,1.35-1.89,1.54-3.2.66Z"/>
            <path class="cls-123" d="m789.71,51.49c-.99,1.26-1.91,1.37-3.24.39-1.4-1.04-1.49-2.13-.29-3.54.96-1.13,1.99-1.17,3.28-.11,1.24,1.01,1.31,1.9.25,3.26Z"/>
            <path class="cls-123" d="m800.38,40.66c-1.26-.99-1.37-1.91-.39-3.24,1.04-1.4,2.13-1.49,3.54-.29,1.13.96,1.17,1.99.11,3.28-1.01,1.24-1.9,1.31-3.26.25Z"/>
            <path class="cls-123" d="m814.14,27.37c.97-1.33,1.89-1.49,3.21-.57,1.54,1.07,1.67,2.02.48,3.51-.98,1.22-1.94,1.31-3.25.3-1.28-.98-1.4-1.91-.43-3.23Z"/>
            <path class="cls-123" d="m828.14,16.21c.97-1.33,1.89-1.49,3.21-.57,1.54,1.07,1.67,2.02.48,3.51-.98,1.22-1.94,1.31-3.25.3-1.28-.98-1.4-1.91-.43-3.23Z"/>
            <path class="cls-123" d="m519.8,53.54c.95-1.36,1.89-1.57,3.19-.71,1.39.92,1.65,1.9.84,3.17-1.01,1.59-2.01,1.81-3.47.75-1.33-.97-1.49-1.89-.57-3.21Z"/>
            <path class="cls-123" d="m512.56,42.16c-.95,1.36-1.89,1.57-3.19.71-1.39-.92-1.65-1.9-.84-3.17,1.01-1.59,2.01-1.81,3.46-.75,1.33.97,1.49,1.89.57,3.21Z"/>
            <path class="cls-123" d="m534.6,69.92c-1.38.19-2.46.45-3.53.43-.6,0-1.18-3.17-.6-3.38,1-.36,2.44-.82,3.13-.37.68.44.65,1.96,1.01,3.32Z"/>
            <path class="cls-123" d="m486.46,10.58c1.42-.13,2.51-.36,3.57-.27.63.06,1.05,3.24.48,3.4-1.03.29-2.47.71-3.15.23-.66-.46-.58-1.98-.9-3.36Z"/>
            <path class="cls-123" d="m695.2,102.99c-1.4.06-2.84.55-3.47.04-.63-.52-.62-2.03-.59-3.09.02-.61,3.22-1.01,3.4-.44.33,1.02.41,2.13.65,3.5Z"/>
            <path class="cls-123" d="m758.41,74.66c-.23-1.35-.89-2.73-.45-3.41.45-.7,1.95-.82,3.03-1.01.55-.1,1.4,3.01.83,3.34-.91.53-2.05.67-3.4,1.07Z"/>
            <path class="cls-123" d="m656.04,111.33c-1.4.06-2.84.55-3.47.04-.63-.52-.62-2.03-.59-3.09.02-.61,3.22-1.01,3.4-.44.34,1.02.41,2.13.65,3.5Z"/>
            <path class="cls-123" d="m497.91,29.17c-.2-1.37-.47-2.45-.48-3.52,0-.59,3.16-1.21,3.37-.64.37,1,.85,2.43.41,3.12-.44.68-1.96.67-3.31,1.04Z"/>
            <path class="cls-123" d="m846.37,7.91c-1.35.23-2.73.89-3.41.45-.7-.45-.82-1.95-1.01-3.03-.1-.55,3.01-1.4,3.34-.83.53.91.67,2.05,1.07,3.4Z"/>
            <path class="cls-123" d="m577.68,102.1c-.13-1.41-.37-2.5-.28-3.56.05-.63,3.23-1.06,3.4-.49.29,1.03.72,2.47.24,3.15-.46.66-1.98.58-3.36.9Z"/>
            <path class="cls-123" d="m479.42-.32c-.47.94-1.02,1.23-2.03.41-1.36-1.1-1.37-.99-.48-2.35.59-.9,1.06-1.27,2.08-.45,1.35,1.1,1.41,1.03.43,2.38Z"/>
            <path class="cls-123" d="m744.48,83.43c-1.43-.77-.36-1.47.1-2.11.84-1.18.85-1.06,2.4.01,1.32.91.34,1.5-.12,2.14-.84,1.17-.92,1.15-2.38-.04Z"/>
            <path class="cls-123" d="m542.33,83.5c-1.18-.55-.82-1.23-.16-2.05,1.01-1.26.91-1.21,2.38-.25,1.11.72.85,1.29.19,2.12-1.01,1.26-.97,1.29-2.41.19Z"/>
            <path class="cls-123" d="m677.79,114.03c-.02-1.08-.3-2.02.04-2.44.36-.43,1.33-.36,2.03-.51.12.8.48,1.68.25,2.37-.11.35-1.29.35-2.32.58Z"/>
            <path class="cls-123" d="m730.74,95.24c-.18-.95-.46-1.67-.41-2.36.04-.62,1.93-1.1,2.28-.55.35.57.63,1.56.36,2.03-.27.47-1.26.53-2.23.88Z"/>
            <path class="cls-123" d="m642.02,121.31c-1.08.07-2.2.41-2.41.1-.41-.59-.32-1.54-.44-2.34.72-.06,1.62-.4,2.1-.09.45.3.45,1.28.76,2.33Z"/>
            <path class="cls-123" d="m616.86,118.29c-.95.18-1.67.45-2.36.41-.62-.04-1.1-1.93-.55-2.28.57-.35,1.56-.63,2.03-.36.47.27.53,1.26.88,2.23Z"/>
            <path class="cls-123" d="m553.05,98.68c-.12-1.03-.35-1.76-.23-2.44.11-.65,1.99-1,2.3-.42.32.59.52,1.58.23,2.06-.29.46-1.27.48-2.29.8Z"/>
            <path class="cls-123" d="m589.63,114.28c-.11-.33-.28-.83-.46-1.32.79-.1,1.57-.2,2.36-.31.08.7.45,1.58.16,2.06-.64,1.07-1.2-.12-2.06-.43Z"/>
            <path class="cls-123" d="m462.7,8.55c.69.15,1.16.14,1.45.36.16.12.13.87.04.9-.38.13-.84.17-1.22.07-.14-.04-.13-.59-.27-1.33Z"/>
            <path class="cls-123" d="m506.26,64.7c.69.15,1.15.14,1.45.36.16.12.13.87.04.9-.38.13-.84.17-1.22.07-.14-.04-.13-.59-.27-1.33Z"/>
            <path class="cls-123" d="m784.48,76.23c-.09-.74-.26-1.27-.14-1.35.33-.22.78-.31,1.19-.3.09,0,.35.71.23.87-.22.3-.66.43-1.28.78Z"/>
            <path class="cls-123" d="m497.49,52.82c-.71-.09-1.24-.03-1.31-.18-.16-.36-.09-.81-.11-1.23.33,0,.82-.16.95,0,.24.28.27.75.47,1.42Z"/>
            <path class="cls-123" d="m798.18,63.15c.69.15,1.15.14,1.45.36.16.12.13.87.04.9-.38.13-.84.17-1.22.07-.14-.04-.13-.59-.27-1.33Z"/>
            <path class="cls-123" d="m769.38,85.25c.7-.01,1.15-.12,1.49.02.19.08.2.59.29.9-.4.1-.82.3-1.21.27-.16-.02-.27-.54-.57-1.19Z"/>
            <path class="cls-123" d="m812.01,54.53c-.09-.74-.26-1.27-.14-1.35.33-.22.78-.31,1.19-.3.09,0,.35.71.23.87-.22.3-.66.43-1.28.78Z"/>
            <path class="cls-123" d="m651.31,135.1c-.71-.09-1.24-.03-1.31-.18-.16-.36-.09-.81-.11-1.23.33,0,.82-.16.95,0,.24.28.27.75.47,1.42Z"/>
            <path class="cls-123" d="m473.69,22.78c.7-.01,1.15-.12,1.49.02.19.08.2.59.29.9-.4.1-.82.3-1.21.27-.16-.02-.27-.54-.57-1.19Z"/>
            <path class="cls-123" d="m827.47,43.1c-.71-.09-1.24-.03-1.31-.18-.16-.36-.09-.81-.11-1.23.33,0,.82-.16.95,0,.24.28.27.75.47,1.42Z"/>
            <path class="cls-123" d="m664.2,124.46c.15-.69.14-1.15.36-1.45.12-.16.87-.13.9-.04.13.38.17.84.07,1.22-.04.14-.59.13-1.33.27Z"/>
            <path class="cls-123" d="m840.36,32.46c.15-.69.14-1.16.36-1.45.12-.16.87-.13.9-.04.13.38.17.84.07,1.22-.04.14-.59.13-1.33.27Z"/>
            <path class="cls-123" d="m485.29,38.43c-.01-.7-.12-1.15.02-1.49.08-.19.59-.2.9-.29.1.4.3.82.27,1.21-.02.16-.54.27-1.19.57Z"/>
            <path class="cls-123" d="m854.16,19.82c.7-.01,1.15-.12,1.49.02.19.08.2.59.29.9-.4.1-.82.3-1.21.27-.16-.02-.27-.54-.57-1.19Z"/>
            <path class="cls-123" d="m691.1,127.23c-.71-.09-1.24-.03-1.31-.18-.16-.36-.09-.81-.11-1.23.33,0,.82-.16.95,0,.24.28.27.75.47,1.42Z"/>
            <path class="cls-123" d="m704.63,116.7c-.71-.09-1.24-.03-1.31-.18-.16-.36-.09-.81-.11-1.23.33,0,.82-.16.95,0,.24.28.27.75.47,1.42Z"/>
            <path class="cls-123" d="m718.8,105.3c-.74.09-1.27.26-1.35.14-.22-.33-.31-.78-.3-1.19,0-.09.71-.35.87-.23.3.22.43.67.78,1.28Z"/>
            <path class="cls-123" d="m517.72,80.61c-.09-.74-.26-1.27-.14-1.35.33-.22.78-.31,1.19-.3.09,0,.35.71.23.87-.22.3-.66.43-1.28.78Z"/>
            <path class="cls-123" d="m742.05,108.43c.15-.69.14-1.15.36-1.45.12-.16.87-.13.9-.04.13.38.17.84.07,1.22-.04.14-.59.13-1.33.27Z"/>
            <path class="cls-123" d="m755.58,97.9c.15-.69.14-1.16.36-1.45.12-.16.87-.13.9-.04.13.38.17.84.07,1.22-.04.14-.59.13-1.33.27Z"/>
          </g>
          <path class="cls-41" d="m638.37-232.51c-28.68,33.5-101.28,32.06-129.35,46.81-25.68,13.51-45.06,52.03-49.75,84.68-4.7,32.66,14.07,69.4,45.92,78,13.86,3.73,28.7,2.14,42.61,5.67,44.54,11.29,60.45,66.44,96.16,95.35,41.15,33.32,102.62,26.24,150.44,3.52,30.41-14.45,59.29-35.71,73.68-66.15,14.39-30.44,10.34-71.22-15.96-92.25-23.7-18.95-64.09-24.15-69.22-54.05-3.59-20.91,14.1-38.86,20.99-58.92,10.79-31.43-7.94-68.09-37.31-83.65-29.38-15.55-57.62-22.46-84.83-3.36-12.7,8.91-33.3,32.57-43.39,44.35Z"/>
          <path class="cls-19" d="m556.65,14.3c31.64,6.03,60.67,21.67,83.51,44.44,59.72,59.53,137.85,50.05,164.19,34.16,30.59-18.47,50.57-51.6,58.01-86.58,7.44-34.98,3.34-71.67-6.26-106.2-7.52-26.99-18.72-53.64-37.72-74.27-18.56-20.16-43.33-33.33-67.83-45.61-31.5-15.8-63.98-31-98.77-36.4-28.37-4.42-62.18.47-77,24.95-12.62,20.87-7.11,49.21-20.09,69.87-18.18,28.92-61.64,28.25-87.31,50.79-29.94,26.28-29.99,69.57-9.67,87.69,21.18,18.89,63.86,30.47,98.93,37.16Z"/>
          <path class="cls-10" d="m547.71-21.22c44.23,11.21,60.03,65.97,95.48,94.68,40.86,33.09,101.89,26.05,149.37,3.49,30.2-14.35,58.87-35.46,73.16-65.68,14.28-30.22,10.26-70.72-15.85-91.59"/>
        </g>
      </g>
    </g>
  </g>
</svg>