<?xml version="1.0" encoding="UTF-8"?>
<svg id="Layer_1" data-name="Layer 1" xmlns="http://www.w3.org/2000/svg" xmlns:xlink="http://www.w3.org/1999/xlink" viewBox="0 0 480.48 546">
  <defs>
    <style>
      .cls-1 {
        fill-rule: evenodd;
      }

      .cls-1, .cls-2, .cls-3, .cls-4 {
        fill: #0145fd;
      }

      .cls-5 {
        letter-spacing: -.02em;
      }

      .cls-6 {
        fill: #fff;
      }

      .cls-7 {
        fill: #e0e6f4;
        filter: url(#drop-shadow-1);
      }

      .cls-8 {
        letter-spacing: -.02em;
      }

      .cls-9 {
        letter-spacing: 0em;
      }

      .cls-10 {
        letter-spacing: 0em;
      }

      .cls-11 {
        letter-spacing: -.01em;
      }

      .cls-12 {
        letter-spacing: -.02em;
      }

      .cls-13 {
        letter-spacing: -.02em;
      }

      .cls-14 {
        letter-spacing: -.05em;
      }

      .cls-15 {
        letter-spacing: -.02em;
      }

      .cls-2, .cls-16 {
        font-family: Inter-Regular, Inter;
        font-size: 11.01px;
        font-variation-settings: 'wght' 400, 'slnt' 0;
      }

      .cls-17 {
        letter-spacing: .03em;
      }

      .cls-3 {
        font-family: Inter-Light, Inter;
        font-size: 12.31px;
        font-variation-settings: 'wght' 300, 'slnt' 0;
        font-weight: 300;
      }

      .cls-18 {
        fill: #3f5ca8;
      }

      .cls-19 {
        letter-spacing: .01em;
      }

      .cls-20 {
        fill: #d7dff1;
        stroke: #fff;
        stroke-miterlimit: 10;
      }

      .cls-21 {
        fill: url(#linear-gradient);
      }

      .cls-16 {
        fill: #3e5ca9;
      }

      .cls-22 {
        letter-spacing: .01em;
      }

      .cls-23 {
        letter-spacing: -.02em;
      }
    </style>
    <filter id="drop-shadow-1" filterUnits="userSpaceOnUse">
      <feOffset dx="-9" dy="0"/>
      <feGaussianBlur result="blur" stdDeviation="5"/>
      <feFlood flood-color="#000" flood-opacity=".4"/>
      <feComposite in2="blur" operator="in"/>
      <feComposite in="SourceGraphic"/>
    </filter>
    <linearGradient id="linear-gradient" x1="460.24" y1="267.05" x2="36.1" y2="267.05" gradientUnits="userSpaceOnUse">
      <stop offset="0" stop-color="#40c4e5"/>
      <stop offset="1" stop-color="#4d63ad"/>
    </linearGradient>
  </defs>
  <rect class="cls-7" x="24.16" y="15.06" width="450.25" height="515.91" rx="23.62" ry="23.62"/>
  <g>
    <rect class="cls-21" x="50.82" y="221.65" width="396.91" height="90.8" rx="5.71" ry="5.71"/>
    <g>
      <g>
        <g>
          <path class="cls-18" d="m363.26,258.35v-9.41h3.35c.73,0,1.34.13,1.82.4.48.27.84.63,1.08,1.09.24.46.36.98.36,1.55s-.12,1.1-.36,1.56c-.24.46-.6.83-1.08,1.09-.48.27-1.09.4-1.82.4h-2.31v-1.2h2.18c.46,0,.84-.08,1.12-.24.29-.16.5-.38.63-.66s.2-.6.2-.95-.07-.67-.2-.95-.35-.49-.64-.65c-.29-.16-.67-.23-1.14-.23h-1.78v8.19h-1.42Z"/>
          <path class="cls-18" d="m374.3,258.49c-.66,0-1.24-.15-1.73-.45-.49-.3-.88-.73-1.15-1.27-.27-.55-.41-1.18-.41-1.91s.14-1.37.41-1.92c.27-.55.66-.97,1.15-1.28.49-.3,1.07-.45,1.73-.45s1.24.15,1.73.45c.49.3.88.73,1.15,1.28.27.55.41,1.19.41,1.92s-.14,1.37-.41,1.91c-.27.55-.65.97-1.15,1.27-.49.3-1.07.45-1.73.45Zm0-1.15c.43,0,.78-.11,1.07-.34s.49-.53.63-.91c.14-.38.2-.79.2-1.24s-.07-.86-.2-1.24c-.14-.38-.35-.68-.63-.91-.28-.23-.64-.34-1.07-.34s-.79.11-1.07.34c-.28.23-.49.53-.63.91s-.2.79-.2,1.24.07.87.2,1.24.35.68.63.91c.28.23.64.34,1.07.34Z"/>
          <path class="cls-18" d="m380.44,258.35l-2.08-7.06h1.42l1.38,5.18h.07l1.39-5.18h1.42l1.38,5.16h.07l1.37-5.16h1.42l-2.07,7.06h-1.4l-1.43-5.09h-.11l-1.43,5.09h-1.4Z"/>
          <path class="cls-18" d="m392.4,258.49c-.69,0-1.29-.15-1.79-.45-.5-.3-.89-.72-1.16-1.26-.27-.54-.41-1.18-.41-1.91s.14-1.36.41-1.91.65-.98,1.14-1.29c.49-.31,1.06-.46,1.72-.46.4,0,.78.07,1.16.2.37.13.71.34,1.01.62.3.28.53.65.7,1.1.17.45.26.99.26,1.63v.49h-5.61v-1.03h4.26c0-.36-.07-.68-.22-.96-.15-.28-.35-.5-.62-.66-.27-.16-.57-.24-.93-.24-.39,0-.72.09-1.01.28-.29.19-.51.43-.66.74-.15.3-.23.63-.23.98v.8c0,.47.08.87.25,1.2.17.33.4.58.7.76s.65.26,1.05.26c.26,0,.5-.04.71-.11.21-.08.4-.19.56-.34.16-.15.28-.34.36-.56l1.3.23c-.1.38-.29.72-.56,1-.27.29-.6.51-1.01.67-.4.16-.86.24-1.38.24Z"/>
          <path class="cls-18" d="m396.96,258.35v-7.06h1.33v1.12h.07c.13-.38.36-.68.68-.9s.7-.33,1.11-.33c.09,0,.19,0,.31,0,.12,0,.21.01.28.02v1.31c-.05-.02-.15-.03-.29-.05-.14-.02-.28-.03-.42-.03-.32,0-.61.07-.87.2-.25.14-.45.32-.6.57-.15.24-.22.51-.22.82v4.31h-1.37Z"/>
          <path class="cls-18" d="m404.71,258.49c-.69,0-1.29-.15-1.79-.45-.5-.3-.89-.72-1.16-1.26-.27-.54-.41-1.18-.41-1.91s.14-1.36.41-1.91.65-.98,1.14-1.29c.49-.31,1.06-.46,1.72-.46.4,0,.78.07,1.16.2.37.13.71.34,1.01.62.3.28.53.65.7,1.1.17.45.26.99.26,1.63v.49h-5.61v-1.03h4.26c0-.36-.07-.68-.22-.96-.15-.28-.35-.5-.62-.66-.27-.16-.57-.24-.93-.24-.39,0-.72.09-1.01.28-.29.19-.51.43-.66.74-.15.3-.23.63-.23.98v.8c0,.47.08.87.25,1.2.17.33.4.58.7.76s.65.26,1.05.26c.26,0,.5-.04.71-.11.21-.08.4-.19.56-.34.16-.15.28-.34.36-.56l1.3.23c-.1.38-.29.72-.56,1-.27.29-.6.51-1.01.67-.4.16-.86.24-1.38.24Z"/>
          <path class="cls-18" d="m411.91,258.48c-.57,0-1.08-.15-1.52-.44-.45-.29-.79-.71-1.05-1.25-.25-.54-.38-1.2-.38-1.96s.13-1.41.38-1.96.61-.96,1.05-1.24c.45-.29.95-.43,1.52-.43.44,0,.79.07,1.06.22.27.15.48.31.62.51.15.19.26.36.35.51h.08v-3.5h1.37v9.41h-1.34v-1.1h-.11c-.08.15-.2.32-.36.51-.15.19-.37.36-.64.51-.27.14-.62.22-1.05.22Zm.3-1.17c.39,0,.73-.1,1-.32.27-.21.48-.5.62-.87.14-.37.21-.81.21-1.3s-.07-.92-.21-1.29-.35-.65-.62-.86c-.27-.21-.61-.31-1.01-.31s-.76.11-1.03.32c-.28.21-.48.51-.62.88-.14.37-.21.79-.21,1.25s.07.9.21,1.27.35.67.63.89c.28.22.62.33,1.03.33Z"/>
          <path class="cls-18" d="m420.9,258.35v-9.41h1.37v3.5h.08c.08-.15.19-.32.34-.51.15-.19.36-.36.62-.51.27-.15.62-.22,1.06-.22.57,0,1.08.14,1.53.43.45.29.8.7,1.05,1.24s.38,1.19.38,1.96-.13,1.42-.38,1.96c-.25.54-.6.96-1.05,1.25s-.95.44-1.52.44c-.43,0-.78-.07-1.05-.22-.27-.14-.48-.31-.64-.51-.15-.19-.27-.36-.35-.51h-.11v1.1h-1.34Zm1.35-3.53c0,.5.07.93.22,1.3.14.37.35.67.62.87.27.21.61.32,1,.32s.75-.11,1.03-.33c.28-.22.48-.52.63-.89.14-.38.21-.8.21-1.27s-.07-.88-.21-1.25c-.14-.37-.35-.66-.62-.88-.28-.21-.62-.32-1.04-.32s-.73.1-1.01.31-.48.49-.62.86-.21.8-.21,1.29Z"/>
          <path class="cls-18" d="m429.5,260.99c-.21,0-.39-.02-.56-.05s-.29-.07-.38-.1l.33-1.13c.25.07.47.1.67.09.2,0,.37-.08.52-.22.15-.14.29-.36.4-.68l.17-.47-2.58-7.15h1.47l1.79,5.48h.07l1.79-5.48h1.47l-2.91,8c-.14.37-.31.68-.51.93s-.46.45-.74.58c-.29.13-.62.19-1,.19Z"/>
        </g>
        <g>
          <path class="cls-18" d="m361.34,285.16c-1.42-.06-2.63-.55-3.63-1.55-.14-.14-.27-.18-.46-.15-1.97.27-3.61-.36-4.83-1.92-1.06-1.35-1.33-2.89-.88-4.55.04-.14,0-.22-.08-.33-.81-.99-1.2-2.12-1.18-3.4.03-2.17,1.56-4.18,3.65-4.77.3-.08.45-.22.58-.51.71-1.64,1.95-2.69,3.72-3.03,1.8-.34,3.36.15,4.67,1.45.08.08.16.15.3.12,2.34-.41,4.61.79,5.57,2.96.5,1.12.59,2.28.25,3.46-.04.15-.01.26.09.38,1.03,1.29,1.42,2.76,1.04,4.35-.47,1.97-1.71,3.28-3.67,3.84-.18.05-.29.13-.36.32-.63,1.59-1.77,2.63-3.42,3.1-.44.12-.9.15-1.36.23Zm.31-18.11c-.09-.08-.14-.14-.21-.19-.88-.63-1.87-.86-2.93-.66-1.77.33-3.08,1.87-3.11,3.66-.02,1.55,0,3.11,0,4.66,0,.13.05.21.16.28.47.26.93.53,1.4.8.18.1.22.08.23-.12,0-.11,0-.23,0-.35,0-1.67,0-3.35,0-5.02,0-.33.13-.56.41-.72,1.15-.66,2.29-1.32,3.44-1.98.2-.11.39-.23.62-.37Zm-.44,4.84c.11.08.17.13.24.17,1.52.88,3.04,1.77,4.56,2.64.31.18.44.42.44.78-.01,1.44,0,2.89,0,4.33,0,.06-.02.14,0,.19.02.04.09.09.13.09.05,0,.11-.03.16-.06,1.35-.67,2.13-1.75,2.21-3.25.08-1.47-.52-2.65-1.77-3.43-1.34-.83-2.71-1.59-4.07-2.38-.11-.06-.21-.07-.32,0-.16.1-.33.2-.5.29-.35.2-.69.4-1.08.63Zm1.29,6.46c0-.27,0-.55,0-.82,0-.17-.04-.19-.2-.11-.03.02-.07.04-.1.06-1.53.88-3.07,1.77-4.6,2.65-.26.15-.51.15-.76,0-.57-.33-1.15-.67-1.73-1-.72-.42-1.45-.84-2.17-1.26-.22-.12-.25-.12-.25.14,0,.41-.01.84.07,1.24.45,2.19,2.79,3.52,4.9,2.78.58-.2,1.11-.54,1.65-.85,1-.56,1.99-1.15,2.99-1.72.15-.09.22-.19.21-.37-.01-.25,0-.5,0-.75Zm-4.41-5.72c.11-.05.19-.09.26-.13,1.51-.87,3.03-1.74,4.53-2.62.33-.19.62-.2.95,0,1.16.68,2.32,1.35,3.48,2.02.16.09.33.18.53.29.03-.12.06-.2.06-.29.06-.67-.04-1.31-.31-1.93-.92-2.05-3.39-2.87-5.35-1.76-1.34.75-2.66,1.53-3.99,2.3-.13.07-.18.16-.17.31,0,.52,0,1.05,0,1.57,0,.06,0,.12.02.23Zm.84,10.3s.05.07.07.08c.85.66,1.81.93,2.86.78,1.92-.28,3.29-1.85,3.3-3.78.01-1.51,0-3.03,0-4.54,0-.15-.05-.25-.19-.32-.46-.26-.91-.52-1.36-.78-.06-.03-.12-.05-.21-.09,0,.12-.01.21-.01.29,0,1.73-.01,3.45,0,5.18,0,.41-.14.68-.51.88-1.26.71-2.51,1.44-3.77,2.17-.06.04-.12.09-.2.14Zm-4.83-13.1c-.11.04-.18.06-.24.08-1.23.58-1.99,1.53-2.22,2.88-.26,1.53.47,3.1,1.81,3.89,1.32.77,2.65,1.53,3.98,2.3.13.07.23.07.35,0,.44-.26.9-.52,1.34-.78.23-.13.23-.15,0-.29-1.52-.88-3.04-1.77-4.56-2.64-.34-.19-.47-.45-.47-.83,0-1.44,0-2.89,0-4.33v-.29Zm3.98,5.16h0c0,.37,0,.74,0,1.11,0,.08.07.2.14.24.64.38,1.28.74,1.93,1.11.11.06.2.06.3,0,.63-.37,1.26-.74,1.89-1.1.12-.07.17-.15.17-.29,0-.72,0-1.44,0-2.17,0-.13-.04-.21-.16-.28-.63-.36-1.27-.72-1.9-1.08-.12-.07-.22-.07-.33,0-.63.37-1.25.74-1.89,1.1-.11.06-.14.14-.14.26,0,.36,0,.73,0,1.09Z"/>
          <g>
            <path class="cls-18" d="m374.94,273.63c.04-.66.04-1.32.12-1.97.24-2.01,1.66-3.54,3.65-3.95,1.27-.26,2.53-.23,3.75.27,1.51.62,2.39,1.77,2.73,3.34.1.46.13.95.15,1.43.02.67.02,1.34,0,2.01-.03,1.11-.3,2.15-.96,3.06-.69.94-1.63,1.49-2.76,1.74-1.19.26-2.38.23-3.54-.18-1.49-.53-2.44-1.57-2.87-3.09-.12-.43-.18-.88-.22-1.32-.04-.44,0-.89,0-1.34-.02,0-.03,0-.05,0Zm2.18.01s-.06,0-.09,0c.05.69.06,1.38.17,2.06.12.77.51,1.42,1.19,1.85.72.46,1.52.53,2.35.42.52-.07,1-.25,1.41-.59.73-.6,1.01-1.42,1.06-2.32.04-.72.03-1.44.02-2.17,0-.39-.02-.79-.08-1.18-.16-.97-.63-1.74-1.55-2.16-.69-.32-1.42-.34-2.16-.22-.57.09-1.07.34-1.48.75-.52.53-.77,1.19-.83,1.92-.04.55,0,1.1,0,1.65Z"/>
            <path class="cls-18" d="m389.22,278.35c0,.07,0,.15,0,.22,0,1.21,0,2.42,0,3.62,0,.25,0,.26-.26.26-.52,0-1.04,0-1.55,0-.18,0-.23-.07-.23-.24,0-3.71,0-7.42,0-11.12,0-.18.06-.23.24-.23.49,0,.99.01,1.48,0,.2,0,.25.07.24.26-.01.32,0,.65,0,.97l.05.02s.08-.08.11-.13c.53-.85,1.33-1.24,2.3-1.31.77-.06,1.52.05,2.2.46.96.58,1.47,1.46,1.63,2.54.14,1.01.13,2.03,0,3.04-.2,1.6-1.48,2.79-3.08,2.93-.73.06-1.43-.01-2.08-.38-.31-.17-.58-.4-.78-.7-.06-.09-.13-.17-.19-.25-.02,0-.05.02-.07.03Zm4.25-3.18s-.02,0-.03,0c0-.29.02-.59,0-.88-.06-1.02-.65-1.82-1.7-2-1.2-.2-2.31.54-2.45,1.76-.08.66-.09,1.33-.04,1.99.08,1.1.65,1.78,1.65,1.99,1.08.22,2.23-.27,2.48-1.58.08-.42.07-.85.1-1.28Z"/>
            <path class="cls-18" d="m415.62,279.46c.03-.08.04-.14.06-.2.68-1.89,1.35-3.79,2.03-5.68.67-1.87,1.34-3.74,2.01-5.61.05-.14.12-.18.27-.18.59,0,1.19.01,1.78,0,.18,0,.27.06.33.23.57,1.61,1.15,3.21,1.72,4.82.75,2.1,1.51,4.21,2.27,6.31.03.09.06.18.09.3-.08.01-.14.03-.21.03-.55,0-1.1,0-1.65,0-.15,0-.22-.06-.26-.19-.22-.69-.44-1.37-.65-2.06-.06-.2-.15-.27-.36-.27-1.44,0-2.88,0-4.32,0-.18,0-.27.05-.33.23-.21.69-.44,1.37-.65,2.06-.05.17-.13.23-.31.23-.52-.01-1.05,0-1.57,0-.07,0-.15-.01-.25-.02Zm5.32-9.98s-.04,0-.06,0c-.03.08-.07.16-.1.24-.57,1.79-1.14,3.57-1.71,5.36-.08.24-.06.26.19.26,1.08,0,2.16,0,3.24,0,.28,0,.29-.01.21-.28-.5-1.58-1-3.16-1.5-4.75-.09-.28-.18-.55-.27-.83Z"/>
            <path class="cls-18" d="m430.02,273.64c0-1.31,0-2.62,0-3.93,0-.29,0-.29-.3-.29-.67,0-1.33,0-2,0-.17,0-.22-.05-.22-.22,0-.4,0-.81,0-1.21,0-.15.05-.2.2-.2,2.25,0,4.5,0,6.75,0,.16,0,.21.06.21.21,0,.4,0,.79,0,1.19,0,.17-.05.22-.22.22-.68,0-1.37,0-2.05,0-.25,0-.26,0-.26.26,0,2.65,0,5.29,0,7.94,0,.24.01.25.25.25.68,0,1.37,0,2.05,0,.17,0,.24.05.23.23-.01.37,0,.74,0,1.11,0,.28,0,.28-.28.28-1.88,0-3.76,0-5.64,0-.34,0-.68,0-1.02,0-.18,0-.23-.06-.23-.23.01-.39.01-.78,0-1.17,0-.17.05-.22.22-.22.67,0,1.33,0,2,0,.3,0,.3,0,.3-.31,0-1.3,0-2.61,0-3.91Z"/>
            <path class="cls-18" d="m408.29,272.21c.07-.09.11-.13.13-.18.39-.83,1.09-1.22,1.95-1.33.75-.1,1.5-.06,2.19.31.71.39,1.13,1,1.31,1.76.09.38.14.77.14,1.16.01,1.76,0,3.52,0,5.28q0,.26-.27.26c-.5,0-1,0-1.5,0q-.29,0-.29-.28c0-1.64,0-3.27,0-4.91,0-.31-.06-.64-.17-.93-.22-.57-.69-.84-1.28-.94-.74-.12-1.5.17-1.85.75-.22.36-.29.76-.29,1.17,0,1.61,0,3.22,0,4.83q0,.31-.3.31c-.51,0-1.01,0-1.52,0-.18,0-.23-.06-.23-.24,0-2.72,0-5.44,0-8.15,0-.17.06-.22.22-.22.5,0,1,0,1.5,0,.17,0,.24.05.23.23-.01.29,0,.58,0,.86,0,.07.02.13.03.25Z"/>
            <path class="cls-18" d="m401.87,275.84c-.88,0-1.77,0-2.65,0-.27,0-.29,0-.27.28.03.35.06.71.18,1.03.27.74.87,1.08,1.63,1.13.94.06,1.71-.31,2.33-.99.11-.12.18-.14.32-.05.3.18.6.36.91.53.14.08.14.15.06.27-.52.79-1.23,1.31-2.16,1.51-1.09.24-2.18.22-3.21-.24-1.1-.49-1.75-1.35-1.94-2.51-.18-1.1-.2-2.22.04-3.32.31-1.39,1.18-2.29,2.56-2.64,1.08-.27,2.14-.23,3.16.25.94.45,1.5,1.21,1.77,2.19.22.8.13,1.63.15,2.44,0,.12-.08.13-.17.13-.31,0-.61,0-.92,0-.6,0-1.2,0-1.8,0Zm-.94-1.36c.51,0,1.01,0,1.52,0,.49,0,.47.07.45-.47-.02-.56-.16-1.09-.59-1.49-.56-.51-1.23-.56-1.93-.43-.6.12-1.04.47-1.23,1.06-.11.35-.14.72-.2,1.09-.03.18.05.25.24.25.58,0,1.16,0,1.75,0Z"/>
          </g>
        </g>
      </g>
      <g>
        <g>
          <path class="cls-6" d="m66.71,278.66c-.11-.08-.21-.18-.3-.27.32.38.71.7,1.16.91l-.86-.64Z"/>
          <path class="cls-6" d="m98.16,261.77c-.35-.84-1.09-1.04-1.59-1.09v-5.11c0-1.9-1.54-3.44-3.44-3.44h-10.31v-2.39c.52-.47.86-1.15.86-1.91,0-1.43-1.15-2.58-2.58-2.58s-2.58,1.15-2.58,2.58c0,.76.34,1.44.86,1.91v2.39h-10.31c-1.9,0-3.44,1.54-3.44,3.44v5.15h-.14c-.9.08-1.6.82-1.6,1.72v3.44c0,.95.77,1.72,1.72,1.72h.02v8.59c0,.77.26,1.48.69,2.06.03.04.06.08.09.12,0,0,0,0,0,0,.09.1.19.19.3.27l.86.64h0s12.49,9.21,12.49,9.21c.3.22.66.34,1.02.34s.72-.11,1.02-.34c.61-.45.85-1.24.59-1.95l-2.45-6.92h12.87c1.9,0,3.44-1.54,3.44-3.44v-8.59c.95,0,1.72-.77,1.72-1.72v-3.33c.02-.27-.02-.53-.13-.78Zm-5.03,4.12v10.3h-15.92c-.89.32-1.25,1.6-.94,2.49l.34.95.99,2.79-3.78-2.79-4.66-3.44h-.09v-20.62h24.06v6.87s0,0,0,0v3.44h0Z"/>
          <ellipse class="cls-6" cx="75.08" cy="262.45" rx="2.58" ry="3.44"/>
          <ellipse class="cls-6" cx="87.11" cy="262.45" rx="2.58" ry="3.44"/>
          <path class="cls-6" d="m81.18,273.98c-.07,0-.14,0-.22,0-4.01-.1-6.78-3.12-6.9-3.25-.63-.7-.58-1.79.12-2.42.7-.63,1.78-.58,2.42.12.05.05,1.96,2.08,4.47,2.13,1.54.03,3.08-.7,4.56-2.19.67-.67,1.76-.67,2.42,0,.67.67.67,1.76,0,2.42-2.12,2.12-4.43,3.19-6.88,3.19Z"/>
        </g>
        <g>
          <path class="cls-6" d="m124.97,263.41h-1.85c-.07-.4-.2-.74-.4-1.04-.19-.3-.43-.56-.71-.77s-.59-.37-.94-.47c-.35-.11-.71-.16-1.1-.16-.7,0-1.33.18-1.88.53-.55.35-.99.87-1.31,1.55-.32.68-.48,1.51-.48,2.49s.16,1.82.48,2.5c.32.68.75,1.19,1.31,1.54.55.35,1.18.52,1.87.52.38,0,.75-.05,1.1-.16.35-.1.66-.26.94-.47.28-.21.52-.46.71-.76s.33-.64.41-1.03h1.85c-.1.6-.29,1.15-.57,1.65-.28.5-.64.93-1.09,1.29-.44.36-.94.64-1.51.84-.57.2-1.18.3-1.85.3-1.05,0-1.99-.25-2.81-.75-.82-.5-1.47-1.22-1.94-2.15-.47-.93-.71-2.05-.71-3.34s.24-2.41.71-3.34c.47-.93,1.12-1.65,1.95-2.15.82-.5,1.76-.75,2.81-.75.64,0,1.25.09,1.81.28.56.18,1.06.45,1.51.81s.82.79,1.11,1.29.49,1.09.59,1.74Z"/>
          <path class="cls-6" d="m128.8,259.45v12.15h-1.77v-12.15h1.77Z"/>
          <path class="cls-6" d="m132.08,261.09c-.31,0-.57-.1-.79-.31-.22-.21-.33-.46-.33-.75s.11-.54.33-.75c.22-.21.48-.31.79-.31s.57.1.79.31c.22.21.33.46.33.75s-.11.54-.33.75c-.22.21-.48.31-.79.31Zm-.9,10.52v-9.12h1.77v9.12h-1.77Z"/>
          <path class="cls-6" d="m139.18,271.79c-.88,0-1.64-.2-2.28-.6s-1.12-.96-1.46-1.66-.51-1.52-.51-2.43.17-1.74.52-2.45c.35-.71.84-1.26,1.47-1.66.63-.4,1.38-.6,2.24-.6.69,0,1.31.13,1.85.38.54.25.98.61,1.31,1.07.33.46.53,1,.6,1.61h-1.73c-.09-.43-.31-.79-.65-1.1-.34-.31-.79-.46-1.36-.46-.49,0-.93.13-1.3.39-.37.26-.66.63-.86,1.1-.21.48-.31,1.04-.31,1.69s.1,1.24.3,1.72c.2.48.49.86.86,1.12s.81.4,1.31.4c.34,0,.64-.06.92-.19.27-.12.51-.3.69-.54.19-.23.32-.51.39-.84h1.73c-.06.59-.25,1.12-.58,1.58s-.75.83-1.29,1.09c-.54.27-1.16.4-1.88.4Z"/>
          <path class="cls-6" d="m144.83,271.61v-12.15h1.77v12.15h-1.77Zm1.63-3.09v-2.17s.3,0,.3,0l3.63-3.86h2.12l-4.14,4.39h-.28l-1.63,1.63Zm4.12,3.09l-3.26-4.33,1.22-1.24,4.22,5.57h-2.18Z"/>
          <path class="cls-6" d="m160.33,266.2v5.41h-1.77v-12.15h1.75v4.52h.11c.21-.49.54-.88.98-1.17.44-.29,1.01-.43,1.72-.43.63,0,1.17.13,1.64.39.47.26.83.64,1.09,1.15.26.51.39,1.14.39,1.9v5.8h-1.77v-5.58c0-.67-.17-1.19-.52-1.56-.34-.37-.82-.55-1.44-.55-.42,0-.79.09-1.12.27-.33.18-.59.44-.78.78-.19.34-.28.75-.28,1.24Z"/>
          <path class="cls-6" d="m172.54,271.79c-.9,0-1.67-.19-2.32-.58-.65-.39-1.14-.93-1.49-1.63-.35-.7-.53-1.53-.53-2.47s.18-1.76.53-2.47c.35-.71.84-1.27,1.47-1.67.63-.4,1.37-.6,2.22-.6.51,0,1.01.08,1.49.25.48.17.92.44,1.3.8s.69.84.91,1.42c.22.58.33,1.28.33,2.11v.63h-7.25v-1.33h5.51c0-.47-.09-.88-.28-1.24-.19-.36-.46-.65-.8-.86-.34-.21-.74-.31-1.2-.31-.5,0-.93.12-1.3.36-.37.24-.66.56-.85.95-.2.39-.3.81-.3,1.27v1.04c0,.61.11,1.13.32,1.56.22.43.52.75.9.98s.84.34,1.36.34c.34,0,.64-.05.92-.15.28-.1.52-.24.72-.44.2-.19.36-.43.46-.72l1.68.3c-.13.49-.38.93-.72,1.3-.35.37-.78.66-1.3.86-.52.2-1.11.31-1.78.31Z"/>
          <path class="cls-6" d="m178.43,271.61v-9.12h1.72v1.45h.09c.17-.49.46-.88.88-1.16s.9-.42,1.43-.42c.11,0,.24,0,.39.01.15,0,.27.02.36.03v1.7c-.07-.02-.2-.04-.38-.07-.18-.03-.36-.04-.55-.04-.42,0-.79.09-1.12.26-.33.18-.59.42-.78.73-.19.31-.28.66-.28,1.06v5.57h-1.77Z"/>
          <path class="cls-6" d="m188.45,271.79c-.9,0-1.67-.19-2.32-.58-.65-.39-1.14-.93-1.49-1.63-.35-.7-.53-1.53-.53-2.47s.18-1.76.53-2.47.84-1.27,1.47-1.67c.63-.4,1.37-.6,2.22-.6.51,0,1.01.08,1.49.25.48.17.92.44,1.3.8s.69.84.91,1.42c.22.58.33,1.28.33,2.11v.63h-7.25v-1.33h5.51c0-.47-.09-.88-.28-1.24-.19-.36-.46-.65-.8-.86-.34-.21-.74-.31-1.2-.31-.5,0-.93.12-1.3.36-.37.24-.66.56-.85.95-.2.39-.3.81-.3,1.27v1.04c0,.61.11,1.13.32,1.56.22.43.52.75.9.98s.84.34,1.36.34c.34,0,.64-.05.92-.15.28-.1.52-.24.72-.44.2-.19.36-.43.46-.72l1.68.3c-.13.49-.38.93-.72,1.3-.35.37-.78.66-1.3.86-.52.2-1.11.31-1.78.31Z"/>
          <path class="cls-6" d="m203.1,262.49v1.42h-5.15v-1.42h5.15Zm-3.74,9.12v-10.17c0-.57.12-1.04.37-1.42.25-.38.58-.66.99-.85.41-.19.86-.28,1.34-.28.36,0,.66.03.91.09.25.06.44.11.56.16l-.42,1.44c-.08-.02-.19-.05-.32-.09s-.29-.05-.47-.05c-.43,0-.74.11-.92.32-.18.21-.28.52-.28.93v9.93h-1.77Z"/>
          <path class="cls-6" d="m208.41,271.79c-.85,0-1.6-.2-2.24-.59-.64-.39-1.13-.94-1.48-1.64-.35-.7-.53-1.53-.53-2.47s.18-1.77.53-2.48c.35-.71.85-1.26,1.48-1.65.64-.39,1.38-.59,2.24-.59s1.6.2,2.24.59c.64.39,1.13.94,1.48,1.65.35.71.53,1.54.53,2.48s-.18,1.77-.53,2.47c-.35.7-.85,1.25-1.48,1.64-.64.39-1.38.59-2.24.59Zm0-1.49c.55,0,1.01-.15,1.38-.44s.63-.68.81-1.17c.18-.49.26-1.02.26-1.61s-.09-1.12-.26-1.61c-.18-.49-.45-.88-.81-1.18-.36-.3-.82-.44-1.38-.44s-1.02.15-1.39.44c-.37.3-.64.69-.81,1.18-.18.49-.26,1.02-.26,1.61s.09,1.12.26,1.61.45.88.81,1.17c.37.29.83.44,1.39.44Z"/>
          <path class="cls-6" d="m214.63,271.61v-9.12h1.72v1.45h.09c.17-.49.46-.88.88-1.16s.9-.42,1.43-.42c.11,0,.24,0,.39.01.15,0,.27.02.36.03v1.7c-.07-.02-.2-.04-.38-.07-.18-.03-.36-.04-.55-.04-.42,0-.79.09-1.12.26-.33.18-.59.42-.78.73-.19.31-.28.66-.28,1.06v5.57h-1.77Z"/>
          <path class="cls-6" d="m232.31,264.72l-1.61.28c-.07-.21-.17-.4-.32-.59-.14-.19-.34-.34-.59-.46-.24-.12-.55-.18-.92-.18-.5,0-.92.11-1.26.34s-.5.51-.5.86c0,.31.11.55.34.74.23.19.59.34,1.09.46l1.45.33c.84.19,1.46.49,1.88.9.41.4.62.93.62,1.57,0,.55-.16,1.03-.47,1.46-.31.43-.75.76-1.31,1s-1.21.36-1.94.36c-1.02,0-1.85-.22-2.5-.66-.65-.44-1.04-1.06-1.19-1.87l1.72-.26c.11.45.33.78.66,1.01.33.23.77.34,1.3.34.58,0,1.05-.12,1.39-.37.35-.24.52-.54.52-.89,0-.28-.11-.52-.32-.72s-.54-.34-.97-.44l-1.54-.34c-.85-.19-1.48-.5-1.88-.93-.41-.42-.61-.96-.61-1.61,0-.54.15-1.01.45-1.41.3-.4.72-.72,1.25-.95.53-.23,1.14-.34,1.82-.34.99,0,1.76.21,2.33.64.57.43.94.99,1.12,1.71Z"/>
          <path class="cls-6" d="m240.21,267.83v-5.34h1.78v9.12h-1.74v-1.58h-.1c-.21.49-.54.89-1.01,1.21-.46.32-1.03.48-1.72.48-.59,0-1.1-.13-1.55-.39-.45-.26-.8-.64-1.06-1.15-.26-.51-.38-1.14-.38-1.89v-5.8h1.77v5.58c0,.62.17,1.12.52,1.48s.79.55,1.34.55c.33,0,.66-.08.99-.25.33-.17.61-.42.82-.75s.33-.76.32-1.28Z"/>
          <path class="cls-6" d="m248.19,275.22c-.72,0-1.35-.1-1.87-.28-.52-.19-.94-.44-1.27-.75-.33-.31-.57-.65-.74-1.03l1.53-.63c.11.17.25.36.43.55.18.2.43.36.74.5.31.14.71.21,1.2.21.67,0,1.23-.16,1.67-.49s.66-.85.66-1.56v-1.79h-.11c-.11.19-.26.41-.46.65s-.47.44-.82.62c-.35.17-.8.26-1.36.26-.72,0-1.37-.17-1.94-.51-.58-.34-1.03-.84-1.37-1.5s-.5-1.48-.5-2.45.16-1.8.5-2.49c.33-.69.78-1.22,1.36-1.59.58-.37,1.23-.55,1.96-.55.57,0,1.02.09,1.37.28.35.19.62.41.82.66.2.25.35.47.45.66h.13v-1.48h1.74v9.32c0,.78-.18,1.43-.55,1.93-.36.5-.86.87-1.47,1.12s-1.32.36-2.09.36Zm-.02-5.22c.51,0,.94-.12,1.3-.36.35-.24.62-.58.81-1.03.18-.45.28-.99.28-1.62s-.09-1.15-.27-1.62c-.18-.47-.45-.83-.8-1.09-.35-.26-.79-.39-1.31-.39s-.98.14-1.34.41c-.36.27-.62.65-.8,1.12-.18.47-.27,1-.27,1.58s.09,1.12.27,1.57.45.8.81,1.06c.36.25.8.38,1.33.38Z"/>
          <path class="cls-6" d="m258.5,275.22c-.72,0-1.35-.1-1.87-.28-.52-.19-.94-.44-1.27-.75-.33-.31-.57-.65-.74-1.03l1.53-.63c.11.17.25.36.43.55.18.2.43.36.74.5.31.14.71.21,1.2.21.67,0,1.23-.16,1.67-.49s.66-.85.66-1.56v-1.79h-.11c-.11.19-.26.41-.46.65s-.47.44-.82.62c-.35.17-.8.26-1.36.26-.72,0-1.37-.17-1.94-.51-.58-.34-1.03-.84-1.37-1.5s-.5-1.48-.5-2.45.16-1.8.5-2.49c.33-.69.78-1.22,1.36-1.59.58-.37,1.23-.55,1.96-.55.57,0,1.02.09,1.37.28s.62.41.82.66c.2.25.35.47.45.66h.13v-1.48h1.74v9.32c0,.78-.18,1.43-.55,1.93-.36.5-.86.87-1.47,1.12s-1.32.36-2.09.36Zm-.02-5.22c.51,0,.94-.12,1.3-.36.35-.24.62-.58.81-1.03.18-.45.28-.99.28-1.62s-.09-1.15-.27-1.62c-.18-.47-.45-.83-.8-1.09-.35-.26-.79-.39-1.31-.39s-.98.14-1.34.41c-.36.27-.62.65-.8,1.12-.18.47-.27,1-.27,1.58s.09,1.12.27,1.57.45.8.81,1.06c.36.25.8.38,1.33.38Z"/>
          <path class="cls-6" d="m268.92,271.79c-.9,0-1.67-.19-2.32-.58-.65-.39-1.14-.93-1.49-1.63-.35-.7-.53-1.53-.53-2.47s.18-1.76.53-2.47.84-1.27,1.47-1.67c.63-.4,1.37-.6,2.22-.6.51,0,1.01.08,1.49.25.48.17.92.44,1.3.8s.69.84.91,1.42c.22.58.33,1.28.33,2.11v.63h-7.25v-1.33h5.51c0-.47-.09-.88-.28-1.24-.19-.36-.46-.65-.8-.86-.34-.21-.74-.31-1.2-.31-.5,0-.93.12-1.3.36-.37.24-.66.56-.85.95-.2.39-.3.81-.3,1.27v1.04c0,.61.11,1.13.32,1.56.22.43.52.75.9.98s.84.34,1.36.34c.34,0,.64-.05.92-.15.28-.1.52-.24.72-.44.2-.19.36-.43.46-.72l1.68.3c-.13.49-.38.93-.72,1.3-.35.37-.78.66-1.3.86-.52.2-1.11.31-1.78.31Z"/>
          <path class="cls-6" d="m281.64,264.72l-1.61.28c-.07-.21-.17-.4-.32-.59-.14-.19-.34-.34-.59-.46-.24-.12-.55-.18-.92-.18-.5,0-.92.11-1.26.34s-.5.51-.5.86c0,.31.11.55.34.74.23.19.59.34,1.09.46l1.45.33c.84.19,1.46.49,1.88.9.41.4.62.93.62,1.57,0,.55-.16,1.03-.47,1.46-.31.43-.75.76-1.31,1s-1.21.36-1.94.36c-1.02,0-1.85-.22-2.5-.66-.65-.44-1.04-1.06-1.19-1.87l1.72-.26c.11.45.33.78.66,1.01.33.23.77.34,1.3.34.58,0,1.05-.12,1.39-.37.35-.24.52-.54.52-.89,0-.28-.11-.52-.32-.72s-.54-.34-.97-.44l-1.54-.34c-.85-.19-1.48-.5-1.88-.93-.41-.42-.61-.96-.61-1.61,0-.54.15-1.01.45-1.41.3-.4.72-.72,1.25-.95.53-.23,1.14-.34,1.82-.34.99,0,1.76.21,2.33.64.57.43.94.99,1.12,1.71Z"/>
          <path class="cls-6" d="m288.02,262.49v1.42h-4.98v-1.42h4.98Zm-3.64-2.18h1.77v8.62c0,.34.05.6.16.77.1.17.24.29.4.35.16.06.34.09.54.09.14,0,.27,0,.37-.03.11-.02.19-.04.25-.05l.32,1.47c-.1.04-.25.08-.44.12s-.43.06-.71.07c-.47,0-.9-.08-1.31-.25-.4-.17-.73-.44-.98-.81-.25-.36-.37-.82-.37-1.37v-8.99Z"/>
          <path class="cls-6" d="m290.88,261.09c-.31,0-.57-.1-.79-.31-.22-.21-.33-.46-.33-.75s.11-.54.33-.75c.22-.21.48-.31.79-.31s.57.1.79.31c.22.21.33.46.33.75s-.11.54-.33.75c-.22.21-.48.31-.79.31Zm-.9,10.52v-9.12h1.77v9.12h-1.77Z"/>
          <path class="cls-6" d="m297.98,271.79c-.85,0-1.6-.2-2.24-.59-.64-.39-1.13-.94-1.48-1.64-.35-.7-.53-1.53-.53-2.47s.18-1.77.53-2.48c.35-.71.85-1.26,1.48-1.65.64-.39,1.38-.59,2.24-.59s1.6.2,2.24.59c.64.39,1.13.94,1.48,1.65.35.71.53,1.54.53,2.48s-.18,1.77-.53,2.47c-.35.7-.85,1.25-1.48,1.64-.64.39-1.38.59-2.24.59Zm0-1.49c.55,0,1.01-.15,1.38-.44s.63-.68.81-1.17c.18-.49.26-1.02.26-1.61s-.09-1.12-.26-1.61c-.18-.49-.45-.88-.81-1.18-.36-.3-.82-.44-1.38-.44s-1.02.15-1.39.44c-.37.3-.64.69-.81,1.18-.18.49-.26,1.02-.26,1.61s.09,1.12.26,1.61.45.88.81,1.17c.37.29.83.44,1.39.44Z"/>
          <path class="cls-6" d="m305.98,266.2v5.41h-1.77v-9.12h1.7v1.48h.11c.21-.48.54-.87.99-1.16s1.02-.44,1.7-.44c.62,0,1.17.13,1.63.39s.83.64,1.09,1.15c.26.51.39,1.14.39,1.89v5.8h-1.77v-5.58c0-.66-.17-1.18-.52-1.55-.34-.37-.82-.56-1.42-.56-.41,0-.78.09-1.1.27-.32.18-.57.44-.75.78-.18.34-.28.75-.28,1.24Z"/>
          <path class="cls-6" d="m321.02,264.72l-1.61.28c-.07-.21-.17-.4-.32-.59-.14-.19-.34-.34-.59-.46-.24-.12-.55-.18-.92-.18-.5,0-.92.11-1.26.34s-.5.51-.5.86c0,.31.11.55.34.74.23.19.59.34,1.09.46l1.45.33c.84.19,1.46.49,1.88.9.41.4.62.93.62,1.57,0,.55-.16,1.03-.47,1.46-.31.43-.75.76-1.31,1s-1.21.36-1.94.36c-1.02,0-1.85-.22-2.5-.66-.65-.44-1.04-1.06-1.19-1.87l1.72-.26c.11.45.33.78.66,1.01.33.23.77.34,1.3.34.58,0,1.05-.12,1.39-.37.35-.24.52-.54.52-.89,0-.28-.11-.52-.32-.72s-.54-.34-.97-.44l-1.54-.34c-.85-.19-1.48-.5-1.88-.93-.41-.42-.61-.96-.61-1.61,0-.54.15-1.01.45-1.41.3-.4.72-.72,1.25-.95.53-.23,1.14-.34,1.82-.34.99,0,1.76.21,2.33.64.57.43.94.99,1.12,1.71Z"/>
        </g>
      </g>
    </g>
  </g>
  <g>
    <g>
      <path class="cls-4" d="m363.87,64.72v-1.54h7.73v1.54h-7.73Zm3.09,3.1v-7.73h1.54v7.73h-1.54Z"/>
      <g>
        <path class="cls-4" d="m379.94,69.21h-1.71l3.84-10.66h1.86l3.84,10.66h-1.71l-3.02-8.73h-.08l-3.02,8.73Zm.29-4.18h5.54v1.35h-5.54v-1.35Z"/>
        <path class="cls-4" d="m392.04,69.36c-.65,0-1.22-.17-1.73-.5-.51-.33-.9-.8-1.19-1.42s-.43-1.36-.43-2.22.14-1.6.43-2.22c.29-.61.69-1.08,1.2-1.41.51-.33,1.08-.49,1.72-.49.5,0,.9.08,1.2.25.3.16.54.36.71.58.17.22.3.41.39.58h.09v-3.96h1.56v10.66h-1.52v-1.24h-.13c-.09.17-.23.36-.4.58-.17.22-.42.41-.72.57-.31.16-.7.24-1.19.24Zm.34-1.33c.45,0,.83-.12,1.14-.36.31-.24.55-.57.71-.99s.24-.92.24-1.48-.08-1.04-.24-1.46-.39-.74-.7-.97-.69-.35-1.15-.35-.86.12-1.17.36c-.31.24-.55.57-.71.99s-.24.89-.24,1.42.08,1.02.24,1.44.4.76.71,1.01.7.37,1.16.37Z"/>
        <path class="cls-4" d="m401.22,69.36c-.65,0-1.22-.17-1.73-.5-.51-.33-.9-.8-1.19-1.42s-.43-1.36-.43-2.22.14-1.6.43-2.22c.29-.61.69-1.08,1.2-1.41.51-.33,1.08-.49,1.72-.49.5,0,.9.08,1.2.25.3.16.54.36.71.58.17.22.3.41.39.58h.09v-3.96h1.56v10.66h-1.52v-1.24h-.13c-.09.17-.23.36-.4.58-.17.22-.42.41-.72.57-.31.16-.7.24-1.19.24Zm.34-1.33c.45,0,.83-.12,1.14-.36.31-.24.55-.57.71-.99.16-.42.24-.92.24-1.48s-.08-1.04-.24-1.46-.39-.74-.7-.97-.69-.35-1.15-.35-.86.12-1.17.36c-.31.24-.55.57-.71.99s-.24.89-.24,1.42.08,1.02.24,1.44.4.76.71,1.01.7.37,1.16.37Z"/>
        <path class="cls-4" d="m420.01,58.54v10.66h-1.48l-5.42-7.82h-.1v7.82h-1.61v-10.66h1.49l5.43,7.83h.1v-7.83h1.59Z"/>
        <path class="cls-4" d="m425.68,69.37c-.79,0-1.47-.17-2.03-.51-.57-.34-1-.82-1.31-1.43-.31-.62-.46-1.34-.46-2.17s.15-1.54.46-2.17c.31-.62.74-1.11,1.29-1.46.55-.35,1.2-.53,1.94-.53.45,0,.89.08,1.31.22.42.15.8.38,1.14.7.34.32.6.73.8,1.24.19.51.29,1.13.29,1.85v.55h-6.36v-1.17h4.83c0-.41-.08-.77-.25-1.09-.17-.32-.4-.57-.7-.75-.3-.18-.65-.28-1.05-.28-.44,0-.82.11-1.14.32s-.57.49-.75.83-.26.71-.26,1.11v.91c0,.53.1.99.28,1.36.19.38.45.66.79.86.34.2.74.29,1.19.29.29,0,.56-.04.81-.13.24-.08.45-.21.63-.38.18-.17.31-.38.41-.63l1.47.27c-.12.43-.33.81-.63,1.14-.3.32-.68.58-1.14.75-.46.18-.98.27-1.56.27Z"/>
        <path class="cls-4" d="m432.56,69.21l-2.35-8h1.61l1.57,5.87h.08l1.57-5.87h1.61l1.56,5.85h.08l1.56-5.85h1.61l-2.35,8h-1.59l-1.62-5.77h-.12l-1.62,5.77h-1.58Z"/>
      </g>
    </g>
    <g>
      <path class="cls-4" d="m57.11,69.18v-13.64h4.86c1.06,0,1.94.19,2.64.58.7.39,1.22.91,1.57,1.58.35.67.52,1.42.52,2.25s-.17,1.59-.52,2.26c-.35.67-.87,1.2-1.57,1.58-.7.39-1.58.58-2.63.58h-3.34v-1.75h3.16c.67,0,1.21-.12,1.63-.35.42-.23.72-.55.92-.95s.29-.86.29-1.38-.1-.97-.29-1.37-.5-.71-.92-.94c-.42-.23-.97-.34-1.66-.34h-2.58v11.87h-2.06Z"/>
      <path class="cls-4" d="m68.94,69.18v-10.23h1.92v1.63h.11c.19-.55.52-.98.99-1.3.47-.32,1.01-.48,1.61-.48.12,0,.27,0,.44.01.17,0,.3.02.4.03v1.9c-.08-.02-.22-.05-.43-.08-.21-.03-.41-.04-.61-.04-.47,0-.89.1-1.25.3-.37.2-.66.47-.87.82-.21.35-.32.74-.32,1.19v6.25h-1.99Z"/>
      <path class="cls-4" d="m80.08,69.38c-.96,0-1.8-.22-2.51-.66-.71-.44-1.27-1.05-1.66-1.84-.39-.79-.59-1.71-.59-2.77s.2-1.99.59-2.78c.4-.79.95-1.41,1.66-1.85.72-.44,1.55-.66,2.51-.66s1.8.22,2.51.66,1.27,1.06,1.66,1.85c.4.79.59,1.72.59,2.78s-.2,1.98-.59,2.77c-.39.79-.95,1.4-1.66,1.84s-1.55.66-2.51.66Zm0-1.67c.62,0,1.14-.16,1.54-.49s.71-.77.91-1.31c.2-.55.3-1.15.3-1.8s-.1-1.25-.3-1.8c-.2-.55-.5-.99-.91-1.32-.41-.33-.92-.5-1.54-.5s-1.14.17-1.56.5c-.41.33-.71.77-.91,1.32s-.3,1.15-.3,1.8.1,1.26.3,1.8.5.98.91,1.31c.41.33.93.49,1.56.49Z"/>
      <path class="cls-4" d="m91.93,58.95v1.6h-5.78v-1.6h5.78Zm-4.2,10.23v-11.41c0-.64.14-1.17.42-1.59.28-.42.65-.74,1.11-.95.46-.21.96-.32,1.51-.32.4,0,.74.03,1.03.1.28.06.49.12.63.18l-.47,1.61c-.09-.03-.21-.06-.36-.1s-.32-.06-.53-.06c-.48,0-.83.12-1.04.36-.21.24-.31.59-.31,1.04v11.15h-1.99Z"/>
      <path class="cls-4" d="m97.98,69.38c-1.01,0-1.87-.22-2.6-.65-.73-.43-1.28-1.04-1.68-1.83-.39-.79-.59-1.71-.59-2.77s.2-1.97.59-2.77c.39-.8.94-1.42,1.65-1.87.71-.45,1.54-.67,2.49-.67.58,0,1.14.1,1.68.29.54.19,1.03.49,1.46.9s.77.94,1.02,1.59c.25.65.37,1.44.37,2.37v.71h-8.13v-1.49h6.18c0-.52-.11-.99-.32-1.4-.21-.41-.51-.73-.9-.96-.38-.23-.83-.35-1.35-.35-.56,0-1.05.14-1.46.41-.42.27-.74.63-.96,1.07-.22.44-.34.91-.34,1.42v1.16c0,.68.12,1.27.36,1.75.24.48.58.84,1.02,1.1s.94.38,1.52.38c.38,0,.72-.05,1.03-.16.31-.11.58-.27.81-.49.23-.22.4-.49.52-.81l1.88.34c-.15.55-.42,1.04-.81,1.45-.39.42-.87.74-1.46.97-.58.23-1.25.34-2,.34Z"/>
      <path class="cls-4" d="m112.25,61.45l-1.8.32c-.08-.23-.19-.45-.36-.66-.16-.21-.38-.38-.66-.51-.27-.13-.62-.2-1.03-.2-.56,0-1.03.13-1.41.38s-.57.57-.57.97c0,.34.13.62.38.83.25.21.66.38,1.23.51l1.62.37c.94.22,1.64.55,2.1,1.01.46.45.69,1.04.69,1.76,0,.61-.18,1.16-.53,1.63-.35.48-.84.85-1.47,1.12-.63.27-1.36.41-2.18.41-1.15,0-2.08-.24-2.8-.74-.72-.49-1.17-1.19-1.33-2.09l1.92-.29c.12.5.37.88.74,1.14.37.25.86.38,1.46.38.65,0,1.17-.14,1.56-.41.39-.27.59-.61.59-1,0-.32-.12-.59-.36-.81s-.6-.38-1.09-.49l-1.73-.38c-.95-.22-1.66-.56-2.11-1.04-.46-.48-.68-1.08-.68-1.8,0-.6.17-1.13.51-1.58.34-.45.8-.81,1.4-1.06.59-.26,1.28-.38,2.04-.38,1.11,0,1.98.24,2.61.72.63.48,1.05,1.12,1.26,1.91Z"/>
      <path class="cls-4" d="m122.3,61.45l-1.8.32c-.08-.23-.19-.45-.36-.66-.16-.21-.38-.38-.66-.51-.27-.13-.62-.2-1.03-.2-.56,0-1.03.13-1.41.38s-.57.57-.57.97c0,.34.13.62.38.83.25.21.66.38,1.23.51l1.62.37c.94.22,1.64.55,2.1,1.01.46.45.69,1.04.69,1.76,0,.61-.18,1.16-.53,1.63-.35.48-.84.85-1.47,1.12-.63.27-1.36.41-2.18.41-1.15,0-2.08-.24-2.8-.74-.72-.49-1.17-1.19-1.33-2.09l1.92-.29c.12.5.37.88.74,1.14.37.25.86.38,1.46.38.65,0,1.17-.14,1.56-.41.39-.27.59-.61.59-1,0-.32-.12-.59-.36-.81s-.6-.38-1.09-.49l-1.73-.38c-.95-.22-1.66-.56-2.11-1.04-.46-.48-.68-1.08-.68-1.8,0-.6.17-1.13.51-1.58.34-.45.8-.81,1.4-1.06.59-.26,1.28-.38,2.04-.38,1.11,0,1.98.24,2.61.72.63.48,1.05,1.12,1.26,1.91Z"/>
      <path class="cls-4" d="m125.69,57.37c-.35,0-.64-.12-.89-.35-.25-.23-.37-.51-.37-.84s.12-.61.37-.84c.25-.23.54-.35.89-.35s.64.12.89.35c.25.23.37.51.37.84s-.12.61-.37.84c-.25.23-.54.35-.89.35Zm-1.01,11.81v-10.23h1.99v10.23h-1.99Z"/>
      <path class="cls-4" d="m133.66,69.38c-.96,0-1.8-.22-2.51-.66-.71-.44-1.27-1.05-1.66-1.84-.39-.79-.59-1.71-.59-2.77s.2-1.99.59-2.78c.4-.79.95-1.41,1.66-1.85.72-.44,1.55-.66,2.51-.66s1.8.22,2.51.66,1.27,1.06,1.66,1.85c.4.79.59,1.72.59,2.78s-.2,1.98-.59,2.77c-.39.79-.95,1.4-1.66,1.84s-1.55.66-2.51.66Zm0-1.67c.62,0,1.14-.16,1.54-.49s.71-.77.91-1.31c.2-.55.3-1.15.3-1.8s-.1-1.25-.3-1.8c-.2-.55-.5-.99-.91-1.32-.41-.33-.92-.5-1.54-.5s-1.14.17-1.56.5c-.41.33-.71.77-.91,1.32s-.3,1.15-.3,1.8.1,1.26.3,1.8.5.98.91,1.31c.41.33.93.49,1.56.49Z"/>
      <path class="cls-4" d="m142.63,63.1v6.07h-1.99v-10.23h1.91v1.66h.13c.24-.54.61-.98,1.11-1.3s1.14-.49,1.91-.49c.7,0,1.31.14,1.83.44.52.29.93.72,1.22,1.3.29.57.43,1.28.43,2.12v6.51h-1.99v-6.27c0-.74-.19-1.32-.58-1.74-.39-.42-.92-.63-1.59-.63-.46,0-.87.1-1.23.3-.36.2-.64.49-.85.88-.21.38-.31.85-.31,1.39Z"/>
      <path class="cls-4" d="m154.82,69.4c-.65,0-1.23-.12-1.76-.36-.52-.24-.94-.59-1.24-1.06-.3-.46-.46-1.03-.46-1.7,0-.58.11-1.05.33-1.43.22-.37.52-.67.9-.89.38-.22.8-.38,1.26-.49.47-.11.94-.2,1.43-.25.61-.07,1.11-.13,1.49-.18s.66-.12.83-.23c.17-.11.26-.28.26-.52v-.05c0-.58-.16-1.03-.49-1.35s-.81-.48-1.45-.48-1.2.15-1.58.44c-.38.3-.65.62-.8.98l-1.87-.43c.22-.62.55-1.12.98-1.51.43-.38.92-.66,1.48-.84.56-.18,1.15-.26,1.76-.26.41,0,.84.05,1.3.14.46.1.89.27,1.29.52.4.25.73.61.99,1.08.26.47.39,1.07.39,1.82v6.79h-1.94v-1.4h-.08c-.13.26-.32.51-.58.76-.26.25-.59.46-.99.62-.4.16-.89.25-1.45.25Zm.43-1.6c.55,0,1.02-.11,1.42-.33.39-.22.69-.5.9-.86.21-.35.31-.73.31-1.14v-1.32c-.07.07-.21.14-.41.2-.2.06-.43.11-.69.15s-.51.08-.75.11c-.24.03-.45.06-.61.08-.39.05-.74.13-1.06.25-.32.12-.57.28-.76.5s-.28.5-.28.86c0,.49.18.86.55,1.12.36.25.83.38,1.39.38Z"/>
      <path class="cls-4" d="m164.51,55.54v13.64h-1.99v-13.64h1.99Z"/>
      <path class="cls-4" d="m179.75,59.12c-.07-.63-.36-1.12-.88-1.47-.51-.35-1.16-.52-1.94-.52-.56,0-1.04.09-1.45.26-.41.17-.73.41-.95.72-.22.3-.34.65-.34,1.04,0,.32.08.6.23.84s.36.43.61.59.52.29.81.39c.29.1.57.19.83.26l1.33.35c.43.11.88.25,1.34.43.46.18.88.42,1.27.72s.71.67.95,1.11c.24.44.36.97.36,1.58,0,.77-.2,1.46-.6,2.06-.4.6-.97,1.07-1.72,1.42-.75.35-1.66.52-2.73.52s-1.9-.16-2.65-.49c-.75-.32-1.33-.78-1.75-1.38-.42-.6-.65-1.31-.7-2.13h2.06c.04.49.2.9.48,1.23.28.33.64.57,1.09.73.44.16.93.24,1.45.24.58,0,1.1-.09,1.55-.28.46-.18.81-.44,1.07-.77s.39-.72.39-1.16c0-.4-.11-.74-.34-.99s-.54-.47-.93-.64-.83-.32-1.31-.45l-1.61-.44c-1.09-.3-1.96-.74-2.59-1.31s-.96-1.34-.96-2.29c0-.79.21-1.47.64-2.06.43-.59,1-1.04,1.73-1.37.73-.33,1.55-.49,2.46-.49s1.74.16,2.45.49c.71.32,1.27.77,1.67,1.33s.62,1.21.64,1.95h-1.98Z"/>
      <path class="cls-4" d="m190.7,64.94v-5.99h2v10.23h-1.96v-1.77h-.11c-.24.55-.61,1-1.13,1.36s-1.16.54-1.93.54c-.66,0-1.24-.14-1.74-.44-.5-.29-.9-.72-1.18-1.29-.29-.57-.43-1.28-.43-2.12v-6.51h1.99v6.27c0,.7.19,1.25.58,1.66s.89.62,1.51.62c.37,0,.74-.09,1.12-.28.37-.19.68-.47.93-.85.25-.38.37-.86.36-1.44Z"/>
      <path class="cls-4" d="m195.36,69.18v-10.23h1.91v1.66h.13c.21-.56.56-1,1.05-1.32.48-.32,1.06-.48,1.74-.48s1.26.16,1.72.48c.46.32.81.76,1.03,1.32h.11c.24-.55.63-.98,1.17-1.31.53-.33,1.17-.49,1.9-.49.93,0,1.69.29,2.27.87.59.58.88,1.46.88,2.63v6.86h-1.99v-6.67c0-.69-.19-1.19-.57-1.51-.38-.31-.83-.47-1.35-.47-.65,0-1.15.2-1.51.6-.36.4-.54.91-.54,1.53v6.52h-1.98v-6.8c0-.55-.17-1-.52-1.34-.35-.34-.8-.51-1.35-.51-.38,0-.72.1-1.04.3-.32.2-.57.47-.77.82s-.29.76-.29,1.22v6.31h-1.99Z"/>
      <path class="cls-4" d="m211.93,69.18v-10.23h1.91v1.66h.13c.21-.56.56-1,1.05-1.32.48-.32,1.06-.48,1.74-.48s1.26.16,1.72.48c.46.32.81.76,1.03,1.32h.11c.24-.55.63-.98,1.17-1.31.53-.33,1.17-.49,1.9-.49.93,0,1.69.29,2.27.87.59.58.88,1.46.88,2.63v6.86h-1.99v-6.67c0-.69-.19-1.19-.57-1.51-.38-.31-.83-.47-1.35-.47-.65,0-1.15.2-1.51.6-.36.4-.54.91-.54,1.53v6.52h-1.98v-6.8c0-.55-.17-1-.52-1.34-.35-.34-.8-.51-1.35-.51-.38,0-.72.1-1.04.3-.32.2-.57.47-.77.82s-.29.76-.29,1.22v6.31h-1.99Z"/>
      <path class="cls-4" d="m231.47,69.4c-.65,0-1.23-.12-1.76-.36-.52-.24-.94-.59-1.24-1.06s-.46-1.03-.46-1.7c0-.58.11-1.05.33-1.43.22-.37.52-.67.9-.89.38-.22.8-.38,1.26-.49.47-.11.94-.2,1.43-.25.61-.07,1.11-.13,1.49-.18s.66-.12.83-.23c.17-.11.26-.28.26-.52v-.05c0-.58-.16-1.03-.49-1.35s-.81-.48-1.45-.48-1.2.15-1.58.44c-.38.3-.65.62-.8.98l-1.87-.43c.22-.62.55-1.12.98-1.51.43-.38.92-.66,1.48-.84.56-.18,1.15-.26,1.76-.26.41,0,.84.05,1.3.14.46.1.89.27,1.29.52.4.25.73.61.99,1.08.26.47.39,1.07.39,1.82v6.79h-1.94v-1.4h-.08c-.13.26-.32.51-.58.76-.26.25-.59.46-.99.62-.4.16-.89.25-1.45.25Zm.43-1.6c.55,0,1.02-.11,1.42-.33.39-.22.69-.5.9-.86.21-.35.31-.73.31-1.14v-1.32c-.07.07-.21.14-.41.2-.2.06-.43.11-.69.15s-.51.08-.75.11c-.24.03-.45.06-.61.08-.39.05-.74.13-1.06.25-.32.12-.57.28-.76.5s-.28.5-.28.86c0,.49.18.86.55,1.12.36.25.83.38,1.39.38Z"/>
      <path class="cls-4" d="m239.17,69.18v-10.23h1.92v1.63h.11c.19-.55.52-.98.99-1.3.47-.32,1.01-.48,1.61-.48.12,0,.27,0,.44.01.17,0,.3.02.4.03v1.9c-.08-.02-.22-.05-.43-.08-.21-.03-.41-.04-.61-.04-.47,0-.89.1-1.25.3-.37.2-.66.47-.87.82-.21.35-.32.74-.32,1.19v6.25h-1.99Z"/>
      <path class="cls-4" d="m247.95,73.01c-.3,0-.57-.02-.81-.07s-.43-.1-.55-.15l.48-1.63c.36.1.69.14.97.13.28-.01.54-.12.76-.32.22-.2.41-.53.58-.98l.25-.68-3.74-10.36h2.13l2.59,7.94h.11l2.59-7.94h2.14l-4.21,11.59c-.2.53-.44.98-.75,1.36s-.66.65-1.08.84c-.42.19-.9.28-1.45.28Z"/>
    </g>
  </g>
  <rect class="cls-6" x="57.11" y="94.09" width="384.33" height="110.57" rx="6.29" ry="6.29"/>
  <g>
    <path class="cls-20" d="m446.82,424.45v-82.92c0-7.15-5.8-12.95-12.95-12.95H64.69c-7.15,0-12.95,5.8-12.95,12.95v160.24c0,7.15,5.8,12.95,12.95,12.95h369.18c7.15,0,12.95-5.8,12.95-12.95v-77.32Z"/>
    <path class="cls-20" d="m446.82,347.01v-6.66c0-6.5-5.28-11.76-11.78-11.76H63.52c-6.51,0-11.78,5.27-11.78,11.76v24.01h395.09v-17.35Z"/>
    <g>
      <path class="cls-4" d="m70.34,352.71c.49.21.95.32,1.39.32,2.49,0,3.74-1.11,3.74-3.33,0-.76-.14-1.35-.41-1.79-.18-.29-.38-.54-.61-.74s-.45-.35-.67-.46c-.22-.11-.49-.19-.8-.25-.31-.06-.59-.09-.83-.1s-.55-.02-.94-.02c-.48,0-.82.03-1,.1,0,.35,0,.88,0,1.58,0,.7,0,1.23,0,1.57,0,.05,0,.28,0,.67s0,.71,0,.96.02.52.04.83.07.53.12.66Zm-.14-7.41c.28.05.64.07,1.08.07.54,0,1.02-.04,1.42-.13.4-.09.77-.23,1.09-.44s.57-.51.74-.89.25-.85.25-1.41c0-.46-.1-.87-.29-1.22s-.45-.62-.79-.81-.69-.34-1.07-.43c-.38-.09-.8-.14-1.23-.14-.33,0-.76.04-1.29.13,0,.33.01.83.04,1.5.03.67.04,1.17.04,1.51,0,.18,0,.44,0,.8s0,.61,0,.79c0,.3,0,.53,0,.69Zm-5.38,8.84l.02-.93c.1-.03.38-.08.84-.16.46-.08.81-.17,1.05-.27.05-.08.09-.17.12-.27s.06-.21.08-.33.04-.23.05-.32.03-.22.03-.37,0-.27,0-.34v-.65c0-6.51-.07-9.9-.22-10.19-.03-.05-.1-.1-.22-.14-.12-.04-.27-.08-.44-.11s-.34-.05-.49-.07-.31-.03-.48-.04-.27-.02-.3-.03l-.04-.82c.65-.01,1.78-.05,3.38-.11,1.6-.06,2.84-.09,3.71-.09.15,0,.38,0,.68,0s.53,0,.67,0c.46,0,.92.04,1.36.13s.87.23,1.28.42.77.43,1.07.71.55.62.74,1.04.28.87.28,1.37c0,.34-.05.66-.16.95s-.24.53-.39.72-.36.38-.64.57c-.28.19-.52.34-.73.45s-.48.24-.83.4c1.02.23,1.87.68,2.55,1.33.68.66,1.02,1.48,1.02,2.46,0,.66-.12,1.26-.35,1.78s-.54.96-.93,1.3-.84.62-1.37.85-1.07.39-1.62.48-1.14.14-1.75.14c-.29,0-.73,0-1.31-.03-.58-.02-1.02-.03-1.31-.03-.7,0-1.72.04-3.05.11s-2.1.11-2.3.12Z"/>
      <path class="cls-4" d="m102.24,352.99c0,.21.05.38.14.49.1.11.25.19.45.24.21.05.5.08.88.09l-.09.44c-.68-.04-1.61-.06-2.78-.06s-2.15.02-2.79.06l.12-.44c.51-.02.9-.08,1.16-.17.26-.09.46-.27.62-.52.15-.25.3-.65.44-1.19l2.89-10.87c.12-.46.18-.81.18-1.05,0-.22-.05-.39-.15-.5-.1-.11-.25-.19-.45-.24-.2-.05-.49-.08-.87-.09l.11-.44c.6.04,1.53.06,2.78.06,1.18,0,2.11-.02,2.8-.06l-.11.44c-.53.02-.93.08-1.19.17-.26.09-.47.26-.62.51s-.3.65-.44,1.2l-2.89,10.87c-.12.47-.18.82-.18,1.06Z"/>
      <path class="cls-4" d="m126.75,339.81c-.25-.01-.39-.03-.45-.04l-.03-.87c.09,0,.22,0,.4,0,.4,0,.77.01,1.11.04.87.05,1.42.07,1.65.07.57,0,1.13,0,1.67-.03.77-.03,1.25-.04,1.45-.05.37,0,.66,0,.85-.02v.14s0,.64,0,.64v.09c-.4.06-.81.09-1.23.09-.4,0-.66.08-.78.25-.09.09-.13.53-.13,1.31,0,.09,0,.19,0,.32s0,.21,0,.25v2.28s.15,2.78.15,2.78c.04.82.21,1.49.51,2.01.23.39.55.7.95.91.58.31,1.17.47,1.76.47.69,0,1.32-.09,1.9-.28.37-.12.7-.29.98-.51.32-.24.53-.45.65-.64.24-.37.41-.75.53-1.13.14-.48.21-1.24.21-2.28,0-.52-.01-.95-.03-1.27s-.06-.73-.11-1.22-.09-1.02-.13-1.58l-.04-.59c-.03-.44-.11-.74-.24-.87-.23-.23-.48-.34-.77-.34l-.99.02-.14-.03.02-.85h.83l2.04.1c.5.02,1.15-.01,1.95-.1l.18.02c.04.25.06.42.06.51,0,.05-.01.15-.04.31-.3.08-.58.12-.83.13-.48.07-.75.13-.78.17-.1.1-.15.24-.15.41,0,.05,0,.14.01.27s.01.24.01.31c.05.13.13,1.44.22,3.93.04,1.29,0,2.3-.15,3.02-.1.5-.24.91-.41,1.21-.25.43-.62.84-1.11,1.22-.5.38-1.1.67-1.81.88-.72.22-1.57.33-2.53.33-1.11,0-2.05-.15-2.82-.46-.79-.31-1.38-.72-1.78-1.21-.4-.5-.68-1.15-.82-1.94-.11-.53-.16-1.31-.16-2.35v-3.31c0-1.25-.06-1.95-.17-2.12-.17-.24-.65-.37-1.46-.39Zm14.78,14v-.64c0-.09-.03-.17-.09-.23s-.14-.09-.23-.09h-14.63c-.09,0-.17.03-.23.09s-.09.14-.09.23v.64c0,.09.03.17.09.23s.14.09.23.09h14.63c.09,0,.17-.03.23-.09s.09-.14.09-.23Z"/>
      <path class="cls-4" d="m166.68,340.27c0-.43.35-.78.78-.78h12.46c.43,0,.78.35.78.78s-.35.78-.78.78h-12.46c-.43,0-.78-.35-.78-.78Zm13.23,5.45h-12.46c-.43,0-.78.35-.78.78s.35.78.78.78h12.46c.43,0,.78-.35.78-.78s-.35-.78-.78-.78Zm0,6.23h-12.46c-.43,0-.78.35-.78.78s.35.78.78.78h12.46c.43,0,.78-.35.78-.78s-.35-.78-.78-.78Zm-16.74-6.62c-.64,0-1.17.52-1.17,1.17s.52,1.17,1.17,1.17,1.17-.52,1.17-1.17-.52-1.17-1.17-1.17Zm0-6.23c-.64,0-1.17.52-1.17,1.17s.52,1.17,1.17,1.17,1.17-.52,1.17-1.17-.52-1.17-1.17-1.17Zm0,12.46c-.64,0-1.17.52-1.17,1.17s.52,1.17,1.17,1.17,1.17-.52,1.17-1.17-.52-1.17-1.17-1.17Z"/>
      <g>
        <g>
          <path class="cls-4" d="m213.14,346.99h-11.07c-.39,0-.7-.31-.7-.7s.31-.7.7-.7h11.07c.39,0,.7.31.7.7s-.31.7-.7.7Z"/>
          <path class="cls-4" d="m213.14,353.32h-11.07c-.39,0-.7-.31-.7-.7s.31-.7.7-.7h11.07c.39,0,.7.31.7.7s-.31.7-.7.7Z"/>
          <path class="cls-4" d="m213.14,340.67h-11.07c-.39,0-.7-.31-.7-.7s.31-.7.7-.7h11.07c.39,0,.7.31.7.7s-.31.7-.7.7Z"/>
        </g>
        <path class="cls-1" d="m197.93,342.34v-3.44h-.06l-1.08.73v-.98l1.13-.77h1.13v4.46h-1.13Z"/>
        <path class="cls-1" d="m196.37,345.61c0-.91.71-1.52,1.76-1.52s1.65.56,1.65,1.32c0,.53-.23.88-.95,1.52l-.88.79v.06h1.88v.88h-3.39v-.76l1.59-1.44c.55-.5.64-.7.64-.96,0-.31-.22-.57-.61-.57-.41,0-.66.28-.66.67h-1.04Zm1.13,7.48v-.77h.57c.38,0,.62-.22.62-.54,0-.3-.23-.53-.61-.53s-.65.21-.66.57h-1.03c.02-.86.69-1.42,1.75-1.42s1.62.55,1.61,1.21c0,.54-.35.89-.83,1.01v.06c.64.09,1.01.49,1.01,1.08,0,.8-.76,1.35-1.83,1.35s-1.78-.57-1.82-1.45h1.08c.02.34.29.56.72.56s.7-.23.7-.56-.27-.57-.7-.57h-.57Z"/>
      </g>
    </g>
    <text class="cls-3" transform="translate(387.08 504.2)"><tspan class="cls-14" x="0" y="0">W</tspan><tspan x="10.82" y="0">o</tspan><tspan class="cls-8" x="18.09" y="0">r</tspan><tspan x="22.27" y="0">ds:0</tspan></text>
  </g>
  <text class="cls-2" transform="translate(68.34 113.79)"><tspan class="cls-9" x="0" y="0">R</tspan><tspan x="6.97" y="0">esul</tspan><tspan class="cls-10" x="28.14" y="0">t</tspan><tspan x="32.03" y="0">s-dri</tspan><tspan class="cls-13" x="56.39" y="0">v</tspan><tspan x="62.3" y="0">en mar</tspan><tspan class="cls-23" x="98.12" y="0">k</tspan><tspan x="103.85" y="0">eting manager wi</tspan><tspan class="cls-19" x="193.4" y="0">t</tspan><tspan x="197.53" y="0">h 3+ </tspan><tspan class="cls-13" x="224.48" y="0">y</tspan><tspan x="230.39" y="0">ears of </tspan><tspan class="cls-11" x="269.59" y="0">e</tspan><tspan x="275.84" y="0">xperience in </tspan><tspan x="0" y="15.72">d</tspan><tspan class="cls-5" x="6.83" y="15.72">e</tspan><tspan class="cls-13" x="13.05" y="15.72">v</tspan><tspan x="18.96" y="15.72">eloping and implementing successful mar</tspan><tspan class="cls-23" x="234.16" y="15.72">k</tspan><tspan x="239.9" y="15.72">eting campaigns ac</tspan><tspan class="cls-12" x="340.95" y="15.72">r</tspan><tspan x="344.86" y="15.72">oss </tspan><tspan x="0" y="31.45">multiple channels. </tspan><tspan x="0" y="47.17">Skilled in identifying ta</tspan><tspan class="cls-5" x="117.39" y="47.17">r</tspan><tspan x="121.3" y="47.17">get audiences, and </tspan><tspan class="cls-19" x="223.47" y="47.17">t</tspan><tspan x="227.59" y="47.17">hri</tspan><tspan class="cls-13" x="240.8" y="47.17">v</tspan><tspan x="246.71" y="47.17">es in a </tspan><tspan class="cls-15" x="283.42" y="47.17">f</tspan><tspan x="287.22" y="47.17">as</tspan><tspan class="cls-13" x="299.18" y="47.17">t</tspan><tspan x="302.96" y="47.17">-paced </tspan><tspan x="0" y="62.89">e</tspan><tspan class="cls-13" x="6.41" y="62.89">n</tspan><tspan x="12.63" y="62.89">vi</tspan><tspan class="cls-5" x="21.37" y="62.89">r</tspan><tspan x="25.28" y="62.89">onment, enj</tspan><tspan class="cls-13" x="86.34" y="62.89">o</tspan><tspan x="92.69" y="62.89">ys collaborating wi</tspan><tspan class="cls-22" x="189.92" y="62.89">t</tspan><tspan x="194.04" y="62.89">h c</tspan><tspan class="cls-5" x="209.79" y="62.89">r</tspan><tspan x="213.69" y="62.89">oss-functional </tspan><tspan class="cls-9" x="291.31" y="62.89">t</tspan><tspan x="295.25" y="62.89">eams </tspan><tspan class="cls-9" x="326.29" y="62.89">t</tspan><tspan x="330.23" y="62.89">o </tspan><tspan x="0" y="78.62">achi</tspan><tspan class="cls-5" x="21.46" y="78.62">e</tspan><tspan class="cls-13" x="27.69" y="78.62">v</tspan><tspan x="33.6" y="78.62">e business objecti</tspan><tspan class="cls-13" x="127.32" y="78.62">v</tspan><tspan x="133.23" y="78.62">es.</tspan></text>
  <text class="cls-16" transform="translate(65.58 384.49)"><tspan x="0" y="0">Sta</tspan><tspan class="cls-17" x="17.23" y="0">r</tspan><tspan x="21.7" y="0">t writing...</tspan></text>
</svg>