<?xml version="1.0" encoding="UTF-8"?>
<svg id="Layer_1" data-name="Layer 1" xmlns="http://www.w3.org/2000/svg" xmlns:xlink="http://www.w3.org/1999/xlink" viewBox="0 0 356.16 293.04">
  <defs>
    <style>
      .cls-1 {
        fill: none;
        stroke: url(#linear-gradient-3);
      }

      .cls-1, .cls-2, .cls-3, .cls-4, .cls-5, .cls-6 {
        stroke-miterlimit: 10;
      }

      .cls-7 {
        letter-spacing: 0em;
      }

      .cls-2 {
        fill: url(#linear-gradient-5);
      }

      .cls-2, .cls-3, .cls-4, .cls-5, .cls-6 {
        stroke: #224b8a;
        stroke-width: .75px;
      }

      .cls-8 {
        fill: #e0e6f4;
        filter: url(#drop-shadow-1);
      }

      .cls-3 {
        fill: url(#linear-gradient-2);
      }

      .cls-4 {
        fill: url(#linear-gradient);
      }

      .cls-9 {
        letter-spacing: -.01em;
      }

      .cls-10 {
        fill: #0145fd;
        font-family: Inter-SemiBold, Inter;
        font-size: 20.23px;
        font-variation-settings: 'wght' 600, 'slnt' 0;
        font-weight: 600;
      }

      .cls-5 {
        fill: url(#linear-gradient-4);
      }

      .cls-6 {
        fill: url(#linear-gradient-6);
      }

      .cls-11 {
        letter-spacing: -.02em;
      }
    </style>
    <filter id="drop-shadow-1" filterUnits="userSpaceOnUse">
      <feOffset dx="-9" dy="9"/>
      <feGaussianBlur result="blur" stdDeviation="5"/>
      <feFlood flood-color="#000" flood-opacity=".4"/>
      <feComposite in2="blur" operator="in"/>
      <feComposite in="SourceGraphic"/>
    </filter>
    <linearGradient id="linear-gradient" x1="68.83" y1="91.22" x2="119.38" y2="91.22" gradientUnits="userSpaceOnUse">
      <stop offset="0" stop-color="#9bccee"/>
      <stop offset="1" stop-color="#beb3d8"/>
    </linearGradient>
    <linearGradient id="linear-gradient-2" x1="81.48" y1="72.26" x2="106.73" y2="72.26" xlink:href="#linear-gradient"/>
    <linearGradient id="linear-gradient-3" x1="54.32" y1="134.69" x2="319.92" y2="134.69" gradientUnits="userSpaceOnUse">
      <stop offset="0" stop-color="#45c4e3"/>
      <stop offset="1" stop-color="#4d62ac"/>
    </linearGradient>
    <linearGradient id="linear-gradient-4" x1="80.44" y1="189.63" x2="105.22" y2="189.63" xlink:href="#linear-gradient"/>
    <linearGradient id="linear-gradient-5" x1="68.05" y1="189.63" x2="117.61" y2="189.63" xlink:href="#linear-gradient"/>
    <linearGradient id="linear-gradient-6" x1="99.02" y1="209.86" x2="121.74" y2="209.86" xlink:href="#linear-gradient"/>
  </defs>
  <rect class="cls-8" x="24.13" y="6.2" width="325.98" height="262.6" rx="23.62" ry="23.62"/>
  <text class="cls-10" transform="translate(149.35 73.69)"><tspan x="0" y="0">D</tspan><tspan class="cls-9" x="14.65" y="0">o</tspan><tspan x="26.65" y="0">wnload </tspan><tspan x="0" y="24.27">unlimi</tspan><tspan class="cls-7" x="58.61" y="24.27">t</tspan><tspan x="66.19" y="24.27">ed times</tspan></text>
  <g>
    <path class="cls-4" d="m116.22,81.74c-1.74,0-3.16,1.41-3.16,3.16h0v9.48h-37.91v-9.48c0-1.74-1.41-3.16-3.16-3.16s-3.16,1.41-3.16,3.16v12.64c0,1.74,1.41,3.16,3.16,3.16h44.23c1.74,0,3.16-1.41,3.16-3.16h0v-12.64c0-1.74-1.41-3.16-3.16-3.16h0Z"/>
    <path class="cls-3" d="m91.87,87.13c1.23,1.23,3.23,1.23,4.47,0,0,0,0,0,0,0l9.48-9.48c1.23-1.24,1.22-3.24-.01-4.47-1.23-1.22-3.22-1.22-4.45,0l-4.08,4.08v-17.65c0-1.74-1.41-3.16-3.16-3.16s-3.16,1.41-3.16,3.16v17.65l-4.08-4.08c-1.24-1.23-3.24-1.22-4.47.01-1.23,1.23-1.23,3.22,0,4.45l9.48,9.48Z"/>
  </g>
  <line class="cls-1" x1="54.32" y1="134.69" x2="319.92" y2="134.69"/>
  <g>
    <path class="cls-5" d="m101.09,202.02h4.13l-10.32-24.78h-4.13l-10.32,24.78h4.13l2.56-6.19h11.42l2.54,6.19Zm-12.25-10.32l3.76-9.13h.52l3.84,9.13h-8.12Z"/>
    <path class="cls-2" d="m84.57,214.41h-12.39c-2.28,0-4.13-1.85-4.13-4.13v-41.3c0-2.28,1.85-4.13,4.13-4.13h41.3c2.28,0,4.13,1.85,4.13,4.13v22.71h-4.13v-22.71h-41.3v41.3h12.39v4.13Z"/>
    <polygon class="cls-6" points="107.28 212.72 101.93 207.37 99.02 210.28 107.28 218.54 121.74 204.09 118.82 201.18 107.28 212.72"/>
  </g>
  <text class="cls-10" transform="translate(150.14 186.81)"><tspan x="0" y="0">Embedded </tspan><tspan x="0" y="24.27">Spell-chec</tspan><tspan class="cls-11" x="105.47" y="24.27">k</tspan><tspan x="116.52" y="24.27">er</tspan></text>
</svg>