<svg width="433" height="379" viewBox="0 0 433 379" fill="none" xmlns="http://www.w3.org/2000/svg">
<path d="M157.109 353.001C191.989 365.859 281.212 389.182 348.885 373.341C367.607 368.96 384.316 358.302 394.449 342.964C416.541 309.498 391.547 280.969 370.698 256.07C354.161 236.318 338.485 210.394 349.556 187.283C357.633 170.419 377.128 161.513 393.372 150.879C414.287 137.184 432.49 116.557 432.953 92.9012C433.54 63.1804 405.675 39.0045 375.511 29.5251C345.347 20.0516 312.579 21.3135 280.811 18.491C235.383 14.4657 191.124 1.92739 145.496 0.25293C99.8721 -1.42599 49.7837 10.3004 22.1391 44.4504C0.381951 71.3409 -3.53693 107.994 4.9372 140.408C13.421 172.821 32.9715 201.664 54.6712 228.101C72.0183 249.244 91.5141 270.372 97.4632 296.481C101.417 313.826 91.4966 302.331 102.715 316.6C115.053 332.294 137.642 345.826 157.109 353.001Z" fill="#EFF4FF"/>
</svg>
