<svg width="18" height="25" viewBox="0 0 18 25" fill="none" xmlns="http://www.w3.org/2000/svg">
<g id="Group 1000006446">
<path id="Vector" d="M17.7626 5.14634L12.8535 0.237285C12.7771 0.161455 12.6864 0.101462 12.5867 0.0607458C12.4871 0.0200296 12.3803 -0.000608869 12.2726 1.36752e-05H2.45453C1.80355 1.36752e-05 1.17923 0.258615 0.718914 0.718928C0.258601 1.17924 0 1.80356 0 2.45454V22.0907C0 22.7417 0.258601 23.366 0.718914 23.8264C1.17923 24.2867 1.80355 24.5453 2.45453 24.5453H15.5453C16.1963 24.5453 16.8206 24.2867 17.2809 23.8264C17.7413 23.366 17.9999 22.7417 17.9999 22.0907V5.72724C18.0005 5.61956 17.9798 5.51282 17.9391 5.41314C17.8984 5.31345 17.8384 5.22279 17.7626 5.14634Z" fill="#0145FD"/>
<path id="Vector_2" d="M12.8505 0.237285C12.774 0.161455 12.6834 0.101462 12.5837 0.0607458C12.484 0.0200296 12.3773 -0.000608869 12.2696 1.36752e-05H11.4514V5.44088C11.4536 5.73316 11.5706 6.01286 11.7773 6.21954C11.984 6.42622 12.2637 6.54328 12.556 6.54542H17.9968V5.72724C17.9974 5.61956 17.9768 5.51282 17.9361 5.41314C17.8954 5.31345 17.8354 5.22279 17.7596 5.14634L12.8505 0.237285ZM13.2187 13.2954H5.03693C4.81993 13.2954 4.61183 13.2092 4.45839 13.0557C4.30495 12.9023 4.21875 12.6942 4.21875 12.4772C4.21875 12.2602 4.30495 12.0521 4.45839 11.8987C4.61183 11.7452 4.81993 11.659 5.03693 11.659H13.2187C13.4357 11.659 13.6438 11.7452 13.7972 11.8987C13.9507 12.0521 14.0369 12.2602 14.0369 12.4772C14.0369 12.6942 13.9507 12.9023 13.7972 13.0557C13.6438 13.2092 13.4357 13.2954 13.2187 13.2954ZM13.2187 17.3862H5.03693C4.81993 17.3862 4.61183 17.3 4.45839 17.1466C4.30495 16.9932 4.21875 16.7851 4.21875 16.5681C4.21875 16.3511 4.30495 16.143 4.45839 15.9895C4.61183 15.8361 4.81993 15.7499 5.03693 15.7499H13.2187C13.4357 15.7499 13.6438 15.8361 13.7972 15.9895C13.9507 16.143 14.0369 16.3511 14.0369 16.5681C14.0369 16.7851 13.9507 16.9932 13.7972 17.1466C13.6438 17.3 13.4357 17.3862 13.2187 17.3862ZM13.2187 21.4771H5.03693C4.81993 21.4771 4.61183 21.3909 4.45839 21.2375C4.30495 21.084 4.21875 20.8759 4.21875 20.6589C4.21875 20.4419 4.30495 20.2338 4.45839 20.0804C4.61183 19.927 4.81993 19.8408 5.03693 19.8408H13.2187C13.4357 19.8408 13.6438 19.927 13.7972 20.0804C13.9507 20.2338 14.0369 20.4419 14.0369 20.6589C14.0369 20.8759 13.9507 21.084 13.7972 21.2375C13.6438 21.3909 13.4357 21.4771 13.2187 21.4771Z" fill="#C8C8C8"/>
<path id="Vector_3" d="M13.0937 13.0909H4.91193C4.69493 13.0909 4.48683 13.0047 4.33339 12.8513C4.17995 12.6979 4.09375 12.4898 4.09375 12.2728C4.09375 12.0558 4.17995 11.8477 4.33339 11.6942C4.48683 11.5408 4.69493 11.4546 4.91193 11.4546H13.0937C13.3107 11.4546 13.5188 11.5408 13.6722 11.6942C13.8257 11.8477 13.9119 12.0558 13.9119 12.2728C13.9119 12.4898 13.8257 12.6979 13.6722 12.8513C13.5188 13.0047 13.3107 13.0909 13.0937 13.0909ZM13.0937 17.1818H4.91193C4.69493 17.1818 4.48683 17.0956 4.33339 16.9422C4.17995 16.7887 4.09375 16.5806 4.09375 16.3636C4.09375 16.1466 4.17995 15.9385 4.33339 15.7851C4.48683 15.6317 4.69493 15.5455 4.91193 15.5455H13.0937C13.3107 15.5455 13.5188 15.6317 13.6722 15.7851C13.8257 15.9385 13.9119 16.1466 13.9119 16.3636C13.9119 16.5806 13.8257 16.7887 13.6722 16.9422C13.5188 17.0956 13.3107 17.1818 13.0937 17.1818ZM13.0937 21.2727H4.91193C4.69493 21.2727 4.48683 21.1865 4.33339 21.0331C4.17995 20.8796 4.09375 20.6715 4.09375 20.4545C4.09375 20.2375 4.17995 20.0294 4.33339 19.876C4.48683 19.7225 4.69493 19.6363 4.91193 19.6363H13.0937C13.3107 19.6363 13.5188 19.7225 13.6722 19.876C13.8257 20.0294 13.9119 20.2375 13.9119 20.4545C13.9119 20.6715 13.8257 20.8796 13.6722 21.0331C13.5188 21.1865 13.3107 21.2727 13.0937 21.2727Z" fill="white"/>
<path id="Vector_4" d="M13.8137 11.8964C13.6993 11.8305 13.5693 11.7966 13.4373 11.7982H5.25556C5.03857 11.7982 4.83046 11.8844 4.67702 12.0379C4.52358 12.1913 4.43738 12.3994 4.43738 12.6164C4.43579 12.7484 4.4697 12.8784 4.53556 12.9928C4.40339 12.9243 4.2924 12.8211 4.21455 12.6942C4.1367 12.5673 4.09493 12.4216 4.09375 12.2728C4.09375 12.0558 4.17995 11.8477 4.33339 11.6942C4.48683 11.5408 4.69493 11.4546 4.91193 11.4546H13.0937C13.2425 11.4558 13.3882 11.4975 13.5151 11.5754C13.642 11.6532 13.7452 11.7642 13.8137 11.8964ZM13.8137 15.9873C13.6993 15.9214 13.5693 15.8875 13.4373 15.8891H5.25556C5.03857 15.8891 4.83046 15.9753 4.67702 16.1287C4.52358 16.2822 4.43738 16.4903 4.43738 16.7073C4.43579 16.8393 4.4697 16.9692 4.53556 17.0836C4.40339 17.0152 4.2924 16.9119 4.21455 16.7851C4.1367 16.6582 4.09493 16.5125 4.09375 16.3636C4.09375 16.1466 4.17995 15.9385 4.33339 15.7851C4.48683 15.6317 4.69493 15.5455 4.91193 15.5455H13.0937C13.2425 15.5466 13.3882 15.5884 13.5151 15.6663C13.642 15.7441 13.7452 15.8551 13.8137 15.9873ZM13.8137 20.0782C13.6993 20.0123 13.5693 19.9784 13.4373 19.98H5.25556C5.03857 19.98 4.83046 20.0662 4.67702 20.2196C4.52358 20.3731 4.43738 20.5812 4.43738 20.7982C4.43579 20.9301 4.4697 21.0601 4.53556 21.1745C4.40339 21.106 4.2924 21.0028 4.21455 20.8759C4.1367 20.7491 4.09493 20.6034 4.09375 20.4545C4.09375 20.2375 4.17995 20.0294 4.33339 19.876C4.48683 19.7225 4.69493 19.6363 4.91193 19.6363H13.0937C13.2425 19.6375 13.3882 19.6793 13.5151 19.7571C13.642 19.835 13.7452 19.946 13.8137 20.0782Z" fill="#0145FD"/>
</g>
</svg>
