<svg width="20" height="26" viewBox="0 0 20 26" fill="none" xmlns="http://www.w3.org/2000/svg">
<g id="Group 1000006543">
<path id="Vector" fill-rule="evenodd" clip-rule="evenodd" d="M11.96 0.742191C10.8407 -0.247397 9.15931 -0.247397 8.03986 0.742191C7.7749 0.976508 7.41524 1.07287 7.06855 1.00247C5.60437 0.705133 4.14821 1.54584 3.67362 2.96254C3.56125 3.29798 3.29798 3.56125 2.96254 3.67362C1.54584 4.14821 0.705133 5.60437 1.00247 7.06855C1.07287 7.41524 0.976508 7.77487 0.742191 8.03991C-0.247397 9.15926 -0.247397 10.8407 0.742191 11.96C0.976508 12.2251 1.07287 12.5847 1.00247 12.9314C0.705133 14.3956 1.54584 15.8517 2.96254 16.3263C3.29798 16.4387 3.56125 16.7019 3.67362 17.0375C4.14821 18.4541 5.60437 19.2948 7.06855 18.9975C7.41524 18.927 7.7749 19.0235 8.03986 19.2578C9.15931 20.2473 10.8407 20.2473 11.96 19.2578C12.2251 19.0235 12.5847 18.927 12.9315 18.9975C14.3956 19.2948 15.8518 18.4541 16.3263 17.0375C16.4388 16.7019 16.702 16.4387 17.0374 16.3263C18.4541 15.8517 19.2949 14.3956 18.9974 12.9314C18.9271 12.5847 19.0234 12.2251 19.2578 11.96C20.2474 10.8407 20.2474 9.15926 19.2578 8.03991C19.0234 7.77487 18.9271 7.41524 18.9974 7.06855C19.2949 5.60437 18.4541 4.14821 17.0374 3.67362C16.702 3.56125 16.4388 3.29798 16.3263 2.96254C15.8518 1.54584 14.3956 0.705133 12.9315 1.00247C12.5847 1.07287 12.2251 0.976508 11.96 0.742191ZM10.7346 6.31296C10.5828 6.06662 10.3209 5.91766 10.0403 5.91766C9.75957 5.91766 9.49778 6.06662 9.34588 6.31296L8.28395 8.03504L6.3824 8.55406C6.1106 8.62855 5.8938 8.84165 5.80688 9.12008C5.71994 9.39735 5.77606 9.70327 5.95323 9.92899L7.19892 11.5135L7.08557 13.5564C7.06908 13.8486 7.19672 14.1293 7.42451 14.3013C7.65121 14.4731 7.94718 14.512 8.2091 14.4066L10.0403 13.663L11.8713 14.4066C12.1333 14.512 12.4292 14.4731 12.656 14.3013C12.8837 14.1293 13.0114 13.8486 12.9949 13.5564L12.9746 11.2645L14.1272 9.92899C14.3044 9.70327 14.3606 9.39735 14.2736 9.12008C14.1867 8.84165 13.9698 8.62855 13.698 8.55406L11.7965 8.03504L10.7346 6.31296Z" fill="#0145FD"/>
<path id="Vector_2" d="M12.8179 20.5289C12.2941 20.9531 11.698 21.2421 11.0755 21.3958C11.2921 21.914 11.5252 22.4254 11.7745 22.9292C11.7993 22.9794 11.8244 23.0293 11.8716 23.124L12.3633 24.1074C12.4351 24.2511 12.516 24.413 12.5975 24.5427C12.6802 24.6739 12.8525 24.9238 13.1691 25.0643C13.4691 25.1974 13.8087 25.2105 14.1181 25.1007C14.4445 24.9848 14.6354 24.749 14.7279 24.6245C14.8192 24.5015 14.9122 24.3462 14.9949 24.2084L15.4214 23.4975C15.6389 23.135 15.765 22.9273 15.8737 22.7843C15.9226 22.7199 15.9532 22.6893 15.9692 22.6752C15.9765 22.6686 15.9815 22.6653 15.9815 22.6653L15.983 22.6645L15.9846 22.6639C15.9846 22.6639 15.9903 22.6623 16.0001 22.6609C16.0211 22.6579 16.0643 22.6546 16.145 22.6591C16.3242 22.669 16.5642 22.7077 16.9812 22.7772L18.5183 23.0334C19.4195 23.1836 20.1566 22.3209 19.8677 21.4542L19.7678 21.1543C19.3457 19.8881 18.797 18.67 18.1309 17.5181C17.9933 17.5882 17.8509 17.6515 17.7041 17.7078C16.9464 19.682 14.9065 20.8597 12.8179 20.5289ZM2.28977 17.7078C2.14303 17.6515 2.00066 17.5882 1.863 17.5181C1.19697 18.67 0.648159 19.8881 0.226121 21.1543L0.126154 21.4542C-0.162743 22.3209 0.574421 23.1836 1.47558 23.0334L3.01276 22.7772C3.42976 22.7077 3.66969 22.669 3.84893 22.6591C3.92965 22.6546 3.97286 22.6579 3.99387 22.6609C4.00364 22.6623 4.00939 22.6639 4.00939 22.6639L4.01097 22.6645L4.01241 22.6653C4.01241 22.6653 4.01736 22.6686 4.02475 22.6752C4.04066 22.6893 4.07121 22.7199 4.12015 22.7843C4.22882 22.9273 4.35496 23.135 4.57247 23.4975L4.99903 24.2084C5.08164 24.3462 5.17475 24.5015 5.266 24.6245C5.35846 24.749 5.54943 24.9848 5.87587 25.1007C6.18518 25.2105 6.52481 25.1974 6.82478 25.0643C7.14138 24.9238 7.3137 24.6739 7.39634 24.5427C7.47789 24.413 7.5588 24.2511 7.63059 24.1074L8.1223 23.124C8.16956 23.0293 8.19459 22.9794 8.21938 22.9292C8.46859 22.4254 8.70169 21.914 8.91842 21.3958C8.29594 21.2421 7.69983 20.9531 7.17593 20.5289C5.08735 20.8597 3.04759 19.682 2.28977 17.7078Z" fill="#0145FD"/>
</g>
</svg>
