<svg width="23" height="23" viewBox="0 0 23 23" fill="none" xmlns="http://www.w3.org/2000/svg">
<g id="Group 1000006542">
<path id="Vector" d="M21.3571 0H1.64286C0.735532 0 0 0.735532 0 1.64286V7.39286C0 8.30018 0.735532 9.03572 1.64286 9.03572H21.3571C22.2645 9.03572 23 8.30018 23 7.39286V1.64286C23 0.735532 22.2645 0 21.3571 0Z" fill="#0145FD"/>
<path id="Vector_2" d="M9.85714 11.5H1.64286C0.735532 11.5 0 12.2355 0 13.1429V21.3571C0 22.2645 0.735532 23 1.64286 23H9.85714C10.7645 23 11.5 22.2645 11.5 21.3571V13.1429C11.5 12.2355 10.7645 11.5 9.85714 11.5Z" fill="#0145FD"/>
<path id="Vector_3" d="M22.183 12.3213H14.7902C14.5723 12.3213 14.3634 12.4078 14.2093 12.5619C14.0553 12.7159 13.9688 12.9249 13.9688 13.1427C13.9688 13.3606 14.0553 13.5695 14.2093 13.7236C14.3634 13.8776 14.5723 13.9641 14.7902 13.9641H22.183C22.4009 13.9641 22.6098 13.8776 22.7639 13.7236C22.9179 13.5695 23.0045 13.3606 23.0045 13.1427C23.0045 12.9249 22.9179 12.7159 22.7639 12.5619C22.6098 12.4078 22.4009 12.3213 22.183 12.3213ZM22.183 16.4284H14.7902C14.5723 16.4284 14.3634 16.515 14.2093 16.669C14.0553 16.8231 13.9688 17.032 13.9688 17.2499C13.9688 17.4677 14.0553 17.6767 14.2093 17.8307C14.3634 17.9847 14.5723 18.0713 14.7902 18.0713H22.183C22.4009 18.0713 22.6098 17.9847 22.7639 17.8307C22.9179 17.6767 23.0045 17.4677 23.0045 17.2499C23.0045 17.032 22.9179 16.8231 22.7639 16.669C22.6098 16.515 22.4009 16.4284 22.183 16.4284ZM22.183 20.5356H14.7902C14.5723 20.5356 14.3634 20.6221 14.2093 20.7762C14.0553 20.9302 13.9688 21.1391 13.9688 21.357C13.9688 21.5749 14.0553 21.7838 14.2093 21.9378C14.3634 22.0919 14.5723 22.1784 14.7902 22.1784H22.183C22.4009 22.1784 22.6098 22.0919 22.7639 21.9378C22.9179 21.7838 23.0045 21.5749 23.0045 21.357C23.0045 21.1391 22.9179 20.9302 22.7639 20.7762C22.6098 20.6221 22.4009 20.5356 22.183 20.5356Z" fill="#C8C8C8"/>
</g>
</svg>
