<?xml version="1.0" encoding="UTF-8"?>
<!DOCTYPE svg PUBLIC "-//W3C//DTD SVG 1.1//EN" "http://www.w3.org/Graphics/SVG/1.1/DTD/svg11.dtd">
<svg xmlns="http://www.w3.org/2000/svg" version="1.1" width="128px" height="128px" style="shape-rendering:geometricPrecision; text-rendering:geometricPrecision; image-rendering:optimizeQuality; fill-rule:evenodd; clip-rule:evenodd" xmlns:xlink="http://www.w3.org/1999/xlink">
<g><path style="opacity:1" fill="#ecebf5" d="M 3.5,3.5 C 28.8333,3.5 54.1667,3.5 79.5,3.5C 79.5,4.83333 79.5,6.16667 79.5,7.5C 55.5,7.5 31.5,7.5 7.5,7.5C 7.5,14.1667 7.5,20.8333 7.5,27.5C 7.5,44.8333 7.5,62.1667 7.5,79.5C 7.5,89.1667 7.5,98.8333 7.5,108.5C 6.16667,108.5 4.83333,108.5 3.5,108.5C 3.5,73.5 3.5,38.5 3.5,3.5 Z"/></g>
<g><path style="opacity:0.976" fill="#3253a7" d="M -0.5,-0.5 C 27.5,-0.5 55.5,-0.5 83.5,-0.5C 83.5,1.83333 83.5,4.16667 83.5,6.5C 86.1667,6.5 88.8333,6.5 91.5,6.5C 91.5,9.16667 91.5,11.8333 91.5,14.5C 93.8333,14.5 96.1667,14.5 98.5,14.5C 98.5,23.8333 98.5,33.1667 98.5,42.5C 97.5,42.5 96.5,42.5 95.5,42.5C 95.5,50.5 95.5,58.5 95.5,66.5C 95.1667,66.5 94.8333,66.5 94.5,66.5C 94.5,50.5 94.5,34.5 94.5,18.5C 74.1667,18.5 53.8333,18.5 33.5,18.5C 32.5139,22.97 32.1805,27.6367 32.5,32.5C 27.6367,32.1805 22.97,32.5139 18.5,33.5C 17.8335,38.3489 17.1668,43.3489 16.5,48.5C 15.8243,49.6016 15.1577,50.6016 14.5,51.5C 14.5,44.8333 14.5,38.1667 14.5,31.5C 19.6303,25.8686 24.9637,20.3686 30.5,15C 49.1637,14.5001 67.8304,14.3334 86.5,14.5C 87.4345,13.4324 87.7678,12.099 87.5,10.5C 61.8333,10.5 36.1667,10.5 10.5,10.5C 10.5,16.1667 10.5,21.8333 10.5,27.5C 9.5,27.5 8.5,27.5 7.5,27.5C 7.5,20.8333 7.5,14.1667 7.5,7.5C 31.5,7.5 55.5,7.5 79.5,7.5C 79.5,6.16667 79.5,4.83333 79.5,3.5C 54.1667,3.5 28.8333,3.5 3.5,3.5C 2.50452,16.3226 2.17119,29.3226 2.5,42.5C 1.5,42.5 0.5,42.5 -0.5,42.5C -0.5,28.1667 -0.5,13.8333 -0.5,-0.5 Z"/></g>
<g><path style="opacity:1" fill="#7aaedd" d="M 86.5,14.5 C 86.5,13.5 86.5,12.5 86.5,11.5C 61.5,11.5 36.5,11.5 11.5,11.5C 11.5,18.1667 11.5,24.8333 11.5,31.5C 11.5,33.8333 11.5,36.1667 11.5,38.5C 11.1667,38.5 10.8333,38.5 10.5,38.5C 10.5,34.8333 10.5,31.1667 10.5,27.5C 10.5,21.8333 10.5,16.1667 10.5,10.5C 36.1667,10.5 61.8333,10.5 87.5,10.5C 87.7678,12.099 87.4345,13.4324 86.5,14.5 Z"/></g>
<g><path style="opacity:1" fill="#98d2f2" d="M 86.5,14.5 C 67.8304,14.3334 49.1637,14.5001 30.5,15C 24.9637,20.3686 19.6303,25.8686 14.5,31.5C 13.5,31.5 12.5,31.5 11.5,31.5C 11.5,24.8333 11.5,18.1667 11.5,11.5C 36.5,11.5 61.5,11.5 86.5,11.5C 86.5,12.5 86.5,13.5 86.5,14.5 Z"/></g>
<g><path style="opacity:0.979" fill="#3b52a7" d="M 111.5,-0.5 C 114.167,-0.5 116.833,-0.5 119.5,-0.5C 120.122,0.626561 120.955,1.62656 122,2.5C 122.5,15.8292 122.667,29.1625 122.5,42.5C 121.5,42.5 120.5,42.5 119.5,42.5C 119.825,50.0191 119.492,57.3524 118.5,64.5C 118.5,48.1667 118.5,31.8333 118.5,15.5C 116.5,15.5 114.5,15.5 112.5,15.5C 112.5,23.8333 112.5,32.1667 112.5,40.5C 111.596,39.791 111.263,38.791 111.5,37.5C 110.5,37.5 109.5,37.5 108.5,37.5C 108.333,25.8286 108.5,14.1619 109,2.5C 110.045,1.62656 110.878,0.626561 111.5,-0.5 Z"/></g>
<g><path style="opacity:1" fill="#f0f3f9" d="M 113.5,3.5 C 115.144,3.28649 116.644,3.61983 118,4.5C 118.497,7.14603 118.664,9.8127 118.5,12.5C 116.5,12.5 114.5,12.5 112.5,12.5C 112.264,9.39147 112.597,6.39147 113.5,3.5 Z"/></g>
<g><path style="opacity:1" fill="#fdfefe" d="M 118.5,64.5 C 116.5,64.5 114.5,64.5 112.5,64.5C 112.5,56.5 112.5,48.5 112.5,40.5C 112.5,32.1667 112.5,23.8333 112.5,15.5C 114.5,15.5 116.5,15.5 118.5,15.5C 118.5,31.8333 118.5,48.1667 118.5,64.5 Z"/></g>
<g><path style="opacity:1" fill="#fbfafd" d="M 33.5,18.5 C 53.8333,18.5 74.1667,18.5 94.5,18.5C 94.5,34.5 94.5,50.5 94.5,66.5C 94.5,85.5 94.5,104.5 94.5,123.5C 69.1667,123.5 43.8333,123.5 18.5,123.5C 18.5,93.5 18.5,63.5 18.5,33.5C 23.5,33.5 28.5,33.5 33.5,33.5C 33.5,28.5 33.5,23.5 33.5,18.5 Z"/></g>
<g><path style="opacity:1" fill="#f9f9fc" d="M 28.5,21.5 C 29.4731,23.9479 29.8064,26.6146 29.5,29.5C 26.8127,29.6641 24.146,29.4974 21.5,29C 24.0386,26.6303 26.3719,24.1303 28.5,21.5 Z"/></g>
<g><path style="opacity:1" fill="#6370b7" d="M 33.5,18.5 C 33.5,23.5 33.5,28.5 33.5,33.5C 28.5,33.5 23.5,33.5 18.5,33.5C 22.97,32.5139 27.6367,32.1805 32.5,32.5C 32.1805,27.6367 32.5139,22.97 33.5,18.5 Z"/></g>
<g><path style="opacity:1" fill="#494ba7" d="M 25.5,40.5 C 46.1667,40.5 66.8333,40.5 87.5,40.5C 87.5,41.5 87.5,42.5 87.5,43.5C 66.8333,43.5 46.1667,43.5 25.5,43.5C 25.5,42.5 25.5,41.5 25.5,40.5 Z"/></g>
<g><path style="opacity:1" fill="#b0a7d5" d="M 25.5,51.5 C 29.97,50.5139 34.6367,50.1805 39.5,50.5C 39.5,55.5 39.5,60.5 39.5,65.5C 34.6367,65.8195 29.97,65.4861 25.5,64.5C 29.8333,64.5 34.1667,64.5 38.5,64.5C 38.5,60.1667 38.5,55.8333 38.5,51.5C 34.1667,51.5 29.8333,51.5 25.5,51.5 Z"/></g>
<g><path style="opacity:1" fill="#564aa8" d="M 44.5,51.5 C 55.1667,51.5 65.8333,51.5 76.5,51.5C 76.5,52.5 76.5,53.5 76.5,54.5C 65.8333,54.5 55.1667,54.5 44.5,54.5C 44.5,53.5 44.5,52.5 44.5,51.5 Z"/></g>
<g><path style="opacity:1" fill="#5e49a8" d="M 25.5,51.5 C 29.8333,51.5 34.1667,51.5 38.5,51.5C 38.5,55.8333 38.5,60.1667 38.5,64.5C 34.1667,64.5 29.8333,64.5 25.5,64.5C 25.5,60.1667 25.5,55.8333 25.5,51.5 Z"/></g>
<g><path style="opacity:1" fill="#6853ad" d="M 44.5,58.5 C 51.8333,58.5 59.1667,58.5 66.5,58.5C 66.5,59.8333 66.5,61.1667 66.5,62.5C 59.1667,62.5 51.8333,62.5 44.5,62.5C 44.5,61.1667 44.5,59.8333 44.5,58.5 Z"/></g>
<g><path style="opacity:1" fill="#9b93e7" d="M 28.5,54.5 C 30.8333,54.5 33.1667,54.5 35.5,54.5C 35.5,56.8333 35.5,59.1667 35.5,61.5C 33.1667,61.5 30.8333,61.5 28.5,61.5C 28.5,59.1667 28.5,56.8333 28.5,54.5 Z"/></g>
<g><path style="opacity:0.965" fill="#664baa" d="M 108.5,37.5 C 109.5,37.5 110.5,37.5 111.5,37.5C 111.263,38.791 111.596,39.791 112.5,40.5C 112.5,48.5 112.5,56.5 112.5,64.5C 114.5,64.5 116.5,64.5 118.5,64.5C 119.492,57.3524 119.825,50.0191 119.5,42.5C 120.5,42.5 121.5,42.5 122.5,42.5C 122.666,51.8393 122.5,61.1726 122,70.5C 120.314,76.3957 118.148,82.0624 115.5,87.5C 113.041,81.624 110.874,75.624 109,69.5C 108.5,58.8385 108.333,48.1719 108.5,37.5 Z"/></g>
<g><path style="opacity:1" fill="#ede8f4" d="M 113.5,68.5 C 114.833,68.5 116.167,68.5 117.5,68.5C 116.603,77.6211 115.27,77.6211 113.5,68.5 Z"/></g>
<g><path style="opacity:1" fill="#7348aa" d="M 25.5,71.5 C 29.8333,71.5 34.1667,71.5 38.5,71.5C 38.5,75.8333 38.5,80.1667 38.5,84.5C 34.1667,84.5 29.8333,84.5 25.5,84.5C 25.5,80.1667 25.5,75.8333 25.5,71.5 Z"/></g>
<g><path style="opacity:1" fill="#beaad7" d="M 25.5,71.5 C 29.97,70.5139 34.6367,70.1805 39.5,70.5C 39.5,75.5 39.5,80.5 39.5,85.5C 34.6367,85.8195 29.97,85.4861 25.5,84.5C 29.8333,84.5 34.1667,84.5 38.5,84.5C 38.5,80.1667 38.5,75.8333 38.5,71.5C 34.1667,71.5 29.8333,71.5 25.5,71.5 Z"/></g>
<g><path style="opacity:1" fill="#6f49aa" d="M 44.5,71.5 C 55.1667,71.5 65.8333,71.5 76.5,71.5C 76.5,72.5 76.5,73.5 76.5,74.5C 65.8333,74.5 55.1667,74.5 44.5,74.5C 44.5,73.5 44.5,72.5 44.5,71.5 Z"/></g>
<g><path style="opacity:1" fill="#6349a8" d="M 7.5,27.5 C 8.5,27.5 9.5,27.5 10.5,27.5C 10.5,31.1667 10.5,34.8333 10.5,38.5C 10.5,52.1667 10.5,65.8333 10.5,79.5C 9.5,79.5 8.5,79.5 7.5,79.5C 7.5,62.1667 7.5,44.8333 7.5,27.5 Z"/></g>
<g><path style="opacity:1" fill="#7e51af" d="M 44.5,78.5 C 49.5,78.5 54.5,78.5 59.5,78.5C 59.5,79.8333 59.5,81.1667 59.5,82.5C 54.5,82.5 49.5,82.5 44.5,82.5C 44.5,81.1667 44.5,79.8333 44.5,78.5 Z"/></g>
<g><path style="opacity:1" fill="#ba9ce9" d="M 28.5,74.5 C 30.8333,74.5 33.1667,74.5 35.5,74.5C 35.5,76.8333 35.5,79.1667 35.5,81.5C 33.1667,81.5 30.8333,81.5 28.5,81.5C 28.5,79.1667 28.5,76.8333 28.5,74.5 Z"/></g>
<g><path style="opacity:1" fill="#7a56af" d="M 3.5,3.5 C 3.5,38.5 3.5,73.5 3.5,108.5C 2.51045,102.69 2.17711,96.69 2.5,90.5C 1.5,90.5 0.5,90.5 -0.5,90.5C -0.5,74.5 -0.5,58.5 -0.5,42.5C 0.5,42.5 1.5,42.5 2.5,42.5C 2.17119,29.3226 2.50452,16.3226 3.5,3.5 Z"/></g>
<g><path style="opacity:1" fill="#b8edf3" d="M 11.5,31.5 C 12.5,31.5 13.5,31.5 14.5,31.5C 14.5,38.1667 14.5,44.8333 14.5,51.5C 14.5,69.1667 14.5,86.8333 14.5,104.5C 14.5,108.167 14.5,111.833 14.5,115.5C 13.5,115.5 12.5,115.5 11.5,115.5C 11.5,89.8333 11.5,64.1667 11.5,38.5C 11.5,36.1667 11.5,33.8333 11.5,31.5 Z"/></g>
<g><path style="opacity:0.98" fill="#7148a9" d="M 98.5,42.5 C 98.5,58.5 98.5,74.5 98.5,90.5C 97.5,90.5 96.5,90.5 95.5,90.5C 95.5,82.5 95.5,74.5 95.5,66.5C 95.5,58.5 95.5,50.5 95.5,42.5C 96.5,42.5 97.5,42.5 98.5,42.5 Z"/></g>
<g><path style="opacity:1" fill="#8553b0" d="M 18.5,33.5 C 18.5,63.5 18.5,93.5 18.5,123.5C 17.8334,117.654 17.1668,111.654 16.5,105.5C 15.8165,105.137 15.1499,104.804 14.5,104.5C 14.5,86.8333 14.5,69.1667 14.5,51.5C 15.1577,50.6016 15.8243,49.6016 16.5,48.5C 17.1668,43.3489 17.8335,38.3489 18.5,33.5 Z"/></g>
<g><path style="opacity:0.937" fill="#964caf" d="M 127.5,100.5 C 127.5,104.167 127.5,107.833 127.5,111.5C 126.5,111.5 125.5,111.5 124.5,111.5C 124.817,115.702 124.483,119.702 123.5,123.5C 123.5,121.167 123.5,118.833 123.5,116.5C 123.5,113.5 123.5,110.5 123.5,107.5C 118.167,107.5 112.833,107.5 107.5,107.5C 107.5,108.5 107.5,109.5 107.5,110.5C 106.292,111.234 104.959,111.567 103.5,111.5C 101.678,98.1567 107.345,92.3234 120.5,94C 123.358,95.6941 125.691,97.8607 127.5,100.5 Z"/></g>
<g><path style="opacity:1" fill="#faf7fb" d="M 112.5,97.5 C 117.547,96.6901 121.214,98.5234 123.5,103C 118.167,103.667 112.833,103.667 107.5,103C 108.692,100.645 110.359,98.8118 112.5,97.5 Z"/></g>
<g><path style="opacity:1" fill="#acc2df" d="M 10.5,38.5 C 10.8333,38.5 11.1667,38.5 11.5,38.5C 11.5,64.1667 11.5,89.8333 11.5,115.5C 12.5,115.5 13.5,115.5 14.5,115.5C 13.4324,116.434 12.099,116.768 10.5,116.5C 10.5,104.167 10.5,91.8333 10.5,79.5C 10.5,65.8333 10.5,52.1667 10.5,38.5 Z"/></g>
<g><path style="opacity:1" fill="#c8b6ff" d="M 123.5,116.5 C 118.167,116.5 112.833,116.5 107.5,116.5C 107.5,114.5 107.5,112.5 107.5,110.5C 107.5,109.5 107.5,108.5 107.5,107.5C 112.833,107.5 118.167,107.5 123.5,107.5C 123.5,110.5 123.5,113.5 123.5,116.5 Z"/></g>
<g><path style="opacity:0.986" fill="#ab46af" d="M 107.5,110.5 C 107.5,112.5 107.5,114.5 107.5,116.5C 107.5,118.833 107.5,121.167 107.5,123.5C 112.833,123.5 118.167,123.5 123.5,123.5C 124.483,119.702 124.817,115.702 124.5,111.5C 125.5,111.5 126.5,111.5 127.5,111.5C 127.5,116.833 127.5,122.167 127.5,127.5C 119.5,127.5 111.5,127.5 103.5,127.5C 103.5,122.167 103.5,116.833 103.5,111.5C 104.959,111.567 106.292,111.234 107.5,110.5 Z"/></g>
<g><path style="opacity:1" fill="#e4c0ff" d="M 107.5,116.5 C 112.833,116.5 118.167,116.5 123.5,116.5C 123.5,118.833 123.5,121.167 123.5,123.5C 118.167,123.5 112.833,123.5 107.5,123.5C 107.5,121.167 107.5,118.833 107.5,116.5 Z"/></g>
<g><path style="opacity:0.998" fill="#a74cb1" d="M 94.5,66.5 C 94.8333,66.5 95.1667,66.5 95.5,66.5C 95.5,74.5 95.5,82.5 95.5,90.5C 96.5,90.5 97.5,90.5 98.5,90.5C 98.5,102.833 98.5,115.167 98.5,127.5C 70.5,127.5 42.5,127.5 14.5,127.5C 14.5,125.167 14.5,122.833 14.5,120.5C 11.8333,120.5 9.16667,120.5 6.5,120.5C 6.5,117.833 6.5,115.167 6.5,112.5C 4.16667,112.5 1.83333,112.5 -0.5,112.5C -0.5,105.167 -0.5,97.8333 -0.5,90.5C 0.5,90.5 1.5,90.5 2.5,90.5C 2.17711,96.69 2.51045,102.69 3.5,108.5C 4.83333,108.5 6.16667,108.5 7.5,108.5C 7.5,98.8333 7.5,89.1667 7.5,79.5C 8.5,79.5 9.5,79.5 10.5,79.5C 10.5,91.8333 10.5,104.167 10.5,116.5C 12.099,116.768 13.4324,116.434 14.5,115.5C 14.5,111.833 14.5,108.167 14.5,104.5C 15.1499,104.804 15.8165,105.137 16.5,105.5C 17.1668,111.654 17.8334,117.654 18.5,123.5C 43.8333,123.5 69.1667,123.5 94.5,123.5C 94.5,104.5 94.5,85.5 94.5,66.5 Z"/></g>
<g><path style="opacity:1" fill="#c891cf" d="M 85.5,114.5 C 83.5,114.5 81.5,114.5 79.5,114.5C 79.5,115.833 79.5,117.167 79.5,118.5C 77.901,118.768 76.5676,118.434 75.5,117.5C 76.5,117.5 77.5,117.5 78.5,117.5C 78.5,116.167 78.5,114.833 78.5,113.5C 81.0593,113.198 83.3926,113.532 85.5,114.5 Z"/></g>
<g><path style="opacity:1" fill="#9c49af" d="M 88.5,103.5 C 88.5,108.167 88.5,112.833 88.5,117.5C 87.5,117.5 86.5,117.5 85.5,117.5C 85.5,116.5 85.5,115.5 85.5,114.5C 83.3926,113.532 81.0593,113.198 78.5,113.5C 78.5,114.833 78.5,116.167 78.5,117.5C 77.5,117.5 76.5,117.5 75.5,117.5C 75.3341,112.489 75.5007,107.489 76,102.5C 80.7639,97.0271 84.9306,97.3604 88.5,103.5 Z"/></g>
<g><path style="opacity:1" fill="#c086ca" d="M 88.5,103.5 C 89.4872,108.305 89.8205,113.305 89.5,118.5C 87.901,118.768 86.5676,118.434 85.5,117.5C 86.5,117.5 87.5,117.5 88.5,117.5C 88.5,112.833 88.5,108.167 88.5,103.5 Z"/></g>
<g><path style="opacity:1" fill="#f8f3f9" d="M 80.5,102.5 C 81.9305,102.421 83.2638,102.754 84.5,103.5C 85.4742,105.743 85.8076,108.076 85.5,110.5C 83.5,110.5 81.5,110.5 79.5,110.5C 79.2786,107.721 79.612,105.054 80.5,102.5 Z"/></g>
<g><path style="opacity:1" fill="#9954b3" d="M 44.5,98.5 C 51.1667,98.5 57.8333,98.5 64.5,98.5C 64.5,99.8333 64.5,101.167 64.5,102.5C 57.8333,102.5 51.1667,102.5 44.5,102.5C 44.5,101.167 44.5,99.8333 44.5,98.5 Z"/></g>
<g><path style="opacity:1" fill="#c8a6d7" d="M 25.5,91.5 C 29.97,90.5139 34.6367,90.1805 39.5,90.5C 39.5,95.5 39.5,100.5 39.5,105.5C 34.6367,105.819 29.97,105.486 25.5,104.5C 29.8333,104.5 34.1667,104.5 38.5,104.5C 38.5,100.167 38.5,95.8333 38.5,91.5C 34.1667,91.5 29.8333,91.5 25.5,91.5 Z"/></g>
<g><path style="opacity:1" fill="#8748ac" d="M 44.5,91.5 C 54.5,91.5 64.5,91.5 74.5,91.5C 74.5,92.5 74.5,93.5 74.5,94.5C 64.5,94.5 54.5,94.5 44.5,94.5C 44.5,93.5 44.5,92.5 44.5,91.5 Z"/></g>
<g><path style="opacity:1" fill="#8b46ac" d="M 25.5,91.5 C 29.8333,91.5 34.1667,91.5 38.5,91.5C 38.5,95.8333 38.5,100.167 38.5,104.5C 34.1667,104.5 29.8333,104.5 25.5,104.5C 25.5,100.167 25.5,95.8333 25.5,91.5 Z"/></g>
<g><path style="opacity:1" fill="#d8a4e9" d="M 28.5,94.5 C 30.8333,94.5 33.1667,94.5 35.5,94.5C 35.5,96.8333 35.5,99.1667 35.5,101.5C 33.1667,101.5 30.8333,101.5 28.5,101.5C 28.5,99.1667 28.5,96.8333 28.5,94.5 Z"/></g>
</svg>
