<svg width="377" height="221" viewBox="0 0 377 221" fill="none" xmlns="http://www.w3.org/2000/svg">
<path d="M29.3965 8.13658C31.4875 6.7999 32.0078 4.27694 30.6318 2.15616C29.2354 0.0055457 26.5489 -0.642501 24.5774 0.696563C22.626 2.02369 22.1427 4.61707 23.4627 6.68415C24.8399 8.84312 27.3354 9.45297 29.3965 8.13658Z" fill="#CAC6FD"/>
<path d="M35.6086 23.3715C37.4597 22.2258 38.0898 19.4092 36.9142 17.4961C35.6074 15.3657 33.2742 14.8442 31.1463 16.2071C28.9217 17.2657 28.5015 20.1611 29.7511 22.0801C31.0102 24.0159 34.0845 24.3143 35.6086 23.3715Z" fill="#CAC6FD"/>
<path d="M288.145 119.649C286.084 120.986 285.553 123.298 286.837 125.341C288.042 127.258 290.84 127.899 292.71 126.687C294.574 125.479 295.13 122.656 293.875 120.776C292.535 118.772 290.204 118.314 288.145 119.649Z" fill="#CAC6FD"/>
<path d="M204.92 128.591C206.712 127.351 207.23 124.75 206.048 122.934C204.829 121.058 202.088 120.511 200.259 121.777C198.469 123.017 197.95 125.619 199.131 127.434C200.351 129.31 203.091 129.858 204.92 128.591Z" fill="#CAC6FD"/>
<path d="M241.15 130.804C243.02 129.602 243.603 126.912 242.398 125.037C241.197 123.166 238.507 122.583 236.632 123.789C234.761 124.989 234.179 127.679 235.383 129.555C236.585 131.426 239.275 132.008 241.15 130.804Z" fill="#CAC6FD"/>
<path d="M41.9264 37.919C43.7918 36.821 44.3503 33.8326 43.0041 32.0507C41.5505 30.1292 39.7829 29.6113 37.507 31.0363C35.576 32.2978 34.9304 34.5773 35.8971 36.2421C37.0977 38.308 39.7806 39.1828 41.9264 37.919Z" fill="#CAC6FD"/>
<path d="M277.832 132.745C279.83 131.44 280.241 129.431 278.927 127.387C277.477 125.13 275.454 124.619 273.384 125.986C271.416 127.286 270.993 129.304 272.274 131.291C273.783 133.632 275.701 134.135 277.832 132.745Z" fill="#CAC6FD"/>
<path d="M329.464 128.562C331.291 127.315 331.691 125.085 330.426 123.191C329.125 121.243 326.887 120.669 324.999 121.8C323.055 122.964 322.655 125.521 324.091 127.607C325.349 129.434 327.599 129.834 329.464 128.562Z" fill="#CAC6FD"/>
<path d="M344.038 122.29C345.953 121.056 346.442 118.943 345.255 117.031C343.879 114.815 341.691 114.203 339.675 115.469C337.842 116.622 337.354 118.959 338.549 120.865C339.919 123.051 342.014 123.595 344.038 122.29Z" fill="#CAC6FD"/>
<path d="M70.6978 75.0364C72.0631 77.224 74.1672 77.7802 76.183 76.4888C78.1056 75.2572 78.6057 73.1459 77.4254 71.2364C76.0469 69.0058 73.8927 68.3924 71.8507 69.6479C70.0307 70.7674 69.5199 73.1507 70.6978 75.0364Z" fill="#CAC6FD"/>
<path d="M368.845 108.104C370.171 110.201 372.24 110.764 374.191 109.561C376.225 108.304 376.743 106.169 375.495 104.182C374.119 101.994 371.854 101.392 369.899 102.693C368.057 103.92 367.62 106.166 368.845 108.104Z" fill="#CAC6FD"/>
<path d="M262.821 139.304C264.688 138.076 265.141 135.856 263.913 133.961C262.592 131.921 260.188 131.309 258.353 132.544C256.496 133.795 256.124 136.193 257.477 138.219C258.72 140.086 260.947 140.537 262.821 139.304Z" fill="#CAC6FD"/>
<path d="M226.213 136.931C228.15 135.703 228.673 133.593 227.51 131.689C226.126 129.428 224.046 128.813 221.946 130.047C220.139 131.109 219.587 133.567 220.74 135.426C222.102 137.625 224.205 138.203 226.213 136.931Z" fill="#CAC6FD"/>
<path d="M353.757 114.577C355.12 116.776 357.222 117.354 359.23 116.082C361.169 114.854 361.69 112.744 360.527 110.84C359.145 108.578 357.064 107.964 354.964 109.198C353.156 110.26 352.606 112.717 353.757 114.577Z" fill="#CAC6FD"/>
<path d="M146.739 117.423C148.786 116.178 149.33 114.032 148.102 112.058C146.727 109.849 144.52 109.237 142.519 110.509C140.683 111.676 140.205 113.995 141.405 115.908C142.73 118.018 144.796 118.604 146.739 117.423Z" fill="#CAC6FD"/>
<path d="M168.188 126.035C170.038 124.846 170.558 122.539 169.394 120.687C168.221 118.82 165.919 118.271 164.061 119.415C162.18 120.57 161.601 122.868 162.722 124.734C163.901 126.697 166.277 127.263 168.188 126.035Z" fill="#CAC6FD"/>
<path d="M8.54 12.7066C9.75375 14.6006 12.0882 15.1926 13.919 14.0719C15.7092 12.9751 16.2367 10.4486 15.0611 8.59156C13.9225 6.79302 11.0427 6.01847 9.56523 7.31934C8.09369 8.61544 7.01118 11.0226 8.54 12.7066Z" fill="#CAC6FD"/>
<path d="M104.01 100.195C105.773 99.0902 106.282 96.5386 105.104 94.7042C103.988 92.9666 101.498 92.3352 99.7295 93.3425C98.0192 94.3164 97.4655 97.0828 98.6207 98.8778C99.8249 100.748 102.201 101.329 104.01 100.195Z" fill="#CAC6FD"/>
<path d="M119.95 107.731C121.147 109.576 123.453 110.082 125.305 108.908C127.164 107.727 127.699 105.423 126.547 103.567C125.344 101.629 122.955 101.105 121.06 102.363C119.231 103.576 118.753 105.886 119.95 107.731Z" fill="#CAC6FD"/>
<path d="M43.0301 51.6654C44.2367 53.5046 46.5402 53.9963 48.3912 52.8088C50.2423 51.6213 50.765 49.3143 49.6014 47.4621C48.39 45.5311 46.0007 45.0214 44.1079 46.2901C42.289 47.5086 41.8236 49.8263 43.0301 51.6654Z" fill="#CAC6FD"/>
<path d="M189.724 134.926C191.416 133.763 191.865 131.238 190.687 129.504C189.445 127.674 187.296 127.295 185.4 128.57C183.552 129.811 183.104 132.017 184.331 133.828C185.498 135.551 188.057 136.072 189.724 134.926Z" fill="#CAC6FD"/>
<path d="M314.308 135.188C316.022 134.088 316.538 131.55 315.405 129.793C314.207 127.936 312.048 127.497 310.147 128.725C308.234 129.961 307.742 132.091 308.942 133.955C310.08 135.721 312.581 136.297 314.308 135.188Z" fill="#CAC6FD"/>
<path d="M15.2799 27.9321C16.3946 29.5361 19.0094 30.0552 20.586 28.9847C22.1781 27.9034 22.6793 25.3064 21.6112 23.6738C20.3377 21.7261 18.2993 21.3334 16.3265 22.6534C14.3621 23.9686 13.9551 26.0249 15.2799 27.9321Z" fill="#CAC6FD"/>
<path d="M49.0975 66.3514C50.4007 68.4125 52.9094 69.1036 54.6566 67.8826C56.263 66.7608 56.7547 64.2677 55.6126 62.6052C54.3738 60.7995 52.3819 60.1311 50.4449 61.6158C48.6034 62.82 48.0639 64.7176 49.0975 66.3514Z" fill="#CAC6FD"/>
<path d="M76.9376 90.0699C78.2099 92.0689 80.5347 92.7635 82.3416 91.6846C84.0459 90.6666 84.6223 88.0147 83.4384 86.2961C82.1781 84.4677 80.2327 83.9665 78.4163 85.2113C76.4626 86.5503 75.8564 88.3728 76.9376 90.0699Z" fill="#CAC6FD"/>
<path d="M299.088 141.335C300.709 140.237 301.225 137.754 300.09 136.068C298.877 134.263 296.891 133.553 294.934 135.03C293.019 136.275 292.496 138.237 293.63 139.924C294.936 141.867 297.373 142.497 299.088 141.335Z" fill="#CAC6FD"/>
<path d="M247.536 145.472C249.161 144.387 249.689 141.901 248.56 140.209C247.359 138.406 245.376 137.675 243.408 139.149C241.484 140.397 240.957 142.35 242.086 144.039C243.388 145.985 245.813 146.624 247.536 145.472Z" fill="#CAC6FD"/>
<path d="M211.086 143.423C212.825 142.394 213.405 139.926 212.311 138.203C211.227 136.492 208.738 135.974 207.064 137.109C205.437 138.213 204.947 140.566 205.999 142.225C207.043 143.872 209.391 144.424 211.086 143.423Z" fill="#CAC6FD"/>
<path d="M283.876 147.659C285.724 146.449 286.055 144.675 284.794 142.745C283.518 140.793 281.653 140.341 279.835 141.541C278.054 142.716 277.732 144.641 278.996 146.574C280.25 148.491 282.01 148.883 283.876 147.659Z" fill="#CAC6FD"/>
<path d="M126.692 122.244C128.047 124.379 129.671 124.826 131.602 123.595C133.55 122.354 133.932 120.694 132.711 118.772C131.35 116.63 129.601 116.156 127.679 117.41C125.885 118.581 125.515 120.39 126.692 122.244Z" fill="#CAC6FD"/>
<path d="M21.7452 42.8812C23.0234 44.8313 24.6727 45.2072 26.5703 43.9792C28.536 42.7081 28.8403 41.0397 27.4821 38.975C26.1992 37.0261 24.3779 36.6179 22.5352 37.8675C20.6985 39.1122 20.4228 40.8642 21.7452 42.8812Z" fill="#CAC6FD"/>
<path d="M152.938 132.372C154.695 131.281 155.193 129.125 154.089 127.389C152.979 125.645 150.821 125.177 149.093 126.305C147.428 127.392 146.948 129.464 147.971 131.155C149.041 132.926 151.195 133.453 152.938 132.372Z" fill="#CAC6FD"/>
<path d="M61.0109 82.6862C62.7438 81.5453 63.0982 79.5307 61.8845 77.7178C60.8115 76.115 58.4616 75.5708 56.9662 76.5769C55.4123 77.6224 55.0579 80.0117 56.2024 81.7136C57.3374 83.3999 59.3162 83.7997 61.0109 82.6862Z" fill="#CAC6FD"/>
<path d="M169.752 139.817C170.883 141.446 172.986 141.825 174.646 140.7C176.293 139.583 176.7 137.488 175.595 135.82C174.49 134.15 172.413 133.717 170.729 134.804C168.985 135.932 168.562 138.101 169.752 139.817Z" fill="#CAC6FD"/>
<path d="M110.152 115.119C111.822 114.014 112.255 111.938 111.168 110.254C110.041 108.509 107.872 108.085 106.155 109.276C104.526 110.406 104.147 112.51 105.272 114.171C106.389 115.816 108.484 116.224 110.152 115.119Z" fill="#CAC6FD"/>
<path d="M34.171 54.2006C33.0873 52.3948 30.7636 51.7862 29.1453 52.8842C27.6857 53.8735 27.1677 56.0707 28.0556 57.5124C29.2443 59.4446 31.3699 60.0915 33.0789 59.0424C34.6639 58.0674 35.1639 55.8535 34.171 54.2006Z" fill="#CAC6FD"/>
<path d="M360.364 128.957C361.551 130.874 363.699 131.509 365.397 130.446C366.978 129.455 367.457 127.249 366.449 125.595C365.387 123.854 363.325 123.269 361.575 124.214C360.039 125.043 359.427 127.444 360.364 128.957Z" fill="#CAC6FD"/>
<path d="M350.379 137.001C351.961 136.004 352.429 133.805 351.415 132.148C350.35 130.412 348.275 129.831 346.537 130.785C345.002 131.626 344.401 134.014 345.343 135.531C346.53 137.443 348.684 138.072 350.379 137.001Z" fill="#CAC6FD"/>
<path d="M232.351 151.807C234.011 150.716 234.436 148.574 233.32 146.922C232.212 145.283 230.058 144.885 228.419 146.019C226.855 147.102 226.447 149.164 227.479 150.773C228.552 152.446 230.689 152.901 232.351 151.807Z" fill="#CAC6FD"/>
<path d="M195.738 149.404C197.309 148.441 197.813 146.141 196.804 144.537C195.641 142.69 193.976 142.325 192.095 143.505C190.193 144.698 189.775 146.338 190.905 148.179C191.899 149.8 194.156 150.372 195.738 149.404Z" fill="#CAC6FD"/>
<path d="M268.585 153.923C270.153 152.926 270.62 150.646 269.582 149.043C268.406 147.225 266.723 146.882 264.859 148.078C262.972 149.288 262.58 150.933 263.737 152.769C264.753 154.375 267.02 154.916 268.585 153.923Z" fill="#CAC6FD"/>
<path d="M335.453 143.494C336.98 142.442 337.373 140.147 336.296 138.58C335.071 136.801 333.403 136.517 331.54 137.771C329.698 139.011 329.357 140.682 330.573 142.495C331.63 144.069 333.935 144.54 335.453 143.494Z" fill="#CAC6FD"/>
<path d="M320.092 149.727C321.471 148.882 321.961 146.459 321.085 144.985C320.154 143.418 318.261 142.906 316.764 143.817C314.519 145.186 314.069 146.524 315.224 148.41C315.897 150.381 318.901 150.456 320.092 149.727Z" fill="#CAC6FD"/>
<path d="M68.1703 92.4576C67.0437 90.8142 65.3609 90.5063 63.6268 91.6269C61.6456 92.9063 61.4153 94.2466 62.4608 96.2134C63.3523 97.8914 66.0459 98.0919 67.2716 97.3531C68.7288 96.476 69.1752 93.9243 68.1703 92.4576Z" fill="#CAC6FD"/>
<path d="M40.6643 69.3151C39.7358 67.8424 37.6222 67.3363 36.1041 68.2231C34.5514 69.1301 34.0144 71.3798 34.9835 72.917C35.912 74.3897 38.0256 74.8957 39.5449 74.009C41.0964 73.102 41.6334 70.8523 40.6643 69.3151Z" fill="#CAC6FD"/>
<path d="M83.9833 105.345C84.9798 106.931 87.0851 107.443 88.6915 106.491C90.3015 105.537 90.8719 103.443 89.9649 101.814C89.0173 100.111 86.8273 99.5138 85.1565 100.504C83.4796 101.499 82.9462 103.697 83.9833 105.345Z" fill="#CAC6FD"/>
<path d="M117.538 125.448C116.582 123.927 114.532 123.46 113.005 124.419C111.482 125.376 111.017 127.425 111.975 128.951C112.931 130.474 114.983 130.94 116.508 129.981C118.031 129.025 118.498 126.975 117.538 125.448Z" fill="#CAC6FD"/>
<path d="M6.10023 30.3663C5.13711 28.9473 3.17864 28.5737 1.68204 29.5261C0.058928 30.5585 -0.469813 32.4573 0.450346 33.9539C1.43853 35.5591 3.64287 36.1451 5.18124 35.2094C6.70529 34.2845 7.15286 31.9178 6.10023 30.3663Z" fill="#CAC6FD"/>
<path d="M212.46 157.083C213.483 158.685 215.702 159.222 217.211 158.235C218.66 157.289 219.088 155.094 218.129 153.531C217.225 152.055 215.122 151.639 213.587 152.634C211.983 153.672 211.501 155.579 212.46 157.083Z" fill="#CAC6FD"/>
<path d="M253.79 160.166C255.254 159.261 255.714 157.072 254.779 155.477C253.881 153.951 251.818 153.508 250.253 154.507C248.642 155.536 248.125 157.449 249.054 158.942C250.055 160.552 252.251 161.119 253.79 160.166Z" fill="#CAC6FD"/>
<path d="M133.057 137.456C134.053 139.065 136.252 139.64 137.791 138.694C139.315 137.758 139.753 135.395 138.69 133.846C137.733 132.451 135.747 132.082 134.269 133.025C132.659 134.053 132.134 135.968 133.057 137.456Z" fill="#CAC6FD"/>
<path d="M305.403 155.935C306.841 154.952 307.258 152.977 306.341 151.496C305.384 149.951 303.314 149.482 301.781 150.463C300.252 151.443 299.813 153.523 300.817 155.037C301.822 156.554 303.904 156.962 305.403 155.935Z" fill="#CAC6FD"/>
<path d="M159.379 147.111C160.911 146.138 161.359 144.059 160.361 142.541C159.404 141.085 157.437 140.631 155.938 141.521C154.382 142.445 153.873 144.515 154.823 146.063C155.773 147.608 157.844 148.086 159.379 147.111Z" fill="#CAC6FD"/>
<path d="M95.8621 116.516C94.7259 114.733 93.0491 114.255 91.4415 115.255C89.8052 116.273 89.4865 118.018 90.6155 119.77C91.7267 121.493 93.3283 121.861 94.9836 120.772C96.5554 119.74 96.8884 118.127 95.8621 116.516Z" fill="#CAC6FD"/>
<path d="M176.21 154.563C177.319 156.293 178.922 156.677 180.57 155.604C182.152 154.573 182.501 152.96 181.486 151.356C180.348 149.555 178.69 149.067 177.073 150.057C175.438 151.058 175.099 152.829 176.21 154.563Z" fill="#CAC6FD"/>
<path d="M12.6301 45.8083C11.4378 43.8856 9.75263 43.407 8.07701 44.5158C6.55893 45.5207 6.24145 47.2571 7.27737 48.897C8.3849 50.6525 9.98412 51.0726 11.6168 50.0355C13.2256 49.0151 13.6135 47.3944 12.6301 45.8083Z" fill="#CAC6FD"/>
<path d="M46.4188 84.3105C45.3256 82.481 43.8791 82.2041 41.985 83.1576C40.3965 83.9573 40.1137 85.9014 41.1174 87.4816C42.2249 89.2228 43.971 89.6596 45.5667 88.5974C47.0406 87.6164 47.3652 85.8931 46.4188 84.3105Z" fill="#CAC6FD"/>
<path d="M290.22 162.365C291.703 161.389 292.056 159.658 291.094 158.085C290.045 156.373 288.223 155.873 286.652 156.869C285.151 157.819 284.782 159.654 285.776 161.222C286.88 162.961 288.628 163.411 290.22 162.365Z" fill="#CAC6FD"/>
<path d="M238.624 166.536C240.119 165.601 240.511 163.755 239.544 162.188C238.604 160.66 236.625 160.121 235.147 160.988C233.835 161.76 233.369 163.902 234.209 165.298C235.225 166.986 237.075 167.503 238.624 166.536Z" fill="#CAC6FD"/>
<path d="M74.2394 108C73.2989 106.477 71.3071 105.939 69.8403 106.812C68.5549 107.577 68.0859 109.754 68.913 111.123C69.9298 112.808 71.782 113.323 73.33 112.35C74.823 111.412 75.2085 109.568 74.2394 108Z" fill="#CAC6FD"/>
<path d="M270.702 167.688C271.642 169.091 273.545 169.508 274.941 168.615C276.334 167.724 276.751 165.815 275.868 164.376C274.898 162.792 273.219 162.424 271.628 163.447C270.018 164.483 269.658 166.131 270.702 167.688Z" fill="#CAC6FD"/>
<path d="M18.5486 60.5861C17.5211 59.025 15.8633 58.7219 14.2772 59.802C12.7651 60.832 12.4285 62.393 13.3905 63.9123C14.3357 65.4065 16.3479 65.8409 17.7657 64.8563C19.1263 63.9099 19.4772 61.9968 18.5486 60.5861Z" fill="#CAC6FD"/>
<path d="M144.882 148.937C144.026 147.64 142.09 147.224 140.775 148.056C139.403 148.924 138.992 150.995 139.933 152.308C140.84 153.576 142.796 153.931 144.067 153.057C145.349 152.176 145.734 150.229 144.882 148.937Z" fill="#CAC6FD"/>
<path d="M203.084 159.842C202.155 158.364 200.15 157.957 198.717 158.956C197.346 159.913 196.992 161.819 197.926 163.204C198.861 164.59 200.759 164.975 202.161 164.062C203.561 163.15 203.975 161.258 203.084 159.842Z" fill="#CAC6FD"/>
<path d="M356.807 151.594C358.026 150.732 358.392 148.62 357.547 147.32C356.637 145.92 354.952 145.585 353.5 146.517C351.894 147.55 351.456 149.05 352.361 150.426C353.382 151.978 355.483 152.53 356.807 151.594Z" fill="#CAC6FD"/>
<path d="M341.514 157.869C342.753 157.051 343.164 154.946 342.344 153.615C341.45 152.164 339.672 151.829 338.155 152.826C336.665 153.805 336.25 155.285 337.093 156.608C338.099 158.187 340.148 158.772 341.514 157.869Z" fill="#CAC6FD"/>
<path d="M123.571 140.133C122.666 138.734 120.971 138.394 119.524 139.323C117.917 140.355 117.478 141.854 118.38 143.229C119.4 144.785 121.496 145.339 122.824 144.404C124.045 143.546 124.414 141.436 123.571 140.133Z" fill="#CAC6FD"/>
<path d="M166.548 157.611C165.576 156.362 164.457 155.575 162.518 156.9C161.121 157.825 160.644 159.345 161.382 160.537C162.378 162.149 164.422 162.75 165.804 161.84C167.088 160.992 167.543 158.886 166.548 157.611Z" fill="#CAC6FD"/>
<path d="M101.876 131.66C100.562 129.988 99.3443 129.942 97.8345 130.986C96.443 131.912 95.9799 133.438 96.7294 134.628C97.7474 136.24 99.787 136.826 101.158 135.899C102.429 135.04 102.866 132.92 101.876 131.66Z" fill="#CAC6FD"/>
<path d="M52.7754 99.2829C51.4626 97.6073 50.2429 97.5631 48.7343 98.6026C47.3416 99.5287 46.8761 101.054 47.6244 102.245C48.6389 103.857 50.6797 104.446 52.0533 103.521C53.3244 102.664 53.7648 100.544 52.7754 99.2829Z" fill="#CAC6FD"/>
<path d="M326.357 164.379C327.717 163.539 328.138 161.676 327.273 160.328C326.45 159.043 324.699 158.616 323.371 159.375C321.985 160.165 321.5 162.017 322.319 163.396C323.134 164.767 324.992 165.221 326.357 164.379Z" fill="#CAC6FD"/>
<path d="M259.672 174.894C261.307 173.853 261.546 172.704 260.471 171.048C259.323 169.278 258.142 168.969 256.549 170.024C254.992 171.053 254.817 172.285 255.976 174.041C257.007 175.603 258.145 175.866 259.672 174.894Z" fill="#CAC6FD"/>
<path d="M219.343 171.413C220.44 173.149 221.565 173.465 223.133 172.478C224.785 171.438 225.042 170.284 223.984 168.643C222.854 166.886 221.638 166.552 220.073 167.567C218.542 168.557 218.311 169.777 219.343 171.413Z" fill="#CAC6FD"/>
<path d="M24.8488 75.8829C23.7078 74.0927 22.5299 73.7454 20.9521 74.7372C19.3171 75.7636 19.1083 76.9594 20.2576 78.7293C21.3412 80.4002 22.4798 80.6591 24.0897 79.5982C25.6066 78.5992 25.8429 77.4428 24.8488 75.8829Z" fill="#CAC6FD"/>
<path d="M80.4881 123.258C79.5429 121.728 77.8697 121.285 76.5258 122.207C75.3694 123.003 75.0399 124.72 75.8085 125.962C76.8134 127.589 78.1274 127.985 79.6014 127.105C81.1183 126.199 81.4405 124.8 80.4881 123.258Z" fill="#CAC6FD"/>
<path d="M311.278 170.719C312.738 169.761 312.973 168.392 311.946 166.824C311.036 165.434 309.392 165.034 308.1 165.889C306.853 166.712 306.559 168.45 307.438 169.794C308.463 171.359 309.807 171.684 311.278 170.719Z" fill="#CAC6FD"/>
<path d="M187.585 166.376C186.703 165.047 184.955 164.645 183.728 165.488C182.498 166.336 182.229 168.066 183.115 169.404C184.145 170.957 185.498 171.265 186.965 170.28C188.406 169.316 188.623 167.941 187.585 166.376Z" fill="#CAC6FD"/>
<path d="M292.395 175.602C293.183 176.973 294.892 177.551 296.162 176.876C297.441 176.196 297.917 174.346 297.15 173.036C296.369 171.699 294.459 171.149 293.226 171.904C292.18 172.546 291.747 174.474 292.395 175.602Z" fill="#CAC6FD"/>
<path d="M31.0458 91.0553C30.276 89.8117 28.5145 89.3009 27.2542 89.9537C26.1598 90.5206 25.6872 92.6235 26.3913 93.7895C27.2017 95.131 28.9477 95.6537 30.1949 94.9281C31.4504 94.1965 31.8538 92.3598 31.0458 91.0553Z" fill="#CAC6FD"/>
<path d="M245.517 177.016C244.728 175.795 242.891 175.317 241.701 176.025C240.59 176.686 240.196 178.695 240.945 179.888C241.773 181.21 243.545 181.684 244.777 180.913C246.011 180.14 246.357 178.317 245.517 177.016Z" fill="#CAC6FD"/>
<path d="M208.779 175.011C207.891 173.718 206.699 173.546 205.243 174.501C203.683 175.524 203.439 176.614 204.435 178.098C205.246 179.306 207.101 179.709 208.23 178.921C209.394 178.108 209.651 176.281 208.779 175.011Z" fill="#CAC6FD"/>
<path d="M129.418 155.447C128.535 154.145 127.341 153.965 125.885 154.915C124.315 155.941 124.064 157.026 125.055 158.507C125.868 159.721 127.709 160.132 128.845 159.353C130.016 158.551 130.283 156.724 129.418 155.447Z" fill="#CAC6FD"/>
<path d="M108.311 147.068C107.6 145.932 105.939 145.519 104.76 146.188C103.535 146.882 103.095 148.66 103.851 149.871C104.602 151.071 106.393 151.446 107.561 150.648C108.68 149.881 109.028 148.217 108.311 147.068Z" fill="#CAC6FD"/>
<path d="M150.982 163.976C150.012 162.649 148.821 162.604 147.52 163.425C146.171 164.277 145.861 165.724 146.72 166.981C147.548 168.192 149.326 168.556 150.449 167.746C151.592 166.921 151.845 165.156 150.982 163.976Z" fill="#CAC6FD"/>
<path d="M58.9096 114.856C58.1386 113.65 56.4201 113.272 55.2123 114.046C54.0069 114.817 53.6297 116.535 54.4031 117.743C55.174 118.95 56.8926 119.326 58.1004 118.554C59.3058 117.781 59.683 116.064 58.9096 114.856Z" fill="#CAC6FD"/>
<path d="M281.343 183.202C282.492 182.386 282.757 180.618 281.897 179.435C280.935 178.112 279.744 178.047 278.437 178.866C277.089 179.711 276.768 181.16 277.618 182.418C278.439 183.633 280.212 184.006 281.343 183.202Z" fill="#CAC6FD"/>
<path d="M86.4991 138.514C85.6482 137.4 84.5693 136.728 83.1121 137.883C81.6871 138.794 81.4007 139.924 82.3137 141.306C83.1384 142.554 84.7304 142.888 85.9167 142.064C87.0792 141.256 87.4014 139.698 86.4991 138.514Z" fill="#CAC6FD"/>
<path d="M37.4111 106.16C36.5757 105.029 35.504 104.357 34.0014 105.509C32.6146 106.393 32.3091 107.54 33.1958 108.901C34.0181 110.162 35.5923 110.513 36.7893 109.701C37.9661 108.903 38.3026 107.365 37.4111 106.16Z" fill="#CAC6FD"/>
<path d="M172.248 172.844C171.423 171.712 170.36 171.018 168.714 172.24C167.439 173.046 167.127 174.178 168.009 175.542C168.828 176.814 170.386 177.175 171.592 176.377C172.77 175.596 173.125 174.048 172.248 172.844Z" fill="#CAC6FD"/>
<path d="M230.195 183.831C229.365 182.551 227.891 182.065 226.854 182.964C225.886 183.802 225.192 184.901 226.226 186.224C227.087 187.591 228.372 187.953 229.583 187.111C230.838 186.237 231.039 185.132 230.195 183.831Z" fill="#CAC6FD"/>
<path d="M266.777 186.355C266.001 184.826 264.636 184.695 263.485 185.366C262.465 185.963 261.728 187.164 262.653 188.533C263.449 189.91 264.793 190.377 265.981 189.619C267.256 188.805 267.468 187.716 266.777 186.355Z" fill="#CAC6FD"/>
<path d="M193.93 181.747C193.115 180.244 191.764 180.14 190.618 180.853C189.589 181.494 188.917 182.708 189.885 184.048C190.706 185.417 192.044 185.838 193.235 185.033C194.494 184.181 194.654 183.08 193.93 181.747Z" fill="#CAC6FD"/>
<path d="M65.1866 130.035C64.4013 128.851 63.2699 128.57 62.0501 129.29C60.754 130.057 60.4271 131.236 61.2088 132.539C61.9929 133.849 63.16 134.018 64.6017 133.302C65.6078 132.422 66.0495 131.332 65.1866 130.035Z" fill="#CAC6FD"/>
<path d="M114.499 162.22C113.763 161.138 112.599 160.887 111.487 161.569C110.289 162.302 110.005 163.507 110.743 164.695C111.49 165.899 112.658 166.009 113.911 165.422C114.949 164.499 115.298 163.391 114.499 162.22Z" fill="#CAC6FD"/>
<path d="M135.805 170.923C134.956 169.779 133.959 169.511 132.794 170.215C131.582 170.947 131.156 172.008 131.945 173.254C132.698 174.444 133.914 174.783 135.092 174.052C136.283 173.313 136.375 172.102 135.805 170.923Z" fill="#CAC6FD"/>
<path d="M215.038 190.349C214.188 189.144 213.046 189.139 211.905 189.964C210.795 190.765 210.681 191.792 211.422 193.056C212.274 193.967 213.417 194.391 214.562 193.563C215.679 192.755 215.853 191.507 215.038 190.349Z" fill="#CAC6FD"/>
<path d="M157.041 179.543C156.076 178.313 155.001 178.213 153.839 179.035C152.728 179.819 152.495 180.882 153.257 181.991C154.051 183.148 155.27 183.464 156.424 182.685C157.581 181.905 157.651 180.693 157.041 179.543Z" fill="#CAC6FD"/>
<path d="M43.8097 121.349C42.8442 120.117 41.7702 120.019 40.6077 120.839C39.4978 121.623 39.265 122.688 40.0253 123.795C40.8201 124.953 42.0399 125.269 43.194 124.491C44.3504 123.71 44.4196 122.498 43.8097 121.349Z" fill="#CAC6FD"/>
<path d="M251.409 192.568C250.708 191.422 249.638 191.198 248.472 191.897C247.258 192.623 246.897 193.644 247.63 195.024C248.435 196.055 249.571 196.482 250.754 195.744C251.936 195.008 252.143 193.764 251.409 192.568Z" fill="#CAC6FD"/>
<path d="M92.8109 153.633C91.9635 152.428 90.8202 152.421 89.678 153.244C88.5681 154.045 88.4499 155.072 89.1565 156.276C90.0361 157.278 91.1913 157.664 92.3311 156.846C93.4506 156.043 93.6236 154.791 92.8109 153.633Z" fill="#CAC6FD"/>
<path d="M15.9374 97.5805C14.9624 96.3942 13.8847 96.331 12.7414 97.1616C11.635 97.9648 11.4417 99.039 12.2174 100.127C13.0314 101.268 14.2607 101.567 15.3968 100.76C16.5294 99.9579 16.595 98.7454 15.9374 97.5805Z" fill="#CAC6FD"/>
<path d="M71.2723 144.735C70.6958 143.853 69.7792 143.152 68.4056 144.17C67.4556 144.613 66.7657 145.478 67.4341 146.724C68.1036 147.971 69.3568 148.562 70.6278 147.861C71.8189 147.204 72.0098 145.859 71.2723 144.735Z" fill="#CAC6FD"/>
<path d="M178.424 188.268C177.689 186.97 176.647 186.666 175.521 187.43C174.645 188.023 174.049 188.997 174.957 190.053C175.644 191.273 176.485 191.785 177.773 190.976C178.891 190.272 179.093 189.448 178.424 188.268Z" fill="#CAC6FD"/>
<path d="M287.533 194.978C286.926 193.705 285.779 193.774 284.8 194.434C283.784 195.12 283.536 196.134 284.405 197.3C285.187 198.353 285.97 198.669 287.12 197.939C288.37 197.143 288.41 196.187 287.533 194.978Z" fill="#CAC6FD"/>
<path d="M235.868 198.856C235.412 198.009 234.261 197.928 233.263 198.567C232.295 199.186 232.118 200.248 232.825 201.331C233.538 202.425 234.423 202.782 235.575 202.057C236.725 201.333 236.808 200.366 235.868 198.856Z" fill="#CAC6FD"/>
<path d="M21.7063 112.686C21.0188 111.527 19.9507 111.369 19.0055 111.914C17.9397 112.527 17.6556 113.63 18.4374 114.79C19.1367 115.869 20.0402 116.231 21.1883 115.486C22.3209 114.749 22.3806 113.818 21.7063 112.686Z" fill="#CAC6FD"/>
<path d="M49.5013 136.343C48.7852 135.269 47.7552 134.983 46.7909 135.643C45.8123 136.312 45.4614 137.362 46.2909 138.541C47.063 139.638 47.9486 139.842 49.1074 139.168C50.135 138.362 50.2352 137.442 49.5013 136.343Z" fill="#CAC6FD"/>
<path d="M199.669 196.979C199.038 195.963 198.051 195.738 197.033 196.364C196.001 196.998 195.89 197.957 196.381 199.022C197.122 199.94 198.034 200.261 199.057 199.616C200.069 198.978 200.3 197.993 199.669 196.979Z" fill="#CAC6FD"/>
<path d="M272.74 201.231C272.118 200.108 271.199 200.164 270.212 200.636C269.294 201.308 268.726 202.062 269.444 203.17C270.134 204.236 271.162 204.555 272.205 203.895C273.169 203.285 273.305 202.253 272.74 201.231Z" fill="#CAC6FD"/>
<path d="M120.299 177.424C119.594 176.485 118.74 176.557 117.848 177.126C116.855 177.759 116.565 178.589 117.319 179.879C117.972 180.552 118.961 181.034 119.978 180.263C120.935 179.537 121.079 178.465 120.299 177.424Z" fill="#CAC6FD"/>
<path d="M98.8274 168.435C98.1281 167.487 97.2759 167.551 96.3784 168.121C95.3867 168.75 95.0847 169.574 95.765 170.759C96.4644 171.611 97.4776 172.012 98.4873 171.27C99.4564 170.559 99.5972 169.48 98.8274 168.435Z" fill="#CAC6FD"/>
<path d="M77.2131 160.067C76.5233 159.057 75.6651 159.149 74.6185 159.867C73.7628 160.376 73.5551 161.219 74.2091 162.165C74.8774 163.134 75.9074 163.423 76.849 162.755C77.7728 162.098 77.891 161.06 77.2131 160.067Z" fill="#CAC6FD"/>
<path d="M163.139 194.662C162.441 193.65 161.584 193.762 160.518 194.49C159.68 194.989 159.493 195.837 160.148 196.777C160.82 197.741 161.852 198.028 162.789 197.351C163.706 196.69 163.824 195.654 163.139 194.662Z" fill="#CAC6FD"/>
<path d="M142.003 186.156C141.372 185.26 140.379 185.042 139.471 185.654C138.487 186.318 138.289 187.37 139.006 188.325C139.656 189.191 140.616 189.258 141.622 188.716C142.328 187.967 142.648 187.072 142.003 186.156Z" fill="#CAC6FD"/>
<path d="M28.2118 128.003C27.7045 127.119 26.8059 126.862 25.9036 127.349C24.9178 127.882 24.7293 128.776 25.2043 129.821C25.8022 130.615 26.6173 130.927 27.5207 130.438C28.5077 129.904 28.7643 128.967 28.2118 128.003Z" fill="#CAC6FD"/>
<path d="M220.877 205.544C220.397 204.549 219.592 204.232 218.617 204.837C217.634 205.446 217.642 206.27 218.265 207.225C218.864 208.145 219.46 208.441 220.465 207.786C221.427 207.159 221.623 206.488 220.877 205.544Z" fill="#CAC6FD"/>
<path d="M257.369 207.9C256.733 206.91 255.968 206.665 255.023 207.334C254.032 208.035 254.242 208.853 254.841 209.764C255.493 210.755 256.186 210.831 257.037 210.154C258.148 209.523 257.937 208.784 257.369 207.9Z" fill="#CAC6FD"/>
<path d="M184.184 203.51C183.635 202.686 182.881 202.435 182.064 202.906C181.148 203.434 181.02 204.274 181.578 205.189C182.139 206.107 182.94 206.41 183.84 205.828C184.738 205.248 184.783 204.408 184.184 203.51Z" fill="#CAC6FD"/>
<path d="M55.8503 151.781C55.3705 150.862 54.5971 150.464 53.6519 150.912C52.6542 151.383 52.6315 152.251 52.9848 153.03C53.6042 154.071 54.3668 154.442 55.3096 153.914C56.163 153.438 56.3026 152.647 55.8503 151.781Z" fill="#CAC6FD"/>
<path d="M126.376 192.387C125.802 191.453 125.148 191.721 124.439 192.142C123.679 192.647 123.162 193.198 123.868 194.149C124.454 194.939 125.22 195.227 126.02 194.719C126.91 194.152 126.939 193.301 126.376 192.387Z" fill="#CAC6FD"/>
<path d="M34.4081 142.858C33.8257 141.919 33.1729 142.211 32.4688 142.624C31.7061 143.133 31.1966 143.686 31.9103 144.635C32.4998 145.42 33.2684 145.706 34.0644 145.192C34.9488 144.621 34.9738 143.771 34.4081 142.858Z" fill="#CAC6FD"/>
<path d="M205.593 211.698C205.197 210.908 204.435 211.32 203.704 211.792C202.99 212.252 202.583 212.808 203.203 213.671C203.828 214.541 204.632 214.841 205.496 214.225C206.271 213.673 206.298 212.832 205.593 211.698Z" fill="#CAC6FD"/>
<path d="M104.865 184.039C104.306 183.012 103.594 183.191 102.417 183.952C101.971 184.207 101.612 184.818 102.304 185.722C102.899 186.5 103.67 186.755 104.469 186.229C105.265 185.705 105.332 184.901 104.865 184.039Z" fill="#CAC6FD"/>
<path d="M83.6332 175.673C83.2274 174.875 82.4625 174.703 81.6867 175.066C80.8477 175.458 80.6902 176.242 81.1353 176.965C81.5674 177.664 82.3228 177.818 83.2311 177.45C83.7216 177.018 83.9877 176.372 83.6332 175.673Z" fill="#CAC6FD"/>
<path d="M147.769 201.501C147.367 200.695 146.605 200.522 145.828 200.877C144.987 201.261 144.823 202.046 145.26 202.772C145.685 203.474 146.442 203.634 147.364 203.267C147.839 202.845 148.12 202.208 147.769 201.501Z" fill="#CAC6FD"/>
<path d="M169.151 210.059C168.68 209.354 168.161 209.127 167.414 209.644C166.625 210.188 166.844 210.775 167.26 211.434C167.72 212.165 168.261 212.353 169.194 211.712C169.758 211.311 169.596 210.724 169.151 210.059Z" fill="#CAC6FD"/>
<path d="M190.485 218.881C190.117 218.293 189.626 218.199 189.042 218.564C188.439 218.94 188.077 219.393 188.565 220.12C188.981 220.714 189.551 220.94 190.185 220.533C190.814 220.128 190.883 219.517 190.485 218.881Z" fill="#CAC6FD"/>
<path d="M111.106 199.288C110.645 198.583 110.089 198.695 109.496 199.102C108.928 199.493 108.816 199.973 109.201 200.551C109.621 201.184 110.181 201.281 110.848 200.975C111.395 200.477 111.52 199.923 111.106 199.288Z" fill="#CAC6FD"/>
<path d="M40.4139 158.442C39.9532 157.737 39.3971 157.849 38.8039 158.256C38.2358 158.647 38.1248 159.128 38.5091 159.705C38.9292 160.338 39.489 160.434 40.1561 160.129C40.7027 159.63 40.828 159.077 40.4139 158.442Z" fill="#CAC6FD"/>
<path d="M62.1629 166.914C61.7595 166.299 61.1556 166.14 60.5159 166.497C59.8022 166.895 59.5826 167.535 60.0051 168.26C60.4204 168.975 61.0554 169.103 61.8072 168.71C62.4469 168.225 62.6212 167.612 62.1629 166.914Z" fill="#CAC6FD"/>
<path d="M132.099 207.633C131.866 207.215 131.386 207.562 130.984 207.817C130.585 208.069 130 208.36 130.407 208.964C130.781 209.518 131.387 209.912 132.038 209.466C132.581 209.094 132.494 208.472 132.099 207.633Z" fill="#CAC6FD"/>
<path d="M89.6175 190.433C89.2201 189.854 88.7092 190.261 88.3202 190.544C87.9359 190.824 87.4119 191.131 87.9406 191.724C88.3727 192.191 88.9109 192.511 89.4623 192.138C90.108 191.701 89.9898 190.977 89.6175 190.433Z" fill="#CAC6FD"/>
<path d="M68.136 182.162C67.84 181.358 67.3221 181.733 66.9234 181.961C66.4699 182.221 65.7801 182.492 66.3458 183.232C66.723 183.724 67.2266 183.948 67.8794 183.707C68.3676 183.272 68.3532 182.752 68.136 182.162Z" fill="#CAC6FD"/>
<path d="M153.845 216.424C153.53 215.655 153.02 216.019 152.623 216.256C152.174 216.525 151.49 216.802 152.081 217.533C152.473 218.02 152.973 218.234 153.609 217.983C154.093 217.531 154.083 217.006 153.845 216.424Z" fill="#CAC6FD"/>
</svg>
