<svg width="1440" height="908" viewBox="0 0 1440 908" fill="none" xmlns="http://www.w3.org/2000/svg">
<path d="M1347.74 79.0765C1322.75 121.906 1242.15 134.931 1214.08 156.898C1188.39 177.01 1174.71 223.522 1176.1 260.585C1177.48 297.659 1205.64 334.523 1242.6 337.617C1258.68 338.958 1274.78 334.206 1290.88 335.303C1342.42 338.822 1371.12 396.63 1416.44 421.419C1468.67 449.993 1535.24 429.784 1583.56 395.018C1614.3 372.909 1641.95 343.578 1651.74 307.007C1661.52 270.443 1648.83 226.146 1615.51 208.183C1585.48 191.997 1539.75 194.373 1528.06 162.333C1519.87 139.93 1535.83 116.509 1539.42 92.9299C1545.03 55.9859 1516.92 19.2112 1481.3 7.91653C1445.68 -3.37146 1413.04 -5.32614 1386.79 21.2779C1374.55 33.6938 1356.51 64.0112 1347.74 79.0765Z" fill="#F1F4FF"/>
<path d="M-67.2639 552.077C-92.2506 594.906 -172.851 607.931 -200.917 629.898C-226.611 650.01 -240.291 696.522 -238.904 733.585C-237.517 770.659 -209.357 807.523 -172.397 810.617C-156.317 811.958 -140.224 807.206 -124.117 808.303C-72.5839 811.822 -43.8773 869.63 1.44275 894.419C53.6694 922.993 120.243 902.784 168.563 868.018C199.296 845.909 226.949 816.578 236.736 780.007C246.523 743.443 233.829 699.146 200.509 681.183C170.483 664.997 124.749 667.373 113.056 635.333C104.869 612.93 120.829 589.509 124.416 565.93C130.029 528.986 101.923 492.211 66.296 480.917C30.6827 469.629 -1.95731 467.674 -28.2106 494.278C-40.4506 506.694 -58.4906 537.011 -67.2639 552.077Z" fill="#F1F4FF"/>
<path d="M1460.3 319.492C1461.76 287.835 1474.12 257.047 1495.26 231.008C1550.52 162.936 1527.56 88.9791 1505.98 66.2418C1480.9 39.8391 1441.54 26.2404 1402.19 25.0871C1362.84 23.9351 1323.51 34.2538 1287.4 49.5164C1259.19 61.4551 1231.95 76.9031 1212.51 98.8538C1193.54 120.3 1183.18 146.542 1173.74 172.366C1161.59 205.576 1150.27 239.628 1150 274.224C1149.78 302.432 1160.56 334.304 1189.66 344.403C1214.46 353.006 1244.47 342.771 1269.08 351.755C1303.55 364.339 1309.84 406.511 1338.58 427.442C1372.08 451.858 1419.3 444.422 1435.76 421.632C1452.95 397.875 1458.68 354.576 1460.3 319.492Z" stroke="#EEF2FF" stroke-width="4" stroke-miterlimit="10"/>
<path d="M13.6972 754.971C-14.4522 740.413 -47.2953 735.723 -80.4121 741.005C-166.998 754.832 -219.567 697.969 -228.464 667.906C-238.79 632.985 -230.886 592.098 -212.212 557.447C-193.536 522.795 -164.933 493.891 -133.662 470.253C-109.216 451.789 -82.218 435.922 -53.4881 430.062C-25.4281 424.354 2.47756 428.503 29.5618 433.24C64.3964 439.326 99.5463 446.548 129.641 463.615C154.183 477.523 176.392 502.8 170.591 533.045C165.641 558.824 141.771 579.699 137.244 605.507C130.909 641.648 164.284 668.184 168.044 703.533C172.436 744.759 142.389 781.929 114.42 784.795C85.2519 787.8 44.8875 771.116 13.6972 754.971Z" stroke="#EEF2FF" stroke-width="4" stroke-miterlimit="10"/>
</svg>
