<svg width="238" height="242" viewBox="0 0 238 242" fill="none" xmlns="http://www.w3.org/2000/svg">
<g id="Group 1000006504">
<g id="Background_Complete">
<g id="Group">
<g id="Group_2">
<g id="Group_3">
<path id="Vector" d="M3.13415 50.2031C3.13415 50.2031 -0.326196 51.6048 3.66489 58.9514C7.65653 66.2979 10.3835 69.9159 10.3835 69.9159C10.3835 69.9159 11.1019 71.6269 9.65402 71.9328C8.20614 72.2392 4.98896 71.8112 4.38716 73.6083C3.7626 75.472 5.14885 77.1791 7.90802 78.637C10.6672 80.0943 16.5947 83.5097 17.1293 83.8206C17.6545 84.1259 18.1936 84.9165 17.2404 85.2834C16.2871 85.6504 9.10107 86.5886 9.75062 89.9723C10.4002 93.3555 18.7537 96.1536 19.6609 96.4767C20.568 96.8003 20.7929 97.1751 20.7324 97.6703C20.6718 98.1655 18.2263 98.2532 16.1939 98.6041C14.1609 98.9549 11.8647 99.7177 12.4032 101.639C12.9417 103.559 17.9487 107.494 29.8815 108.352L35.437 108.388L38.3361 103.62C43.9188 93.0385 43.2277 86.708 41.8819 85.2357C40.5368 83.7628 38.6747 85.3078 37.3018 86.8479C35.9289 88.3879 34.561 90.4165 34.1091 90.2061C33.6572 89.9957 33.4573 89.6065 33.6627 88.6655C33.8681 87.7245 35.9117 79.1555 33.3835 76.8149C30.8558 74.4743 26.2579 80.0771 25.4429 80.6916C24.6279 81.3062 24.2416 80.4307 24.2604 79.8234C24.2793 79.2049 24.5158 72.368 24.7379 69.2558C24.9599 66.1435 24.2443 64.0639 22.3323 63.6081C20.4886 63.1684 19.1507 66.1252 18.1247 67.1922C17.0988 68.2593 16.0273 66.7442 16.0273 66.7442C16.0273 66.7442 14.399 62.5166 10.2747 55.2434C6.15037 47.9702 3.06587 50.2364 3.06587 50.2364" fill="#6EBE4E"/>
</g>
</g>
<g id="Group_4">
<g id="Group_5">
<g id="Group_6">
<path id="Vector_2" d="M35.7644 109.684C32.7565 104.331 27.5701 94.7264 23.075 86.5039C18.5809 78.2841 14.5054 70.8454 11.5247 65.4775C10.0341 62.7994 8.82719 60.6304 7.98833 59.1242C7.57418 58.3786 7.25107 57.7974 7.0279 57.396C6.92241 57.2022 6.84081 57.0523 6.78196 56.9446C6.72755 56.8425 6.70312 56.7881 6.70312 56.7881C6.70312 56.7881 6.73754 56.8369 6.79695 56.9363C6.85913 57.0418 6.94573 57.1895 7.05788 57.3793C7.28771 57.7774 7.62026 58.3531 8.04663 59.092C8.90325 60.5799 10.1279 62.7422 11.6308 65.4192C14.6387 70.7727 18.7319 78.2025 23.2254 86.4223C27.7211 94.6448 32.8897 104.258 35.8704 109.626" fill="#E0E0E0"/>
</g>
</g>
</g>
<g id="Group_7">
<g id="Group_8">
<g id="Group_9">
<path id="Vector_3" d="M8.85165 74.3868C8.85553 74.3757 8.99433 74.4112 9.24137 74.4845C9.48953 74.5572 9.84428 74.6727 10.2823 74.8192C11.1567 75.1146 12.3547 75.5532 13.6672 76.0617C14.9601 76.5675 16.1288 77.0249 17.0231 77.3747C17.4273 77.5296 17.7682 77.6606 18.0419 77.7661C18.2828 77.8577 18.4149 77.9132 18.411 77.9248C18.4072 77.9365 18.2684 77.9021 18.0202 77.8299C17.7726 77.7566 17.4167 77.6411 16.9809 77.4896C16.1093 77.1854 14.9174 76.7312 13.605 76.2233C12.3092 75.7269 11.1378 75.2784 10.2412 74.9347C9.83651 74.7815 9.49453 74.6521 9.21972 74.5483C8.97934 74.455 8.84776 74.3984 8.85165 74.3868Z" fill="#E0E0E0"/>
</g>
</g>
</g>
<g id="Group_10">
<g id="Group_11">
<g id="Group_12">
<path id="Vector_4" d="M18.7753 77.5609C18.7303 77.5459 19.5258 75.0371 20.5523 71.9581C21.5794 68.8781 22.4482 66.3943 22.4938 66.4092C22.5387 66.4242 21.7432 68.9325 20.7161 72.0125C19.6896 75.0915 18.8202 77.5759 18.7753 77.5609Z" fill="#E0E0E0"/>
</g>
</g>
</g>
<g id="Group_13">
<g id="Group_14">
<g id="Group_15">
<path id="Vector_5" d="M25.1023 90.4972C25.0929 90.49 25.1706 90.3661 25.3188 90.1485C25.4887 89.9026 25.7014 89.5961 25.9534 89.2319C26.4875 88.4575 27.2214 87.3844 27.987 86.1708C28.7559 84.9583 29.4132 83.8374 29.8829 83.0219C30.1044 82.6382 30.2909 82.3151 30.4403 82.0564C30.5729 81.8288 30.6518 81.7056 30.6623 81.7111C30.6729 81.7167 30.6146 81.8505 30.4997 82.0881C30.3847 82.3251 30.2121 82.6654 29.99 83.0813C29.547 83.9135 28.9041 85.0477 28.133 86.2635C27.3652 87.4804 26.6135 88.5458 26.0528 89.3036C25.7708 89.6816 25.5392 89.9847 25.3733 90.1891C25.2078 90.3939 25.1123 90.5038 25.1023 90.4972Z" fill="#E0E0E0"/>
</g>
</g>
</g>
<g id="Group_16">
<g id="Group_17">
<g id="Group_18">
<path id="Vector_6" d="M15.4844 89.6051C15.4855 89.5935 15.6204 89.5929 15.8636 89.6018C16.1434 89.6168 16.4876 89.6351 16.8928 89.6568C17.7617 89.7106 18.9603 89.7967 20.2838 89.9027C21.6073 90.0088 22.8053 90.1142 23.6714 90.1992C24.0756 90.2425 24.4176 90.2791 24.6962 90.3085C24.9377 90.3385 25.071 90.3602 25.0704 90.3724C25.0693 90.384 24.9344 90.3846 24.6913 90.3757C24.4114 90.3607 24.0672 90.3424 23.662 90.3207C22.7931 90.2669 21.5945 90.1809 20.2705 90.0748C18.9469 89.9688 17.7495 89.8633 16.8834 89.7783C16.4798 89.735 16.1373 89.6984 15.8586 89.669C15.6165 89.639 15.4833 89.6168 15.4844 89.6051Z" fill="#E0E0E0"/>
</g>
</g>
</g>
<g id="Group_19">
<g id="Group_20">
<g id="Group_21">
<path id="Vector_7" d="M19.6484 101.734C19.6496 101.722 19.8222 101.723 20.1337 101.735C20.4773 101.752 20.9209 101.773 21.4533 101.8C22.5669 101.863 24.1042 101.962 25.8019 102.081C27.4996 102.2 29.0363 102.319 30.1477 102.412C30.6785 102.461 31.1204 102.501 31.4635 102.532C31.7738 102.565 31.9448 102.588 31.9443 102.6C31.9431 102.612 31.7705 102.611 31.459 102.6C31.1154 102.582 30.6718 102.561 30.1394 102.534C29.0257 102.471 27.4879 102.373 25.7902 102.253C24.0931 102.134 22.557 102.016 21.4455 101.922C20.9148 101.873 20.4729 101.833 20.1298 101.802C19.8189 101.769 19.6473 101.746 19.6484 101.734Z" fill="#E0E0E0"/>
</g>
</g>
</g>
<g id="Group_22">
<g id="Group_23">
<g id="Group_24">
<path id="Vector_8" d="M31.6492 102.497C31.6392 102.491 31.7335 102.331 31.9123 102.049C32.1088 101.741 32.3653 101.341 32.6745 100.858C33.3169 99.851 34.199 98.4575 35.1295 96.8914C36.0622 95.3264 36.8694 93.888 37.4462 92.8426C37.7238 92.3407 37.9542 91.9238 38.1302 91.6046C38.2928 91.3131 38.3883 91.1538 38.3989 91.1593C38.4094 91.1649 38.3345 91.3342 38.1901 91.6356C38.0458 91.9371 37.8298 92.3701 37.5539 92.9003C37.0037 93.9618 36.2126 95.4124 35.2777 96.9802C34.3461 98.5486 33.4462 99.9348 32.7767 100.925C32.4408 101.42 32.1649 101.817 31.9684 102.087C31.7718 102.358 31.6586 102.504 31.6492 102.497Z" fill="#E0E0E0"/>
</g>
</g>
</g>
</g>
<g id="Group_25">
<g id="Group_26">
<g id="Group_27">
<g id="Group_28">
<g id="Group_29">
<path id="Vector_9" d="M31.6174 155.574C32.092 155.287 32.5972 155.07 33.1185 154.922L33.4278 153.436L35.9382 153.393L36.2996 154.867C36.8259 154.996 37.3384 155.196 37.823 155.466L39.0916 154.634L40.8981 156.378L40.1114 157.675C40.3984 158.15 40.6161 158.656 40.7637 159.176L42.2494 159.486L42.2932 161.996L40.8192 162.357C40.6893 162.883 40.49 163.396 40.2202 163.88L41.0519 165.149L39.3081 166.955L38.0112 166.169C37.5366 166.456 37.0314 166.673 36.5101 166.821L36.2008 168.307L33.6904 168.35L33.329 166.876C32.8027 166.747 32.2902 166.547 31.8061 166.277L30.5376 167.109L28.7311 165.365L29.5177 164.068C29.2307 163.594 29.0131 163.089 28.8654 162.567L27.3798 162.258L27.3359 159.748L28.8099 159.386C28.9393 158.86 29.1391 158.347 29.4089 157.863L28.5773 156.595L30.3211 154.789L31.6174 155.574ZM32.9559 158.918C31.9227 159.989 31.9527 161.693 33.0231 162.727C34.0934 163.76 35.7983 163.73 36.8315 162.659C37.8647 161.589 37.8347 159.884 36.7643 158.851C35.694 157.818 33.989 157.848 32.9559 158.918Z" fill="#F5F5F5"/>
</g>
</g>
</g>
<g id="Group_30">
<g id="Group_31">
<g id="Group_32">
<g id="Group_33">
<path id="Vector_10" d="M32.9523 158.918C32.9523 158.918 33.0933 158.72 33.4536 158.478C33.8078 158.242 34.4262 157.98 35.2107 158.062C35.5971 158.106 36.0195 158.232 36.4048 158.487C36.7862 158.741 37.146 159.104 37.3708 159.575C37.4891 159.806 37.5712 160.063 37.6156 160.331C37.6639 160.598 37.6706 160.88 37.6306 161.16C37.5624 161.722 37.2964 162.277 36.8828 162.713C36.462 163.141 35.9168 163.426 35.3572 163.515C35.0785 163.565 34.7971 163.568 34.5278 163.529C34.258 163.494 33.9987 163.42 33.7634 163.31C33.2848 163.102 32.9101 162.755 32.6419 162.383C32.3738 162.007 32.2328 161.589 32.1761 161.205C32.0657 160.424 32.3066 159.796 32.5298 159.434C32.7585 159.066 32.9523 158.918 32.9523 158.918C32.9667 158.93 32.7896 159.095 32.582 159.464C32.3793 159.828 32.1645 160.441 32.2844 161.189C32.346 161.557 32.4865 161.954 32.7468 162.309C33.0067 162.661 33.367 162.987 33.8222 163.181C34.0459 163.283 34.2924 163.351 34.5478 163.383C34.8026 163.418 35.0691 163.414 35.3323 163.365C35.8619 163.28 36.3743 163.01 36.7724 162.605C37.1626 162.193 37.4147 161.671 37.4813 161.139C37.5207 160.874 37.5152 160.608 37.4708 160.355C37.4302 160.1 37.3542 159.857 37.2431 159.637C37.0338 159.189 36.6946 158.841 36.3349 158.593C35.9707 158.346 35.5688 158.219 35.1985 158.171C34.4468 158.077 33.8416 158.313 33.4858 158.529C33.1232 158.75 32.965 158.932 32.9523 158.918Z" fill="#F5F5F5"/>
</g>
</g>
</g>
</g>
<g id="Group_34">
<g id="Group_35">
<g id="Group_36">
<g id="Group_37">
<path id="Vector_11" d="M31.6093 155.576C31.6093 155.578 31.581 155.563 31.5255 155.532C31.4644 155.497 31.3828 155.449 31.2767 155.388C31.0497 155.254 30.7232 155.061 30.2991 154.811L30.3296 154.807C29.886 155.272 29.302 155.883 28.5964 156.623L28.6008 156.574C28.8545 156.958 29.136 157.384 29.4375 157.84L29.4525 157.862L29.4391 157.887C29.1926 158.333 28.9856 158.842 28.8496 159.4L28.8423 159.429L28.8124 159.437C28.3532 159.551 27.8564 159.674 27.3395 159.802L27.3811 159.748C27.3967 160.538 27.4133 161.377 27.4311 162.258L27.3828 162.199C27.843 162.294 28.3499 162.399 28.869 162.506L28.9067 162.513L28.9173 162.551C29.0555 163.035 29.2709 163.55 29.5652 164.035L29.5863 164.069L29.5652 164.104C29.322 164.506 29.0539 164.95 28.7807 165.402L28.7696 165.316C29.3375 165.864 29.9499 166.453 30.5778 167.058L30.4884 167.05C30.8831 166.79 31.3173 166.506 31.7564 166.217L31.7936 166.193L31.8325 166.214C32.2755 166.461 32.7923 166.672 33.3375 166.805L33.3814 166.815L33.3925 166.859C33.5057 167.321 33.6295 167.824 33.755 168.333L33.6801 168.276C34.475 168.261 35.3267 168.246 36.1905 168.231L36.1167 168.292C36.2144 167.822 36.3193 167.316 36.4253 166.806L36.4348 166.76L36.4798 166.747C36.9738 166.607 37.4863 166.391 37.9609 166.104L37.962 166.103L38.0026 166.079L38.042 166.103C38.4778 166.367 38.9103 166.629 39.3389 166.89L39.2434 166.902C39.833 166.292 40.4142 165.69 40.9877 165.096L40.9788 165.191C40.699 164.764 40.422 164.34 40.1477 163.922L40.1228 163.884L40.145 163.844C40.4114 163.366 40.6096 162.858 40.7379 162.34L40.749 162.296L40.7928 162.285C41.2914 162.163 41.7821 162.043 42.2668 161.925L42.2107 161.998C42.1968 161.141 42.183 160.304 42.1691 159.487L42.2257 159.556C41.7216 159.45 41.227 159.346 40.7406 159.245L40.6996 159.236L40.6885 159.195C40.538 158.663 40.3187 158.163 40.0456 157.71L40.0245 157.675L40.0456 157.64C40.3159 157.196 40.578 156.765 40.8339 156.344L40.8445 156.424C40.2105 155.809 39.6114 155.229 39.0418 154.676L39.1151 154.683C38.6682 154.975 38.2491 155.248 37.8443 155.512L37.816 155.53L37.7872 155.514C37.2814 155.231 36.7745 155.04 36.2788 154.915L36.2488 154.908L36.2416 154.878C36.1122 154.342 35.9956 153.86 35.8852 153.403L35.9301 153.438C34.9575 153.451 34.1292 153.462 33.4197 153.471L33.453 153.443C33.3259 154.036 33.2215 154.522 33.1343 154.927L33.131 154.942L33.1166 154.946C32.5853 155.094 32.2116 155.267 31.9685 155.387C31.8524 155.448 31.7636 155.494 31.6987 155.528C31.6382 155.564 31.6093 155.578 31.6093 155.576C31.6093 155.574 31.6381 155.554 31.6931 155.519C31.7503 155.483 31.8375 155.431 31.9579 155.366C32.1983 155.239 32.5708 155.056 33.1038 154.899L33.0866 154.918C33.1682 154.512 33.2665 154.025 33.3864 153.43L33.3919 153.404L33.4197 153.403C34.1286 153.388 34.9575 153.369 35.9296 153.348L35.9657 153.348L35.9746 153.383C36.0878 153.838 36.2077 154.321 36.341 154.855L36.3038 154.818C36.8084 154.942 37.3253 155.133 37.8416 155.418L37.7844 155.421C38.1874 155.155 38.6055 154.879 39.0513 154.586L39.0907 154.56L39.1251 154.592C39.6975 155.143 40.2982 155.72 40.935 156.333L40.9716 156.368L40.9449 156.412C40.6901 156.834 40.4298 157.265 40.1611 157.711V157.641C40.4414 158.104 40.6674 158.615 40.8228 159.159L40.7706 159.11C41.257 159.21 41.7527 159.313 42.2568 159.417L42.3123 159.429L42.3134 159.486C42.3284 160.302 42.344 161.139 42.3601 161.996L42.3612 162.055L42.304 162.069C41.8193 162.188 41.3286 162.309 40.8306 162.431L40.8855 162.377C40.7551 162.908 40.5524 163.429 40.2799 163.919L40.2771 163.841C40.5519 164.259 40.8289 164.682 41.1093 165.109L41.1426 165.16L41.1004 165.204C40.5275 165.798 39.9462 166.401 39.3572 167.011L39.3144 167.055L39.2617 167.023C38.8331 166.763 38.4001 166.501 37.9648 166.237H38.0448L38.0431 166.237C37.5562 166.532 37.031 166.754 36.5242 166.897L36.5786 166.839C36.4725 167.349 36.3671 167.855 36.2693 168.324L36.2571 168.384L36.1961 168.385C35.3322 168.4 34.4806 168.415 33.6856 168.428L33.6251 168.429L33.6107 168.37C33.4863 167.862 33.363 167.358 33.2504 166.896L33.3048 166.951C32.7468 166.814 32.2166 166.597 31.7642 166.344L31.8402 166.341C31.4005 166.629 30.9658 166.913 30.5706 167.172L30.5223 167.203L30.4812 167.164C29.855 166.557 29.2437 165.966 28.6769 165.418L28.6375 165.379L28.6658 165.332C28.94 164.881 29.2099 164.438 29.4541 164.036V164.105C29.1549 163.609 28.9362 163.082 28.7974 162.587L28.8457 162.632C28.3266 162.523 27.8203 162.416 27.3606 162.32L27.3129 162.31L27.3123 162.261C27.299 161.38 27.2862 160.541 27.274 159.751L27.2734 159.707L27.3162 159.697C27.8336 159.571 28.3316 159.451 28.7913 159.34L28.7541 159.377C28.8956 158.81 29.1094 158.295 29.3631 157.844L29.3647 157.891C29.0672 157.432 28.789 157.004 28.5381 156.619L28.5209 156.592L28.5425 156.57C29.257 155.838 29.8477 155.234 30.2969 154.774L30.3107 154.759L30.3274 154.77C30.7421 155.028 31.0613 155.227 31.2828 155.365C31.3872 155.431 31.4683 155.482 31.5288 155.521C31.5815 155.554 31.6093 155.574 31.6093 155.576Z" fill="#F5F5F5"/>
</g>
</g>
</g>
</g>
</g>
</g>
</g>
<g id="Background_Simple">
<path id="Vector_12" d="M228.292 80.2779L226.961 78.3154C215.748 61.7737 195.474 51.8018 174.098 53.0121C171.351 53.1675 168.615 53.5006 165.915 54.018C146.481 57.7421 129.57 70.8984 122.561 87.7482C118.439 97.6579 117.287 109.067 109.464 116.933C99.2827 127.169 81.9976 127.491 66.801 127.067C51.6039 126.643 34.3078 127.005 24.176 137.281C17.831 143.717 15.8141 152.87 16.3259 161.49C17.6805 184.311 35.4442 204.717 58.0355 214.859C80.6269 225.001 107.225 225.91 131.95 221.448C166.586 215.198 199.525 198.034 219.323 171.522C239.122 145.011 244.133 108.892 228.292 80.2779Z" fill="#22196E"/>
<path id="Vector_13" d="M25.3178 51.6356C39.3004 51.6356 50.6356 40.3004 50.6356 26.3178C50.6356 12.3352 39.3004 1 25.3178 1C11.3352 1 0 12.3352 0 26.3178C0 40.3004 11.3352 51.6356 25.3178 51.6356Z" fill="#22196E"/>
</g>
<g id="Document">
<g id="Group_38">
<g id="Group_39">
<g id="Group_40">
<path id="Vector_14" d="M190.889 167.038L184.797 198.4L231.326 207.439L237.419 176.077L190.889 167.038Z" fill="#FFB400"/>
</g>
</g>
<g id="Group_41">
<g id="Group_42">
<g id="Group_43">
<g id="Group_44">
<path id="Vector_15" d="M237.48 176.487C237.487 176.499 237.31 176.614 236.966 176.82C236.583 177.042 236.08 177.336 235.45 177.703C234.084 178.477 232.175 179.558 229.832 180.885C225.028 183.558 218.454 187.216 211.172 191.269L211.018 191.355L210.904 191.22C210.817 191.117 210.722 191.007 210.627 190.895C205.181 184.458 200.251 178.633 196.647 174.374C194.897 172.273 193.47 170.561 192.448 169.335C191.981 168.76 191.607 168.3 191.324 167.951C191.07 167.631 190.942 167.459 190.954 167.45C190.965 167.44 191.115 167.593 191.39 167.895C191.688 168.23 192.083 168.673 192.576 169.227C193.623 170.431 195.085 172.113 196.879 174.177C200.508 178.415 205.471 184.211 210.955 190.617C211.05 190.728 211.145 190.839 211.232 190.941L210.964 190.893C218.271 186.884 224.867 183.265 229.686 180.621C232.057 179.344 233.988 178.303 235.37 177.558C236.016 177.219 236.533 176.95 236.925 176.744C237.282 176.563 237.473 176.474 237.48 176.487Z" fill="black"/>
</g>
</g>
</g>
</g>
<g id="Group_45">
<g id="Group_46">
<g id="Group_47">
<path id="Vector_16" d="M184.86 198.813C184.786 198.72 189.12 195.101 194.539 190.73C199.96 186.357 204.414 182.889 204.489 182.981C204.563 183.073 200.231 186.692 194.809 191.065C189.39 195.436 184.935 198.906 184.86 198.813Z" fill="#E0E0E0"/>
</g>
</g>
</g>
<g id="Group_48">
<g id="Group_49">
<g id="Group_50">
<path id="Vector_17" d="M220.035 185.593C220.141 185.539 222.769 190.478 225.904 196.623C229.041 202.771 231.497 207.796 231.392 207.85C231.286 207.904 228.658 202.966 225.521 196.819C222.386 190.674 219.929 185.647 220.035 185.593Z" fill="black"/>
</g>
</g>
</g>
</g>
<g id="Group_51">
<g id="Group_52">
<g id="Vector_18" filter="url(#filter0_d_636_3405)">
<path d="M192.074 6.9283L25.6172 19.2461L41.3396 231.711L207.797 219.394L192.074 6.9283Z" fill="white"/>
</g>
</g>
<g id="Group_53">
<path id="Vector_19" d="M177.378 16.198L132.531 19.5166L132.744 22.3962L177.591 19.0776L177.378 16.198Z" fill="#E0E0E0"/>
</g>
<g id="Group_54">
<g id="Group_55">
<path id="Vector_20" d="M176.833 38.3052C176.834 38.3152 176.739 38.3319 176.559 38.3547C176.345 38.378 176.084 38.4063 175.768 38.4407C175.037 38.5073 174.052 38.5962 172.857 38.705C170.355 38.9126 166.978 39.1935 163.245 39.5039C159.49 39.8125 156.088 40.059 153.624 40.2184C152.426 40.2894 151.439 40.3477 150.706 40.391C150.388 40.4038 150.126 40.4143 149.912 40.4227C149.729 40.4265 149.634 40.4243 149.633 40.4143C149.632 40.4043 149.727 40.3877 149.907 40.3649C150.121 40.3416 150.382 40.3133 150.698 40.2789C151.429 40.2122 152.413 40.1234 153.609 40.0146C156.111 39.807 159.488 39.5261 163.222 39.2157C166.976 38.9071 170.378 38.6606 172.842 38.5012C174.04 38.4302 175.027 38.3719 175.761 38.3286C176.078 38.3158 176.34 38.3052 176.555 38.2964C176.737 38.293 176.833 38.2953 176.833 38.3052Z" fill="#FFD514"/>
</g>
</g>
<g id="Group_56">
<g id="Group_57">
<g id="Group_58">
<path id="Vector_21" d="M179.559 49.1647C179.565 49.2446 169.786 50.033 157.721 50.9262C145.651 51.8195 135.865 52.4796 135.859 52.3996C135.853 52.3202 145.63 51.5313 157.7 50.6381C169.764 49.7448 179.553 49.0853 179.559 49.1647Z" fill="#263238"/>
</g>
</g>
<g id="Group_59">
<g id="Group_60">
<path id="Vector_22" d="M180.293 63.0055C180.299 63.0849 170.52 63.8738 158.455 64.767C146.386 65.6603 136.6 66.3204 136.594 66.2405C136.588 66.1611 146.364 65.3722 158.434 64.4789C170.499 63.5857 180.288 62.9261 180.293 63.0055Z" fill="#263238"/>
</g>
</g>
<g id="Group_61">
<g id="Group_62">
<path id="Vector_23" d="M180.293 56.0836C180.299 56.163 170.52 56.9519 158.455 57.8452C146.386 58.7384 136.6 59.3985 136.594 59.3186C136.588 59.2392 146.364 58.4503 158.434 57.557C170.499 56.6638 180.288 56.0042 180.293 56.0836Z" fill="#263238"/>
</g>
</g>
</g>
<g id="Group_63">
<g id="Group_64">
<g id="Group_65">
<path id="Vector_24" d="M88.5447 152.992C88.5508 153.072 83.4816 153.511 77.2249 153.975C70.9654 154.439 65.8884 154.75 65.8828 154.67C65.8767 154.59 70.9448 154.15 77.2038 153.686C83.4605 153.223 88.5386 152.912 88.5447 152.992Z" fill="#FFD514"/>
</g>
</g>
<g id="Group_66">
<g id="Group_67">
<path id="Vector_25" d="M79.097 166.297C79.1031 166.377 72.3123 166.945 63.931 167.565C55.5469 168.186 48.7483 168.625 48.7422 168.545C48.7361 168.465 55.5258 167.897 63.9093 167.277C72.2907 166.656 79.0909 166.218 79.097 166.297Z" fill="#FFD514"/>
</g>
</g>
<g id="Group_68">
<g id="Group_69">
<path id="Vector_26" d="M134.384 167.421C134.39 167.501 115.307 168.979 91.7673 170.721C68.2188 172.464 49.1311 173.813 49.125 173.733C49.1189 173.654 68.1977 172.176 91.7462 170.433C115.286 168.69 134.378 167.341 134.384 167.421Z" fill="#263238"/>
</g>
</g>
<g id="Group_70">
<g id="Group_71">
<path id="Vector_27" d="M80.0345 179.201C80.0406 179.28 73.2498 179.848 64.8685 180.469C56.4844 181.089 49.6858 181.528 49.6797 181.448C49.6736 181.369 56.4633 180.801 64.8468 180.18C73.2282 179.56 80.0289 179.121 80.0345 179.201Z" fill="#FFD514"/>
</g>
</g>
<g id="Group_72">
<g id="Group_73">
<path id="Vector_28" d="M135.329 180.326C135.335 180.405 116.253 181.883 92.7126 183.626C69.1641 185.369 50.0764 186.717 50.0703 186.637C50.0642 186.558 69.143 185.08 92.6915 183.337C116.231 181.594 135.324 180.246 135.329 180.326Z" fill="#263238"/>
</g>
</g>
<g id="Group_74">
<g id="Group_75">
<path id="Vector_29" d="M80.9954 192.103C81.0015 192.182 74.2102 192.75 65.8294 193.371C57.4459 193.992 50.6467 194.43 50.6406 194.35C50.6345 194.271 57.4242 193.703 65.8078 193.082C74.1891 192.462 80.9893 192.024 80.9954 192.103Z" fill="#FFD514"/>
</g>
</g>
<g id="Group_76">
<g id="Group_77">
<path id="Vector_30" d="M136.29 193.228C136.296 193.308 117.214 194.785 93.6735 196.528C70.1251 198.271 51.0374 199.62 51.0313 199.54C51.0251 199.46 70.104 197.983 93.6524 196.239C117.192 194.497 136.284 193.148 136.29 193.228Z" fill="#263238"/>
</g>
</g>
<g id="Group_78">
<g id="Group_79">
<path id="Vector_31" d="M83.1126 205.166C83.1187 205.245 76.3279 205.813 67.9466 206.433C59.5625 207.054 52.7639 207.492 52.7578 207.412C52.7517 207.333 59.5414 206.765 67.9249 206.144C76.3063 205.524 83.1071 205.086 83.1126 205.166Z" fill="#FFD514"/>
</g>
</g>
<g id="Group_80">
<g id="Group_81">
<path id="Vector_32" d="M138.4 206.288C138.406 206.368 119.323 207.846 95.7829 209.588C72.2344 211.332 53.1467 212.68 53.1406 212.6C53.1345 212.521 72.2133 211.043 95.7618 209.3C119.302 207.558 138.394 206.209 138.4 206.288Z" fill="#263238"/>
</g>
</g>
<g id="Group_82">
<g id="Group_83">
<path id="Vector_33" d="M60.2136 150.428L49.8047 151.198L50.2941 157.812L60.703 157.042L60.2136 150.428Z" fill="#C8C8C8"/>
</g>
<g id="Group_84">
<path id="Vector_34" d="M57.5937 157.273L53.4141 157.582L53.5673 159.652L57.7469 159.343L57.5937 157.273Z" fill="#C8C8C8"/>
</g>
</g>
<g id="Group_85">
<g id="Group_86">
<path id="Vector_35" d="M59.3165 159.146C59.3238 159.225 57.7632 159.431 55.8318 159.604C53.8992 159.777 52.3276 159.853 52.3203 159.774C52.3131 159.694 53.8731 159.489 55.8057 159.316C57.7376 159.142 59.3093 159.066 59.3165 159.146Z" fill="#C8C8C8"/>
</g>
</g>
</g>
<g id="Group_87">
<g id="Group_88">
<g id="Group_89">
<path id="Vector_36" d="M144.289 142.911L150.797 139.345L157.202 141.775L151.203 145.55L144.289 142.911Z" fill="#C8C8C8"/>
</g>
<g id="Group_90">
<path id="Vector_37" d="M145.844 144.403L146.108 148.459L156.132 147.577L155.788 143.667L151.157 146.467L145.844 144.403Z" fill="#C8C8C8"/>
</g>
</g>
<g id="Group_91">
<g id="Group_92">
<path id="Vector_38" d="M185.451 143.702C185.458 143.781 180.388 144.221 174.132 144.685C167.872 145.149 162.795 145.459 162.789 145.38C162.783 145.3 167.851 144.86 174.11 144.396C180.367 143.933 185.445 143.622 185.451 143.702Z" fill="#FFD514"/>
</g>
</g>
<g id="Group_93">
<g id="Group_94">
<path id="Vector_39" d="M162.205 157.633C162.211 157.713 158.728 158.036 154.426 158.354C150.123 158.672 146.631 158.866 146.625 158.786C146.619 158.707 150.101 158.384 154.405 158.066C158.707 157.747 162.2 157.553 162.205 157.633Z" fill="#263238"/>
</g>
</g>
<g id="Group_95">
<g id="Group_96">
<path id="Vector_40" d="M190.801 161.156C190.807 161.236 181.014 162.025 168.931 162.92C156.845 163.815 147.045 164.476 147.039 164.396C147.033 164.316 156.823 163.526 168.91 162.632C180.993 161.737 190.794 161.076 190.801 161.156Z" fill="#263238"/>
</g>
</g>
<g id="Group_97">
<g id="Group_98">
<path id="Vector_41" d="M163.361 172.049C163.368 172.128 159.884 172.452 155.582 172.77C151.279 173.089 147.787 173.283 147.781 173.203C147.775 173.123 151.258 172.8 155.561 172.482C159.863 172.163 163.356 171.97 163.361 172.049Z" fill="#263238"/>
</g>
</g>
<g id="Group_99">
<g id="Group_100">
<path id="Vector_42" d="M191.972 175.573C191.979 175.652 182.186 176.442 170.103 177.337C158.017 178.232 148.217 178.892 148.211 178.812C148.205 178.733 157.995 177.943 170.082 177.048C182.165 176.154 191.966 175.493 191.972 175.573Z" fill="#263238"/>
</g>
</g>
<g id="Group_101">
<g id="Group_102">
<path id="Vector_43" d="M164.252 186.293C164.258 186.373 160.774 186.696 156.473 187.014C152.17 187.333 148.678 187.527 148.672 187.447C148.666 187.367 152.148 187.044 156.451 186.726C160.753 186.408 164.247 186.214 164.252 186.293Z" fill="#263238"/>
</g>
</g>
<g id="Group_103">
<g id="Group_104">
<path id="Vector_44" d="M192.847 189.819C192.854 189.898 183.061 190.688 170.978 191.583C158.892 192.478 149.092 193.138 149.086 193.058C149.08 192.978 158.87 192.189 170.957 191.294C183.04 190.4 192.842 189.74 192.847 189.819Z" fill="#263238"/>
</g>
</g>
<g id="Group_105">
<g id="Group_106">
<path id="Vector_45" d="M165.861 201.36C165.868 201.439 162.384 201.762 158.082 202.08C153.779 202.399 150.287 202.593 150.281 202.513C150.275 202.433 153.758 202.11 158.061 201.792C162.363 201.474 165.855 201.28 165.861 201.36Z" fill="#263238"/>
</g>
</g>
<g id="Group_107">
<g id="Group_108">
<path id="Vector_46" d="M194.449 204.882C194.455 204.961 184.663 205.751 172.58 206.645C160.493 207.54 150.694 208.201 150.688 208.121C150.681 208.042 160.472 207.252 172.558 206.357C184.641 205.463 194.443 204.802 194.449 204.882Z" fill="#263238"/>
</g>
</g>
</g>
<g id="Group_109">
<g id="Group_110">
<g id="Group_111">
<g id="Group_112">
<path id="Vector_47" d="M140.755 37.8888C141.604 37.4563 142.161 36.5059 142.087 35.4405C141.99 34.0448 140.85 32.9867 139.541 33.0777C138.232 33.1682 137.25 34.3735 137.348 35.7692C137.423 36.8445 138.118 37.7128 139.032 38.0159C135.427 38.8348 135.886 42.7848 135.886 42.7848L144.509 42.1863C144.509 42.1863 144.409 38.1669 140.755 37.8888Z" fill="#C8C8C8"/>
</g>
</g>
</g>
</g>
<g id="Group_113">
<g id="Group_114">
<g id="Group_115">
<g id="Group_116">
<g id="Group_117">
<path id="Vector_48" d="M154.805 93.8587C154.811 93.9381 151.3 94.2634 146.964 94.5843C142.627 94.9052 139.108 95.1011 139.102 95.0212C139.095 94.9418 142.606 94.617 146.943 94.2956C151.279 93.9747 154.799 93.7787 154.805 93.8587Z" fill="#263238"/>
</g>
</g>
<g id="Group_118">
<g id="Group_119">
<path id="Vector_49" d="M155.375 100.791C155.381 100.871 151.871 101.196 147.535 101.517C143.197 101.838 139.678 102.034 139.672 101.954C139.666 101.874 143.176 101.55 147.514 101.228C151.849 100.907 155.369 100.711 155.375 100.791Z" fill="#263238"/>
</g>
</g>
</g>
<g id="Group_120">
<g id="Group_121">
<path id="Vector_50" d="M185.82 92.3745L160.265 94.2665C159.789 94.302 159.373 93.944 159.338 93.4671C159.303 92.9902 159.661 92.5749 160.138 92.5399L185.692 90.6479C186.169 90.6124 186.584 90.9705 186.619 91.4474C186.654 91.9237 186.297 92.339 185.82 92.3745Z" fill="#E0E0E0"/>
</g>
<g id="Group_122">
<path id="Vector_51" d="M182.085 92.6499L160.265 94.2654C159.789 94.301 159.373 93.9429 159.338 93.466C159.303 92.9891 159.661 92.5738 160.138 92.5389L181.957 90.9233C182.434 90.8878 182.85 91.2459 182.885 91.7228C182.92 92.1991 182.562 92.6144 182.085 92.6499Z" fill="#FFB400"/>
</g>
</g>
<g id="Group_123">
<g id="Group_124">
<path id="Vector_52" d="M186.312 98.896L160.758 100.788C160.281 100.824 159.866 100.465 159.831 99.9886C159.795 99.5117 160.153 99.0964 160.63 99.0614L186.184 97.1694C186.661 97.1339 187.076 97.492 187.111 97.9689C187.146 98.4458 186.788 98.861 186.312 98.896Z" fill="#E0E0E0"/>
</g>
<g id="Group_125">
<path id="Vector_53" d="M178.688 99.4604L160.758 100.788C160.281 100.823 159.866 100.465 159.831 99.9884C159.795 99.5115 160.153 99.0963 160.63 99.0613L178.56 97.7339C179.037 97.6983 179.452 98.0564 179.487 98.5333C179.523 99.0102 179.165 99.4255 178.688 99.4604Z" fill="#FFB400"/>
</g>
</g>
<g id="Group_126">
<g id="Group_127">
<g id="Group_128">
<path id="Vector_54" d="M156.117 107.869C156.124 107.949 152.613 108.274 148.277 108.595C143.939 108.916 140.42 109.112 140.414 109.032C140.408 108.953 143.918 108.628 148.256 108.306C152.591 107.985 156.111 107.789 156.117 107.869Z" fill="#263238"/>
</g>
</g>
<g id="Group_129">
<g id="Group_130">
<path id="Vector_55" d="M156.735 114.799C156.741 114.879 153.23 115.204 148.894 115.525C144.557 115.846 141.037 116.042 141.031 115.962C141.025 115.882 144.535 115.557 148.873 115.236C153.208 114.915 156.729 114.719 156.735 114.799Z" fill="#263238"/>
</g>
</g>
</g>
<g id="Group_131">
<g id="Group_132">
<path id="Vector_56" d="M187.171 106.382L161.617 108.274C161.14 108.31 160.725 107.952 160.69 107.475C160.654 106.998 161.012 106.583 161.489 106.548L187.044 104.656C187.521 104.62 187.936 104.978 187.971 105.455C188.006 105.932 187.648 106.347 187.171 106.382Z" fill="#E0E0E0"/>
</g>
<g id="Group_133">
<path id="Vector_57" d="M183.437 106.658L161.617 108.273C161.14 108.309 160.725 107.951 160.69 107.474C160.654 106.997 161.012 106.582 161.489 106.547L183.309 104.931C183.786 104.896 184.201 105.254 184.236 105.731C184.271 106.207 183.913 106.622 183.437 106.658Z" fill="#FFB400"/>
</g>
</g>
<g id="Group_134">
<g id="Group_135">
<path id="Vector_58" d="M187.648 112.904L162.094 114.796C161.617 114.831 161.201 114.473 161.166 113.996C161.131 113.519 161.489 113.104 161.966 113.069L187.52 111.177C187.997 111.142 188.412 111.5 188.447 111.977C188.483 112.453 188.125 112.868 187.648 112.904Z" fill="#E0E0E0"/>
</g>
<g id="Group_136">
<path id="Vector_59" d="M180.024 113.468L162.094 114.796C161.617 114.831 161.201 114.473 161.166 113.996C161.131 113.519 161.489 113.104 161.966 113.069L179.896 111.742C180.373 111.706 180.788 112.064 180.823 112.541C180.858 113.018 180.501 113.433 180.024 113.468Z" fill="#FFB400"/>
</g>
</g>
<g id="Group_137">
<g id="Group_138">
<g id="Group_139">
<path id="Vector_60" d="M157.625 122.188C157.631 122.267 154.121 122.592 149.785 122.913C145.447 123.234 141.927 123.43 141.922 123.35C141.916 123.27 145.426 122.946 149.764 122.625C154.099 122.304 157.62 122.108 157.625 122.188Z" fill="#263238"/>
</g>
</g>
</g>
<g id="Group_140">
<g id="Group_141">
<path id="Vector_61" d="M188.656 120.704L163.101 122.596C162.624 122.631 162.209 122.273 162.174 121.796C162.139 121.319 162.497 120.904 162.974 120.869L188.529 118.977C189.005 118.942 189.421 119.3 189.456 119.776C189.491 120.253 189.133 120.669 188.656 120.704Z" fill="#E0E0E0"/>
</g>
<g id="Group_142">
<path id="Vector_62" d="M177.276 121.545L163.101 122.595C162.624 122.63 162.209 122.272 162.174 121.795C162.139 121.318 162.497 120.903 162.974 120.868L177.149 119.819C177.626 119.783 178.041 120.141 178.076 120.618C178.111 121.095 177.753 121.51 177.276 121.545Z" fill="#FFB400"/>
</g>
</g>
</g>
<g id="Group_143">
<g id="Group_144">
<path id="Vector_63" d="M146.273 86.7934L145.375 85.2101C145.772 84.565 146.002 83.8055 146.002 82.9922C146.002 80.6533 144.106 78.7568 141.767 78.7568C139.427 78.7568 137.531 80.6533 137.531 82.9922C137.531 85.3311 139.428 87.2276 141.767 87.2276C142.743 87.2276 143.642 86.8961 144.359 86.3404L144.357 86.3421L146.273 86.7934Z" fill="#C8C8C8"/>
</g>
</g>
<g id="Group_145">
<g id="Group_146">
<path id="Vector_64" d="M179.08 80.7734C179.086 80.8533 173.165 81.3585 165.856 81.9015C158.545 82.445 152.615 82.8214 152.609 82.7415C152.603 82.6621 158.524 82.1569 165.835 81.6128C173.143 81.0699 179.074 80.6935 179.08 80.7734Z" fill="#FFD514"/>
</g>
</g>
</g>
</g>
</g>
<g id="Character">
<g id="Group_147">
<path id="Vector_65" d="M28.9766 19.2176L39.5802 144.657L133.142 137.698L123.036 12.0332L28.9766 19.2176Z" fill="#EBEBEB"/>
</g>
<g id="Group_148">
<path id="Vector_66" d="M125.141 7.71143L32.6641 14.5547L41.9612 140.192L134.438 133.348L125.141 7.71143Z" fill="#FAFAFA"/>
</g>
<g id="Group_149">
<g id="Group_150">
<path id="Vector_67" d="M68.4646 22.268L61.1226 19.2168C59.1384 20.4804 55.904 23.949 55.0024 27.8246C54.4695 30.1158 54.3368 31.9634 54.4584 34.3129C54.5794 36.6623 54.3684 39.1472 53.0693 41.1086C52.1444 42.5049 50.6516 43.7201 50.6244 45.3951C50.5922 47.3243 52.5891 48.9826 52.1827 50.8685C51.8569 52.3791 50.1747 53.1424 49.2942 54.4126C48.0162 56.2558 48.6341 58.7751 49.4669 60.8581C51.4755 65.8829 47.2001 73.1117 50.968 76.9962C54.6782 73.9484 65.6633 68.2984 69.3734 65.2511C70.1979 64.5744 71.0489 63.8627 71.4914 62.8922C72.1343 61.4821 71.7856 59.8422 71.4514 58.3288C68.8455 46.5143 67.8379 34.3489 68.4646 22.268Z" fill="#263238"/>
</g>
<g id="Group_151">
<g id="Group_152">
<path id="Vector_68" d="M112.332 108.914L108.713 105.246L70.016 116.16C70.016 116.16 67.8908 133.173 68.1095 134.26C68.3283 135.347 68.094 138.455 68.094 138.455L121.495 134.296C121.495 134.296 122.114 119.809 112.332 108.914Z" fill="#263238"/>
</g>
<g id="Group_153">
<g id="Group_154">
<path id="Vector_69" d="M80.4766 123.701C80.4933 123.712 80.415 123.865 80.2579 124.132C80.0969 124.397 79.8598 124.778 79.5295 125.226C79.1975 125.671 78.7734 126.19 78.2054 126.675C77.6403 127.159 76.9125 127.579 76.093 127.841C74.4681 128.372 72.9108 128.496 71.8027 128.48C71.247 128.474 70.799 128.441 70.4909 128.405C70.1827 128.369 70.014 128.337 70.0156 128.317C70.019 128.271 70.7024 128.313 71.8005 128.276C72.8953 128.24 74.4159 128.085 76.0042 127.566C76.792 127.314 77.4832 126.924 78.0361 126.47C78.5907 126.017 79.0215 125.524 79.3691 125.101C80.0536 124.243 80.4383 123.675 80.4766 123.701Z" fill="#455A64"/>
</g>
</g>
<g id="Group_155">
<g id="Group_156">
<path id="Vector_70" d="M93.2218 136.538C93.2023 136.542 93.1491 136.354 93.0697 136.011C92.9897 135.668 92.8881 135.169 92.7726 134.55C92.5428 133.312 92.2724 131.593 92.0609 129.683C91.8505 127.773 91.7395 126.036 91.694 124.778C91.6712 124.149 91.6618 123.64 91.6645 123.287C91.6668 122.935 91.6779 122.74 91.6978 122.739C91.7395 122.738 91.8 123.513 91.8977 124.766C91.9954 126.018 92.1386 127.747 92.3479 129.651C92.5589 131.555 92.796 133.273 92.9742 134.517C93.1524 135.761 93.2629 136.531 93.2218 136.538Z" fill="#455A64"/>
</g>
</g>
<g id="Group_157">
<g id="Group_158">
<path id="Vector_71" d="M96.9075 135.649C96.8281 135.656 96.4995 132.775 96.1742 129.215C95.8483 125.653 95.649 122.761 95.7284 122.753C95.8078 122.746 96.1364 125.626 96.4617 129.188C96.7871 132.749 96.9869 135.642 96.9075 135.649Z" fill="#455A64"/>
</g>
</g>
<g id="Group_159">
<g id="Group_160">
<path id="Vector_72" d="M115.677 115.793C115.691 115.807 115.563 115.964 115.319 116.235C115.073 116.505 114.712 116.891 114.237 117.342C113.761 117.791 113.168 118.307 112.429 118.775C111.692 119.239 110.798 119.652 109.789 119.817C108.78 119.993 107.78 119.826 106.966 119.503C106.145 119.184 105.486 118.74 104.963 118.346C104.44 117.949 104.049 117.591 103.785 117.338C103.521 117.085 103.386 116.934 103.399 116.92C103.433 116.882 104.029 117.431 105.083 118.181C105.613 118.547 106.268 118.961 107.061 119.254C107.848 119.549 108.784 119.697 109.743 119.532C110.701 119.376 111.565 118.987 112.289 118.549C113.014 118.106 113.611 117.616 114.099 117.191C115.069 116.33 115.643 115.76 115.677 115.793Z" fill="#455A64"/>
</g>
</g>
<g id="Group_161">
<g id="Group_162">
<path id="Vector_73" d="M118.653 126.563C118.662 126.582 118.479 126.688 118.142 126.865C117.748 127.07 117.271 127.319 116.713 127.61C115.508 128.243 113.862 129.148 112.099 130.237C110.335 131.329 108.79 132.398 107.687 133.194C107.177 133.563 106.741 133.879 106.382 134.139C106.073 134.362 105.896 134.478 105.884 134.463C105.871 134.447 106.024 134.302 106.312 134.051C106.599 133.799 107.026 133.449 107.565 133.03C108.64 132.19 110.174 131.089 111.947 129.991C113.719 128.896 115.389 128.014 116.621 127.428C117.237 127.133 117.74 126.907 118.094 126.763C118.446 126.617 118.645 126.545 118.653 126.563Z" fill="#455A64"/>
</g>
</g>
<g id="Group_163">
<g id="Group_164">
<path id="Vector_74" d="M83.3465 122.031C83.3098 122.043 83.1738 121.762 82.9995 121.29C82.8285 120.817 82.6126 120.148 82.5098 119.374C82.4055 118.599 82.4799 117.878 82.6225 117.387C82.763 116.893 82.9301 116.622 82.9601 116.635C83.0456 116.661 82.5659 117.836 82.7963 119.337C82.8946 120.081 83.0745 120.745 83.1944 121.229C83.3182 121.713 83.3859 122.018 83.3465 122.031Z" fill="#455A64"/>
</g>
</g>
<g id="Group_165">
<g id="Group_166">
<path id="Vector_75" d="M85.6667 122.167C85.6273 122.175 85.5301 121.871 85.3969 121.373C85.2703 120.875 85.0877 120.181 85.0338 119.379C85.0088 118.979 85.0294 118.591 85.0915 118.245C85.1637 117.9 85.267 117.598 85.3919 117.363C85.6395 116.892 85.8893 116.673 85.9115 116.693C85.9515 116.722 85.7638 116.983 85.5784 117.447C85.3874 117.91 85.2642 118.593 85.3225 119.361C85.3736 120.127 85.5212 120.822 85.5973 121.33C85.6784 121.839 85.7056 122.159 85.6667 122.167Z" fill="#455A64"/>
</g>
</g>
<g id="Group_167">
<g id="Group_168">
<path id="Vector_76" d="M99.9642 120.827C99.867 120.836 100.055 118.908 99.1226 116.799C98.2227 114.676 96.6871 113.494 96.7603 113.429C96.7787 113.404 97.1845 113.656 97.7263 114.201C98.2676 114.742 98.9177 115.604 99.3879 116.684C99.8543 117.766 100.038 118.83 100.062 119.595C100.089 120.362 99.9953 120.831 99.9642 120.827Z" fill="#455A64"/>
</g>
</g>
<g id="Group_169">
<g id="Group_170">
<path id="Vector_77" d="M102.541 119.924C102.449 119.936 102.323 118.202 101.522 116.249C100.74 114.288 99.6245 112.954 99.6988 112.899C99.7255 112.876 100.039 113.179 100.458 113.743C100.877 114.306 101.385 115.143 101.79 116.14C102.192 117.138 102.409 118.093 102.499 118.789C102.591 119.486 102.576 119.922 102.541 119.924Z" fill="#455A64"/>
</g>
</g>
<g id="Group_171">
<g id="Group_172">
<path id="Vector_78" d="M92.718 118.012C92.7086 118.003 92.8179 117.862 93.1033 117.728C93.3825 117.596 93.8628 117.503 94.4096 117.68C94.6794 117.769 94.9598 117.934 95.1868 118.193C95.4083 118.456 95.5549 118.815 95.5688 119.199C95.5865 119.583 95.4855 119.988 95.2612 120.343C95.0386 120.696 94.6644 120.991 94.2197 121.088C93.3281 121.269 92.4421 120.776 92.1245 120.061C91.9558 119.695 91.9785 119.317 92.029 118.993C92.089 118.667 92.1961 118.363 92.3993 118.137C92.8074 117.721 93.2704 117.59 93.5818 117.572C93.9038 117.558 94.0571 117.682 94.046 117.692C94.0371 117.716 93.8805 117.638 93.5924 117.685C93.3148 117.729 92.8879 117.893 92.5531 118.272C92.4004 118.457 92.3088 118.734 92.2655 119.031C92.2283 119.328 92.2233 119.665 92.366 119.95C92.6353 120.54 93.4175 120.961 94.1575 120.806C94.9054 120.644 95.3317 119.859 95.3023 119.209C95.2967 118.878 95.1813 118.575 95.002 118.346C94.816 118.121 94.5778 117.964 94.3402 117.873C93.8583 117.691 93.4153 117.742 93.1433 117.834C92.8662 117.925 92.7335 118.033 92.718 118.012Z" fill="#455A64"/>
</g>
</g>
</g>
<g id="Group_173">
<g id="Group_174">
<path id="Vector_79" d="M58.1479 64.1182C57.8437 64.489 48.94 70.1617 47.5987 73.8169C46.2568 77.4721 48.4164 92.3689 48.7862 94.9454C49.1554 97.5219 54.2107 107.246 54.2107 107.246C54.2107 107.246 53.1498 111.442 54.5427 114.03C55.9356 116.619 58.4305 117.77 58.4305 117.77L67.3803 112.87L61.8198 87.7443L58.1479 64.1182Z" fill="#FFD514"/>
</g>
<g id="Group_175">
<path id="Vector_80" d="M59.1091 90.5078C59.3656 90.148 59.7109 89.9149 59.9185 89.6412C60.1261 89.3675 60.5858 89.2459 60.804 89.5107C61.0522 89.8116 60.7807 90.2507 60.5175 90.5389C61.4219 90.5766 62.1042 89.3425 62.9758 89.5873C63.5454 89.7472 63.7564 90.5111 63.5282 91.0574C63.3 91.6037 62.7798 91.9651 62.2674 92.261C61.755 92.5569 61.2059 92.8334 60.8445 93.3019C60.6552 93.5473 60.5342 93.9182 60.7379 94.1519C61.0844 94.5483 61.8977 94.0803 62.2063 94.5061C62.4151 94.7942 62.1636 95.1834 61.9232 95.446C61.0499 96.4009 60.1772 97.3552 59.3039 98.3101C59.073 98.5627 58.8259 98.8258 58.4995 98.9285C58.1731 99.0318 57.7473 98.9047 57.6446 98.5782C57.5435 98.2573 57.7933 97.9265 58.0792 97.7499C58.3652 97.5734 58.7033 97.4795 58.9592 97.2614C59.2151 97.0432 59.3517 96.6185 59.1191 96.3759C58.8293 96.0739 58.3291 96.3265 57.9999 96.5852C56.9811 97.3857 55.9624 98.1857 54.9437 98.9863C54.7194 99.1623 54.4801 99.3449 54.197 99.3804C53.9138 99.416 53.5841 99.2378 53.5635 98.9535C53.553 98.8058 53.6251 98.6659 53.699 98.5371C54.2553 97.5678 55.0292 96.7245 55.9474 96.0883C56.2955 95.8474 56.6719 95.6275 56.9267 95.2894C57.1815 94.9513 57.2798 94.4489 57.025 94.1108C56.4249 94.6748 55.7603 95.1701 55.048 95.5837C54.7938 95.7313 54.4296 95.8524 54.2414 95.627C54.0471 95.3943 54.248 95.0507 54.4451 94.8203C55.4994 93.5845 56.5537 92.3487 57.6085 91.1124C57.8772 90.797 58.1931 90.4578 58.6067 90.4334L59.1091 90.5078Z" fill="white"/>
</g>
<g id="Group_176">
<path id="Vector_81" d="M63.5121 55.99L62.8115 60.3769L56.2217 65.6543C56.2217 65.6543 54.6655 75.5673 56.1484 85.6536C56.1484 85.6536 65.7766 111.747 66.0115 112.883C66.4484 114.999 70.3384 116.78 70.3384 116.78C70.3384 116.78 85.0087 116.914 90.049 116.187C95.0894 115.46 107.28 107.774 108.428 106.752C109.576 105.729 110.908 100.825 110.908 100.825L101.938 75.6961L101.435 58.0219L88.0277 54.5804L83.4742 51.0557L63.5121 55.99Z" fill="#FFD514"/>
</g>
<g id="Group_177">
<path id="Vector_82" d="M103.053 74.3183C103.31 73.9586 103.655 73.7254 103.863 73.4517C104.07 73.178 104.53 73.0564 104.749 73.3212C104.997 73.6221 104.725 74.0613 104.462 74.3494C105.367 74.3872 106.049 73.153 106.921 73.3979C107.49 73.5583 107.701 74.3217 107.473 74.8679C107.245 75.4142 106.725 75.7756 106.212 76.0715C105.7 76.3674 105.151 76.6445 104.789 77.1125C104.6 77.3579 104.479 77.7293 104.683 77.9624C105.03 78.3588 105.843 77.8908 106.152 78.3166C106.36 78.6048 106.109 78.9939 105.869 79.2565C104.995 80.2114 104.123 81.1657 103.249 82.1206C103.018 82.3732 102.771 82.6364 102.445 82.7391C102.118 82.8423 101.693 82.7152 101.59 82.3888C101.489 82.0679 101.739 81.737 102.025 81.5605C102.31 81.3839 102.649 81.2901 102.904 81.0719C103.16 80.8537 103.297 80.429 103.064 80.1864C102.775 79.8844 102.274 80.137 101.945 80.3957C100.926 81.1963 99.9077 81.9963 98.889 82.7968C98.6647 82.9728 98.4254 83.1555 98.1423 83.191C97.8592 83.2265 97.5288 83.0483 97.5088 82.7641C97.4983 82.6164 97.5705 82.4765 97.6443 82.3477C98.2006 81.3784 98.9745 80.5356 99.8927 79.8989C100.241 79.6574 100.617 79.4381 100.872 79.1C101.127 78.7619 101.225 78.2594 100.97 77.9213C100.37 78.4854 99.7056 78.9806 98.9934 79.3942C98.7391 79.5419 98.3749 79.6629 98.1867 79.4375C97.9924 79.2049 98.1934 78.8612 98.3904 78.6309C99.4447 77.3951 100.499 76.1593 101.554 74.9229C101.822 74.6076 102.138 74.2684 102.552 74.2439L103.053 74.3183Z" fill="white"/>
</g>
<g id="Group_178">
<path id="Vector_83" d="M101.221 58.043C101.221 58.043 108.644 60.6195 110.583 65.0764C112.522 69.5332 119.967 90.6268 119.503 94.4757C119.04 98.3247 117.795 102.815 114.434 103.008C111.073 103.2 107.212 99.7803 107.212 99.7803L104.189 94.8688L104.349 89.7218L100.922 76.0192L101.221 58.043Z" fill="#FFD514"/>
</g>
<g id="Group_179">
<path id="Vector_84" d="M63.7969 58.1383C63.7997 58.1688 79.1278 76.9218 79.1278 76.9218L81.2113 59.5495L84.1121 50.9922L64.1505 55.9265L63.7969 58.1383Z" fill="#FFC89F"/>
</g>
<g id="Group_180" opacity="0.3">
<g id="Group_181">
<path id="Vector_85" d="M95.4392 56.7861C94.5343 56.3314 93.444 56.6906 92.5285 57.123C87.3444 59.5702 81.71 62.537 80.1883 68.0642L80.125 71.4052C80.6019 73.416 82.6821 74.7435 84.7412 74.9144C86.8009 75.0854 88.8233 74.3243 90.6693 73.395C92.3237 72.5616 93.9048 71.5818 95.3871 70.4714C96.2104 69.8547 97.0603 69.1019 97.2113 68.0842C97.4173 66.6969 96.2548 65.4894 95.99 64.112C95.7429 62.8274 96.2942 61.5427 96.5496 60.2597C96.8055 58.9762 96.6084 57.3734 95.4392 56.7861Z" fill="black"/>
</g>
</g>
<g id="Group_182">
<g id="Group_183">
<path id="Vector_86" d="M56.1266 85.6534C56.136 85.6501 56.1871 85.7611 56.2759 85.9765C56.3731 86.2208 56.4974 86.5344 56.6512 86.9219C56.9715 87.7453 57.4234 88.9416 57.9653 90.4256C59.0628 93.3885 60.4596 97.5256 62.0324 102.079C62.8235 104.355 63.5952 106.517 64.3053 108.48C64.6639 109.461 64.9881 110.399 65.3368 111.254C65.6887 112.108 66.0763 112.876 66.5071 113.528C67.367 114.841 68.3852 115.646 69.1224 116.112C69.8708 116.572 70.3305 116.748 70.3161 116.779C70.3122 116.789 70.1978 116.747 69.9818 116.657C69.762 116.576 69.455 116.421 69.0642 116.208C68.3002 115.766 67.2382 114.968 66.3372 113.642C65.8864 112.983 65.4811 112.205 65.1153 111.346C64.7527 110.485 64.4208 109.55 64.0549 108.572C63.331 106.613 62.5504 104.452 61.7593 102.174C60.2076 97.6283 58.8036 93.5145 57.7726 90.495C57.2635 89.0288 56.8472 87.8302 56.5452 86.9619C56.4119 86.5666 56.3048 86.2469 56.2209 85.9976C56.1504 85.775 56.1171 85.6573 56.1266 85.6534Z" fill="#263238"/>
</g>
</g>
<g id="Group_184">
<g id="Group_185">
<path id="Vector_87" d="M79.0719 77.5161C79.0658 77.5205 79.0164 77.4639 78.9253 77.3507C78.8215 77.2174 78.6922 77.0509 78.5334 76.846C78.1914 76.4041 77.6906 75.7584 77.0361 74.9596C75.7276 73.3612 73.7873 71.1522 71.2441 68.795L71.465 68.7023C71.4056 71.2455 71.3395 74.0996 71.269 77.1092C71.2624 77.3745 71.2557 77.6382 71.2496 77.8831L71.2346 78.476L70.9754 77.9436C68.6209 73.1075 66.5057 68.7611 64.9618 65.59C64.2184 64.0328 63.6139 62.7653 63.1803 61.8565C62.9854 61.4341 62.8289 61.096 62.71 60.8378C62.6057 60.6035 62.5546 60.4792 62.5635 60.4747C62.5724 60.4703 62.6401 60.5869 62.7611 60.8128C62.8921 61.0649 63.0642 61.3957 63.2791 61.8082C63.7327 62.7076 64.365 63.9612 65.1422 65.5018C66.7061 68.6634 68.8496 72.9954 71.2352 77.8164L70.9609 77.8764C70.967 77.6316 70.9737 77.3679 70.9804 77.1025C71.0597 74.0935 71.1352 71.2394 71.2024 68.6967L71.2102 68.4036L71.4234 68.6035C73.9627 70.9879 75.883 73.2308 77.1594 74.8613C77.7983 75.6768 78.2802 76.3391 78.6011 76.7972C78.7471 77.012 78.8659 77.1863 78.9609 77.3262C79.0397 77.4473 79.078 77.5122 79.0719 77.5161Z" fill="#263238"/>
</g>
</g>
<g id="Group_186">
<g id="Group_187">
<path id="Vector_88" d="M100.881 91.0815C100.939 91.1365 96.463 95.927 90.8858 101.779C85.3064 107.634 80.738 112.333 80.6802 112.278C80.6225 112.223 85.0971 107.434 90.6766 101.58C96.2543 95.7272 100.823 91.0266 100.881 91.0815Z" fill="#263238"/>
</g>
</g>
<g id="Group_188">
<g id="Group_189">
<path id="Vector_89" d="M92.5651 115.226C92.5218 115.233 92.3863 114.561 92.136 113.486C91.8867 112.41 91.5069 110.933 90.9879 109.332C90.4666 107.731 89.9058 106.313 89.4756 105.296C89.0459 104.279 88.7611 103.656 88.8005 103.636C88.8327 103.619 89.1825 104.211 89.6621 105.212C90.1423 106.213 90.738 107.63 91.2632 109.243C91.7862 110.855 92.1371 112.352 92.3364 113.444C92.5362 114.536 92.6006 115.22 92.5651 115.226Z" fill="#263238"/>
</g>
</g>
<g id="Group_190">
<g id="Group_191">
<path id="Vector_90" d="M55.0006 84.7324C54.9556 84.7985 53.2857 83.7459 51.2716 82.3819C49.2563 81.0173 47.6591 79.8581 47.7041 79.792C47.749 79.7259 49.4184 80.778 51.4337 82.1426C53.4484 83.5072 55.0456 84.6664 55.0006 84.7324Z" fill="#263238"/>
</g>
</g>
<g id="Group_192">
<g id="Group_193">
<path id="Vector_91" d="M114.428 103.007C114.429 103.014 114.362 103.02 114.233 103.024C114.078 103.027 113.891 103.03 113.662 103.033C113.411 103.05 113.107 103.006 112.749 102.958C112.385 102.933 111.989 102.808 111.539 102.691C110.659 102.404 109.635 101.887 108.677 101.03C107.728 100.171 106.835 99.0128 106.22 97.5666L106.218 97.5616L106.216 97.5522C105.696 95.4448 105.117 93.1014 104.508 90.6348C103.374 85.9392 102.348 81.69 101.595 78.5716C101.242 77.051 100.954 75.8086 100.745 74.9081C100.656 74.4984 100.584 74.1669 100.528 73.9088C100.481 73.6795 100.462 73.5579 100.471 73.5557C100.481 73.5535 100.519 73.6701 100.584 73.8949C100.654 74.1497 100.743 74.4767 100.854 74.8814C101.085 75.7764 101.404 77.0116 101.794 78.5228C102.568 81.6356 103.623 85.8776 104.789 90.566C105.389 93.0348 105.959 95.3798 106.472 97.4895L106.468 97.475C107.047 98.864 107.914 100.022 108.825 100.868C109.747 101.715 110.734 102.237 111.589 102.54C113.332 103.089 114.437 102.931 114.428 103.007Z" fill="#263238"/>
</g>
</g>
<g id="Group_194">
<g id="Group_195">
<path id="Vector_92" d="M60.2195 103.347C60.2217 103.396 59.7893 103.424 59.1225 103.59C58.4557 103.753 57.5597 104.091 56.6942 104.678C55.8309 105.27 55.1892 105.981 54.7944 106.543C54.3969 107.103 54.2126 107.495 54.1682 107.475C54.1393 107.465 54.2581 107.038 54.624 106.43C54.986 105.823 55.6322 105.055 56.5315 104.44C57.4326 103.827 58.3825 103.506 59.0803 103.39C59.7798 103.271 60.2201 103.317 60.2195 103.347Z" fill="#263238"/>
</g>
</g>
<g id="Group_196">
<g id="Group_197">
<path id="Vector_93" d="M60.301 102.715C60.3321 102.784 59.2007 103.336 57.7 103.706C56.2005 104.083 54.9425 104.125 54.9375 104.05C54.9292 103.966 56.1556 103.796 57.6301 103.426C59.1057 103.062 60.2688 102.637 60.301 102.715Z" fill="#263238"/>
</g>
</g>
<g id="Group_198">
<path id="Vector_94" d="M58.5695 71.8759C58.826 71.5162 59.1713 71.283 59.3789 71.0093C59.5865 70.7356 60.0462 70.6141 60.2649 70.8789C60.5131 71.1798 60.2411 71.6189 59.9785 71.907C60.8828 71.9448 61.5651 70.7106 62.4362 70.9555C63.0058 71.1154 63.2168 71.8793 62.9886 72.4256C62.7604 72.9718 62.2402 73.3332 61.7278 73.6292C61.2154 73.9251 60.6663 74.2015 60.3049 74.6701C60.1156 74.9155 59.9946 75.2869 60.1989 75.5201C60.5453 75.9164 61.3586 75.4484 61.6673 75.8742C61.876 76.1624 61.6245 76.5515 61.3842 76.8141C60.5109 77.769 59.6382 78.7239 58.7649 79.6782C58.5339 79.9308 58.2869 80.194 57.9605 80.2967C57.634 80.3994 57.2082 80.2728 57.1055 79.9464C57.0045 79.6255 57.2543 79.2946 57.5402 79.1181C57.8261 78.9415 58.1642 78.8477 58.4201 78.6295C58.6761 78.4114 58.8126 77.9866 58.58 77.744C58.2902 77.442 57.79 77.6946 57.4608 77.9533C56.4421 78.7539 55.4233 79.5539 54.4046 80.3544C54.1803 80.5304 53.9411 80.7131 53.6579 80.7486C53.3748 80.7841 53.0445 80.6059 53.0245 80.3217C53.0139 80.174 53.0861 80.0341 53.1599 79.9053C53.7162 78.936 54.4901 78.0927 55.4084 77.4565C55.7564 77.2155 56.1328 76.9957 56.3877 76.6576C56.6425 76.3195 56.7407 75.8171 56.4859 75.479C55.8858 76.043 55.2213 76.5382 54.509 76.9518C54.2547 77.0995 53.8905 77.2205 53.7023 76.9951C53.508 76.7625 53.709 76.4189 53.9061 76.1885C54.9603 74.9527 56.0146 73.7169 57.0694 72.4805C57.3381 72.1657 57.654 71.826 58.0676 71.8015L58.5695 71.8759Z" fill="white"/>
</g>
<g id="Group_199">
<path id="Vector_95" d="M81.8814 79.4131C82.1379 79.0533 82.4832 78.8201 82.6908 78.5464C82.8985 78.2727 83.3581 78.1512 83.5769 78.416C83.825 78.7169 83.5536 79.156 83.2904 79.4436C84.1948 79.4813 84.8771 78.2472 85.7487 78.4926C86.3183 78.653 86.5293 79.4164 86.3011 79.9627C86.0729 80.509 85.5527 80.8704 85.0403 81.1663C84.5279 81.4622 83.9788 81.7392 83.6174 82.2072C83.4281 82.4526 83.3071 82.824 83.5114 83.0572C83.8578 83.4535 84.6711 82.9855 84.9798 83.4114C85.1885 83.6995 84.937 84.0887 84.6967 84.3513C83.8234 85.3061 82.9507 86.2605 82.0774 87.2154C81.8464 87.468 81.5994 87.7311 81.2729 87.8338C80.9465 87.9371 80.5207 87.8099 80.418 87.4835C80.317 87.1626 80.5668 86.8317 80.8527 86.6552C81.1386 86.4786 81.4767 86.3848 81.7326 86.1666C81.9886 85.9485 82.1251 85.5238 81.8925 85.2812C81.6027 84.9792 81.1025 85.2318 80.7733 85.4905C79.7546 86.291 78.7358 87.091 77.7171 87.8915C77.4928 88.0675 77.2535 88.2502 76.9704 88.2857C76.6873 88.3212 76.3575 88.143 76.337 87.8588C76.3264 87.7111 76.3986 87.5712 76.4724 87.4424C77.0287 86.4731 77.8026 85.6304 78.7208 84.9936C79.0689 84.7526 79.4453 84.5328 79.7002 84.1947C79.955 83.8566 80.0532 83.3542 79.7984 83.0161C79.1983 83.5801 78.5338 84.0753 77.8215 84.4889C77.5672 84.6366 77.203 84.7576 77.0148 84.5322C76.8205 84.2996 77.0215 83.956 77.2186 83.7256C78.2728 82.4898 79.3276 81.254 80.3819 80.0176C80.6506 79.7029 80.9665 79.3631 81.3801 79.3387L81.8814 79.4131Z" fill="white"/>
</g>
<g id="Group_200">
<path id="Vector_96" d="M73.0075 101.516C73.264 101.156 73.6093 100.923 73.8169 100.649C74.0246 100.375 74.4843 100.254 74.7024 100.519C74.9506 100.819 74.6791 101.259 74.416 101.547C75.3203 101.584 76.0026 100.35 76.8737 100.595C77.4433 100.755 77.6543 101.519 77.4261 102.065C77.1979 102.611 76.6777 102.973 76.1653 103.269C75.6529 103.565 75.1038 103.841 74.7424 104.31C74.5531 104.555 74.4321 104.927 74.6364 105.16C74.9828 105.556 75.7961 105.088 76.1048 105.514C76.3135 105.802 76.062 106.191 75.8217 106.454C74.9484 107.409 74.0757 108.363 73.2024 109.318C72.9714 109.57 72.7249 109.834 72.3979 109.936C72.0709 110.039 71.6457 109.912 71.543 109.586C71.4425 109.265 71.6918 108.934 71.9777 108.758C72.2636 108.581 72.6017 108.487 72.8576 108.269C73.1136 108.051 73.2501 107.626 73.0175 107.384C72.7277 107.082 72.2275 107.334 71.8983 107.593C70.8796 108.394 69.8608 109.194 68.8421 109.994C68.6178 110.17 68.3785 110.353 68.0954 110.388C67.8123 110.424 67.482 110.246 67.462 109.961C67.4514 109.814 67.5236 109.674 67.5974 109.545C68.1537 108.576 68.9276 107.733 69.8458 107.096C70.1939 106.855 70.5703 106.635 70.8252 106.297C71.08 105.959 71.1782 105.457 70.9234 105.119C70.3233 105.683 69.6588 106.178 68.9465 106.591C68.6922 106.739 68.328 106.86 68.1398 106.635C67.9455 106.402 68.1465 106.059 68.343 105.828C69.3973 104.592 70.4521 103.357 71.5063 102.12C71.775 101.805 72.0909 101.466 72.5045 101.441L73.0075 101.516Z" fill="white"/>
</g>
<g id="Group_201">
<path id="Vector_97" d="M99.5148 99.5722C99.7713 99.2125 100.117 98.9793 100.324 98.7056C100.532 98.4319 100.992 98.3103 101.21 98.5752C101.458 98.8761 101.186 99.3146 100.923 99.6028C101.828 99.6405 102.51 98.4064 103.382 98.6518C103.951 98.8117 104.162 99.5756 103.934 100.121C103.706 100.668 103.186 101.029 102.673 101.325C102.161 101.621 101.612 101.898 101.25 102.366C101.061 102.611 100.94 102.983 101.144 103.216C101.491 103.612 102.304 103.144 102.613 103.57C102.821 103.858 102.57 104.247 102.329 104.51C101.456 105.465 100.583 106.419 99.7102 107.374C99.4793 107.627 99.2322 107.89 98.9058 107.992C98.5793 108.096 98.1535 107.969 98.0508 107.642C97.9503 107.321 98.1996 106.99 98.4855 106.814C98.7714 106.637 99.1095 106.543 99.3654 106.325C99.6214 106.107 99.7579 105.682 99.5253 105.44C99.2355 105.138 98.7353 105.39 98.4061 105.649C97.3874 106.45 96.3687 107.25 95.3499 108.05C95.1256 108.226 94.8864 108.409 94.6032 108.444C94.3201 108.48 93.9903 108.302 93.9698 108.017C93.9592 107.87 94.0314 107.73 94.1052 107.601C94.6615 106.632 95.4354 105.789 96.3537 105.152C96.7012 104.911 97.0782 104.691 97.333 104.353C97.5878 104.015 97.6861 103.513 97.4312 103.175C96.8311 103.739 96.1666 104.234 95.4549 104.648C95.2006 104.795 94.8364 104.916 94.6482 104.691C94.4539 104.458 94.6549 104.115 94.8519 103.884C95.9062 102.648 96.961 101.413 98.0153 100.176C98.284 99.8609 98.5999 99.5217 99.0135 99.4973L99.5148 99.5722Z" fill="white"/>
</g>
<g id="Group_202">
<g id="Group_203">
<path id="Vector_98" d="M89.3885 102.545C89.3796 102.549 89.3274 102.471 89.2358 102.316C89.1303 102.131 89.0027 101.907 88.8478 101.635C88.5141 101.042 88.0517 100.172 87.4976 99.0886C86.3884 96.9223 84.9411 93.8845 83.5137 90.4547C82.0886 87.0226 80.9561 83.8532 80.2033 81.5387C79.8263 80.3817 79.5365 79.4407 79.3511 78.7856C79.2678 78.4847 79.199 78.2355 79.1424 78.0301C79.0979 77.8563 79.0785 77.7641 79.0885 77.7608C79.0979 77.758 79.1357 77.8446 79.1979 78.0128C79.2684 78.2133 79.3544 78.457 79.4582 78.7512C79.6947 79.4363 80.0117 80.3557 80.397 81.4726C81.1981 83.7671 82.3584 86.9183 83.7808 90.3431C85.2048 93.7657 86.6193 96.8108 87.6808 98.997C88.2004 100.058 88.6285 100.931 88.9477 101.582C89.0832 101.863 89.1953 102.096 89.2875 102.287C89.3624 102.452 89.3974 102.54 89.3885 102.545Z" fill="#263238"/>
</g>
</g>
<g id="Group_204">
<path id="Vector_99" d="M119.516 94.0346C119.524 94.4487 117.599 95.3192 117.186 95.2793L116.701 95.1277C116.392 95.4436 116.015 95.6207 115.767 95.8589C115.52 96.097 115.047 96.1464 114.872 95.8511C114.673 95.5158 115.009 95.1238 115.314 94.8795C114.426 94.7024 113.561 95.8161 112.738 95.4397C112.2 95.1932 112.11 94.4065 112.42 93.9019C112.729 93.3973 113.299 93.1208 113.851 92.9076C114.404 92.6944 114.988 92.5057 115.418 92.0987C115.643 91.8855 115.82 91.5374 115.654 91.2754C115.374 90.8307 114.497 91.1671 114.259 90.6986C114.097 90.3816 114.406 90.0363 114.683 89.8136C115.694 89.0053 117.073 87.8761 118.084 87.0684C118.084 87.0684 119.48 92.1331 119.516 94.0346Z" fill="white"/>
</g>
<g id="Group_205" opacity="0.3">
<g id="Group_206">
<path id="Vector_100" d="M80.8359 111.963C88.8897 107.571 96.0714 100.503 99.9692 92.1992L80.8359 111.963Z" fill="black"/>
</g>
</g>
<g id="Group_207" opacity="0.3">
<g id="Group_208">
<path id="Vector_101" d="M54.1641 107.475C55.7413 104.087 58.8413 103.158 61.8581 103.2C61.9608 102.857 61.6788 102.495 61.3407 102.38C61.0026 102.264 60.6323 102.329 60.282 102.398C58.833 102.683 57.3624 103.033 56.1166 103.826C54.8714 104.619 54.2523 105.899 54.2118 107.376" fill="black"/>
</g>
</g>
<g id="Group_209" opacity="0.3">
<g id="Group_210">
<path id="Vector_102" d="M62.6406 60.5674C64.6631 68.0927 67.9036 75.1832 72.0895 81.7553C73.6368 79.3775 74.3102 76.4451 73.956 73.6304C75.1091 75.1416 76.7363 76.2858 78.5478 76.8593C76.4082 73.9258 74.1892 71.1289 71.4106 68.7916C71.4106 68.7916 71.1724 78.2183 71.1824 77.9718C68.2739 72.1387 65.4531 66.39 62.6406 60.5674Z" fill="black"/>
</g>
</g>
</g>
<g id="Group_211">
<g id="Group_212">
<path id="Vector_103" d="M87.0997 34.3628C86.2708 37.0532 85.0933 39.1289 82.4851 40.1876C80.2034 41.1137 77.623 40.9382 75.2114 40.4413C67.3802 38.828 59.1576 34.6537 55 27.8241L57.2429 22.9808C59.5918 19.2906 65.3333 14.9132 71.9947 17.0789C71.9947 17.0789 77.3493 15.1469 82.4341 19.4916C87.5194 23.8358 87.0997 34.3628 87.0997 34.3628Z" fill="#263238"/>
</g>
<g id="Group_213">
<g id="Group_214">
<g id="Group_215">
<path id="Vector_104" d="M68.2559 20.7685C63.6802 20.1944 57.7766 25.7711 57.3974 30.3667C56.976 35.4726 56.6629 41.7232 57.1948 45.5494C58.264 53.2435 64.1238 54.3338 64.1238 54.3338L63.8407 58.2472L81.3656 54.8812L82.1173 27.4377L82.2144 24.9627L68.2559 20.7685Z" fill="#FFC89F"/>
</g>
<g id="Group_216">
<g id="Group_217">
<g id="Group_218">
<g id="Group_219">
<g id="Group_220">
<g id="Group_221">
<g id="Group_222">
<g id="Group_223">
<g id="Group_224">
<g id="Group_225">
<g id="Group_226">
<g id="Group_227">
<g id="Group_228">
<g id="Group_229">
<g id="Group_230">
<g id="Group_231">
<path id="Vector_105" d="M60.1967 35.9086C60.1684 36.4277 60.5842 36.8796 61.126 36.9196C61.6668 36.959 62.1287 36.5715 62.157 36.0524C62.1853 35.5333 61.7695 35.0809 61.2287 35.0409C60.6874 35.0009 60.2255 35.3896 60.1967 35.9086Z" fill="#263238"/>
</g>
</g>
</g>
</g>
</g>
</g>
</g>
</g>
</g>
</g>
</g>
</g>
</g>
</g>
</g>
</g>
<g id="Group_232">
<g id="Group_233">
<g id="Group_234">
<g id="Group_235">
<g id="Group_236">
<g id="Group_237">
<g id="Group_238">
<g id="Group_239">
<g id="Group_240">
<g id="Group_241">
<g id="Group_242">
<g id="Group_243">
<g id="Group_244">
<g id="Group_245">
<g id="Group_246">
<g id="Group_247">
<g id="Group_248">
<path id="Vector_106" d="M58.9759 33.6517C59.0953 33.7821 59.8514 33.2453 60.9101 33.2686C61.9677 33.2769 62.7338 33.8365 62.8515 33.7088C62.9093 33.6528 62.7894 33.4185 62.4557 33.1659C62.1276 32.9144 61.5641 32.6646 60.9046 32.6546C60.245 32.6451 59.686 32.8772 59.3623 33.1198C59.0314 33.363 58.9165 33.5934 58.9759 33.6517Z" fill="#263238"/>
</g>
</g>
</g>
</g>
</g>
</g>
</g>
</g>
</g>
</g>
</g>
</g>
</g>
</g>
</g>
</g>
</g>
<g id="Group_249">
<g id="Group_250">
<g id="Group_251">
<g id="Group_252">
<g id="Group_253">
<g id="Group_254">
<g id="Group_255">
<g id="Group_256">
<g id="Group_257">
<g id="Group_258">
<g id="Group_259">
<g id="Group_260">
<g id="Group_261">
<g id="Group_262">
<g id="Group_263">
<g id="Group_264">
<path id="Vector_107" d="M70.0717 36.2924C70.0434 36.8115 70.4592 37.2634 71.001 37.3034C71.5418 37.3428 72.0037 36.9553 72.032 36.4362C72.0603 35.9171 71.6445 35.4641 71.1037 35.4247C70.5624 35.3847 70.1 35.7733 70.0717 36.2924Z" fill="#263238"/>
</g>
</g>
</g>
</g>
</g>
</g>
</g>
</g>
</g>
</g>
</g>
</g>
</g>
</g>
</g>
</g>
<g id="Group_265">
<g id="Group_266">
<g id="Group_267">
<g id="Group_268">
<g id="Group_269">
<g id="Group_270">
<g id="Group_271">
<g id="Group_272">
<g id="Group_273">
<g id="Group_274">
<g id="Group_275">
<g id="Group_276">
<g id="Group_277">
<g id="Group_278">
<g id="Group_279">
<g id="Group_280">
<g id="Group_281">
<path id="Vector_108" d="M69.4913 34.0559C69.6112 34.1864 70.3679 33.6496 71.4255 33.6729C72.4831 33.6812 73.2492 34.2408 73.3669 34.1131C73.4241 34.0571 73.3058 33.8233 72.9711 33.5702C72.643 33.3181 72.0795 33.0689 71.4205 33.0589C70.7609 33.0494 70.2019 33.2815 69.8777 33.5235C69.5479 33.7673 69.4324 33.9971 69.4913 34.0559Z" fill="#263238"/>
</g>
</g>
</g>
</g>
</g>
</g>
</g>
</g>
</g>
</g>
</g>
</g>
</g>
</g>
</g>
</g>
</g>
<g id="Group_282">
<g id="Group_283">
<g id="Group_284">
<g id="Group_285">
<g id="Group_286">
<g id="Group_287">
<g id="Group_288">
<g id="Group_289">
<g id="Group_290">
<g id="Group_291">
<g id="Group_292">
<g id="Group_293">
<g id="Group_294">
<g id="Group_295">
<g id="Group_296">
<g id="Group_297">
<path id="Vector_109" d="M65.3142 41.8272C65.3203 41.7672 64.6641 41.6407 63.6009 41.4836C63.3311 41.4502 63.0763 41.392 63.0347 41.2065C62.9747 41.01 63.0935 40.7208 63.2306 40.4088C63.4971 39.7592 63.7769 39.0791 64.0701 38.3663C65.237 35.4572 66.087 33.0634 65.9698 33.0173C65.8521 32.9712 64.8107 35.2918 63.6443 38.2009C63.3633 38.9181 63.0941 39.6021 62.8387 40.2566C62.7304 40.562 62.5478 40.9067 62.6777 41.3148C62.7465 41.518 62.9425 41.6684 63.1146 41.7184C63.2867 41.7745 63.4388 41.7806 63.5721 41.7911C64.6435 41.87 65.3086 41.8877 65.3142 41.8272Z" fill="#263238"/>
</g>
</g>
</g>
</g>
</g>
</g>
</g>
</g>
</g>
</g>
</g>
</g>
</g>
</g>
</g>
</g>
<g id="Group_298">
<g id="Group_299">
<g id="Group_300">
<g id="Group_301">
<g id="Group_302">
<g id="Group_303">
<g id="Group_304">
<g id="Group_305">
<g id="Group_306">
<g id="Group_307">
<g id="Group_308">
<g id="Group_309">
<g id="Group_310">
<g id="Group_311">
<g id="Group_312">
<path id="Vector_110" d="M64.1098 54.3445C64.1098 54.3445 69.5254 54.767 74.6973 51.793C74.6973 51.793 71.8937 57.0904 63.9688 56.2337L64.1098 54.3445Z" fill="#77574A"/>
</g>
</g>
</g>
</g>
</g>
</g>
</g>
</g>
</g>
</g>
</g>
</g>
</g>
</g>
</g>
<g id="Group_313">
<g id="Group_314">
<g id="Group_315">
<g id="Group_316">
<g id="Group_317">
<g id="Group_318">
<g id="Group_319">
<g id="Group_320">
<g id="Group_321">
<g id="Group_322">
<g id="Group_323">
<g id="Group_324">
<g id="Group_325">
<g id="Group_326">
<g id="Group_327">
<path id="Vector_111" d="M65.7119 44.3889C66.1027 43.8931 66.7745 43.6294 67.4357 43.7138C67.8943 43.7721 68.3539 44.0025 68.6254 44.3822C68.8974 44.7614 68.9452 45.2938 68.6848 45.6458C68.3911 46.0416 67.7927 46.1227 67.2902 45.97C66.7873 45.8162 66.3592 45.4753 65.9528 45.1361C65.8407 45.0423 65.7258 44.944 65.6564 44.8169C65.5875 44.6898 65.5759 44.5255 65.6658 44.4227" fill="#77574A"/>
</g>
</g>
</g>
</g>
</g>
</g>
</g>
</g>
</g>
</g>
</g>
</g>
</g>
</g>
</g>
<g id="Group_328">
<g id="Group_329">
<g id="Group_330">
<g id="Group_331">
<g id="Group_332">
<g id="Group_333">
<g id="Group_334">
<g id="Group_335">
<g id="Group_336">
<g id="Group_337">
<g id="Group_338">
<g id="Group_339">
<g id="Group_340">
<g id="Group_341">
<g id="Group_342">
<g id="Group_343">
<path id="Vector_112" d="M68.5377 42.6173C68.3656 42.604 68.3412 43.7526 67.3419 44.5493C66.3442 45.3482 65.1218 45.1955 65.1101 45.3559C65.0929 45.4276 65.3788 45.5841 65.8951 45.6085C66.402 45.6357 67.1459 45.4875 67.7571 45.0001C68.3667 44.5115 68.6376 43.8492 68.6859 43.3784C68.7392 42.8988 68.6165 42.6118 68.5377 42.6173Z" fill="#263238"/>
</g>
</g>
</g>
</g>
</g>
</g>
</g>
</g>
</g>
</g>
</g>
</g>
</g>
</g>
</g>
</g>
<g id="Group_344">
<g id="Group_345">
<g id="Group_346">
<g id="Group_347">
<g id="Group_348">
<g id="Group_349">
<g id="Group_350">
<g id="Group_351">
<g id="Group_352">
<g id="Group_353">
<g id="Group_354">
<g id="Group_355">
<path id="Vector_113" d="M69.1141 29.9047C69.2129 30.1945 70.2728 30.0785 71.5113 30.2523C72.7538 30.401 73.7481 30.7841 73.918 30.5293C73.994 30.4071 73.8247 30.1335 73.425 29.8464C73.0291 29.5605 72.3935 29.2835 71.6496 29.1858C70.9056 29.0897 70.2206 29.1952 69.7648 29.3701C69.3062 29.5455 69.0725 29.7676 69.1141 29.9047Z" fill="#263238"/>
</g>
</g>
</g>
</g>
</g>
</g>
</g>
</g>
</g>
</g>
</g>
</g>
<g id="Group_356">
<g id="Group_357">
<g id="Group_358">
<g id="Group_359">
<g id="Group_360">
<g id="Group_361">
<g id="Group_362">
<g id="Group_363">
<g id="Group_364">
<g id="Group_365">
<g id="Group_366">
<g id="Group_367">
<path id="Vector_114" d="M59.4396 30.604C59.6211 30.8477 60.355 30.6124 61.2322 30.6179C62.1093 30.5924 62.8483 30.8111 63.0243 30.5629C63.1014 30.4425 62.9893 30.1993 62.669 29.9656C62.3536 29.7324 61.8223 29.537 61.2194 29.5431C60.6165 29.5503 60.0902 29.7585 59.7804 29.9983C59.4662 30.2393 59.3596 30.4852 59.4396 30.604Z" fill="#263238"/>
</g>
</g>
</g>
</g>
</g>
</g>
</g>
</g>
</g>
</g>
</g>
</g>
</g>
</g>
<g id="Group_368">
<path id="Vector_115" d="M81.526 24.1995C80.9109 22.9071 79.3931 22.3741 78.0479 21.8845C76.1509 21.1938 74.3083 20.3467 72.3702 19.7809C70.4321 19.2152 68.3558 18.9382 66.3939 19.4168C64.3681 19.9109 62.6126 21.1694 61.062 22.5634C59.0185 24.4005 57.1637 26.6533 56.6562 29.3542L56.6646 30.2814C61.0698 29.0289 65.4467 24.4299 68.6373 21.1444C71.3709 24.9756 75.9449 31.7931 79.976 33.4636C80.2508 31.5066 81.672 28.6636 81.8003 26.6911C81.8552 25.8472 81.8891 24.9623 81.526 24.1995Z" fill="#263238"/>
</g>
<g id="Group_369">
<path id="Vector_116" d="M96.3378 55.177C96.0391 53.6453 94.5252 52.7193 93.1989 51.8971C91.872 51.0749 90.4486 49.8952 90.5241 48.3363C90.6035 46.7052 92.3417 45.4356 92.1985 43.8089C92.048 42.1012 90.0316 41.3129 88.958 39.9761C87.4074 38.0446 87.107 36.841 87.1059 34.3639C87.1037 29.5151 85.1656 23.1862 80.9008 20.8789L75.3203 25.559C76.9392 30.0863 78.5836 34.8163 78.0156 39.5908C77.6787 42.4238 76.5661 45.1802 76.7265 48.0293C76.8986 51.0844 78.5153 53.8718 79.0666 56.882C79.589 59.7355 79.1371 62.6712 79.2859 65.5686C79.4341 68.4655 80.3845 71.6016 82.845 73.1383C85.9351 71.6588 89.0246 70.1793 92.1146 68.7003C93.1167 68.2201 94.2492 67.57 94.3936 66.468C94.5418 65.3371 93.5569 64.3845 93.2971 63.2736C92.6198 60.3734 96.9074 58.1 96.3378 55.177Z" fill="#263238"/>
</g>
<g id="Group_370">
<g id="Group_371">
<path id="Vector_117" d="M86.9396 31.4926C86.9491 31.5293 86.4272 31.7114 85.5645 31.9495C84.7023 32.1794 83.4921 32.4792 82.1152 32.5652C80.7368 32.6518 79.4871 32.4414 78.6255 32.1899C77.7611 31.9362 77.262 31.6886 77.2736 31.6597C77.2975 31.5437 79.3866 32.4581 82.0986 32.2765C83.4426 32.1927 84.6457 31.929 85.5167 31.7502C86.3878 31.5643 86.9291 31.4521 86.9396 31.4926Z" fill="#455A64"/>
</g>
</g>
<g id="Group_372">
<g id="Group_373">
<path id="Vector_118" d="M87.1175 33.2736C87.1325 33.3002 86.6806 33.6083 85.8695 33.957C85.0612 34.3029 83.8643 34.6493 82.5069 34.6781C81.1501 34.7059 79.9448 34.4478 79.101 34.2135C78.2554 33.972 77.7552 33.7599 77.7658 33.7272C77.7791 33.6844 78.3015 33.8271 79.1504 34.0153C79.9981 34.1968 81.1839 34.4161 82.5008 34.3895C83.8176 34.3606 84.9824 34.0575 85.7963 33.7666C86.6101 33.4729 87.0948 33.2303 87.1175 33.2736Z" fill="#455A64"/>
</g>
</g>
<g id="Group_374">
<g id="Group_375">
<path id="Vector_119" d="M54.5785 30.4027C54.5924 30.3194 55.2541 30.3827 56.0536 30.2828C56.8541 30.1906 57.482 29.9719 57.5153 30.0496C57.5503 30.1162 56.939 30.4704 56.088 30.5698C55.238 30.6753 54.5602 30.476 54.5785 30.4027Z" fill="#455A64"/>
</g>
</g>
<g id="Group_376">
<g id="Group_377">
<path id="Vector_120" d="M54.2846 31.2839C54.3363 31.2162 54.9258 31.6198 55.7431 31.8968C56.5575 32.1827 57.2703 32.2288 57.2692 32.3137C57.2764 32.3881 56.5186 32.4736 55.6487 32.17C54.7765 31.8724 54.233 31.3372 54.2846 31.2839Z" fill="#455A64"/>
</g>
</g>
<g id="Group_378">
<g id="Group_379">
<path id="Vector_121" d="M80.2458 69.4125C80.2458 69.4125 80.0982 69.3992 79.8411 69.2937C79.5846 69.191 79.2149 68.985 78.8518 68.5942C78.4876 68.2111 78.1384 67.6237 78.0196 66.8682C77.9635 66.4918 77.9796 66.0726 78.104 65.6546C78.2256 65.2365 78.4471 64.8351 78.6897 64.4343C78.9323 64.0324 79.2043 63.6271 79.4048 63.1719C79.598 62.7161 79.7151 62.207 79.7206 61.6718C79.7273 60.5987 79.3381 59.47 78.7286 58.4191C78.124 57.3598 77.2646 56.3827 76.4646 55.2946C75.6652 54.2182 74.9029 52.964 74.6692 51.5128C74.4105 50.0749 74.5954 48.641 74.9146 47.328C75.2443 46.0089 75.7401 44.7975 76.2164 43.6578C76.6961 42.518 77.1608 41.4427 77.5127 40.4078C77.8686 39.3747 78.1068 38.3843 78.2189 37.4627C78.4637 35.6207 78.2783 34.0962 77.9591 33.1141C77.6488 32.1187 77.2396 31.679 77.2751 31.6584C77.2829 31.6523 77.3723 31.7656 77.5366 31.9893C77.6832 32.223 77.8958 32.5772 78.0657 33.078C78.4243 34.0679 78.6442 35.6162 78.4216 37.4877C78.3205 38.4237 78.0896 39.4363 77.7398 40.4845C77.3934 41.5343 76.9343 42.6202 76.4624 43.7605C75.9933 44.9014 75.5092 46.1022 75.1894 47.3963C74.8796 48.6854 74.7047 50.0811 74.954 51.4623C75.1777 52.8519 75.9044 54.056 76.6933 55.1264C77.4811 56.2051 78.3422 57.1911 78.9601 58.2859C79.5785 59.3679 79.9777 60.5398 79.9605 61.6746C79.9494 62.2397 79.8195 62.7816 79.6091 63.2618C79.3914 63.7392 79.1094 64.1467 78.864 64.5409C78.6181 64.934 78.4005 65.3165 78.28 65.7079C78.1573 66.0959 78.134 66.4879 78.1801 66.8459C78.2778 67.5638 78.597 68.1378 78.9362 68.5187C79.6307 69.297 80.2747 69.3692 80.2458 69.4125Z" fill="#263238"/>
</g>
</g>
<g id="Group_380">
<g id="Group_381">
<path id="Vector_122" d="M72.249 16.9989C72.2834 17.0827 71.0409 17.398 70.0294 18.5172C68.9957 19.617 68.7831 20.8811 68.697 20.8534C68.6642 20.8489 68.6654 20.5297 68.8141 20.039C68.9602 19.5504 69.2844 18.9009 69.8168 18.3213C70.3514 17.7433 70.9715 17.3675 71.4467 17.1821C71.9242 16.9939 72.2423 16.9667 72.249 16.9989Z" fill="#455A64"/>
</g>
</g>
</g>
<g id="Group_382">
<g id="Group_383">
<path id="Vector_123" d="M101.675 69.1837L97.8915 63.229L97.6328 57.372L99.1145 53.3648C99.1145 53.3648 100.298 53.0822 100.492 54.494C100.688 55.9058 100.054 57.6129 100.054 57.6129L100.864 60.4571C100.864 60.4571 101.131 60.7607 101.382 59.5799C101.634 58.3991 101.196 49.6308 101.191 49.0262C101.186 48.4211 101.234 46.9898 102.128 47.1214C103.022 47.253 103.304 48.4361 103.309 49.0406C103.314 49.6458 103.962 55.5261 103.962 55.5261C103.962 55.5261 104.17 56.0557 104.383 55.9797C104.596 55.9036 104.197 49.668 104.154 48.6814C104.112 47.6949 103.895 45.5148 105.051 45.5098C106.206 45.5053 106.206 46.6062 106.27 47.8109C106.334 49.0156 107.09 55.7659 107.09 55.7659C107.09 55.7659 107.266 56.1889 107.43 55.6221C107.594 55.0553 107.802 47.7138 107.933 47.3707C108.064 47.0276 108.734 46.5757 109.257 47.4046C109.78 48.2334 109.658 50.1698 109.585 53.5952C109.519 56.678 109.424 57.9566 109.778 58.1964C110.132 58.4363 111.43 56.5443 111.43 56.5443C111.43 56.5443 113.009 52.4815 114.344 52.6242C115.679 52.7669 114.784 53.809 114.555 54.75C114.361 55.5483 112.024 60.316 111.974 60.3605C111.923 60.4049 109.628 68.8895 109.628 68.8895L114.698 78.5893C115.582 80.2804 115.96 82.2068 115.683 84.0949C115.378 86.1668 114.314 88.4746 111.279 89.4223C109.039 90.1218 107.392 89.1186 106.306 87.9411C105.355 86.9107 104.754 85.6066 104.514 84.2254C103.861 80.4852 101.675 69.1837 101.675 69.1837Z" fill="#FFC89F"/>
</g>
<g id="Group_384">
<g id="Group_385">
<path id="Vector_124" d="M105.454 64.9062C105.404 64.9018 105.462 64.4555 105.335 63.7637C105.212 63.0798 104.857 62.1371 104.103 61.3837C103.535 60.7914 102.803 60.4799 102.195 60.4138C101.577 60.345 101.12 60.5604 100.897 60.7059L100.845 60.7403L100.822 60.692C100.746 60.5326 100.715 60.4466 100.73 60.4377C100.746 60.4288 100.807 60.4971 100.91 60.6403L100.834 60.6265C101.031 60.4288 101.528 60.1363 102.213 60.179C102.884 60.2151 103.694 60.5415 104.308 61.1805C105.117 61.9894 105.461 63.0109 105.537 63.7343C105.616 64.4682 105.483 64.914 105.454 64.9062Z" fill="#77574A"/>
</g>
</g>
<g id="Group_386">
<g id="Group_387">
<path id="Vector_125" d="M108.643 60.4095C108.693 60.4773 108.18 60.9175 107.68 61.5671C107.174 62.2122 106.873 62.8173 106.796 62.7851C106.724 62.7618 106.917 62.0734 107.452 61.3894C107.983 60.7027 108.602 60.3463 108.643 60.4095Z" fill="#77574A"/>
</g>
</g>
</g>
<g id="Group_388">
<path id="Vector_126" d="M57.3466 113.44C57.3832 113.809 57.3482 117.294 60.058 120.133C62.7683 122.973 63.9858 123.971 63.9858 123.971L73.5457 128.261C73.5457 128.261 76.0379 128.639 78.5522 126.2C80.115 124.683 80.4948 123.701 80.4948 123.701C80.4948 123.701 83.3627 124.983 84.482 124.934C86.3679 124.853 86.0714 123.52 86.0714 123.52C86.0714 123.52 79.7586 120.044 78.2574 118.701C76.7568 117.358 72.4415 116.473 69.3731 116.874L67.5977 116.526L66.9559 114.139C66.9559 114.139 63.4917 108.976 60.3139 110.783C57.1378 112.59 57.3466 113.44 57.3466 113.44Z" fill="#FFC89F"/>
</g>
</g>
</g>
</g>
<defs>
<filter id="filter0_d_636_3405" x="17.6172" y="0.928711" width="198.18" height="240.782" filterUnits="userSpaceOnUse" color-interpolation-filters="sRGB">
<feFlood flood-opacity="0" result="BackgroundImageFix"/>
<feColorMatrix in="SourceAlpha" type="matrix" values="0 0 0 0 0 0 0 0 0 0 0 0 0 0 0 0 0 0 127 0" result="hardAlpha"/>
<feOffset dy="2"/>
<feGaussianBlur stdDeviation="4"/>
<feComposite in2="hardAlpha" operator="out"/>
<feColorMatrix type="matrix" values="0 0 0 0 0 0 0 0 0 0 0 0 0 0 0 0 0 0 0.08 0"/>
<feBlend mode="normal" in2="BackgroundImageFix" result="effect1_dropShadow_636_3405"/>
<feBlend mode="normal" in="SourceGraphic" in2="effect1_dropShadow_636_3405" result="shape"/>
</filter>
</defs>
</svg>
