<svg width="104" height="20" viewBox="0 0 104 20" fill="none" xmlns="http://www.w3.org/2000/svg">
<path d="M13.6504 1.94434L12.292 4.67383C11.5557 3.9375 10.3708 3.56934 8.7373 3.56934C7.18848 3.56934 5.91895 4.22103 4.92871 5.52441C3.93848 6.81934 3.44336 8.46126 3.44336 10.4502C3.44336 12.4391 3.90039 14.0176 4.81445 15.1855C5.73698 16.3535 6.96419 16.9375 8.49609 16.9375C10.248 16.9375 11.6191 16.3112 12.6094 15.0586L14.1455 17.7246C12.7998 19.1549 10.8278 19.8701 8.22949 19.8701C5.63118 19.8701 3.61263 19.0153 2.17383 17.3057C0.735026 15.596 0.015625 13.2643 0.015625 10.3105C0.015625 7.5599 0.811198 5.26204 2.40234 3.41699C4.00195 1.56348 6.0459 0.636719 8.53418 0.636719C10.667 0.636719 12.3724 1.07259 13.6504 1.94434ZM24.2002 18.1943C23.9124 18.6683 23.4089 19.0576 22.6895 19.3623C21.9785 19.6585 21.2337 19.8066 20.4551 19.8066C18.9909 19.8066 17.8398 19.4427 17.002 18.7148C16.1641 17.9785 15.7451 16.9375 15.7451 15.5918C15.7451 14.0176 16.3333 12.7861 17.5098 11.8975C18.6947 11.0088 20.3747 10.5645 22.5498 10.5645C22.9222 10.5645 23.3623 10.6279 23.8701 10.7549C23.8701 9.15527 22.8587 8.35547 20.8359 8.35547C19.6426 8.35547 18.6439 8.55436 17.8398 8.95215L17.1543 6.48926C18.2461 5.96452 19.5452 5.70215 21.0518 5.70215C23.1253 5.70215 24.6445 6.17611 25.6094 7.12402C26.5742 8.06348 27.0566 9.84928 27.0566 12.4814V15.3887C27.0566 17.1999 27.4206 18.3382 28.1484 18.8037C27.8861 19.2607 27.5941 19.54 27.2725 19.6416C26.9508 19.7516 26.5827 19.8066 26.168 19.8066C25.7109 19.8066 25.3005 19.6374 24.9365 19.2988C24.5726 18.9603 24.3271 18.5921 24.2002 18.1943ZM23.8955 13.1543C23.3538 13.0443 22.9476 12.9893 22.6768 12.9893C20.1715 12.9893 18.9189 13.8102 18.9189 15.4521C18.9189 16.6709 19.6257 17.2803 21.0391 17.2803C22.9434 17.2803 23.8955 16.3281 23.8955 14.4238V13.1543ZM38.3555 8.91406C37.7884 8.54167 37.1663 8.35547 36.4893 8.35547C35.7529 8.35547 35.097 8.68978 34.5215 9.3584C33.9544 10.027 33.6709 10.8438 33.6709 11.8086V19.5527H30.4971V5.95605H33.6709V7.2002C34.5596 6.2015 35.7402 5.70215 37.2129 5.70215C38.2962 5.70215 39.1257 5.86719 39.7012 6.19727L38.3555 8.91406ZM53.7549 13.7256H44.043C44.1022 14.8089 44.4746 15.651 45.1602 16.252C45.8457 16.8529 46.7682 17.1533 47.9277 17.1533C49.375 17.1533 50.4753 16.7767 51.2285 16.0234L52.46 18.4482C51.3428 19.3538 49.6755 19.8066 47.458 19.8066C45.3844 19.8066 43.7425 19.2015 42.5322 17.9912C41.3304 16.7725 40.7295 15.0755 40.7295 12.9004C40.7295 10.7591 41.3896 9.02409 42.71 7.69531C44.0387 6.36654 45.6299 5.70215 47.4834 5.70215C49.4554 5.70215 51.0381 6.29036 52.2314 7.4668C53.4248 8.64323 54.0215 10.1413 54.0215 11.9609C54.0215 12.3503 53.9326 12.9385 53.7549 13.7256ZM44.1572 11.3389H50.835C50.6149 9.34993 49.5146 8.35547 47.5342 8.35547C45.723 8.35547 44.5973 9.34993 44.1572 11.3389ZM68.71 13.7256H58.998C59.0573 14.8089 59.4297 15.651 60.1152 16.252C60.8008 16.8529 61.7233 17.1533 62.8828 17.1533C64.3301 17.1533 65.4303 16.7767 66.1836 16.0234L67.415 18.4482C66.2979 19.3538 64.6305 19.8066 62.4131 19.8066C60.3395 19.8066 58.6976 19.2015 57.4873 17.9912C56.2855 16.7725 55.6846 15.0755 55.6846 12.9004C55.6846 10.7591 56.3447 9.02409 57.665 7.69531C58.9938 6.36654 60.585 5.70215 62.4385 5.70215C64.4105 5.70215 65.9932 6.29036 67.1865 7.4668C68.3799 8.64323 68.9766 10.1413 68.9766 11.9609C68.9766 12.3503 68.8877 12.9385 68.71 13.7256ZM59.1123 11.3389H65.79C65.57 9.34993 64.4697 8.35547 62.4893 8.35547C60.6781 8.35547 59.5524 9.34993 59.1123 11.3389ZM79.3867 8.91406C78.8197 8.54167 78.1976 8.35547 77.5205 8.35547C76.7842 8.35547 76.1283 8.68978 75.5527 9.3584C74.9857 10.027 74.7021 10.8438 74.7021 11.8086V19.5527H71.5283V5.95605H74.7021V7.2002C75.5908 6.2015 76.7715 5.70215 78.2441 5.70215C79.3275 5.70215 80.1569 5.86719 80.7324 6.19727L79.3867 8.91406Z" fill="white"/>
<path d="M93.6943 19.5527L92.3359 15.7822H85.9629L84.668 19.5527H80.999L88.4131 0.700195H89.8604L97.3379 19.5527H93.6943ZM89.1367 6.3877L86.9023 13.2559H91.3711L89.1367 6.3877ZM101.616 0.6875C102.124 0.6875 102.556 0.869466 102.911 1.2334C103.275 1.58887 103.457 2.02051 103.457 2.52832C103.457 3.03613 103.275 3.47201 102.911 3.83594C102.556 4.19141 102.124 4.36914 101.616 4.36914C101.108 4.36914 100.673 4.19141 100.309 3.83594C99.9531 3.47201 99.7754 3.03613 99.7754 2.52832C99.7754 2.02051 99.9531 1.58887 100.309 1.2334C100.673 0.869466 101.108 0.6875 101.616 0.6875ZM99.9785 19.5527V8.55859H98.2393V5.95605H103.19V19.5527H99.9785Z" fill="#FFB400"/>
</svg>
