<svg width="31" height="32" viewBox="0 0 31 32" fill="none" xmlns="http://www.w3.org/2000/svg">
<path d="M24.0677 16.4456C23.3361 16.4456 22.645 16.1236 22.1668 15.5584C21.7279 15.0397 21.5158 14.3784 21.5665 13.7103H17.6198C17.2775 13.7103 17 13.4328 17 13.0905V8.9107C17 8.72675 17.0817 8.55227 17.2231 8.43451C17.3644 8.31675 17.551 8.26797 17.7317 8.30107L17.7688 8.30789C18.1416 8.37619 18.5223 8.2759 18.8135 8.03319C19.1046 7.79042 19.2717 7.43379 19.2717 7.05466C19.2717 6.67559 19.1047 6.31902 18.8135 6.07631C18.5224 5.83366 18.1415 5.73362 17.7687 5.8018L17.7316 5.80862C17.5506 5.84177 17.3643 5.79287 17.2231 5.67511C17.0818 5.55735 17.0001 5.38294 17.0001 5.19898V0.619797C17.0001 0.277483 17.2776 0 17.6199 0H27.9019C29.4504 0 30.7103 1.25986 30.7103 2.80849V13.0905C30.7103 13.4328 30.4329 13.7103 30.0906 13.7103H26.5703C26.6286 14.3637 26.4297 15.0151 26.009 15.5273C25.5387 16.1 24.8445 16.4345 24.1042 16.4454C24.092 16.4456 24.0799 16.4456 24.0677 16.4456ZM18.2397 12.4707H22.2955C22.4794 12.4707 22.6539 12.5524 22.7717 12.6936C22.8894 12.8349 22.9384 13.0211 22.9052 13.2021L22.8208 13.6637C22.7492 14.0548 22.8558 14.4535 23.1131 14.7577C23.3623 15.0522 23.7084 15.2106 24.0861 15.2059C24.4609 15.2004 24.8127 15.0308 25.051 14.7406C25.2893 14.4504 25.3872 14.0722 25.3195 13.7029L25.2279 13.202C25.1948 13.0211 25.2438 12.8348 25.3616 12.6936C25.4793 12.5523 25.6537 12.4706 25.8376 12.4706H29.4707V2.80849C29.4707 1.94337 28.7669 1.23959 27.9019 1.23959H18.2397V4.55253C18.7372 4.6002 19.2137 4.79618 19.6072 5.12417C20.1817 5.60309 20.5112 6.30675 20.5112 7.05466C20.5112 7.80263 20.1817 8.50634 19.6072 8.98526C19.2137 9.31332 18.7372 9.50936 18.2397 9.55709V12.4707Z" fill="url(#paint0_linear_4874_2001)"/>
<path d="M25.5611 21.5071C25.9034 21.5071 26.1809 21.2296 26.1809 20.8873V18.6432C26.1809 18.3009 25.9034 18.0234 25.5611 18.0234H21.3083C21.1244 18.0234 20.95 18.1051 20.8322 18.2464C20.7144 18.3876 20.6655 18.5739 20.6986 18.7548L20.7902 19.2557C20.8579 19.625 20.76 20.0032 20.5217 20.2934C20.2833 20.5836 19.9316 20.7532 19.5568 20.7587C19.1787 20.7629 18.833 20.605 18.5838 20.3105C18.3265 20.0063 18.2199 19.6076 18.2915 19.2166L18.3759 18.7549C18.409 18.5739 18.3601 18.3877 18.2424 18.2464C18.1246 18.1051 17.9501 18.0234 17.7662 18.0234H13.7103V15.1098C14.2079 15.0621 14.6844 14.8661 15.0779 14.5381C15.6524 14.0591 15.9818 13.3554 15.9818 12.6075C15.9818 11.8595 15.6524 11.1558 15.0778 10.6769C14.6843 10.3489 14.2079 10.1529 13.7103 10.1053V6.17253C13.7103 5.83022 13.4328 5.55273 13.0905 5.55273H2.80849C1.25986 5.55273 0 6.8126 0 8.36122V28.9252C0 30.4739 1.25986 31.7337 2.80849 31.7337H23.3725C24.9211 31.7337 26.181 30.4739 26.181 28.9252V27.1265C26.181 26.7842 25.9035 26.5067 25.5612 26.5067C25.2189 26.5067 24.9414 26.7842 24.9414 27.1265V28.9252C24.9414 29.7903 24.2376 30.4941 23.3725 30.4941H13.7103V26.4963C13.7103 26.3125 13.6287 26.1381 13.4875 26.0203C13.3463 25.9025 13.16 25.8535 12.9792 25.8865L12.9417 25.8934C12.5688 25.9616 12.1879 25.8616 11.8969 25.619C11.6057 25.3763 11.4387 25.0198 11.4387 24.6403C11.4387 24.2613 11.6056 23.9046 11.8969 23.6619C12.1881 23.4191 12.5688 23.319 12.942 23.3874L12.9792 23.3942C13.1598 23.4271 13.3462 23.3782 13.4875 23.2604C13.6287 23.1426 13.7103 22.9683 13.7103 22.7844V19.2629H17.0372C16.9864 19.931 17.1986 20.5922 17.6374 21.1109C18.1236 21.6856 18.8319 22.0096 19.5748 21.998C20.315 21.9872 21.0093 21.6526 21.4796 21.08C21.9003 20.5678 22.0992 19.9163 22.0409 19.2629H24.9414V20.8873C24.9413 21.2296 25.2189 21.5071 25.5611 21.5071ZM1.23959 8.36122C1.23959 7.49617 1.94344 6.79233 2.80849 6.79233H12.4707V10.7517C12.4707 10.9355 12.5523 11.1099 12.6936 11.2277C12.8348 11.3454 13.0211 11.3943 13.2019 11.3614L13.2391 11.3546C13.2391 11.3546 13.2392 11.3545 13.2392 11.3545C13.612 11.2864 13.993 11.3863 14.2842 11.629C14.5753 11.8718 14.7423 12.2284 14.7423 12.6075C14.7423 12.9865 14.5753 13.3432 14.2842 13.5859C13.993 13.8286 13.6122 13.9287 13.2393 13.8606L13.2021 13.8537C13.0211 13.8206 12.8349 13.8696 12.6936 13.9874C12.5524 14.1051 12.4707 14.2795 12.4707 14.4634V18.0234H9.81127C9.50732 16.973 8.5405 16.2156 7.3966 16.2156C6.2527 16.2156 5.28594 16.973 4.98199 18.0234H1.23959V8.36122ZM11.1032 22.7098C10.5286 23.1887 10.1991 23.8924 10.1991 24.6408C10.1991 25.3887 10.5286 26.0924 11.1032 26.5713C11.4967 26.8993 11.9732 27.0952 12.4707 27.1428V30.4941H2.80849C1.94344 30.4941 1.23959 29.7903 1.23959 28.9252V19.263H5.50436C5.8362 19.263 6.10916 19.0017 6.1236 18.6702C6.15322 17.9889 6.7124 17.4553 7.39666 17.4553C8.08085 17.4553 8.6401 17.9889 8.66972 18.6702C8.68417 19.0017 8.95712 19.263 9.28896 19.263H12.4708V22.1381C11.9731 22.1858 11.4966 22.3818 11.1032 22.7098Z" fill="url(#paint1_linear_4874_2001)"/>
<path d="M25.5601 24.5941C25.3005 24.5941 25.0648 24.427 24.9771 24.1831C24.8908 23.9435 24.9646 23.6665 25.1592 23.5019C25.3625 23.3299 25.6608 23.3084 25.8872 23.4484C26.1042 23.5827 26.2182 23.8454 26.1681 24.0958C26.1109 24.382 25.8518 24.5941 25.5601 24.5941Z" fill="url(#paint2_linear_4874_2001)"/>
<defs>
<linearGradient id="paint0_linear_4874_2001" x1="23.8552" y1="0" x2="23.8552" y2="16.4456" gradientUnits="userSpaceOnUse">
<stop stop-color="#9B9DFA"/>
<stop offset="1" stop-color="#EDB8FD"/>
</linearGradient>
<linearGradient id="paint1_linear_4874_2001" x1="13.0905" y1="5.55273" x2="13.0905" y2="31.7337" gradientUnits="userSpaceOnUse">
<stop stop-color="#9B9DFA"/>
<stop offset="1" stop-color="#EDB8FD"/>
</linearGradient>
<linearGradient id="paint2_linear_4874_2001" x1="25.5606" y1="23.3564" x2="25.5606" y2="24.5941" gradientUnits="userSpaceOnUse">
<stop stop-color="#9B9DFA"/>
<stop offset="1" stop-color="#EDB8FD"/>
</linearGradient>
</defs>
</svg>
