<svg width="35" height="32" viewBox="0 0 35 32" fill="none" xmlns="http://www.w3.org/2000/svg">
<path d="M15.2555 11.2406H0.535282C0.214113 11.2406 0 10.973 0 10.7054V7.27956C0 5.78077 1.23115 4.49609 2.78346 4.49609H17.0755C17.3967 4.49609 17.6108 4.76373 17.6108 5.03138C17.6108 5.29902 17.3431 5.56666 17.0755 5.56666H2.72994C1.81996 5.56666 1.07056 6.31605 1.07056 7.22603V10.1166H15.2555C15.5767 10.1166 15.7908 10.3842 15.7908 10.6518C15.7908 10.9195 15.5767 11.2406 15.2555 11.2406Z" fill="url(#paint0_linear_4874_1957)"/>
<path d="M2.72994 31.0467C1.98054 31.0467 1.28468 30.7791 0.802922 30.2438C0.267641 29.7085 0 29.0126 0 28.2632V10.6525C0 10.3313 0.267641 10.1172 0.535282 10.1172H15.2555C15.5767 10.1172 15.7908 10.3848 15.7908 10.6525C15.7908 10.9201 15.5232 11.1878 15.2555 11.1878H1.07056V28.2097C1.07056 28.6379 1.23115 29.0662 1.55232 29.3873C1.87349 29.7085 2.30171 29.8691 2.72994 29.8691H27.8346C28.7446 29.8691 29.494 29.1197 29.494 28.2097V17.5041C29.494 17.1829 29.7617 16.9688 30.0293 16.9688C30.2969 16.9688 30.5646 17.2364 30.5646 17.5041V28.2097C30.5646 29.7085 29.3334 30.9932 27.7811 30.9932H2.72994V31.0467Z" fill="url(#paint1_linear_4874_1957)"/>
<path d="M4.81837 8.40357H3.64075C3.31958 8.40357 3.10547 8.13593 3.10547 7.86829C3.10547 7.60065 3.37311 7.33301 3.64075 7.33301H4.81837C5.13954 7.33301 5.35365 7.60065 5.35365 7.86829C5.35365 8.13593 5.13954 8.40357 4.81837 8.40357Z" fill="url(#paint2_linear_4874_1957)"/>
<path d="M7.43946 8.40357H6.26184C5.94068 8.40357 5.72656 8.13593 5.72656 7.86829C5.72656 7.60065 5.9942 7.33301 6.26184 7.33301H7.43946C7.76063 7.33301 7.97475 7.60065 7.97475 7.86829C7.97475 8.13593 7.76063 8.40357 7.43946 8.40357Z" fill="url(#paint3_linear_4874_1957)"/>
<path d="M10.0625 8.40357H8.88489C8.56372 8.40357 8.34961 8.13593 8.34961 7.86829C8.34961 7.60065 8.61725 7.33301 8.88489 7.33301H10.0625C10.3837 7.33301 10.5978 7.60065 10.5978 7.86829C10.5978 8.13593 10.3837 8.40357 10.0625 8.40357Z" fill="url(#paint4_linear_4874_1957)"/>
<path d="M13.1678 20.9298H5.35273C4.44275 20.9298 3.69336 20.1804 3.69336 19.2704V14.6135C3.69336 13.7035 4.44275 12.9541 5.35273 12.9541H13.1678C14.0778 12.9541 14.8272 13.7035 14.8272 14.6135V19.2704C14.8272 20.1804 14.0778 20.9298 13.1678 20.9298ZM13.1678 14.0247H5.35273C5.03156 14.0247 4.81745 14.2923 4.81745 14.5599V19.2704C4.81745 19.5916 5.08509 19.8057 5.35273 19.8057H13.1678C13.489 19.8057 13.7031 19.5381 13.7031 19.2704V14.6135C13.7031 14.2923 13.4355 14.0247 13.1678 14.0247Z" fill="url(#paint5_linear_4874_1957)"/>
<path d="M18.7882 17.6106H18.1993C17.8782 17.6106 17.6641 17.343 17.6641 17.0753C17.6641 16.8077 17.9317 16.54 18.1993 16.54H18.7882C19.1093 16.54 19.3234 16.8077 19.3234 17.0753C19.3234 17.343 19.0558 17.6106 18.7882 17.6106Z" fill="url(#paint6_linear_4874_1957)"/>
<path d="M26.6568 21.1438H18.1993C17.8782 21.1438 17.6641 20.8762 17.6641 20.6085C17.6641 20.3409 17.9317 20.0732 18.1993 20.0732H26.6568C26.978 20.0732 27.1921 20.3409 27.1921 20.6085C27.1921 20.8762 26.9244 21.1438 26.6568 21.1438Z" fill="url(#paint7_linear_4874_1957)"/>
<path d="M26.657 24.676H3.96106C3.63989 24.676 3.42578 24.4084 3.42578 24.1408C3.42578 23.8731 3.69342 23.6055 3.96106 23.6055H26.657C26.9782 23.6055 27.1923 23.8731 27.1923 24.1408C27.1923 24.4084 26.9246 24.676 26.657 24.676Z" fill="url(#paint8_linear_4874_1957)"/>
<path d="M26.657 28.2092H3.96106C3.63989 28.2092 3.42578 27.9416 3.42578 27.674C3.42578 27.4063 3.69342 27.1387 3.96106 27.1387H26.657C26.9782 27.1387 27.1923 27.4063 27.1923 27.674C27.1923 27.9416 26.9246 28.2092 26.657 28.2092Z" fill="url(#paint9_linear_4874_1957)"/>
<path d="M25.9077 17.8249H25.0512C24.3553 17.8249 23.7665 17.2896 23.6595 16.6473L23.4454 15.3091C23.4454 15.202 23.3383 15.1485 23.2848 15.0949C23.0707 15.0414 22.9101 14.9344 22.696 14.8808C22.5889 14.8273 22.5354 14.8273 22.4283 14.8808L21.3578 15.6838C20.8225 16.0584 20.0196 16.0049 19.5378 15.5232L18.8955 14.8808C18.4137 14.3991 18.3602 13.6497 18.7349 13.0609L19.5378 11.9903C19.5913 11.8833 19.5913 11.7762 19.5378 11.7227C19.4307 11.5621 19.3772 11.348 19.2702 11.1339C19.2166 11.0268 19.1631 10.9733 19.056 10.9733L17.7714 10.7592C17.0755 10.6521 16.5938 10.0633 16.5938 9.36743V8.45745C16.5938 7.76158 17.0755 7.17277 17.7714 7.06572L19.056 6.8516C19.1631 6.8516 19.2166 6.74455 19.2702 6.69102C19.3237 6.47691 19.4307 6.31632 19.5378 6.10221C19.5913 5.99515 19.5913 5.8881 19.5378 5.83457L18.7349 4.76401C18.3067 4.22872 18.4137 3.47933 18.8419 2.94405L19.4843 2.30171C19.966 1.81996 20.7689 1.76643 21.3042 2.19465L22.3213 2.99758C22.4283 3.10463 22.5354 3.05111 22.5889 2.99758C22.803 2.89052 22.9636 2.83699 23.1777 2.72994C23.2848 2.67641 23.3383 2.62288 23.3918 2.51582L23.6059 1.17762C23.7665 0.535281 24.3553 0 25.0512 0H25.9077C26.6035 0 27.1923 0.535281 27.2994 1.17762L27.5135 2.51582C27.5135 2.62288 27.6206 2.67641 27.6741 2.72994C27.8882 2.78346 28.0488 2.89052 28.2629 2.94405C28.3699 2.99758 28.4235 2.99758 28.5305 2.94405L29.6011 2.14113C30.1364 1.7129 30.9393 1.81996 31.4211 2.30171L32.0634 2.94405C32.5451 3.4258 32.5987 4.1752 32.224 4.76401L31.4211 5.83457C31.3675 5.94163 31.3675 6.04868 31.4211 6.10221C31.5281 6.26279 31.5816 6.47691 31.6887 6.69102C31.7422 6.79808 31.7957 6.8516 31.9028 6.8516L33.1875 7.06572C33.8833 7.17277 34.3651 7.76158 34.3651 8.45745V9.36743C34.3651 10.0633 33.8833 10.6521 33.1875 10.7592L31.9028 10.9733C31.7957 10.9733 31.7422 11.0803 31.6887 11.1339C31.6352 11.348 31.5281 11.5086 31.4746 11.7227C31.4211 11.8297 31.4211 11.9368 31.4746 12.0438L32.2775 13.1144C32.6522 13.6497 32.5987 14.3991 32.1704 14.9344L31.3675 15.5232C30.8858 16.0049 30.0828 16.0584 29.5476 15.6302L28.5305 14.8273C28.4235 14.7202 28.3164 14.7738 28.2629 14.8273C28.0488 14.9344 27.8882 14.9879 27.6741 15.0949C27.567 15.1485 27.5135 15.202 27.5135 15.3091L27.2994 16.6473C27.1923 17.2896 26.6035 17.8249 25.9077 17.8249ZM22.5354 13.7032C22.7495 13.7032 22.9636 13.7567 23.1242 13.8638C23.2848 13.9173 23.4454 14.0244 23.6059 14.0779C24.0877 14.2385 24.4089 14.6667 24.5159 15.1485L24.73 16.4867C24.73 16.6473 24.8906 16.7543 24.9977 16.7543H25.8541C26.0147 16.7543 26.1218 16.6473 26.1218 16.5402L26.3359 15.202C26.3894 14.7202 26.7641 14.292 27.2459 14.1314C27.4064 14.0779 27.567 14.0244 27.7276 13.9173C28.1558 13.7032 28.7446 13.7567 29.1729 14.0779L30.2434 14.8808C30.404 14.9879 30.5111 14.9344 30.6181 14.8273L31.2605 14.185C31.3675 14.0779 31.3675 13.9173 31.2605 13.8103L30.4575 12.7397C30.1364 12.3115 30.0828 11.7762 30.297 11.348C30.3505 11.1874 30.4575 11.0268 30.5111 10.8662C30.6717 10.3845 31.0999 10.0098 31.5816 9.95624L32.8663 9.74213C33.0269 9.74213 33.0804 9.58154 33.0804 9.47448V8.56451C33.0804 8.40392 32.9734 8.29686 32.8663 8.29686L31.5816 8.08275C31.0999 8.02922 30.6717 7.65453 30.5111 7.17277C30.4575 7.01219 30.404 6.8516 30.297 6.69102C30.0828 6.20927 30.1364 5.67399 30.404 5.24576L31.2069 4.1752C31.314 4.06814 31.2605 3.90756 31.2069 3.8005L30.5646 3.15816C30.5111 3.10463 30.404 3.05111 30.3505 3.05111C30.297 3.05111 30.2434 3.05111 30.1899 3.10463L29.1729 3.90756C28.7982 4.22872 28.2094 4.28225 27.7276 4.06814C27.567 4.01461 27.4064 3.90756 27.2459 3.85403C26.7641 3.69344 26.4429 3.26522 26.3359 2.78346L26.1218 1.44526C26.1218 1.28468 25.9612 1.17762 25.8541 1.17762H24.9977C24.8371 1.17762 24.73 1.28468 24.73 1.39173L24.5694 2.67641C24.5159 3.15816 24.1412 3.58639 23.6595 3.74697C23.4989 3.8005 23.3383 3.85403 23.1777 3.96108C22.7495 4.1752 22.1607 4.12167 21.7325 3.8005L20.6619 2.99758C20.5013 2.83699 20.3943 2.94405 20.2872 3.05111L19.6449 3.69344C19.5378 3.8005 19.5378 3.96108 19.6449 4.06814L20.4478 5.1387C20.7154 5.56693 20.7689 6.10221 20.5548 6.53044C20.5013 6.69102 20.3942 6.8516 20.3407 7.01219C20.1801 7.49394 19.7519 7.86864 19.2702 7.92217L17.9855 8.13628C17.8249 8.13628 17.7714 8.29687 17.7714 8.40392V9.3139C17.7714 9.47448 17.8784 9.58154 17.9855 9.58154L19.2702 9.79565C19.7519 9.84918 20.1801 10.2239 20.3407 10.7056C20.3942 10.8662 20.4478 11.0268 20.5548 11.1874C20.7689 11.6691 20.7154 12.2044 20.3942 12.6326L19.5913 13.7032C19.4843 13.8103 19.5378 13.9708 19.5913 14.0779L20.2337 14.7202C20.3407 14.8273 20.4478 14.8808 20.6084 14.7738L21.6789 13.9708C21.9466 13.8103 22.2677 13.7032 22.5354 13.7032Z" fill="url(#paint10_linear_4874_1957)"/>
<path d="M25.479 12.4716C23.4984 12.4716 21.8926 10.8658 21.8926 8.88522C21.8926 6.90467 23.4984 5.29883 25.479 5.29883C27.4595 5.29883 29.0654 6.90467 29.0654 8.88522C29.0654 10.8658 27.4595 12.4716 25.479 12.4716ZM25.479 6.42292C24.0872 6.42292 23.0167 7.54701 23.0167 8.88522C23.0167 10.2769 24.1408 11.3475 25.479 11.3475C26.8172 11.3475 27.9413 10.2234 27.9413 8.88522C27.9413 7.54701 26.8172 6.42292 25.479 6.42292Z" fill="url(#paint11_linear_4874_1957)"/>
<defs>
<linearGradient id="paint0_linear_4874_1957" x1="8.80538" y1="4.49609" x2="8.80538" y2="11.2406" gradientUnits="userSpaceOnUse">
<stop stop-color="#9B9DFA"/>
<stop offset="1" stop-color="#EDB8FD"/>
</linearGradient>
<linearGradient id="paint1_linear_4874_1957" x1="15.2823" y1="10.1172" x2="15.2823" y2="31.0467" gradientUnits="userSpaceOnUse">
<stop stop-color="#9B9DFA"/>
<stop offset="1" stop-color="#EDB8FD"/>
</linearGradient>
<linearGradient id="paint2_linear_4874_1957" x1="4.22956" y1="7.33301" x2="4.22956" y2="8.40357" gradientUnits="userSpaceOnUse">
<stop stop-color="#9B9DFA"/>
<stop offset="1" stop-color="#EDB8FD"/>
</linearGradient>
<linearGradient id="paint3_linear_4874_1957" x1="6.85065" y1="7.33301" x2="6.85065" y2="8.40357" gradientUnits="userSpaceOnUse">
<stop stop-color="#9B9DFA"/>
<stop offset="1" stop-color="#EDB8FD"/>
</linearGradient>
<linearGradient id="paint4_linear_4874_1957" x1="9.4737" y1="7.33301" x2="9.4737" y2="8.40357" gradientUnits="userSpaceOnUse">
<stop stop-color="#9B9DFA"/>
<stop offset="1" stop-color="#EDB8FD"/>
</linearGradient>
<linearGradient id="paint5_linear_4874_1957" x1="9.26029" y1="12.9541" x2="9.26029" y2="20.9298" gradientUnits="userSpaceOnUse">
<stop stop-color="#9B9DFA"/>
<stop offset="1" stop-color="#EDB8FD"/>
</linearGradient>
<linearGradient id="paint6_linear_4874_1957" x1="18.4937" y1="16.54" x2="18.4937" y2="17.6106" gradientUnits="userSpaceOnUse">
<stop stop-color="#9B9DFA"/>
<stop offset="1" stop-color="#EDB8FD"/>
</linearGradient>
<linearGradient id="paint7_linear_4874_1957" x1="22.4281" y1="20.0732" x2="22.4281" y2="21.1438" gradientUnits="userSpaceOnUse">
<stop stop-color="#9B9DFA"/>
<stop offset="1" stop-color="#EDB8FD"/>
</linearGradient>
<linearGradient id="paint8_linear_4874_1957" x1="15.309" y1="23.6055" x2="15.309" y2="24.676" gradientUnits="userSpaceOnUse">
<stop stop-color="#9B9DFA"/>
<stop offset="1" stop-color="#EDB8FD"/>
</linearGradient>
<linearGradient id="paint9_linear_4874_1957" x1="15.309" y1="27.1387" x2="15.309" y2="28.2092" gradientUnits="userSpaceOnUse">
<stop stop-color="#9B9DFA"/>
<stop offset="1" stop-color="#EDB8FD"/>
</linearGradient>
<linearGradient id="paint10_linear_4874_1957" x1="25.4794" y1="0" x2="25.4794" y2="17.8249" gradientUnits="userSpaceOnUse">
<stop stop-color="#9B9DFA"/>
<stop offset="1" stop-color="#EDB8FD"/>
</linearGradient>
<linearGradient id="paint11_linear_4874_1957" x1="25.479" y1="5.29883" x2="25.479" y2="12.4716" gradientUnits="userSpaceOnUse">
<stop stop-color="#9B9DFA"/>
<stop offset="1" stop-color="#EDB8FD"/>
</linearGradient>
</defs>
</svg>
