<?xml version="1.0" encoding="UTF-8"?>
<!DOCTYPE svg PUBLIC "-//W3C//DTD SVG 1.1//EN" "http://www.w3.org/Graphics/SVG/1.1/DTD/svg11.dtd">
<svg xmlns="http://www.w3.org/2000/svg" version="1.1" width="128px" height="128px" style="shape-rendering:geometricPrecision; text-rendering:geometricPrecision; image-rendering:optimizeQuality; fill-rule:evenodd; clip-rule:evenodd" xmlns:xlink="http://www.w3.org/1999/xlink">
<g><path style="opacity:1" fill="#f1f4fa" d="M 57.5,3.5 C 61.5,3.5 65.5,3.5 69.5,3.5C 69.5,6.16667 69.5,8.83333 69.5,11.5C 69.5,12.5 69.5,13.5 69.5,14.5C 65.5,14.5 61.5,14.5 57.5,14.5C 57.5,10.8333 57.5,7.16667 57.5,3.5 Z"/></g>
<g><path style="opacity:0.885" fill="#184ea7" d="M -0.5,-0.5 C 5.83333,-0.5 12.1667,-0.5 18.5,-0.5C 18.5,1.83333 18.5,4.16667 18.5,6.5C 30.1667,6.5 41.8333,6.5 53.5,6.5C 53.5,5.5 53.5,4.5 53.5,3.5C 54.8333,3.5 56.1667,3.5 57.5,3.5C 57.5,7.16667 57.5,10.8333 57.5,14.5C 61.5,14.5 65.5,14.5 69.5,14.5C 69.5,13.5 69.5,12.5 69.5,11.5C 70.8333,11.5 72.1667,11.5 73.5,11.5C 73.5,13.8333 73.5,16.1667 73.5,18.5C 66.8333,18.5 60.1667,18.5 53.5,18.5C 53.5,16.1667 53.5,13.8333 53.5,11.5C 41.8333,11.5 30.1667,11.5 18.5,11.5C 18.5,13.8333 18.5,16.1667 18.5,18.5C 16.1667,18.5 13.8333,18.5 11.5,18.5C 11.5,24.5 11.5,30.5 11.5,36.5C 9.70848,36.634 8.04181,36.3007 6.5,35.5C 6.5,29.8333 6.5,24.1667 6.5,18.5C 4.16667,18.5 1.83333,18.5 -0.5,18.5C -0.5,12.1667 -0.5,5.83333 -0.5,-0.5 Z"/></g>
<g><path style="opacity:1" fill="#fefffe" d="M 3.5,3.5 C 7.16667,3.5 10.8333,3.5 14.5,3.5C 14.5,7.16667 14.5,10.8333 14.5,14.5C 10.8333,14.5 7.16667,14.5 3.5,14.5C 3.5,10.8333 3.5,7.16667 3.5,3.5 Z"/></g>
<g><path style="opacity:0.885" fill="#184fa8" d="M 53.5,-0.5 C 60.1667,-0.5 66.8333,-0.5 73.5,-0.5C 73.5,1.83333 73.5,4.16667 73.5,6.5C 85.1667,6.5 96.8333,6.5 108.5,6.5C 108.5,4.16667 108.5,1.83333 108.5,-0.5C 114.833,-0.5 121.167,-0.5 127.5,-0.5C 127.5,5.83333 127.5,12.1667 127.5,18.5C 125.167,18.5 122.833,18.5 120.5,18.5C 120.5,24.1667 120.5,29.8333 120.5,35.5C 118.958,36.3007 117.292,36.634 115.5,36.5C 115.5,30.5 115.5,24.5 115.5,18.5C 113.167,18.5 110.833,18.5 108.5,18.5C 108.5,16.1667 108.5,13.8333 108.5,11.5C 96.8333,11.5 85.1667,11.5 73.5,11.5C 72.1667,11.5 70.8333,11.5 69.5,11.5C 69.5,8.83333 69.5,6.16667 69.5,3.5C 65.5,3.5 61.5,3.5 57.5,3.5C 56.1667,3.5 54.8333,3.5 53.5,3.5C 53.5,2.16667 53.5,0.833333 53.5,-0.5 Z"/></g>
<g><path style="opacity:1" fill="#fefffe" d="M 112.5,3.5 C 116.167,3.5 119.833,3.5 123.5,3.5C 123.5,7.16667 123.5,10.8333 123.5,14.5C 119.833,14.5 116.167,14.5 112.5,14.5C 112.5,10.8333 112.5,7.16667 112.5,3.5 Z"/></g>
<g><path style="opacity:0.596" fill="#534aab" d="M 6.5,35.5 C 8.04181,36.3007 9.70848,36.634 11.5,36.5C 11.5,42.1667 11.5,47.8333 11.5,53.5C 13.8333,53.5 16.1667,53.5 18.5,53.5C 18.5,55.1667 18.5,56.8333 18.5,58.5C 17.0413,58.5674 15.7079,58.2341 14.5,57.5C 10.8333,57.5 7.16667,57.5 3.5,57.5C 3.5,61.5 3.5,65.5 3.5,69.5C 2.51836,66.0381 2.18503,62.3714 2.5,58.5C 1.5,58.5 0.5,58.5 -0.5,58.5C -0.5,56.8333 -0.5,55.1667 -0.5,53.5C 1.83333,53.5 4.16667,53.5 6.5,53.5C 6.5,47.5 6.5,41.5 6.5,35.5 Z"/></g>
<g><path style="opacity:0.927" fill="#6349ae" d="M 106.5,78.5 C 104.5,78.5 102.5,78.5 100.5,78.5C 97.7861,75.7846 94.7861,73.4512 91.5,71.5C 85.5102,65.5135 79.1768,59.8469 72.5,54.5C 71.5033,61.1335 71.17,67.8002 71.5,74.5C 70.1667,74.5 68.8333,74.5 67.5,74.5C 67.3601,64.4174 67.3601,54.4174 67.5,44.5C 80.7591,55.615 93.7591,66.9484 106.5,78.5 Z"/></g>
<g><path style="opacity:0.596" fill="#534aab" d="M 120.5,35.5 C 120.5,41.5 120.5,47.5 120.5,53.5C 122.833,53.5 125.167,53.5 127.5,53.5C 127.5,55.1667 127.5,56.8333 127.5,58.5C 126.5,58.5 125.5,58.5 124.5,58.5C 124.815,62.3714 124.482,66.0381 123.5,69.5C 123.5,65.5 123.5,61.5 123.5,57.5C 119.833,57.5 116.167,57.5 112.5,57.5C 111.292,58.2341 109.959,58.5674 108.5,58.5C 108.5,56.8333 108.5,55.1667 108.5,53.5C 110.833,53.5 113.167,53.5 115.5,53.5C 115.5,47.8333 115.5,42.1667 115.5,36.5C 117.292,36.634 118.958,36.3007 120.5,35.5 Z"/></g>
<g><path style="opacity:1" fill="#f7f5fa" d="M 14.5,57.5 C 14.5,61.5 14.5,65.5 14.5,69.5C 10.8333,69.5 7.16667,69.5 3.5,69.5C 3.5,65.5 3.5,61.5 3.5,57.5C 7.16667,57.5 10.8333,57.5 14.5,57.5 Z"/></g>
<g><path style="opacity:1" fill="#f7f5fa" d="M 112.5,57.5 C 116.167,57.5 119.833,57.5 123.5,57.5C 123.5,61.5 123.5,65.5 123.5,69.5C 119.833,69.5 116.167,69.5 112.5,69.5C 112.5,65.5 112.5,61.5 112.5,57.5 Z"/></g>
<g><path style="opacity:0.977" fill="#6c47ac" d="M 14.5,57.5 C 15.7079,58.2341 17.0413,58.5674 18.5,58.5C 18.5,63.5 18.5,68.5 18.5,73.5C 16.1667,73.5 13.8333,73.5 11.5,73.5C 11.5,75.5 11.5,77.5 11.5,79.5C 9.95819,78.6993 8.29152,78.366 6.5,78.5C 6.5,76.8333 6.5,75.1667 6.5,73.5C 4.16667,73.5 1.83333,73.5 -0.5,73.5C -0.5,68.5 -0.5,63.5 -0.5,58.5C 0.5,58.5 1.5,58.5 2.5,58.5C 2.18503,62.3714 2.51836,66.0381 3.5,69.5C 7.16667,69.5 10.8333,69.5 14.5,69.5C 14.5,65.5 14.5,61.5 14.5,57.5 Z"/></g>
<g><path style="opacity:0.977" fill="#6c47ac" d="M 112.5,57.5 C 112.5,61.5 112.5,65.5 112.5,69.5C 116.167,69.5 119.833,69.5 123.5,69.5C 124.482,66.0381 124.815,62.3714 124.5,58.5C 125.5,58.5 126.5,58.5 127.5,58.5C 127.5,63.5 127.5,68.5 127.5,73.5C 125.167,73.5 122.833,73.5 120.5,73.5C 120.5,75.1667 120.5,76.8333 120.5,78.5C 118.708,78.366 117.042,78.6993 115.5,79.5C 115.5,77.5 115.5,75.5 115.5,73.5C 113.167,73.5 110.833,73.5 108.5,73.5C 108.5,68.5 108.5,63.5 108.5,58.5C 109.959,58.5674 111.292,58.2341 112.5,57.5 Z"/></g>
<g><path style="opacity:1" fill="#c5b0fa" d="M 91.5,71.5 C 85.1667,71.5 78.8333,71.5 72.5,71.5C 72.176,78.3543 72.5093,85.021 73.5,91.5C 73.2172,92.2891 72.7172,92.9558 72,93.5C 71.5005,87.1754 71.3338,80.8421 71.5,74.5C 71.17,67.8002 71.5033,61.1335 72.5,54.5C 79.1768,59.8469 85.5102,65.5135 91.5,71.5 Z"/></g>
<g><path style="opacity:1" fill="#dabbfe" d="M 91.5,71.5 C 94.7861,73.4512 97.7861,75.7846 100.5,78.5C 95.0149,79.3272 89.3482,79.8272 83.5,80C 80.3016,84.0261 76.9683,87.8595 73.5,91.5C 72.5093,85.021 72.176,78.3543 72.5,71.5C 78.8333,71.5 85.1667,71.5 91.5,71.5 Z"/></g>
<g><path style="opacity:0.929" fill="#8b48b0" d="M 67.5,74.5 C 68.8333,74.5 70.1667,74.5 71.5,74.5C 71.3338,80.8421 71.5005,87.1754 72,93.5C 72.7172,92.9558 73.2172,92.2891 73.5,91.5C 76.9683,87.8595 80.3016,84.0261 83.5,80C 89.3482,79.8272 95.0149,79.3272 100.5,78.5C 102.5,78.5 104.5,78.5 106.5,78.5C 108.148,79.8098 109.814,81.1431 111.5,82.5C 102.836,83.3528 94.169,84.1862 85.5,85C 79.9892,91.3427 74.3226,97.5093 68.5,103.5C 67.5016,93.8563 67.1682,84.1896 67.5,74.5 Z"/></g>
<g><path style="opacity:0.9" fill="#9f44af" d="M 6.5,78.5 C 8.29152,78.366 9.95819,78.6993 11.5,79.5C 11.5,89.1667 11.5,98.8333 11.5,108.5C 14.3878,107.99 16.7211,108.656 18.5,110.5C 12.1667,110.5 5.83333,110.5 -0.5,110.5C -0.5,109.833 -0.5,109.167 -0.5,108.5C 1.83333,108.5 4.16667,108.5 6.5,108.5C 6.5,98.5 6.5,88.5 6.5,78.5 Z"/></g>
<g><path style="opacity:0.9" fill="#9f44af" d="M 120.5,78.5 C 120.5,88.5 120.5,98.5 120.5,108.5C 122.833,108.5 125.167,108.5 127.5,108.5C 127.5,109.167 127.5,109.833 127.5,110.5C 121.167,110.5 114.833,110.5 108.5,110.5C 110.279,108.656 112.612,107.99 115.5,108.5C 115.5,98.8333 115.5,89.1667 115.5,79.5C 117.042,78.6993 118.708,78.366 120.5,78.5 Z"/></g>
<g><path style="opacity:1" fill="#fefffe" d="M 14.5,117.5 C 14.5,119.5 14.5,121.5 14.5,123.5C 10.8333,123.5 7.16667,123.5 3.5,123.5C 3.5,119.833 3.5,116.167 3.5,112.5C 7.16667,112.5 10.8333,112.5 14.5,112.5C 14.5,114.167 14.5,115.833 14.5,117.5 Z"/></g>
<g><path style="opacity:1" fill="#fbf4fa" d="M 69.5,114.5 C 69.5,115.833 69.5,117.167 69.5,118.5C 69.5,120.167 69.5,121.833 69.5,123.5C 65.5,123.5 61.5,123.5 57.5,123.5C 57.5,121.833 57.5,120.167 57.5,118.5C 57.5,116.5 57.5,114.5 57.5,112.5C 61.9707,111.911 65.9707,112.577 69.5,114.5 Z"/></g>
<g><path style="opacity:1" fill="#fefffe" d="M 123.5,123.5 C 119.833,123.5 116.167,123.5 112.5,123.5C 112.5,121.5 112.5,119.5 112.5,117.5C 112.5,115.833 112.5,114.167 112.5,112.5C 116.167,112.5 119.833,112.5 123.5,112.5C 123.5,116.167 123.5,119.833 123.5,123.5 Z"/></g>
<g><path style="opacity:0.793" fill="#b644b1" d="M 73.5,113.5 C 72.2921,114.234 70.9587,114.567 69.5,114.5C 65.9707,112.577 61.9707,111.911 57.5,112.5C 57.5,114.5 57.5,116.5 57.5,118.5C 43.0882,118.816 28.7548,118.482 14.5,117.5C 14.5,115.833 14.5,114.167 14.5,112.5C 10.8333,112.5 7.16667,112.5 3.5,112.5C 3.5,116.167 3.5,119.833 3.5,123.5C 2.52333,120.713 2.19,117.713 2.5,114.5C 1.5,114.5 0.5,114.5 -0.5,114.5C -0.5,113.167 -0.5,111.833 -0.5,110.5C 5.83333,110.5 12.1667,110.5 18.5,110.5C 18.5,112.167 18.5,113.833 18.5,115.5C 30.1667,115.5 41.8333,115.5 53.5,115.5C 53.5,113.167 53.5,110.833 53.5,108.5C 60.1667,108.5 66.8333,108.5 73.5,108.5C 73.5,110.167 73.5,111.833 73.5,113.5 Z"/></g>
<g><path style="opacity:0.793" fill="#b845b1" d="M 108.5,110.5 C 114.833,110.5 121.167,110.5 127.5,110.5C 127.5,111.833 127.5,113.167 127.5,114.5C 126.5,114.5 125.5,114.5 124.5,114.5C 124.81,117.713 124.477,120.713 123.5,123.5C 123.5,119.833 123.5,116.167 123.5,112.5C 119.833,112.5 116.167,112.5 112.5,112.5C 112.5,114.167 112.5,115.833 112.5,117.5C 98.2452,118.482 83.9118,118.816 69.5,118.5C 69.5,117.167 69.5,115.833 69.5,114.5C 70.9587,114.567 72.2921,114.234 73.5,113.5C 84.7854,115.478 96.4521,116.145 108.5,115.5C 108.5,113.833 108.5,112.167 108.5,110.5 Z"/></g>
<g><path style="opacity:0.788" fill="#c245b2" d="M -0.5,114.5 C 0.5,114.5 1.5,114.5 2.5,114.5C 2.19,117.713 2.52333,120.713 3.5,123.5C 7.16667,123.5 10.8333,123.5 14.5,123.5C 14.5,121.5 14.5,119.5 14.5,117.5C 28.7548,118.482 43.0882,118.816 57.5,118.5C 57.5,120.167 57.5,121.833 57.5,123.5C 61.5,123.5 65.5,123.5 69.5,123.5C 69.5,121.833 69.5,120.167 69.5,118.5C 83.9118,118.816 98.2452,118.482 112.5,117.5C 112.5,119.5 112.5,121.5 112.5,123.5C 116.167,123.5 119.833,123.5 123.5,123.5C 124.477,120.713 124.81,117.713 124.5,114.5C 125.5,114.5 126.5,114.5 127.5,114.5C 127.5,118.833 127.5,123.167 127.5,127.5C 121.167,127.5 114.833,127.5 108.5,127.5C 108.5,125.167 108.5,122.833 108.5,120.5C 96.8333,120.5 85.1667,120.5 73.5,120.5C 73.5,122.833 73.5,125.167 73.5,127.5C 66.8333,127.5 60.1667,127.5 53.5,127.5C 53.5,125.167 53.5,122.833 53.5,120.5C 41.8333,120.5 30.1667,120.5 18.5,120.5C 18.5,122.833 18.5,125.167 18.5,127.5C 12.1667,127.5 5.83333,127.5 -0.5,127.5C -0.5,123.167 -0.5,118.833 -0.5,114.5 Z"/></g>
</svg>
