<svg width="500" height="351" viewBox="0 0 500 351" fill="none" xmlns="http://www.w3.org/2000/svg">
<mask id="mask0_4847_1015" style="mask-type:alpha" maskUnits="userSpaceOnUse" x="0" y="0" width="500" height="351">
<rect width="500" height="351" rx="5" fill="#2A1F88"/>
</mask>
<g mask="url(#mask0_4847_1015)">
<path d="M11.6517 -73.5121C-5.92339 -9.25927 -106.156 35.7053 -135.001 73.9746C-161.397 109.009 -163.007 174.104 -148.325 221.696C-133.646 269.304 -84.234 307.316 -35.1225 298.458C-13.7515 294.595 5.50986 282.83 26.8186 278.644C95.0267 265.26 152.432 330.246 219.941 346.621C297.755 365.494 377.24 316.102 427.96 254.176C460.219 214.797 485.97 167.12 485.983 116.273C485.991 65.4368 454.1 12.399 404.547 0.704046C359.896 -9.83609 301.285 9.17074 274.956 -28.3176C256.533 -54.5269 269.129 -90.4634 265.594 -122.296C260.045 -172.172 210.739 -210.085 160.519 -212.33C110.293 -214.569 67.1989 -205.738 42.3348 -162.088C30.7309 -141.718 17.835 -96.1144 11.6517 -73.5121Z" fill="#22196E"/>
</g>
</svg>
