<svg width="21" height="21" viewBox="0 0 21 21" fill="none" xmlns="http://www.w3.org/2000/svg">
<path id="Vector" d="M6.5915 13.6632C6.79169 13.8637 7.02755 13.9641 7.29908 13.9643C7.56967 13.9645 7.80521 13.8645 8.00571 13.6643L10.1287 11.5446L12.266 13.6853C12.4662 13.8858 12.699 13.9831 12.9644 13.9771C13.2293 13.9717 13.4621 13.8689 13.6626 13.6687C13.8631 13.4685 13.9634 13.2326 13.9636 12.9611C13.9638 12.6905 13.8638 12.455 13.6637 12.2545L11.544 10.1315L13.6846 7.99415C13.8851 7.79395 13.9826 7.56139 13.9772 7.29646C13.9713 7.03105 13.8682 6.7981 13.668 6.5976C13.4678 6.3971 13.2324 6.29674 12.9618 6.29653C12.6903 6.29633 12.4543 6.39632 12.2538 6.59651L10.1308 8.7162L7.99348 6.57556C7.79329 6.37506 7.56073 6.27753 7.2958 6.28298C7.03039 6.28891 6.79744 6.39197 6.59694 6.59216C6.39643 6.79235 6.29608 7.02774 6.29587 7.29833C6.29566 7.56986 6.39566 7.80587 6.59585 8.00637L8.71554 10.1293L6.57489 12.2667C6.37439 12.4669 6.2771 12.6997 6.28303 12.9651C6.28848 13.23 6.3913 13.4627 6.5915 13.6632ZM3.05325 17.196C2.07583 16.2171 1.34318 15.1116 0.855281 13.8794C0.366909 12.6477 0.123213 11.3955 0.124192 10.1227C0.12517 8.84993 0.370793 7.59806 0.861058 6.36713C1.35085 5.13573 2.08521 4.03132 3.06412 3.05391C4.04304 2.0765 5.14857 1.34384 6.38073 0.855943C7.61241 0.367572 8.86465 0.123876 10.1374 0.124855C11.4102 0.125834 12.6623 0.37122 13.8937 0.861013C15.1247 1.35128 16.2288 2.08587 17.2063 3.06478C18.1837 4.0437 18.9166 5.149 19.4049 6.38069C19.8928 7.61284 20.1363 8.86532 20.1353 10.1381C20.1343 11.4109 19.8887 12.6628 19.3984 13.8937C18.9086 15.1251 18.1743 16.2295 17.1954 17.2069C16.2165 18.1843 15.1109 18.917 13.8788 19.4049C12.6471 19.8933 11.3948 20.1369 10.1221 20.136C8.84926 20.135 7.5974 19.8894 6.36647 19.3991C5.13507 18.9093 4.03066 18.175 3.05325 17.196Z" fill="#0145FD"/>
</svg>
