<svg width="347" height="284" viewBox="0 0 347 284" fill="none" xmlns="http://www.w3.org/2000/svg">
<path d="M329.861 3H16.4471C8.77495 3 3 9.6576 3 17.3247V266.3C3 273.98 8.77667 280.625 16.4471 280.625H329.861C337.505 280.625 343.308 273.996 343.308 266.3V17.3247C343.308 9.64124 337.506 3 329.861 3Z" stroke="url(#paint0_linear_5008_1917)" stroke-width="6"/>
<path d="M34.3989 56.8213H312.351C316.026 56.8213 318.621 59.5395 318.621 62.4291V251.801C318.621 254.689 316.028 257.409 312.341 257.409H34.3989C30.7237 257.409 28.1289 254.691 28.1289 251.801V62.4291C28.1289 59.5395 30.7237 56.8213 34.3989 56.8213Z" stroke="url(#paint1_linear_5008_1917)" stroke-width="6"/>
<path d="M319.412 26.8944C319.412 29.6651 318.311 32.3224 316.352 34.2816C314.393 36.2408 311.735 37.3415 308.965 37.3415C306.194 37.3415 303.537 36.2408 301.577 34.2816C299.618 32.3224 298.518 29.6651 298.518 26.8944C298.518 24.1236 299.618 21.4664 301.577 19.5072C303.537 17.5479 306.194 16.4473 308.965 16.4473C311.735 16.4473 314.393 17.5479 316.352 19.5072C318.311 21.4664 319.412 24.1236 319.412 26.8944Z" fill="#91B3FA"/>
<path d="M288.072 26.8944C288.072 29.6651 286.971 32.3224 285.012 34.2816C283.052 36.2408 280.395 37.3415 277.624 37.3415C274.854 37.3415 272.196 36.2408 270.237 34.2816C268.278 32.3224 267.177 29.6651 267.177 26.8944C267.177 24.1236 268.278 21.4664 270.237 19.5072C272.196 17.5479 274.854 16.4473 277.624 16.4473C280.395 16.4473 283.052 17.5479 285.012 19.5072C286.971 21.4664 288.072 24.1236 288.072 26.8944ZM256.73 26.8944C256.73 29.6651 255.629 32.3224 253.67 34.2816C251.711 36.2408 249.054 37.3415 246.283 37.3415C243.512 37.3415 240.855 36.2408 238.896 34.2816C236.937 32.3224 235.836 29.6651 235.836 26.8944C235.836 24.1236 236.937 21.4664 238.896 19.5072C240.855 17.5479 243.512 16.4473 246.283 16.4473C249.054 16.4473 251.711 17.5479 253.67 19.5072C255.629 21.4664 256.73 24.1236 256.73 26.8944Z" fill="#EFF0F2"/>
<path d="M130.561 131.198C130.605 132.573 130.372 133.944 129.876 135.227C129.38 136.511 128.631 137.682 127.673 138.67C126.716 139.659 125.57 140.445 124.302 140.982C123.035 141.518 121.673 141.795 120.297 141.795C118.921 141.795 117.559 141.518 116.291 140.982C115.024 140.445 113.878 139.659 112.92 138.67C111.963 137.682 111.214 136.511 110.718 135.227C110.222 133.944 109.989 132.573 110.033 131.198C110.118 128.532 111.236 126.004 113.152 124.149C115.068 122.293 117.63 121.256 120.297 121.256C122.964 121.256 125.526 122.293 127.442 124.149C129.357 126.004 130.476 128.532 130.561 131.198ZM235.262 131.198C235.306 132.573 235.073 133.944 234.577 135.227C234.081 136.511 233.332 137.682 232.374 138.67C231.417 139.659 230.271 140.445 229.003 140.982C227.736 141.518 226.374 141.795 224.998 141.795C223.622 141.795 222.26 141.518 220.992 140.982C219.725 140.445 218.579 139.659 217.621 138.67C216.664 137.682 215.915 136.511 215.419 135.227C214.923 133.944 214.69 132.573 214.734 131.198C214.819 128.532 215.937 126.004 217.853 124.149C219.769 122.293 222.331 121.256 224.998 121.256C227.665 121.256 230.227 122.293 232.143 124.149C234.058 126.004 235.177 128.532 235.262 131.198ZM204.495 183.601C204.5 187.716 203.693 191.793 202.122 195.597C200.55 199.401 198.245 202.858 195.338 205.771C192.43 208.685 188.978 210.997 185.177 212.576C181.376 214.154 177.301 214.969 173.185 214.973C169.07 214.977 164.993 214.171 161.189 212.6C157.385 211.028 153.928 208.723 151.015 205.816C148.101 202.908 145.789 199.456 144.21 195.655C142.632 191.854 141.817 187.779 141.813 183.663V183.559" fill="#FFB400"/>
<defs>
<linearGradient id="paint0_linear_5008_1917" x1="173.154" y1="6" x2="173.154" y2="277.625" gradientUnits="userSpaceOnUse">
<stop stop-color="#9B9DFA"/>
<stop offset="1" stop-color="#EDB8FD"/>
</linearGradient>
<linearGradient id="paint1_linear_5008_1917" x1="173.375" y1="53.8213" x2="173.375" y2="260.409" gradientUnits="userSpaceOnUse">
<stop stop-color="#9B9DFA"/>
<stop offset="1" stop-color="#EDB8FD"/>
</linearGradient>
</defs>
</svg>
