<svg width="251" height="210" viewBox="0 0 251 210" fill="none" xmlns="http://www.w3.org/2000/svg">
<circle cx="4.2" cy="4.2" r="4.2" fill="#FDFDFD"/>
<circle cx="4.2" cy="84.8401" r="4.2" fill="#FDFDFD"/>
<circle cx="4.2" cy="44.5198" r="4.2" fill="#FDFDFD"/>
<circle cx="4.2" cy="125.16" r="4.2" fill="#FDFDFD"/>
<circle cx="4.2" cy="185.64" r="4.2" fill="#FDFDFD"/>
<circle cx="4.2" cy="24.3602" r="4.2" fill="#FDFDFD"/>
<circle cx="4.2" cy="105" r="4.2" fill="#FDFDFD"/>
<circle cx="4.2" cy="165.48" r="4.2" fill="#FDFDFD"/>
<circle cx="4.2" cy="64.68" r="4.2" fill="#FDFDFD"/>
<circle cx="4.2" cy="145.32" r="4.2" fill="#FDFDFD"/>
<circle cx="4.2" cy="205.8" r="4.2" fill="#FDFDFD"/>
<circle cx="24.3602" cy="4.2" r="4.2" fill="#FDFDFD"/>
<circle cx="24.3602" cy="84.8401" r="4.2" fill="#FDFDFD"/>
<circle cx="24.3602" cy="44.5198" r="4.2" fill="#FDFDFD"/>
<circle cx="24.3602" cy="125.16" r="4.2" fill="#FDFDFD"/>
<circle cx="24.3602" cy="185.64" r="4.2" fill="#FDFDFD"/>
<circle cx="24.3602" cy="24.3602" r="4.2" fill="#FDFDFD"/>
<circle cx="24.3602" cy="105" r="4.2" fill="#FDFDFD"/>
<circle cx="24.3602" cy="165.48" r="4.2" fill="#FDFDFD"/>
<circle cx="24.3602" cy="64.68" r="4.2" fill="#FDFDFD"/>
<circle cx="24.3602" cy="145.32" r="4.2" fill="#FDFDFD"/>
<circle cx="24.3602" cy="205.8" r="4.2" fill="#FDFDFD"/>
<circle cx="44.5203" cy="4.2" r="4.2" fill="#FDFDFD"/>
<circle cx="44.5203" cy="84.8401" r="4.2" fill="#FDFDFD"/>
<circle cx="44.5203" cy="44.5198" r="4.2" fill="#FDFDFD"/>
<circle cx="44.5203" cy="125.16" r="4.2" fill="#FDFDFD"/>
<circle cx="44.5203" cy="185.64" r="4.2" fill="#FDFDFD"/>
<circle cx="44.5203" cy="24.3602" r="4.2" fill="#FDFDFD"/>
<circle cx="44.5203" cy="105" r="4.2" fill="#FDFDFD"/>
<circle cx="44.5203" cy="165.48" r="4.2" fill="#FDFDFD"/>
<circle cx="44.5203" cy="64.68" r="4.2" fill="#FDFDFD"/>
<circle cx="44.5203" cy="145.32" r="4.2" fill="#FDFDFD"/>
<circle cx="44.5203" cy="205.8" r="4.2" fill="#FDFDFD"/>
<circle cx="64.6805" cy="4.2" r="4.2" fill="#FDFDFD"/>
<circle cx="64.6805" cy="84.8401" r="4.2" fill="#FDFDFD"/>
<circle cx="64.6805" cy="44.5198" r="4.2" fill="#FDFDFD"/>
<circle cx="64.6805" cy="125.16" r="4.2" fill="#FDFDFD"/>
<circle cx="64.6805" cy="185.64" r="4.2" fill="#FDFDFD"/>
<circle cx="64.6805" cy="24.3602" r="4.2" fill="#FDFDFD"/>
<circle cx="64.6805" cy="105" r="4.2" fill="#FDFDFD"/>
<circle cx="64.6805" cy="165.48" r="4.2" fill="#FDFDFD"/>
<circle cx="64.6805" cy="64.68" r="4.2" fill="#FDFDFD"/>
<circle cx="64.6805" cy="145.32" r="4.2" fill="#FDFDFD"/>
<circle cx="64.6805" cy="205.8" r="4.2" fill="#FDFDFD"/>
<circle cx="84.8406" cy="4.2" r="4.2" fill="#FDFDFD"/>
<circle cx="84.8406" cy="84.8401" r="4.2" fill="#FDFDFD"/>
<circle cx="84.8406" cy="44.5198" r="4.2" fill="#FDFDFD"/>
<circle cx="84.8406" cy="125.16" r="4.2" fill="#FDFDFD"/>
<circle cx="84.8406" cy="185.64" r="4.2" fill="#FDFDFD"/>
<circle cx="84.8406" cy="24.3602" r="4.2" fill="#FDFDFD"/>
<circle cx="84.8406" cy="105" r="4.2" fill="#FDFDFD"/>
<circle cx="84.8406" cy="165.48" r="4.2" fill="#FDFDFD"/>
<circle cx="84.8406" cy="64.68" r="4.2" fill="#FDFDFD"/>
<circle cx="84.8406" cy="145.32" r="4.2" fill="#FDFDFD"/>
<circle cx="84.8406" cy="205.8" r="4.2" fill="#FDFDFD"/>
<circle cx="105.001" cy="4.2" r="4.2" fill="#FDFDFD"/>
<circle cx="105.001" cy="84.8401" r="4.2" fill="#FDFDFD"/>
<circle cx="105.001" cy="44.5198" r="4.2" fill="#FDFDFD"/>
<circle cx="105.001" cy="125.16" r="4.2" fill="#FDFDFD"/>
<circle cx="105.001" cy="185.64" r="4.2" fill="#FDFDFD"/>
<circle cx="105.001" cy="24.3602" r="4.2" fill="#FDFDFD"/>
<circle cx="105.001" cy="105" r="4.2" fill="#FDFDFD"/>
<circle cx="105.001" cy="165.48" r="4.2" fill="#FDFDFD"/>
<circle cx="105.001" cy="64.68" r="4.2" fill="#FDFDFD"/>
<circle cx="105.001" cy="145.32" r="4.2" fill="#FDFDFD"/>
<circle cx="105.001" cy="205.8" r="4.2" fill="#FDFDFD"/>
<circle cx="125.161" cy="4.2" r="4.2" fill="#FDFDFD"/>
<circle cx="125.161" cy="84.8401" r="4.2" fill="#FDFDFD"/>
<circle cx="125.161" cy="44.5198" r="4.2" fill="#FDFDFD"/>
<circle cx="125.161" cy="125.16" r="4.2" fill="#FDFDFD"/>
<circle cx="125.161" cy="185.64" r="4.2" fill="#FDFDFD"/>
<circle cx="125.161" cy="24.3602" r="4.2" fill="#FDFDFD"/>
<circle cx="125.161" cy="105" r="4.2" fill="#FDFDFD"/>
<circle cx="125.161" cy="165.48" r="4.2" fill="#FDFDFD"/>
<circle cx="125.161" cy="64.68" r="4.2" fill="#FDFDFD"/>
<circle cx="125.161" cy="145.32" r="4.2" fill="#FDFDFD"/>
<circle cx="125.161" cy="205.8" r="4.2" fill="#FDFDFD"/>
<circle cx="145.319" cy="4.2" r="4.2" fill="#FDFDFD"/>
<circle cx="145.319" cy="84.8401" r="4.2" fill="#FDFDFD"/>
<circle cx="145.319" cy="44.5198" r="4.2" fill="#FDFDFD"/>
<circle cx="145.319" cy="125.16" r="4.2" fill="#FDFDFD"/>
<circle cx="145.319" cy="185.64" r="4.2" fill="#FDFDFD"/>
<circle cx="145.319" cy="24.3602" r="4.2" fill="#FDFDFD"/>
<circle cx="145.319" cy="105" r="4.2" fill="#FDFDFD"/>
<circle cx="145.319" cy="165.48" r="4.2" fill="#FDFDFD"/>
<circle cx="145.319" cy="64.68" r="4.2" fill="#FDFDFD"/>
<circle cx="145.319" cy="145.32" r="4.2" fill="#FDFDFD"/>
<circle cx="145.319" cy="205.8" r="4.2" fill="#FDFDFD"/>
<circle cx="165.479" cy="4.2" r="4.2" fill="#FDFDFD"/>
<circle cx="165.479" cy="84.8401" r="4.2" fill="#FDFDFD"/>
<circle cx="165.479" cy="44.5198" r="4.2" fill="#FDFDFD"/>
<circle cx="165.479" cy="125.16" r="4.2" fill="#FDFDFD"/>
<circle cx="165.479" cy="185.64" r="4.2" fill="#FDFDFD"/>
<circle cx="165.479" cy="24.3602" r="4.2" fill="#FDFDFD"/>
<circle cx="165.479" cy="105" r="4.2" fill="#FDFDFD"/>
<circle cx="165.479" cy="165.48" r="4.2" fill="#FDFDFD"/>
<circle cx="165.479" cy="64.68" r="4.2" fill="#FDFDFD"/>
<circle cx="165.479" cy="145.32" r="4.2" fill="#FDFDFD"/>
<circle cx="165.479" cy="205.8" r="4.2" fill="#FDFDFD"/>
<circle cx="185.639" cy="4.2" r="4.2" fill="#FDFDFD"/>
<circle cx="185.639" cy="84.8401" r="4.2" fill="#FDFDFD"/>
<circle cx="185.639" cy="44.5198" r="4.2" fill="#FDFDFD"/>
<circle cx="185.639" cy="125.16" r="4.2" fill="#FDFDFD"/>
<circle cx="185.639" cy="185.64" r="4.2" fill="#FDFDFD"/>
<circle cx="185.639" cy="24.3602" r="4.2" fill="#FDFDFD"/>
<circle cx="185.639" cy="105" r="4.2" fill="#FDFDFD"/>
<circle cx="185.639" cy="165.48" r="4.2" fill="#FDFDFD"/>
<circle cx="185.639" cy="64.68" r="4.2" fill="#FDFDFD"/>
<circle cx="185.639" cy="145.32" r="4.2" fill="#FDFDFD"/>
<circle cx="185.639" cy="205.8" r="4.2" fill="#FDFDFD"/>
<circle cx="205.8" cy="4.2" r="4.2" fill="#FDFDFD"/>
<circle cx="205.8" cy="84.8401" r="4.2" fill="#FDFDFD"/>
<circle cx="205.8" cy="44.5198" r="4.2" fill="#FDFDFD"/>
<circle cx="205.8" cy="125.16" r="4.2" fill="#FDFDFD"/>
<circle cx="205.8" cy="185.64" r="4.2" fill="#FDFDFD"/>
<circle cx="205.8" cy="24.3602" r="4.2" fill="#FDFDFD"/>
<circle cx="205.8" cy="105" r="4.2" fill="#FDFDFD"/>
<circle cx="205.8" cy="165.48" r="4.2" fill="#FDFDFD"/>
<circle cx="205.8" cy="64.68" r="4.2" fill="#FDFDFD"/>
<circle cx="205.8" cy="145.32" r="4.2" fill="#FDFDFD"/>
<circle cx="205.8" cy="205.8" r="4.2" fill="#FDFDFD"/>
<circle cx="225.96" cy="4.2" r="4.2" fill="#FDFDFD"/>
<circle cx="225.96" cy="84.8401" r="4.2" fill="#FDFDFD"/>
<circle cx="225.96" cy="44.5198" r="4.2" fill="#FDFDFD"/>
<circle cx="225.96" cy="125.16" r="4.2" fill="#FDFDFD"/>
<circle cx="225.96" cy="185.64" r="4.2" fill="#FDFDFD"/>
<circle cx="225.96" cy="24.3602" r="4.2" fill="#FDFDFD"/>
<circle cx="225.96" cy="105" r="4.2" fill="#FDFDFD"/>
<circle cx="225.96" cy="165.48" r="4.2" fill="#FDFDFD"/>
<circle cx="225.96" cy="64.68" r="4.2" fill="#FDFDFD"/>
<circle cx="225.96" cy="145.32" r="4.2" fill="#FDFDFD"/>
<circle cx="225.96" cy="205.8" r="4.2" fill="#FDFDFD"/>
<circle cx="246.12" cy="4.2" r="4.2" fill="#FDFDFD"/>
<circle cx="246.12" cy="84.8401" r="4.2" fill="#FDFDFD"/>
<circle cx="246.12" cy="44.5198" r="4.2" fill="#FDFDFD"/>
<circle cx="246.12" cy="125.16" r="4.2" fill="#FDFDFD"/>
<circle cx="246.12" cy="185.64" r="4.2" fill="#FDFDFD"/>
<circle cx="246.12" cy="24.3602" r="4.2" fill="#FDFDFD"/>
<circle cx="246.12" cy="105" r="4.2" fill="#FDFDFD"/>
<circle cx="246.12" cy="165.48" r="4.2" fill="#FDFDFD"/>
<circle cx="246.12" cy="64.68" r="4.2" fill="#FDFDFD"/>
<circle cx="246.12" cy="145.32" r="4.2" fill="#FDFDFD"/>
<circle cx="246.12" cy="205.8" r="4.2" fill="#FDFDFD"/>
</svg>
