<svg width="509" height="462" viewBox="0 0 509 462" fill="none" xmlns="http://www.w3.org/2000/svg">
<path d="M182.511 83.9351C155.956 129.429 70.2996 143.264 40.472 166.598C13.1667 187.961 -1.37162 237.366 0.10204 276.734C1.57571 316.115 31.5026 355.273 70.7814 358.558C87.8702 359.983 104.973 354.936 122.09 356.101C176.857 359.839 207.365 421.243 255.528 447.574C311.031 477.925 381.781 456.46 433.133 419.531C465.794 396.046 495.183 364.891 505.583 326.045C515.984 287.206 502.494 240.153 467.084 221.073C435.173 203.88 386.571 206.404 374.144 172.37C365.444 148.574 382.405 123.696 386.217 98.6502C392.182 59.408 362.312 20.3456 324.45 8.34836C286.602 -3.64185 251.915 -5.71811 224.014 22.5409C211.006 35.7292 191.834 67.9326 182.511 83.9351Z" fill="#EFF4FF"/>
</svg>
