<svg xmlns="http://www.w3.org/2000/svg" width="136" height="136" viewBox="0 0 136 136" version="1.1"><path d="M 33.380 29.452 C 33.074 30.251, 33.114 31.376, 33.470 31.952 C 34.367 33.402, 104.631 33.406, 105.527 31.956 C 105.882 31.382, 105.628 30.257, 104.964 29.456 C 103.157 27.280, 34.215 27.276, 33.380 29.452 M 38 37.500 C 38 38.733, 39.778 39, 48 39 C 54 39, 58 39.400, 58 40 C 58 40.600, 54 41, 48 41 L 38 41 38 71.430 L 38 101.861 40.250 102.294 L 42.500 102.728 40.250 102.864 C 38.371 102.978, 38 103.577, 38 106.500 L 38 110 50.500 110 L 63 110 63 106.552 C 63 103.106, 62.997 103.104, 57.750 102.737 L 52.500 102.370 57.500 102.179 C 61.916 102.010, 62.699 101.637, 64.203 98.994 C 65.600 96.540, 66.555 96, 69.500 96 C 72.433 96, 73.405 96.544, 74.793 98.962 C 76.406 101.772, 76.880 101.942, 83.997 102.261 L 91.500 102.598 83.750 102.799 L 76 103 76 106.500 L 76 110 88 110 L 100 110 100 106.573 C 100 104.151, 99.487 103.013, 98.250 102.689 C 96.933 102.345, 97.057 102.203, 98.750 102.116 L 101 102 101 71.500 L 101 41 89 41 C 81.667 41, 77 40.611, 77 40 C 77 39.389, 81.667 39, 89 39 C 99 39, 101 38.750, 101 37.500 C 101 36.198, 96.833 36, 69.500 36 C 42.167 36, 38 36.198, 38 37.500 M 61 40 C 61 40.550, 61.450 41, 62 41 C 62.550 41, 63 40.550, 63 40 C 63 39.450, 62.550 39, 62 39 C 61.450 39, 61 39.450, 61 40 M 66 40 C 66 40.550, 67.800 41, 70 41 C 72.200 41, 74 40.550, 74 40 C 74 39.450, 72.200 39, 70 39 C 67.800 39, 66 39.450, 66 40 M 47 51.500 C 47 55.976, 47.019 56, 50.500 56 C 53.981 56, 54 55.976, 54 51.500 C 54 47.024, 53.981 47, 50.500 47 C 47.019 47, 47 47.024, 47 51.500 M 59.193 51.250 C 59.491 55.375, 59.610 55.509, 63.250 55.810 L 67 56.121 67 51.560 L 67 47 62.943 47 L 58.885 47 59.193 51.250 M 72 51.500 C 72 55.976, 72.019 56, 75.500 56 C 78.981 56, 79 55.976, 79 51.500 C 79 47.024, 78.981 47, 75.500 47 C 72.019 47, 72 47.024, 72 51.500 M 84.193 51.250 C 84.491 55.375, 84.610 55.509, 88.250 55.810 L 92 56.121 92 51.560 L 92 47 87.943 47 L 83.885 47 84.193 51.250 M 48 51 C 48 53.533, 48.389 54, 50.500 54 C 52.611 54, 53 53.533, 53 51 C 53 48.467, 52.611 48, 50.500 48 C 48.389 48, 48 48.467, 48 51 M 61 51 C 61 53.533, 61.389 54, 63.500 54 C 65.611 54, 66 53.533, 66 51 C 66 48.467, 65.611 48, 63.500 48 C 61.389 48, 61 48.467, 61 51 M 73 51 C 73 53.533, 73.389 54, 75.500 54 C 77.611 54, 78 53.533, 78 51 C 78 48.467, 77.611 48, 75.500 48 C 73.389 48, 73 48.467, 73 51 M 86 51 C 86 53.533, 86.389 54, 88.500 54 C 90.611 54, 91 53.533, 91 51 C 91 48.467, 90.611 48, 88.500 48 C 86.389 48, 86 48.467, 86 51 M 47 63.500 C 47 67.976, 47.019 68, 50.500 68 C 53.981 68, 54 67.976, 54 63.500 C 54 59.024, 53.981 59, 50.500 59 C 47.019 59, 47 59.024, 47 63.500 M 59.667 59.667 C 59.300 60.033, 59 62.058, 59 64.167 C 59 67.972, 59.029 68, 63 68 L 67 68 67 63.500 C 67 59.067, 66.951 59, 63.667 59 C 61.833 59, 60.033 59.300, 59.667 59.667 M 72 63.500 C 72 67.976, 72.019 68, 75.500 68 C 78.981 68, 79 67.976, 79 63.500 C 79 59.024, 78.981 59, 75.500 59 C 72.019 59, 72 59.024, 72 63.500 M 84.667 59.667 C 84.300 60.033, 84 62.058, 84 64.167 C 84 67.972, 84.029 68, 88 68 L 92 68 92 63.500 C 92 59.067, 91.951 59, 88.667 59 C 86.833 59, 85.033 59.300, 84.667 59.667 M 48 64 C 48 66.533, 48.389 67, 50.500 67 C 52.611 67, 53 66.533, 53 64 C 53 61.467, 52.611 61, 50.500 61 C 48.389 61, 48 61.467, 48 64 M 61 64 C 61 66.533, 61.389 67, 63.500 67 C 65.611 67, 66 66.533, 66 64 C 66 61.467, 65.611 61, 63.500 61 C 61.389 61, 61 61.467, 61 64 M 73 64 C 73 66.533, 73.389 67, 75.500 67 C 77.611 67, 78 66.533, 78 64 C 78 61.467, 77.611 61, 75.500 61 C 73.389 61, 73 61.467, 73 64 M 86 64 C 86 66.533, 86.389 67, 88.500 67 C 90.611 67, 91 66.533, 91 64 C 91 61.467, 90.611 61, 88.500 61 C 86.389 61, 86 61.467, 86 64 M 47 76.500 C 47 80.976, 47.019 81, 50.500 81 C 53.981 81, 54 80.976, 54 76.500 C 54 72.024, 53.981 72, 50.500 72 C 47.019 72, 47 72.024, 47 76.500 M 59.193 76.250 C 59.491 80.375, 59.610 80.509, 63.250 80.810 L 67 81.121 67 76.560 L 67 72 62.943 72 L 58.885 72 59.193 76.250 M 72 76.500 C 72 80.976, 72.019 81, 75.500 81 C 78.981 81, 79 80.976, 79 76.500 C 79 72.024, 78.981 72, 75.500 72 C 72.019 72, 72 72.024, 72 76.500 M 84.193 76.250 C 84.491 80.375, 84.610 80.509, 88.250 80.810 L 92 81.121 92 76.560 L 92 72 87.943 72 L 83.885 72 84.193 76.250 M 48 76 C 48 78.533, 48.389 79, 50.500 79 C 52.611 79, 53 78.533, 53 76 C 53 73.467, 52.611 73, 50.500 73 C 48.389 73, 48 73.467, 48 76 M 61 76 C 61 78.533, 61.389 79, 63.500 79 C 65.611 79, 66 78.533, 66 76 C 66 73.467, 65.611 73, 63.500 73 C 61.389 73, 61 73.467, 61 76 M 73 76 C 73 78.533, 73.389 79, 75.500 79 C 77.611 79, 78 78.533, 78 76 C 78 73.467, 77.611 73, 75.500 73 C 73.389 73, 73 73.467, 73 76 M 86 76 C 86 78.533, 86.389 79, 88.500 79 C 90.611 79, 91 78.533, 91 76 C 91 73.467, 90.611 73, 88.500 73 C 86.389 73, 86 73.467, 86 76 M 47 88.500 C 47 92.976, 47.019 93, 50.500 93 C 53.981 93, 54 92.976, 54 88.500 C 54 84.024, 53.981 84, 50.500 84 C 47.019 84, 47 84.024, 47 88.500 M 59.667 84.667 C 59.300 85.033, 59 87.058, 59 89.167 C 59 92.972, 59.029 93, 63 93 L 67 93 67 88.500 C 67 84.067, 66.951 84, 63.667 84 C 61.833 84, 60.033 84.300, 59.667 84.667 M 72 88.500 C 72 92.976, 72.019 93, 75.500 93 C 78.981 93, 79 92.976, 79 88.500 C 79 84.024, 78.981 84, 75.500 84 C 72.019 84, 72 84.024, 72 88.500 M 84.667 84.667 C 84.300 85.033, 84 87.058, 84 89.167 C 84 92.972, 84.029 93, 88 93 L 92 93 92 88.500 C 92 84.067, 91.951 84, 88.667 84 C 86.833 84, 85.033 84.300, 84.667 84.667 M 48 89 C 48 91.533, 48.389 92, 50.500 92 C 52.611 92, 53 91.533, 53 89 C 53 86.467, 52.611 86, 50.500 86 C 48.389 86, 48 86.467, 48 89 M 61 89 C 61 91.533, 61.389 92, 63.500 92 C 65.611 92, 66 91.533, 66 89 C 66 86.467, 65.611 86, 63.500 86 C 61.389 86, 61 86.467, 61 89 M 73 89 C 73 91.533, 73.389 92, 75.500 92 C 77.611 92, 78 91.533, 78 89 C 78 86.467, 77.611 86, 75.500 86 C 73.389 86, 73 86.467, 73 89 M 86 89 C 86 91.533, 86.389 92, 88.500 92 C 90.611 92, 91 91.533, 91 89 C 91 86.467, 90.611 86, 88.500 86 C 86.389 86, 86 86.467, 86 89 M 67.250 98.662 C 66.448 98.986, 66 101.286, 66 105.083 L 66 111 69.500 111 L 73 111 73 105.700 C 73 99.112, 71.298 97.029, 67.250 98.662 M 45.762 102.707 C 47.006 102.946, 48.806 102.937, 49.762 102.687 C 50.718 102.437, 49.700 102.241, 47.500 102.252 C 45.300 102.263, 44.518 102.468, 45.762 102.707 M 92.750 102.662 C 93.438 102.940, 94.563 102.940, 95.250 102.662 C 95.938 102.385, 95.375 102.158, 94 102.158 C 92.625 102.158, 92.063 102.385, 92.750 102.662" stroke="none" fill="#79c5cc" fill-rule="evenodd"/><path d="M 45 19 L 45 25 39.723 25 C 30.788 25, 26.840 30.369, 32.500 34.821 L 35 36.788 35 73.336 L 35 109.885 30.828 110.193 C 28.533 110.362, 26.470 111.063, 26.244 111.750 C 25.920 112.737, 34.914 113, 69 113 C 103.086 113, 112.080 112.737, 111.756 111.750 C 111.530 111.063, 109.467 110.362, 107.172 110.193 L 103 109.885 103 73.103 L 103 36.321 105.500 35.182 C 108.728 33.711, 109.102 27.660, 106.066 26.035 C 104.886 25.404, 94.743 25, 80.066 25 L 56 25 56 21.927 C 56 19.540, 55.609 18.927, 54.250 19.185 C 53.195 19.385, 52.374 20.605, 52.184 22.259 C 51.960 24.193, 51.298 25, 49.934 25 C 48.237 25, 48 24.265, 48 19 C 48 14.333, 47.667 13, 46.500 13 C 45.333 13, 45 14.333, 45 19 M 33.380 29.452 C 33.074 30.251, 33.114 31.376, 33.470 31.952 C 34.367 33.402, 104.631 33.406, 105.527 31.956 C 105.882 31.382, 105.628 30.257, 104.964 29.456 C 103.157 27.280, 34.215 27.276, 33.380 29.452 M 38 37.500 C 38 38.733, 39.778 39, 48 39 C 54 39, 58 39.400, 58 40 C 58 40.600, 54 41, 48 41 L 38 41 38 71.430 L 38 101.861 40.250 102.294 L 42.500 102.728 40.250 102.864 C 38.371 102.978, 38 103.577, 38 106.500 L 38 110 50.500 110 L 63 110 63 106.552 C 63 103.106, 62.997 103.104, 57.750 102.737 L 52.500 102.370 57.500 102.179 C 61.916 102.010, 62.699 101.637, 64.203 98.994 C 65.600 96.540, 66.555 96, 69.500 96 C 72.433 96, 73.405 96.544, 74.793 98.962 C 76.406 101.772, 76.880 101.942, 83.997 102.261 L 91.500 102.598 83.750 102.799 L 76 103 76 106.500 L 76 110 88 110 L 100 110 100 106.573 C 100 104.151, 99.487 103.013, 98.250 102.689 C 96.933 102.345, 97.057 102.203, 98.750 102.116 L 101 102 101 71.500 L 101 41 89 41 C 81.667 41, 77 40.611, 77 40 C 77 39.389, 81.667 39, 89 39 C 99 39, 101 38.750, 101 37.500 C 101 36.198, 96.833 36, 69.500 36 C 42.167 36, 38 36.198, 38 37.500 M 61 40 C 61 40.550, 61.450 41, 62 41 C 62.550 41, 63 40.550, 63 40 C 63 39.450, 62.550 39, 62 39 C 61.450 39, 61 39.450, 61 40 M 66 40 C 66 40.550, 67.800 41, 70 41 C 72.200 41, 74 40.550, 74 40 C 74 39.450, 72.200 39, 70 39 C 67.800 39, 66 39.450, 66 40 M 47 51.500 C 47 55.976, 47.019 56, 50.500 56 C 53.981 56, 54 55.976, 54 51.500 C 54 47.024, 53.981 47, 50.500 47 C 47.019 47, 47 47.024, 47 51.500 M 59.193 51.250 C 59.491 55.375, 59.610 55.509, 63.250 55.810 L 67 56.121 67 51.560 L 67 47 62.943 47 L 58.885 47 59.193 51.250 M 72 51.500 C 72 55.976, 72.019 56, 75.500 56 C 78.981 56, 79 55.976, 79 51.500 C 79 47.024, 78.981 47, 75.500 47 C 72.019 47, 72 47.024, 72 51.500 M 84.193 51.250 C 84.491 55.375, 84.610 55.509, 88.250 55.810 L 92 56.121 92 51.560 L 92 47 87.943 47 L 83.885 47 84.193 51.250 M 48 51 C 48 53.533, 48.389 54, 50.500 54 C 52.611 54, 53 53.533, 53 51 C 53 48.467, 52.611 48, 50.500 48 C 48.389 48, 48 48.467, 48 51 M 61 51 C 61 53.533, 61.389 54, 63.500 54 C 65.611 54, 66 53.533, 66 51 C 66 48.467, 65.611 48, 63.500 48 C 61.389 48, 61 48.467, 61 51 M 73 51 C 73 53.533, 73.389 54, 75.500 54 C 77.611 54, 78 53.533, 78 51 C 78 48.467, 77.611 48, 75.500 48 C 73.389 48, 73 48.467, 73 51 M 86 51 C 86 53.533, 86.389 54, 88.500 54 C 90.611 54, 91 53.533, 91 51 C 91 48.467, 90.611 48, 88.500 48 C 86.389 48, 86 48.467, 86 51 M 47 63.500 C 47 67.976, 47.019 68, 50.500 68 C 53.981 68, 54 67.976, 54 63.500 C 54 59.024, 53.981 59, 50.500 59 C 47.019 59, 47 59.024, 47 63.500 M 59.667 59.667 C 59.300 60.033, 59 62.058, 59 64.167 C 59 67.972, 59.029 68, 63 68 L 67 68 67 63.500 C 67 59.067, 66.951 59, 63.667 59 C 61.833 59, 60.033 59.300, 59.667 59.667 M 72 63.500 C 72 67.976, 72.019 68, 75.500 68 C 78.981 68, 79 67.976, 79 63.500 C 79 59.024, 78.981 59, 75.500 59 C 72.019 59, 72 59.024, 72 63.500 M 84.667 59.667 C 84.300 60.033, 84 62.058, 84 64.167 C 84 67.972, 84.029 68, 88 68 L 92 68 92 63.500 C 92 59.067, 91.951 59, 88.667 59 C 86.833 59, 85.033 59.300, 84.667 59.667 M 48 64 C 48 66.533, 48.389 67, 50.500 67 C 52.611 67, 53 66.533, 53 64 C 53 61.467, 52.611 61, 50.500 61 C 48.389 61, 48 61.467, 48 64 M 61 64 C 61 66.533, 61.389 67, 63.500 67 C 65.611 67, 66 66.533, 66 64 C 66 61.467, 65.611 61, 63.500 61 C 61.389 61, 61 61.467, 61 64 M 73 64 C 73 66.533, 73.389 67, 75.500 67 C 77.611 67, 78 66.533, 78 64 C 78 61.467, 77.611 61, 75.500 61 C 73.389 61, 73 61.467, 73 64 M 86 64 C 86 66.533, 86.389 67, 88.500 67 C 90.611 67, 91 66.533, 91 64 C 91 61.467, 90.611 61, 88.500 61 C 86.389 61, 86 61.467, 86 64 M 47 76.500 C 47 80.976, 47.019 81, 50.500 81 C 53.981 81, 54 80.976, 54 76.500 C 54 72.024, 53.981 72, 50.500 72 C 47.019 72, 47 72.024, 47 76.500 M 59.193 76.250 C 59.491 80.375, 59.610 80.509, 63.250 80.810 L 67 81.121 67 76.560 L 67 72 62.943 72 L 58.885 72 59.193 76.250 M 72 76.500 C 72 80.976, 72.019 81, 75.500 81 C 78.981 81, 79 80.976, 79 76.500 C 79 72.024, 78.981 72, 75.500 72 C 72.019 72, 72 72.024, 72 76.500 M 84.193 76.250 C 84.491 80.375, 84.610 80.509, 88.250 80.810 L 92 81.121 92 76.560 L 92 72 87.943 72 L 83.885 72 84.193 76.250 M 48 76 C 48 78.533, 48.389 79, 50.500 79 C 52.611 79, 53 78.533, 53 76 C 53 73.467, 52.611 73, 50.500 73 C 48.389 73, 48 73.467, 48 76 M 61 76 C 61 78.533, 61.389 79, 63.500 79 C 65.611 79, 66 78.533, 66 76 C 66 73.467, 65.611 73, 63.500 73 C 61.389 73, 61 73.467, 61 76 M 73 76 C 73 78.533, 73.389 79, 75.500 79 C 77.611 79, 78 78.533, 78 76 C 78 73.467, 77.611 73, 75.500 73 C 73.389 73, 73 73.467, 73 76 M 86 76 C 86 78.533, 86.389 79, 88.500 79 C 90.611 79, 91 78.533, 91 76 C 91 73.467, 90.611 73, 88.500 73 C 86.389 73, 86 73.467, 86 76 M 47 88.500 C 47 92.976, 47.019 93, 50.500 93 C 53.981 93, 54 92.976, 54 88.500 C 54 84.024, 53.981 84, 50.500 84 C 47.019 84, 47 84.024, 47 88.500 M 59.667 84.667 C 59.300 85.033, 59 87.058, 59 89.167 C 59 92.972, 59.029 93, 63 93 L 67 93 67 88.500 C 67 84.067, 66.951 84, 63.667 84 C 61.833 84, 60.033 84.300, 59.667 84.667 M 72 88.500 C 72 92.976, 72.019 93, 75.500 93 C 78.981 93, 79 92.976, 79 88.500 C 79 84.024, 78.981 84, 75.500 84 C 72.019 84, 72 84.024, 72 88.500 M 84.667 84.667 C 84.300 85.033, 84 87.058, 84 89.167 C 84 92.972, 84.029 93, 88 93 L 92 93 92 88.500 C 92 84.067, 91.951 84, 88.667 84 C 86.833 84, 85.033 84.300, 84.667 84.667 M 48 89 C 48 91.533, 48.389 92, 50.500 92 C 52.611 92, 53 91.533, 53 89 C 53 86.467, 52.611 86, 50.500 86 C 48.389 86, 48 86.467, 48 89 M 61 89 C 61 91.533, 61.389 92, 63.500 92 C 65.611 92, 66 91.533, 66 89 C 66 86.467, 65.611 86, 63.500 86 C 61.389 86, 61 86.467, 61 89 M 73 89 C 73 91.533, 73.389 92, 75.500 92 C 77.611 92, 78 91.533, 78 89 C 78 86.467, 77.611 86, 75.500 86 C 73.389 86, 73 86.467, 73 89 M 86 89 C 86 91.533, 86.389 92, 88.500 92 C 90.611 92, 91 91.533, 91 89 C 91 86.467, 90.611 86, 88.500 86 C 86.389 86, 86 86.467, 86 89 M 67.250 98.662 C 66.448 98.986, 66 101.286, 66 105.083 L 66 111 69.500 111 L 73 111 73 105.700 C 73 99.112, 71.298 97.029, 67.250 98.662 M 45.762 102.707 C 47.006 102.946, 48.806 102.937, 49.762 102.687 C 50.718 102.437, 49.700 102.241, 47.500 102.252 C 45.300 102.263, 44.518 102.468, 45.762 102.707 M 92.750 102.662 C 93.438 102.940, 94.563 102.940, 95.250 102.662 C 95.938 102.385, 95.375 102.158, 94 102.158 C 92.625 102.158, 92.063 102.385, 92.750 102.662" stroke="none" fill="#323840" fill-rule="evenodd"/></svg>