<svg width="274" height="274" viewBox="0 0 274 274" fill="none" xmlns="http://www.w3.org/2000/svg">
<path d="M152.07 181.193C157.393 177.912 161.501 172.985 163.769 167.157C166.037 161.33 166.342 154.922 164.637 148.906C162.932 142.89 159.311 137.594 154.323 133.823C149.335 130.052 143.253 128.012 137 128.012C130.747 128.012 124.664 130.052 119.676 133.823C114.688 137.594 111.067 142.89 109.362 148.906C107.657 154.922 107.962 161.33 110.23 167.157C112.498 172.985 116.606 177.912 121.93 181.193C112.871 181.658 104.337 185.587 98.0933 192.168C91.85 198.748 88.3748 207.477 88.3867 216.548V269.58C88.3867 270.752 88.8524 271.876 89.6811 272.705C90.5099 273.534 91.634 273.999 92.8061 273.999H181.193C182.365 273.999 183.489 273.534 184.318 272.705C185.147 271.876 185.613 270.752 185.613 269.58V216.548C185.624 207.477 182.149 198.748 175.906 192.168C169.663 185.587 161.129 181.658 152.07 181.193ZM117.113 156.886C117.113 152.953 118.279 149.108 120.464 145.838C122.649 142.567 125.755 140.018 129.389 138.513C133.023 137.008 137.022 136.614 140.879 137.382C144.737 138.149 148.281 140.043 151.062 142.824C153.843 145.605 155.737 149.149 156.505 153.007C157.272 156.864 156.878 160.863 155.373 164.497C153.868 168.131 151.319 171.237 148.048 173.422C144.778 175.607 140.933 176.774 137 176.774C131.729 176.762 126.677 174.663 122.95 170.936C119.223 167.209 117.124 162.157 117.113 156.886ZM143.098 219.995L137 227.331L130.901 219.995L137 200.417L143.098 219.995ZM176.774 265.161H97.2255V216.548C97.2255 209.515 100.019 202.771 104.992 197.798C109.965 192.825 116.709 190.032 123.742 190.032H130.989L121.753 219.641C121.528 220.345 121.482 221.094 121.621 221.82C121.76 222.545 122.079 223.225 122.548 223.796L133.597 237.054C134.011 237.554 134.531 237.957 135.12 238.233C135.708 238.51 136.35 238.653 137 238.653C137.65 238.653 138.292 238.51 138.88 238.233C139.468 237.957 139.988 237.554 140.403 237.054L151.451 223.796C151.92 223.225 152.239 222.545 152.378 221.82C152.517 221.094 152.472 220.345 152.246 219.641L143.01 190.032H150.258C157.29 190.032 164.035 192.825 169.007 197.798C173.98 202.771 176.774 209.515 176.774 216.548V265.161Z" fill="url(#paint0_linear_5004_1384)"/>
<path d="M105.445 52.0598C104.623 52.1717 103.849 52.5127 103.212 53.0439C102.575 53.5751 102.1 54.2749 101.842 55.0634C101.583 55.8518 101.552 56.697 101.752 57.5023C101.952 58.3076 102.374 59.0404 102.971 59.6169L116.803 72.875L113.533 91.8782C113.398 92.689 113.492 93.5213 113.804 94.2815C114.117 95.0418 114.635 95.7 115.3 96.182C115.966 96.6641 116.753 96.9509 117.573 97.0104C118.393 97.0698 119.213 96.8995 119.941 96.5185L137 87.6798L154.058 96.5185C154.697 96.8631 155.41 97.0452 156.135 97.0488C157.056 97.0429 157.953 96.7493 158.699 96.2092C159.384 95.718 159.915 95.0409 160.228 94.2578C160.542 93.4747 160.624 92.6183 160.466 91.7898L157.196 72.7866L171.029 59.5285C171.625 58.952 172.048 58.2192 172.247 57.4139C172.447 56.6087 172.416 55.7634 172.158 54.975C171.899 54.1865 171.424 53.4867 170.787 52.9555C170.15 52.4244 169.376 52.0833 168.554 51.9714L149.506 49.1872L140.977 31.9959C140.615 31.2487 140.05 30.6186 139.347 30.1777C138.643 29.7368 137.83 29.5029 137 29.5029C136.169 29.5029 135.356 29.7368 134.653 30.1777C133.949 30.6186 133.384 31.2487 133.022 31.9959L124.493 49.2756L105.445 52.0598ZM131.387 55.2859L137 44.1933L142.612 55.5069C142.926 56.1502 143.392 56.7076 143.97 57.131C144.547 57.5544 145.219 57.8312 145.927 57.9375L158.433 59.7495L149.374 68.5882C148.862 69.0849 148.479 69.6981 148.255 70.3753C148.032 71.0525 147.976 71.7737 148.092 72.4772L150.258 84.7188L139.077 78.8411C138.431 78.5216 137.72 78.3554 137 78.3554C136.279 78.3554 135.568 78.5216 134.922 78.8411L123.742 84.7188L125.907 72.2563C126.023 71.5527 125.967 70.8316 125.744 70.1543C125.521 69.4771 125.137 68.864 124.625 68.3672L115.566 59.5285L128.161 57.7166C128.853 57.597 129.507 57.3141 130.068 56.8914C130.629 56.4687 131.081 55.9183 131.387 55.2859Z" fill="url(#paint1_linear_5004_1384)"/>
<path d="M132.581 0H141.42V17.6774H132.581V0Z" fill="url(#paint2_linear_5004_1384)"/>
<path d="M155.518 22.0527L166.124 7.9108L173.195 13.214L162.589 27.356L155.518 22.0527Z" fill="url(#paint3_linear_5004_1384)"/>
<path d="M100.762 13.2578L107.833 7.95459L118.439 22.0965L111.368 27.3997L100.762 13.2578Z" fill="url(#paint4_linear_5004_1384)"/>
<path d="M50.5574 220.968H46.1381L48.4803 211.599C49.1403 209.098 48.8221 206.44 47.5904 204.165C46.3588 201.891 44.3064 200.172 41.8513 199.358C39.4056 198.596 36.7614 198.799 34.4607 199.925C32.1599 201.051 30.3769 203.014 29.4771 205.412L25.0577 217.123C24.6228 218.267 23.8469 219.249 22.835 219.937C21.8232 220.625 20.6243 220.985 19.401 220.968H0V229.807H19.401C22.4077 229.802 25.3417 228.882 27.8127 227.169C30.2837 225.456 32.1745 223.031 33.2336 220.217L37.6529 208.506C37.745 208.21 37.9487 207.961 38.2209 207.812C38.4932 207.664 38.8125 207.627 39.1113 207.71C39.4002 207.869 39.6246 208.124 39.7456 208.43C39.8666 208.737 39.8768 209.076 39.7742 209.39L36.0619 224.239C35.9034 224.884 35.8927 225.557 36.0304 226.208C36.1681 226.858 36.4508 227.469 36.8574 227.995C37.2691 228.53 37.7978 228.963 38.403 229.262C39.0082 229.561 39.6738 229.717 40.3487 229.719H50.5574C50.9049 229.716 51.2493 229.785 51.5687 229.922C51.8881 230.059 52.1758 230.261 52.4135 230.514C52.6421 230.78 52.8147 231.089 52.921 231.423C53.0273 231.757 53.0652 232.11 53.0323 232.459L51.0877 249.65C51.0426 250.271 50.7606 250.851 50.3001 251.271C49.8396 251.69 49.2356 251.917 48.6129 251.904H25.6323L20.1081 248.236C19.389 247.752 18.5438 247.491 17.6774 247.484H0V256.323H16.3516L22.0968 259.991C22.7527 260.435 23.5159 260.695 24.3065 260.742H48.6129C51.3957 260.737 54.0789 259.707 56.1498 257.848C58.2206 255.989 59.5337 253.432 59.8381 250.666L61.871 233.475C62.0461 231.891 61.8831 230.288 61.3929 228.771C60.9027 227.254 60.0964 225.859 59.0271 224.677C57.9579 223.495 56.6502 222.553 55.1902 221.914C53.7302 221.275 52.1512 220.952 50.5574 220.968Z" fill="url(#paint5_linear_5004_1384)"/>
<path d="M72.1685 131.564L68.0585 129.663L74.113 122.194C75.0096 121.237 75.7089 120.112 76.1708 118.884C76.6328 117.656 76.8484 116.35 76.8053 115.038C76.7622 113.727 76.4613 112.437 75.9197 111.243C75.3781 110.048 74.6065 108.971 73.649 108.075C72.6914 107.178 71.5665 106.479 70.3387 106.017C69.1109 105.555 67.8041 105.339 66.4929 105.382C65.1818 105.425 63.892 105.726 62.6971 106.268C61.5023 106.809 60.4258 107.581 59.5291 108.539L50.6904 117.377C49.8293 118.213 48.7359 118.77 47.5533 118.975C46.3707 119.18 45.1537 119.024 44.0614 118.526L26.5165 110.218L22.8043 118.217L40.4817 126.437C43.1611 127.654 46.1417 128.048 49.0452 127.568C51.9486 127.088 54.644 125.756 56.7891 123.741L65.6278 114.903C65.8491 114.694 66.1415 114.578 66.4454 114.578C66.7493 114.578 67.0417 114.694 67.263 114.903C67.4638 115.153 67.5732 115.465 67.5732 115.786C67.5732 116.108 67.4638 116.419 67.263 116.67L57.452 128.47C57.0236 128.994 56.7211 129.609 56.5679 130.267C56.4147 130.926 56.4147 131.612 56.5681 132.271C56.7192 132.923 57.0164 133.532 57.4375 134.053C57.8586 134.574 58.3925 134.992 58.9988 135.276L68.2794 139.695C68.59 139.844 68.8675 140.053 69.0953 140.311C69.323 140.57 69.4965 140.871 69.6052 141.198C69.6946 141.53 69.7171 141.877 69.6716 142.219C69.6261 142.56 69.5134 142.889 69.3401 143.186L60.5014 157.991C60.2112 158.512 59.7431 158.91 59.1829 159.113C58.6227 159.316 58.0082 159.31 57.452 159.096L36.5927 149.374L33.1456 143.717C32.6965 142.967 32.0352 142.367 31.2452 141.993L15.1146 134.304L11.4023 142.303L26.2072 149.197L29.6543 154.677C30.1034 155.427 30.7647 156.026 31.5546 156.4L53.6514 166.697C55.1483 167.388 56.7758 167.75 58.4243 167.758C60.3695 167.764 62.2832 167.267 63.9792 166.314C65.6752 165.362 67.0957 163.987 68.1027 162.322L76.9414 147.517C77.767 146.16 78.2962 144.643 78.4942 143.066C78.6923 141.49 78.5546 139.889 78.0904 138.369C77.6159 136.893 76.8462 135.528 75.8282 134.358C74.8102 133.188 73.5651 132.238 72.1685 131.564Z" fill="url(#paint6_linear_5004_1384)"/>
<path d="M249.032 217.079L244.612 205.368C243.792 202.848 242.004 200.757 239.642 199.555C237.28 198.353 234.537 198.139 232.017 198.96C229.497 199.78 227.406 201.568 226.204 203.93C225.003 206.292 224.789 209.035 225.609 211.555L227.995 220.968H223.576C221.971 220.933 220.377 221.241 218.901 221.872C217.425 222.503 216.101 223.442 215.018 224.626C213.934 225.811 213.116 227.213 212.618 228.739C212.12 230.265 211.953 231.879 212.13 233.475L214.03 250.666C214.337 253.455 215.669 256.03 217.768 257.892C219.867 259.754 222.582 260.77 225.388 260.742H249.694C250.561 260.735 251.406 260.474 252.125 259.991L257.649 256.323H274.001V247.484H256.324C255.457 247.491 254.612 247.752 253.893 248.235L248.369 251.904H225.388C224.78 251.906 224.193 251.681 223.743 251.271C223.293 250.862 223.013 250.299 222.957 249.694L220.969 232.503C220.936 232.154 220.974 231.801 221.08 231.467C221.186 231.133 221.359 230.824 221.587 230.558C221.825 230.305 222.113 230.103 222.432 229.966C222.752 229.829 223.096 229.76 223.444 229.763H233.652C234.327 229.761 234.993 229.605 235.598 229.306C236.203 229.007 236.732 228.574 237.144 228.039C237.55 227.513 237.833 226.902 237.971 226.252C238.108 225.601 238.097 224.928 237.939 224.283L234.227 209.434C234.124 209.12 234.134 208.781 234.255 208.474C234.376 208.168 234.601 207.913 234.89 207.754C235.183 207.665 235.499 207.688 235.777 207.818C236.055 207.949 236.274 208.178 236.392 208.461L240.812 220.173C241.861 222.988 243.742 225.417 246.205 227.138C248.667 228.859 251.596 229.79 254.6 229.807H274.001V220.968H254.6C253.386 220.963 252.203 220.588 251.208 219.893C250.213 219.198 249.454 218.217 249.032 217.079Z" fill="url(#paint7_linear_5004_1384)"/>
<path d="M220.393 166.875L242.49 156.578C243.28 156.204 243.941 155.604 244.39 154.854L247.838 149.197L262.642 142.303L258.93 134.304L243.065 141.773C242.275 142.147 241.613 142.746 241.164 143.496L237.717 149.153L216.549 159.097C215.999 159.356 215.371 159.401 214.791 159.221C214.21 159.041 213.717 158.65 213.411 158.124L204.572 143.319C204.399 143.022 204.286 142.693 204.241 142.352C204.195 142.01 204.218 141.663 204.307 141.331C204.416 141.004 204.589 140.703 204.817 140.445C205.045 140.186 205.322 139.977 205.633 139.828L214.913 135.409C215.52 135.125 216.054 134.707 216.475 134.186C216.896 133.665 217.193 133.056 217.344 132.404C217.497 131.745 217.498 131.059 217.344 130.401C217.191 129.742 216.889 129.127 216.46 128.603L206.826 116.759C206.625 116.508 206.516 116.197 206.516 115.875C206.516 115.554 206.625 115.242 206.826 114.991C207.047 114.783 207.34 114.667 207.644 114.667C207.947 114.667 208.24 114.783 208.461 114.991L217.3 123.83C219.453 125.921 222.189 127.311 225.147 127.816C228.106 128.321 231.148 127.917 233.872 126.659L251.55 118.439L247.484 110.219L229.807 118.439C228.714 118.936 227.497 119.093 226.315 118.888C225.132 118.683 224.039 118.126 223.178 117.289L214.339 108.451C213.442 107.493 212.366 106.722 211.171 106.18C209.976 105.638 208.686 105.338 207.375 105.294C206.064 105.251 204.757 105.467 203.529 105.929C202.301 106.391 201.177 107.09 200.219 107.987C199.261 108.883 198.49 109.96 197.948 111.155C197.407 112.35 197.106 113.639 197.063 114.951C197.02 116.262 197.235 117.569 197.697 118.796C198.159 120.024 198.858 121.149 199.755 122.107L205.81 129.575L201.7 131.476C200.26 132.155 198.979 133.126 197.936 134.329C196.894 135.531 196.113 136.937 195.645 138.458C195.181 139.978 195.043 141.579 195.241 143.155C195.439 144.732 195.968 146.249 196.794 147.606L205.633 162.411C206.655 164.138 208.12 165.56 209.876 166.531C211.631 167.502 213.615 167.987 215.621 167.935C217.269 167.927 218.897 167.565 220.393 166.875Z" fill="url(#paint8_linear_5004_1384)"/>
<defs>
<linearGradient id="paint0_linear_5004_1384" x1="137" y1="128.012" x2="137" y2="273.999" gradientUnits="userSpaceOnUse">
<stop stop-color="#9B9DFA"/>
<stop offset="1" stop-color="#EDB8FD"/>
</linearGradient>
<linearGradient id="paint1_linear_5004_1384" x1="137" y1="29.5029" x2="137" y2="97.0488" gradientUnits="userSpaceOnUse">
<stop stop-color="#9B9DFA"/>
<stop offset="1" stop-color="#EDB8FD"/>
</linearGradient>
<linearGradient id="paint2_linear_5004_1384" x1="137" y1="0" x2="137" y2="17.6774" gradientUnits="userSpaceOnUse">
<stop stop-color="#9B9DFA"/>
<stop offset="1" stop-color="#EDB8FD"/>
</linearGradient>
<linearGradient id="paint3_linear_5004_1384" x1="160.821" y1="14.9818" x2="167.892" y2="20.285" gradientUnits="userSpaceOnUse">
<stop stop-color="#9B9DFA"/>
<stop offset="1" stop-color="#EDB8FD"/>
</linearGradient>
<linearGradient id="paint4_linear_5004_1384" x1="104.297" y1="10.6062" x2="114.904" y2="24.7481" gradientUnits="userSpaceOnUse">
<stop stop-color="#9B9DFA"/>
<stop offset="1" stop-color="#EDB8FD"/>
</linearGradient>
<linearGradient id="paint5_linear_5004_1384" x1="30.9696" y1="198.904" x2="30.9696" y2="260.742" gradientUnits="userSpaceOnUse">
<stop stop-color="#9B9DFA"/>
<stop offset="1" stop-color="#EDB8FD"/>
</linearGradient>
<linearGradient id="paint6_linear_5004_1384" x1="44.9922" y1="105.377" x2="44.9922" y2="167.758" gradientUnits="userSpaceOnUse">
<stop stop-color="#9B9DFA"/>
<stop offset="1" stop-color="#EDB8FD"/>
</linearGradient>
<linearGradient id="paint7_linear_5004_1384" x1="243.031" y1="198.469" x2="243.031" y2="260.743" gradientUnits="userSpaceOnUse">
<stop stop-color="#9B9DFA"/>
<stop offset="1" stop-color="#EDB8FD"/>
</linearGradient>
<linearGradient id="paint8_linear_5004_1384" x1="228.898" y1="105.289" x2="228.898" y2="167.939" gradientUnits="userSpaceOnUse">
<stop stop-color="#9B9DFA"/>
<stop offset="1" stop-color="#EDB8FD"/>
</linearGradient>
</defs>
</svg>
