<svg width="139" height="377" viewBox="0 0 139 377" fill="none" xmlns="http://www.w3.org/2000/svg">
<path d="M88.104 371.483C87.963 372.658 88.8875 373.692 90.0785 373.724C93.385 373.786 101.346 374.084 117.016 375.228C130.697 376.231 135.57 374.633 137.294 373.41C137.952 372.94 138.187 372.063 137.842 371.326C137.842 371.326 138.328 370.229 138.328 368.929C138.328 367.769 137.952 366.437 136.51 365.559C135.163 364.729 132.326 363.428 129.208 361.814C128.377 361.391 127.531 360.937 126.685 360.466C124.068 358.993 121.467 357.332 119.539 355.562C114.932 351.299 115.01 350.594 112.628 350.672C112.628 350.672 110.936 348.98 109.87 346.88C109.463 346.081 108.554 345.658 107.677 345.83C105.749 346.222 102.552 347.084 100.593 348.87C100.186 349.231 99.951 349.748 99.9353 350.296L99.8099 353.838L96.7855 354.982C96.7855 354.982 92.2097 349.262 90.5643 349.92C88.9189 350.594 89.8905 353.932 89.8905 353.932C89.8905 353.932 89.1382 355.75 88.6838 358.367C88.198 361.219 88.0413 365.027 89.5927 368.505C89.5927 368.505 88.3234 369.258 88.057 371.514L88.104 371.483Z" fill="#F9A21B"/>
<path d="M88.0957 371.483C87.9547 372.659 88.8793 373.693 90.0702 373.724C93.3767 373.787 101.337 374.085 117.008 375.229C130.688 376.231 135.562 374.633 137.286 373.411C137.944 372.941 138.179 372.063 137.834 371.327C127.774 373.285 115.676 369.07 105.098 369.43C93.6274 369.822 89.6314 368.49 89.6314 368.49C89.6314 368.49 88.3621 369.242 88.0957 371.499V371.483Z" fill="#F0F2F5"/>
<path d="M102.1 369.915C102.1 369.915 102.178 369.915 102.21 369.915C102.445 369.852 102.57 369.617 102.507 369.382C101.41 365.245 99.5613 361.688 97.054 358.789C93.6378 354.855 90.2217 353.57 90.0807 353.523C89.8613 353.445 89.6105 353.555 89.5322 353.774C89.4538 353.993 89.5635 354.244 89.7829 354.322C89.8142 354.322 93.1521 355.592 96.3959 359.353C98.8248 362.158 100.596 365.605 101.677 369.617C101.724 369.805 101.896 369.93 102.084 369.93L102.1 369.915Z" fill="#F0F2F5"/>
<path d="M89.9391 353.916C89.9391 353.916 93.3552 355.17 96.7244 359.072C96.7244 359.072 98.7773 357.52 101.99 356.125C105.108 354.762 108.665 354.856 111.705 356.408C113.539 357.348 115.842 358.633 118.459 360.325C124.367 364.149 127.925 364.102 129.225 361.814C129.445 361.422 129.303 360.936 128.896 360.733L128.003 360.278C127.783 360.168 127.533 360.168 127.298 360.278C127.157 360.341 126.953 360.419 126.702 360.482C125.417 360.795 122.847 360.78 119.133 357.583C116.83 355.608 114.918 354.198 113.304 353.148C109.935 350.97 105.657 350.735 102.084 352.553C101.363 352.913 100.611 353.336 99.8429 353.838L96.8184 354.982C96.8184 354.982 92.2426 349.262 90.5972 349.92C88.9518 350.594 89.9234 353.932 89.9234 353.932L89.9391 353.916Z" fill="#F0F2F5"/>
<path d="M107.817 369.915C107.958 369.915 108.099 369.837 108.178 369.712C108.366 369.398 113.004 362.143 123.801 365.026C134.912 367.988 137.356 366.766 137.591 366.609C137.795 366.484 137.858 366.217 137.732 366.013C137.607 365.81 137.341 365.747 137.137 365.872C137.137 365.872 134.724 367.048 124.021 364.18C112.597 361.124 107.504 369.163 107.457 369.242C107.331 369.445 107.394 369.712 107.598 369.837C107.661 369.884 107.739 369.9 107.817 369.9V369.915Z" fill="#F0F2F5"/>
<path d="M122.959 359.746C123.069 359.746 123.163 359.73 123.257 359.683C124.244 359.213 124.401 358.241 124.417 358.132C124.464 357.74 124.197 357.38 123.805 357.333C123.414 357.286 123.069 357.552 123.006 357.944C123.006 357.991 122.943 358.273 122.661 358.398C122.301 358.571 122.144 358.994 122.317 359.354C122.442 359.62 122.693 359.761 122.959 359.761V359.746Z" fill="#1F4168"/>
<path d="M121.264 358.476C121.374 358.476 121.468 358.461 121.562 358.414C122.549 357.943 122.706 356.972 122.721 356.862C122.768 356.47 122.502 356.11 122.11 356.063C121.718 356.016 121.374 356.282 121.311 356.674C121.311 356.721 121.248 357.003 120.966 357.129C120.606 357.301 120.449 357.724 120.621 358.085C120.747 358.351 120.997 358.492 121.264 358.492V358.476Z" fill="#1F4168"/>
<path d="M119.569 357.222C119.678 357.222 119.772 357.207 119.866 357.16C120.854 356.69 121.01 355.718 121.026 355.608C121.073 355.217 120.806 354.856 120.415 354.809C120.023 354.762 119.678 355.028 119.616 355.42C119.616 355.467 119.553 355.749 119.271 355.875C118.91 356.047 118.754 356.47 118.926 356.831C119.051 357.097 119.302 357.238 119.569 357.238V357.222Z" fill="#1F4168"/>
<path d="M117.881 355.952C117.991 355.952 118.085 355.936 118.179 355.889C119.166 355.419 119.323 354.447 119.338 354.338C119.385 353.946 119.119 353.586 118.727 353.539C118.335 353.492 117.991 353.758 117.928 354.15C117.928 354.197 117.865 354.479 117.568 354.604C117.207 354.777 117.051 355.2 117.223 355.56C117.348 355.826 117.599 355.968 117.865 355.968L117.881 355.952Z" fill="#1F4168"/>
<path d="M110.749 352.035C110.749 352.035 110.765 352.035 110.781 352.035C112.614 351.894 113.021 350.907 113.069 350.797C113.147 350.578 113.037 350.327 112.818 350.249C112.598 350.171 112.363 350.28 112.269 350.5C112.254 350.547 111.972 351.095 110.718 351.189C110.483 351.205 110.31 351.408 110.326 351.644C110.342 351.863 110.53 352.035 110.749 352.035Z" fill="#F0F2F5"/>
<path d="M1.53642 137.399C2.17891 140.376 3.22881 142.993 4.88988 144.654C4.88988 144.654 4.68621 152.991 16.0004 151.063L22.1432 151.345C22.1432 151.345 22.2215 152.771 22.4566 154.668C22.5193 155.138 22.582 155.655 22.6603 156.172C23.0051 158.475 23.5535 161.077 24.384 162.628L22.2999 168.16C21.7984 169.508 22.0492 171.028 22.9894 172.125C23.5379 172.767 24.2744 173.441 25.2303 173.942L24.9952 179.192C24.9482 180.383 25.7317 181.433 26.8913 181.715C27.6279 181.887 28.5368 182.107 29.6337 182.342C43.3611 185.382 83.1329 192.559 96.6096 177.17C96.9387 176.794 96.97 176.262 96.7193 175.854L93.8202 171.325C93.8202 171.325 97.5969 166.17 91.8301 160.074C91.8301 160.074 90.5451 152.724 90.6391 145.829C90.6548 144.497 90.7175 143.165 90.8742 141.927C91.2346 142.194 98.208 147.271 108.033 145.187C108.033 145.187 117.06 145.986 115.117 131.412C115.117 131.412 115.571 129.156 114.991 126.257C114.85 125.567 114.646 124.831 114.38 124.079C114.38 124.079 114.38 124.047 114.364 124.032C113.659 122.151 112.437 120.177 110.384 118.453C110.384 118.453 104.398 86.7201 94.3217 73.1807C93.5852 72.1935 92.6136 71.4256 91.501 70.9241L67.3527 61.6002C66.8983 60.6756 66.2244 59.9077 65.4096 59.3279C64.5947 58.7481 63.6388 58.3564 62.6359 58.2153L38.8637 58.6228L15.8436 68.981C14.3236 69.7802 13.0543 71.0025 12.2081 72.4912C9.38736 77.4274 2.88408 92.4868 1.19167 117.403C1.19167 117.403 -0.281387 128.842 1.56774 137.383L1.53642 137.399Z" fill="#FFD514"/>
<path d="M27.5236 180.179C27.5236 180.179 24.8126 211.394 32.6949 268.42C32.6949 268.42 30.3599 308.818 41.4233 343.246C41.4233 343.246 41.1256 352.288 44.4478 355.61C44.4478 355.61 52.33 351.05 62.5943 350.502L61.9831 345.393C61.9831 345.393 66.9506 339.611 59.3974 335.662C59.3974 335.662 61.466 333.766 60.2123 331.008C59.1781 328.704 58.5043 326.26 58.3005 323.752C57.7051 316.685 58.6766 303.334 55.4172 285.218C55.4172 285.218 56.9999 279.906 56.0126 275.816C56.0126 275.816 61.2936 237.596 62.2652 223.257C62.2652 223.257 73.4226 243.738 81.822 263.546C81.822 263.546 81.634 270.049 85.3949 272.792C85.3949 272.792 83.201 276.49 86.3978 278.934C86.3978 278.934 80.6938 312.689 88.482 336.821C88.482 336.821 83.5144 349.06 89.1245 351.818V354.905C89.1245 354.905 103.259 356.942 109.904 348.01C109.904 348.01 111.283 345.66 108.76 342.729C108.76 342.729 114.526 339.235 108.509 333.39C108.509 333.39 112.536 289.34 110.06 275.08C110.06 275.08 113.085 265.991 108.979 258.077C108.979 258.077 106.44 209.42 96.4113 182.545C96.4113 182.545 66.4805 187.701 27.5236 180.194V180.179Z" fill="#1B1A2E"/>
<path d="M27.51 180.177C42.6634 192.384 69.7264 194.657 69.7264 194.657L71.2935 186.524L74.1769 194.343C87.9199 191.82 99.3281 181.807 99.3281 181.807L96.2567 177.027C88.4841 181.791 79.6302 183.139 70.7764 183.014C56.8139 182.81 42.8672 178.908 33.2298 178.845C29.6099 178.814 27.6353 180.099 27.51 180.177Z" fill="#1F4168"/>
<g style="mix-blend-mode:multiply" opacity="0.4">
<path d="M70.7775 182.999C92.2619 184.221 96.2578 177.013 96.2578 177.013C88.4852 181.777 79.6314 183.124 70.7775 182.999Z" fill="#1F4168"/>
</g>
<g style="mix-blend-mode:multiply" opacity="0.4">
<path d="M27.507 180.179C27.6951 180.179 32.4276 180.383 45.3088 181.778C58.4407 183.204 70.7734 183 70.7734 183C56.811 182.796 42.8642 178.894 33.2268 178.832C29.6069 178.8 27.6324 180.085 27.507 180.164V180.179Z" fill="#1F4168"/>
</g>
<path d="M37.9295 373.178V374.244C37.9295 375.262 38.76 376.093 39.7786 376.093L62.2658 376.312C63.1434 376.312 63.9269 375.701 64.0679 374.839C64.3814 373.053 63.0964 372.269 63.0964 372.269C64.115 370.232 63.6918 367.067 63.3314 365.938C62.9553 364.779 62.7359 363.588 62.7359 362.381V361.801C62.7359 360.971 62.83 360.156 63.0024 359.341C63.7232 355.706 62.3128 353.794 62.2501 353.7C62.2501 353.7 63.5822 346.852 54.1015 347.102C43.6492 347.369 45.8745 354.186 45.8745 354.186C45.8588 354.233 45.8431 354.28 45.8274 354.311C44.9656 356.912 45.0909 359.78 45.0909 359.78C43.4925 363.541 41.2203 364.575 39.1518 366.926C38.3369 367.866 38.0862 368.916 38.0862 369.872C38.0862 371.313 38.6503 372.473 38.6503 372.473C38.2585 372.473 37.9452 372.786 37.9452 373.178H37.9295Z" fill="#F9A21B"/>
<path d="M37.9295 373.178V374.243C37.9295 375.262 38.76 376.093 39.7786 376.093L62.2658 376.312C63.1434 376.312 63.9269 375.701 64.0679 374.839C64.3814 373.052 63.0964 372.269 63.0964 372.269C60.8241 372.269 58.6146 371.438 56.9065 369.934L54.8537 368.116C53.3649 366.8 51.0928 366.925 49.7451 368.383L48.5541 369.668C46.8303 371.548 44.4014 372.629 41.8471 372.676C40.7815 372.692 39.6532 372.645 38.619 372.473C38.2272 372.473 37.9138 372.786 37.9138 373.178H37.9295Z" fill="#F0F2F5"/>
<path d="M56.9485 368.587C59.9886 368.587 62.2295 367.083 63.2794 364.247C63.3578 364.027 63.2481 363.776 63.0287 363.698C62.8093 363.62 62.5586 363.729 62.4802 363.949C60.8505 368.384 56.5725 367.976 54.1749 367.334C52.9682 367.02 51.7303 366.973 50.4609 367.193C43.5816 368.431 40.3221 365.704 40.2908 365.673C40.1184 365.516 39.8363 365.532 39.6796 365.72C39.5229 365.892 39.5386 366.174 39.7266 366.331C39.8676 366.456 43.2995 369.371 50.6177 368.055C51.7616 367.851 52.8899 367.898 53.9554 368.18C55.021 368.462 56.024 368.603 56.9485 368.603V368.587Z" fill="#F0F2F5"/>
<path d="M45.3535 363.651C51.512 361.332 58.1876 362.868 59.8487 363.322C60.0368 363.369 60.1934 363.213 60.1778 363.04C59.927 361.301 60.2718 358.95 60.5539 357.493C60.6793 356.866 61.4628 356.647 61.8859 357.133C62.9672 358.339 62.9985 359.342 62.9985 359.342C63.7193 355.707 62.309 353.795 62.2463 353.701C62.2306 353.701 62.1993 353.669 62.1836 353.669C60.2875 352.604 57.8742 353.669 57.4198 355.785C57.0907 357.305 57.0594 358.747 57.0594 359.358C57.0594 359.514 56.9183 359.64 56.7616 359.608C52.8126 359.044 49.3024 359.608 48.1898 359.828C48.0174 359.859 47.8608 359.702 47.8764 359.53C48.0802 358.308 48.3465 357.336 48.5973 356.568C49.1301 354.939 47.3907 353.45 45.8706 354.28C45.8549 354.28 45.8393 354.296 45.8079 354.312C44.946 356.913 45.0714 359.781 45.0714 359.781C45.4632 361.223 45.2124 362.617 45.0087 363.354C44.946 363.557 45.1497 363.745 45.3535 363.667V363.651Z" fill="#F0F2F5"/>
<path d="M58.2907 354.969C58.4474 354.969 58.5571 354.875 58.6041 354.812C58.7608 354.64 58.7451 354.358 58.5571 354.201C58.5257 354.185 58.51 354.154 58.4787 354.138H58.4474C57.4288 353.496 53.7776 351.568 49.5308 352.916C49.3114 352.995 49.1861 353.23 49.2488 353.449C49.3271 353.668 49.5622 353.794 49.7816 353.731C53.6992 352.493 57.0527 354.28 57.9929 354.859C58.1026 354.922 58.1966 354.953 58.2907 354.953V354.969Z" fill="#F0F2F5"/>
<path d="M56.222 356.488C56.5667 356.488 56.7705 356.222 56.7862 356.19C57.0212 355.877 56.9428 355.422 56.6138 355.187C56.5667 355.156 56.5197 355.125 56.4727 355.109C55.5638 354.67 52.5081 353.416 49.2016 354.811C48.8412 354.968 48.6688 355.391 48.8255 355.751C48.9822 356.112 49.4053 356.284 49.7657 356.128C52.5238 354.952 55.1094 356.033 55.8459 356.378C55.9869 356.441 56.1123 356.472 56.222 356.472V356.488Z" fill="#1F4168"/>
<path d="M56.222 357.993C56.5667 357.993 56.7705 357.726 56.7862 357.695C57.0212 357.382 56.9428 356.927 56.6138 356.692C56.5667 356.661 56.5197 356.629 56.4727 356.614C55.5638 356.175 52.5081 354.921 49.2016 356.316C48.8412 356.473 48.6688 356.896 48.8255 357.256C48.9822 357.617 49.4053 357.789 49.7657 357.632C52.5238 356.457 55.1094 357.538 55.8459 357.883C55.9869 357.946 56.1123 357.977 56.222 357.977V357.993Z" fill="#1F4168"/>
<path d="M56.222 359.481C56.5667 359.481 56.7705 359.215 56.7862 359.183C57.0212 358.87 56.9428 358.415 56.6138 358.18C56.5667 358.149 56.5197 358.118 56.4727 358.102C55.5638 357.663 52.5081 356.41 49.2016 357.804C48.8412 357.961 48.6688 358.384 48.8255 358.745C48.9822 359.105 49.4053 359.277 49.7657 359.121C52.5238 357.945 55.1094 359.027 55.8459 359.371C55.9869 359.434 56.1123 359.465 56.222 359.465V359.481Z" fill="#1F4168"/>
<g style="mix-blend-mode:multiply" opacity="0.4">
<path d="M27.6172 128.418C25.627 127.885 21.396 127.54 21.396 127.54C24.9689 112.826 25.533 99.3646 25.6427 97.2178C25.6427 97.2178 25.4233 113.39 27.6172 128.418Z" fill="#A65B3C"/>
</g>
<g style="mix-blend-mode:multiply" opacity="0.4">
<path d="M55.1016 72.5057C55.1016 72.5057 52.3749 72.255 50.9019 72.1767C48.8177 72.067 47.7364 74.6526 47.7364 74.6526L48.661 70.3589L55.1016 72.5214V72.5057Z" fill="#A65B3C"/>
</g>
<g style="mix-blend-mode:multiply" opacity="0.4">
<path d="M63.2969 74.7154C63.2969 74.7154 63.1245 73.023 62.0276 70.8291L57.3734 72.5058C57.3734 72.5058 61.4948 72.2551 63.2969 74.7154Z" fill="#A65B3C"/>
</g>
<g style="mix-blend-mode:multiply" opacity="0.4">
<path d="M54.8281 147.552C54.8281 147.552 54.7806 147.568 54.7647 147.584C54.7964 147.584 54.8281 147.568 54.8281 147.552Z" fill="#A65B3C"/>
</g>
<g style="mix-blend-mode:multiply" opacity="0.4">
<path d="M22.1397 151.361C22.1397 151.361 22.218 152.787 22.4531 154.683C22.5158 155.153 22.5785 155.67 22.6568 156.188C22.6568 156.188 42.4801 150.844 54.7188 147.6C54.4053 147.71 53.1673 148.086 51.0675 147.804C51.0675 147.804 49.0146 147.584 46.2253 148.525C46.2253 148.525 32.7486 152.113 22.1397 151.361Z" fill="#A65B3C"/>
</g>
<g style="mix-blend-mode:multiply" opacity="0.4">
<path d="M9.31689 133.495C9.31689 133.495 11.7615 128.01 18.5625 127.571C18.5625 127.571 15.8201 127.524 13.0151 128.073C12.0279 128.261 11.1973 128.903 10.7586 129.797C10.3041 130.752 9.70864 132.116 9.3012 133.51L9.31689 133.495Z" fill="#A65B3C"/>
</g>
<g style="mix-blend-mode:multiply" opacity="0.4">
<path d="M68.7482 126.477C74.0292 140.392 90.6243 145.845 90.6243 145.845C90.6399 144.513 90.7027 143.181 90.8594 141.943C84.8576 137.947 82.601 133.45 82.601 133.45L68.7639 126.492L68.7482 126.477Z" fill="#A65B3C"/>
</g>
<g style="mix-blend-mode:multiply" opacity="0.4">
<path d="M92.1052 118.185L96.2422 117.919C96.2422 117.919 91.2433 106.009 91.0552 95.5884C91.0552 95.5884 90.9455 108.767 92.1208 118.201L92.1052 118.185Z" fill="#A65B3C"/>
</g>
<path d="M57.1172 145.091C56.8978 145.828 56.4277 146.47 55.8322 146.94C55.2367 147.411 54.5002 147.693 53.7637 147.802C53.0115 147.928 52.2593 147.881 51.4915 147.802C50.7236 147.724 49.9557 147.74 49.2035 147.834C48.4357 147.912 47.6992 148.1 46.9627 148.288C46.2261 148.476 45.4896 148.664 44.7531 148.837C43.2644 149.181 41.7914 149.51 40.287 149.808C37.3096 150.419 34.2852 150.889 31.2608 151.187C29.7407 151.313 28.2207 151.438 26.7006 151.469C25.1806 151.532 23.6606 151.469 22.1405 151.391C23.6606 151.501 25.1806 151.579 26.7006 151.548C28.2207 151.548 29.7407 151.422 31.2608 151.297C34.3009 151.015 37.3096 150.56 40.3027 149.965C41.7914 149.667 43.2801 149.322 44.7688 148.978C45.5053 148.805 46.2418 148.617 46.9783 148.413C47.7149 148.21 48.4513 148.037 49.2035 147.943C49.9557 147.849 50.7236 147.834 51.4758 147.896C52.228 147.99 53.0115 148.022 53.7637 147.896C54.5159 147.771 55.2524 147.473 55.8479 146.987C56.4434 146.502 56.8978 145.843 57.1015 145.107L57.1172 145.091Z" fill="#A65B3C"/>
<path d="M66.352 138.4C66.493 138.886 66.399 139.435 66.1326 139.842C65.8662 140.265 65.4588 140.579 65.0044 140.782C64.5499 141.002 64.0641 141.143 63.5783 141.237L62.8261 141.409L62.0896 141.629C61.118 141.973 60.2092 142.428 59.363 143.008C58.5167 143.587 57.7489 144.261 57.1221 145.06C57.4512 144.669 57.8272 144.324 58.219 144.011C58.6108 143.681 59.0182 143.384 59.4413 143.117C60.2875 142.569 61.1964 142.114 62.1523 141.785L62.8731 141.55L63.6097 141.362C64.1111 141.253 64.6126 141.111 65.0671 140.876C65.5215 140.641 65.9446 140.312 66.211 139.858C66.4617 139.403 66.5244 138.855 66.3677 138.369L66.352 138.4Z" fill="#A65B3C"/>
<path d="M46.8281 130.958C46.3737 130.66 45.8409 130.503 45.3238 130.378C44.791 130.253 44.2582 130.19 43.7097 130.158C42.6284 130.096 41.5472 130.19 40.4659 130.331C38.3347 130.613 36.1565 130.535 34.041 130.111C32.9754 129.908 31.9568 129.594 30.9225 129.25C29.8883 128.921 28.8383 128.654 27.7884 128.419C26.7385 128.184 25.6729 127.996 24.5916 127.855C23.526 127.714 22.4448 127.62 21.3635 127.542C22.4448 127.636 23.5103 127.761 24.5759 127.933C25.6415 128.09 26.7072 128.294 27.7571 128.529C28.807 128.764 29.8569 129.046 30.8755 129.375C31.8941 129.72 32.9283 130.064 33.9939 130.268C36.1251 130.691 38.319 130.754 40.4659 130.441C41.5315 130.284 42.6127 130.19 43.6783 130.237C44.2111 130.237 44.7596 130.315 45.2768 130.409C45.7939 130.519 46.3267 130.66 46.7968 130.942L46.8281 130.958Z" fill="#A65B3C"/>
<path d="M52.4844 129.781C52.0769 129.405 51.5755 129.139 51.0427 128.966C50.5099 128.794 49.9144 128.763 49.3659 128.904C49.2249 128.919 49.0995 128.998 48.9585 129.029C48.8958 129.06 48.8175 129.076 48.7548 129.107L48.5667 129.217C48.4414 129.296 48.316 129.343 48.2063 129.437L47.8772 129.703C47.6578 129.875 47.4854 130.095 47.2974 130.298C47.1407 130.518 46.9683 130.753 46.8273 130.972L47.3601 130.345C47.5638 130.157 47.7519 129.954 47.9713 129.797C48.3944 129.452 48.8801 129.202 49.4129 129.076C49.93 128.935 50.4942 128.966 51.0113 129.107C51.1367 129.154 51.2777 129.186 51.4031 129.233C51.5285 129.28 51.6538 129.327 51.7792 129.39C52.0299 129.499 52.265 129.64 52.4844 129.797V129.781Z" fill="#A65B3C"/>
<path d="M52.4943 131.852C52.4943 133.058 52.604 134.265 52.7607 135.471C52.9174 136.678 53.1367 137.869 53.4345 139.044C53.5912 139.624 53.7636 140.22 53.983 140.784C54.1867 141.348 54.4217 141.912 54.7195 142.445C55.0015 142.978 55.3463 143.495 55.7381 143.949C56.1455 144.404 56.6156 144.811 57.1484 145.077C56.6156 144.78 56.1768 144.357 55.8007 143.902C55.4247 143.432 55.1112 142.915 54.8292 142.382C54.2964 141.301 53.9046 140.157 53.6069 138.997C53.2935 137.838 53.0741 136.647 52.9017 135.456C52.7293 134.265 52.5883 133.058 52.5256 131.852H52.4943Z" fill="#A65B3C"/>
<path d="M56.4453 125.378C56.1946 125.409 55.9752 125.55 55.7715 125.707C55.5834 125.879 55.411 126.052 55.2543 126.255C54.9253 126.647 54.6588 127.055 54.3611 127.462C54.079 127.87 53.797 128.277 53.4992 128.669C53.2015 129.061 52.8724 129.437 52.4964 129.766C52.9038 129.484 53.2642 129.123 53.5933 128.747C53.9223 128.371 54.2044 127.964 54.5022 127.556C54.7842 127.149 55.0663 126.726 55.3484 126.334C55.6461 125.942 55.9595 125.535 56.4453 125.378Z" fill="#A65B3C"/>
<path d="M20.5 127.542C19.3874 127.432 18.2591 127.495 17.1465 127.698C16.0339 127.902 14.9683 128.247 13.9497 128.748C12.9468 129.265 12.0222 129.924 11.2387 130.738C10.4552 131.553 9.81268 132.494 9.32689 133.496C9.60896 133.011 9.89101 132.525 10.2358 132.086C10.5648 131.632 10.941 131.224 11.3327 130.817C11.7245 130.425 12.1633 130.065 12.602 129.736C13.0565 129.422 13.5266 129.124 14.0281 128.874C15.0153 128.372 16.0809 128.027 17.1779 127.792C17.7263 127.683 18.2748 127.604 18.8232 127.557C19.3717 127.51 19.9359 127.479 20.5 127.51V127.542Z" fill="#A65B3C"/>
<path d="M18.3281 126.272C17.7483 125.943 17.1215 125.693 16.4947 125.458C15.8679 125.222 15.2254 125.034 14.5672 124.878C13.909 124.737 13.2509 124.643 12.5771 124.611C11.9032 124.58 11.2294 124.627 10.5869 124.768C11.245 124.705 11.9189 124.69 12.5771 124.737C13.2352 124.799 13.8934 124.893 14.5359 125.05C15.1784 125.191 15.8209 125.379 16.4477 125.583C17.0745 125.787 17.7013 126.022 18.3124 126.288L18.3281 126.272Z" fill="#A65B3C"/>
<path d="M25.7266 93.6772C25.7109 95.1033 25.6482 96.5293 25.5698 97.9553C25.4915 99.3813 25.3975 100.807 25.2878 102.218C25.0527 105.054 24.7706 107.89 24.3946 110.711C24.0341 113.532 23.6267 116.353 23.1096 119.158C22.6238 121.963 22.0126 124.752 21.4015 127.541C21.7306 126.147 22.091 124.768 22.3731 123.373C22.6708 121.978 22.9686 120.584 23.2036 119.173C23.7364 116.368 24.1595 113.547 24.5356 110.727C24.896 107.89 25.1781 105.054 25.3818 102.218C25.4915 100.792 25.5699 99.3656 25.6325 97.9553C25.6796 96.5293 25.7265 95.1033 25.7109 93.6772H25.7266Z" fill="#A65B3C"/>
<path d="M16.9679 73.3687C18.1118 74.2462 19.0991 75.2961 20.0079 76.4087C20.9012 77.5213 21.716 78.7123 22.4055 79.9816C22.5779 80.295 22.7346 80.6241 22.907 80.9375L23.1577 81.4233L23.3771 81.9091L23.8002 82.8963L24.1763 83.8993L24.3644 84.4007C24.427 84.5731 24.474 84.7455 24.521 84.9178L24.8345 85.9521C25.0382 86.6416 25.1792 87.3468 25.3516 88.0519C25.1949 87.3468 25.0852 86.6416 24.9128 85.9364L24.6151 84.9022C24.5681 84.7298 24.5211 84.5574 24.4584 84.385L24.286 83.8679L23.9256 82.8493L23.5024 81.8621L23.2831 81.3606L23.0324 80.8748C22.86 80.5614 22.7189 80.2324 22.5466 79.9189C21.8414 78.6653 21.0265 77.4587 20.102 76.3461C19.1774 75.2491 18.1431 74.2149 16.9679 73.3843V73.3687Z" fill="#A65B3C"/>
<path d="M50.7578 171.418L47.5923 170.948C46.5267 170.854 45.4768 170.744 44.4112 170.666C42.28 170.556 40.1488 170.478 38.0176 170.603C35.8865 170.729 33.7709 170.979 31.6867 171.45C31.1696 171.575 30.6525 171.7 30.1354 171.841C29.6339 171.998 29.1168 172.139 28.6153 172.327C27.6124 172.687 26.6252 173.111 25.7163 173.659C26.6408 173.126 27.6281 172.734 28.631 172.39C29.1325 172.202 29.6496 172.076 30.1511 171.92C30.6682 171.794 31.1853 171.669 31.7024 171.544C33.7709 171.089 35.9021 170.854 38.0176 170.744C40.1332 170.588 42.2644 170.65 44.3956 170.744C45.4612 170.807 46.5111 170.917 47.5767 171.011L50.7421 171.402L50.7578 171.418Z" fill="#A65B3C"/>
<path d="M91.9375 171.952C90.4958 172.422 89.0071 172.751 87.5027 173.033L86.3901 173.237L85.2618 173.409C84.5096 173.534 83.7575 173.628 83.0053 173.722C79.9809 174.083 76.9408 174.224 73.9164 174.224C72.3963 174.177 70.8763 174.208 69.3562 174.083C68.6041 174.036 67.8362 174.005 67.084 173.942L64.8118 173.722L63.6835 173.613L62.5552 173.456L60.2987 173.143C59.9226 173.096 59.5465 173.033 59.1704 172.955L58.0421 172.751L55.8012 172.343L58.0421 172.782L59.1547 173.002C59.5308 173.08 59.9069 173.158 60.283 173.205L62.5395 173.534L63.6678 173.707L64.7961 173.832L67.0684 174.067C67.8205 174.13 68.5884 174.177 69.3406 174.224C70.8606 174.349 72.3806 174.349 73.9007 174.396C76.9408 174.381 79.9965 174.208 83.0053 173.832C86.0297 173.456 89.0384 172.908 91.9218 171.952H91.9375Z" fill="#A65B3C"/>
<path d="M57.4374 77.5365C56.2308 77.6775 55.0085 77.7559 53.8019 77.6305C53.5042 77.5992 53.1907 77.5992 52.893 77.5522L51.9998 77.3955L51.5453 77.3171L51.1066 77.1917L50.229 76.9567C47.8941 76.2672 45.7629 74.9979 43.9294 73.4151C42.096 71.8324 40.5446 69.9206 39.3223 67.8051C38.7425 66.7395 38.1627 65.6739 37.7082 64.5299L37.3478 63.6994C37.2225 63.4173 37.1441 63.1353 37.0344 62.8375L36.4389 61.1138L37.0031 62.8532C37.0971 63.1353 37.1755 63.433 37.3008 63.7151L37.6456 64.5613C38.0844 65.7052 38.6641 66.7708 39.2283 67.8521C40.4506 69.9676 41.9863 71.9108 43.8198 73.5248C45.6689 75.1076 47.8471 76.3612 50.1977 77.0507L51.0909 77.2858L51.5297 77.3955L51.9841 77.4738L52.893 77.6149C53.1907 77.6619 53.5042 77.6619 53.8019 77.6932C55.0242 77.8029 56.2465 77.6932 57.4531 77.5208L57.4374 77.5365Z" fill="#A65B3C"/>
<path d="M67.6389 63.5894C67.9993 64.8431 68.1717 66.1594 68.062 67.4601C67.968 68.7607 67.6076 70.03 66.9964 71.174C66.4009 72.3336 65.5547 73.3522 64.5988 74.2141C63.6273 75.076 62.5147 75.7968 61.3394 76.3766C62.546 75.8595 63.69 75.17 64.6772 74.3081C65.6801 73.4462 66.5263 72.412 67.1375 71.2367C67.7486 70.0614 68.109 68.7607 68.1874 67.4444C68.2658 66.1281 68.0464 64.8117 67.6389 63.5581V63.5894Z" fill="#A65B3C"/>
<path d="M91.3964 84.9482C91.1927 87.7219 91.083 90.4799 91.0204 93.2536C90.9577 96.0273 90.9576 98.801 90.989 101.575C91.036 104.348 91.1614 107.122 91.3337 109.896C91.4904 112.669 91.7725 115.427 92.0859 118.185L91.8979 116.117L91.8039 115.083L91.7255 114.048L91.5688 111.98L91.4434 109.911C91.2867 107.138 91.1927 104.38 91.1457 101.606C91.083 98.8323 91.0674 96.0587 91.1144 93.285C91.13 91.906 91.177 90.5113 91.2084 89.1323C91.2554 87.7533 91.3024 86.3586 91.3807 84.9796L91.3964 84.9482Z" fill="#A65B3C"/>
<path d="M111.375 123.091C110.466 122.339 109.463 121.712 108.413 121.195C107.363 120.662 106.251 120.255 105.107 119.957C103.963 119.659 102.772 119.565 101.597 119.597C100.406 119.597 99.2617 119.926 98.1491 120.302L98.9953 120.067L99.4184 119.957L99.8571 119.894C100.139 119.847 100.437 119.8 100.719 119.769L101.597 119.738C102.756 119.738 103.931 119.832 105.06 120.129C106.188 120.411 107.285 120.819 108.351 121.32C108.883 121.571 109.401 121.837 109.902 122.151C110.403 122.449 110.905 122.762 111.375 123.122V123.091Z" fill="#A65B3C"/>
<path d="M110.359 118.453C109.67 118.014 108.902 117.685 108.103 117.45C107.304 117.231 106.473 117.137 105.643 117.168C105.219 117.168 104.828 117.262 104.405 117.34C104.013 117.466 103.605 117.56 103.229 117.748C103.041 117.842 102.853 117.905 102.681 118.03L102.164 118.359C101.991 118.469 101.835 118.61 101.678 118.735L101.208 119.142C101.85 118.641 102.524 118.155 103.292 117.873C103.652 117.701 104.06 117.607 104.452 117.497C104.859 117.434 105.251 117.356 105.658 117.34C106.473 117.293 107.288 117.387 108.071 117.591C108.463 117.685 108.855 117.81 109.231 117.967C109.623 118.108 109.983 118.281 110.344 118.469L110.359 118.453Z" fill="#A65B3C"/>
<path d="M91.4609 161.139C91.3042 161.766 91.0849 162.361 90.8341 162.941C90.7088 163.239 90.5677 163.521 90.4424 163.803C90.2857 164.085 90.1446 164.367 89.9879 164.633C89.8155 164.9 89.6588 165.182 89.4864 165.448L88.938 166.232L88.3268 166.968C88.1231 167.219 87.888 167.423 87.6686 167.658C86.7754 168.551 85.7725 169.35 84.6599 169.961C84.1271 170.306 83.5316 170.541 82.9518 170.807C82.6697 170.964 82.3563 171.043 82.0586 171.152L81.1497 171.466L82.0586 171.184C82.3563 171.09 82.6854 171.011 82.9675 170.886C83.5473 170.635 84.1585 170.4 84.7069 170.071C85.8509 169.475 86.8538 168.661 87.7783 167.767C88.6872 166.858 89.4708 165.824 90.0819 164.696C90.7087 163.583 91.1789 162.377 91.4453 161.123L91.4609 161.139Z" fill="#A65B3C"/>
<path d="M24.7239 163.083C25.053 163.521 25.4291 163.929 25.8208 164.305C26.2283 164.681 26.6357 165.041 27.0901 165.355C27.9833 165.997 28.9393 166.546 29.9579 166.953C30.2086 167.063 30.475 167.141 30.7257 167.235C30.9921 167.329 31.2428 167.423 31.5092 167.47L32.3084 167.674C32.5748 167.737 32.8569 167.768 33.1233 167.815C33.6561 167.925 34.2203 167.925 34.753 167.972C35.3015 167.987 35.85 167.956 36.3984 167.956C35.85 167.94 35.3015 167.956 34.7687 167.893C34.2202 167.831 33.6874 167.815 33.1546 167.69C32.0734 167.533 31.0391 167.204 30.0205 166.796C29.0019 166.405 28.0617 165.856 27.1685 165.245C26.2753 164.618 25.4447 163.913 24.7395 163.067L24.7239 163.083Z" fill="#A65B3C"/>
<path d="M81.794 131.631C82.1544 132.743 82.7029 133.778 83.3297 134.749C83.9565 135.737 84.693 136.645 85.4609 137.507C85.8683 137.93 86.2601 138.354 86.6989 138.745C87.122 139.153 87.5608 139.529 88.0152 139.889C88.454 140.265 88.9398 140.594 89.3942 140.939C89.88 141.268 90.3658 141.582 90.8516 141.895C90.3814 141.55 89.9113 141.221 89.4412 140.876C88.9868 140.516 88.5167 140.171 88.0936 139.795C87.2004 139.043 86.3698 138.244 85.5863 137.398C84.8028 136.551 84.0819 135.643 83.4394 134.687C83.2827 134.452 83.1103 134.201 82.9693 133.95C82.8126 133.699 82.6715 133.449 82.5305 133.198C82.2484 132.696 81.9977 132.164 81.794 131.631Z" fill="#A65B3C"/>
<path d="M70.0447 191.995C70.076 193.061 70.1231 194.111 70.1701 195.161L70.3424 198.326L70.5461 201.491C70.6245 202.541 70.7029 203.607 70.7969 204.657C70.7655 203.591 70.7185 202.541 70.6715 201.491L70.4991 198.326L70.2954 195.161C70.2171 194.111 70.1387 193.045 70.0447 191.995Z" fill="#1F4168"/>
<path d="M63.901 194.313C63.854 195.489 63.901 196.664 63.995 197.839C64.089 199.015 64.2614 200.19 64.5278 201.334C64.8099 202.478 65.1703 203.622 65.7658 204.64C66.0635 205.158 66.4239 205.628 66.8627 206.035C67.3015 206.427 67.8343 206.725 68.4141 206.85C67.8499 206.693 67.3328 206.38 66.9097 205.972C66.4866 205.565 66.1418 205.079 65.8754 204.578C65.3113 203.559 64.9509 202.431 64.6845 201.287C64.4181 200.143 64.2457 198.983 64.1203 197.824C63.995 196.648 63.9167 195.489 63.901 194.313Z" fill="#1F4168"/>
<path d="M70.7858 183C70.7544 183.454 70.7858 183.909 70.8171 184.348C70.8641 184.802 70.9268 185.241 71.0208 185.695C71.1148 186.134 71.2402 186.573 71.3813 186.996C71.5223 187.419 71.7103 187.842 71.9297 188.234C71.773 187.811 71.6163 187.388 71.4909 186.965C71.3655 186.542 71.2559 186.103 71.1618 185.664C71.0678 185.225 70.9895 184.786 70.9268 184.348C70.8641 183.909 70.8171 183.454 70.7701 183.016L70.7858 183Z" fill="#1B1A2E"/>
<path d="M98.0624 275.502C97.0752 275.612 96.088 275.612 95.085 275.565C94.0978 275.518 93.1105 275.408 92.139 275.22C91.8882 275.189 91.6532 275.142 91.4181 275.079C91.1831 275.016 90.9323 274.969 90.6973 274.907C90.2271 274.766 89.7414 274.656 89.2713 274.484C88.3311 274.186 87.4221 273.779 86.5133 273.371C86.952 273.59 87.3908 273.857 87.8453 274.045L88.5348 274.343C88.7698 274.437 89.0049 274.515 89.2399 274.609C90.1801 274.954 91.1517 275.189 92.1233 275.377C93.1105 275.549 94.0978 275.659 95.1007 275.675C96.1036 275.706 97.0909 275.643 98.0781 275.487L98.0624 275.502Z" fill="#1F4168"/>
<path d="M53.6484 287.005C53.241 287.334 52.8179 287.647 52.3791 287.929C51.9404 288.212 51.4859 288.462 51.0001 288.682C50.53 288.917 50.0442 289.089 49.5428 289.246C49.0413 289.402 48.5242 289.496 48.007 289.575C48.5242 289.559 49.057 289.496 49.5741 289.355C50.0912 289.23 50.5927 289.042 51.0628 288.823C52.0187 288.368 52.912 287.773 53.6328 287.005H53.6484Z" fill="#1F4168"/>
<path d="M35.1272 275.643C35.1742 276.645 35.3152 277.633 35.5189 278.62C35.7227 279.607 36.0204 280.563 36.3808 281.503C36.7569 282.444 37.227 283.337 37.7598 284.167C38.3083 285.014 38.9978 285.75 39.75 286.408L39.2328 285.875C39.1545 285.781 39.0605 285.703 38.9821 285.609L38.7471 285.311C38.5904 285.108 38.418 284.935 38.2926 284.732L37.8695 284.105C37.3524 283.258 36.8823 282.381 36.5219 281.441C36.1458 280.516 35.8637 279.56 35.6286 278.589C35.5189 278.103 35.4092 277.617 35.3309 277.131C35.2369 276.645 35.1742 276.144 35.1272 275.643Z" fill="#1F4168"/>
<path d="M43.1356 342.228C43.8564 341.821 44.6087 341.476 45.3765 341.178C46.1444 340.865 46.9279 340.598 47.7271 340.379C49.3098 339.94 50.9709 339.705 52.6163 339.768C53.4312 339.799 54.2617 339.924 55.0452 340.128C55.4526 340.222 55.8287 340.379 56.2205 340.504C56.5966 340.677 56.9727 340.833 57.3331 341.037C57.5211 341.131 57.6935 341.225 57.8659 341.351C58.0383 341.46 58.2107 341.57 58.383 341.695C58.7121 341.946 59.0412 342.197 59.3389 342.479C59.9657 343.012 60.4985 343.654 61 344.312C60.0441 342.965 58.8532 341.742 57.3958 340.943C56.6749 340.52 55.8914 340.207 55.0922 340.003C54.293 339.783 53.4625 339.642 52.6319 339.611C50.9709 339.548 49.2941 339.799 47.7114 340.254C46.113 340.724 44.5773 341.382 43.167 342.228H43.1356Z" fill="#1F4168"/>
<path d="M48.0216 329.738C48.9148 330.334 49.8237 330.882 50.7639 331.415C51.6885 331.948 52.6287 332.465 53.5846 332.966C54.5405 333.452 55.4964 333.938 56.468 334.392C57.4396 334.847 58.4268 335.27 59.4141 335.677C58.4425 335.223 57.4866 334.753 56.5307 334.283C55.5748 333.813 54.6189 333.327 53.663 332.825C52.7071 332.34 51.7668 331.822 50.8266 331.321C49.8864 330.804 48.9461 330.287 48.0372 329.738H48.0216Z" fill="#1F4168"/>
<path d="M109.406 276.145C109.156 276.583 108.873 277.006 108.576 277.43C108.294 277.853 107.98 278.26 107.683 278.652C107.056 279.451 106.398 280.219 105.692 280.94C105.348 281.316 104.971 281.645 104.611 282.005C104.423 282.178 104.219 282.334 104.031 282.507C103.843 282.679 103.639 282.836 103.436 282.993L102.84 283.463L102.213 283.901L101.9 284.121L101.571 284.325L100.913 284.716C101.806 284.246 102.699 283.729 103.498 283.102C104.313 282.491 105.081 281.817 105.786 281.081C106.492 280.344 107.165 279.576 107.761 278.746C108.372 277.931 108.92 277.069 109.391 276.16L109.406 276.145Z" fill="#1F4168"/>
<path d="M107.953 332.92C107.264 332.308 106.511 331.791 105.712 331.321C104.913 330.851 104.082 330.475 103.221 330.146C102.359 329.833 101.465 329.597 100.557 329.472C99.6477 329.315 98.7231 329.347 97.8142 329.425H98.5037H98.8485L99.1932 329.456L99.8827 329.503L100.557 329.613C101.45 329.77 102.343 329.989 103.189 330.318C104.051 330.632 104.882 331.008 105.681 331.447C106.073 331.666 106.48 331.901 106.856 332.152C107.248 332.387 107.624 332.653 107.984 332.935L107.953 332.92Z" fill="#1F4168"/>
<path d="M108.742 342.696C108.209 342.226 107.567 341.834 106.862 341.678C106.157 341.521 105.404 341.631 104.731 341.897C104.057 342.148 103.43 342.54 102.85 342.963C102.27 343.386 101.706 343.84 101.173 344.31C100.092 345.251 99.0421 346.222 97.8981 347.1C96.7699 347.962 95.5476 348.745 94.1842 349.2C95.5789 348.808 96.8326 348.056 97.9765 347.209C99.1362 346.348 100.186 345.376 101.283 344.451C102.364 343.527 103.477 342.571 104.778 342.038C105.436 341.756 106.157 341.646 106.846 341.787C107.551 341.913 108.194 342.273 108.742 342.728V342.696Z" fill="#1F4168"/>
<path d="M70.415 211.99C71.4962 211.426 72.5932 210.877 73.6901 210.313L76.9653 208.668L83.5312 205.377L81.8545 206.129L80.1934 206.913C79.0808 207.445 77.9838 207.978 76.8869 208.527C75.79 209.091 74.7087 209.639 73.6275 210.219C72.5462 210.799 71.4649 211.379 70.415 212.006V211.99Z" fill="#1F4168"/>
<path d="M62.2567 223.241C62.3037 222.756 62.3977 222.27 62.5074 221.784C62.6171 221.298 62.7425 220.828 62.8835 220.358C63.1812 219.418 63.5574 218.509 64.0275 217.647C64.4819 216.77 65.0774 215.986 65.7356 215.265L66.2527 214.732L66.8168 214.262L67.0989 214.027L67.4123 213.823L68.0234 213.416C67.1616 213.902 66.3154 214.435 65.6415 215.171C64.952 215.876 64.3409 216.675 63.8708 217.553C63.4006 218.431 63.0245 219.355 62.7425 220.295C62.4761 221.251 62.288 222.223 62.2254 223.21L62.2567 223.241Z" fill="#1F4168"/>
<path d="M38.8472 58.6383C38.8472 66.4265 44.4886 79.4331 44.4886 79.4331C48.4532 76.1893 48.6726 70.3598 48.6726 70.3598C48.6726 70.3598 51.3366 72.1933 55.1132 72.5067C57.119 72.6791 59.4226 72.4284 61.8045 71.2687C61.8045 71.2687 63.6693 73.8857 64.0611 78.8689C64.0611 78.8689 68.9033 70.8456 67.3363 61.6C67.3363 61.6 66.8975 59.6725 65.8632 58.6696C64.3745 57.2123 44.6453 55.5198 44.6453 55.5198C41.4798 55.0967 38.8472 55.1751 38.8472 58.6226V58.6383Z" fill="#1F4168"/>
<path d="M79.2518 27.516C79.2518 27.516 80.2233 32.797 79.0637 35.3826C77.9041 37.9682 76.5877 36.9967 76.5877 36.9967C76.5877 36.9967 79.9099 32.1388 78.8756 27.3906L79.2518 27.516Z" fill="#1B1B2F"/>
<path d="M41.8126 38.9874L31.9715 29.2246C31.9715 29.2246 30.3418 35.0227 33.6483 39.3635C35.7011 42.0588 34.2751 44.6131 34.2751 44.6131C34.2751 44.6131 37.3622 44.4721 36.6257 41.432C36.7354 41.6043 37.7383 42.5602 37.66 45.5063C37.66 45.5063 38.7882 45.5063 39.1643 44.6131C39.4307 43.9863 39.1643 43.3908 39.1643 43.3908C39.9322 44.0019 41.0135 44.3624 41.7656 43.9863L40.6217 42.4349C40.9037 42.7953 41.7813 43.7512 43.4267 44.1743C45.7616 44.7855 47.1406 43.7669 47.1406 43.7669L41.8126 38.9874Z" fill="#1B1B2F"/>
<path d="M64.8438 40.9165V58.9846C64.8438 62.0247 63.5431 64.9238 61.2865 66.961L55.081 72.524L44.8638 63.0747C42.8266 61.1785 41.6513 58.5302 41.6513 55.7408V40.9165H64.8281H64.8438Z" fill="#FFC89F"/>
<path d="M72.2928 43.188C72.2928 51.7128 65.3821 58.6235 56.8573 58.6235C48.3325 58.6235 41.4219 51.7128 41.4219 43.188L41.4219 24.3207C41.4219 15.7959 48.3325 8.88522 56.8573 8.88522C65.3821 8.88522 72.2928 15.7959 72.2928 24.3207V43.188Z" fill="#FFC89F"/>
<path d="M64.8438 56.4141V59.5325C63.2297 59.5325 59.5784 59.2661 56.7891 56.8215C59.5628 57.323 62.3051 57.1506 64.8438 56.4141Z" fill="#FF9A6C"/>
<path d="M68.7656 30.5563C68.7656 31.3242 68.1388 31.951 67.371 31.951C66.6031 31.951 65.9763 31.3242 65.9763 30.5563C65.9763 29.7884 66.6031 29.1616 67.371 29.1616C68.1388 29.1616 68.7656 29.7884 68.7656 30.5563Z" fill="#1B1B2F"/>
<path d="M69.1562 29.2085C68.7958 28.8167 68.357 28.519 67.8556 28.331C67.3698 28.1272 66.8213 28.0175 66.2885 28.0332H66.1945H66.1004H65.8967L65.693 28.0802C65.6303 28.0802 65.5677 28.1116 65.505 28.1272C65.3796 28.1586 65.2386 28.1899 65.1132 28.2213C64.9878 28.2683 64.8624 28.3153 64.7371 28.3623L64.549 28.4406L64.3767 28.5347L64.0319 28.7384C63.8126 28.8794 63.6088 29.0518 63.4051 29.2085C63.6402 29.0988 63.8595 28.9734 64.0946 28.8638L64.455 28.7227L64.6274 28.6444L64.8155 28.5817C64.9408 28.5503 65.0505 28.5033 65.1759 28.472C65.3012 28.4406 65.4266 28.425 65.552 28.3936C65.6147 28.3936 65.6773 28.3623 65.74 28.3623H65.9281L66.1161 28.331H66.2101H66.3041C66.4295 28.331 66.5549 28.331 66.6803 28.331C66.8056 28.331 66.931 28.3623 67.0563 28.378C67.1817 28.3936 67.3071 28.425 67.4324 28.4563C67.5578 28.4877 67.6675 28.519 67.7929 28.5503C68.2786 28.707 68.7331 28.9264 69.1719 29.2242L69.1562 29.2085Z" fill="#1B1B2F"/>
<path d="M54.1641 30.5563C54.1641 31.3242 53.5372 31.951 52.7694 31.951C52.0015 31.951 51.3747 31.3242 51.3747 30.5563C51.3747 29.7884 52.0015 29.1616 52.7694 29.1616C53.5372 29.1616 54.1641 29.7884 54.1641 30.5563Z" fill="#1B1B2F"/>
<path d="M54.5625 29.2085C54.2021 28.8167 53.7633 28.519 53.2618 28.331C52.776 28.1272 52.2275 28.0175 51.6948 28.0332H51.6007H51.5067H51.303L51.0993 28.0802C51.0366 28.0802 50.9739 28.1116 50.9112 28.1272C50.7859 28.1586 50.6448 28.1899 50.5195 28.2213C50.3941 28.2683 50.2687 28.3153 50.1434 28.3623L49.9553 28.4406L49.7829 28.5347L49.4382 28.7384C49.2188 28.8794 49.0151 29.0518 48.8114 29.2085C49.0464 29.0988 49.2658 28.9734 49.5009 28.8638L49.8613 28.7227L50.0337 28.6444L50.2217 28.5817C50.3471 28.5503 50.4568 28.5033 50.5822 28.472C50.7075 28.4406 50.8329 28.425 50.9582 28.3936C51.0209 28.3936 51.0836 28.3623 51.1463 28.3623H51.3344L51.5224 28.331H51.6164H51.7104C51.8358 28.331 51.9611 28.331 52.0865 28.331C52.2119 28.331 52.3373 28.3623 52.4626 28.378C52.588 28.3936 52.7134 28.425 52.8387 28.4563C52.9641 28.4877 53.0738 28.519 53.1992 28.5503C53.6849 28.707 54.1393 28.9264 54.5781 29.2242L54.5625 29.2085Z" fill="#1B1B2F"/>
<path d="M60.6596 35.023C60.6753 35.6341 60.738 36.2296 60.8007 36.8251C60.8634 37.4206 60.9417 38.0161 61.02 38.6116C61.0671 38.9093 61.1141 39.1914 61.0984 39.4734C61.0984 39.7555 61.02 40.0376 60.9103 40.304C60.8006 40.5704 60.644 40.8054 60.4089 40.9621C60.1582 41.1345 59.9075 41.3069 59.6724 41.4793C59.9545 41.3539 60.2208 41.2285 60.4872 41.0875C60.7693 40.9308 60.9887 40.6801 61.1297 40.398C61.2708 40.1159 61.3491 39.8025 61.3805 39.4891C61.4118 39.1757 61.3648 38.8466 61.3178 38.5645C61.2238 37.9691 61.1454 37.3736 61.0357 36.7781C60.926 36.1826 60.8163 35.6028 60.6753 35.0073L60.6596 35.023Z" fill="#1B1B2F"/>
<path d="M55.5156 43.6577C55.5626 43.9868 55.6723 44.3002 55.829 44.598C56.158 45.1935 56.7379 45.7106 57.4587 45.9613C57.8191 46.0867 58.2109 46.1337 58.587 46.1023C58.775 46.1023 58.9474 46.0553 59.1355 46.0083C59.3078 45.9456 59.4802 45.8986 59.6213 45.8046C59.6996 45.7733 59.7779 45.7263 59.8406 45.6792C59.9033 45.6322 59.9817 45.5852 60.0443 45.5225C60.1854 45.4285 60.2951 45.3032 60.4048 45.1778C60.5145 45.0524 60.6085 44.9114 60.7025 44.7704C60.7809 44.6293 60.8592 44.4569 60.9062 44.3002C60.7339 44.2689 60.5928 44.2532 60.4518 44.2376C60.4518 44.2376 60.4205 44.2376 60.4048 44.2376C60.3578 44.2376 60.2951 44.2376 60.2481 44.2219C60.154 44.2219 60.06 44.2062 59.966 44.1905C59.6839 44.1592 59.4332 44.1435 59.2138 44.0965C59.1041 44.0965 58.9944 44.0495 58.9004 44.0495C58.8064 44.0182 58.7124 44.0182 58.634 43.9868C58.4616 43.9398 58.3049 43.9085 58.1639 43.8458C57.8662 43.7518 57.5371 43.6107 57.114 43.407C56.9573 43.3287 56.7692 43.2346 56.5812 43.1406C56.5812 43.1406 56.5498 43.1406 56.5498 43.1249C56.5185 43.1093 56.4715 43.0936 56.4401 43.0623C56.1894 42.9369 55.923 42.7959 55.5939 42.6392C55.4685 42.9839 55.4686 43.3287 55.5156 43.6577Z" fill="#E43F5A"/>
<path d="M56.5355 43.123C56.5355 43.123 56.5825 43.2641 56.6138 43.3268C56.8802 43.8909 57.413 44.408 58.1182 44.6431C58.8077 44.8781 59.5912 44.7841 60.1554 44.4394C60.2181 44.3924 60.2964 44.361 60.3591 44.314C60.3904 44.2827 60.4218 44.267 60.4531 44.2357C60.4531 44.2357 60.4218 44.2357 60.4061 44.2357C60.3591 44.2357 60.2964 44.2357 60.2494 44.22C60.1554 44.22 60.0614 44.2043 59.9673 44.1886C59.6853 44.1573 59.4345 44.1416 59.2151 44.0946C59.1054 44.0946 58.9957 44.0476 58.9017 44.0476C58.8077 44.0163 58.7137 44.0163 58.6353 43.9849C58.463 43.9379 58.3062 43.9066 58.1652 43.8439C57.8675 43.7499 57.5384 43.6088 57.1153 43.4051C56.9586 43.3268 56.7705 43.2327 56.5825 43.1387C56.5825 43.1387 56.5511 43.1387 56.5511 43.123H56.5355Z" fill="white"/>
<path d="M69.1484 25.3382C69.0544 25.0404 68.8977 24.7897 68.694 24.5703C68.6 24.4606 68.4903 24.3666 68.3806 24.2726C68.3179 24.2256 68.2709 24.1785 68.2082 24.1472C68.1455 24.1002 68.0828 24.0532 68.0202 24.0218C67.503 23.7241 66.8919 23.5517 66.2807 23.5674C66.124 23.5674 65.983 23.5831 65.8263 23.6144L65.6069 23.6457C65.6069 23.6457 65.4659 23.6928 65.3875 23.7084C65.2465 23.7554 65.1055 23.8024 64.9644 23.8495C64.8234 23.9121 64.698 23.9905 64.5727 24.0689C64.51 24.1002 64.4473 24.1472 64.3846 24.1785C64.3219 24.2256 64.2749 24.2726 64.2122 24.3196C64.1025 24.4136 63.9928 24.5076 63.8988 24.6173C63.8048 24.727 63.7108 24.8524 63.6324 24.9621C63.5541 25.0874 63.4757 25.2128 63.413 25.3538C63.7264 25.3538 63.9928 25.2911 64.2435 25.2598C64.3689 25.2598 64.4943 25.2285 64.6197 25.2128C64.6824 25.2128 64.745 25.1971 64.792 25.1815C64.8547 25.1815 64.9174 25.1815 64.9644 25.1815C65.0741 25.1815 65.1994 25.1501 65.3091 25.1344C65.4188 25.1344 65.5286 25.1344 65.6383 25.1031C65.6853 25.1031 65.748 25.0874 65.795 25.0874H65.9516H66.1083H66.1867H66.2651C66.6882 25.0718 67.1113 25.1031 67.5814 25.1501C68.0515 25.1971 68.5216 25.2755 69.1171 25.3852L69.1484 25.3382Z" fill="#1B1B2F"/>
<path d="M54.5781 25.3382C54.4841 25.0404 54.3274 24.7897 54.1237 24.5703C54.0296 24.4606 53.9199 24.3666 53.8102 24.2726C53.7476 24.2256 53.7006 24.1785 53.6379 24.1472C53.5752 24.1002 53.5125 24.0532 53.4498 24.0218C52.9327 23.7241 52.3215 23.5517 51.7104 23.5674C51.5537 23.5674 51.4127 23.5831 51.256 23.6144L51.0366 23.6457C51.0366 23.6457 50.8955 23.6928 50.8172 23.7084C50.6761 23.7554 50.5351 23.8024 50.3941 23.8495C50.253 23.9121 50.1277 23.9905 50.0023 24.0689C49.9396 24.1002 49.8769 24.1472 49.8143 24.1785C49.7516 24.2256 49.7045 24.2726 49.6419 24.3196C49.5322 24.4136 49.4225 24.5076 49.3285 24.6173C49.2345 24.727 49.1404 24.8524 49.0621 24.9621C48.9837 25.0874 48.9054 25.2128 48.8427 25.3538C49.1561 25.3538 49.4225 25.2911 49.6732 25.2598C49.7986 25.2598 49.9239 25.2285 50.0493 25.2128C50.112 25.2128 50.1747 25.1971 50.2217 25.1815C50.2844 25.1815 50.3471 25.1815 50.3941 25.1815C50.5038 25.1815 50.6291 25.1501 50.7388 25.1344C50.8485 25.1344 50.9582 25.1344 51.0679 25.1031C51.1149 25.1031 51.1776 25.0874 51.2246 25.0874H51.3813H51.538H51.6164H51.6948C52.1179 25.0718 52.541 25.1031 53.0111 25.1501C53.4812 25.1971 53.9513 25.2755 54.5468 25.3852L54.5781 25.3382Z" fill="#1B1B2F"/>
<path d="M48.8637 15.6539C49.7882 13.5383 52.1545 12.4257 54.3641 13.1152C56.0251 13.6324 58.031 15.027 60.0995 18.1925C60.836 19.3051 61.4472 20.5117 61.9643 21.7497C62.9045 23.9749 65.7252 29.3813 71.7114 31.3401L72.2912 40.382L72.5105 40.288C75.9581 37.624 78.3557 33.6436 79.1549 29.1305C79.2176 28.7858 79.2646 28.441 79.3272 28.0806C79.3272 28.0806 79.1705 29.2559 80.1264 30.0864C81.004 30.8386 82.3203 30.5095 82.3203 30.5095C82.3203 30.5095 79.8287 27.3441 81.004 21.7027C82.0539 16.5941 79.8601 13.3189 75.2372 10.8117C75.2372 10.8117 78.6064 11.2504 79.2019 8.11633C79.2019 8.11633 71.8054 11.3758 66.7281 5.37398C60.5069 -1.99117 52.5149 -0.847225 50.7128 5.78142C50.7128 5.78142 49.0047 2.00481 46.137 4.21436C43.2693 6.42391 40.4016 10.0595 35.7161 12.0496C31.0306 14.0398 34.4782 26.5762 27.3951 29.3656C27.3951 29.3656 31.203 31.0423 32.4723 26.827C32.4723 26.827 28.5233 36.1509 41.4829 42.4192L40.5269 33.4243C40.5269 33.4243 45.8863 32.39 46.8579 25.9807C47.5944 21.0602 47.7667 18.1141 48.848 15.6539H48.8637Z" fill="#1B1B2F"/>
<path d="M50.7578 5.74984C50.6795 5.42076 50.5698 5.09168 50.4444 4.77826C50.3034 4.46485 50.1467 4.16711 49.943 3.88504C49.7392 3.60297 49.5042 3.33657 49.2221 3.10152C48.9401 2.86646 48.611 2.69408 48.2662 2.58439C47.9058 2.4747 47.5297 2.42768 47.1536 2.4747C46.7775 2.50604 46.4327 2.60006 46.1037 2.74109C45.4455 3.02316 44.897 3.46194 44.3956 3.93206C43.9098 4.41784 43.4867 4.93497 43.0636 5.46777C42.6562 6.00057 42.2487 6.53337 41.857 7.06617C41.4495 7.59896 41.0891 8.1631 40.6347 8.61755C40.1802 9.07199 39.6317 9.40108 39.0676 9.68315C37.908 10.2473 36.6387 10.6234 35.3694 10.9681C35.056 11.0465 34.7112 11.1562 34.3821 11.2815C34.053 11.4226 33.7239 11.595 33.4262 11.8143C33.1285 12.0337 32.8621 12.3158 32.6584 12.6292C32.4546 12.9426 32.2979 13.2874 32.2039 13.6478C32.0158 14.353 32.0159 15.0581 32.0629 15.732C32.1099 16.4058 32.2039 17.0796 32.2823 17.7221C32.439 19.0385 32.5643 20.3548 32.2823 21.6554H32.3606C32.5957 21.0443 32.721 20.3705 32.7681 19.6966C32.8151 19.0228 32.7994 18.349 32.7681 17.6751C32.7367 17.0013 32.6897 16.3431 32.6897 15.7006C32.6897 15.0581 32.721 14.4157 32.8934 13.8358C32.9874 13.5538 33.1128 13.2874 33.2695 13.0523C33.4419 12.8173 33.6456 12.6135 33.8807 12.4412C34.1157 12.2688 34.3821 12.1278 34.6642 12.0181C34.9462 11.9084 35.244 11.83 35.5731 11.7203C36.2156 11.5166 36.858 11.3129 37.4849 11.0622C38.1117 10.8114 38.7385 10.545 39.334 10.2003C39.9295 9.85552 40.4779 9.40108 40.9167 8.86828C41.3555 8.31981 41.6532 7.74 42.045 7.19153C42.7815 6.09459 43.6904 5.10735 44.7247 4.32382C45.2418 3.93206 45.7746 3.5873 46.3544 3.35225C46.6365 3.24255 46.9186 3.14853 47.2163 3.11719C47.514 3.08585 47.7961 3.10152 48.0782 3.1642C48.6423 3.30524 49.1594 3.68133 49.5825 4.15144C50.0056 4.62156 50.3661 5.1857 50.6638 5.76551H50.7422L50.7578 5.74984Z" fill="#1B1B2F"/>
<path d="M50.1559 13.8833C50.861 13.4916 51.6602 13.4289 52.4124 13.5229C52.7885 13.5699 53.1803 13.6483 53.5407 13.7736C53.7288 13.8207 53.9011 13.899 54.0892 13.9617C54.2616 14.04 54.4496 14.1027 54.622 14.1811C55.3428 14.4945 56.0323 14.8706 56.6748 15.3564C57.3016 15.8422 57.8658 16.4063 58.3829 17.0174L58.759 17.4719L59.1194 17.942C59.2448 18.0987 59.3702 18.2554 59.4799 18.4121C59.5896 18.5688 59.7149 18.7255 59.8403 18.8822C60.0596 19.2113 60.2947 19.5247 60.5141 19.8538L60.8432 20.3553L61.1723 20.8567C62.0341 22.1887 62.849 23.5521 63.6796 24.9311H63.7266C63.1624 23.411 62.4259 21.9693 61.5797 20.606C61.3603 20.2612 61.1409 19.9322 60.9058 19.6031C60.6708 19.274 60.4201 18.9606 60.185 18.6315C59.6835 18.0047 59.1508 17.3935 58.5709 16.8294C57.9911 16.2653 57.3957 15.7325 56.7688 15.231C56.1577 14.7295 55.5152 14.2124 54.7943 13.8207C54.4339 13.6326 54.0578 13.4759 53.6504 13.3505C53.4467 13.2879 53.2586 13.2408 53.0549 13.2095C52.8512 13.1782 52.6475 13.1468 52.4438 13.1311C52.0363 13.0998 51.6132 13.1311 51.2058 13.2408C50.814 13.3505 50.4223 13.5229 50.1245 13.805L50.1559 13.8363V13.8833Z" fill="#1B1B2F"/>
<path d="M40.2056 33.4407C41.2555 33.519 42.3211 33.4407 43.3553 33.1429C43.8724 33.0019 44.3739 32.7982 44.844 32.5475C45.3141 32.2967 45.7686 31.9833 46.1447 31.6072C46.5365 31.2311 46.8655 30.808 47.1476 30.3536C47.4297 29.8991 47.6491 29.4133 47.8371 28.9276C48.2132 27.9403 48.4169 26.9061 48.5266 25.8561C48.6206 24.8062 48.605 23.7406 48.4639 22.6907C48.3229 21.6564 48.2602 20.6222 48.2759 19.6036C48.2759 18.5693 48.4013 17.5507 48.6677 16.5635C48.8087 16.0777 48.9811 15.5919 49.2161 15.1375C49.4512 14.683 49.7489 14.2443 50.125 13.8995L50.0937 13.8682C49.8586 14.0092 49.6705 14.1972 49.4825 14.3853C49.3101 14.589 49.1378 14.7927 48.9967 15.0121C48.8557 15.2315 48.7303 15.4666 48.605 15.7173C48.4796 15.9523 48.3856 16.2031 48.3072 16.4538C47.9625 17.4724 47.8058 18.538 47.7901 19.5879C47.7588 20.6535 47.8685 21.7034 48.0408 22.7534C48.1975 23.7719 48.2916 24.8062 48.2759 25.8405C48.2602 26.8747 48.0878 27.9246 47.6961 28.8805C47.3043 29.8364 46.6618 30.6827 45.8783 31.3408C45.4865 31.6699 45.0791 31.9676 44.6247 32.2184C44.1859 32.4691 43.7158 32.6728 43.23 32.8452C42.2584 33.1743 41.2241 33.3623 40.1899 33.425V33.472L40.2056 33.4407Z" fill="#1B1B2F"/>
<path d="M80.7789 22.4388C80.9199 22.1568 81.0296 21.859 81.1393 21.5613C81.249 21.2635 81.3117 20.9658 81.39 20.6524C81.4684 20.339 81.4997 20.0412 81.5467 19.7278C81.5781 19.4144 81.5938 19.101 81.5938 18.7876C81.5467 18.1608 81.4213 17.534 81.3116 16.9228C81.2646 16.6094 81.202 16.3116 81.155 15.9982C81.0766 15.7005 81.0453 15.3871 80.9513 15.0737C80.9199 14.917 80.8729 14.7603 80.8259 14.6192C80.7788 14.4625 80.7319 14.3058 80.6535 14.1648C80.5908 14.0237 80.5124 13.867 80.4341 13.726C80.3557 13.585 80.2617 13.4439 80.1834 13.3029C79.8229 12.7544 79.3842 12.2686 78.8514 11.8769C78.7104 11.7829 78.585 11.6888 78.444 11.6105C78.3029 11.5321 78.1619 11.4381 78.0209 11.3754C77.7388 11.2187 77.4254 11.109 77.1276 11.015C76.5165 10.827 75.874 10.7173 75.2315 10.7643V10.8426C76.3911 11.2344 77.4567 11.7829 78.3656 12.5194C78.8201 12.8798 79.2431 13.2716 79.6036 13.726L79.87 14.0708C79.9483 14.1961 80.0267 14.3215 80.1207 14.4312C80.1677 14.4939 80.1991 14.5565 80.2304 14.6192L80.3401 14.8073C80.4184 14.9326 80.4811 15.0737 80.5595 15.199C80.6222 15.3401 80.7005 15.4654 80.7475 15.6065C80.7945 15.7475 80.8572 15.8885 80.9042 16.0296C80.9826 16.3273 81.0453 16.6251 81.0766 16.9228C81.1393 17.534 81.0296 18.1451 80.9826 18.7406C80.9356 19.0383 80.9199 19.3361 80.9042 19.6338C80.8729 19.9315 80.8572 20.2293 80.8259 20.5427C80.7945 20.8404 80.7789 21.1538 80.7632 21.4516C80.7319 21.765 80.7162 22.0627 80.7162 22.3918H80.7945L80.7789 22.4388Z" fill="#1B1B2F"/>
<path d="M43.5816 39.3176C43.5816 41.1264 42.1152 42.5928 40.3064 42.5928C38.4976 42.5928 37.0312 41.1264 37.0312 39.3176V34.9926C37.0312 33.1837 38.4976 31.7174 40.3064 31.7174C42.1152 31.7174 43.5816 33.1837 43.5816 34.9926V39.3176Z" fill="#FFC89F"/>
<path d="M40.3426 34.7554C39.9978 34.7554 39.6531 34.8807 39.3867 35.1158C39.2613 35.2412 39.1359 35.3822 39.0419 35.5232C38.9479 35.6799 38.8695 35.8366 38.8069 36.009C38.5718 36.6829 38.5875 37.435 38.8382 38.1089C38.9636 38.438 39.1673 38.767 39.4494 39.0021C39.5904 39.1275 39.7314 39.2371 39.9351 39.3155C40.0292 39.3468 40.1545 39.3782 40.2799 39.3468C40.4053 39.3155 40.5306 39.2215 40.5776 39.1275C40.703 38.9394 40.7343 38.7514 40.75 38.579C40.75 38.4066 40.75 38.2342 40.75 38.0619C40.7187 37.7171 40.6717 37.388 40.5776 37.0589C40.5776 37.4037 40.5776 37.7328 40.5463 38.0619C40.5306 38.2186 40.515 38.3909 40.4836 38.5476C40.4523 38.7044 40.4053 38.8454 40.3269 38.9394C40.2956 38.9864 40.2642 39.0021 40.2172 39.0021C40.1859 39.0021 40.1389 39.0021 40.0762 38.9708C39.9665 38.9237 39.8411 38.814 39.7314 38.72C39.5277 38.5163 39.3553 38.2499 39.2456 37.9678C39.1359 37.6858 39.0733 37.3724 39.0576 37.0589C39.0419 36.7455 39.0576 36.4321 39.1359 36.1187C39.2143 35.821 39.3397 35.5232 39.5434 35.2725C39.7314 35.0218 40.0135 34.8494 40.3426 34.7554Z" fill="#FF9A6C"/>
<path d="M41.05 36.1038C41.191 35.9315 41.2537 35.7278 41.3007 35.524C41.3477 35.3203 41.3477 35.1009 41.3007 34.8659C41.2693 34.7562 41.238 34.6465 41.1596 34.5368C41.097 34.4271 40.9873 34.3331 40.8619 34.2861C40.6112 34.1764 40.3605 34.239 40.1881 34.3644C40.4075 34.4114 40.5798 34.4898 40.6739 34.5838C40.7679 34.6778 40.8149 34.8189 40.8619 34.9756C40.8932 35.1323 40.9246 35.3203 40.9403 35.5084C40.9716 35.6964 40.9873 35.9001 41.0343 36.1038H41.05Z" fill="#FF9A6C"/>
<path d="M32.4343 26.6528C32.2306 26.8722 32.0739 27.1073 31.9172 27.358C31.7605 27.6087 31.6351 27.8595 31.5098 28.1102C31.3844 28.3766 31.2904 28.643 31.1964 28.9094C31.1023 29.1758 31.024 29.4579 30.9926 29.7399C30.8986 30.3041 30.9143 30.8839 30.8673 31.448C30.8203 32.0122 30.7576 32.5763 30.6949 33.1404C30.6949 33.2815 30.6792 33.4225 30.6636 33.5792C30.6636 33.7202 30.6636 33.8613 30.6636 34.018C30.6636 34.159 30.6792 34.3001 30.6949 34.4568C30.6949 34.5978 30.7262 34.7388 30.7576 34.8955C30.7889 35.1933 30.8673 35.4754 30.93 35.7574C31.0083 36.0395 31.1023 36.3216 31.2277 36.588C31.3374 36.8544 31.4941 37.1208 31.6508 37.3715C31.8232 37.6065 31.9799 37.8573 32.1836 38.0767C32.2776 38.1864 32.3717 38.296 32.4814 38.4057C32.591 38.4998 32.7007 38.6095 32.7947 38.7035C32.8417 38.7505 32.9044 38.7975 32.9514 38.8445L33.1238 38.9699C33.2335 39.0482 33.3589 39.1423 33.4842 39.2206L33.5312 39.1736C32.9044 38.2177 32.3403 37.3088 31.9642 36.3059C31.8545 36.0552 31.7762 35.8044 31.6821 35.5537C31.6038 35.303 31.5098 35.0522 31.4471 34.7858L31.4001 34.5978L31.3531 34.3941L31.259 34.0023C31.2277 33.8613 31.212 33.7359 31.1807 33.5949L31.118 33.1874C31.0397 32.639 31.024 32.0748 31.118 31.5264C31.212 30.9779 31.4314 30.4451 31.6038 29.928C31.6978 29.6616 31.7762 29.4108 31.8389 29.1444L32.0583 28.3452C32.1366 28.0788 32.2149 27.8125 32.2776 27.5461C32.356 27.2797 32.4187 26.9976 32.497 26.7312L32.4343 26.6998V26.6528Z" fill="#1B1B2F"/>
<path d="M58.7711 0.484387C59.4449 0.656763 60.0874 0.84481 60.7299 1.07987C61.0433 1.20523 61.3568 1.31493 61.6702 1.44029L61.9052 1.53431C61.9052 1.53431 62.0619 1.59699 62.1403 1.62834C62.297 1.69102 62.4537 1.7537 62.6104 1.81638C62.9238 1.95742 63.2372 2.06711 63.5506 2.22382C63.7073 2.30217 63.864 2.36485 64.0051 2.44321C64.1461 2.53723 64.3028 2.61558 64.4438 2.7096C64.5222 2.75662 64.5849 2.80363 64.6632 2.85064C64.7259 2.89765 64.8042 2.96033 64.8669 3.00735C64.9923 3.11704 65.1333 3.22673 65.2587 3.3521C65.384 3.46179 65.4938 3.58715 65.6191 3.72819C65.7288 3.85355 65.8385 3.97892 65.9482 4.11995C66.1676 4.38635 66.3556 4.66842 66.5594 4.93482C66.7631 5.20122 66.9981 5.48329 67.2332 5.74969C67.3586 5.87506 67.4839 6.00042 67.6093 6.14146L67.7974 6.3295C67.7974 6.3295 67.9227 6.45487 68.001 6.51755C68.1421 6.64291 68.2831 6.75261 68.4242 6.8623C68.4868 6.92498 68.5652 6.97199 68.6435 7.01901L68.8786 7.16004C69.5054 7.53613 70.2106 7.8182 70.9628 7.86522C71.0568 7.86522 71.1508 7.86522 71.2448 7.86522C71.3389 7.86522 71.4329 7.84955 71.5269 7.83387C71.715 7.83387 71.8873 7.77119 72.0754 7.72418C72.4201 7.61449 72.7492 7.44211 73.0156 7.17571L72.9686 7.11303C72.6552 7.25406 72.3261 7.33242 71.997 7.34809C71.9187 7.34809 71.8403 7.34809 71.7463 7.34809C71.6993 7.34809 71.668 7.34809 71.621 7.34809H71.4956C71.4172 7.33242 71.3389 7.33242 71.2605 7.31675C71.1822 7.30108 71.1038 7.2854 71.0255 7.26973C70.7121 7.20705 70.4143 7.09736 70.1323 6.95632L70.0225 6.90931L69.9128 6.84663L69.7092 6.73693C69.7092 6.73693 69.5681 6.65858 69.5054 6.61157L69.3017 6.47053C69.1763 6.37651 69.0196 6.29816 68.8943 6.18846C68.7689 6.09444 68.6279 5.98475 68.5025 5.89073C68.4398 5.84371 68.3771 5.7967 68.3145 5.73402L68.1264 5.56164C68.0011 5.45195 67.8757 5.34226 67.7503 5.23256C67.5153 4.99751 67.2802 4.74678 67.0295 4.51172C66.9041 4.38635 66.7787 4.26099 66.6377 4.15129C66.5123 4.0416 66.387 3.91624 66.2459 3.80654C65.9639 3.58716 65.6975 3.36777 65.4311 3.14838C65.2901 3.03869 65.149 2.92899 65.0236 2.8193L64.8199 2.64692C64.8199 2.64692 64.6789 2.53723 64.6162 2.49022C64.4752 2.38052 64.3498 2.27083 64.2088 2.16113C64.0677 2.05144 63.9267 1.94175 63.7857 1.83205C63.5193 1.61267 63.2058 1.40895 62.9081 1.2209C62.7514 1.12688 62.5947 1.04853 62.438 0.970175C62.3597 0.938833 62.2813 0.891822 62.203 0.860481L61.9522 0.766457C61.6231 0.641093 61.2784 0.54707 60.9336 0.468718C60.7613 0.437376 60.5889 0.390364 60.4165 0.374694C60.2441 0.359023 60.0717 0.327682 59.8837 0.327682C59.5233 0.296341 59.1785 0.312011 58.8181 0.374694V0.453047L58.7711 0.484387Z" fill="#1B1B2F"/>
<path d="M77.0624 10.5913C76.5767 10.7166 76.0752 10.8107 75.5581 10.8577C75.0566 10.9047 74.5552 10.9204 74.0537 10.889C73.0508 10.842 72.0479 10.654 71.1233 10.2935C70.6532 10.1212 70.1987 9.91745 69.76 9.66672C69.5406 9.55703 69.3368 9.41599 69.1175 9.27496L68.8041 9.05557C68.6944 8.99289 68.6004 8.91453 68.5063 8.83618C67.7071 8.22503 66.9863 7.50418 66.3281 6.73633C66.8922 7.58254 67.5661 8.36607 68.3653 9.02423C68.5534 9.19661 68.7727 9.33764 68.9764 9.49434C69.1958 9.63538 69.3996 9.79209 69.6346 9.91745C70.0734 10.1838 70.5435 10.4032 71.0293 10.5756C72.0008 10.936 73.0351 11.1241 74.0694 11.1241C75.1036 11.1241 76.1379 10.9674 77.0781 10.5913H77.0624Z" fill="#1F4168"/>
<path d="M80.2031 30.1171C79.968 29.8821 79.7799 29.6157 79.6546 29.3179C79.5136 29.0202 79.4039 28.7224 79.3412 28.409C79.2629 28.0956 79.2158 27.7665 79.2002 27.4531L79.1688 26.9673V26.4816C79.1688 26.4032 79.1688 26.3249 79.1688 26.2308V25.9801L79.2315 25.4943C79.2785 25.1652 79.3255 24.8518 79.3725 24.5227L79.4665 24.037C79.4979 23.8802 79.5136 23.7079 79.5606 23.5512C79.6389 23.2221 79.7016 22.9087 79.7643 22.5796C79.6389 22.893 79.5292 23.2064 79.4195 23.5042C79.3098 23.8176 79.2315 24.1466 79.1532 24.4601C79.1062 24.6168 79.0905 24.7891 79.0591 24.9458L78.9651 25.4316L78.9181 25.9331L78.8867 26.1838C78.8867 26.2622 78.8867 26.3562 78.8867 26.4345C78.8554 27.1084 78.9338 27.7822 79.1375 28.4404C79.1845 28.5971 79.2471 28.7538 79.3098 28.9105C79.3412 28.9888 79.3882 29.0672 79.4195 29.1455C79.4665 29.2239 79.4979 29.3023 79.5449 29.3649C79.7173 29.647 79.9524 29.9134 80.2188 30.1015L80.2031 30.1171Z" fill="#1F4168"/>
<path d="M67.4446 29.0523C67.9617 29.6008 68.5729 30.0866 69.2153 30.494C69.5288 30.6977 69.8735 30.8858 70.2026 31.0738C70.5474 31.2462 70.8921 31.4029 71.2525 31.5283C71.9733 31.7947 72.7255 31.9827 73.4934 32.0297C74.2612 32.0924 75.0448 32.0141 75.7656 31.779C75.0134 31.873 74.2612 31.8887 73.5091 31.779C73.133 31.732 72.7726 31.6693 72.4122 31.5596C72.0517 31.4656 71.6913 31.3559 71.3465 31.2305C70.6413 30.9798 69.9675 30.6507 69.3094 30.2746C68.6512 29.8986 68.0244 29.4911 67.4132 29.021L67.4446 29.0523Z" fill="#1F4168"/>
<path d="M57.9732 10.7964C58.647 11.1411 59.2581 11.5642 59.7909 12.0814C60.3237 12.5985 60.7939 13.1783 61.1856 13.7895C61.5931 14.4163 61.9378 15.0588 62.2512 15.7326C62.5646 16.4064 62.8467 17.0959 63.1131 17.7855C63.6616 19.1645 64.1474 20.5905 64.7428 21.9695C65.0406 22.659 65.3697 23.3328 65.7771 23.9753C66.1845 24.6021 66.639 25.2133 67.2031 25.7147C66.686 25.1819 66.2629 24.5551 65.9024 23.9126C65.542 23.2701 65.2443 22.5806 64.9622 21.8911C64.4138 20.5121 63.9437 19.0861 63.3952 17.6914C62.8467 16.2967 62.2356 14.9021 61.3737 13.6641C60.9506 13.0373 60.4491 12.4731 59.885 11.9717C59.3051 11.4859 58.6627 11.0785 57.9732 10.7964Z" fill="#1F4168"/>
<path d="M57.9766 10.796C57.3341 10.4355 56.6603 10.1535 55.9394 9.98108C55.767 9.93407 55.579 9.88706 55.3909 9.87139C55.2029 9.84005 55.0305 9.82438 54.8425 9.79304C54.4664 9.7617 54.106 9.7617 53.7299 9.79304C53.3538 9.84005 52.9933 9.9184 52.6329 10.0281C52.2881 10.1535 51.9434 10.3102 51.63 10.4982C51.0032 10.89 50.4547 11.4228 50.1257 12.0809C50.5644 11.5011 51.1442 11.0467 51.7554 10.7019C52.3822 10.3572 53.0717 10.1535 53.7612 10.0751C54.4664 9.99675 55.1715 10.0438 55.8767 10.1848C56.5819 10.3102 57.2714 10.5296 57.9609 10.7646L57.9766 10.796Z" fill="#1F4168"/>
<path d="M31.5638 32.2336C31.6108 31.5128 31.6578 30.7762 31.7988 30.0867C31.9399 29.3816 32.1749 28.7234 32.504 28.0652C32.6607 27.7362 32.8174 27.4071 32.9585 27.078C33.0995 26.7489 33.2405 26.4042 33.3502 26.0594C33.5853 25.3699 33.7263 24.6491 33.8203 23.9282C33.6166 24.6334 33.3972 25.3229 33.1308 25.9811C32.8644 26.6549 32.5353 27.2974 32.2219 27.9555C32.0652 28.2846 31.9242 28.6294 31.8145 28.9741L31.7362 29.2405C31.7048 29.3346 31.6891 29.4129 31.6735 29.5069C31.6578 29.601 31.6264 29.6793 31.6108 29.7733L31.5638 30.0397C31.4697 30.7763 31.4854 31.5128 31.5638 32.2336Z" fill="#1F4168"/>
<path d="M37.7989 31.6997C38.8488 31.308 39.8361 30.6968 40.6979 29.976C41.5755 29.2551 42.3433 28.4089 42.9858 27.4687C43.1425 27.2336 43.2993 26.9829 43.4403 26.7478C43.5813 26.4971 43.7224 26.2621 43.8477 25.9957C44.0985 25.4942 44.3178 24.9614 44.5059 24.4286C44.8663 23.3473 45.0857 22.2347 45.1641 21.1064C44.976 22.2191 44.6783 23.3003 44.2865 24.3502C44.2395 24.4756 44.1768 24.6166 44.1298 24.742C44.0671 24.8674 44.0201 25.0084 43.9731 25.1338C43.8477 25.3845 43.738 25.6352 43.6126 25.886C43.4873 26.1367 43.3463 26.3717 43.2052 26.6225C43.0642 26.8575 42.9075 27.0926 42.7508 27.3277C42.124 28.2522 41.3875 29.0828 40.5569 29.8349C40.1338 30.211 39.7107 30.5558 39.2406 30.8692C38.7862 31.1983 38.3003 31.4803 37.7989 31.7311V31.6997Z" fill="#1F4168"/>
<path d="M50.1305 7.61432C50.2402 7.06585 50.2559 6.50171 50.1305 5.95324C50.0678 5.67117 49.9581 5.40477 49.7701 5.15404C49.582 4.90331 49.2843 4.74661 48.9865 4.6996C48.6731 4.65258 48.3911 4.69959 48.109 4.79362C47.8426 4.90331 47.5762 5.01301 47.3412 5.16971C46.8554 5.46745 46.4322 5.8122 46.0405 6.20397C46.5106 5.90623 46.965 5.60849 47.4508 5.37343C47.6859 5.24806 47.9366 5.15404 48.1873 5.07569C48.4381 5.01301 48.6888 4.966 48.9395 4.99734C49.1746 5.02868 49.3939 5.13837 49.5507 5.34209C49.7074 5.53013 49.8171 5.76519 49.8954 6.01592C50.0521 6.51738 50.0991 7.06585 50.1148 7.62999L50.1305 7.61432Z" fill="#1F4168"/>
<path d="M50.7373 8.99434C51.0037 8.46155 51.3484 7.97576 51.7558 7.53698C52.1633 7.09821 52.6177 6.73779 53.1192 6.40871C54.1064 5.78188 55.2504 5.39012 56.41 5.21774C57.5696 5.0297 58.7606 5.07671 59.9202 5.32744C60.5 5.4528 61.0642 5.62518 61.6126 5.86024C62.1611 6.07962 62.6939 6.36169 63.1797 6.70645C62.2551 5.93859 61.1425 5.40579 59.9829 5.10805C58.8076 4.81031 57.5696 4.74763 56.3787 4.92C55.7832 5.01403 55.1877 5.15506 54.6236 5.37445C54.0594 5.59384 53.511 5.86023 53.0095 6.20499C52.0066 6.89449 51.1761 7.85039 50.753 8.963L50.7373 8.99434Z" fill="#1F4168"/>
<path d="M76.1892 24.6183C76.675 24.3676 77.0355 23.8818 77.2392 23.3646C77.2862 23.2393 77.3332 23.0982 77.3645 22.9572L77.4272 22.5498C77.4429 22.2677 77.4586 21.9856 77.4272 21.7192V21.5155C77.4272 21.5155 77.3802 21.3745 77.3645 21.3118L77.2705 20.9044C77.2392 20.779 77.1765 20.638 77.1452 20.5126C77.0981 20.3872 77.0668 20.2462 77.0041 20.1208C76.8944 19.8701 76.7691 19.6194 76.6437 19.3843C76.5027 19.1493 76.3616 18.9142 76.2049 18.6948C76.2989 18.9456 76.4086 19.1963 76.5027 19.447C76.5653 19.5724 76.5967 19.6977 76.6437 19.8231L76.7847 20.1992C76.8631 20.4499 76.9414 20.7007 77.0041 20.9671C77.0511 21.2335 77.1295 21.4842 77.1295 21.7506C77.1922 22.2677 77.1765 22.8005 77.0198 23.302C76.8631 23.7877 76.5967 24.2735 76.1892 24.6183Z" fill="#1F4168"/>
<path d="M74.3143 24.8529C74.5493 24.947 74.8001 24.9626 75.0508 24.9313C75.3015 24.8999 75.5522 24.7902 75.7559 24.6179C75.9597 24.4455 76.1007 24.2261 76.2104 23.991C76.2574 23.8814 76.2888 23.756 76.3358 23.6306C76.3671 23.5053 76.3828 23.3799 76.3984 23.2545L76.1321 23.2232C76.1321 23.4582 76.1321 23.6776 76.1321 23.9127C76.1321 24.1478 76.1477 24.3671 76.1791 24.6022C76.2261 24.3828 76.2731 24.1478 76.3044 23.9284C76.3358 23.709 76.3671 23.4739 76.3828 23.2389L76.1164 23.2075C76.085 23.3172 76.0537 23.4269 76.038 23.5366C75.991 23.6463 75.9597 23.756 75.9127 23.85C75.8186 24.0537 75.6933 24.2418 75.5523 24.3985C75.3956 24.5552 75.2075 24.6649 74.9881 24.7432C74.7687 24.8216 74.5336 24.8529 74.2986 24.8373L74.3143 24.8529Z" fill="#1F4168"/>
<path d="M70.6196 14.416C70.98 14.7451 71.3405 15.0898 71.6695 15.4659C71.9986 15.8264 72.312 16.2181 72.6097 16.6099C73.1895 17.3934 73.691 18.2396 74.0671 19.1329C74.2552 19.5873 74.4119 20.0417 74.5059 20.5119C74.5686 20.7469 74.5999 20.982 74.6469 21.2327C74.6783 21.4678 74.7096 21.7185 74.7096 21.9536C74.7253 22.2043 74.7096 22.4393 74.7096 22.6901L74.6783 23.0505C74.6783 23.0505 74.6782 23.1759 74.6626 23.2385L74.6312 23.4266C74.5842 23.9124 74.4432 24.3825 74.3022 24.8683C74.6939 23.9594 74.9447 22.9721 74.929 21.9692C74.929 21.7185 74.9133 21.4678 74.8977 21.217C74.8663 20.9663 74.835 20.7156 74.7723 20.4805C74.6626 19.9947 74.5216 19.5089 74.3335 19.0388C74.1455 18.5687 73.9104 18.1299 73.6597 17.7068C73.3933 17.2837 73.1112 16.8763 72.7978 16.4845C72.171 15.7167 71.4501 15.0115 70.6353 14.4474L70.6196 14.416Z" fill="#1F4168"/>
<path d="M62.4025 15.4034C62.9823 16.7354 63.6561 18.0204 64.424 19.2584C65.1919 20.4963 66.0381 21.6716 66.994 22.7686C67.4798 23.317 67.9813 23.8342 68.5297 24.32C69.0782 24.8057 69.658 25.2602 70.2848 25.6363C70.9116 26.028 71.5698 26.3415 72.275 26.5452C72.9801 26.7489 73.7167 26.8586 74.4375 26.7959C73.7167 26.7959 72.9958 26.6549 72.322 26.4041C71.6481 26.1691 71.0056 25.84 70.4102 25.4326C69.2192 24.6334 68.1693 23.6304 67.229 22.5492C66.7433 22.0164 66.3045 21.4522 65.8657 20.8724C65.4269 20.2926 65.0195 19.7128 64.6121 19.1017C64.2203 18.5062 63.8285 17.895 63.4524 17.2682C63.0763 16.6571 62.7316 16.0146 62.3868 15.3721L62.4025 15.4034Z" fill="#1F4168"/>
<path d="M35.1983 38.9561C35.3863 39.3165 35.6057 39.6299 35.8094 39.9746C36.0131 40.3037 36.2012 40.6485 36.3422 40.9932C36.4989 41.338 36.5929 41.7141 36.64 42.0902C36.6713 42.4663 36.6399 42.858 36.5773 43.2498C36.7653 42.905 36.875 42.4976 36.875 42.0745C36.875 41.6671 36.781 41.244 36.6243 40.8679C36.4676 40.4918 36.2482 40.147 35.9975 39.8336C35.7467 39.5202 35.4803 39.2225 35.1826 38.9561H35.1983Z" fill="#1F4168"/>
<path d="M35.1554 19.6343C35.3121 21.2797 35.3278 22.9251 35.2808 24.5549C35.2182 26.2003 35.0614 27.83 34.7794 29.4441C34.6383 30.2589 34.4659 31.0582 34.2779 31.8417C34.1839 32.2491 34.0899 32.6409 34.0115 33.0483C33.9332 33.4557 33.8705 33.8632 33.8391 34.2863C33.7608 35.1168 33.7607 35.963 33.9645 36.7779C34.0742 37.1853 34.2309 37.5771 34.4503 37.9375C34.654 38.2979 34.9047 38.627 35.1711 38.9404C34.9517 38.5957 34.7167 38.2509 34.5443 37.8905C34.3719 37.5301 34.2309 37.1383 34.1526 36.7466C33.9958 35.9474 34.0115 35.1325 34.1055 34.3333C34.1996 33.5184 34.3719 32.7192 34.5443 31.92C34.7324 31.1208 34.9047 30.306 35.0301 29.4911C35.2965 27.8614 35.4218 26.216 35.4375 24.5549C35.4375 23.7243 35.4375 22.9095 35.3749 22.0789C35.3278 21.2641 35.2495 20.4335 35.1241 19.6187L35.1554 19.6343Z" fill="#1F4168"/>
<path d="M29.6234 29.6637C29.9995 29.695 30.3755 29.601 30.736 29.46C31.0964 29.3189 31.4098 29.0995 31.7076 28.8488C31.9897 28.5824 32.2404 28.3003 32.4284 27.9713C32.5381 27.8146 32.6008 27.6422 32.6948 27.4698C32.7575 27.2974 32.8202 27.1094 32.8672 26.937C32.7575 27.0937 32.6635 27.2504 32.5538 27.4071L32.397 27.6265C32.397 27.6265 32.3031 27.7832 32.2404 27.8459C32.1777 27.9086 32.1307 27.9869 32.068 28.0653C32.021 28.1436 31.9426 28.2063 31.8799 28.269C31.7702 28.41 31.6292 28.5197 31.5039 28.6451C31.2375 28.8802 30.9397 29.0839 30.6263 29.2719C30.3129 29.4443 29.9838 29.5853 29.6234 29.6794V29.6637Z" fill="#1F4168"/>
<path d="M44.0624 14.4161C43.3729 15.0115 42.7148 15.654 42.1036 16.3435C41.4925 17.033 40.944 17.7696 40.4896 18.5844C40.0351 19.3836 39.6904 20.2612 39.5024 21.1701C39.2986 22.079 39.2673 23.0035 39.3613 23.9124C39.3769 23.0035 39.5023 22.0946 39.7374 21.2171C39.9725 20.3395 40.3172 19.509 40.7717 18.7255C41.2104 17.9419 41.7432 17.2054 42.3073 16.4846C42.8715 15.7794 43.467 15.0899 44.0781 14.4004L44.0624 14.4161Z" fill="#1F4168"/>
<path d="M49.9766 9.93327C49.9296 9.43182 49.8512 8.93036 49.7101 8.4289C49.6318 8.17817 49.5534 7.94311 49.4281 7.70806C49.3027 7.48867 49.1617 7.25361 48.8953 7.11257C48.7699 7.04989 48.6132 7.01855 48.4722 7.04989C48.3311 7.06556 48.2058 7.12825 48.0961 7.2066C47.8767 7.3633 47.673 7.52001 47.5006 7.70806C47.1402 8.09982 46.9051 8.58561 46.7327 9.07139C46.5604 9.55718 46.435 10.0586 46.294 10.5288C46.2156 10.7638 46.1373 10.9989 46.0589 11.2339C45.9806 11.469 45.8709 11.704 45.7612 11.9234C45.3381 12.8323 44.7426 13.6472 44.0687 14.3994L44.3508 14.1487C44.4449 14.0546 44.5389 13.9763 44.6172 13.8823C44.7896 13.6942 44.9777 13.5062 45.1344 13.3181C45.4635 12.9263 45.7455 12.4876 45.9805 12.0331C46.2156 11.5787 46.4194 11.0929 46.5604 10.6071C46.7171 10.1213 46.8268 9.61986 46.9835 9.14975C47.1245 8.67963 47.3439 8.22518 47.6573 7.84909C47.814 7.66104 48.0021 7.48867 48.1901 7.34763C48.3781 7.2066 48.6132 7.14391 48.8326 7.23794C49.0363 7.33196 49.193 7.53568 49.3184 7.75507C49.4437 7.97445 49.5378 8.20951 49.6161 8.44457C49.7728 8.91469 49.8825 9.41615 49.9609 9.9176L49.9766 9.93327Z" fill="#1F4168"/>
<path d="M41.8046 7.61528C41.6636 7.92869 41.4755 8.21076 41.2561 8.47716C41.1465 8.60252 41.0368 8.72789 40.9114 8.85325C40.786 8.96295 40.6764 9.08831 40.5353 9.198C40.0182 9.63678 39.454 10.0285 38.8586 10.3576C38.5765 10.53 38.2474 10.671 37.9497 10.8277C37.6363 10.9688 37.3229 11.0941 37.0094 11.2352L36.0536 11.6113C35.7245 11.721 35.3954 11.8307 35.0819 11.956C35.4267 11.8933 35.7558 11.815 36.1006 11.7523C36.4297 11.6583 36.7744 11.5643 37.1035 11.4546C37.2758 11.3919 37.4325 11.3292 37.5892 11.2665C37.746 11.2038 37.9183 11.1412 38.075 11.0785C38.3884 10.9218 38.7175 10.7964 39.0153 10.6084C39.172 10.5143 39.3287 10.436 39.4697 10.342L39.9085 10.0442C40.0495 9.93452 40.1906 9.82482 40.316 9.71513C40.457 9.60544 40.5824 9.48007 40.7077 9.35471C40.8331 9.22934 40.9427 9.10398 41.0681 8.96295C41.1308 8.90026 41.1778 8.82191 41.2248 8.75923C41.2718 8.68088 41.3345 8.61819 41.3815 8.53984C41.5696 8.2421 41.742 7.92869 41.8203 7.59961L41.8046 7.61528Z" fill="#1F4168"/>
<path d="M42.7268 122.73L50.7658 124.532L85.617 132.352L97.6207 135.047C98.2788 135.188 98.937 134.906 99.2818 134.326L100.003 133.104L118.98 101.183C119.512 100.29 119.011 99.1148 117.992 98.8954L63.0985 86.5783C62.456 86.4373 61.7821 86.7194 61.4374 87.2992L41.7238 120.427C41.191 121.32 41.6925 122.495 42.7111 122.715L42.7268 122.73Z" fill="#1F4168"/>
<path d="M63.7344 87.5966C63.3269 87.5025 62.8725 87.5966 62.5277 87.816C62.1516 88.051 61.9793 88.4584 61.7599 88.8032L60.4436 90.9657L57.8422 95.3065L52.6396 103.988L47.484 112.701L44.914 117.057L42.3597 121.429L44.9767 117.104L47.578 112.763L52.7806 104.082L57.9363 95.3692L60.5062 91.0127L61.7756 88.8345C61.9949 88.4741 62.1673 88.0667 62.5277 87.8316C62.8725 87.5809 63.3113 87.5025 63.7344 87.5966Z" fill="#1B1A2E"/>
<path d="M118.633 99.9132L111.769 98.3305L104.921 96.7791L91.1937 93.6764L77.4663 90.6206L70.6026 89.1006L63.7389 87.5962L70.5869 89.1789L77.4506 90.7303L91.1623 93.8331L104.89 96.8888L111.753 98.4089L118.633 99.9132Z" fill="#1B1A2E"/>
<g style="mix-blend-mode:multiply" opacity="0.4">
<path d="M50.7797 124.549L85.6309 132.368C91.194 128.874 94.3438 124.345 93.3722 120.255C91.8521 113.862 80.7888 111.009 68.6598 113.893C60.3074 115.867 53.6317 120.051 50.764 124.549H50.7797Z" fill="#1F4168"/>
</g>
<path d="M78.1366 112.749C78.1366 112.749 78.0739 112.733 78.0582 112.717C77.9329 112.639 77.8859 112.467 77.9642 112.341L79.3275 110.038C79.4059 109.912 79.5782 109.865 79.7036 109.944C79.829 110.022 79.876 110.194 79.7976 110.32L78.4343 112.623C78.3716 112.733 78.2463 112.78 78.1366 112.749Z" fill="white"/>
<path d="M80.0935 113.188C80.0935 113.188 80.0308 113.172 80.0152 113.157C79.8898 113.078 79.8428 112.906 79.9211 112.78L82.6478 108.189C82.7262 108.064 82.8986 108.017 83.0239 108.095C83.1493 108.173 83.1963 108.346 83.1179 108.471L80.3912 113.063C80.3286 113.172 80.2032 113.219 80.0935 113.188Z" fill="white"/>
<path d="M82.0232 113.627C82.0232 113.627 81.9605 113.612 81.9448 113.596C81.8195 113.518 81.7725 113.345 81.8508 113.22L84.5775 108.628C84.6559 108.503 84.8282 108.456 84.9536 108.534C85.079 108.613 85.126 108.785 85.0476 108.91L82.321 113.502C82.2583 113.612 82.1329 113.659 82.0232 113.627Z" fill="white"/>
<path d="M83.9881 114.065C83.9881 114.065 83.9254 114.049 83.9097 114.033C83.7844 113.955 83.7374 113.782 83.8157 113.657L85.179 111.354C85.2574 111.228 85.4298 111.181 85.5552 111.259C85.6805 111.338 85.7275 111.51 85.6492 111.636L84.2859 113.939C84.2232 114.049 84.0978 114.096 83.9881 114.065Z" fill="white"/>
<path d="M64.1828 139.169C64.1828 139.169 58.9018 137.366 55.8773 126.601L58.3846 121.32C58.8234 120.395 59.1212 119.424 59.2936 118.421C59.56 116.744 59.4346 115.036 58.9174 113.406C58.0556 110.915 60.0457 110.397 61.5188 111.134C62.9134 111.823 64.1514 113.265 63.885 116.258C63.838 116.791 63.8224 117.324 63.8537 117.857V118.28C63.9321 119.361 64.4648 120.38 65.3424 121.038C66.361 121.806 67.693 122.009 68.8839 121.571C68.8839 121.571 73.0523 120.207 74.3529 119.565C76.4841 118.515 78.9288 116.666 82.4546 114.566C82.4546 114.566 86.8267 111.823 89.5847 112.56C90.4623 112.795 90.619 113.986 89.8354 114.472L84.3351 117.857L78.5213 121.994C78.3333 122.135 78.3333 122.417 78.5213 122.542C78.9758 122.84 79.5399 122.903 80.0414 122.699L85.526 120.536C85.526 120.536 91.1361 117.214 94.5209 117.59C95.8843 117.747 96.182 119.58 94.9441 120.176L89.6474 122.667L85.5731 125.284L89.9765 123.796C89.9765 123.796 92.4054 122.683 94.2859 123.044C95.3828 123.247 95.5709 124.752 94.5679 125.222L91.3242 126.757L83.6299 129.97L85.4477 129.892C85.4477 129.892 87.0304 129.249 88.2684 129.421C89.24 129.562 89.4594 130.91 88.5661 131.333C87.9393 131.631 86.4819 132.273 85.5574 132.665C85.0246 132.9 84.4605 133.073 83.8807 133.167L78.2236 134.185L64.1828 139.137V139.169Z" fill="#FFC89F"/>
<g style="mix-blend-mode:multiply" opacity="0.4">
<path d="M55.0899 72.5064C57.0958 72.6787 59.3993 72.428 61.7812 71.2684C61.7812 71.2684 60.3082 69.0745 55.0899 72.5064Z" fill="#1F4168"/>
</g>
<g style="mix-blend-mode:multiply" opacity="0.4">
<path d="M48.661 70.3593C48.661 70.3593 51.325 72.1927 55.1016 72.5061C51.7794 69.9518 50.3377 69.2153 49.5542 69.2153C48.5513 69.2153 48.661 70.3593 48.661 70.3593Z" fill="#1F4168"/>
</g>
<path d="M85.5859 125.3C84.9748 125.645 84.3636 125.974 83.7368 126.303C83.1256 126.632 82.4988 126.977 81.872 127.29C81.2452 127.62 80.6184 127.917 79.9915 128.215C79.349 128.513 78.7222 128.795 78.064 129.046C78.7379 128.842 79.3961 128.607 80.0386 128.325C80.681 128.043 81.3079 127.745 81.9504 127.431C82.5772 127.102 83.1883 126.773 83.7995 126.413C84.4106 126.052 85.0061 125.692 85.5859 125.3Z" fill="#FF9A6C"/>
<path d="M83.6016 129.987C82.5673 130.316 81.5487 130.645 80.4988 130.943C79.9816 131.099 79.4645 131.241 78.9474 131.382C78.4303 131.523 77.8975 131.664 77.3804 131.789C78.4616 131.648 79.5115 131.382 80.5458 131.084C81.58 130.77 82.6143 130.41 83.6016 129.971V129.987Z" fill="#FF9A6C"/>
<path d="M79.9062 122.731C79.0914 122.935 78.3079 123.185 77.5087 123.42L76.3177 123.781C75.9259 123.906 75.5185 124.032 75.1267 124.173C75.9416 124.032 76.7565 123.812 77.5557 123.577C77.9474 123.452 78.3548 123.326 78.7466 123.185C79.1384 123.044 79.5302 122.903 79.9062 122.731Z" fill="#FF9A6C"/>
<path d="M78.5078 121.978C78.116 122.213 77.7242 122.448 77.3481 122.683C76.9721 122.933 76.596 123.169 76.2356 123.451C76.4549 123.372 76.6586 123.263 76.8467 123.153C77.0504 123.043 77.2384 122.933 77.4422 122.808C77.6302 122.683 77.8183 122.557 78.0063 122.416C78.1787 122.275 78.3667 122.134 78.5234 121.962L78.5078 121.978Z" fill="#FF9A6C"/>
</svg>
