<svg width="120" height="23" viewBox="0 0 120 23" fill="none" xmlns="http://www.w3.org/2000/svg">
<path d="M15.9043 1.68262L14.3369 4.83203C13.4873 3.98242 12.1201 3.55762 10.2354 3.55762C8.44824 3.55762 6.9834 4.30957 5.84082 5.81348C4.69824 7.30762 4.12695 9.20215 4.12695 11.4971C4.12695 13.792 4.6543 15.6133 5.70898 16.9609C6.77344 18.3086 8.18945 18.9824 9.95703 18.9824C11.9785 18.9824 13.5605 18.2598 14.7031 16.8145L16.4756 19.8906C14.9229 21.541 12.6475 22.3662 9.64941 22.3662C6.65137 22.3662 4.32227 21.3799 2.66211 19.4072C1.00195 17.4346 0.171875 14.7441 0.171875 11.3359C0.171875 8.16211 1.08984 5.51074 2.92578 3.38184C4.77148 1.24316 7.12988 0.173828 10.001 0.173828C12.4619 0.173828 14.4297 0.676758 15.9043 1.68262ZM28.0771 20.4326C27.7451 20.9795 27.1641 21.4287 26.334 21.7803C25.5137 22.1221 24.6543 22.293 23.7559 22.293C22.0664 22.293 20.7383 21.873 19.7715 21.0332C18.8047 20.1836 18.3213 18.9824 18.3213 17.4297C18.3213 15.6133 19 14.1924 20.3574 13.167C21.7246 12.1416 23.6631 11.6289 26.1729 11.6289C26.6025 11.6289 27.1104 11.7021 27.6963 11.8486C27.6963 10.0029 26.5293 9.08008 24.1953 9.08008C22.8184 9.08008 21.666 9.30957 20.7383 9.76855L19.9473 6.92676C21.207 6.32129 22.7061 6.01855 24.4443 6.01855C26.8369 6.01855 28.5898 6.56543 29.7031 7.65918C30.8164 8.74316 31.373 10.8037 31.373 13.8408V17.1953C31.373 19.2852 31.793 20.5986 32.6328 21.1357C32.3301 21.6631 31.9932 21.9854 31.6221 22.1025C31.251 22.2295 30.8262 22.293 30.3477 22.293C29.8203 22.293 29.3467 22.0977 28.9268 21.707C28.5068 21.3164 28.2236 20.8916 28.0771 20.4326ZM27.7256 14.6172C27.1006 14.4902 26.6318 14.4268 26.3193 14.4268C23.4287 14.4268 21.9834 15.374 21.9834 17.2686C21.9834 18.6748 22.7988 19.3779 24.4297 19.3779C26.627 19.3779 27.7256 18.2793 27.7256 16.082V14.6172ZM44.4102 9.72461C43.7559 9.29492 43.0381 9.08008 42.2568 9.08008C41.4072 9.08008 40.6504 9.46582 39.9863 10.2373C39.332 11.0088 39.0049 11.9512 39.0049 13.0645V22H35.3428V6.31152H39.0049V7.74707C40.0303 6.59473 41.3926 6.01855 43.0918 6.01855C44.3418 6.01855 45.2988 6.20898 45.9629 6.58984L44.4102 9.72461ZM62.1787 15.2764H50.9727C51.041 16.5264 51.4707 17.498 52.2617 18.1914C53.0527 18.8848 54.1172 19.2314 55.4551 19.2314C57.125 19.2314 58.3945 18.7969 59.2637 17.9277L60.6846 20.7256C59.3955 21.7705 57.4717 22.293 54.9131 22.293C52.5205 22.293 50.626 21.5947 49.2295 20.1982C47.8428 18.792 47.1494 16.834 47.1494 14.3242C47.1494 11.8535 47.9111 9.85156 49.4346 8.31836C50.9678 6.78516 52.8037 6.01855 54.9424 6.01855C57.2178 6.01855 59.0439 6.69727 60.4209 8.05469C61.7979 9.41211 62.4863 11.1406 62.4863 13.2402C62.4863 13.6895 62.3838 14.3682 62.1787 15.2764ZM51.1045 12.5225H58.8096C58.5557 10.2275 57.2861 9.08008 55.001 9.08008C52.9111 9.08008 51.6123 10.2275 51.1045 12.5225ZM79.4346 15.2764H68.2285C68.2969 16.5264 68.7266 17.498 69.5176 18.1914C70.3086 18.8848 71.373 19.2314 72.7109 19.2314C74.3809 19.2314 75.6504 18.7969 76.5195 17.9277L77.9404 20.7256C76.6514 21.7705 74.7275 22.293 72.1689 22.293C69.7764 22.293 67.8818 21.5947 66.4854 20.1982C65.0986 18.792 64.4053 16.834 64.4053 14.3242C64.4053 11.8535 65.167 9.85156 66.6904 8.31836C68.2236 6.78516 70.0596 6.01855 72.1982 6.01855C74.4736 6.01855 76.2998 6.69727 77.6768 8.05469C79.0537 9.41211 79.7422 11.1406 79.7422 13.2402C79.7422 13.6895 79.6396 14.3682 79.4346 15.2764ZM68.3604 12.5225H76.0654C75.8115 10.2275 74.542 9.08008 72.2568 9.08008C70.167 9.08008 68.8682 10.2275 68.3604 12.5225ZM91.7539 9.72461C91.0996 9.29492 90.3818 9.08008 89.6006 9.08008C88.751 9.08008 87.9941 9.46582 87.3301 10.2373C86.6758 11.0088 86.3486 11.9512 86.3486 13.0645V22H82.6865V6.31152H86.3486V7.74707C87.374 6.59473 88.7363 6.01855 90.4355 6.01855C91.6855 6.01855 92.6426 6.20898 93.3066 6.58984L91.7539 9.72461Z" fill="#0145FD"/>
<path d="M108.263 22L106.695 17.6494H99.3418L97.8477 22H93.6143L102.169 0.24707H103.839L112.467 22H108.263ZM103.004 6.80957L100.426 14.7344H105.582L103.004 6.80957ZM117.403 0.232422C117.989 0.232422 118.487 0.442383 118.897 0.862305C119.317 1.27246 119.527 1.77051 119.527 2.35645C119.527 2.94238 119.317 3.44531 118.897 3.86523C118.487 4.27539 117.989 4.48047 117.403 4.48047C116.817 4.48047 116.314 4.27539 115.895 3.86523C115.484 3.44531 115.279 2.94238 115.279 2.35645C115.279 1.77051 115.484 1.27246 115.895 0.862305C116.314 0.442383 116.817 0.232422 117.403 0.232422ZM115.514 22V9.31445H113.507V6.31152H119.22V22H115.514Z" fill="#FFB400"/>
</svg>
