<svg width="240" height="274" viewBox="0 0 240 274" fill="none" xmlns="http://www.w3.org/2000/svg">
<path d="M111.703 231.533H138.865C141.227 231.533 143.142 229.618 143.142 227.257C143.142 224.895 141.227 222.98 138.865 222.98H111.703C109.342 222.98 107.427 224.895 107.427 227.257C107.427 229.618 109.341 231.533 111.703 231.533ZM111.703 249.295H138.865C141.227 249.295 143.142 247.381 143.142 245.019C143.142 242.658 141.227 240.743 138.865 240.743H111.703C109.342 240.743 107.427 242.658 107.427 245.019C107.427 247.381 109.341 249.295 111.703 249.295Z" fill="url(#paint0_linear_5004_1377)"/>
<path d="M239.327 121.048C239.327 102.889 225.318 88.4347 208.237 86.9303C220.155 63.2631 201.292 34.5735 173.93 37.6207C173.126 16.9259 155.565 0 134.39 0C115.784 0 99.9777 12.893 95.8247 30.3821C65.993 15.5404 31.6354 43.9417 40.2412 75.8936C18.2207 75.6562 0 93.3257 0 115.592C0 137.478 17.7854 155.282 39.6463 155.282H74.8891C82.9787 172.461 87.2707 191.095 87.2707 209.809C87.4349 210.238 87.0492 214.804 91.5469 214.804H93.023V241.411C93.023 259.2 107.497 273.674 125.286 273.674C143.075 273.674 157.547 259.2 157.547 241.411V214.804H159.023C163.491 214.804 163.133 210.293 163.299 209.865C163.299 191.782 167.586 173.47 175.938 155.282H205.217C224.026 155.282 239.327 139.925 239.327 121.048ZM87.0672 162.16C77.9611 137.835 61.5625 122.465 74.0078 92.311L83.7938 99.7297C83.1404 101.525 82.7252 103.436 82.7252 105.455C82.7252 114.755 90.2897 122.319 99.5894 122.319C99.6989 122.319 99.7994 122.289 99.9084 122.287L110.69 142.566C108.551 145.11 107.174 148.266 106.838 151.756L87.0672 162.16ZM147.109 93.3313C139.125 94.6582 133.004 101.562 133.004 109.917C133.004 119.217 140.568 126.781 149.868 126.781C154.796 126.781 159.194 124.62 162.28 121.239L171.729 126.804L136.755 143.009C133.666 139.073 128.921 136.494 123.541 136.494C121.49 136.494 119.548 136.916 117.728 137.589L108.286 119.83C113.159 116.87 116.454 111.562 116.454 105.454C116.454 103.115 115.971 100.887 115.107 98.8595L148.571 70.583L147.109 93.3313ZM149.868 101.605C154.451 101.605 158.18 105.334 158.18 109.917C158.18 114.5 154.451 118.229 149.868 118.229C145.285 118.229 141.556 114.5 141.556 109.917C141.556 105.334 145.285 101.605 149.868 101.605ZM131.851 153.357C131.851 157.816 128.161 161.669 123.541 161.669C118.957 161.669 115.229 157.94 115.229 153.357C115.229 148.774 118.958 145.047 123.541 145.047C128.225 145.047 131.851 148.903 131.851 153.357ZM109.813 92.137C106.968 89.9472 103.45 88.5925 99.5894 88.5925C95.4099 88.5925 91.6294 90.1768 88.6801 92.7031L77.9602 84.5759C91.9052 61.7613 120.192 51.7231 145.608 61.8909L109.813 92.137ZM107.902 105.455C107.902 110.038 104.173 113.767 99.5899 113.767C95.0071 113.767 91.2779 110.038 91.2779 105.455C91.2779 100.872 95.0071 97.1448 99.5899 97.1448C104.173 97.1448 107.902 100.872 107.902 105.455ZM89.8497 170.359L108.38 160.608C109.893 163.757 112.348 166.33 115.387 168.028V206.252C114.948 206.252 95.336 206.252 95.7751 206.252C95.4489 194.108 93.4083 182.04 89.8497 170.359ZM148.995 241.411C148.995 254.485 138.359 265.121 125.287 265.121C112.212 265.121 101.576 254.485 101.576 241.411V214.804H148.996V241.411H148.995ZM154.8 206.251C154.015 206.251 122.995 206.251 123.94 206.251V170.181C127.252 170.101 130.338 169.094 132.916 167.363L156.795 187.45C155.682 193.725 154.98 199.996 154.8 206.251ZM158.836 177.994L138.533 160.915C139.689 158.631 140.403 156.088 140.403 153.357C140.403 152.503 140.274 151.682 140.151 150.862L176.895 133.836C173.436 142.614 164.806 154.268 158.836 177.994ZM166.278 113.668C166.555 112.458 166.732 111.21 166.732 109.917C166.732 102.649 162.086 96.4969 155.628 94.1314L157.291 68.2529C173.83 80.0585 183.413 100.168 180.129 121.827L166.278 113.668ZM205.218 146.73H180.17C180.588 145.943 180.958 145.153 181.392 144.366C187.115 133.997 189.831 122.19 189.251 110.22C188.143 87.4182 174.701 67.5542 155.577 57.1375C155.515 57.1025 155.469 57.0486 155.405 57.0161C155.343 56.9849 155.274 56.9802 155.211 56.9519C147.043 52.5697 137.874 49.8689 128.165 49.443C91.4712 47.8707 61.2435 77.4142 61.2418 113.422C61.2418 124.678 64.2026 135.751 69.8043 145.443C70.0485 145.866 70.2542 146.305 70.4932 146.73H39.6455C22.5011 146.73 8.55145 132.761 8.55145 115.592C8.55145 95.9616 26.6515 81.1272 45.7424 85.0787C47.3272 85.4148 48.9619 84.8115 49.9643 83.544C50.9687 82.2745 51.171 80.5477 50.4843 79.0819C37.1905 50.6301 70.9328 22.3976 96.6094 40.8137C97.8726 41.722 99.5347 41.8725 100.938 41.202C102.345 40.5336 103.276 39.1537 103.37 37.6002C104.365 21.3119 117.991 8.5523 134.39 8.5523C152.981 8.5523 167.221 24.9505 165.219 42.3023C165.058 43.7053 165.599 45.098 166.666 46.0229C167.73 46.9457 169.18 47.284 170.553 46.9291C196.813 40.0385 213.167 70.9482 196.709 88.684C195.454 90.0391 195.21 92.0476 196.104 93.664C197 95.2799 198.847 96.13 200.645 95.7935C215.991 92.8558 230.775 104.842 230.775 121.048C230.775 135.209 219.309 146.73 205.218 146.73Z" fill="url(#paint1_linear_5004_1377)"/>
<path d="M206.397 249.295C208.759 249.295 210.673 247.38 210.673 245.019V191.5L219.33 200.14C221.003 201.808 223.711 201.798 225.379 200.134C227.047 198.461 227.043 195.753 225.373 194.085L209.753 178.498C208.08 176.832 205.377 176.832 203.708 178.502L188.124 194.089C186.453 195.759 186.453 198.467 188.124 200.136C189.794 201.806 192.5 201.806 194.171 200.136L202.122 192.185V245.019C202.121 247.38 204.036 249.295 206.397 249.295ZM45.7868 177.249C43.4255 177.249 41.5106 179.164 41.5106 181.525V234.359L33.5595 226.408C31.8893 224.738 29.1833 224.738 27.5126 226.408C25.8419 228.079 25.8424 230.785 27.5126 232.455L43.0992 248.042C43.9343 248.877 45.0286 249.295 46.1224 249.295C47.2146 249.295 48.3084 248.879 49.1435 248.046L64.7613 232.46C66.4316 230.791 66.4359 228.083 64.7677 226.411C63.0996 224.738 60.3915 224.736 58.7187 226.404L50.0621 235.044V181.525C50.0629 179.164 48.1485 177.249 45.7868 177.249Z" fill="url(#paint2_linear_5004_1377)"/>
<defs>
<linearGradient id="paint0_linear_5004_1377" x1="125.284" y1="222.98" x2="125.284" y2="249.295" gradientUnits="userSpaceOnUse">
<stop stop-color="#9B9DFA"/>
<stop offset="1" stop-color="#EDB8FD"/>
</linearGradient>
<linearGradient id="paint1_linear_5004_1377" x1="119.663" y1="0" x2="119.663" y2="273.674" gradientUnits="userSpaceOnUse">
<stop stop-color="#9B9DFA"/>
<stop offset="1" stop-color="#EDB8FD"/>
</linearGradient>
<linearGradient id="paint2_linear_5004_1377" x1="126.444" y1="177.249" x2="126.444" y2="249.295" gradientUnits="userSpaceOnUse">
<stop stop-color="#9B9DFA"/>
<stop offset="1" stop-color="#EDB8FD"/>
</linearGradient>
</defs>
</svg>
