<svg width="76" height="19" viewBox="0 0 76 19" fill="none" xmlns="http://www.w3.org/2000/svg">
<path id="Vector" d="M44.9166 7.39273V7.39912C44.8787 7.39912 44.8405 7.4055 44.8026 7.4055C44.7647 7.4055 44.7265 7.39912 44.6886 7.39912C42.4277 7.39912 41.028 8.83406 41.028 11.1374V12.2698C41.028 14.4895 42.4468 15.8665 44.7202 15.8665C44.7668 15.8678 44.8134 15.8656 44.8596 15.8601C44.8912 15.8601 44.9166 15.8665 44.9482 15.8665C46.4745 15.8665 47.5386 15.3004 48.2161 14.1293L46.8672 13.3377C46.4175 14.0132 45.8158 14.5216 44.9545 14.5216C43.802 14.5216 43.1117 13.801 43.1117 12.5849V12.2632H48.4569V10.9249C48.4569 8.77592 47.07 7.39273 44.9166 7.39273ZM44.8026 8.71186C45.854 8.76339 46.4872 9.47106 46.4872 10.6356V10.9573H43.1054V10.7706C43.1054 9.48382 43.707 8.76339 44.8026 8.71186ZM36.4999 7.39912C35.493 7.39912 34.6254 7.82386 34.1694 8.53152L34.0554 8.71163V7.59199H32.1428V18.4594H34.1503V14.6634L34.2643 14.8372C34.695 15.4869 35.5374 15.8729 36.519 15.8729H36.5697H36.6139C38.2669 15.8729 39.9325 14.779 39.9325 12.3277V10.9509C39.9325 9.1879 38.9065 7.40573 36.6011 7.40573L36.5886 7.39934H36.5443L36.4999 7.39912ZM36.0313 8.9305C37.1967 8.94988 37.9186 9.75399 37.9186 11.041V12.2247C37.9186 13.5114 37.1902 14.3094 36.0123 14.3351C34.9167 14.3158 34.1503 13.4665 34.1503 12.2568V11.0407C34.1503 9.81828 34.923 8.95626 36.0313 8.9305ZM62.048 4.71618L58.1848 15.68H60.3571L61.0981 13.3315H65.3159V13.3573L66.0569 15.6864H68.2292L64.3597 4.72256H64.1317L64.1254 4.71618H62.048ZM63.2008 6.60139L64.8157 11.781H61.5729L63.2008 6.60139ZM76 6.26033V4.71618H69.3754V6.26033H71.6996V14.1229H69.3754V15.667H76V14.1229H73.6758V6.26033H76ZM54.2011 7.39934H54.1441H54.1125C52.9915 7.39934 52.1935 7.78533 51.8008 8.52537L51.6805 8.75062V7.59245H49.7679V15.6736H51.7755V10.8609C51.7755 9.72845 52.3771 9.07869 53.4157 9.05931C54.41 9.07869 54.98 9.71568 54.98 10.8159V15.6736H56.9876V10.4683C56.9876 8.54452 55.949 7.39912 54.2074 7.39912L54.2011 7.39934ZM25.689 4.49093C22.7313 4.49093 20.8884 6.36338 20.8884 9.381V11.0088C20.8884 14.0264 22.725 15.8987 25.689 15.8987H25.7334H25.7776C28.7353 15.8987 30.5782 14.0264 30.5782 11.0088V9.381C30.5782 6.36338 28.7353 4.49093 25.7776 4.49093H25.7334H25.689ZM25.7334 6.12536C27.4941 6.14474 28.5073 7.28991 28.5073 9.27157V11.1246C28.5073 13.1063 27.4941 14.2517 25.7334 14.2708C23.9727 14.2515 22.9593 13.1063 22.9593 11.1246V9.27157C22.9593 7.28991 23.9727 6.14451 25.7334 6.12536ZM8.24743 5.44023e-05C6.20172 5.44023e-05 4.38423 1.33833 3.75072 3.31361C3.10059 3.44975 2.48646 3.72502 1.9492 4.12107C1.41193 4.51712 0.963859 5.02489 0.634794 5.61057C-0.391206 7.41211 -0.156922 9.67693 1.21759 11.2211C0.793227 12.5144 0.938869 13.9298 1.61659 15.1009C2.6363 16.9089 4.68808 17.8354 6.69587 17.4043C7.13547 17.9083 7.6758 18.3114 8.28082 18.5865C8.88583 18.8617 9.54164 19.0026 10.2045 19C12.2502 19 14.0677 17.6617 14.7012 15.6864C16.0185 15.4096 17.1522 14.5732 17.8109 13.3895C18.8431 11.5879 18.6089 9.32309 17.2346 7.77894V7.77256C17.4442 7.13326 17.5171 6.45585 17.4482 5.78565C17.3794 5.11545 17.1706 4.46789 16.8356 3.88631C15.8156 2.08476 13.7636 1.158 11.7624 1.58912C11.3207 1.08639 10.779 0.68474 10.173 0.410787C9.56704 0.136834 8.91069 -0.00316842 8.24743 5.44023e-05ZM8.24743 1.23551L8.24115 1.24189C9.06451 1.24189 9.85623 1.53144 10.4895 2.06561C10.4642 2.07838 10.4134 2.11052 10.3755 2.1299L6.65166 4.31104C6.46158 4.42048 6.34758 4.62635 6.34758 4.8516V9.97308L4.7453 9.03378V4.80008C4.74494 3.85571 5.11359 2.94981 5.77025 2.2814C6.42691 1.61299 7.31788 1.23696 8.24743 1.23551ZM12.7334 2.72654C13.3505 2.72534 13.957 2.88966 14.4915 3.20292C15.0261 3.51617 15.4698 3.96724 15.7777 4.51053C16.183 5.2312 16.3349 6.07406 16.1956 6.89116C16.1702 6.87179 16.1197 6.84625 16.0879 6.82687L12.364 4.63912C12.2703 4.58529 12.1645 4.557 12.0569 4.557C11.9493 4.557 11.8435 4.58529 11.7498 4.63912L7.38615 7.19986V5.32102L10.9897 3.20417C11.5196 2.8921 12.1209 2.72729 12.7334 2.72631V2.72654ZM3.52294 4.67126V9.16875C3.52294 9.394 3.63694 9.59348 3.82702 9.7093L8.18415 12.2637L6.57536 13.2093L2.97808 11.0989C2.17417 10.6256 1.58796 9.8475 1.34814 8.93552C1.10833 8.02353 1.23449 7.05214 1.69894 6.23456C2.10866 5.51306 2.75394 4.96016 3.52294 4.67126ZM11.8701 5.78429L15.4736 7.89476C17.152 8.8792 17.7218 11.054 16.7528 12.7591L16.7591 12.7655C16.3475 13.4861 15.7014 14.0394 14.9351 14.3226V9.82489C14.9351 9.59964 14.8211 9.39377 14.631 9.28456L10.2676 6.72359L11.8701 5.78429ZM9.22272 7.33505L11.0595 8.41594V10.5713L9.22272 11.6522L7.38615 10.5713V8.41594L9.22272 7.33505ZM12.1106 9.03378L13.7129 9.97308V14.2004C13.7129 16.1693 12.1423 17.765 10.2108 17.765V17.7586C9.39372 17.7586 8.59572 17.469 7.96872 16.9351C7.99408 16.9223 8.05108 16.89 8.08272 16.8706L11.8066 14.6894C11.9966 14.58 12.1169 14.3741 12.1104 14.1489L12.1106 9.03378ZM11.0656 11.8004V13.679L7.462 15.7895C5.78364 16.7675 3.643 16.1884 2.674 14.4897H2.68029C2.26872 13.7754 2.12285 12.9262 2.26221 12.1091C2.28757 12.1285 2.33829 12.154 2.36993 12.1734L6.09378 14.3611C6.18746 14.415 6.29326 14.4432 6.40088 14.4432C6.50851 14.4432 6.6143 14.415 6.70799 14.3611L11.0656 11.8004Z" fill="#0145FD"/>
</svg>
