<?xml version="1.0" encoding="UTF-8"?>
<!DOCTYPE svg PUBLIC "-//W3C//DTD SVG 1.1//EN" "http://www.w3.org/Graphics/SVG/1.1/DTD/svg11.dtd">
<svg xmlns="http://www.w3.org/2000/svg" version="1.1" width="128px" height="128px" style="shape-rendering:geometricPrecision; text-rendering:geometricPrecision; image-rendering:optimizeQuality; fill-rule:evenodd; clip-rule:evenodd" xmlns:xlink="http://www.w3.org/1999/xlink">
<g><path style="opacity:0.991" fill="#265aae" d="M 46.5,-0.5 C 57.8333,-0.5 69.1667,-0.5 80.5,-0.5C 80.5,0.833333 80.5,2.16667 80.5,3.5C 79.5,3.5 78.5,3.5 77.5,3.5C 77.5,17.5 77.5,31.5 77.5,45.5C 81.2957,45.1616 84.2957,45.4949 86.5,46.5C 83.1667,46.5 79.8333,46.5 76.5,46.5C 76.5,43.1667 76.5,39.8333 76.5,36.5C 76.5,30.1667 76.5,23.8333 76.5,17.5C 76.5,12.8333 76.5,8.16667 76.5,3.5C 67.8333,3.5 59.1667,3.5 50.5,3.5C 50.5,8.16667 50.5,12.8333 50.5,17.5C 50.5,23.8333 50.5,30.1667 50.5,36.5C 50.5,39.8333 50.5,43.1667 50.5,46.5C 47.1667,46.5 43.8333,46.5 40.5,46.5C 42.7043,45.4949 45.7043,45.1616 49.5,45.5C 49.5,31.5 49.5,17.5 49.5,3.5C 48.5,3.5 47.5,3.5 46.5,3.5C 46.5,2.16667 46.5,0.833333 46.5,-0.5 Z"/></g>
<g><path style="opacity:1" fill="#7dd7f4" d="M 76.5,17.5 C 67.8333,17.5 59.1667,17.5 50.5,17.5C 50.5,12.8333 50.5,8.16667 50.5,3.5C 59.1667,3.5 67.8333,3.5 76.5,3.5C 76.5,8.16667 76.5,12.8333 76.5,17.5 Z"/></g>
<g><path style="opacity:1" fill="#8be2f4" d="M 50.5,17.5 C 59.1667,17.5 67.8333,17.5 76.5,17.5C 76.5,23.8333 76.5,30.1667 76.5,36.5C 67.8333,36.5 59.1667,36.5 50.5,36.5C 50.5,30.1667 50.5,23.8333 50.5,17.5 Z"/></g>
<g><path style="opacity:1" fill="#9eeff2" d="M 50.5,36.5 C 59.1667,36.5 67.8333,36.5 76.5,36.5C 76.5,39.8333 76.5,43.1667 76.5,46.5C 79.8333,46.5 83.1667,46.5 86.5,46.5C 82.8333,50.5 79.1667,54.5 75.5,58.5C 71.5201,62.1447 67.5201,65.8114 63.5,69.5C 59.4799,65.8114 55.4799,62.1447 51.5,58.5C 47.8333,54.5 44.1667,50.5 40.5,46.5C 43.8333,46.5 47.1667,46.5 50.5,46.5C 50.5,43.1667 50.5,39.8333 50.5,36.5 Z"/></g>
<g><path style="opacity:0.841" fill="#484bab" d="M 46.5,3.5 C 47.5,3.5 48.5,3.5 49.5,3.5C 49.5,17.5 49.5,31.5 49.5,45.5C 45.7043,45.1616 42.7043,45.4949 40.5,46.5C 44.1667,50.5 47.8333,54.5 51.5,58.5C 49.8333,58.5 48.1667,58.5 46.5,58.5C 40.8537,53.1883 35.187,47.855 29.5,42.5C 35.1278,41.5046 40.7945,41.1712 46.5,41.5C 46.5,28.8333 46.5,16.1667 46.5,3.5 Z"/></g>
<g><path style="opacity:0.868" fill="#494bab" d="M 80.5,3.5 C 80.5,16.1667 80.5,28.8333 80.5,41.5C 86.2055,41.1712 91.8722,41.5046 97.5,42.5C 91.813,47.855 86.1463,53.1883 80.5,58.5C 78.8333,58.5 77.1667,58.5 75.5,58.5C 79.1667,54.5 82.8333,50.5 86.5,46.5C 84.2957,45.4949 81.2957,45.1616 77.5,45.5C 77.5,31.5 77.5,17.5 77.5,3.5C 78.5,3.5 79.5,3.5 80.5,3.5 Z"/></g>
<g><path style="opacity:0.826" fill="#6a48ac" d="M 46.5,58.5 C 48.1667,58.5 49.8333,58.5 51.5,58.5C 55.4799,62.1447 59.4799,65.8114 63.5,69.5C 67.5201,65.8114 71.5201,62.1447 75.5,58.5C 77.1667,58.5 78.8333,58.5 80.5,58.5C 75.1877,64.479 69.521,70.1457 63.5,75.5C 57.479,70.1457 51.8123,64.479 46.5,58.5 Z"/></g>
<g><path style="opacity:0.993" fill="#8c51b3" d="M -0.5,77.5 C 12.8375,77.3334 26.1708,77.5001 39.5,78C 41.3346,82.0037 42.6679,86.1704 43.5,90.5C 42.209,90.2627 41.209,90.596 40.5,91.5C 39.1901,88.6015 37.8568,85.6015 36.5,82.5C 25.5202,81.5012 14.5202,81.1679 3.5,81.5C 3.5,94.1667 3.5,106.833 3.5,119.5C 2.5062,110.014 2.17287,100.348 2.5,90.5C 1.5,90.5 0.5,90.5 -0.5,90.5C -0.5,86.1667 -0.5,81.8333 -0.5,77.5 Z"/></g>
<g><path style="opacity:0.985" fill="#8d51b3" d="M 127.5,77.5 C 127.5,81.8333 127.5,86.1667 127.5,90.5C 126.5,90.5 125.5,90.5 124.5,90.5C 124.827,100.348 124.494,110.014 123.5,119.5C 123.5,106.833 123.5,94.1667 123.5,81.5C 112.48,81.1679 101.48,81.5012 90.5,82.5C 89.1432,85.6015 87.8099,88.6015 86.5,91.5C 85.791,90.596 84.791,90.2627 83.5,90.5C 84.2287,86.3138 85.5621,82.3138 87.5,78.5C 100.817,77.5008 114.15,77.1675 127.5,77.5 Z"/></g>
<g><path style="opacity:1" fill="#fefdfe" d="M 40.5,91.5 C 41.6988,95.0986 42.6988,98.7653 43.5,102.5C 56.8333,102.5 70.1667,102.5 83.5,102.5C 84.3012,98.7653 85.3012,95.0986 86.5,91.5C 87.8099,88.6015 89.1432,85.6015 90.5,82.5C 101.48,81.5012 112.48,81.1679 123.5,81.5C 123.5,94.1667 123.5,106.833 123.5,119.5C 123.056,121.113 122.056,122.28 120.5,123C 82.5,123.667 44.5,123.667 6.5,123C 4.94425,122.28 3.94425,121.113 3.5,119.5C 3.5,106.833 3.5,94.1667 3.5,81.5C 14.5202,81.1679 25.5202,81.5012 36.5,82.5C 37.8568,85.6015 39.1901,88.6015 40.5,91.5 Z"/></g>
<g><path style="opacity:1" fill="#904fb2" d="M 8.5,85.5 C 9.83333,85.5 11.1667,85.5 12.5,85.5C 12.5,86.5 12.5,87.5 12.5,88.5C 11.1667,88.5 9.83333,88.5 8.5,88.5C 8.5,87.5 8.5,86.5 8.5,85.5 Z"/></g>
<g><path style="opacity:1" fill="#8a46ae" d="M 16.5,85.5 C 17.5,85.5 18.5,85.5 19.5,85.5C 19.5,86.5 19.5,87.5 19.5,88.5C 18.5,88.5 17.5,88.5 16.5,88.5C 16.5,87.5 16.5,86.5 16.5,85.5 Z"/></g>
<g><path style="opacity:1" fill="#8a46ae" d="M 107.5,85.5 C 108.5,85.5 109.5,85.5 110.5,85.5C 110.5,86.5 110.5,87.5 110.5,88.5C 109.5,88.5 108.5,88.5 107.5,88.5C 107.5,87.5 107.5,86.5 107.5,85.5 Z"/></g>
<g><path style="opacity:1" fill="#904fb2" d="M 114.5,85.5 C 115.833,85.5 117.167,85.5 118.5,85.5C 118.5,86.5 118.5,87.5 118.5,88.5C 117.167,88.5 115.833,88.5 114.5,88.5C 114.5,87.5 114.5,86.5 114.5,85.5 Z"/></g>
<g><path style="opacity:1" fill="#d4bbe1" d="M 33.5,85.5 C 30.5,85.5 27.5,85.5 24.5,85.5C 24.5,86.5 24.5,87.5 24.5,88.5C 27.0593,88.1984 29.3926,88.5318 31.5,89.5C 28.8333,89.5 26.1667,89.5 23.5,89.5C 23.5,87.8333 23.5,86.1667 23.5,84.5C 27.0419,84.1872 30.3752,84.5206 33.5,85.5 Z"/></g>
<g><path style="opacity:1" fill="#d4bbe1" d="M 93.5,85.5 C 96.6248,84.5206 99.9581,84.1872 103.5,84.5C 103.5,86.1667 103.5,87.8333 103.5,89.5C 100.833,89.5 98.1667,89.5 95.5,89.5C 97.6074,88.5318 99.9407,88.1984 102.5,88.5C 102.5,87.5 102.5,86.5 102.5,85.5C 99.5,85.5 96.5,85.5 93.5,85.5 Z"/></g>
<g><path style="opacity:1" fill="#a84db3" d="M 33.5,85.5 C 36.3538,91.8974 38.6871,98.5641 40.5,105.5C 55.8333,105.5 71.1667,105.5 86.5,105.5C 88.3129,98.5641 90.6462,91.8974 93.5,85.5C 96.5,85.5 99.5,85.5 102.5,85.5C 102.5,86.5 102.5,87.5 102.5,88.5C 99.9407,88.1984 97.6074,88.5318 95.5,89.5C 93.2673,96.0312 90.9339,102.531 88.5,109C 71.8333,109.667 55.1667,109.667 38.5,109C 36.0661,102.531 33.7327,96.0312 31.5,89.5C 29.3926,88.5318 27.0593,88.1984 24.5,88.5C 24.5,87.5 24.5,86.5 24.5,85.5C 27.5,85.5 30.5,85.5 33.5,85.5 Z"/></g>
<g><path style="opacity:0.986" fill="#c04eb5" d="M -0.5,90.5 C 0.5,90.5 1.5,90.5 2.5,90.5C 2.17287,100.348 2.5062,110.014 3.5,119.5C 3.94425,121.113 4.94425,122.28 6.5,123C 44.5,123.667 82.5,123.667 120.5,123C 122.056,122.28 123.056,121.113 123.5,119.5C 124.494,110.014 124.827,100.348 124.5,90.5C 125.5,90.5 126.5,90.5 127.5,90.5C 127.5,101.167 127.5,111.833 127.5,122.5C 126.441,124.555 124.775,125.889 122.5,126.5C 82.8333,125.167 43.1667,125.167 3.5,126.5C 1.80584,125.473 0.472504,124.139 -0.5,122.5C -0.5,111.833 -0.5,101.167 -0.5,90.5 Z"/></g>
<g><path style="opacity:1" fill="#a351b4" d="M 43.5,90.5 C 44.8641,92.22 45.8641,94.22 46.5,96.5C 57.8333,97.8333 69.1667,97.8333 80.5,96.5C 81.1359,94.22 82.1359,92.22 83.5,90.5C 84.791,90.2627 85.791,90.596 86.5,91.5C 85.3012,95.0986 84.3012,98.7653 83.5,102.5C 70.1667,102.5 56.8333,102.5 43.5,102.5C 42.6988,98.7653 41.6988,95.0986 40.5,91.5C 41.209,90.596 42.209,90.2627 43.5,90.5 Z"/></g>
<g><path style="opacity:0.991" fill="#c841b2" d="M 3.5,126.5 C 43.1667,125.167 82.8333,125.167 122.5,126.5C 122.5,126.833 122.5,127.167 122.5,127.5C 83.1667,127.5 43.8333,127.5 4.5,127.5C 4.5,126.833 4.16667,126.5 3.5,126.5 Z"/></g>
</svg>
