<svg width="24" height="21" viewBox="0 0 24 21" fill="none" xmlns="http://www.w3.org/2000/svg">
<path d="M8.75 10C8.94891 10 9.13968 10.079 9.28033 10.2197C9.42098 10.3603 9.5 10.5511 9.5 10.75V14.25C9.5 14.4489 9.42098 14.6397 9.28033 14.7803C9.13968 14.921 8.94891 15 8.75 15C8.55109 15 8.36032 14.921 8.21967 14.7803C8.07902 14.6397 8 14.4489 8 14.25V10.75C8 10.5511 8.07902 10.3603 8.21967 10.2197C8.36032 10.079 8.55109 10 8.75 10ZM16 10.75C16 10.5511 15.921 10.3603 15.7803 10.2197C15.6397 10.079 15.4489 10 15.25 10C15.0511 10 14.8603 10.079 14.7197 10.2197C14.579 10.3603 14.5 10.5511 14.5 10.75V14.25C14.5 14.4489 14.579 14.6397 14.7197 14.7803C14.8603 14.921 15.0511 15 15.25 15C15.4489 15 15.6397 14.921 15.7803 14.7803C15.921 14.6397 16 14.4489 16 14.25V10.75Z" fill="#FFB400"/>
<path d="M9.813 0H12.25C12.4489 0 12.6397 0.0790177 12.7803 0.21967C12.921 0.360322 13 0.551088 13 0.75V4H19.75C20.3467 4 20.919 4.23705 21.341 4.65901C21.7629 5.08097 22 5.65326 22 6.25V11.5H23.25C23.4489 11.5 23.6397 11.579 23.7803 11.7197C23.921 11.8603 24 12.0511 24 12.25C24 12.4489 23.921 12.6397 23.7803 12.7803C23.6397 12.921 23.4489 13 23.25 13H22V18.75C22 19.3467 21.7629 19.919 21.341 20.341C20.919 20.7629 20.3467 21 19.75 21H4.25C3.65326 21 3.08097 20.7629 2.65901 20.341C2.23705 19.919 2 19.3467 2 18.75V13H0.75C0.551088 13 0.360322 12.921 0.21967 12.7803C0.0790176 12.6397 0 12.4489 0 12.25C0 12.0511 0.0790176 11.8603 0.21967 11.7197C0.360322 11.579 0.551088 11.5 0.75 11.5H2V6.25C2 5.65326 2.23705 5.08097 2.65901 4.65901C3.08097 4.23705 3.65326 4 4.25 4H11.5V1.5H9.813C9.61409 1.50013 9.42327 1.42124 9.28252 1.28068C9.14178 1.14013 9.06263 0.949412 9.0625 0.7505C9.06237 0.551588 9.14126 0.36077 9.28182 0.220024C9.42237 0.0792775 9.61409 0.000132608 9.813 0ZM3.5 6.25V18.75C3.5 19.164 3.836 19.5 4.25 19.5H19.75C19.9489 19.5 20.1397 19.421 20.2803 19.2803C20.421 19.1397 20.5 18.9489 20.5 18.75V6.25C20.5 6.05109 20.421 5.86032 20.2803 5.71967C20.1397 5.57902 19.9489 5.5 19.75 5.5H4.25C4.05109 5.5 3.86032 5.57902 3.71967 5.71967C3.57902 5.86032 3.5 6.05109 3.5 6.25Z" fill="#FFB400"/>
</svg>
