<svg width="272" height="272" viewBox="0 0 272 272" fill="none" xmlns="http://www.w3.org/2000/svg">
<path d="M247.157 178.647L242.444 186.392C251.791 192.082 262.934 201.329 262.934 213.066C262.934 225.461 249.92 237.954 227.228 247.344C202.934 257.397 170.536 262.933 136 262.933C101.465 262.933 69.0665 257.397 44.7723 247.344C22.0807 237.954 9.06669 225.461 9.06669 213.066C9.06669 201.329 20.2097 192.082 29.5569 186.392L24.8432 178.647C8.59078 188.54 0 200.442 0 213.066C0 229.551 14.6692 244.7 41.3059 255.722C66.6737 266.219 100.304 272 136 272C171.697 272 205.327 266.219 230.695 255.722C257.331 244.7 272.001 229.551 272.001 213.066C272.001 200.442 263.41 188.54 247.157 178.647Z" fill="url(#paint0_linear_5004_1322)"/>
<path d="M23.8515 199.822C20.0569 203.979 18.1328 208.435 18.1328 213.067C18.1328 239.568 78.8609 253.867 136 253.867C166.729 253.867 195.68 250.018 217.52 243.029C247.561 233.416 253.867 221.43 253.867 213.067C253.867 208.435 251.943 203.979 248.148 199.822L241.452 205.935C243.674 208.369 244.8 210.768 244.8 213.067C244.8 220.401 233.569 228.374 214.757 234.394C193.786 241.105 165.816 244.8 136 244.8C106.184 244.8 78.2134 241.105 57.2423 234.394C38.4305 228.374 27.1995 220.401 27.1995 213.067C27.1995 210.768 28.3256 208.369 30.5475 205.935L23.8515 199.822Z" fill="url(#paint1_linear_5004_1322)"/>
<path d="M81.6016 117.867C81.6016 118.721 81.8428 119.557 82.2975 120.28C82.7521 121.003 83.4016 121.583 84.1713 121.953C84.941 122.323 85.7994 122.468 86.6479 122.371C87.4964 122.274 88.3003 121.94 88.9671 121.407L110.392 104.267H118.743C114.509 112.223 112.698 121.246 113.534 130.221C114.37 139.195 117.817 147.728 123.448 154.765L132.462 166.032C132.886 166.563 133.425 166.992 134.038 167.286C134.651 167.581 135.322 167.734 136.002 167.734C136.682 167.734 137.353 167.581 137.966 167.286C138.578 166.992 139.117 166.563 139.542 166.032L148.555 154.765C154.187 147.728 157.633 139.195 158.469 130.221C159.306 121.246 157.495 112.223 153.26 104.267H161.611L183.036 121.407C183.703 121.94 184.507 122.275 185.355 122.371C186.204 122.468 187.062 122.323 187.832 121.953C188.602 121.583 189.251 121.003 189.706 120.28C190.161 119.557 190.402 118.721 190.402 117.867V72.5334C190.402 71.8535 190.249 71.1824 189.954 70.5696C189.66 69.9568 189.231 69.4181 188.701 68.9933L167.733 52.2192C167.731 45.1011 166.322 38.0536 163.588 31.4814C160.854 24.9092 156.849 18.9419 151.802 13.9222L139.207 1.32771C138.357 0.477584 137.204 0 136.002 0C134.799 0 133.646 0.477584 132.796 1.32771L120.201 13.9222C115.155 18.9419 111.149 24.9092 108.415 31.4814C105.681 38.0535 104.273 45.1011 104.27 52.2192L83.3027 68.9933C82.7719 69.4181 82.3434 69.9568 82.0489 70.5696C81.7544 71.1824 81.6015 71.8535 81.6016 72.5334V117.867ZM167.735 63.8324L181.335 74.7123V108.435L167.735 97.5543V63.8324ZM141.475 149.101L136.002 155.943L130.528 149.101C125.612 142.956 122.778 135.405 122.437 127.542C122.095 119.679 124.264 111.912 128.63 105.363L129.361 104.267H142.642L143.373 105.363C147.739 111.912 149.908 119.679 149.567 127.542C149.226 135.405 146.392 142.956 141.475 149.101H141.475ZM113.335 52.3887C113.319 46.433 114.484 40.5333 116.763 35.0309C119.042 29.5286 122.39 24.533 126.613 20.3332L136.002 10.9445L145.39 20.3332C149.613 24.533 152.961 29.5286 155.24 35.0309C157.52 40.5333 158.685 46.433 158.668 52.3887V95.2001H140.535V81.6001H131.468V95.2001H113.335V52.3887ZM90.6682 74.7123L104.268 63.8324V97.5543L90.6682 108.435V74.7123Z" fill="url(#paint2_linear_5004_1322)"/>
<path d="M149.599 54.4008C149.599 51.711 148.802 49.0816 147.307 46.845C145.813 44.6085 143.689 42.8654 141.204 41.836C138.719 40.8067 135.984 40.5373 133.346 41.0621C130.708 41.5869 128.285 42.8821 126.383 44.7841C124.481 46.6861 123.186 49.1094 122.661 51.7476C122.136 54.3857 122.405 57.1202 123.435 59.6053C124.464 62.0904 126.207 64.2144 128.444 65.7088C130.68 67.2032 133.31 68.0008 135.999 68.0008C139.605 67.9968 143.062 66.5626 145.612 64.013C148.161 61.4634 149.595 58.0065 149.599 54.4008ZM131.466 54.4008C131.466 53.5042 131.732 52.6277 132.23 51.8822C132.728 51.1367 133.436 50.5557 134.265 50.2126C135.093 49.8694 136.004 49.7797 136.884 49.9546C137.763 50.1295 138.571 50.5613 139.205 51.1953C139.839 51.8293 140.271 52.637 140.446 53.5164C140.621 54.3958 140.531 55.3073 140.188 56.1357C139.845 56.964 139.264 57.672 138.518 58.1702C137.773 58.6683 136.896 58.9342 135.999 58.9342C134.798 58.9328 133.645 58.4547 132.795 57.6049C131.946 56.755 131.467 55.6027 131.466 54.4008Z" fill="url(#paint3_linear_5004_1322)"/>
<path d="M81.6009 0H72.5342V36.2667H81.6009V0Z" fill="url(#paint4_linear_5004_1322)"/>
<path d="M81.6009 45.334H72.5342V54.4007H81.6009V45.334Z" fill="url(#paint5_linear_5004_1322)"/>
<path d="M49.8665 13.5996H40.7998V104.266H49.8665V13.5996Z" fill="url(#paint6_linear_5004_1322)"/>
<path d="M49.8665 113.334H40.7998V122.401H49.8665V113.334Z" fill="url(#paint7_linear_5004_1322)"/>
<path d="M18.1341 27.1992H9.06738V145.066H18.1341V27.1992Z" fill="url(#paint8_linear_5004_1322)"/>
<path d="M18.1341 154.134H9.06738V172.267H18.1341V154.134Z" fill="url(#paint9_linear_5004_1322)"/>
<path d="M204 9.06641H194.934V45.3332H204V9.06641Z" fill="url(#paint10_linear_5004_1322)"/>
<path d="M204 54.4004H194.934V63.4671H204V54.4004Z" fill="url(#paint11_linear_5004_1322)"/>
<path d="M231.199 36.2676H222.133V126.934H231.199V36.2676Z" fill="url(#paint12_linear_5004_1322)"/>
<path d="M231.199 136H222.133V145.067H231.199V136Z" fill="url(#paint13_linear_5004_1322)"/>
<path d="M262.935 27.1992H253.868V145.066H262.935V27.1992Z" fill="url(#paint14_linear_5004_1322)"/>
<path d="M262.935 154.133H253.868V172.266H262.935V154.133Z" fill="url(#paint15_linear_5004_1322)"/>
<path d="M66.9823 219.583C85.4909 227.075 110.002 231.201 136 231.201C161.998 231.201 186.509 227.075 205.018 219.583C224.825 211.566 235.734 200.397 235.734 188.134C235.734 176.985 227.001 166.939 210.481 159.081L206.586 167.269C219.536 173.428 226.667 180.838 226.667 188.134C226.667 196.335 217.536 204.735 201.616 211.179C184.163 218.243 160.86 222.134 136 222.134C111.14 222.134 87.8378 218.243 70.384 211.179C54.4642 204.735 45.3333 196.335 45.3333 188.134C45.3333 180.838 52.4648 173.428 65.414 167.269L61.5193 159.081C44.999 166.939 36.2666 176.985 36.2666 188.134C36.2666 200.397 47.175 211.566 66.9823 219.583Z" fill="url(#paint16_linear_5004_1322)"/>
<path d="M54.3994 188.134C54.3994 205.265 96.6986 213.067 136 213.067C156.965 213.067 176.731 210.892 191.654 206.941C208.87 202.384 217.6 196.056 217.6 188.134C217.6 181.845 212.045 176.526 201.089 172.325L197.843 180.791C206.299 184.033 208.533 187.012 208.533 188.134C208.533 190.052 203.321 194.474 189.334 198.176C175.146 201.932 156.204 204 136 204C115.795 204 96.8536 201.932 82.6653 198.176C68.6784 194.474 63.4661 190.052 63.4661 188.134C63.4661 187.012 65.7001 184.033 74.1559 180.791L70.9097 172.325C59.9543 176.526 54.3994 181.845 54.3994 188.134Z" fill="url(#paint17_linear_5004_1322)"/>
<path d="M92.429 177.483C104.143 182.89 119.617 185.867 136.001 185.867C152.385 185.867 167.859 182.89 179.573 177.483C192.402 171.562 199.468 163.27 199.468 154.134C199.468 142.691 188.085 132.496 169.019 126.862L166.45 135.557C181 139.857 190.401 147.148 190.401 154.134C190.401 159.45 185.07 164.961 175.773 169.251C165.225 174.119 151.101 176.8 136.001 176.8C103.942 176.8 81.6009 164.855 81.6009 154.134C81.6009 147.148 91.0024 139.857 105.552 135.557L102.983 126.862C83.9168 132.496 72.5342 142.691 72.5342 154.134C72.5342 163.27 79.5998 171.562 92.429 177.483Z" fill="url(#paint18_linear_5004_1322)"/>
<path d="M107.916 142.93C100.511 144.402 90.667 147.166 90.667 154.134C90.667 155.579 90.667 159.976 99.9938 163.252C104.322 164.772 110.33 165.987 117.37 166.764L118.365 157.752C109.385 156.76 104.186 155.251 101.542 154.131C104.17 153.086 106.899 152.312 109.685 151.822L107.916 142.93Z" fill="url(#paint19_linear_5004_1322)"/>
<path d="M154.631 166.764C161.67 165.987 167.678 164.772 172.007 163.252C174.314 162.442 181.333 159.976 181.333 154.134C181.333 147.166 171.489 144.402 164.084 142.93L162.316 151.822C165.102 152.312 167.83 153.086 170.459 154.131C167.814 155.251 162.615 156.76 153.636 157.752L154.631 166.764Z" fill="url(#paint20_linear_5004_1322)"/>
<defs>
<linearGradient id="paint0_linear_5004_1322" x1="136" y1="178.647" x2="136" y2="272" gradientUnits="userSpaceOnUse">
<stop stop-color="#9B9DFA"/>
<stop offset="1" stop-color="#EDB8FD"/>
</linearGradient>
<linearGradient id="paint1_linear_5004_1322" x1="136" y1="199.822" x2="136" y2="253.867" gradientUnits="userSpaceOnUse">
<stop stop-color="#9B9DFA"/>
<stop offset="1" stop-color="#EDB8FD"/>
</linearGradient>
<linearGradient id="paint2_linear_5004_1322" x1="136.002" y1="0" x2="136.002" y2="167.734" gradientUnits="userSpaceOnUse">
<stop stop-color="#9B9DFA"/>
<stop offset="1" stop-color="#EDB8FD"/>
</linearGradient>
<linearGradient id="paint3_linear_5004_1322" x1="135.999" y1="40.8008" x2="135.999" y2="68.0008" gradientUnits="userSpaceOnUse">
<stop stop-color="#9B9DFA"/>
<stop offset="1" stop-color="#EDB8FD"/>
</linearGradient>
<linearGradient id="paint4_linear_5004_1322" x1="77.0675" y1="0" x2="77.0675" y2="36.2667" gradientUnits="userSpaceOnUse">
<stop stop-color="#9B9DFA"/>
<stop offset="1" stop-color="#EDB8FD"/>
</linearGradient>
<linearGradient id="paint5_linear_5004_1322" x1="77.0675" y1="45.334" x2="77.0675" y2="54.4007" gradientUnits="userSpaceOnUse">
<stop stop-color="#9B9DFA"/>
<stop offset="1" stop-color="#EDB8FD"/>
</linearGradient>
<linearGradient id="paint6_linear_5004_1322" x1="45.3331" y1="13.5996" x2="45.3331" y2="104.266" gradientUnits="userSpaceOnUse">
<stop stop-color="#9B9DFA"/>
<stop offset="1" stop-color="#EDB8FD"/>
</linearGradient>
<linearGradient id="paint7_linear_5004_1322" x1="45.3331" y1="113.334" x2="45.3331" y2="122.401" gradientUnits="userSpaceOnUse">
<stop stop-color="#9B9DFA"/>
<stop offset="1" stop-color="#EDB8FD"/>
</linearGradient>
<linearGradient id="paint8_linear_5004_1322" x1="13.6007" y1="27.1992" x2="13.6007" y2="145.066" gradientUnits="userSpaceOnUse">
<stop stop-color="#9B9DFA"/>
<stop offset="1" stop-color="#EDB8FD"/>
</linearGradient>
<linearGradient id="paint9_linear_5004_1322" x1="13.6007" y1="154.134" x2="13.6007" y2="172.267" gradientUnits="userSpaceOnUse">
<stop stop-color="#9B9DFA"/>
<stop offset="1" stop-color="#EDB8FD"/>
</linearGradient>
<linearGradient id="paint10_linear_5004_1322" x1="199.467" y1="9.06641" x2="199.467" y2="45.3332" gradientUnits="userSpaceOnUse">
<stop stop-color="#9B9DFA"/>
<stop offset="1" stop-color="#EDB8FD"/>
</linearGradient>
<linearGradient id="paint11_linear_5004_1322" x1="199.467" y1="54.4004" x2="199.467" y2="63.4671" gradientUnits="userSpaceOnUse">
<stop stop-color="#9B9DFA"/>
<stop offset="1" stop-color="#EDB8FD"/>
</linearGradient>
<linearGradient id="paint12_linear_5004_1322" x1="226.666" y1="36.2676" x2="226.666" y2="126.934" gradientUnits="userSpaceOnUse">
<stop stop-color="#9B9DFA"/>
<stop offset="1" stop-color="#EDB8FD"/>
</linearGradient>
<linearGradient id="paint13_linear_5004_1322" x1="226.666" y1="136" x2="226.666" y2="145.067" gradientUnits="userSpaceOnUse">
<stop stop-color="#9B9DFA"/>
<stop offset="1" stop-color="#EDB8FD"/>
</linearGradient>
<linearGradient id="paint14_linear_5004_1322" x1="258.402" y1="27.1992" x2="258.402" y2="145.066" gradientUnits="userSpaceOnUse">
<stop stop-color="#9B9DFA"/>
<stop offset="1" stop-color="#EDB8FD"/>
</linearGradient>
<linearGradient id="paint15_linear_5004_1322" x1="258.402" y1="154.133" x2="258.402" y2="172.266" gradientUnits="userSpaceOnUse">
<stop stop-color="#9B9DFA"/>
<stop offset="1" stop-color="#EDB8FD"/>
</linearGradient>
<linearGradient id="paint16_linear_5004_1322" x1="136" y1="159.081" x2="136" y2="231.201" gradientUnits="userSpaceOnUse">
<stop stop-color="#9B9DFA"/>
<stop offset="1" stop-color="#EDB8FD"/>
</linearGradient>
<linearGradient id="paint17_linear_5004_1322" x1="136" y1="172.325" x2="136" y2="213.067" gradientUnits="userSpaceOnUse">
<stop stop-color="#9B9DFA"/>
<stop offset="1" stop-color="#EDB8FD"/>
</linearGradient>
<linearGradient id="paint18_linear_5004_1322" x1="136.001" y1="126.862" x2="136.001" y2="185.867" gradientUnits="userSpaceOnUse">
<stop stop-color="#9B9DFA"/>
<stop offset="1" stop-color="#EDB8FD"/>
</linearGradient>
<linearGradient id="paint19_linear_5004_1322" x1="104.516" y1="142.93" x2="104.516" y2="166.764" gradientUnits="userSpaceOnUse">
<stop stop-color="#9B9DFA"/>
<stop offset="1" stop-color="#EDB8FD"/>
</linearGradient>
<linearGradient id="paint20_linear_5004_1322" x1="167.485" y1="142.93" x2="167.485" y2="166.764" gradientUnits="userSpaceOnUse">
<stop stop-color="#9B9DFA"/>
<stop offset="1" stop-color="#EDB8FD"/>
</linearGradient>
</defs>
</svg>
