<svg width="208" height="176" viewBox="0 0 208 176" fill="none" xmlns="http://www.w3.org/2000/svg">
<path d="M32.5911 71.2186C30.3305 71.2186 28.4981 73.051 28.4981 75.3116C28.4981 77.5722 30.3305 79.4047 32.5911 79.4047H40.9302V120.335C40.9302 122.595 42.7627 124.428 45.0233 124.428C47.2838 124.428 49.1163 122.595 49.1163 120.335V79.4047H57.4554C59.716 79.4047 61.5484 77.5722 61.5484 75.3116C61.5484 73.051 59.716 71.2186 57.4554 71.2186H32.5911ZM174.363 39.293C183.842 39.293 191.553 47.0047 191.553 56.4837C191.553 65.9628 183.842 73.6744 174.363 73.6744C164.884 73.6744 157.172 65.9628 157.172 56.4837C157.172 47.0047 164.884 39.293 174.363 39.293ZM165.358 56.4837C165.358 61.449 169.398 65.4884 174.363 65.4884C179.328 65.4884 183.367 61.449 183.367 56.4837C183.367 51.5185 179.328 47.4791 174.363 47.4791C169.398 47.4791 165.358 51.5185 165.358 56.4837ZM162.902 176H122.381C120.036 176 46.8996 174.016 47.0556 171.633C47.198 169.458 120.345 167.814 122.525 167.814H158.809V159.628H128.521C121.739 159.628 116.242 154.131 116.242 147.349V136.707C116.242 129.925 121.739 124.428 128.521 124.428H158.809V107.237H102.326C100.065 107.237 98.2326 105.405 98.2326 103.144V27.014C98.2326 24.7534 100.065 22.9209 102.326 22.9209H158.809V12.2791C158.809 10.0185 156.977 8.18605 154.716 8.18605H53.2093C50.9487 8.18605 49.1163 10.0185 49.1163 12.2791V52.8H85.9535C88.2141 52.8 90.0465 54.6324 90.0465 56.893V138.753C90.0465 141.014 88.2141 142.847 85.9535 142.847H49.1163V167.814H85.4005C85.4005 167.814 166.853 169.458 166.995 171.633C167.151 174.016 85.5442 176 85.5442 176H45.0233C42.7627 176 40.9302 174.168 40.9302 171.907V142.847H4.09302C1.83245 142.847 0 141.014 0 138.753V56.893C0 54.6324 1.83245 52.8 4.09302 52.8H40.9302V12.2791C40.9302 5.49734 46.4276 0 53.2093 0H154.716C161.498 0 166.995 5.49734 166.995 12.2791V22.9209H203.833C206.093 22.9209 207.926 24.7534 207.926 27.014V103.144C207.926 105.405 206.093 107.237 203.833 107.237H166.995V124.428H177.637C184.419 124.428 189.916 129.925 189.916 136.707V147.349C189.916 154.131 184.419 159.628 177.637 159.628H166.995V171.907C166.995 174.168 165.163 176 162.902 176ZM81.8605 60.986H8.18605V134.66H81.8605V60.986ZM177.637 132.614H128.521C126.264 132.614 124.428 134.45 124.428 136.707V147.349C124.428 149.606 126.264 151.442 128.521 151.442H177.637C179.894 151.442 181.73 149.606 181.73 147.349V136.707C181.73 134.45 179.894 132.614 177.637 132.614ZM106.419 99.0512H169.817L132.032 63.7296C127.329 59.3345 119.963 59.3337 115.261 63.7296L106.419 71.9959V99.0512ZM199.74 31.107H106.419V60.79L109.671 57.7497C117.508 50.424 129.786 50.4244 137.622 57.7497L181.805 99.0512H199.74V31.107Z" fill="url(#paint0_linear_5008_1866)"/>
<circle cx="174.166" cy="56.8333" r="12.8333" fill="url(#paint1_linear_5008_1866)"/>
<defs>
<linearGradient id="paint0_linear_5008_1866" x1="103.963" y1="0" x2="103.963" y2="176" gradientUnits="userSpaceOnUse">
<stop stop-color="#9B9DFA"/>
<stop offset="1" stop-color="#EDB8FD"/>
</linearGradient>
<linearGradient id="paint1_linear_5008_1866" x1="174.166" y1="44" x2="174.166" y2="69.6667" gradientUnits="userSpaceOnUse">
<stop stop-color="#9B9DFA"/>
<stop offset="1" stop-color="#EDB8FD"/>
</linearGradient>
</defs>
</svg>
