<svg width="31" height="32" viewBox="0 0 31 32" fill="none" xmlns="http://www.w3.org/2000/svg">
<path d="M29.9077 12.2371L25.215 9.4199C25.2164 9.40479 25.2171 9.38945 25.2171 9.37386V0.464017C25.2171 0.207668 25.0095 0 24.7531 0H22.7112C22.4551 0 22.2472 0.207668 22.2472 0.464017C22.2472 0.720365 22.4551 0.928034 22.7112 0.928034H24.2891V8.86404L20.1396 6.37298H22.2784C22.5345 6.37298 22.7424 6.16531 22.7424 5.90896C22.7424 5.65261 22.5345 5.44494 22.2784 5.44494H18.6689C18.6463 5.44494 18.6243 5.4471 18.6025 5.45022L16.8413 4.39317H22.2781C22.5345 4.39317 22.7422 4.18526 22.7422 3.92892C22.7422 3.67281 22.5345 3.4649 22.2781 3.4649H15.3483C15.3318 3.4649 15.3157 3.46586 15.2997 3.46754L12.9321 2.04623C12.7153 1.91602 12.4252 1.98868 12.2952 2.20522L12.1333 2.475H7.4284C7.17229 2.475 6.96438 2.68266 6.96438 2.93901V7.88901C6.96438 8.14511 7.17229 8.35302 7.4284 8.35302H8.60463L5.41766 13.662V0.928034H20.5664C20.8228 0.928034 21.0304 0.720365 21.0304 0.464017C21.0304 0.207668 20.8228 0 20.5664 0H4.95364C4.69729 0 4.48939 0.207668 4.48939 0.464017V15.208L0.0662385 22.5762C-0.0656525 22.7958 0.00556866 23.0809 0.225227 23.2128L13.8059 31.3654C13.91 31.428 14.0395 31.4472 14.1572 31.4177L19.5904 30.0609C19.7084 30.0314 19.8132 29.9537 19.8758 29.8493L22.9745 24.6879H24.7531C25.0095 24.6879 25.2174 24.4799 25.2174 24.2236V20.9517L30.0667 12.8738C30.1986 12.6539 30.1273 12.369 29.9077 12.2371ZM9.16097 7.42499H7.89266V3.40303H11.5763L9.16169 7.42499C9.16145 7.42499 9.16121 7.42499 9.16097 7.42499ZM15.0191 30.2457L16.2418 28.2091L18.2787 29.4319L17.9428 29.5155L15.0191 30.2457ZM24.2891 23.7596H23.5318L24.2891 22.498V23.7596ZM19.319 28.9738L16.3217 27.1746C16.102 27.0427 15.8169 27.1139 15.685 27.3336L13.8858 30.3309L1.10098 22.6558L12.8522 3.08074L29.0322 12.7939L19.319 28.9738Z" fill="url(#paint0_linear_4874_1985)"/>
<path d="M16.0182 8.44515L19.4133 10.4832C19.4881 10.5281 19.5704 10.5494 19.6517 10.5494C19.8092 10.5494 19.9629 10.4691 20.05 10.3242C20.1821 10.1043 20.1109 9.81945 19.891 9.68732L16.4959 7.64925C16.2762 7.51736 15.9911 7.58858 15.8592 7.80824C15.7273 8.02813 15.7985 8.31326 16.0182 8.44515Z" fill="url(#paint1_linear_4874_1985)"/>
<path d="M21.1119 11.5028L25.7804 14.3051C26.0147 14.4456 26.3274 14.3483 26.4413 14.1003C26.5384 13.8883 26.4579 13.6293 26.2581 13.5094L21.5896 10.7069C21.37 10.575 21.0848 10.6462 20.953 10.8659C20.8211 11.0858 20.8923 11.3709 21.1119 11.5028Z" fill="url(#paint2_linear_4874_1985)"/>
<path d="M11.5182 9.20858L15.3378 11.5016C15.4126 11.5464 15.4948 11.5678 15.5761 11.5678C15.7337 11.5678 15.8874 11.4874 15.9744 11.3426C16.1066 11.1229 16.0353 10.8378 15.8154 10.7059L11.9959 8.41292C11.7762 8.28103 11.4911 8.35225 11.3592 8.57191C11.2273 8.79157 11.2985 9.07669 11.5182 9.20858Z" fill="url(#paint3_linear_4874_1985)"/>
<path d="M24.7281 16.0557L17.5135 11.7244C17.2938 11.5925 17.0087 11.6638 16.8768 11.8837C16.7449 12.1033 16.8161 12.3884 17.0358 12.5203L24.2505 16.8514C24.4847 16.9919 24.7977 16.8946 24.9114 16.6466C25.0087 16.4346 24.9281 16.1756 24.7281 16.0557Z" fill="url(#paint4_linear_4874_1985)"/>
<path d="M23.4543 18.1783L10.7224 10.535C10.5028 10.4032 10.2177 10.4741 10.0858 10.694C9.95388 10.9137 10.0251 11.1988 10.2448 11.3307L22.9766 18.9739C23.2109 19.1144 23.5238 19.0171 23.6375 18.7691C23.7348 18.5569 23.654 18.2982 23.4543 18.1783Z" fill="url(#paint5_linear_4874_1985)"/>
<path d="M22.1808 20.2998L12.4199 14.4403C12.2 14.3084 11.9152 14.3796 11.783 14.5993C11.6511 14.8189 11.7224 15.104 11.9423 15.2359L21.7032 21.0957C21.9374 21.2362 22.2504 21.1389 22.364 20.8909C22.4614 20.6787 22.3806 20.4197 22.1808 20.2998Z" fill="url(#paint6_linear_4874_1985)"/>
<path d="M7.69788 15.574L15.337 20.1598C15.4118 20.2046 15.4941 20.226 15.5754 20.226C15.7329 20.226 15.8866 20.1456 15.9737 20.0008C16.1056 19.7811 16.0344 19.496 15.8147 19.3641L8.17557 14.7781C7.95567 14.6463 7.67079 14.7175 7.53889 14.9374C7.407 15.157 7.47822 15.4422 7.69788 15.574Z" fill="url(#paint7_linear_4874_1985)"/>
<path d="M20.9068 22.4218L17.5117 20.3837C17.292 20.2518 17.0069 20.3228 16.875 20.5427C16.7429 20.7623 16.8141 21.0474 17.034 21.1793L20.4291 23.2174C20.6634 23.3582 20.9763 23.2606 21.09 23.0126C21.1871 22.8006 21.1065 22.5417 20.9068 22.4218Z" fill="url(#paint8_linear_4874_1985)"/>
<path d="M6.42249 17.6959L9.39316 19.4793C9.46798 19.5244 9.55023 19.5457 9.63152 19.5457C9.78931 19.5457 9.94303 19.4654 10.0301 19.3203C10.162 19.1006 10.0907 18.8155 9.87085 18.6836L6.90018 16.9002C6.68052 16.7683 6.3954 16.8396 6.2635 17.0592C6.13161 17.2791 6.20283 17.5642 6.42249 17.6959Z" fill="url(#paint9_linear_4874_1985)"/>
<path d="M19.6337 24.5436L11.5703 19.703C11.3504 19.5711 11.0656 19.6423 10.9334 19.8619C10.8015 20.0816 10.8728 20.3667 11.0924 20.4986L19.156 25.3393C19.3903 25.4798 19.703 25.3824 19.8169 25.1345C19.914 24.9225 19.8334 24.6635 19.6337 24.5436Z" fill="url(#paint10_linear_4874_1985)"/>
<path d="M18.3585 26.6655L5.62674 19.0223C5.40684 18.8904 5.12196 18.9616 4.99007 19.1813C4.85818 19.4009 4.9294 19.6861 5.14906 19.818L17.8809 27.4612C18.1149 27.6017 18.4279 27.5043 18.5415 27.2564C18.6389 27.0444 18.5583 26.7854 18.3585 26.6655Z" fill="url(#paint11_linear_4874_1985)"/>
<path d="M9.44621 24.2016L4.35353 21.1444C4.13364 21.0125 3.84875 21.0837 3.71662 21.3034C3.58473 21.523 3.65595 21.8081 3.87585 21.94L8.96852 24.9973C9.04334 25.0423 9.12559 25.0637 9.20689 25.0637C9.36444 25.0637 9.51815 24.9834 9.6052 24.8383C9.73709 24.6186 9.66587 24.3335 9.44621 24.2016Z" fill="url(#paint12_linear_4874_1985)"/>
<path d="M14.1151 27.0039L11.1445 25.2205C10.9246 25.0886 10.6397 25.1599 10.5078 25.3795C10.3757 25.5992 10.4469 25.8843 10.6668 26.0162L13.6375 27.7996C13.8717 27.9401 14.1847 27.8428 14.2984 27.5948C14.3957 27.3828 14.3151 27.1238 14.1151 27.0039Z" fill="url(#paint13_linear_4874_1985)"/>
<defs>
<linearGradient id="paint0_linear_4874_1985" x1="15.0665" y1="0" x2="15.0665" y2="31.4312" gradientUnits="userSpaceOnUse">
<stop stop-color="#9B9DFA"/>
<stop offset="1" stop-color="#EDB8FD"/>
</linearGradient>
<linearGradient id="paint1_linear_4874_1985" x1="17.9547" y1="7.58301" x2="17.9547" y2="10.5494" gradientUnits="userSpaceOnUse">
<stop stop-color="#9B9DFA"/>
<stop offset="1" stop-color="#EDB8FD"/>
</linearGradient>
<linearGradient id="paint2_linear_4874_1985" x1="23.6846" y1="10.6406" x2="23.6846" y2="14.3698" gradientUnits="userSpaceOnUse">
<stop stop-color="#9B9DFA"/>
<stop offset="1" stop-color="#EDB8FD"/>
</linearGradient>
<linearGradient id="paint3_linear_4874_1985" x1="13.6669" y1="8.34668" x2="13.6669" y2="11.5678" gradientUnits="userSpaceOnUse">
<stop stop-color="#9B9DFA"/>
<stop offset="1" stop-color="#EDB8FD"/>
</linearGradient>
<linearGradient id="paint4_linear_4874_1985" x1="20.8816" y1="11.6582" x2="20.8816" y2="16.9161" gradientUnits="userSpaceOnUse">
<stop stop-color="#9B9DFA"/>
<stop offset="1" stop-color="#EDB8FD"/>
</linearGradient>
<linearGradient id="paint5_linear_4874_1985" x1="16.8491" y1="10.4688" x2="16.8491" y2="19.0386" gradientUnits="userSpaceOnUse">
<stop stop-color="#9B9DFA"/>
<stop offset="1" stop-color="#EDB8FD"/>
</linearGradient>
<linearGradient id="paint6_linear_4874_1985" x1="17.061" y1="14.374" x2="17.061" y2="21.1604" gradientUnits="userSpaceOnUse">
<stop stop-color="#9B9DFA"/>
<stop offset="1" stop-color="#EDB8FD"/>
</linearGradient>
<linearGradient id="paint7_linear_4874_1985" x1="11.7563" y1="14.7119" x2="11.7563" y2="20.226" gradientUnits="userSpaceOnUse">
<stop stop-color="#9B9DFA"/>
<stop offset="1" stop-color="#EDB8FD"/>
</linearGradient>
<linearGradient id="paint8_linear_4874_1985" x1="18.9698" y1="20.3174" x2="18.9698" y2="23.2822" gradientUnits="userSpaceOnUse">
<stop stop-color="#9B9DFA"/>
<stop offset="1" stop-color="#EDB8FD"/>
</linearGradient>
<linearGradient id="paint9_linear_4874_1985" x1="8.14678" y1="16.834" x2="8.14678" y2="19.5457" gradientUnits="userSpaceOnUse">
<stop stop-color="#9B9DFA"/>
<stop offset="1" stop-color="#EDB8FD"/>
</linearGradient>
<linearGradient id="paint10_linear_4874_1985" x1="15.3626" y1="19.6367" x2="15.3626" y2="25.404" gradientUnits="userSpaceOnUse">
<stop stop-color="#9B9DFA"/>
<stop offset="1" stop-color="#EDB8FD"/>
</linearGradient>
<linearGradient id="paint11_linear_4874_1985" x1="11.7533" y1="18.9561" x2="11.7533" y2="27.5259" gradientUnits="userSpaceOnUse">
<stop stop-color="#9B9DFA"/>
<stop offset="1" stop-color="#EDB8FD"/>
</linearGradient>
<linearGradient id="paint12_linear_4874_1985" x1="6.66091" y1="21.0781" x2="6.66091" y2="25.0637" gradientUnits="userSpaceOnUse">
<stop stop-color="#9B9DFA"/>
<stop offset="1" stop-color="#EDB8FD"/>
</linearGradient>
<linearGradient id="paint13_linear_4874_1985" x1="12.3905" y1="25.1543" x2="12.3905" y2="27.8643" gradientUnits="userSpaceOnUse">
<stop stop-color="#9B9DFA"/>
<stop offset="1" stop-color="#EDB8FD"/>
</linearGradient>
</defs>
</svg>
