<svg width="13" height="13" viewBox="0 0 13 13" fill="none" xmlns="http://www.w3.org/2000/svg">
<path d="M5.92086 2.16016H2.09353C1.8035 2.16016 1.52536 2.27537 1.32029 2.48044C1.11521 2.68552 1 2.96366 1 3.25368V10.9084C1 11.1984 1.11521 11.4765 1.32029 11.6816C1.52536 11.8867 1.8035 12.0019 2.09353 12.0019H9.7482C10.0382 12.0019 10.3164 11.8867 10.5214 11.6816C10.7265 11.4765 10.8417 11.1984 10.8417 10.9084V7.08102" stroke="#C4C4C4" stroke-linecap="round" stroke-linejoin="round"/>
<path d="M10.0223 1.33971C10.2398 1.1222 10.5348 1 10.8424 1C11.15 1 11.445 1.1222 11.6625 1.33971C11.8801 1.55723 12.0023 1.85225 12.0023 2.15986C12.0023 2.46747 11.8801 2.76249 11.6625 2.98L6.4683 8.17425L4.28125 8.72101L4.82801 6.53396L10.0223 1.33971Z" stroke="#C4C4C4" stroke-linecap="round" stroke-linejoin="round"/>
</svg>
