<svg width="17" height="17" viewBox="0 0 17 17" fill="none" xmlns="http://www.w3.org/2000/svg">
<path d="M13.5058 13.5061C12.3341 14.6789 10.7921 15.4093 9.14236 15.5727C7.49247 15.7362 5.83693 15.3226 4.45781 14.4023C3.07869 13.482 2.06131 12.112 1.579 10.5258C1.0967 8.93948 1.17931 7.23505 1.81276 5.70286C2.44621 4.17066 3.59131 2.90549 5.05297 2.12291C6.51463 1.34032 8.20241 1.08873 9.82876 1.411C11.4551 1.73327 12.9194 2.60946 13.9722 3.8903C15.0248 5.17096 15.6009 6.77695 15.6024 8.43469M13.5058 13.5061C14.1731 12.8414 14.702 12.0509 15.0619 11.1804C15.4218 10.3099 15.6055 9.37666 15.6024 8.43469M13.5058 13.5061C13.5056 13.5063 13.5054 13.5065 13.5052 13.5067L13.1524 13.1524L13.5058 13.5061ZM15.6024 8.43469C15.6024 8.43447 15.6024 8.43425 15.6024 8.43404L15.1024 8.43573L15.6024 8.43534C15.6024 8.43512 15.6024 8.43491 15.6024 8.43469ZM11.1724 5.69617L11.1724 5.69618L11.1753 5.69907C11.2065 5.73006 11.2313 5.76692 11.2483 5.80754C11.2652 5.84816 11.2739 5.89173 11.2739 5.93573C11.2739 5.97974 11.2652 6.02331 11.2483 6.06393C11.2313 6.10455 11.2065 6.14141 11.1753 6.1724L11.1746 6.17308L9.25795 8.08141L8.90208 8.43573L9.25795 8.79006L11.1746 10.6984L11.1753 10.6991C11.2065 10.7301 11.2313 10.7669 11.2483 10.8075L11.7098 10.6153L11.2483 10.8075C11.2652 10.8482 11.2739 10.8917 11.2739 10.9357C11.2739 10.9797 11.2652 11.0233 11.2483 11.0639L11.7098 11.2562L11.2483 11.0639C11.2313 11.1045 11.2065 11.1414 11.1753 11.1724L11.1724 11.1753C11.1414 11.2065 11.1045 11.2313 11.0639 11.2483L11.2562 11.7098L11.0639 11.2483C11.0233 11.2652 10.9797 11.2739 10.9357 11.2739C10.8917 11.2739 10.8482 11.2652 10.8075 11.2483L10.6153 11.7098L10.8075 11.2483C10.7669 11.2313 10.7301 11.2065 10.6991 11.1753L10.6984 11.1746L8.79006 9.25795L8.43573 8.90208L8.08141 9.25795L6.17308 11.1746L6.1724 11.1753C6.14141 11.2065 6.10455 11.2313 6.06393 11.2483C6.02331 11.2652 5.97974 11.2739 5.93573 11.2739C5.89173 11.2739 5.84816 11.2652 5.80754 11.2483C5.76692 11.2313 5.73006 11.2065 5.69907 11.1753L5.69617 11.1724C5.66493 11.1414 5.64013 11.1045 5.6232 11.0639C5.60628 11.0233 5.59757 10.9797 5.59757 10.9357C5.59757 10.8917 5.60628 10.8482 5.6232 10.8075L5.16166 10.6153L5.62321 10.8075C5.64013 10.7669 5.66493 10.7301 5.69617 10.6991L5.69685 10.6984L7.61352 8.79006L7.96939 8.43573L7.61352 8.08141L5.69762 6.17385C5.69751 6.17374 5.6974 6.17363 5.69729 6.17351C5.63434 6.11039 5.59899 6.02489 5.59899 5.93573C5.59899 5.84642 5.63447 5.76077 5.69762 5.69762C5.76077 5.63447 5.84642 5.59899 5.93573 5.59899C6.02489 5.59899 6.11039 5.63434 6.17351 5.69729C6.17363 5.6974 6.17374 5.69751 6.17385 5.69762L8.08141 7.61352L8.43573 7.96939L8.79006 7.61352L10.6984 5.69685L10.6991 5.69617C10.7301 5.66493 10.7669 5.64013 10.8075 5.62321L10.6153 5.16166L10.8075 5.6232C10.8482 5.60628 10.8917 5.59757 10.9357 5.59757C10.9797 5.59757 11.0233 5.60628 11.0639 5.6232C11.1045 5.64013 11.1414 5.66493 11.1724 5.69617ZM13.9678 2.89142L13.9738 2.89768L13.98 2.90371C14.7282 3.62631 15.325 4.49068 15.7355 5.44638C16.146 6.40208 16.3621 7.42997 16.3712 8.47007C16.3802 9.51017 16.182 10.5417 15.7882 11.5044C15.3943 12.467 14.8126 13.3416 14.0771 14.0771C13.3416 14.8126 12.467 15.3943 11.5044 15.7882C10.5417 16.182 9.51017 16.3802 8.47007 16.3712C7.42997 16.3621 6.40208 16.146 5.44638 15.7355C4.49068 15.325 3.62631 14.7282 2.90371 13.98L2.89768 13.9738L2.89142 13.9678C2.14326 13.2452 1.5465 12.3808 1.13596 11.4251C0.725426 10.4694 0.509334 9.44151 0.500296 8.4014C0.491258 7.3613 0.689454 6.32981 1.08332 5.36712C1.47719 4.40443 2.05884 3.52982 2.79433 2.79433C3.52982 2.05884 4.40443 1.47719 5.36712 1.08332C6.32981 0.689454 7.3613 0.491258 8.4014 0.500296C9.44151 0.509334 10.4694 0.725426 11.4251 1.13596C12.3808 1.5465 13.2452 2.14326 13.9678 2.89142Z" stroke="#F44336"/>
</svg>
