<svg width="445" height="570" viewBox="0 0 445 570" fill="none" xmlns="http://www.w3.org/2000/svg">
<g clip-path="url(#clip0_1_1732)">
<path d="M222.38 354.78C222.38 355.55 222.1 356.33 221.49 356.98C218.14 360.51 213.49 362.5 208.63 362.5H96.59C82.42 362.5 68.9 358.56 57.31 351.53C43.4 343.11 32.25 330.25 26.03 314.43C2.56 254.73 -24.22 160.81 40.28 162.16C138.07 164.19 143.56 309.96 143.13 351.53H219.16C221.1 351.53 222.39 353.12 222.39 354.77L222.38 354.78Z" fill="#1F4168"/>
<g style="mix-blend-mode:multiply" opacity="0.4">
<path d="M37.76 164.02C37.76 164.02 15.02 304.41 79.53 276.33L75.67 307.05C72.63 331.28 92.01 352.76 116.4 351.61C116.82 351.59 117.25 351.56 117.67 351.53L37.76 164.02Z" fill="#1F4168"/>
</g>
<path d="M213.37 351.49L173.82 351.61L134.27 351.66L114.5 351.68H104.61C101.32 351.71 98 351.7 94.71 351.38C88.13 350.76 81.64 349.2 75.47 346.83C72.38 345.65 69.37 344.27 66.45 342.72C63.53 341.17 60.7 339.46 57.99 337.55C47.14 329.97 38.39 319.47 32.82 307.48C31.41 304.49 30.26 301.39 29.08 298.32C27.9 295.24 26.75 292.15 25.62 289.06C23.36 282.87 21.21 276.63 19.19 270.36C15.15 257.81 11.6 245.09 8.96001 232.16C8.30001 228.93 7.73 225.68 7.2 222.43C6.7 219.17 6.25 215.9 5.9 212.63C5.57 209.35 5.3 206.06 5.18 202.77C5.06 199.48 5.06 196.18 5.22 192.89C5.09 196.18 5.11 199.48 5.25 202.77C5.39 206.06 5.68001 209.35 6.03001 212.62C6.39001 215.89 6.87 219.16 7.39 222.41C7.94 225.66 8.53 228.9 9.21 232.12C11.88 245.03 15.45 257.73 19.52 270.26C21.55 276.53 23.72 282.75 25.99 288.94C27.12 292.03 28.28 295.12 29.47 298.19C30.66 301.26 31.81 304.35 33.22 307.32C38.78 319.23 47.51 329.65 58.3 337.15C69.06 344.66 81.65 349.73 94.76 350.98C98.03 351.31 101.32 351.33 104.62 351.32H114.51L134.28 351.35L173.83 351.4L213.38 351.52L213.37 351.49Z" fill="#1B1A2E"/>
<path d="M86.1269 357.904L84.6527 358.349L148.129 568.46L149.603 568.015L86.1269 357.904Z" fill="#1B1A2E"/>
<path d="M84.629 357.885L21.1894 568.007L22.6637 568.452L86.1033 358.33L84.629 357.885Z" fill="#1B1A2E"/>
<path d="M145.74 510.09H25.02V511.63H145.74V510.09Z" fill="#1B1A2E"/>
<path d="M45.6225 512.387C46.4507 508.9 44.2951 505.401 40.8077 504.573C37.3204 503.745 33.822 505.901 32.9937 509.388C32.1655 512.875 34.3211 516.374 37.8085 517.202C41.2958 518.03 44.7942 515.875 45.6225 512.387Z" fill="#1B1A2E"/>
<path d="M136.235 515.448C138.77 512.914 138.77 508.804 136.235 506.27C133.701 503.735 129.591 503.735 127.057 506.27C124.522 508.804 124.522 512.914 127.057 515.448C129.591 517.983 133.701 517.983 136.235 515.448Z" fill="#1B1A2E"/>
<path d="M157.555 357.896L156.08 358.341L219.557 568.452L221.031 568.007L157.555 357.896Z" fill="#1B1A2E"/>
<path d="M156.055 357.883L92.615 568.005L94.0892 568.451L157.529 358.329L156.055 357.883Z" fill="#1B1A2E"/>
<path d="M217.17 510.09H96.45V511.63H217.17V510.09Z" fill="#1B1A2E"/>
<path d="M115.32 515.454C117.854 512.919 117.854 508.81 115.32 506.275C112.785 503.741 108.676 503.741 106.141 506.275C103.607 508.81 103.607 512.919 106.141 515.454C108.676 517.988 112.785 517.988 115.32 515.454Z" fill="#1B1A2E"/>
<path d="M209.392 512.389C210.22 508.902 208.065 505.403 204.578 504.575C201.09 503.747 197.592 505.902 196.764 509.39C195.935 512.877 198.091 516.376 201.578 517.204C205.066 518.032 208.564 515.876 209.392 512.389Z" fill="#1B1A2E"/>
<path d="M285.83 501.69L283.96 520.03L289.82 534.31H252.3C252.3 534.31 248.69 509.5 255.28 491.95L285.83 501.68V501.69Z" fill="#FFC89F"/>
<path d="M94.71 102.72C91.33 100 87.72 96.86 84.13 103.45C84.13 103.45 55.96 108.68 56.24 115.47C50.45 113.19 27.94 162.22 36.41 241.2C38.65 262.06 57.18 277.55 78.07 275.54C78.48 275.5 78.89 275.46 79.31 275.41C79.31 275.41 85.3 300.71 88.33 328.26C88.77 332.23 92.25 335.16 96.23 334.87C117.28 333.37 179.01 325.27 207.96 281.75C207.96 281.75 167.43 252.2 162.52 216.2L180.1 232.97C180.1 232.97 181.22 279.23 215.41 259.79C249.6 240.35 220.33 211.96 204.91 205.48C204.91 205.48 182.58 177.93 172.06 125.92C170.71 119.26 169.28 113.05 150.69 109.15C150.69 109.15 145.51 102.43 139.77 110.73C132.57 121.14 100.58 107.43 94.73 102.73L94.71 102.72Z" fill="#FFD514"/>
<g style="mix-blend-mode:multiply" opacity="0.4">
<path d="M97.3 329.64C97.3 329.64 90.68 329.61 92.15 332.1C93.62 334.59 99.23 334.23 99.23 334.23L97.3 329.64Z" fill="#A65B3C"/>
</g>
<path d="M162.67 45.7C162.67 45.7 164.3 54.56 162.35 58.91C160.4 63.26 158.19 61.61 158.19 61.61C158.19 61.61 163.77 53.46 162.04 45.49L162.67 45.69V45.7Z" fill="#1B1B2F"/>
<path d="M99.79 64.98L83.26 48.58C83.26 48.58 80.54 58.31 86.09 65.61C89.54 70.15 87.15 74.44 87.15 74.44C87.15 74.44 92.33 74.2 91.11 69.1C91.11 69.1 91.11 69.1 91.11 69.11C91.28 69.4 92.99 71.01 92.85 75.96C92.85 75.96 94.74 75.96 95.38 74.46C95.82 73.41 95.36 72.4 95.36 72.4C96.64 73.42 98.46 74.03 99.73 73.4L97.8 70.78C98.28 71.38 99.75 72.98 102.51 73.69C106.44 74.71 108.74 73.01 108.74 73.01L99.8 64.98H99.79Z" fill="#1B1B2F"/>
<path d="M138.48 70.73V113.05L99.55 101.91V70.73H138.48Z" fill="#FFC89F"/>
<path d="M151.01 40.36C151.01 26.0392 139.403 14.43 125.085 14.43C110.767 14.43 99.16 26.0392 99.16 40.36V72.02C99.16 86.3407 110.767 97.95 125.085 97.95C139.403 97.95 151.01 86.3407 151.01 72.02V40.36Z" fill="#FFC89F"/>
<path d="M138.48 94.24V99.49C135.78 99.51 129.63 99.05 124.95 94.93C129.61 95.77 134.22 95.47 138.48 94.25V94.24Z" fill="#FF9A6C"/>
<path d="M142.52 53.13C143.807 53.13 144.85 52.0869 144.85 50.8C144.85 49.5132 143.807 48.47 142.52 48.47C141.233 48.47 140.19 49.5132 140.19 50.8C140.19 52.0869 141.233 53.13 142.52 53.13Z" fill="#1B1B2F"/>
<path d="M145.71 48.55C144.97 48.08 144.19 47.72 143.38 47.48C142.57 47.24 141.74 47.09 140.91 47.13C140.7 47.11 140.5 47.16 140.29 47.17L139.98 47.2C139.88 47.21 139.78 47.24 139.67 47.26L139.05 47.38C138.85 47.45 138.65 47.5 138.45 47.56L138.14 47.65L137.85 47.77L137.25 48.01C136.86 48.18 136.48 48.4 136.07 48.57C136.4 48.28 136.74 48 137.1 47.74L137.67 47.4L137.96 47.23L138.27 47.1C138.48 47.01 138.68 46.93 138.89 46.85C139.11 46.79 139.33 46.74 139.54 46.68C139.65 46.65 139.76 46.62 139.87 46.61L140.21 46.57C140.44 46.55 140.66 46.5 140.89 46.52C141.8 46.5 142.71 46.69 143.53 47.04C144.36 47.39 145.11 47.9 145.69 48.57L145.71 48.55Z" fill="#1B1B2F"/>
<path d="M120.36 50.8C120.36 52.09 119.32 53.13 118.03 53.13C116.74 53.13 115.7 52.09 115.7 50.8C115.7 49.51 116.74 48.47 118.03 48.47C119.32 48.47 120.36 49.51 120.36 50.8Z" fill="#1B1B2F"/>
<path d="M121.21 48.55C120.47 48.08 119.69 47.72 118.88 47.48C118.07 47.24 117.24 47.09 116.41 47.13C116.2 47.11 116 47.16 115.79 47.17L115.48 47.2C115.38 47.21 115.28 47.24 115.17 47.26L114.55 47.38C114.35 47.45 114.15 47.5 113.95 47.56L113.64 47.65L113.35 47.77L112.75 48.01C112.36 48.18 111.98 48.4 111.57 48.57C111.9 48.28 112.24 48 112.6 47.74L113.17 47.4L113.46 47.23L113.77 47.1C113.98 47.01 114.18 46.93 114.39 46.85C114.61 46.79 114.83 46.74 115.04 46.68C115.15 46.65 115.26 46.62 115.37 46.61L115.71 46.57C115.94 46.55 116.16 46.5 116.39 46.52C117.3 46.5 118.21 46.69 119.03 47.04C119.86 47.39 120.61 47.9 121.19 48.57L121.21 48.55Z" fill="#1B1B2F"/>
<path d="M131.43 58.31C131.73 59.3 132 60.3 132.25 61.31C132.45 62.33 132.63 63.35 132.79 64.37C132.86 64.88 132.92 65.43 132.84 65.96C132.77 66.49 132.62 67.02 132.34 67.48C132.07 67.94 131.69 68.36 131.2 68.6C130.71 68.79 130.23 68.99 129.75 69.17C130.2 68.91 130.67 68.68 131.12 68.44C131.55 68.19 131.87 67.79 132.09 67.34C132.31 66.89 132.44 66.41 132.49 65.91C132.55 65.42 132.49 64.92 132.42 64.41C132.27 63.39 132.1 62.37 131.97 61.35C131.78 60.34 131.59 59.32 131.44 58.29L131.43 58.31Z" fill="#1B1B2F"/>
<path d="M131.86 73.9C131.43 74.94 130.64 75.69 129.63 76.18C128.63 76.68 127.33 76.78 126.16 76.39C124.99 76 124.05 75.18 123.5 74.24C123.22 73.77 123.02 73.26 122.92 72.74C122.82 72.21 122.78 71.67 122.92 71.12C123.16 71.27 123.39 71.41 123.61 71.54C124.25 71.94 124.78 72.29 125.3 72.58C125.99 72.97 126.58 73.25 127.15 73.44C127.43 73.54 127.73 73.61 128.04 73.67C128.2 73.71 128.36 73.72 128.54 73.75C128.72 73.75 128.9 73.8 129.09 73.8C129.46 73.83 129.85 73.84 130.29 73.85C130.77 73.85 131.29 73.87 131.88 73.91L131.86 73.9Z" fill="#E43F5A"/>
<path d="M130.28 73.84C130.01 74.12 129.69 74.34 129.33 74.54C128.48 75 127.34 75.1 126.32 74.76C125.3 74.42 124.49 73.69 124.04 72.86C123.82 72.44 123.67 72 123.6 71.54V71.52C124.24 71.92 124.77 72.27 125.29 72.56C125.98 72.95 126.57 73.23 127.14 73.42C127.42 73.52 127.72 73.59 128.03 73.65C128.19 73.69 128.35 73.7 128.53 73.73C128.71 73.73 128.89 73.78 129.08 73.78C129.45 73.81 129.84 73.82 130.28 73.83V73.84Z" fill="white"/>
<path d="M145.71 42.04C144.64 41.98 143.82 41.91 143.05 41.89C142.29 41.86 141.61 41.84 140.94 41.86C140.86 41.86 140.77 41.86 140.69 41.86H140.43C140.34 41.87 140.26 41.87 140.17 41.87C140.08 41.87 140 41.89 139.91 41.89C139.73 41.9 139.55 41.9 139.37 41.91C139.19 41.93 139 41.95 138.81 41.95C138.71 41.95 138.61 41.95 138.51 41.95C138.41 41.96 138.31 41.98 138.21 41.98C138.01 42 137.79 42.01 137.56 42.01C137.11 42.03 136.65 42.08 136.09 42.03C136.17 41.78 136.28 41.54 136.41 41.31C136.54 41.09 136.67 40.86 136.83 40.66C136.99 40.47 137.17 40.29 137.35 40.11C137.44 40.02 137.54 39.94 137.63 39.85C137.73 39.78 137.84 39.7 137.94 39.63C138.15 39.49 138.38 39.36 138.6 39.24C138.84 39.14 139.08 39.05 139.33 38.97C139.45 38.93 139.58 38.89 139.71 38.86L140.1 38.79C140.36 38.76 140.62 38.7 140.89 38.72C141.95 38.69 143.02 39 143.89 39.57C144 39.63 144.1 39.72 144.2 39.8C144.3 39.88 144.4 39.96 144.5 40.04C144.69 40.22 144.87 40.4 145.03 40.61C145.34 41.02 145.61 41.48 145.71 42.02V42.04Z" fill="#1B1B2F"/>
<path d="M121.21 42.04C120.14 41.98 119.32 41.91 118.55 41.89C117.79 41.86 117.11 41.84 116.44 41.86C116.36 41.86 116.27 41.86 116.19 41.86H115.93C115.84 41.87 115.76 41.87 115.67 41.87C115.58 41.87 115.5 41.89 115.41 41.89C115.23 41.9 115.05 41.9 114.87 41.91C114.69 41.93 114.5 41.95 114.31 41.95C114.21 41.95 114.11 41.95 114.01 41.95C113.91 41.96 113.81 41.98 113.71 41.98C113.51 42 113.29 42.01 113.06 42.01C112.61 42.03 112.15 42.08 111.59 42.03C111.67 41.78 111.78 41.54 111.91 41.31C112.04 41.09 112.17 40.86 112.33 40.66C112.49 40.47 112.67 40.29 112.85 40.11C112.94 40.02 113.04 39.94 113.13 39.85C113.23 39.78 113.34 39.7 113.44 39.63C113.65 39.49 113.88 39.36 114.1 39.24C114.34 39.14 114.58 39.05 114.83 38.97C114.95 38.93 115.08 38.89 115.21 38.86L115.6 38.79C115.86 38.76 116.12 38.7 116.39 38.72C117.45 38.69 118.52 39 119.39 39.57C119.5 39.63 119.6 39.72 119.7 39.8C119.8 39.88 119.9 39.96 120 40.04C120.19 40.22 120.37 40.4 120.53 40.61C120.84 41.02 121.11 41.48 121.21 42.02V42.04Z" fill="#1B1B2F"/>
<path d="M111.66 25.78C113.22 22.22 117.19 20.35 120.9 21.51C123.69 22.39 127.05 24.71 130.54 30.04C131.77 31.91 132.79 33.93 133.67 36.02C135.24 39.76 139.97 48.84 150.05 52.11L151.02 67.3L151.4 67.13C157.19 62.66 161.22 55.96 162.56 48.39C162.66 47.82 162.76 47.23 162.84 46.63C162.84 46.63 162.57 48.6 164.18 49.99C165.65 51.25 167.88 50.7 167.88 50.7C167.88 50.7 163.71 45.39 165.66 35.91C167.42 27.34 163.73 21.84 155.97 17.61C155.97 17.61 161.63 18.34 162.63 13.08C162.63 13.08 150.2 18.56 141.69 8.48C131.24 -3.89 117.82 -1.97 114.8 9.17C114.8 9.17 111.94 2.82 107.12 6.55C102.3 10.28 97.49 16.37 89.63 19.72C81.78 23.07 87.55 44.12 75.65 48.81C75.65 48.81 82.04 51.63 84.16 44.56C84.16 44.56 77.53 60.21 99.3 70.73L97.7 55.62C97.7 55.62 106.71 53.87 108.33 43.12C109.58 34.85 109.85 29.92 111.67 25.78H111.66Z" fill="#1B1B2F"/>
<path d="M114.7 9.20997C114.17 8.22997 113.55 7.31997 112.83 6.53997C112.11 5.76997 111.25 5.16997 110.33 4.94997C109.87 4.83997 109.4 4.80997 108.92 4.87997C108.44 4.92997 107.97 5.08997 107.51 5.27997C106.58 5.66997 105.67 6.22997 104.8 6.86997C103.04 8.13997 101.49 9.79997 100.26 11.64C99.63 12.55 99.11 13.54 98.39 14.47C97.67 15.4 96.74 16.18 95.74 16.77C94.74 17.38 93.68 17.83 92.63 18.25L91.83 18.56L91.03 18.84C90.5 19.03 89.96 19.21 89.42 19.37C88.86 19.54 88.38 19.67 87.91 19.86C87.45 20.05 87.01 20.28 86.62 20.56C86.24 20.84 85.9 21.16 85.63 21.54C85.36 21.92 85.16 22.35 85.01 22.82C84.71 23.76 84.65 24.83 84.64 25.91C84.64 27 84.71 28.11 84.75 29.23C84.79 30.35 84.8 31.49 84.7 32.63C84.6 33.76 84.38 34.9 83.96 35.95L83.81 35.91C84.24 33.72 84 31.52 83.71 29.33C83.56 28.23 83.41 27.12 83.32 25.97C83.24 24.83 83.24 23.63 83.55 22.42C83.71 21.82 83.95 21.21 84.32 20.67C84.67 20.12 85.14 19.64 85.65 19.26C86.16 18.87 86.72 18.57 87.29 18.34C87.85 18.1 88.45 17.94 88.96 17.8C91.08 17.21 93.21 16.59 95.15 15.68C95.39 15.57 95.62 15.44 95.86 15.32C96.09 15.19 96.32 15.06 96.55 14.92C96.99 14.63 97.42 14.32 97.79 13.94C98.57 13.21 99.19 12.26 99.87 11.37C100.54 10.47 101.22 9.57997 101.9 8.66997C102.59 7.76997 103.29 6.87997 104.1 6.05997C104.92 5.24997 105.85 4.48997 106.98 4.00997C107.54 3.76997 108.15 3.59997 108.79 3.54997C109.42 3.48997 110.09 3.54997 110.7 3.74997C111.31 3.94997 111.87 4.26997 112.34 4.65997C112.81 5.05997 113.22 5.50997 113.55 5.99997C113.88 6.48997 114.16 6.99997 114.38 7.53997C114.6 8.06997 114.77 8.61997 114.88 9.17997L114.73 9.22997L114.7 9.20997Z" fill="#1B1B2F"/>
<path d="M113.75 22.74C114.25 22.27 114.9 21.95 115.57 21.76C116.25 21.57 116.96 21.52 117.65 21.55C118 21.56 118.35 21.61 118.69 21.66C119.03 21.73 119.37 21.8 119.71 21.91C120.38 22.09 121.02 22.37 121.63 22.7C122.84 23.36 123.9 24.24 124.93 25.1C125.97 25.97 126.97 26.86 127.96 27.78C128.95 28.7 129.86 29.72 130.71 30.78C131.55 31.84 132.35 32.94 133.06 34.09C134.48 36.4 135.68 38.83 136.58 41.37L136.5 41.41C135.06 39.13 133.69 36.84 132.22 34.62L131.68 33.78L131.13 32.95C130.77 32.39 130.38 31.85 130.01 31.3C129.62 30.77 129.23 30.22 128.82 29.7L128.22 28.9L127.6 28.12C126.75 27.09 125.81 26.13 124.75 25.32C123.69 24.51 122.49 23.9 121.3 23.38C120.11 22.86 118.88 22.42 117.6 22.26C116.33 22.09 115.01 22.18 113.82 22.8L113.76 22.72L113.75 22.74Z" fill="#1B1B2F"/>
<path d="M97.11 55.58C98.86 55.41 100.58 55.1 102.2 54.53C103.01 54.25 103.79 53.9 104.53 53.49C105.27 53.07 105.97 52.59 106.61 52.04C107.26 51.49 107.86 50.88 108.38 50.2C108.9 49.52 109.34 48.76 109.68 47.97C110.36 46.37 110.63 44.61 110.65 42.88C110.66 41.14 110.48 39.41 110.22 37.7C109.93 35.96 109.75 34.17 109.79 32.38C109.84 30.59 110.1 28.79 110.7 27.08C110.85 26.66 111.02 26.24 111.22 25.83C111.41 25.42 111.63 25.03 111.89 24.65C112.14 24.27 112.42 23.92 112.73 23.59C113.04 23.26 113.37 22.96 113.76 22.73L113.81 22.81C113.17 23.39 112.7 24.13 112.31 24.89C111.92 25.66 111.64 26.47 111.41 27.29C110.98 28.95 110.8 30.66 110.79 32.39C110.76 34.11 110.87 35.84 111.08 37.57C111.29 39.33 111.32 41.13 111.14 42.9C110.95 44.67 110.59 46.41 109.97 48.08C109.36 49.74 108.47 51.36 107.14 52.62C106.48 53.25 105.73 53.78 104.93 54.21C104.13 54.64 103.28 54.98 102.42 55.22C100.69 55.7 98.88 55.85 97.12 55.67V55.58H97.11Z" fill="#1B1B2F"/>
<path d="M165.12 37.14C165.08 36.6 165.1 36.08 165.12 35.56C165.14 35.04 165.15 34.53 165.2 34.02C165.24 33.51 165.25 33.01 165.3 32.51C165.33 32.01 165.36 31.51 165.44 31.01C165.55 30.01 165.79 28.99 165.69 27.97C165.67 27.46 165.54 26.96 165.41 26.47C165.24 25.99 165.06 25.51 164.81 25.07C164.59 24.62 164.29 24.21 164.03 23.79C163.88 23.59 163.76 23.38 163.61 23.19L163.17 22.61C162.56 21.86 161.85 21.22 161.1 20.62C160.36 20.02 159.55 19.48 158.69 18.99C157.82 18.51 156.9 18.08 155.93 17.7V17.54C157.02 17.4 158.11 17.56 159.16 17.85C160.21 18.15 161.22 18.64 162.12 19.3C163.02 19.96 163.77 20.81 164.37 21.75C164.51 21.99 164.65 22.22 164.79 22.46C164.92 22.7 165.03 22.95 165.14 23.21C165.26 23.46 165.32 23.73 165.41 23.99C165.5 24.25 165.55 24.51 165.61 24.78C165.85 25.83 166 26.87 166.18 27.9C166.38 28.93 166.64 29.98 166.73 31.05C166.75 31.58 166.73 32.12 166.67 32.64C166.59 33.16 166.51 33.69 166.39 34.21C166.25 34.72 166.12 35.23 165.93 35.73C165.73 36.22 165.52 36.71 165.26 37.18L165.11 37.14H165.12Z" fill="#1B1B2F"/>
<path d="M102.79 58.24C102.79 55.2024 100.33 52.74 97.295 52.74C94.2602 52.74 91.8 55.2024 91.8 58.24V65.5C91.8 68.5376 94.2602 71 97.295 71C100.33 71 102.79 68.5376 102.79 65.5V58.24Z" fill="#FFC89F"/>
<path d="M97.37 57.85C96.82 58.02 96.37 58.33 96.06 58.75C95.74 59.16 95.55 59.65 95.43 60.15C95.21 61.16 95.27 62.24 95.63 63.18C95.81 63.65 96.07 64.08 96.41 64.42C96.58 64.59 96.79 64.75 96.96 64.84C97.05 64.88 97.12 64.9 97.15 64.9C97.19 64.9 97.22 64.9 97.28 64.83C97.4 64.71 97.48 64.46 97.55 64.21C97.61 63.96 97.65 63.69 97.68 63.41C97.74 62.86 97.76 62.3 97.78 61.73C97.95 62.27 98.06 62.84 98.12 63.41C98.15 63.7 98.15 63.99 98.13 64.29C98.1 64.59 98.06 64.91 97.85 65.25C97.74 65.41 97.54 65.59 97.3 65.64C97.06 65.69 96.84 65.64 96.67 65.58C96.32 65.45 96.07 65.27 95.83 65.06C95.34 64.64 94.99 64.09 94.77 63.52C94.33 62.36 94.32 61.08 94.73 59.93C94.84 59.65 94.97 59.37 95.13 59.11C95.3 58.86 95.5 58.62 95.73 58.42C96.19 58.02 96.81 57.8 97.38 57.85H97.37Z" fill="#FF9A6C"/>
<path d="M98.55 60.13C98.43 59.76 98.38 59.44 98.32 59.12C98.27 58.81 98.22 58.51 98.16 58.25C98.1 57.99 98.03 57.79 97.91 57.63C97.78 57.46 97.5 57.32 97.14 57.19C97.42 56.94 97.86 56.81 98.31 57C98.53 57.09 98.71 57.27 98.83 57.45C98.96 57.64 99.03 57.84 99.08 58.03C99.17 58.42 99.14 58.8 99.06 59.15C98.97 59.5 98.82 59.83 98.56 60.12L98.55 60.13Z" fill="#FF9A6C"/>
<path d="M84.17 44.33C84 45.29 83.77 46.2 83.54 47.09C83.42 47.54 83.3 47.98 83.18 48.42C83.06 48.86 82.93 49.3 82.77 49.73C82.45 50.59 82.03 51.46 81.87 52.38C81.7 53.3 81.74 54.24 81.91 55.16L82.04 55.84C82.1 56.06 82.15 56.29 82.2 56.51C82.25 56.73 82.31 56.95 82.36 57.17C82.4 57.39 82.46 57.61 82.53 57.82C82.64 58.26 82.8 58.67 82.93 59.1C83.1 59.51 83.23 59.93 83.41 60.34C84.03 62.01 84.92 63.55 85.91 65.22L85.8 65.33C85.59 65.21 85.38 65.08 85.18 64.94C84.98 64.8 84.77 64.67 84.59 64.5C84.4 64.34 84.21 64.18 84.03 64.01C83.85 63.84 83.68 63.66 83.52 63.47C83.17 63.11 82.89 62.7 82.6 62.29C82.34 61.86 82.08 61.44 81.88 60.98C81.66 60.53 81.52 60.05 81.37 59.57C81.26 59.08 81.14 58.6 81.08 58.11C81.04 57.87 81.01 57.62 80.99 57.37C80.97 57.12 80.95 56.88 80.95 56.63C80.95 56.38 80.96 56.14 80.98 55.89L81.05 55.16C81.17 54.19 81.31 53.25 81.36 52.3C81.42 51.35 81.36 50.36 81.5 49.4C81.57 48.92 81.69 48.45 81.85 47.99C82 47.53 82.19 47.08 82.4 46.65C82.82 45.78 83.33 44.94 84.03 44.23L84.17 44.31V44.33Z" fill="#1B1B2F"/>
<path d="M128.29 0.169989C128.89 0.0399891 129.49 0.00998907 130.09 0.0399891C130.69 0.0599891 131.29 0.139989 131.88 0.259989C132.47 0.389989 133.05 0.539989 133.61 0.759989L134.03 0.909989C134.17 0.969989 134.3 1.02999 134.44 1.09999C134.71 1.22999 134.98 1.35999 135.24 1.51999C135.74 1.84999 136.24 2.18999 136.69 2.57999C136.92 2.77999 137.16 2.94999 137.38 3.13999C137.6 3.33999 137.83 3.52999 138.06 3.70999C138.18 3.79999 138.29 3.88999 138.41 3.97999L138.75 4.25999C138.98 4.44999 139.21 4.61999 139.44 4.79999C139.91 5.15999 140.36 5.52999 140.84 5.88999C141.08 6.06999 141.29 6.27999 141.52 6.46999C141.75 6.66999 141.97 6.86999 142.19 7.06999C142.62 7.46999 143.01 7.85999 143.4 8.25999C143.61 8.44999 143.82 8.61999 144.03 8.80999C144.24 8.98999 144.44 9.18999 144.66 9.33999C145.11 9.65999 145.52 10.01 145.98 10.29L146.31 10.52C146.42 10.6 146.54 10.65 146.65 10.72L147 10.92L147.17 11.02L147.35 11.1C147.82 11.32 148.31 11.52 148.82 11.64C149.83 11.88 150.95 11.9 152.02 11.48L152.12 11.6C151.27 12.52 149.94 12.89 148.67 12.85C147.38 12.81 146.15 12.34 145.09 11.7C144.54 11.39 144.08 10.99 143.61 10.59C143.16 10.18 142.75 9.72999 142.34 9.28999C141.96 8.82999 141.58 8.35999 141.23 7.88999C140.89 7.43999 140.58 6.94999 140.23 6.49999C140.05 6.27999 139.87 6.05999 139.68 5.83999C139.49 5.62999 139.31 5.39999 139.09 5.20999C138.88 5.01999 138.67 4.82999 138.45 4.63999C138.34 4.54999 138.23 4.45999 138.12 4.36999C138 4.28999 137.88 4.20999 137.76 4.12999C137.52 3.96999 137.27 3.82999 137.02 3.68999C136.77 3.55999 136.5 3.43999 136.24 3.32999C135.72 3.08999 135.17 2.91999 134.66 2.69999C134.4 2.59999 134.13 2.49999 133.88 2.38999C133.75 2.33999 133.62 2.27999 133.5 2.21999C133.37 2.16999 133.24 2.11999 133.11 2.05999C132.6 1.83999 132.07 1.63999 131.55 1.43999C130.5 1.03999 129.42 0.689989 128.3 0.339989V0.179989L128.29 0.169989Z" fill="#1B1B2F"/>
<path d="M159.01 17.3C157.42 17.95 155.68 18.24 153.95 18.24C152.22 18.24 150.47 17.94 148.84 17.33C148.02 17.02 147.23 16.65 146.48 16.21C146.1 16 145.75 15.74 145.38 15.5C145.03 15.24 144.68 14.99 144.35 14.7C143.02 13.58 141.89 12.26 140.96 10.82C142.08 12.11 143.31 13.3 144.65 14.32C144.81 14.45 144.99 14.57 145.16 14.69L145.68 15.05C146.04 15.27 146.39 15.5 146.76 15.7C147.49 16.12 148.25 16.47 149.04 16.75C150.61 17.35 152.27 17.67 153.95 17.76C154.79 17.8 155.64 17.8 156.48 17.72C157.33 17.66 158.17 17.52 159 17.31L159.01 17.3Z" fill="#1F4168"/>
<path d="M164.26 50.08C163.78 49.79 163.4 49.34 163.09 48.86C162.79 48.38 162.54 47.85 162.38 47.31C162.04 46.22 161.91 45.07 161.95 43.94C161.95 43.66 161.98 43.37 162.01 43.09L162.1 42.25C162.21 41.7 162.29 41.14 162.43 40.6C162.58 40.06 162.72 39.52 162.91 38.99C163.11 38.47 163.31 37.94 163.53 37.43C163.44 37.98 163.32 38.53 163.2 39.07C163.09 39.61 163.01 40.16 162.9 40.7C162.82 41.24 162.75 41.79 162.67 42.33L162.61 43.15C162.59 43.42 162.56 43.69 162.57 43.97L162.55 44.79L162.6 45.6C162.64 46.14 162.72 46.68 162.84 47.2C162.96 47.73 163.13 48.24 163.35 48.74C163.57 49.24 163.86 49.71 164.25 50.1L164.26 50.08Z" fill="#1F4168"/>
<path d="M142.82 48.28C143.85 49.03 144.92 49.71 146.02 50.33C147.12 50.94 148.25 51.49 149.43 51.92C150.01 52.15 150.61 52.33 151.22 52.48C151.82 52.65 152.44 52.75 153.06 52.84C154.3 53.01 155.56 53.01 156.83 52.86C155.61 53.26 154.3 53.41 153.01 53.32C151.71 53.24 150.44 52.94 149.22 52.49C148.62 52.26 148.02 52 147.44 51.71C146.87 51.41 146.31 51.09 145.77 50.73C144.7 50.02 143.69 49.21 142.82 48.26V48.28Z" fill="#1F4168"/>
<path d="M126.94 17.63C128.11 18.08 129.2 18.77 130.17 19.59C131.13 20.42 131.97 21.39 132.7 22.43C134.16 24.52 135.18 26.85 136.1 29.19C137.01 31.54 137.8 33.92 138.72 36.24C139.18 37.4 139.68 38.54 140.28 39.64C140.86 40.74 141.57 41.77 142.43 42.69C141.47 41.87 140.7 40.85 140.01 39.79C139.34 38.72 138.78 37.58 138.27 36.43C137.25 34.12 136.43 31.74 135.52 29.42C135.07 28.25 134.6 27.1 134.07 25.97C133.55 24.84 132.96 23.74 132.29 22.7C130.96 20.62 129.19 18.77 126.94 17.63Z" fill="#1F4168"/>
<path d="M126.94 17.63C126.35 17.47 125.77 17.28 125.19 17.1L124.31 16.9C124.01 16.84 123.73 16.74 123.43 16.71C123.13 16.67 122.84 16.63 122.54 16.59C122.39 16.57 122.25 16.54 122.1 16.53H121.65C121.35 16.51 121.06 16.47 120.76 16.49L119.88 16.55C118.71 16.68 117.57 17.02 116.53 17.58C115.49 18.14 114.53 18.89 113.76 19.84C114.31 18.74 115.22 17.83 116.28 17.16L116.68 16.91L117.1 16.71L117.53 16.51C117.68 16.45 117.83 16.41 117.98 16.35C118.28 16.25 118.58 16.14 118.89 16.1L119.35 16.01C119.5 15.98 119.66 15.94 119.82 15.94L120.76 15.89C121.07 15.88 121.38 15.92 121.7 15.94L122.17 15.98C122.33 15.99 122.48 16.03 122.63 16.06C122.94 16.12 123.24 16.18 123.54 16.25C124.14 16.4 124.72 16.63 125.3 16.83C125.86 17.1 126.41 17.36 126.95 17.65L126.94 17.63Z" fill="#1F4168"/>
<path d="M82.6 53.62C82.44 52.41 82.39 51.17 82.55 49.93L82.61 49.47C82.63 49.32 82.68 49.17 82.71 49.01C82.75 48.86 82.78 48.7 82.82 48.55L82.95 48.1C83.14 47.5 83.39 46.93 83.64 46.37C84.17 45.26 84.72 44.19 85.17 43.07C85.63 41.95 85.99 40.8 86.37 39.63C86.25 40.85 86.01 42.06 85.63 43.24C85.45 43.83 85.21 44.4 84.97 44.97C84.72 45.54 84.45 46.08 84.2 46.63C83.67 47.72 83.26 48.83 83.02 50C82.77 51.17 82.68 52.38 82.59 53.6L82.6 53.62Z" fill="#1F4168"/>
<path d="M93.06 52.74C93.9 52.31 94.7 51.81 95.47 51.26C96.24 50.72 96.96 50.13 97.66 49.5C99.04 48.24 100.29 46.84 101.33 45.3C101.6 44.92 101.84 44.52 102.09 44.13C102.32 43.73 102.56 43.32 102.77 42.91C103.22 42.09 103.58 41.23 103.93 40.36C104.6 38.61 105.1 36.8 105.45 34.93C105.34 36.82 104.99 38.71 104.39 40.52C103.79 42.33 102.94 44.07 101.85 45.65C100.77 47.23 99.46 48.66 97.98 49.87C96.5 51.08 94.86 52.09 93.07 52.74H93.06Z" fill="#1F4168"/>
<path d="M113.74 12.29C113.69 11.36 113.58 10.45 113.32 9.59998C113.18 9.18998 113 8.78998 112.73 8.48998C112.47 8.17998 112.13 7.98998 111.74 7.93998C110.95 7.81998 110.08 8.16998 109.28 8.54998C108.47 8.94998 107.69 9.43998 106.89 9.90998C107.53 9.22998 108.24 8.61998 109.05 8.11998C109.44 7.85998 109.89 7.65998 110.34 7.48998C110.81 7.33998 111.31 7.24998 111.84 7.31998C112.36 7.39998 112.88 7.68998 113.19 8.10998C113.51 8.52998 113.69 8.99998 113.79 9.46998C113.99 10.42 113.95 11.37 113.75 12.28L113.74 12.29Z" fill="#1F4168"/>
<path d="M114.78 14.61C115.47 12.71 116.85 11.08 118.53 9.92998C119.37 9.33998 120.29 8.87998 121.25 8.50998C122.21 8.15998 123.21 7.90998 124.22 7.74998C126.24 7.43998 128.32 7.53998 130.29 8.06998C132.25 8.58998 134.12 9.49998 135.65 10.81C134.82 10.25 133.93 9.78998 133.01 9.41998C132.09 9.03998 131.14 8.74998 130.18 8.53998C128.25 8.12998 126.26 8.05998 124.31 8.36998C122.37 8.65998 120.47 9.28998 118.81 10.34C117.98 10.86 117.21 11.48 116.53 12.2C115.84 12.91 115.24 13.72 114.79 14.61H114.78Z" fill="#1F4168"/>
<path d="M157.51 40.82C158.18 40.2 158.6 39.4 158.85 38.58C159.09 37.75 159.12 36.87 159.02 36.01C159.01 35.57 158.88 35.15 158.81 34.72C158.7 34.29 158.58 33.87 158.46 33.44C158.3 33.02 158.18 32.59 158.01 32.17C157.84 31.75 157.67 31.33 157.52 30.9C157.79 31.27 158.03 31.65 158.28 32.04C158.51 32.44 158.7 32.85 158.9 33.27C159 33.48 159.07 33.7 159.15 33.92C159.22 34.14 159.31 34.35 159.37 34.58L159.52 35.26C159.58 35.49 159.6 35.72 159.63 35.95C159.69 36.42 159.67 36.89 159.64 37.36L159.52 38.06C159.45 38.29 159.38 38.52 159.3 38.74C158.94 39.61 158.33 40.41 157.5 40.82H157.51Z" fill="#1F4168"/>
<path d="M154.36 41.2401C154.77 41.2401 155.16 41.1701 155.52 41.0401C155.87 40.9101 156.18 40.71 156.44 40.46C156.68 40.2 156.88 39.9001 157.03 39.5601C157.11 39.3901 157.16 39.2101 157.23 39.0401C157.27 38.8501 157.33 38.6701 157.38 38.4901L157.93 38.55C157.89 38.93 157.84 39.31 157.77 39.69C157.71 40.07 157.63 40.4501 157.52 40.8301C157.46 40.4401 157.42 40.05 157.41 39.67C157.39 39.28 157.38 38.9 157.39 38.51L157.94 38.57C157.9 38.78 157.87 38.9901 157.83 39.2001C157.76 39.4001 157.71 39.6101 157.62 39.8101C157.44 40.2101 157.18 40.5901 156.84 40.8801C156.49 41.1701 156.06 41.35 155.63 41.41C155.2 41.47 154.77 41.41 154.39 41.25L154.36 41.2401Z" fill="#1F4168"/>
<path d="M148.18 23.71C149.56 24.65 150.77 25.82 151.84 27.11C152.38 27.76 152.86 28.44 153.31 29.16C153.75 29.88 154.13 30.64 154.46 31.41C154.78 32.19 155.04 33.01 155.21 33.84C155.38 34.67 155.48 35.52 155.47 36.36C155.48 36.78 155.43 37.21 155.4 37.63C155.33 38.05 155.29 38.47 155.18 38.87C155.01 39.69 154.7 40.48 154.36 41.24C154.57 40.43 154.79 39.64 154.88 38.82C154.95 38.42 154.96 38 154.99 37.6C154.99 37.19 155.01 36.78 154.98 36.38C154.97 35.97 154.91 35.57 154.87 35.17C154.8 34.77 154.74 34.37 154.64 33.98C154.46 33.19 154.21 32.41 153.89 31.66C153.27 30.15 152.43 28.74 151.46 27.42C150.48 26.1 149.39 24.86 148.18 23.72V23.71Z" fill="#1F4168"/>
<path d="M134.39 25.36C134.97 26.43 135.57 27.49 136.21 28.52C136.84 29.56 137.49 30.58 138.16 31.59C138.84 32.59 139.53 33.59 140.26 34.55C140.99 35.51 141.74 36.46 142.54 37.36C144.13 39.17 145.88 40.85 147.87 42.19C148.87 42.86 149.93 43.42 151.06 43.83C152.18 44.25 153.38 44.48 154.6 44.51C153.38 44.62 152.15 44.45 150.97 44.12C149.79 43.77 148.66 43.25 147.61 42.6C146.56 41.96 145.59 41.2 144.66 40.39C143.74 39.57 142.89 38.69 142.07 37.77C140.46 35.92 139.02 33.93 137.75 31.85C136.47 29.77 135.33 27.61 134.39 25.36Z" fill="#1F4168"/>
<path d="M88.66 64.9C89.16 65.35 89.63 65.82 90.06 66.35C90.49 66.88 90.85 67.46 91.13 68.1C91.39 68.74 91.56 69.44 91.54 70.14C91.53 70.84 91.34 71.52 90.99 72.11C91.09 71.44 91.13 70.8 91.05 70.17C90.97 69.54 90.8 68.93 90.55 68.35C90.31 67.76 89.99 67.2 89.66 66.64C89.33 66.08 88.96 65.52 88.66 64.91V64.9Z" fill="#1F4168"/>
<path d="M88.63 32.47C88.85 33.83 88.97 35.21 89.06 36.6C89.11 37.29 89.13 37.98 89.16 38.67C89.16 39.36 89.19 40.06 89.17 40.75C89.14 43.52 88.94 46.3 88.5 49.04C88.38 49.72 88.27 50.41 88.13 51.09L87.68 53.12C87.37 54.46 87.09 55.8 86.93 57.15C86.77 58.5 86.72 59.87 86.98 61.19C87.11 61.85 87.33 62.5 87.62 63.11C87.91 63.73 88.28 64.31 88.65 64.89C87.75 63.85 86.94 62.66 86.58 61.27C86.21 59.9 86.21 58.46 86.34 57.07C86.4 56.37 86.51 55.68 86.63 55C86.75 54.31 86.9 53.63 87.07 52.96C87.23 52.29 87.38 51.62 87.53 50.95C87.67 50.28 87.79 49.6 87.92 48.93C88.39 46.22 88.65 43.48 88.77 40.73C88.88 37.98 88.85 35.22 88.61 32.46L88.63 32.47Z" fill="#1F4168"/>
<path d="M79.32 49.32C80.52 48.95 81.55 48.32 82.44 47.54C82.87 47.13 83.29 46.71 83.66 46.23C83.76 46.12 83.85 45.99 83.94 45.87L84.22 45.5C84.4 45.25 84.56 44.99 84.76 44.74C84.69 45.05 84.59 45.35 84.48 45.65C84.34 45.94 84.23 46.24 84.06 46.51C83.74 47.07 83.33 47.57 82.85 48.01C82.36 48.44 81.8 48.79 81.2 49.03C80.6 49.27 79.95 49.4 79.32 49.33V49.32Z" fill="#1F4168"/>
<path d="M103.56 23.71C102.56 24.88 101.56 26.03 100.62 27.23C99.68 28.43 98.8 29.67 98.07 30.98C97.33 32.29 96.74 33.69 96.34 35.14C95.94 36.6 95.74 38.11 95.67 39.65C95.48 38.12 95.54 36.55 95.86 35.03C96.18 33.5 96.76 32.04 97.52 30.68C98.29 29.33 99.22 28.07 100.24 26.92C101.26 25.76 102.37 24.7 103.55 23.71H103.56Z" fill="#1F4168"/>
<path d="M113.48 16.17C113.34 15.33 113.14 14.5 112.87 13.7C112.73 13.3 112.57 12.91 112.36 12.55C112.15 12.2 111.89 11.86 111.55 11.71C111.22 11.55 110.84 11.66 110.52 11.89C110.21 12.13 109.9 12.43 109.65 12.74C109.14 13.37 108.8 14.12 108.55 14.91C108.29 15.7 108.11 16.53 107.84 17.35C107.58 18.17 107.26 18.99 106.85 19.75C106.04 21.29 104.88 22.61 103.56 23.7C104.67 22.4 105.66 21.02 106.36 19.51C106.54 19.13 106.7 18.75 106.84 18.36C106.99 17.97 107.12 17.57 107.24 17.17C107.48 16.37 107.69 15.54 107.97 14.72C108.26 13.9 108.66 13.08 109.28 12.43C109.58 12.1 109.93 11.83 110.3 11.58C110.49 11.46 110.71 11.35 110.96 11.32C111.2 11.28 111.46 11.32 111.68 11.43C112.12 11.66 112.37 12.06 112.57 12.44C112.77 12.83 112.91 13.24 113.03 13.65C113.26 14.48 113.4 15.32 113.47 16.17H113.48Z" fill="#1F4168"/>
<path d="M99.8 12.29C99.69 12.87 99.41 13.4 99.09 13.9C98.93 14.15 98.75 14.38 98.57 14.62C98.37 14.84 98.19 15.07 97.97 15.28C97.56 15.71 97.09 16.08 96.63 16.44L95.9 16.94C95.66 17.11 95.39 17.24 95.14 17.39C94.63 17.69 94.09 17.92 93.56 18.17C93.02 18.39 92.47 18.6 91.92 18.79C91.36 18.96 90.8 19.12 90.23 19.26C89.66 19.38 89.09 19.49 88.51 19.58C89.05 19.36 89.6 19.16 90.14 18.96L91.75 18.32C92.27 18.08 92.8 17.86 93.32 17.62C93.83 17.36 94.35 17.13 94.84 16.83C95.84 16.29 96.79 15.65 97.65 14.91C97.87 14.73 98.06 14.52 98.28 14.33C98.48 14.13 98.68 13.92 98.86 13.7C99.23 13.27 99.57 12.8 99.81 12.27L99.8 12.29Z" fill="#1F4168"/>
<path d="M90.1 103.95C90.1 103.95 96.35 116.35 112.3 126.89C117.42 130.27 122.04 134.37 125.96 139.08L134.96 143.74L135.82 136.56C136.15 133.85 137.22 131.28 138.91 129.14C140.29 127.4 141.26 125.38 141.74 123.22L144.73 110L138.46 106.35L99.53 100.3L90.08 103.95H90.1Z" fill="#FFC89F"/>
<path d="M431.63 314.39C438.51 319.19 441.62 324.54 443.01 328.69C444.38 332.81 444.06 335.73 444.06 335.73C444.06 335.73 443.36 338.93 440.25 342.06C437.78 344.56 433.79 347.02 427.42 347.8C410.75 349.82 403 341.69 385.53 339.15C383.54 338.86 381.15 338.58 378.57 338.15C370.27 339.98 371.56 337.43 372 336.79C364.01 334.68 355.76 330.54 352.03 321.06C351.3 319.21 351.15 317.18 351.59 315.24L351.72 314.66C352.24 312.39 353.54 310.37 355.4 308.97C362.81 303.41 370.91 302.62 378.11 303.53C378.11 303.53 377.5 301.46 379.59 301.93C380.58 302.16 382.19 302.96 384.76 304.84C385.95 305.15 387.08 305.48 388.16 305.82C405 311.11 416.89 304.14 431.61 314.39H431.63Z" fill="#FFD514"/>
<path d="M378.82 306.69C379.38 308.5 380.23 310.21 381.32 311.77L385.05 317.1C385.58 317.86 385.94 318.7 386.11 319.59C386.28 320.48 386.27 321.4 386.07 322.3C385.59 324.42 384.07 326.17 382.04 326.95L379.73 327.84C376.98 328.89 374.75 330.87 373.36 333.38C373.36 333.38 360.75 330.77 355.15 321.5C352.88 317.75 354.11 312.85 357.82 310.51C362.02 307.87 368.91 305.25 378.82 306.68V306.69Z" fill="#FFC89F"/>
<path d="M427.02 330.64C426.52 332.84 425.54 335.28 423.85 337.9C422.9 339.38 421.16 340.15 419.43 339.87C415.72 339.27 403.16 337.29 397.06 337.16C389.9 337 380.44 340.06 380.35 340.09C379.38 340.41 378.34 339.88 378.02 338.91C377.7 337.94 378.23 336.9 379.2 336.58C379.61 336.45 389.36 333.3 397.14 333.47C403.31 333.61 415.2 335.44 420.03 336.23C420.31 336.28 420.6 336.15 420.75 335.9C425.41 328.69 423.55 323.37 422.54 321.42C422.44 321.23 422.26 321.1 422.04 321.06C417.92 320.32 404.03 317.73 398.42 315.6C391.72 313.06 384.75 306.72 384.45 306.45C383.7 305.76 383.65 304.6 384.33 303.84C385.02 303.09 386.18 303.04 386.94 303.72C387.01 303.78 393.69 309.85 399.73 312.14C405.05 314.16 418.66 316.69 422.7 317.42C424.06 317.66 425.19 318.5 425.82 319.71C426.74 321.49 428.21 325.39 427.02 330.63V330.64Z" fill="#F0F2F5"/>
<path d="M389.66 330.28C390.04 329.11 390.39 327.95 390.7 326.79C391.01 325.62 391.28 324.45 391.49 323.26C391.72 322.08 391.88 320.89 392 319.69C392.14 318.49 392.14 317.28 392.19 316.06C392.45 317.26 392.6 318.49 392.57 319.72V320.18L392.54 320.64C392.52 320.95 392.5 321.26 392.48 321.56C392.4 322.17 392.33 322.78 392.21 323.39C391.98 324.6 391.67 325.8 391.24 326.95C390.82 328.1 390.31 329.23 389.66 330.27V330.28Z" fill="#A65B3C"/>
<path d="M399.2 328.13C398.63 330.64 397.93 332.29 397.87 332.43C397.67 332.9 397.13 333.11 396.66 332.91C396.19 332.71 395.97 332.17 396.17 331.7C396.2 331.63 399.01 324.92 397.8 317.87C397.71 317.37 398.05 316.89 398.55 316.8C399.05 316.71 399.53 317.05 399.62 317.55C400.3 321.54 399.82 325.35 399.19 328.12L399.2 328.13Z" fill="#1F4168"/>
<path d="M405.25 329.14C404.68 331.65 403.98 333.3 403.92 333.44C403.72 333.91 403.18 334.12 402.71 333.92C402.24 333.72 402.02 333.18 402.22 332.71C402.25 332.64 405.06 325.93 403.85 318.88C403.76 318.38 404.1 317.9 404.6 317.81C405.1 317.72 405.58 318.06 405.67 318.56C406.35 322.55 405.87 326.36 405.24 329.13L405.25 329.14Z" fill="#1F4168"/>
<path d="M411.3 330.16C410.73 332.67 410.03 334.31 409.97 334.45C409.77 334.92 409.23 335.13 408.76 334.93C408.29 334.73 408.07 334.19 408.27 333.72C408.3 333.65 411.11 326.95 409.9 319.89C409.81 319.39 410.15 318.91 410.65 318.82C411.15 318.73 411.63 319.07 411.72 319.57C412.4 323.56 411.92 327.38 411.29 330.14L411.3 330.16Z" fill="#1F4168"/>
<path d="M441.8 335.21C441.76 335.39 439.21 345.95 424.66 347.72C420.41 348.24 416.37 348.13 412.31 347.41H412.26C411.96 347.33 411.78 347.03 411.84 346.74C411.91 346.44 412.2 346.26 412.5 346.32H412.53C416.51 347.04 420.32 347.13 424.52 346.62C438.06 344.97 440.54 335.72 440.71 335C440.76 334.36 441.45 323.2 428.48 314.17C425.45 312.06 422.37 310.56 419.06 309.61C418.77 309.53 418.6 309.23 418.67 308.94C418.75 308.65 419.03 308.47 419.32 308.54H419.36C422.79 309.54 425.98 311.08 429.11 313.27C442.97 322.92 441.86 334.67 441.81 335.16V335.22H441.8V335.21Z" fill="#F0F2F5"/>
<path d="M443.01 328.69C444.38 332.81 444.06 335.73 444.06 335.73C444.06 335.73 443.36 338.93 440.25 342.06L439.66 337.91C439.36 335.77 439.83 333.59 441 331.78L442.99 328.69H443.01Z" fill="#F0F2F5"/>
<path d="M134.37 273.45H238.68C239.92 273.45 241.01 272.66 241.4 271.48L242.21 268.98L263.6 203.53C264.2 201.68 262.83 199.79 260.88 199.79H156.57C155.33 199.79 154.24 200.59 153.85 201.76L131.65 269.7C131.05 271.55 132.42 273.44 134.37 273.44V273.45Z" fill="#1F4168"/>
<path d="M133.04 270.94C133.04 270.94 133 270.94 132.98 270.93C132.87 270.89 132.81 270.78 132.85 270.67L155.05 202.73C155.46 201.47 156.63 200.62 157.96 200.62H261.24C261.35 200.62 261.45 200.71 261.45 200.83C261.45 200.95 261.36 201.04 261.24 201.04H157.96C156.81 201.04 155.8 201.77 155.44 202.87L133.24 270.81C133.21 270.9 133.13 270.95 133.04 270.95V270.94Z" fill="#1B1A2E"/>
<path d="M194.36 241.01C194.31 241.01 194.25 241.01 194.2 240.98C193.93 240.89 193.78 240.6 193.87 240.33L195.41 235.62C195.5 235.35 195.79 235.2 196.06 235.29C196.33 235.38 196.48 235.67 196.39 235.94L194.85 240.65C194.78 240.87 194.58 241.01 194.36 241.01Z" fill="white"/>
<path d="M198.06 241.01C198.01 241.01 197.95 241.01 197.9 240.98C197.63 240.89 197.48 240.6 197.57 240.33L200.65 230.91C200.74 230.64 201.03 230.49 201.3 230.58C201.57 230.67 201.72 230.96 201.63 231.23L198.55 240.65C198.48 240.87 198.28 241.01 198.06 241.01Z" fill="white"/>
<path d="M201.76 241.01C201.71 241.01 201.65 241.01 201.6 240.98C201.33 240.89 201.18 240.6 201.27 240.33L204.35 230.91C204.44 230.64 204.73 230.49 205 230.58C205.27 230.67 205.42 230.96 205.33 231.23L202.25 240.65C202.18 240.87 201.98 241.01 201.76 241.01Z" fill="white"/>
<path d="M205.47 241.01C205.42 241.01 205.36 241.01 205.31 240.98C205.04 240.89 204.89 240.6 204.98 240.33L206.52 235.62C206.61 235.35 206.9 235.2 207.17 235.29C207.44 235.38 207.59 235.67 207.5 235.94L205.96 240.65C205.89 240.87 205.69 241.01 205.47 241.01Z" fill="white"/>
<path d="M97.3 329.64C97.3 329.64 108.11 371.44 184.34 353.99L260.19 362.06C250.35 379.65 260.19 422.6 248.66 494.23C248.66 494.23 247.16 497.92 244.22 504.49C244.22 504.49 259.9 524.84 289.34 511.03C289.34 511.03 287.45 502.48 302.33 450.8C317.21 399.11 330.36 367 325.4 339.07L355.56 340.18L365.33 341.25C365.33 341.25 375.87 326.05 367.64 300.91L359.6 300.33C359.6 300.33 332.72 297.22 278.04 271.62C224.36 246.49 199.6 263.86 199.6 263.86L139.05 287.96C139.05 287.96 133.07 324.92 97.3 329.64Z" fill="#1B1A2E"/>
<path d="M258.93 218.52C258.93 218.52 260.89 219.94 262.61 220.7C263.06 220.9 263.47 221.16 263.84 221.48C264.89 222.42 267.24 224.38 269.28 225.06C272.01 225.97 266.84 230.61 261.15 225.95C261.15 225.95 262.48 230.51 258.13 233.19C258.13 233.19 261.17 236.77 256.59 241.15C256.59 241.15 259.17 244.4 255.32 247.7C255.32 247.7 255.9 255.32 247.55 253.64L248.65 250.26L247.77 248.81C247.77 248.81 242.07 248.9 241.67 244.16C241.67 244.16 237.79 243.29 236.06 241.24C234.91 239.88 235.98 237.77 237.76 237.86C237.78 237.86 237.8 237.86 237.82 237.86C237.82 237.86 236 236.48 236.87 234.86C237.6 233.49 239.79 233.2 239.79 233.2C239.79 233.2 239.88 230 244.03 229.03C248.17 228.07 250.51 227.4 250.51 227.4L256.82 225.11L258.96 218.52H258.93Z" fill="#FFC89F"/>
<path d="M258.1 233.21C256.73 232.47 255.17 232.4 253.68 232.59L253.11 232.67L252.55 232.78C252.16 232.84 251.78 232.94 251.39 232.99C250.62 233.12 249.84 233.2 249.06 233.28C247.5 233.44 245.94 233.42 244.38 233.36L242.06 233.22C241.29 233.18 240.52 233.11 239.76 233.23L239.74 233.18C240.48 232.89 241.29 232.86 242.06 232.81C242.84 232.79 243.62 232.79 244.4 232.81C245.95 232.87 247.49 232.96 249.04 233C249.81 233 250.59 232.98 251.35 232.82C251.73 232.76 252.09 232.62 252.46 232.5L253.02 232.31L253.6 232.16C254.38 232 255.2 231.99 255.99 232.15C256.77 232.31 257.54 232.62 258.13 233.16L258.1 233.2V233.21Z" fill="#FF9A6C"/>
<path d="M256.55 241.16C256.03 240.54 255.3 240.16 254.56 239.91C253.81 239.66 253.02 239.55 252.22 239.49C250.62 239.37 248.96 239.49 247.33 239.59C245.69 239.69 244.04 239.64 242.4 239.42C240.78 239.17 239.14 238.74 237.72 237.89L237.74 237.84C239.28 238.39 240.87 238.68 242.48 238.88C244.08 239.11 245.7 239.22 247.33 239.32C248.14 239.36 248.96 239.37 249.77 239.31C250.58 239.25 251.39 239.08 252.23 239.08C253.06 239.08 253.91 239.23 254.69 239.55C255.46 239.89 256.2 240.39 256.59 241.15L256.55 241.17V241.16Z" fill="#FF9A6C"/>
<path d="M241.62 244.17C241.6 244 241.54 243.85 241.56 243.65C241.58 243.46 241.67 243.27 241.83 243.15C241.98 243.02 242.19 242.95 242.4 242.96C242.61 242.98 242.74 243.01 242.91 243.04C243.56 243.16 244.21 243.27 244.86 243.41C245.5 243.56 246.15 243.73 246.81 243.82C247.47 243.91 248.14 243.92 248.79 243.84C249.1 243.8 249.47 243.73 249.81 243.76C250.17 243.78 250.51 243.86 250.83 243.95C251.49 244.12 252.13 244.35 252.74 244.66C253.35 244.97 253.92 245.38 254.39 245.89C254.86 246.4 255.22 247.03 255.33 247.7H255.28C254.74 246.49 253.65 245.71 252.5 245.15C251.92 244.87 251.32 244.61 250.7 244.41C250.38 244.31 250.08 244.21 249.77 244.16C249.46 244.11 249.15 244.11 248.8 244.11C248.12 244.1 247.46 244.02 246.79 243.97C246.12 243.92 245.45 243.89 244.79 243.82C244.13 243.73 243.47 243.59 242.83 243.42L242.37 243.29C242.25 243.27 242.11 243.29 242 243.36C241.89 243.43 241.79 243.54 241.74 243.68C241.69 243.81 241.71 244 241.68 244.16H241.63L241.62 244.17Z" fill="#FF9A6C"/>
<path d="M261.22 226.32C261.05 225.89 260.81 225.52 260.49 225.25C260.18 224.99 259.8 224.84 259.39 224.8C259.19 224.75 258.97 224.79 258.76 224.78C258.55 224.8 258.33 224.82 258.11 224.85C257.9 224.9 257.67 224.92 257.45 224.97C257.23 225.02 257.01 225.07 256.77 225.1C256.96 224.96 257.16 224.85 257.36 224.73C257.57 224.62 257.79 224.54 258.01 224.46C258.23 224.38 258.47 224.35 258.7 224.29C258.94 224.29 259.18 224.24 259.43 224.29C259.92 224.34 260.43 224.57 260.75 224.97C261.08 225.35 261.23 225.85 261.19 226.32H261.22Z" fill="#FF9A6C"/>
<path d="M248.63 250.26C248.99 250.27 249.26 250.36 249.53 250.47C249.79 250.59 250.03 250.7 250.31 250.93C249.99 251.11 249.63 251.06 249.33 250.94C249.04 250.81 248.76 250.6 248.63 250.26Z" fill="#FF9A6C"/>
<path d="M222.38 354.78C222.38 355.55 222.1 356.33 221.49 356.98C218.14 360.51 213.49 362.5 208.63 362.5H96.59C82.42 362.5 68.9 358.56 57.31 351.53H219.16C221.1 351.53 222.39 353.12 222.39 354.77L222.38 354.78Z" fill="#1F4168"/>
<path d="M247.19 562.35C246.94 564.48 248.62 566.35 250.76 566.39C256.73 566.52 271.13 567.04 299.47 569.11C324.21 570.92 333 568.03 336.13 565.81C337.32 564.96 337.73 563.38 337.12 562.05C337.12 562.05 337.99 560.07 337.99 557.7C337.99 555.6 337.3 553.2 334.71 551.6C332.27 550.1 327.15 547.75 321.52 544.82C320.03 544.04 318.5 543.23 316.97 542.38C312.24 539.73 307.53 536.72 304.05 533.51C295.72 525.8 295.85 524.53 291.56 524.66C291.56 524.66 288.49 521.6 286.57 517.8C285.84 516.35 284.2 515.6 282.6 515.91C279.11 516.61 273.34 518.18 269.8 521.39C269.07 522.05 268.65 522.99 268.61 523.98L268.4 530.39L262.94 532.47C262.94 532.47 254.66 522.12 251.7 523.33C248.74 524.54 250.49 530.58 250.49 530.58C250.49 530.58 249.14 533.86 248.32 538.61C247.43 543.77 247.17 550.65 249.96 556.93C249.96 556.93 247.67 558.29 247.19 562.36V562.35Z" fill="#FFD514"/>
<path d="M247.19 562.35C246.94 564.48 248.62 566.35 250.76 566.39C256.73 566.52 271.13 567.04 299.47 569.11C324.21 570.92 333 568.03 336.13 565.81C337.32 564.96 337.73 563.38 337.12 562.05C318.93 565.58 297.07 557.97 277.93 558.61C257.19 559.31 249.97 556.92 249.97 556.92C249.97 556.92 247.68 558.28 247.2 562.35H247.19Z" fill="#F0F2F5"/>
<path d="M272.47 559.51C272.13 559.51 271.81 559.28 271.72 558.93C269.78 551.68 266.57 545.44 262.18 540.38C256.27 533.57 250.28 531.31 250.22 531.29C249.82 531.14 249.61 530.7 249.76 530.29C249.91 529.88 250.35 529.68 250.76 529.83C251.02 529.92 257.19 532.24 263.36 539.36C267.91 544.6 271.23 551.05 273.23 558.52C273.34 558.93 273.09 559.36 272.68 559.47C272.61 559.49 272.55 559.5 272.48 559.5L272.47 559.51Z" fill="#F0F2F5"/>
<path d="M250.49 530.57C250.49 530.57 256.67 532.83 262.77 539.88C262.77 539.88 266.48 537.08 272.28 534.54C277.92 532.08 284.36 532.25 289.84 535.05C293.15 536.74 297.33 539.08 302.05 542.14C312.73 549.07 319.17 548.96 321.51 544.82C321.91 544.11 321.65 543.23 320.92 542.86L319.3 542.04C318.9 541.84 318.44 541.84 318.04 542.02C317.77 542.14 317.41 542.27 316.96 542.38C314.65 542.95 309.99 542.91 303.29 537.15C299.14 533.58 295.66 531.02 292.75 529.14C286.66 525.2 278.93 524.79 272.45 528.06C271.16 528.71 269.8 529.48 268.39 530.39L262.93 532.47C262.93 532.47 254.65 522.12 251.69 523.33C248.73 524.54 250.48 530.58 250.48 530.58L250.49 530.57Z" fill="#F0F2F5"/>
<path d="M282.82 559.51C282.68 559.51 282.54 559.47 282.41 559.39C282.05 559.17 281.93 558.69 282.16 558.32C282.25 558.17 291.46 543.64 312.12 549.16C331.5 554.34 335.83 552.22 335.87 552.2C336.23 551.98 336.7 552.09 336.93 552.46C337.16 552.82 337.03 553.31 336.67 553.54C336.23 553.81 331.81 556.04 311.72 550.67C292.21 545.45 283.83 558.58 283.48 559.14C283.33 559.38 283.08 559.51 282.82 559.51Z" fill="#F0F2F5"/>
<path d="M310.18 541.12C309.69 541.12 309.23 540.84 309.01 540.38C308.71 539.73 308.98 538.96 309.63 538.66C310.15 538.42 310.26 537.75 310.26 537.74C310.34 537.03 310.98 536.52 311.69 536.6C312.4 536.68 312.91 537.32 312.83 538.03C312.81 538.24 312.54 540.15 310.73 541C310.55 541.08 310.36 541.12 310.18 541.12Z" fill="#1F4168"/>
<path d="M307.12 538.84C306.63 538.84 306.17 538.56 305.95 538.1C305.65 537.45 305.92 536.68 306.57 536.38C307.09 536.14 307.2 535.45 307.2 535.44C307.3 534.74 307.95 534.24 308.65 534.33C309.35 534.42 309.85 535.05 309.77 535.75C309.75 535.96 309.48 537.87 307.67 538.72C307.49 538.8 307.31 538.84 307.12 538.84Z" fill="#1F4168"/>
<path d="M304.06 536.55C303.57 536.55 303.11 536.27 302.89 535.81C302.59 535.16 302.86 534.39 303.51 534.09C304.03 533.85 304.14 533.18 304.14 533.17C304.22 532.46 304.86 531.95 305.57 532.03C306.28 532.11 306.79 532.75 306.71 533.46C306.69 533.67 306.42 535.58 304.61 536.43C304.43 536.51 304.24 536.55 304.06 536.55Z" fill="#1F4168"/>
<path d="M301 534.27C300.51 534.27 300.05 534 299.83 533.53C299.53 532.88 299.8 532.11 300.45 531.81C300.97 531.57 301.08 530.88 301.08 530.87C301.18 530.17 301.83 529.68 302.53 529.76C303.23 529.85 303.73 530.48 303.65 531.18C303.63 531.39 303.36 533.3 301.55 534.15C301.37 534.23 301.18 534.27 301 534.27Z" fill="#1F4168"/>
<path d="M291.56 524.66C291.52 525.02 291.31 525.34 291.06 525.59C290.81 525.85 290.49 526.04 290.17 526.18C289.84 526.32 289.5 526.4 289.15 526.44C288.8 526.47 288.45 526.46 288.11 526.39C288.44 526.25 288.75 526.15 289.07 526.05C289.38 525.93 289.69 525.84 289.97 525.71C290.26 525.59 290.54 525.45 290.81 525.28C291.07 525.11 291.33 524.92 291.57 524.66H291.56Z" fill="#F0F2F5"/>
<path d="M50.74 151.2C51.4 151.78 51.97 152.42 52.52 153.09C53.07 153.75 53.58 154.43 54.06 155.14C54.55 155.84 55 156.57 55.42 157.31C55.84 158.06 56.23 158.82 56.54 159.65C55.88 159.07 55.31 158.43 54.76 157.76C54.22 157.1 53.7 156.42 53.22 155.71C52.74 155.01 52.28 154.28 51.86 153.53C51.44 152.78 51.05 152.02 50.74 151.19V151.2Z" fill="white"/>
<path d="M43.19 227.75C43.85 228.33 44.42 228.97 44.97 229.64C45.52 230.3 46.03 230.98 46.51 231.69C47 232.39 47.45 233.12 47.87 233.86C48.29 234.61 48.68 235.37 48.99 236.2C48.33 235.62 47.76 234.98 47.21 234.31C46.67 233.65 46.15 232.97 45.67 232.26C45.19 231.56 44.73 230.83 44.31 230.08C43.89 229.33 43.5 228.57 43.19 227.74V227.75Z" fill="white"/>
<path d="M100.08 317.26C100.74 317.84 101.31 318.48 101.86 319.15C102.41 319.81 102.92 320.49 103.4 321.2C103.89 321.9 104.34 322.63 104.76 323.37C105.18 324.12 105.57 324.88 105.88 325.71C105.22 325.13 104.65 324.49 104.1 323.83C103.56 323.17 103.04 322.49 102.56 321.78C102.08 321.08 101.62 320.35 101.2 319.6C100.78 318.85 100.39 318.09 100.08 317.26Z" fill="white"/>
<path d="M113.99 161C113.21 161.41 112.41 161.71 111.59 161.99C110.78 162.26 109.96 162.5 109.13 162.7C108.3 162.9 107.46 163.06 106.61 163.19C105.76 163.32 104.91 163.41 104.03 163.4C104.81 162.99 105.61 162.68 106.43 162.41C107.24 162.14 108.06 161.9 108.89 161.7C109.72 161.5 110.56 161.34 111.41 161.21C112.26 161.08 113.11 160.99 113.99 161Z" fill="white"/>
<path d="M88.07 117.71C88.07 118.59 87.96 119.44 87.82 120.29C87.68 121.14 87.51 121.97 87.3 122.8C87.09 123.63 86.84 124.45 86.56 125.25C86.28 126.06 85.96 126.86 85.54 127.63C85.54 126.75 85.65 125.9 85.79 125.05C85.93 124.2 86.1 123.37 86.32 122.54C86.53 121.71 86.78 120.89 87.06 120.09C87.34 119.28 87.66 118.48 88.08 117.71H88.07Z" fill="white"/>
<path d="M74.56 191.59C74.56 192.47 74.45 193.32 74.31 194.17C74.17 195.02 74 195.85 73.79 196.68C73.58 197.51 73.33 198.33 73.05 199.13C72.77 199.94 72.45 200.74 72.03 201.51C72.03 200.63 72.14 199.77 72.28 198.93C72.42 198.08 72.59 197.25 72.81 196.42C73.02 195.59 73.27 194.77 73.55 193.97C73.83 193.16 74.15 192.36 74.57 191.59H74.56Z" fill="white"/>
<path d="M105.39 190.05C106.05 190.63 106.62 191.27 107.17 191.94C107.72 192.6 108.23 193.28 108.71 193.99C109.2 194.69 109.65 195.42 110.07 196.16C110.49 196.91 110.88 197.67 111.19 198.5C110.53 197.92 109.96 197.28 109.41 196.62C108.87 195.96 108.35 195.28 107.87 194.57C107.39 193.87 106.93 193.14 106.51 192.39C106.09 191.64 105.7 190.88 105.39 190.05Z" fill="white"/>
<path d="M102.98 273.56C103.64 274.14 104.21 274.78 104.76 275.45C105.31 276.11 105.82 276.79 106.3 277.5C106.79 278.2 107.24 278.93 107.66 279.67C108.08 280.42 108.47 281.18 108.78 282.01C108.12 281.43 107.55 280.79 107 280.12C106.46 279.46 105.94 278.78 105.46 278.07C104.98 277.37 104.52 276.64 104.1 275.89C103.68 275.14 103.29 274.38 102.98 273.55V273.56Z" fill="white"/>
<path d="M134.35 237.4C134.35 238.28 134.24 239.13 134.1 239.98C133.96 240.83 133.79 241.66 133.58 242.49C133.37 243.32 133.12 244.14 132.84 244.94C132.56 245.75 132.24 246.55 131.82 247.32C131.82 246.44 131.93 245.58 132.07 244.74C132.21 243.89 132.38 243.06 132.6 242.23C132.81 241.4 133.06 240.58 133.34 239.78C133.62 238.97 133.94 238.17 134.36 237.4H134.35Z" fill="white"/>
<path d="M152.98 118.83C153.64 119.41 154.21 120.05 154.76 120.72C155.31 121.38 155.82 122.06 156.3 122.77C156.79 123.47 157.24 124.2 157.66 124.94C158.08 125.69 158.47 126.45 158.78 127.28C158.12 126.7 157.55 126.06 157 125.4C156.46 124.74 155.94 124.06 155.46 123.35C154.98 122.65 154.52 121.92 154.1 121.17C153.68 120.42 153.29 119.66 152.98 118.83Z" fill="white"/>
<path d="M150.99 187.36C151.65 187.94 152.22 188.58 152.77 189.25C153.32 189.91 153.83 190.59 154.31 191.3C154.8 192 155.25 192.73 155.67 193.47C156.09 194.22 156.48 194.98 156.79 195.81C156.13 195.23 155.56 194.59 155.01 193.93C154.47 193.27 153.95 192.59 153.47 191.88C152.99 191.18 152.53 190.45 152.11 189.7C151.69 188.95 151.3 188.19 150.99 187.36Z" fill="white"/>
<path d="M174.79 153.47C174.79 154.35 174.68 155.2 174.54 156.05C174.4 156.9 174.23 157.73 174.02 158.56C173.81 159.39 173.56 160.21 173.28 161.01C173 161.82 172.68 162.62 172.26 163.39C172.26 162.51 172.37 161.65 172.51 160.81C172.65 159.96 172.82 159.13 173.04 158.3C173.25 157.47 173.5 156.65 173.78 155.85C174.06 155.04 174.38 154.24 174.8 153.47H174.79Z" fill="white"/>
<g style="mix-blend-mode:multiply" opacity="0.4">
<path d="M61.46 220.33C61.46 220.33 45.19 220.49 40.28 231.97C40.28 231.97 36.12 216.01 61.46 220.33Z" fill="#A65B3C"/>
</g>
<g style="mix-blend-mode:multiply" opacity="0.4">
<path d="M63.16 217.98C63.16 217.98 54.99 211.18 45.28 215.99C45.28 215.99 61.23 207.64 63.16 217.98Z" fill="#A65B3C"/>
</g>
<g style="mix-blend-mode:multiply" opacity="0.4">
<path d="M75.13 272.82C75.13 272.82 58.26 260.59 59.86 230.56C59.86 230.56 55.13 270.57 75.13 272.82Z" fill="#A65B3C"/>
</g>
<g style="mix-blend-mode:multiply" opacity="0.4">
<path d="M80.59 212.14C80.59 212.14 84.17 212.19 86.8 212.61C86.8 212.61 79.22 202.83 80.22 164.54C80.22 164.54 78.43 187.88 80.59 212.14Z" fill="#A65B3C"/>
</g>
<g style="mix-blend-mode:multiply" opacity="0.4">
<path d="M102.95 281.2C102.95 281.2 111.53 260.52 136.84 253.89C125.35 257.53 91.14 271.66 102.95 281.2Z" fill="#A65B3C"/>
</g>
<g style="mix-blend-mode:multiply" opacity="0.4">
<path d="M101.77 297.55C101.77 297.55 120.41 302.9 131.56 287.38C131.56 287.38 117.39 297.17 101.77 297.55Z" fill="#A65B3C"/>
</g>
<g style="mix-blend-mode:multiply" opacity="0.4">
<path d="M113.74 147.41C113.74 147.41 116.75 140.83 118.05 139.55C119.35 138.27 122.53 137.5 124.68 139.96C124.68 139.96 119.48 137.4 113.73 147.41H113.74Z" fill="#A65B3C"/>
</g>
<g style="mix-blend-mode:multiply" opacity="0.4">
<path d="M149.39 142.41L146.55 134.1C145.62 131.36 142.43 130.15 139.91 131.56C138.77 132.2 137.95 133.3 137.66 134.58L135.6 143.74C135.6 143.74 142.94 123.32 149.39 142.41Z" fill="#A65B3C"/>
</g>
<g style="mix-blend-mode:multiply" opacity="0.4">
<path d="M162.94 136.12C162.94 136.12 162.94 174.35 172.25 199.79C172.25 199.79 164.28 163.15 162.94 136.12Z" fill="#A65B3C"/>
</g>
<g style="mix-blend-mode:multiply" opacity="0.4">
<path d="M194.98 195.22C194.98 195.22 173.81 201.03 170.51 188.33C170.51 188.33 181.53 198.12 194.98 195.22Z" fill="#A65B3C"/>
</g>
<path d="M113.74 147.41C114.27 146.14 114.84 144.9 115.42 143.66C115.7 143.04 116.01 142.43 116.31 141.81C116.62 141.21 116.88 140.57 117.33 139.98C117.77 139.41 118.34 138.93 118.98 138.61C119.63 138.3 120.35 138.13 121.06 138.14C121.77 138.14 122.48 138.31 123.11 138.62C123.73 138.94 124.28 139.4 124.69 139.95C123.72 138.98 122.39 138.45 121.07 138.53C119.76 138.6 118.5 139.24 117.73 140.28C117.34 140.78 117.06 141.42 116.74 142.02C116.42 142.62 116.11 143.23 115.77 143.83C115.11 145.03 114.45 146.23 113.74 147.4V147.41Z" fill="#A65B3C"/>
<path d="M84.18 106.07C85.43 110.2 87.13 114.17 89.08 118L89.83 119.43C90.08 119.91 90.32 120.39 90.6 120.85C91.14 121.78 91.66 122.72 92.21 123.64L93.94 126.36C94.52 127.27 95.17 128.12 95.78 129.01C96.09 129.45 96.39 129.9 96.71 130.33L97.7 131.6L98.69 132.87C99.02 133.29 99.34 133.73 99.71 134.12L101.83 136.55L102.36 137.16C102.54 137.36 102.74 137.54 102.92 137.74L104.05 138.89C107.01 142.02 110.35 144.75 113.73 147.42L111.12 145.51C110.25 144.87 109.37 144.25 108.56 143.52L106.11 141.4C105.91 141.22 105.7 141.05 105.5 140.87L104.92 140.3L103.76 139.16C102.17 137.69 100.78 136.03 99.34 134.42C98.97 134.02 98.65 133.59 98.31 133.17L97.3 131.9L96.29 130.63C95.97 130.2 95.66 129.75 95.35 129.31C92.83 125.8 90.61 122.07 88.72 118.18C88.22 117.22 87.82 116.22 87.36 115.24C86.92 114.25 86.53 113.25 86.12 112.25C85.38 110.22 84.66 108.18 84.16 106.08L84.18 106.07Z" fill="#A65B3C"/>
<path d="M149.39 142.41C148.48 140.07 147.62 137.7 146.77 135.34C146.55 134.76 146.36 134.14 146.1 133.61C145.83 133.08 145.45 132.6 144.99 132.22C144.07 131.46 142.83 131.1 141.65 131.26C140.47 131.39 139.35 132.02 138.64 132.98C138.28 133.46 138.02 134.01 137.88 134.59C137.74 135.2 137.59 135.81 137.44 136.42L136.54 140.08C136.22 141.3 135.92 142.52 135.59 143.73C135.81 142.49 136.06 141.26 136.3 140.03L137.06 136.34C137.19 135.72 137.31 135.11 137.45 134.49C137.59 133.85 137.87 133.23 138.26 132.7C139.03 131.63 140.27 130.91 141.59 130.75C142.91 130.59 144.27 131.01 145.28 131.86C145.79 132.28 146.2 132.82 146.49 133.41C146.78 134.02 146.93 134.61 147.13 135.21C147.9 137.6 148.67 140 149.38 142.41H149.39Z" fill="#A65B3C"/>
<path d="M150.82 109.87C151.58 112.52 152.07 115.25 152.4 118C152.73 120.75 152.85 123.52 152.81 126.28L152.72 128.36L152.53 130.43C152.48 131.12 152.37 131.8 152.26 132.49C152.15 133.17 152.08 133.86 151.91 134.54C151.38 137.26 150.49 139.9 149.37 142.42L150.04 140.46C150.15 140.13 150.28 139.81 150.37 139.48L150.63 138.48C150.8 137.81 151.01 137.16 151.14 136.49L151.53 134.47C151.97 131.76 152.29 129.03 152.3 126.28C152.38 123.54 152.25 120.79 152.01 118.05C151.88 116.68 151.73 115.31 151.52 113.95C151.34 112.58 151.09 111.23 150.81 109.88L150.82 109.87Z" fill="#A65B3C"/>
<path d="M130.73 143.74C131.57 144.02 132.33 144.52 133.01 145.09C133.69 145.67 134.27 146.37 134.7 147.16C135.14 147.94 135.45 148.8 135.61 149.69C135.65 149.91 135.67 150.14 135.7 150.36L135.73 151.04L135.75 152.36C135.78 154.12 135.85 155.88 135.92 157.65L136.14 162.94C136.29 166.46 136.47 169.99 136.76 173.51C137.04 177.03 137.41 180.54 137.83 184.04C138.67 191.05 139.68 198.03 140.92 204.97C141.56 208.43 142.23 211.9 143.07 215.32C143.91 218.74 144.89 222.13 146.16 225.42L146.11 225.44C144.68 222.21 143.62 218.82 142.71 215.41C141.8 211.99 141.03 208.54 140.4 205.06C139.1 198.11 138.22 191.09 137.54 184.07C137.2 180.56 136.9 177.04 136.6 173.52C136.3 170 135.99 166.49 135.75 162.96C135.63 161.2 135.55 159.43 135.47 157.67C135.41 155.9 135.37 154.14 135.35 152.37C135.33 151.48 135.4 150.6 135.26 149.76C135.13 148.91 134.86 148.08 134.46 147.31C133.66 145.77 132.32 144.53 130.74 143.75L130.73 143.74Z" fill="#A65B3C"/>
<path d="M80.22 164.54C80.13 166.52 80.03 168.51 79.97 170.49C79.89 172.47 79.83 174.46 79.78 176.44C79.68 180.41 79.6 184.38 79.62 188.35C79.6 192.32 79.69 196.29 79.83 200.25C79.92 202.23 79.99 204.22 80.14 206.19C80.23 208.17 80.45 210.15 80.59 212.13C80.03 208.2 79.67 204.23 79.43 200.26C79.22 196.29 79.13 192.31 79.11 188.34C79.14 184.36 79.21 180.39 79.39 176.42C79.58 172.45 79.82 168.48 80.23 164.53L80.22 164.54Z" fill="#A65B3C"/>
<path d="M162.94 136.12C163.02 138.81 163.12 141.5 163.28 144.19C163.42 146.88 163.59 149.56 163.81 152.24C164.23 157.6 164.75 162.96 165.45 168.29C166.14 173.62 167.02 178.93 168.08 184.2L168.96 188.14C169.12 188.79 169.24 189.46 169.42 190.1L169.94 192.05L170.45 194C170.54 194.32 170.62 194.65 170.71 194.97L171.02 195.93L172.23 199.78C170.33 194.74 168.88 189.53 167.68 184.28C166.53 179.01 165.66 173.69 164.93 168.35C164.27 163 163.74 157.64 163.41 152.26C163.08 146.88 162.87 141.5 162.93 136.11L162.94 136.12Z" fill="#A65B3C"/>
<path d="M194.98 195.22C192.73 195.9 190.4 196.33 188.06 196.59C185.71 196.83 183.34 196.86 180.98 196.56C178.65 196.22 176.28 195.56 174.32 194.15C173.35 193.45 172.48 192.6 171.84 191.6C171.21 190.59 170.77 189.48 170.51 188.33C170.88 189.44 171.37 190.52 172.05 191.46C172.72 192.41 173.59 193.2 174.55 193.83C175.52 194.45 176.56 194.96 177.66 195.32C178.76 195.67 179.9 195.91 181.05 196.06C183.35 196.39 185.7 196.36 188.03 196.2C189.2 196.12 190.36 195.99 191.52 195.82C192.68 195.67 193.84 195.46 194.99 195.22H194.98Z" fill="#A65B3C"/>
<path d="M148.97 278.03C147.41 277.51 145.79 277.17 144.17 277.17C143.36 277.2 142.56 277.27 141.78 277.47C141 277.67 140.25 277.95 139.53 278.32C138.09 279.05 136.86 280.13 135.78 281.34C135.24 281.95 134.75 282.6 134.3 283.29C133.84 283.97 133.43 284.68 133.07 285.42C133.6 283.86 134.44 282.4 135.48 281.09C136.51 279.79 137.79 278.64 139.3 277.87C140.05 277.49 140.85 277.19 141.67 277C142.5 276.83 143.34 276.75 144.18 276.78C145.02 276.84 145.85 276.94 146.65 277.17C147.45 277.39 148.23 277.69 148.98 278.04L148.97 278.03Z" fill="#A65B3C"/>
<path d="M131.56 287.38C130.01 289.7 128.08 291.79 125.85 293.49C124.74 294.35 123.52 295.08 122.28 295.74C121.02 296.37 119.72 296.91 118.38 297.35C115.69 298.18 112.88 298.6 110.07 298.63C107.27 298.64 104.45 298.34 101.77 297.55C103.13 297.84 104.51 298.04 105.9 298.14C107.28 298.26 108.68 298.29 110.06 298.23C112.83 298.12 115.59 297.7 118.22 296.85C119.54 296.43 120.82 295.92 122.06 295.31C123.29 294.68 124.47 293.96 125.6 293.16C126.71 292.34 127.8 291.47 128.77 290.47C129.78 289.52 130.66 288.44 131.55 287.36L131.56 287.38Z" fill="#A65B3C"/>
<path d="M136.83 253.88C133.24 254.94 129.75 256.29 126.42 257.97C123.11 259.67 119.93 261.65 117.04 264C114.11 266.3 111.46 268.94 109.08 271.81C107.89 273.24 106.77 274.74 105.74 276.29C104.71 277.84 103.75 279.45 102.95 281.14C104.39 277.68 106.46 274.5 108.78 271.56C111.12 268.62 113.8 265.95 116.73 263.6C118.2 262.43 119.74 261.34 121.33 260.35C122.91 259.34 124.57 258.44 126.25 257.62C127.11 257.23 127.95 256.82 128.82 256.48L130.12 255.95L131.44 255.47C133.21 254.84 135.01 254.33 136.83 253.89V253.88Z" fill="#A65B3C"/>
<path d="M58.52 116.33C61.49 117.67 64.17 119.58 66.62 121.74C69.06 123.91 71.21 126.4 73.02 129.12C73.92 130.48 74.73 131.9 75.45 133.37C76.18 134.83 76.8 136.34 77.33 137.89C77.58 138.67 77.84 139.44 78.04 140.23C78.14 140.62 78.26 141.01 78.36 141.41L78.63 142.6C78.82 143.39 78.92 144.2 79.06 145C79.19 145.8 79.26 146.61 79.35 147.42C78.85 144.21 78.07 141.05 76.95 138.02C75.82 135 74.39 132.07 72.58 129.4C70.82 126.69 68.69 124.24 66.34 122.03C65.16 120.92 63.92 119.89 62.61 118.93C61.31 117.97 59.95 117.08 58.51 116.33H58.52Z" fill="#A65B3C"/>
<path d="M82.63 212.22C81.2 212.17 79.77 212.2 78.34 212.32C76.92 212.42 75.5 212.6 74.1 212.88C71.32 213.43 68.56 214.3 66.18 215.82C63.79 217.31 61.83 219.51 60.83 222.16C60.33 223.48 59.98 224.86 59.87 226.28C59.76 226.99 59.79 227.7 59.76 228.41C59.76 229.12 59.83 229.84 59.85 230.55C59.42 227.73 59.47 224.75 60.46 222.01C61.41 219.24 63.46 216.94 65.9 215.38C68.38 213.85 71.19 212.96 74.03 212.49C76.87 212.03 79.77 211.92 82.62 212.22H82.63Z" fill="#A65B3C"/>
<path d="M61.46 220.33C60.4 220.42 59.35 220.55 58.31 220.73C57.27 220.9 56.23 221.11 55.21 221.37C53.16 221.88 51.16 222.55 49.26 223.47C48.31 223.92 47.39 224.43 46.51 225C45.63 225.57 44.82 226.24 44.03 226.93C42.48 228.34 41.22 230.07 40.27 231.97C40.66 230.98 41.13 230.02 41.71 229.12C42.31 228.24 42.98 227.39 43.75 226.64C45.28 225.12 47.11 223.95 49.03 223C50.98 222.11 53.02 221.42 55.11 220.98C57.2 220.55 59.33 220.29 61.45 220.32L61.46 220.33Z" fill="#A65B3C"/>
<path d="M63.16 217.98C62.5 217.54 61.83 217.13 61.12 216.78C60.78 216.59 60.41 216.44 60.06 216.26C59.7 216.1 59.34 215.96 58.98 215.81C57.52 215.25 56 214.85 54.46 214.67C53.69 214.54 52.91 214.55 52.13 214.52C51.35 214.57 50.57 214.57 49.8 214.72C48.24 214.91 46.76 215.45 45.27 215.99C45.62 215.81 45.98 215.63 46.33 215.46C46.69 215.29 47.04 215.1 47.42 214.98L48.56 214.6C48.94 214.47 49.34 214.42 49.73 214.33C50.51 214.12 51.31 214.11 52.11 214.03C52.91 214.05 53.72 214.03 54.51 214.16C56.1 214.36 57.66 214.79 59.12 215.45C60.57 216.11 61.96 216.93 63.15 217.98H63.16Z" fill="#A65B3C"/>
<path d="M75.13 272.82C72.03 270.47 69.53 267.4 67.42 264.14C65.31 260.86 63.69 257.29 62.41 253.61C61.88 251.73 61.27 249.88 60.94 247.96L60.64 246.53C60.54 246.05 60.43 245.58 60.38 245.09L60.02 242.19C59.97 241.71 59.88 241.23 59.86 240.74L59.79 239.28L59.66 236.37C59.64 235.4 59.72 234.43 59.74 233.46L59.86 230.55C59.9 232.49 59.85 234.43 59.92 236.36L60.12 239.26L60.22 240.71C60.25 241.19 60.35 241.67 60.41 242.15L60.82 245.02C60.87 245.5 60.98 245.97 61.09 246.44L61.4 247.86C61.75 249.76 62.37 251.59 62.9 253.45C64.13 257.11 65.73 260.64 67.75 263.93L68.51 265.16L69.34 266.35C69.88 267.15 70.49 267.9 71.09 268.66C72.32 270.15 73.64 271.58 75.13 272.82Z" fill="#A65B3C"/>
<path d="M101.92 245.77C103.09 249.14 103.38 252.82 102.8 256.37C102.23 259.93 100.59 263.29 98.22 266.01C95.82 268.72 92.77 270.74 89.53 272.25C86.28 273.76 82.81 274.73 79.31 275.4L81.89 274.71C82.74 274.46 83.59 274.17 84.43 273.91C85.27 273.62 86.1 273.3 86.93 272.99C87.74 272.63 88.56 272.29 89.36 271.9C92.53 270.33 95.53 268.35 97.84 265.67C99 264.35 100 262.89 100.77 261.31C101.55 259.73 102.08 258.04 102.42 256.31C102.75 254.58 102.87 252.8 102.77 251.03C102.69 249.26 102.42 247.49 101.92 245.78V245.77Z" fill="#A65B3C"/>
<path d="M132.4 150.35C132.4 151.72 131.29 152.84 129.91 152.84C128.53 152.84 127.42 151.73 127.42 150.35C127.42 148.97 128.53 147.86 129.91 147.86C131.29 147.86 132.4 148.97 132.4 150.35Z" fill="white"/>
<path d="M135.88 192.44C135.88 193.81 134.77 194.93 133.39 194.93C132.01 194.93 130.9 193.82 130.9 192.44C130.9 191.06 132.01 189.95 133.39 189.95C134.77 189.95 135.88 191.06 135.88 192.44Z" fill="white"/>
<path d="M144.13 228.79C144.13 230.16 143.02 231.28 141.64 231.28C140.26 231.28 139.15 230.17 139.15 228.79C139.15 227.41 140.26 226.3 141.64 226.3C143.02 226.3 144.13 227.41 144.13 228.79Z" fill="white"/>
<path d="M228.36 315.02C230.28 316.21 232.35 317.1 234.43 317.95C236.52 318.79 238.66 319.47 240.82 320.09C242.98 320.71 245.18 321.21 247.39 321.63C248.49 321.85 249.6 322.03 250.71 322.22C251.82 322.37 252.93 322.55 254.05 322.67C258.52 323.22 263.02 323.49 267.53 323.39C272.04 323.31 276.53 322.9 280.99 322.27C282.1 322.1 283.22 321.94 284.33 321.76L287.65 321.16L290.96 320.48C292.06 320.25 293.18 320.02 294.3 319.87C296.55 319.55 298.81 319.4 301.08 319.41C303.35 319.43 305.62 319.62 307.85 320.12C310.07 320.65 312.22 321.47 314.18 322.64C316.15 323.8 317.91 325.29 319.41 327C322.42 330.43 324.31 334.69 325.41 339.05H325.36C324.73 336.9 323.93 334.79 322.91 332.79C321.89 330.79 320.64 328.9 319.14 327.25C316.15 323.91 312.08 321.64 307.74 320.64C305.56 320.16 303.32 319.98 301.08 319.96C298.84 319.93 296.59 320.07 294.37 320.36C293.25 320.5 292.16 320.72 291.05 320.94L287.72 321.57L284.38 322.11C283.26 322.28 282.14 322.41 281.02 322.57C276.54 323.12 272.03 323.45 267.52 323.56C263.01 323.67 258.49 323.55 253.99 323.08C249.49 322.61 245.04 321.74 240.7 320.47C238.53 319.84 236.4 319.07 234.31 318.2C232.23 317.31 230.19 316.31 228.31 315.06L228.34 315.02H228.36Z" fill="#1F4168"/>
<path d="M173.83 351.53C176.34 350.41 178.83 349.24 181.28 348C182.51 347.39 183.73 346.75 184.95 346.13L188.58 344.18C193.39 341.53 198.12 338.71 202.7 335.69C207.33 332.73 211.75 329.46 216.06 326.05L219.26 323.45C220.31 322.56 221.32 321.63 222.35 320.72L223.9 319.36C224.4 318.89 224.89 318.4 225.38 317.93L228.34 315.06C224.57 319.06 220.6 322.9 216.31 326.37C212.04 329.85 207.6 333.13 202.98 336.13C198.36 339.13 193.63 341.96 188.76 344.54C183.89 347.11 178.93 349.51 173.82 351.56L173.83 351.53Z" fill="#1F4168"/>
<path d="M261.13 360.58C261.67 359.69 262.31 358.88 262.97 358.08C263.65 357.3 264.36 356.54 265.11 355.82C266.61 354.38 268.27 353.11 270.03 352C271.8 350.92 273.66 349.95 275.62 349.26C276.59 348.88 277.59 348.61 278.59 348.33C279.09 348.18 279.6 348.1 280.11 348.01C280.62 347.91 281.13 347.82 281.64 347.74C279.64 348.27 277.65 348.81 275.77 349.63L275.06 349.93C274.82 350.02 274.59 350.12 274.36 350.24L272.97 350.91C272.51 351.13 272.07 351.41 271.62 351.65L270.95 352.03C270.73 352.16 270.52 352.31 270.3 352.44C268.54 353.5 266.91 354.76 265.38 356.11C263.84 357.47 262.4 358.95 261.13 360.58Z" fill="#1F4168"/>
<path d="M214.67 304.41C215.05 304.95 215.44 305.49 215.86 305.99C216.27 306.51 216.7 307 217.14 307.49C218.03 308.45 218.97 309.37 219.98 310.2C220.47 310.64 221 311.01 221.52 311.41C222.06 311.77 222.59 312.16 223.16 312.49C223.44 312.66 223.71 312.84 224 313L224.87 313.45C225.44 313.78 226.06 314 226.66 314.3C225.39 313.94 224.13 313.48 222.96 312.83C222.35 312.54 221.81 312.15 221.24 311.8C220.7 311.4 220.15 311.02 219.65 310.58C218.63 309.72 217.68 308.78 216.85 307.73C216.01 306.69 215.25 305.59 214.68 304.39L214.67 304.41Z" fill="#1F4168"/>
<path d="M234.05 264.27C235.42 265.35 236.58 266.69 237.53 268.16C238.5 269.62 239.24 271.24 239.71 272.94C240.18 274.63 240.45 276.4 240.34 278.15C240.35 279.03 240.19 279.89 240.07 280.76C240.02 281.19 239.87 281.61 239.77 282.03C239.66 282.45 239.54 282.87 239.42 283.29C239.53 282.42 239.75 281.58 239.82 280.72C239.88 279.86 240 279 239.94 278.14C239.94 276.42 239.67 274.71 239.21 273.07C238.76 271.42 238.06 269.84 237.19 268.36C236.97 267.99 236.73 267.63 236.5 267.27C236.25 266.92 236 266.57 235.74 266.23C235.22 265.54 234.65 264.89 234.04 264.27H234.05Z" fill="#1F4168"/>
<path d="M139.49 292.38C139.45 295.99 139.05 299.6 138.48 303.17C137.9 306.74 137.05 310.27 136.02 313.74L135.18 316.32L134.22 318.86C133.92 319.71 133.53 320.54 133.17 321.37C132.79 322.19 132.47 323.04 132.02 323.83C130.42 327.09 128.41 330.12 126.18 332.96L127.7 330.72C127.95 330.34 128.22 329.98 128.45 329.6L129.12 328.43C129.56 327.65 130.05 326.89 130.46 326.09L131.66 323.67C133.16 320.4 134.53 317.06 135.53 313.6C136.6 310.16 137.43 306.65 138.1 303.11C138.43 301.34 138.72 299.56 138.95 297.77C139.21 295.98 139.38 294.19 139.5 292.39L139.49 292.38Z" fill="#1F4168"/>
<path d="M356.12 339.07C356.61 337.5 357.07 335.93 357.46 334.34C357.87 332.76 358.24 331.16 358.57 329.56C359.23 326.35 359.76 323.12 360.09 319.87C360.48 316.62 360.55 313.35 360.5 310.08L360.39 307.63C360.36 306.81 360.23 306 360.15 305.19L360.03 303.97C359.99 303.56 359.9 303.16 359.83 302.76L359.42 300.34C360.22 303.52 360.74 306.78 360.89 310.07C360.97 310.89 360.94 311.71 360.95 312.54C360.95 313.36 360.97 314.19 360.92 315.01L360.81 317.48L360.6 319.94C360.23 323.21 359.7 326.46 358.96 329.66C358.21 332.86 357.31 336.03 356.12 339.09V339.07Z" fill="#1F4168"/>
<path d="M264.95 359.63C265.97 359.2 267.05 358.92 268.13 358.7C269.22 358.47 270.32 358.36 271.43 358.31C272.54 358.26 273.66 358.31 274.76 358.46C275.86 358.59 276.95 358.87 277.99 359.22C277.44 359.16 276.9 359.03 276.35 359L275.54 358.9L274.72 358.85C273.63 358.79 272.54 358.77 271.45 358.82C270.36 358.86 269.27 358.96 268.19 359.09C267.65 359.16 267.11 359.24 266.57 359.33C266.03 359.41 265.49 359.52 264.95 359.63Z" fill="#1F4168"/>
<path d="M248.67 494.23C251.26 495.52 253.97 496.55 256.71 497.43C259.46 498.3 262.25 499.04 265.1 499.53C267.93 500.06 270.8 500.44 273.68 500.58C276.56 500.79 279.45 500.7 282.34 500.59L280.18 500.8C279.46 500.86 278.74 500.95 278.01 500.96C276.56 501 275.11 501.05 273.66 500.98C270.76 500.92 267.87 500.54 265.01 500.04C262.15 499.51 259.34 498.76 256.59 497.81C255.22 497.33 253.87 496.8 252.54 496.22C251.22 495.61 249.91 494.99 248.67 494.24V494.23Z" fill="#1F4168"/>
<path d="M201.78 338.41C201.78 338.41 201.76 338.41 201.75 338.41C200.43 338.25 199.72 338.16 199.72 338.16C199.58 338.14 199.48 338.01 199.5 337.87C199.52 337.73 199.64 337.63 199.79 337.65C199.79 337.65 200.5 337.74 201.82 337.9C201.96 337.92 202.06 338.04 202.04 338.18C202.02 338.31 201.91 338.4 201.79 338.4L201.78 338.41Z" fill="#1F4168"/>
<path d="M269.12 343.08C268.98 343.08 268.86 342.97 268.86 342.82C268.86 342.68 268.97 342.56 269.12 342.56C270.46 342.56 271.78 342.55 273.09 342.52C273.24 342.5 273.35 342.63 273.35 342.77C273.35 342.91 273.24 343.03 273.1 343.03C271.79 343.05 270.46 343.06 269.13 343.07L269.12 343.08ZM265.15 343.06C263.83 343.04 262.51 343.02 261.18 342.99C261.04 342.99 260.93 342.87 260.93 342.73C260.93 342.59 261.03 342.47 261.19 342.48C262.52 342.51 263.84 342.53 265.16 342.55C265.3 342.55 265.41 342.67 265.41 342.81C265.41 342.95 265.29 343.06 265.15 343.06ZM277.06 342.95C276.92 342.95 276.81 342.84 276.8 342.7C276.8 342.56 276.91 342.44 277.05 342.44C278.41 342.39 279.74 342.34 281.01 342.27C281.15 342.26 281.27 342.37 281.28 342.51C281.28 342.65 281.18 342.77 281.04 342.78C279.77 342.85 278.43 342.91 277.07 342.96L277.06 342.95ZM257.2 342.89C255.88 342.85 254.55 342.8 253.23 342.74C253.09 342.74 252.98 342.61 252.98 342.47C252.98 342.33 253.12 342.23 253.25 342.22C254.57 342.27 255.9 342.32 257.22 342.37C257.36 342.37 257.47 342.49 257.47 342.63C257.47 342.77 257.35 342.88 257.21 342.88L257.2 342.89ZM249.26 342.56C249.26 342.56 249.26 342.56 249.25 342.56C247.92 342.49 246.6 342.42 245.28 342.35C245.14 342.35 245.03 342.22 245.04 342.08C245.04 341.94 245.17 341.83 245.31 341.84C246.62 341.92 247.95 341.99 249.27 342.05C249.41 342.05 249.52 342.18 249.51 342.32C249.51 342.46 249.39 342.56 249.25 342.56H249.26ZM241.33 342.11C241.33 342.11 241.32 342.11 241.31 342.11C239.98 342.02 238.65 341.93 237.34 341.84C237.2 341.84 237.09 341.71 237.1 341.57C237.1 341.43 237.23 341.32 237.37 341.33C238.68 341.42 240 341.51 241.33 341.6C241.47 341.6 241.58 341.73 241.57 341.87C241.57 342.01 241.45 342.11 241.31 342.11H241.33ZM233.4 341.55C233.4 341.55 233.39 341.55 233.38 341.55C232.04 341.45 230.72 341.34 229.42 341.23C229.28 341.22 229.17 341.1 229.19 340.95C229.2 340.81 229.32 340.71 229.47 340.72C230.77 340.83 232.09 340.93 233.43 341.04C233.57 341.05 233.68 341.17 233.67 341.31C233.66 341.44 233.55 341.55 233.42 341.55H233.4ZM225.48 340.9C225.48 340.9 225.47 340.9 225.46 340.9C224.11 340.78 222.78 340.66 221.5 340.54C221.36 340.53 221.26 340.4 221.27 340.26C221.28 340.12 221.41 340.02 221.55 340.03C222.83 340.15 224.15 340.27 225.51 340.39C225.65 340.4 225.75 340.53 225.74 340.67C225.73 340.8 225.62 340.9 225.49 340.9H225.48ZM217.57 340.16C217.57 340.16 217.55 340.16 217.54 340.16C216.16 340.02 214.84 339.89 213.59 339.76C213.45 339.75 213.35 339.62 213.36 339.48C213.37 339.34 213.5 339.24 213.64 339.25C214.89 339.38 216.21 339.51 217.59 339.65C217.73 339.66 217.83 339.79 217.82 339.93C217.81 340.06 217.7 340.16 217.57 340.16ZM209.67 339.34C209.67 339.34 209.65 339.34 209.64 339.34C208.18 339.18 206.86 339.03 205.69 338.9C205.55 338.88 205.45 338.76 205.47 338.62C205.49 338.48 205.61 338.38 205.75 338.39C206.92 338.52 208.24 338.67 209.7 338.83C209.84 338.85 209.94 338.97 209.93 339.11C209.92 339.24 209.8 339.34 209.68 339.34H209.67Z" fill="#1F4168"/>
<path d="M284.95 342.51C284.82 342.51 284.71 342.41 284.7 342.27C284.69 342.13 284.79 342.01 284.93 341.99C285.62 341.93 286.3 341.87 286.97 341.81C287.11 341.81 287.24 341.9 287.25 342.04C287.26 342.18 287.16 342.31 287.02 342.32C286.35 342.38 285.67 342.44 284.98 342.5C284.98 342.5 284.97 342.5 284.96 342.5L284.95 342.51Z" fill="#1F4168"/>
<path d="M284.86 360.36C284.86 360.36 284.83 360.36 284.82 360.36C284.68 360.34 284.59 360.2 284.61 360.06L284.96 358.04C284.98 357.9 285.12 357.8 285.26 357.83C285.4 357.85 285.49 357.99 285.47 358.13L285.12 360.15C285.1 360.27 284.99 360.36 284.87 360.36H284.86Z" fill="#1F4168"/>
<path d="M262.35 489.36C262.35 489.36 262.32 489.36 262.31 489.36C262.17 489.34 262.08 489.2 262.1 489.06L262.8 485.03C262.82 484.89 262.95 484.8 263.1 484.82C263.24 484.84 263.33 484.98 263.31 485.12L262.61 489.15C262.59 489.27 262.48 489.36 262.36 489.36H262.35ZM263.76 481.3C263.76 481.3 263.73 481.3 263.72 481.3C263.58 481.28 263.49 481.14 263.51 481L264.21 476.97C264.23 476.83 264.36 476.73 264.51 476.76C264.65 476.78 264.74 476.92 264.72 477.06L264.02 481.09C264 481.21 263.89 481.3 263.77 481.3H263.76ZM265.17 473.24C265.17 473.24 265.14 473.24 265.13 473.24C264.99 473.22 264.9 473.08 264.92 472.94L265.62 468.91C265.64 468.77 265.77 468.67 265.92 468.7C266.06 468.72 266.15 468.86 266.13 469L265.43 473.03C265.41 473.15 265.3 473.24 265.18 473.24H265.17ZM266.58 465.18C266.58 465.18 266.55 465.18 266.54 465.18C266.4 465.16 266.31 465.02 266.33 464.88L267.03 460.85C267.05 460.71 267.19 460.61 267.33 460.64C267.47 460.66 267.56 460.8 267.54 460.94L266.84 464.97C266.82 465.09 266.71 465.18 266.59 465.18H266.58ZM267.99 457.12C267.99 457.12 267.96 457.12 267.95 457.12C267.81 457.1 267.72 456.96 267.74 456.82L268.44 452.79C268.46 452.65 268.6 452.55 268.74 452.58C268.88 452.6 268.97 452.74 268.95 452.88L268.25 456.91C268.23 457.03 268.12 457.12 268 457.12H267.99ZM269.4 449.06C269.4 449.06 269.37 449.06 269.36 449.06C269.22 449.04 269.13 448.9 269.15 448.76L269.85 444.73C269.87 444.59 270 444.49 270.15 444.52C270.29 444.54 270.38 444.68 270.36 444.82L269.66 448.85C269.64 448.97 269.53 449.06 269.41 449.06H269.4ZM270.81 441C270.81 441 270.78 441 270.77 441C270.63 440.98 270.54 440.84 270.56 440.7L271.26 436.67C271.28 436.53 271.41 436.43 271.56 436.46C271.7 436.48 271.79 436.62 271.77 436.76L271.07 440.79C271.05 440.91 270.94 441 270.82 441H270.81ZM272.22 432.94C272.22 432.94 272.19 432.94 272.18 432.94C272.04 432.92 271.95 432.78 271.97 432.64L272.67 428.61C272.69 428.47 272.82 428.37 272.97 428.4C273.11 428.42 273.2 428.56 273.18 428.7L272.48 432.73C272.46 432.85 272.35 432.94 272.23 432.94H272.22ZM273.63 424.88C273.63 424.88 273.6 424.88 273.59 424.88C273.45 424.86 273.36 424.72 273.38 424.58L274.08 420.55C274.1 420.41 274.23 420.31 274.38 420.34C274.52 420.36 274.61 420.5 274.59 420.64L273.89 424.67C273.87 424.79 273.76 424.88 273.64 424.88H273.63ZM275.04 416.82C275.04 416.82 275.01 416.82 275 416.82C274.86 416.8 274.77 416.66 274.79 416.52L275.49 412.49C275.51 412.35 275.65 412.25 275.79 412.28C275.93 412.3 276.02 412.44 276 412.58L275.3 416.61C275.28 416.73 275.17 416.82 275.05 416.82H275.04ZM276.45 408.76C276.45 408.76 276.42 408.76 276.41 408.76C276.27 408.74 276.18 408.6 276.2 408.46L276.9 404.43C276.92 404.29 277.06 404.19 277.2 404.22C277.34 404.24 277.43 404.38 277.41 404.52L276.71 408.55C276.69 408.67 276.58 408.76 276.46 408.76H276.45ZM277.86 400.7C277.86 400.7 277.83 400.7 277.82 400.7C277.68 400.68 277.59 400.54 277.61 400.4L278.31 396.37C278.33 396.23 278.47 396.13 278.61 396.16C278.75 396.18 278.84 396.32 278.82 396.46L278.12 400.49C278.1 400.61 277.99 400.7 277.87 400.7H277.86ZM279.27 392.64C279.27 392.64 279.24 392.64 279.23 392.64C279.09 392.62 279 392.48 279.02 392.34L279.72 388.31C279.74 388.17 279.88 388.07 280.02 388.1C280.16 388.12 280.25 388.26 280.23 388.4L279.53 392.43C279.51 392.55 279.4 392.64 279.28 392.64H279.27ZM280.68 384.58C280.68 384.58 280.65 384.58 280.64 384.58C280.5 384.56 280.41 384.42 280.43 384.28L281.13 380.25C281.15 380.11 281.29 380.01 281.43 380.04C281.57 380.06 281.66 380.2 281.64 380.34L280.94 384.37C280.92 384.49 280.81 384.58 280.69 384.58H280.68ZM282.09 376.52C282.09 376.52 282.06 376.52 282.05 376.52C281.91 376.5 281.82 376.36 281.84 376.22L282.54 372.19C282.56 372.05 282.7 371.95 282.84 371.98C282.98 372 283.07 372.14 283.05 372.28L282.35 376.31C282.33 376.43 282.22 376.52 282.1 376.52H282.09ZM283.5 368.46C283.5 368.46 283.47 368.46 283.46 368.46C283.32 368.44 283.23 368.3 283.25 368.16L283.95 364.13C283.97 363.99 284.11 363.89 284.25 363.92C284.39 363.94 284.48 364.08 284.46 364.22L283.76 368.25C283.74 368.37 283.63 368.46 283.51 368.46H283.5Z" fill="#1F4168"/>
<path d="M261.29 495.41C261.29 495.41 261.26 495.41 261.25 495.41C261.11 495.39 261.02 495.25 261.04 495.11L261.39 493.09C261.41 492.95 261.55 492.85 261.69 492.88C261.83 492.9 261.92 493.04 261.9 493.18L261.55 495.2C261.53 495.32 261.42 495.41 261.3 495.41H261.29Z" fill="#1F4168"/>
<path d="M354.72 309.64C354.72 309.64 354.69 309.64 354.67 309.64C354.67 309.64 353.21 309.35 350.63 308.82C350.49 308.79 350.4 308.66 350.43 308.52C350.46 308.38 350.59 308.29 350.73 308.32C353.31 308.85 354.77 309.14 354.77 309.14C354.91 309.17 355 309.3 354.97 309.44C354.95 309.56 354.84 309.65 354.72 309.65V309.64ZM346.66 307.99C346.66 307.99 346.63 307.99 346.61 307.99C345.39 307.74 344.04 307.46 342.59 307.15C342.45 307.12 342.36 306.99 342.39 306.85C342.42 306.71 342.55 306.62 342.69 306.65C344.14 306.95 345.48 307.23 346.71 307.49C346.85 307.52 346.94 307.65 346.91 307.79C346.88 307.91 346.78 307.99 346.66 307.99ZM338.62 306.3C338.62 306.3 338.58 306.3 338.57 306.3C337.29 306.03 335.95 305.74 334.56 305.44C334.42 305.41 334.33 305.27 334.36 305.14C334.39 305 334.52 304.92 334.66 304.94C336.05 305.24 337.39 305.52 338.67 305.8C338.81 305.83 338.9 305.97 338.87 306.1C338.84 306.22 338.74 306.3 338.62 306.3ZM330.6 304.58C330.6 304.58 330.56 304.58 330.55 304.58C329.25 304.3 327.91 304.01 326.54 303.71C326.4 303.68 326.31 303.54 326.34 303.41C326.37 303.27 326.51 303.18 326.64 303.21C328.01 303.51 329.34 303.8 330.65 304.08C330.79 304.11 330.88 304.25 330.85 304.38C330.82 304.5 330.72 304.58 330.6 304.58ZM322.59 302.83C322.59 302.83 322.55 302.83 322.53 302.83C321.22 302.54 319.88 302.24 318.53 301.94C318.39 301.91 318.31 301.77 318.34 301.63C318.37 301.49 318.51 301.41 318.65 301.44C320 301.74 321.34 302.04 322.65 302.33C322.79 302.36 322.88 302.5 322.84 302.63C322.81 302.75 322.71 302.83 322.59 302.83ZM314.59 301.04C314.59 301.04 314.55 301.04 314.53 301.04C313.21 300.74 311.87 300.44 310.53 300.13C310.39 300.1 310.31 299.96 310.34 299.82C310.37 299.68 310.51 299.6 310.65 299.63C311.99 299.94 313.33 300.24 314.65 300.54C314.79 300.57 314.87 300.71 314.84 300.85C314.81 300.97 314.71 301.05 314.59 301.05V301.04ZM306.59 299.21C306.59 299.21 306.55 299.21 306.53 299.21C305.2 298.9 303.87 298.59 302.54 298.28C302.4 298.25 302.32 298.11 302.35 297.97C302.38 297.83 302.52 297.75 302.66 297.78C304 298.09 305.33 298.4 306.65 298.71C306.79 298.74 306.87 298.88 306.84 299.02C306.81 299.14 306.71 299.22 306.59 299.22V299.21ZM298.61 297.34C298.61 297.34 298.57 297.34 298.55 297.34C297.22 297.02 295.89 296.7 294.56 296.38C294.42 296.35 294.34 296.21 294.37 296.07C294.4 295.93 294.54 295.85 294.68 295.88C296.01 296.2 297.34 296.52 298.67 296.84C298.81 296.87 298.89 297.01 298.86 297.15C298.83 297.27 298.73 297.35 298.61 297.35V297.34ZM290.63 295.42C290.63 295.42 290.59 295.42 290.57 295.42C289.24 295.09 287.91 294.76 286.59 294.44C286.45 294.41 286.37 294.27 286.4 294.13C286.43 293.99 286.57 293.91 286.71 293.94C288.03 294.27 289.36 294.6 290.69 294.92C290.83 294.95 290.91 295.09 290.88 295.23C290.85 295.35 290.75 295.42 290.63 295.42ZM282.67 293.43C282.67 293.43 282.63 293.43 282.61 293.43C281.27 293.09 279.95 292.75 278.64 292.41C278.5 292.37 278.42 292.23 278.46 292.1C278.5 291.96 278.64 291.88 278.77 291.92C280.08 292.26 281.4 292.6 282.74 292.94C282.88 292.98 282.96 293.11 282.92 293.25C282.89 293.37 282.79 293.44 282.67 293.44V293.43ZM274.73 291.36C274.73 291.36 274.69 291.36 274.66 291.36C273.32 291 272 290.64 270.7 290.29C270.56 290.25 270.48 290.11 270.52 289.98C270.56 289.84 270.7 289.76 270.83 289.8C272.13 290.16 273.45 290.51 274.79 290.87C274.93 290.91 275.01 291.05 274.97 291.18C274.94 291.29 274.84 291.37 274.72 291.37L274.73 291.36ZM266.82 289.19C266.82 289.19 266.77 289.19 266.75 289.19C265.4 288.81 264.09 288.43 262.81 288.05C262.67 288.01 262.6 287.87 262.64 287.73C262.68 287.59 262.82 287.52 262.96 287.56C264.24 287.94 265.55 288.32 266.9 288.7C267.04 288.74 267.11 288.88 267.08 289.02C267.05 289.13 266.95 289.21 266.83 289.21L266.82 289.19ZM258.95 286.86C258.95 286.86 258.9 286.86 258.87 286.85C257.49 286.42 256.17 286 254.96 285.6C254.83 285.56 254.75 285.41 254.8 285.28C254.84 285.15 254.99 285.07 255.12 285.12C256.33 285.52 257.64 285.94 259.02 286.37C259.15 286.41 259.23 286.56 259.19 286.69C259.16 286.8 259.05 286.87 258.95 286.87V286.86Z" fill="#1F4168"/>
<path d="M141.81 145.32C141.81 145.32 141.69 141.5 138.4 140.99C135.11 140.48 135.26 147.12 135.85 148.9C135.85 148.9 133.48 144.37 128.9 145.7L127.4 138.47C127.4 138.47 127.7 135.56 127.51 133.17C127.51 133.17 131.37 126.82 128.85 123.05C128.09 121.91 126.36 122.11 125.91 123.4L124.29 128.02C124.29 128.02 118.96 136.57 120.93 145.27C121.15 146.25 121.12 147.28 120.83 148.24L119.5 148.79C118.1 149.37 117.01 150.47 116.32 151.81C115.88 152.66 115.26 153.41 114.5 154L114.14 154.28C112.93 155.23 112.08 156.57 111.75 158.07L111.54 159.01L109.81 164.08C109.27 165.67 109.28 167.39 109.85 168.97C110.77 171.52 112.46 175.61 114.93 179.4C115.89 180.87 116.12 182.7 115.54 184.36C115.2 185.34 114.59 186.21 113.78 186.86L77.6 216.31C77.6 216.31 78.91 244.14 98.14 252.17L123.92 208.58C128.97 200.05 132.97 190.95 135.85 181.46C135.85 181.46 143.61 170.84 144.01 159.35C144.01 159.35 147.47 148.68 141.81 145.32Z" fill="#FFC89F"/>
<path d="M127.38 138.46C127.4 137.58 127.41 136.69 127.41 135.81C127.4 134.93 127.38 134.05 127.3 133.18V133.12L127.33 133.05C128.08 131.67 128.74 130.21 129.21 128.69C129.42 127.93 129.6 127.14 129.62 126.35C129.64 126.15 129.62 125.95 129.61 125.76C129.6 125.56 129.59 125.36 129.55 125.17L129.44 124.59L129.24 124.03C129.18 123.84 129.08 123.67 128.98 123.51C128.87 123.35 128.8 123.16 128.67 123.02C128.44 122.73 128.09 122.55 127.74 122.5C127.39 122.45 127.01 122.53 126.72 122.72C126.42 122.91 126.22 123.2 126.12 123.55C125.61 125.07 125.1 126.59 124.56 128.1V128.13L124.53 128.15C124.19 128.7 123.88 129.29 123.57 129.88C123.27 130.47 122.98 131.07 122.72 131.68C122.18 132.89 121.72 134.14 121.3 135.41H121.25C121.51 134.08 121.88 132.79 122.35 131.53C122.83 130.27 123.37 129.04 124.06 127.86L124.03 127.91C124.55 126.39 125.11 124.89 125.66 123.38C125.79 122.97 126.1 122.57 126.49 122.35C126.88 122.12 127.35 122.05 127.79 122.14C128.22 122.23 128.62 122.48 128.87 122.84C129.01 123.01 129.07 123.2 129.17 123.38C129.26 123.56 129.36 123.74 129.41 123.94C129.97 125.5 129.79 127.17 129.48 128.75C129.12 130.33 128.54 131.87 127.68 133.26L127.71 133.13C127.77 134.02 127.76 134.91 127.71 135.8C127.66 136.69 127.57 137.57 127.42 138.44H127.37L127.38 138.46Z" fill="#FF9A6C"/>
<path d="M135.64 149.04C135.43 148.75 135.24 148.47 135.09 148.2L135.51 147.91C135.86 148.38 136.05 148.72 136.07 148.76L135.64 149.03V149.04Z" fill="#FFC89F"/>
<path d="M142.56 172.92L123.41 112.85L126.14 111.98L145.28 172.06L144.48 174.35L142.56 172.92Z" fill="#1F4168"/>
<path d="M135.44 162.93L134.57 166.04L134.36 168.26C134.18 170.12 131.9 170.88 130.63 169.52C129.39 168.19 129.16 166.82 129.16 166.82C125.77 167.68 122.57 164.34 122.57 164.34L118.6 163.93C116.05 168.43 110.36 170.33 110.36 170.33C110.17 169.84 110 169.39 109.85 168.97C109.28 167.39 109.27 165.67 109.81 164.08L111.54 159.01L111.75 158.07C112.09 156.57 112.93 155.23 114.15 154.28L114.51 154C115.27 153.41 115.89 152.66 116.33 151.8C117.04 150.41 118.23 149.31 119.68 148.71L120.84 148.23L128.92 145.68C132.23 144.72 134.39 146.82 135.33 148.06C135.49 148.32 135.67 148.6 135.87 148.88C137.29 150.86 138.9 152.69 140.1 153.98C141.24 155.2 141.77 156.84 141.63 158.5C141.43 160.84 141.5 163.22 141.62 164.95C141.72 166.42 140.28 167.5 138.89 167.03C135.45 165.86 135.46 162.91 135.46 162.91L135.44 162.93Z" fill="#FFC89F"/>
<path d="M129.17 166.84C127.84 167.37 126.28 167.07 125.05 166.39C124.43 166.04 123.89 165.59 123.35 165.14C123.07 164.93 122.84 164.65 122.54 164.52C122.25 164.37 121.91 164.4 121.56 164.38C120.87 164.36 120.17 164.32 119.49 164.27C119.2 164.25 118.91 164.34 118.68 164.51C118.56 164.6 118.46 164.69 118.38 164.81C118.29 164.93 118.18 165.1 118.08 165.23C117.21 166.35 116.11 167.27 114.9 167.95L114.87 167.91C115.89 166.97 116.86 166 117.65 164.9L117.95 164.48C118.07 164.32 118.22 164.18 118.39 164.07C118.73 163.85 119.14 163.75 119.54 163.79C120.24 163.87 120.91 163.98 121.6 164.1L122.12 164.18C122.3 164.22 122.48 164.28 122.64 164.36C122.8 164.44 122.95 164.57 123.07 164.68C123.2 164.8 123.33 164.9 123.47 165.01C124.02 165.42 124.64 165.74 125.25 166.01C126.47 166.58 127.78 166.96 129.16 166.79V166.84H129.17Z" fill="#FF9A6C"/>
<path d="M129.15 166.8C129.97 166.44 130.33 165.47 130.04 164.73C129.98 164.54 129.87 164.38 129.74 164.23C129.62 164.08 129.45 163.98 129.27 163.84C128.91 163.58 128.55 163.3 128.22 163C127.56 162.39 126.95 161.72 126.42 160.99C126.16 160.64 125.82 160.36 125.44 160.14C125.07 159.93 124.62 159.82 124.21 159.65C123.37 159.36 122.53 159.05 121.7 158.73L120.45 158.25L119.83 158.01C119.64 157.94 119.44 157.88 119.24 157.84C118.84 157.76 118.42 157.76 118.01 157.82C117.61 157.88 117.19 158.05 116.76 158.17C115.91 158.43 115.05 158.68 114.18 158.9L114.16 158.85C114.97 158.47 115.79 158.13 116.62 157.79C117.04 157.64 117.43 157.44 117.91 157.33C118.37 157.22 118.86 157.22 119.33 157.3C119.57 157.34 119.8 157.41 120.02 157.5C120.24 157.59 120.43 157.67 120.64 157.76L121.87 158.29C122.69 158.64 123.5 159.01 124.3 159.4C124.7 159.59 125.11 159.76 125.51 159.99C125.9 160.23 126.24 160.54 126.53 160.89C127.08 161.58 127.78 162.14 128.48 162.67L129.53 163.48C129.69 163.61 129.91 163.75 130.07 163.95C130.23 164.14 130.35 164.37 130.42 164.61C130.57 165.09 130.49 165.61 130.26 166.03C130.04 166.46 129.61 166.75 129.17 166.86L129.15 166.81V166.8Z" fill="#FF9A6C"/>
<path d="M135.44 162.93C135.25 163.99 135 165.04 134.75 166.09V166.06C134.74 166.49 134.71 166.92 134.68 167.35C134.64 167.79 134.65 168.18 134.55 168.67C134.34 169.62 133.46 170.34 132.51 170.44C132.04 170.49 131.55 170.4 131.13 170.17C130.71 169.94 130.41 169.57 130.16 169.22C129.64 168.51 129.28 167.68 129.16 166.83C129.42 167.65 129.88 168.38 130.41 169.02C130.69 169.34 130.97 169.63 131.32 169.79C131.67 169.96 132.06 170.02 132.44 169.96C133.2 169.86 133.87 169.29 134.06 168.55L134.11 168.27L134.15 167.95L134.22 167.31C134.27 166.88 134.32 166.46 134.38 166.03V166C134.71 164.97 135.05 163.95 135.44 162.94V162.93Z" fill="#FF9A6C"/>
<path d="M135.42 162.92C135.49 162.65 135.57 162.38 135.63 162.12C135.69 161.85 135.73 161.58 135.75 161.32C135.8 160.78 135.73 160.24 135.6 159.73C135.47 159.22 135.26 158.72 134.97 158.28C134.68 157.85 134.32 157.39 134.02 156.93C133.41 156 132.85 155.03 132.3 154.07C131.82 153.07 131.03 152.24 130.03 151.81C129.53 151.58 129.03 151.48 128.47 151.38L126.84 151.07L125.21 150.75L124.4 150.58C124.13 150.53 123.85 150.45 123.62 150.43C123.38 150.41 123.13 150.43 122.89 150.5C122.67 150.57 122.39 150.69 122.14 150.78L120.58 151.37C119.54 151.75 118.49 152.13 117.44 152.47L117.42 152.42C118.41 151.92 119.42 151.45 120.43 150.99L121.95 150.31C122.21 150.2 122.43 150.08 122.74 149.98C123.04 149.89 123.35 149.85 123.66 149.87C123.98 149.9 124.24 149.98 124.51 150.03L125.32 150.21L126.94 150.58L128.56 150.96C129.09 151.07 129.67 151.26 130.16 151.53C130.66 151.8 131.11 152.17 131.49 152.58C131.88 152.98 132.17 153.49 132.44 153.96C133.02 154.9 133.69 155.78 134.36 156.66C134.69 157.11 135.03 157.52 135.35 158.02C135.66 158.51 135.87 159.06 135.98 159.63C136.09 160.2 136.1 160.78 136.01 161.34C135.93 161.91 135.69 162.43 135.47 162.93L135.42 162.91V162.92Z" fill="#FF9A6C"/>
<path d="M128.89 145.67C129.47 145.47 130.08 145.35 130.7 145.34C131.32 145.34 131.95 145.45 132.54 145.67C133.13 145.88 133.68 146.22 134.17 146.6C134.66 146.99 135.1 147.44 135.48 147.94L135.49 147.96L136.01 148.76V148.78L136.03 148.8C136.06 148.85 136.06 148.92 136.04 148.97L136.01 148.77C137.33 150.66 138.73 152.49 140.33 154.17C141.09 155.07 141.59 156.18 141.75 157.36C141.84 157.95 141.8 158.56 141.76 159.12C141.73 159.69 141.72 160.27 141.72 160.84C141.71 161.99 141.75 163.14 141.82 164.29C141.83 164.59 141.87 164.84 141.86 165.18C141.85 165.51 141.77 165.83 141.62 166.13C141.33 166.72 140.77 167.16 140.15 167.32C139.84 167.41 139.5 167.42 139.19 167.36C138.86 167.31 138.59 167.17 138.32 167.06C137.78 166.81 137.25 166.51 136.82 166.08C136.39 165.67 136.03 165.18 135.78 164.64C135.54 164.1 135.4 163.52 135.4 162.93H135.45C135.58 164.07 136.19 165.12 137.04 165.83C137.47 166.19 137.97 166.45 138.48 166.67C139.01 166.9 139.51 167.01 140.01 166.84C140.49 166.69 140.92 166.35 141.13 165.89C141.24 165.66 141.29 165.42 141.31 165.17C141.31 164.93 141.28 164.61 141.27 164.33C141.21 163.17 141.21 162.01 141.24 160.84C141.26 160.26 141.29 159.68 141.34 159.1C141.39 158.51 141.47 157.96 141.42 157.4C141.34 156.28 140.93 155.16 140.19 154.29C138.65 152.58 137.02 150.91 135.64 149.03L135.61 148.83C135.61 148.83 135.59 148.95 135.61 148.99L135.63 149.02L135.07 148.19V148.21C134.73 147.74 134.33 147.3 133.87 146.92C133.42 146.54 132.91 146.23 132.37 145.99C131.83 145.76 131.25 145.6 130.65 145.57C130.05 145.52 129.45 145.6 128.86 145.71V145.66L128.89 145.67Z" fill="#FF9A6C"/>
<path d="M120.83 148.24C122.12 147.62 123.45 147.15 124.79 146.72C126.14 146.3 127.5 145.92 128.9 145.69C127.62 146.31 126.28 146.78 124.94 147.21C123.59 147.63 122.23 148.01 120.83 148.24Z" fill="#FF9A6C"/>
<path d="M128.92 163.3C128.82 162.74 128.8 162.18 128.81 161.63C128.81 161.35 128.83 161.07 128.86 160.8C128.88 160.52 128.94 160.25 129 159.97L129.06 160.12C128.8 159.87 128.55 159.6 128.27 159.36C127.99 159.12 127.7 158.9 127.4 158.7L126.49 158.09C126.19 157.88 125.9 157.66 125.61 157.44L125.86 157.48C125.26 157.74 124.65 157.96 124.03 158.16C123.41 158.35 122.78 158.53 122.13 158.66L122.11 158.61C122.68 158.27 123.26 157.99 123.86 157.72C124.45 157.45 125.06 157.2 125.67 157L125.82 156.95L125.92 157.04C126.19 157.28 126.47 157.51 126.74 157.76L127.53 158.52C127.79 158.78 128.07 159.01 128.36 159.23C128.65 159.45 128.96 159.64 129.27 159.84L129.33 159.88V159.99C129.33 160.27 129.33 160.54 129.31 160.82C129.29 161.09 129.26 161.37 129.23 161.64C129.17 162.19 129.09 162.74 128.97 163.29H128.92V163.3Z" fill="#FF9A6C"/>
<path d="M119.01 167.82C120.06 168.42 121.02 169.17 121.92 169.98C122.82 170.79 123.63 171.71 124.36 172.69C125.09 173.67 125.7 174.74 126.17 175.86C126.66 176.98 126.94 178.18 127.09 179.37C126.88 178.8 126.78 178.21 126.52 177.66C126.41 177.38 126.31 177.1 126.2 176.83L125.81 176.02C125.26 174.97 124.67 173.93 123.94 172.99C123.24 172.03 122.46 171.13 121.64 170.26C121.23 169.83 120.8 169.41 120.36 169.01C119.93 168.59 119.47 168.21 119 167.82H119.01Z" fill="#FF9A6C"/>
<path d="M131.68 170.14C131.45 170.52 131.26 170.91 131.11 171.31C130.94 171.71 130.81 172.12 130.67 172.53C130.41 173.36 130.22 174.2 130.07 175.05C129.9 175.9 129.82 176.76 129.72 177.62L129.61 178.92C129.58 179.36 129.56 179.79 129.51 180.23C129.44 179.79 129.41 179.36 129.36 178.92C129.34 178.48 129.32 178.04 129.32 177.6C129.34 176.72 129.4 175.83 129.57 174.96C129.73 174.09 129.96 173.22 130.3 172.4C130.64 171.58 131.07 170.78 131.69 170.14H131.68Z" fill="#FF9A6C"/>
<path d="M116.32 183.12C116.68 183.77 117.08 184.39 117.48 185C117.89 185.6 118.33 186.18 118.81 186.73C119.28 187.28 119.82 187.76 120.38 188.22C120.95 188.67 121.58 189.03 122.25 189.37C121.52 189.22 120.79 188.96 120.15 188.55C119.51 188.14 118.93 187.64 118.43 187.07C117.44 185.92 116.69 184.58 116.32 183.12Z" fill="#FF9A6C"/>
</g>
<defs>
<clipPath id="clip0_1_1732">
<rect width="444.1" height="569.68" fill="white"/>
</clipPath>
</defs>
</svg>
