<svg width="1626" height="1431" viewBox="0 0 1626 1431" fill="none" xmlns="http://www.w3.org/2000/svg">
<g opacity="0.5">
<g opacity="0.15">
<path d="M1190.38 950.71C1185.75 961.72 1178.29 967.64 1166.55 969.01C1173.22 972.2 1178.16 976.37 1180.85 982.7C1183.53 988.99 1183.68 995.35 1181.24 1001.75C1177.41 1011.81 1167.26 1018.08 1155.73 1017.51C1145.41 1017 1136.88 1008.97 1133.47 996.79C1130.49 999.94 1127.81 1003.74 1124.22 1006.29C1120.61 1008.85 1116.11 1010.16 1112.06 1011.99C1117.56 1014.68 1122.27 1019.09 1124.7 1025.51C1127.18 1032.05 1126.96 1038.55 1123.9 1044.87C1119.01 1054.96 1107.81 1060.35 1096.78 1057.97C1085.96 1055.63 1078.17 1046.04 1077.78 1034.58C1077.37 1022.65 1085.02 1013.94 1099.91 1009.7C1091.12 1005.68 1085.69 999.16 1083.57 989.12C1078.66 997.69 1071.93 1002.77 1061.82 1004.16C1068.53 1007.64 1073.13 1012.17 1075.44 1018.7C1077.73 1025.18 1077.34 1031.55 1074.37 1037.71C1069.5 1047.79 1058.56 1052.98 1047.21 1050.72C1036.64 1048.62 1028.64 1039.06 1028.07 1027.85C1027.46 1015.83 1034.92 1006.86 1049.67 1002.33C1040.56 997.86 1035.24 990.83 1033.63 980.51C1028.47 990.66 1020.55 995.79 1009.07 996.23C1022.91 1001.84 1029.38 1013.4 1026.04 1025.59C1022.74 1037.67 1011.35 1045.21 999.26 1043.32C986.94 1041.39 978.45 1030.77 979.02 1017.99C979.56 1005.8 989.32 996.62 1003.59 995.51C992.23 991.26 985.91 983.59 984.63 970.89C981.55 978.03 977.44 982.94 971.16 985.68C964.74 988.48 958.27 988.58 951.78 985.88C941.32 981.52 935.22 969.82 937.56 958.63C939.91 947.42 949.71 939.53 961.52 939.36C973.68 939.18 982.64 947.66 985.92 962.94C989.64 953.73 996.02 948.09 1006.15 945.67C997.84 941.02 992.86 934.72 991.06 925.97C979.48 938.81 969.18 941.96 957.74 936.35C947.88 931.52 942.27 920.86 943.96 910.15C945.81 898.4 954.71 890.57 968.86 888.84C955.09 882.68 948.38 872.68 951.82 858.14C954.54 846.68 962.93 840.71 974.59 839.26C959.81 828.34 955.84 819.77 959.87 807.57C963.03 798 972.84 790.91 982.8 791C995.36 791.11 1003.29 797.88 1007.86 812.38C1016.07 800.96 1019.64 798.49 1031.54 796.68C1023.91 793.38 1018.79 788.67 1016.27 781.63C1013.72 774.47 1014.33 767.49 1018.11 760.89C1023.69 751.13 1034.78 746.71 1046.06 749.64C1056.1 752.24 1063.85 762.36 1063.83 772.83C1063.8 785.71 1056.5 793.81 1040.48 798.19C1049.35 801.93 1054.91 808.15 1057.44 817.66C1062.3 809.5 1069.02 804.85 1077.98 803.23C1066.22 795.19 1061.3 784.05 1064.82 773.9C1069.04 761.73 1078.82 754.87 1090.87 755.64C1103.15 756.42 1110.96 764.87 1114.31 781.53C1116.6 775 1120.06 770.02 1125.55 766.7C1131.04 763.38 1136.99 762.23 1143.23 763.53C1155.12 766 1162.28 774.88 1163.51 789.5C1166.48 781.41 1170.79 775.84 1177.83 772.92C1185.02 769.94 1192.11 770.26 1198.94 773.98C1208.36 779.11 1213.41 790.66 1210.73 800.65C1207.57 812.41 1197.71 819.61 1185.41 819.13C1173.81 818.68 1165.82 810.07 1162.66 794.06C1159.03 804.43 1152.25 810.53 1141.14 812.6C1149.84 816.98 1155.24 823.32 1157.34 832.77C1165.76 820.7 1176.54 816.26 1190.19 821.7C1199.55 825.43 1205.59 835.5 1205.12 845.39C1204.56 857.29 1197.73 865.37 1184.91 869.48C1188 872.58 1191.72 875.36 1194.15 879C1196.6 882.68 1197.78 887.21 1199.56 891.47C1202.45 885.42 1206.99 880.35 1213.88 877.89C1220.76 875.43 1227.47 875.88 1233.92 879.35C1243.97 884.76 1248.8 896.16 1245.83 907.36C1243.06 917.8 1232.71 925.52 1221.89 925.19C1209.36 924.81 1200.77 916.81 1197.58 901.87C1193.47 911.49 1186.69 917.21 1176.33 919.41C1185.63 924.67 1190.53 932.01 1191.62 942.06C1195.27 934.69 1200.4 929.33 1208.27 927.06C1213.88 925.44 1219.36 925.81 1224.71 928.1C1235.29 932.64 1241.23 944.45 1238.66 955.83C1236.16 966.92 1225.89 974.87 1214.34 974.66C1202.12 974.44 1193.15 965.85 1190.35 950.68L1190.38 950.71ZM1092.55 805.34C1100.59 809.44 1105.57 815.52 1108 824.2C1112.95 816.52 1119.66 812.34 1128.76 810.79C1118.67 805.58 1114.03 797.77 1113.21 787.33C1109.69 797.16 1102.91 802.94 1092.55 805.34ZM983.45 840.43C992.79 844.08 997.87 850.14 1000.63 859.06C1004.95 851.72 1010.79 847.32 1018.71 845.08C1011.29 840.23 1007.46 833.68 1006.01 825.01C1001.38 834.42 994.22 839.18 983.46 840.44L983.45 840.43ZM997.93 876.54C992.54 885.12 985.23 888.96 976.15 889.92C985.22 893.42 990.65 899.82 993.31 909.4C997.37 902.05 1003.06 897.53 1011.11 895.08C1004.04 890.59 1000.09 884.68 997.94 876.54H997.93ZM1135.43 982.3C1139.98 973.53 1147.04 968.97 1157 967.6C1148.64 964.21 1143.51 958.64 1140.46 950.37C1136.01 957.11 1130.21 961.12 1122.76 963.13C1130.4 969.21 1131.6 971.03 1135.43 982.29V982.3ZM1022.54 948.78C1029.57 952.73 1033.83 959.28 1035.43 968.43C1038.96 960.68 1044.47 955.89 1051.58 953.26C1048.88 950.5 1046.26 948.3 1044.24 945.64C1042.25 943.02 1040.87 939.94 1039.77 938.02C1034.04 941.6 1028.33 945.16 1022.53 948.78H1022.54ZM1090.06 946.74C1085.45 949.91 1080.32 953.45 1075.06 957.08C1080.54 961.01 1084.05 966.87 1085.69 974.79C1089.73 966.97 1095.35 962.73 1101.74 960.62C1097.72 955.84 1093.75 951.12 1090.06 946.74ZM1151.46 876.73C1156.78 873.47 1162.29 870.09 1167.73 866.76C1161.42 863.25 1157.05 857.45 1155.44 850.7C1150.6 854.91 1145.72 859.16 1141.46 862.86C1144.81 867.5 1148.4 872.49 1151.46 876.73ZM1160.21 917.7C1155.85 912.72 1151.52 907.77 1147.61 903.3C1143.35 906.59 1138.6 910.25 1134.47 913.44C1137.62 918.08 1140.98 923.02 1144.37 928.02C1148.36 922.48 1154.01 918.99 1160.21 917.69V917.7ZM1039.28 847.67C1043.04 852.06 1046.85 856.52 1048.94 858.95C1053.42 855.71 1058.01 852.4 1062.18 849.39C1060.31 846.24 1057.3 841.18 1054.29 836.11C1050.88 841.54 1045.67 845.84 1039.29 847.68L1039.28 847.67ZM1046.09 889.61C1041.56 892.53 1036.74 895.63 1032.69 898.23C1036.13 902.58 1039.84 907.27 1043.27 911.61C1046.9 908.59 1051.04 905.15 1054.77 902.05C1051.87 897.9 1048.86 893.59 1046.09 889.61ZM1114.17 859.03C1111.06 854.32 1107.81 849.42 1104.88 844.99C1101.27 848.15 1097.03 851.87 1094.71 853.9C1097.27 858.07 1100.03 862.55 1102.61 866.74C1106.14 864.38 1110.31 861.6 1114.17 859.03ZM1093.16 916.73C1097.03 913.89 1101.28 910.78 1105.22 907.9C1103.54 905.81 1100.42 901.92 1098.43 899.44C1094.58 902.21 1090.66 905.02 1086.97 907.66C1088.98 910.6 1091.73 914.64 1093.16 916.73Z" fill="#075AB7"/>
<path d="M1253.19 856.01C1250.79 869.07 1238.31 877.95 1225.6 875.65C1212.55 873.29 1203.63 860.86 1205.85 848.12C1208.14 834.94 1220.84 825.92 1233.69 828.35C1246.78 830.83 1255.54 843.24 1253.19 856.01Z" fill="#075AB7"/>
<path d="M1174.24 1045.08C1172.26 1058.05 1160.39 1066.77 1147.38 1064.82C1134.24 1062.85 1125.49 1050.85 1127.58 1037.66C1129.63 1024.73 1141.57 1016.11 1154.6 1018.14C1167.55 1020.15 1176.22 1032.06 1174.23 1045.08H1174.24Z" fill="#075AB7"/>
<path d="M1184.37 996.29C1186.37 983.34 1198.26 974.65 1211.28 976.62C1224.41 978.61 1233.12 990.64 1231 1003.84C1228.93 1016.74 1216.96 1025.34 1203.92 1023.29C1190.99 1021.25 1182.35 1009.33 1184.36 996.29H1184.37Z" fill="#075AB7"/>
<path d="M923.06 880.42C910.04 878.55 901.16 866.75 903.02 853.79C904.89 840.77 916.69 831.89 929.65 833.75C942.67 835.62 951.55 847.42 949.69 860.38C947.82 873.4 936.02 882.28 923.06 880.42Z" fill="#075AB7"/>
<path d="M1013.76 769.62C1011.79 782.55 999.85 791.27 986.85 789.29C973.91 787.32 965.2 775.38 967.18 762.38C969.16 749.45 981.09 740.73 994.09 742.71C1007.03 744.68 1015.74 756.62 1013.76 769.62Z" fill="#075AB7"/>
<path d="M915.78 929.94C902.84 928.11 893.88 916.14 895.79 903.23C897.68 890.48 909.54 881.6 922.28 883.41C935.22 885.24 944.18 897.21 942.27 910.12C940.38 922.87 928.52 931.75 915.78 929.94Z" fill="#075AB7"/>
<path d="M1119.37 734.59C1117.39 747.26 1105.34 756.06 1092.65 754.13C1079.82 752.17 1070.95 739.94 1073.06 727.1C1075.14 714.46 1087.26 705.75 1099.95 707.79C1112.61 709.82 1121.36 721.9 1119.38 734.59H1119.37Z" fill="#075AB7"/>
<path d="M1142.24 761.34C1129.6 759.37 1120.69 747.17 1122.73 734.61C1124.78 721.96 1137.01 713.11 1149.55 715.21C1162.06 717.31 1170.77 729.25 1168.9 741.72C1167 754.35 1154.84 763.31 1142.25 761.34H1142.24Z" fill="#075AB7"/>
<path d="M930.29 831.31C917.77 829.57 908.82 817.72 910.49 805.09C912.17 792.45 924.37 783.32 937.02 785.24C949.57 787.14 958.42 799.08 956.59 811.63C954.77 824.17 942.88 833.06 930.28 831.31H930.29Z" fill="#075AB7"/>
<path d="M976.93 1016.36C974.56 1029.03 962.47 1037.55 950.13 1035.25C937.46 1032.88 928.94 1020.79 931.24 1008.45C933.61 995.78 945.69 987.26 958.04 989.56C970.71 991.93 979.23 1004.01 976.93 1016.36Z" fill="#075AB7"/>
<path d="M1023.88 719.72C1026.12 707.03 1038.06 698.62 1050.6 700.9C1063.29 703.2 1071.64 715.17 1069.31 727.7C1066.97 740.24 1055.25 748.5 1042.82 746.37C1030.13 744.19 1021.67 732.29 1023.88 719.73V719.72Z" fill="#075AB7"/>
<path d="M1214.06 798.99C1215.95 786.31 1227.72 777.63 1240.37 779.59C1253.05 781.55 1261.68 793.35 1259.66 805.98C1257.66 818.52 1246.13 827.02 1233.58 825.22C1220.91 823.4 1212.17 811.66 1214.07 799L1214.06 798.99Z" fill="#075AB7"/>
<path d="M908.33 978.9C895.72 977.02 887.22 965.6 889.05 952.99C890.91 940.21 902.49 931.67 915.27 933.66C927.84 935.62 936.25 947.11 934.32 959.74C932.4 972.33 920.94 980.78 908.33 978.91V978.9Z" fill="#075AB7"/>
<path d="M1268.62 930.69C1256 928.83 1247.5 917.4 1249.36 904.79C1251.22 892.18 1262.65 883.67 1275.26 885.53C1287.87 887.39 1296.38 898.82 1294.52 911.43C1292.66 924.04 1281.23 932.55 1268.62 930.69Z" fill="#075AB7"/>
<path d="M1242.07 954.44C1243.9 941.85 1255.38 933.3 1267.97 935.17C1280.54 937.04 1289.03 948.55 1287.13 961.15C1285.26 973.54 1273.85 982.02 1261.46 980.25C1248.84 978.45 1240.25 967.01 1242.08 954.44H1242.07Z" fill="#075AB7"/>
<path d="M1172.11 741.96C1174.03 729.43 1185.6 721.02 1198.22 722.98C1210.72 724.93 1219.09 736.54 1217.08 749.17C1215.12 761.5 1203.63 769.85 1191.19 767.98C1178.63 766.09 1170.17 754.56 1172.1 741.95L1172.11 741.96Z" fill="#075AB7"/>
<path d="M1022.67 1073.01C1024.59 1060.48 1036.16 1052.07 1048.78 1054.03C1061.28 1055.98 1069.65 1067.59 1067.64 1080.22C1065.69 1092.55 1054.19 1100.9 1041.75 1099.03C1029.19 1097.14 1020.73 1085.61 1022.66 1073L1022.67 1073.01Z" fill="#075AB7"/>
<path d="M1197.33 1071.3C1184.76 1069.5 1176.14 1057.97 1178.01 1045.44C1179.85 1033.07 1191.29 1024.52 1203.65 1026.28C1216.22 1028.08 1224.84 1039.61 1222.97 1052.14C1221.13 1064.51 1209.69 1073.06 1197.33 1071.3Z" fill="#075AB7"/>
<path d="M1117.23 1087.3C1115.33 1099.8 1103.68 1108.26 1091.11 1106.28C1078.82 1104.34 1070.41 1092.78 1072.3 1080.38C1074.2 1067.88 1085.85 1059.42 1098.42 1061.4C1110.71 1063.34 1119.12 1074.9 1117.23 1087.3Z" fill="#075AB7"/>
<path d="M1256.79 855.96C1258.62 843.72 1270.37 835.06 1282.58 836.95C1294.82 838.85 1303.43 850.64 1301.48 862.82C1299.54 874.91 1288.02 883.41 1275.91 881.66C1263.67 879.89 1254.96 868.18 1256.79 855.95V855.96Z" fill="#075AB7"/>
<path d="M992.26 1091.56C980.03 1089.74 971.36 1077.99 973.24 1065.78C975.13 1053.54 986.91 1044.92 999.1 1046.87C1011.19 1048.8 1019.7 1060.32 1017.96 1072.43C1016.2 1084.67 1004.5 1093.38 992.26 1091.56Z" fill="#075AB7"/>
<path d="M937.45 780.95C925.2 779.03 916.58 767.16 918.64 755.05C920.69 742.93 932.29 734.51 944.32 736.4C956.57 738.32 965.19 750.19 963.13 762.3C961.08 774.42 949.48 782.84 937.45 780.95Z" fill="#075AB7"/>
<path d="M994.59 738.63C982.46 736.91 973.83 725.37 975.56 713.2C977.28 701.07 988.82 692.44 1000.99 694.17C1013.12 695.89 1021.75 707.43 1020.02 719.6C1018.3 731.73 1006.76 740.36 994.59 738.63Z" fill="#075AB7"/>
<path d="M1254 1029.39C1241.77 1027.56 1233.31 1016.08 1235.21 1003.9C1237.12 991.66 1248.63 983.25 1260.78 985.22C1272.88 987.18 1281.14 998.38 1279.41 1010.49C1277.66 1022.71 1266.22 1031.22 1254 1029.39Z" fill="#075AB7"/>
<path d="M1140.32 1113.03C1128 1111.2 1119.69 1099.89 1121.63 1087.6C1123.55 1075.44 1134.67 1067.27 1146.84 1069.08C1159.16 1070.91 1167.47 1082.22 1165.53 1094.51C1163.61 1106.67 1152.49 1114.84 1140.32 1113.03Z" fill="#075AB7"/>
<path d="M874.28 871.63C862.12 869.82 853.93 858.71 855.78 846.52C857.62 834.39 868.78 826.25 880.98 828.13C892.93 829.98 901.06 841.02 899.31 853.02C897.53 865.2 886.45 873.44 874.28 871.63Z" fill="#075AB7"/>
<path d="M901.34 1026.86C889.16 1025.08 880.92 1014 882.73 1001.83C884.54 989.67 895.65 981.48 907.84 983.33C919.81 985.15 928 996.15 926.29 1008.14C924.54 1020.35 913.5 1028.63 901.34 1026.86Z" fill="#075AB7"/>
<path d="M867.04 921.19C854.9 919.41 846.65 908.25 848.51 896.1C850.33 884.17 861.42 875.98 873.38 877.73C885.52 879.51 893.76 890.67 891.91 902.82C890.09 914.75 879 922.94 867.04 921.19Z" fill="#075AB7"/>
<path d="M1247.47 731.11C1259.38 732.9 1267.64 744.04 1265.9 755.96C1264.13 768.04 1252.83 776.34 1240.74 774.44C1228.87 772.57 1220.7 761.35 1222.53 749.42C1224.36 737.53 1235.54 729.31 1247.46 731.1L1247.47 731.11Z" fill="#075AB7"/>
<path d="M1081.75 679.02C1083.46 667.1 1094.7 658.72 1106.61 660.47C1118.52 662.23 1126.85 673.51 1125.04 685.41C1123.25 697.16 1112.17 705.43 1100.4 703.79C1088.47 702.13 1080.03 690.93 1081.74 679.01L1081.75 679.02Z" fill="#075AB7"/>
<path d="M968.42 1065.13C966.69 1077.04 955.43 1085.41 943.53 1083.63C931.63 1081.85 923.31 1070.55 925.14 1058.65C926.95 1046.91 938.05 1038.66 949.81 1040.31C961.73 1041.99 970.15 1053.21 968.42 1065.12V1065.13Z" fill="#075AB7"/>
<path d="M1264.91 806.24C1266.84 794.38 1278.35 786.13 1290.12 788.18C1301.83 790.21 1309.92 801.51 1308.02 813.17C1306.09 825.03 1294.58 833.28 1282.81 831.23C1271.1 829.2 1263.01 817.9 1264.91 806.24Z" fill="#075AB7"/>
<path d="M1174.56 692.87C1172.65 704.73 1161.15 713 1149.38 710.97C1137.67 708.96 1129.56 697.68 1131.44 686.01C1133.35 674.15 1144.85 665.89 1156.62 667.91C1168.33 669.92 1176.44 681.2 1174.56 692.87Z" fill="#075AB7"/>
<path d="M863.11 798.08C864.72 786.22 876.04 777.71 887.9 779.45C899.61 781.16 907.96 792.27 906.37 804.02C904.76 815.88 893.44 824.39 881.58 822.65C869.87 820.94 861.52 809.83 863.11 798.08Z" fill="#075AB7"/>
<path d="M1032.47 671.71C1034.16 659.94 1045.24 651.7 1057 653.46C1068.78 655.22 1076.97 666.34 1075.14 678.07C1073.32 689.72 1062.52 697.75 1050.83 696.16C1039.07 694.55 1030.78 683.51 1032.47 671.71Z" fill="#075AB7"/>
<path d="M1246.81 1077.3C1235.04 1075.48 1227.11 1064.71 1228.87 1052.94C1230.65 1041.02 1241.65 1033 1253.53 1034.95C1265.28 1036.88 1273.12 1047.73 1271.24 1059.47C1269.37 1071.23 1258.56 1079.11 1246.8 1077.3H1246.81Z" fill="#075AB7"/>
<path d="M1190.12 1119.6C1178.34 1117.91 1170.3 1107.22 1171.93 1095.43C1173.58 1083.5 1184.5 1075.36 1196.41 1077.19C1208.18 1078.99 1216.12 1089.75 1214.38 1101.53C1212.63 1113.31 1201.91 1121.3 1190.12 1119.61V1119.6Z" fill="#075AB7"/>
<path d="M945.2 730.22C933.37 728.53 925.38 717.89 927.07 706.08C928.76 694.25 939.4 686.26 951.21 687.95C963.04 689.64 971.03 700.28 969.34 712.09C967.65 723.92 957.01 731.91 945.2 730.22Z" fill="#075AB7"/>
<path d="M859.92 970.29C848.14 968.65 840.05 957.99 841.64 946.19C843.25 934.25 854.13 926.08 866.05 927.85C877.83 929.61 885.81 940.33 884.11 952.12C882.41 963.9 871.72 971.93 859.92 970.29Z" fill="#075AB7"/>
<path d="M1180.86 693.32C1182.68 681.6 1193.51 673.82 1205.35 675.73C1216.87 677.59 1224.59 688.33 1222.78 699.99C1220.96 711.71 1210.13 719.49 1198.29 717.58C1186.77 715.72 1179.05 704.98 1180.86 693.32Z" fill="#075AB7"/>
<path d="M1299.78 912.07C1301.57 900.32 1312.36 892.5 1324.2 894.38C1335.74 896.21 1343.5 906.92 1341.72 918.57C1339.93 930.32 1329.14 938.14 1317.3 936.26C1305.76 934.43 1298 923.72 1299.78 912.07Z" fill="#075AB7"/>
<path d="M1016.94 1122.76C1018.74 1111.24 1029.5 1103.42 1041.1 1105.19C1052.8 1106.98 1060.64 1117.86 1058.72 1129.66C1056.85 1141.14 1046.03 1148.86 1034.39 1147.01C1022.89 1145.18 1015.12 1134.38 1016.93 1122.76H1016.94Z" fill="#075AB7"/>
<path d="M1292.48 961.85C1294.18 950.26 1304.82 942.28 1316.39 943.94C1328.17 945.63 1336.15 956.39 1334.35 968.16C1332.59 979.71 1321.87 987.58 1310.27 985.85C1298.7 984.12 1290.78 973.43 1292.47 961.86L1292.48 961.85Z" fill="#075AB7"/>
<path d="M1066.52 1130.43C1068.18 1118.9 1078.93 1110.85 1090.44 1112.51C1101.97 1114.17 1110.02 1124.92 1108.36 1136.43C1106.7 1147.96 1095.95 1156.01 1084.44 1154.35C1072.91 1152.69 1064.86 1141.94 1066.52 1130.43Z" fill="#075AB7"/>
<path d="M889.02 772.38C877.5 770.7 869.47 759.93 871.15 748.42C872.83 736.9 883.6 728.87 895.11 730.55C906.63 732.23 914.66 743 912.98 754.51C911.3 766.03 900.53 774.06 889.02 772.38Z" fill="#075AB7"/>
<path d="M1002.02 688.42C990.71 686.81 982.62 676.05 984.17 664.7C985.73 653.25 996.76 645.03 1008.19 646.79C1019.5 648.53 1027.5 659.37 1025.82 670.67C1024.14 681.98 1013.35 690.02 1002.02 688.41V688.42Z" fill="#075AB7"/>
<path d="M1324.91 887.32C1313.6 885.66 1305.54 874.88 1307.13 863.55C1308.74 852.1 1319.79 843.91 1331.21 845.72C1342.52 847.51 1350.48 858.37 1348.76 869.66C1347.04 880.97 1336.22 888.98 1324.9 887.32H1324.91Z" fill="#075AB7"/>
<path d="M985.12 1139.52C973.82 1137.79 965.8 1126.93 967.52 1115.66C969.25 1104.36 980.11 1096.34 991.38 1098.06C1002.68 1099.79 1010.7 1110.65 1008.98 1121.92C1007.25 1133.22 996.39 1141.24 985.12 1139.52Z" fill="#075AB7"/>
<path d="M917.84 1057.62C916.25 1068.93 905.45 1076.99 894.12 1075.31C882.79 1073.63 874.79 1062.8 876.54 1051.51C878.28 1040.3 888.77 1032.48 900.04 1033.99C911.34 1035.5 919.44 1046.26 917.84 1057.62Z" fill="#075AB7"/>
<path d="M1285.47 1011.37C1287.22 1000.03 1298.08 992.07 1309.34 993.88C1320.7 995.71 1328.61 1006.6 1326.72 1017.83C1324.83 1029.06 1314.27 1036.8 1303.08 1035.16C1291.75 1033.5 1283.74 1022.67 1285.48 1011.38L1285.47 1011.37Z" fill="#075AB7"/>
<path d="M1273.25 757.18C1274.87 745.76 1285.52 737.85 1296.92 739.61C1308.21 741.35 1315.93 751.75 1314.33 763.06C1312.71 774.48 1302.06 782.39 1290.66 780.63C1279.37 778.89 1271.65 768.49 1273.25 757.18Z" fill="#075AB7"/>
<path d="M1115.74 1137.55C1117.47 1126.12 1128.18 1118.29 1139.54 1120.15C1150.83 1122 1158.48 1132.47 1156.77 1143.73C1155.04 1155.16 1144.33 1162.99 1132.97 1161.13C1121.68 1159.28 1114.03 1148.81 1115.74 1137.55Z" fill="#075AB7"/>
<path d="M876.06 1001.06C874.28 1012.44 863.88 1020.02 852.5 1018.24C841.12 1016.46 833.54 1006.06 835.32 994.68C837.1 983.3 847.5 975.72 858.88 977.5C870.26 979.28 877.84 989.68 876.06 1001.06Z" fill="#075AB7"/>
<path d="M1231.18 700.86C1232.9 689.51 1243.29 681.97 1254.72 683.77C1265.87 685.54 1273.35 695.83 1271.64 707.08C1269.92 718.43 1259.53 725.97 1248.1 724.17C1236.95 722.4 1229.47 712.11 1231.18 700.86Z" fill="#075AB7"/>
<path d="M1222.62 1102.62C1224.3 1091.51 1234.7 1083.88 1245.84 1085.57C1256.95 1087.25 1264.58 1097.65 1262.89 1108.79C1261.21 1119.9 1250.81 1127.53 1239.67 1125.84C1228.56 1124.16 1220.93 1113.76 1222.62 1102.62Z" fill="#075AB7"/>
<path d="M824.99 862.7C813.85 861.06 806.16 850.73 807.79 839.59C809.43 828.45 819.76 820.76 830.9 822.39C842.04 824.03 849.73 834.36 848.1 845.5C846.46 856.64 836.13 864.33 824.99 862.7Z" fill="#075AB7"/>
<path d="M1332.25 837.01C1321.19 835.35 1313.48 824.85 1315.19 813.78C1316.9 802.73 1327.43 795.07 1338.5 796.83C1349.39 798.57 1356.99 808.92 1355.39 819.84C1353.77 830.92 1343.31 838.67 1332.24 837.01H1332.25Z" fill="#075AB7"/>
<path d="M800.5 889.26C802.09 878.18 812.52 870.39 823.6 872.02C834.67 873.66 842.41 884.13 840.73 895.2C839.07 906.11 828.78 913.79 817.86 912.27C806.77 910.73 798.93 900.33 800.51 889.26H800.5Z" fill="#075AB7"/>
<path d="M936.35 1131.67C925.29 1129.97 917.62 1119.45 919.36 1108.39C921.1 1097.35 931.67 1089.72 942.72 1091.52C953.6 1093.29 961.17 1103.66 959.54 1114.58C957.89 1125.65 947.41 1133.37 936.34 1131.68L936.35 1131.67Z" fill="#075AB7"/>
<path d="M838.43 773.79C849.34 775.65 856.93 786.23 855.1 797.01C853.24 807.92 842.66 815.51 831.88 813.68C820.97 811.82 813.38 801.24 815.21 790.46C817.07 779.55 827.65 771.96 838.43 773.79Z" fill="#075AB7"/>
<path d="M1130.73 635.44C1129.16 646.31 1118.71 654.11 1107.82 652.53C1096.95 650.96 1089.15 640.51 1090.73 629.62C1092.3 618.75 1102.75 610.96 1113.64 612.53C1124.51 614.1 1132.31 624.55 1130.73 635.44Z" fill="#075AB7"/>
<path d="M919.39 704.8C917.81 715.67 907.35 723.46 896.47 721.88C885.6 720.3 877.81 709.84 879.39 698.96C880.97 688.09 891.43 680.3 902.31 681.88C913.18 683.46 920.97 693.92 919.39 704.8Z" fill="#075AB7"/>
<path d="M975.3 663.36C973.56 674.28 963.03 681.94 952.23 680.14C941.3 678.32 933.69 667.75 935.56 656.98C937.44 646.18 947.68 638.74 958.41 640.37C969.32 642.03 977.03 652.52 975.3 663.36Z" fill="#075AB7"/>
<path d="M1157.43 659.77C1146.54 658.2 1138.78 647.74 1140.43 636.86C1142.09 625.95 1152.58 618.24 1163.42 619.97C1174.2 621.69 1181.74 631.84 1180.26 642.65C1178.77 653.53 1168.35 661.34 1157.44 659.76L1157.43 659.77Z" fill="#075AB7"/>
<path d="M1295.93 1083.22C1285.03 1081.59 1277.3 1071.1 1279.01 1060.25C1280.73 1049.33 1291.25 1041.66 1302.06 1043.44C1312.85 1045.22 1320.35 1055.4 1318.82 1066.19C1317.27 1077.08 1306.83 1084.85 1295.93 1083.22Z" fill="#075AB7"/>
<path d="M1183.11 1167.78C1172.28 1166.33 1164.61 1156.27 1166.01 1145.33C1167.41 1134.35 1177.76 1126.55 1188.77 1128.18C1199.63 1129.79 1207.18 1139.9 1205.65 1150.8C1204.12 1161.65 1194.03 1169.26 1183.12 1167.79L1183.11 1167.78Z" fill="#075AB7"/>
<path d="M1080.8 628.06C1079.21 639.01 1069.24 646.46 1058.29 644.87C1047.34 643.28 1039.89 633.31 1041.48 622.36C1043.07 611.41 1053.04 603.96 1063.99 605.55C1074.94 607.14 1082.39 617.11 1080.8 628.06Z" fill="#075AB7"/>
<path d="M810.37 961.38C799.42 959.75 792.02 949.75 793.65 938.8C795.28 927.86 805.28 920.45 816.23 922.08C827.18 923.71 834.58 933.71 832.95 944.66C831.32 955.6 821.31 963.01 810.37 961.38Z" fill="#075AB7"/>
<path d="M867.76 1050.21C866.21 1061.01 856.29 1068.43 845.51 1066.84C834.73 1065.25 827.36 1055.29 828.99 1044.51C830.59 1033.91 840.42 1026.56 851.01 1028.04C861.82 1029.55 869.3 1039.44 867.75 1050.2L867.76 1050.21Z" fill="#075AB7"/>
<path d="M1189.76 644.17C1191.36 633.4 1201.34 626.06 1212.13 627.7C1222.87 629.34 1230.17 639.36 1228.49 650.15C1226.84 660.72 1216.95 667.99 1206.34 666.45C1195.55 664.88 1188.16 654.94 1189.76 644.16V644.17Z" fill="#075AB7"/>
<path d="M861.83 746.9C860.3 757.61 850.22 765.09 839.52 763.46C828.99 761.85 821.61 751.92 823.12 741.38C824.65 730.67 834.73 723.19 845.43 724.82C855.96 726.43 863.34 736.36 861.83 746.9Z" fill="#075AB7"/>
<path d="M1367.52 941.98C1356.82 940.42 1349.37 930.31 1351.03 919.62C1352.66 909.1 1362.62 901.75 1373.17 903.29C1383.87 904.85 1391.32 914.96 1389.66 925.65C1388.03 936.17 1378.07 943.52 1367.52 941.98Z" fill="#075AB7"/>
<path d="M1343.69 969.3C1345.31 958.61 1355.45 951.22 1366.14 952.93C1376.65 954.62 1383.94 964.62 1382.34 975.16C1380.72 985.85 1370.58 993.24 1359.89 991.53C1349.38 989.84 1342.09 979.84 1343.69 969.3Z" fill="#075AB7"/>
<path d="M909.15 1107C907.67 1117.48 897.71 1125 887.2 1123.57C876.56 1122.13 868.95 1111.94 870.57 1101.32C872.17 1090.84 882.2 1083.43 892.68 1084.97C903.16 1086.51 910.63 1096.5 909.14 1107H909.15Z" fill="#075AB7"/>
<path d="M1320.31 713.96C1318.88 724.44 1308.95 732 1298.43 730.62C1287.8 729.23 1280.14 719.06 1281.71 708.43C1283.26 697.95 1293.26 690.49 1303.76 691.99C1314.24 693.48 1321.75 703.44 1320.31 713.95V713.96Z" fill="#075AB7"/>
<path d="M1011.4 1171.75C1013.16 1161.28 1023.28 1153.99 1033.72 1155.68C1044.34 1157.4 1051.73 1167.77 1049.84 1178.3C1047.96 1188.76 1037.76 1195.95 1027.36 1194.15C1016.89 1192.33 1009.65 1182.17 1011.4 1171.75Z" fill="#075AB7"/>
<path d="M1339.67 786.53C1329.2 784.91 1321.79 774.83 1323.4 764.39C1325.02 753.92 1335.11 746.51 1345.53 748.12C1356 749.74 1363.41 759.82 1361.8 770.25C1360.19 780.72 1350.09 788.13 1339.67 786.53Z" fill="#075AB7"/>
<path d="M1009.52 637.22C999.07 635.7 991.58 625.65 993.11 615.19C994.63 604.74 1004.68 597.25 1015.14 598.77C1025.59 600.29 1033.08 610.34 1031.55 620.8C1030.03 631.25 1019.98 638.74 1009.52 637.21V637.22Z" fill="#075AB7"/>
<path d="M1077.33 1201.46C1066.87 1199.86 1059.43 1189.78 1061.03 1179.35C1062.63 1168.89 1072.71 1161.45 1083.14 1163.05C1093.6 1164.65 1101.03 1174.73 1099.44 1185.16C1097.84 1195.62 1087.76 1203.06 1077.33 1201.46Z" fill="#075AB7"/>
<path d="M1396.58 877.22C1394.54 887.81 1384.21 894.93 1373.97 892.81C1363.52 890.65 1356.58 880.58 1358.53 870.43C1360.57 859.85 1370.91 852.72 1381.14 854.84C1391.59 857 1398.53 867.07 1396.58 877.22Z" fill="#075AB7"/>
<path d="M978.41 1186.63C968 1185.22 960.65 1175.57 962 1165.06C963.36 1154.5 973.3 1147.02 983.87 1148.6C994.3 1150.16 1001.54 1159.88 1000.05 1170.33C998.57 1180.75 988.88 1188.04 978.4 1186.63H978.41Z" fill="#075AB7"/>
<path d="M1352.39 1040.6C1341.88 1038.76 1335.05 1028.96 1336.94 1018.42C1338.83 1007.92 1348.66 1001.14 1359.2 1003.09C1369.54 1005 1376.26 1014.64 1374.49 1025.04C1372.7 1035.57 1362.93 1042.45 1352.39 1040.6Z" fill="#075AB7"/>
<path d="M787.22 987.8C788.76 977.22 798.36 970.1 808.93 971.69C819.5 973.28 826.57 982.92 824.93 993.48C823.31 1003.89 813.88 1010.89 803.45 1009.42C792.86 1007.93 785.69 998.37 787.23 987.8H787.22Z" fill="#075AB7"/>
<path d="M1272.81 1110.13C1274.38 1099.54 1283.94 1092.52 1294.55 1094.18C1304.95 1095.8 1311.89 1105.25 1310.34 1115.7C1308.77 1126.29 1299.21 1133.31 1288.6 1131.65C1278.2 1130.03 1271.26 1120.58 1272.81 1110.13Z" fill="#075AB7"/>
<path d="M1126.28 1208.22C1115.68 1206.66 1108.66 1197.11 1110.3 1186.5C1111.92 1176.09 1121.35 1169.15 1131.8 1170.69C1142.4 1172.25 1149.42 1181.8 1147.78 1192.41C1146.16 1202.82 1136.73 1209.76 1126.28 1208.22Z" fill="#075AB7"/>
<path d="M904 671.78C893.54 670.3 886.43 660.94 887.87 650.56C889.34 639.93 898.82 632.8 909.39 634.37C919.8 635.92 926.81 645.34 925.3 655.75C923.79 666.18 914.4 673.25 904 671.77V671.78Z" fill="#075AB7"/>
<path d="M1254.12 1158.11C1252.56 1168.52 1243.13 1175.52 1232.71 1173.99C1222.13 1172.44 1215.11 1162.88 1216.77 1152.28C1218.39 1141.92 1227.9 1135.02 1238.34 1136.62C1248.72 1138.21 1255.67 1147.68 1254.11 1158.11H1254.12Z" fill="#075AB7"/>
<path d="M1256 673.03C1245.63 671.51 1238.57 662.02 1240.09 651.66C1241.61 641.29 1251.1 634.23 1261.46 635.75C1271.83 637.27 1278.89 646.76 1277.37 657.12C1275.85 667.49 1266.36 674.55 1256 673.03Z" fill="#075AB7"/>
<path d="M868.27 697.37C866.72 707.44 857.02 714.57 846.97 713.02C836.9 711.47 829.77 701.77 831.32 691.72C832.87 681.65 842.57 674.52 852.62 676.07C862.69 677.62 869.82 687.32 868.27 697.37Z" fill="#075AB7"/>
<path d="M1403.34 827.09C1401.77 837.16 1392.06 844.27 1382.01 842.7C1371.94 841.12 1364.83 831.42 1366.4 821.37C1367.97 811.3 1377.68 804.19 1387.73 805.76C1397.8 807.33 1404.91 817.04 1403.34 827.08V827.09Z" fill="#075AB7"/>
<path d="M929.6 1178.9C919.53 1177.48 912.31 1167.85 913.74 1157.76C915.16 1147.69 924.79 1140.47 934.88 1141.9C944.95 1143.32 952.17 1152.95 950.74 1163.04C949.32 1173.11 939.69 1180.33 929.6 1178.9Z" fill="#075AB7"/>
<path d="M775.59 853.62C765.5 852.09 758.32 842.26 759.99 832.26C761.65 822.29 771.2 815.32 781.13 816.82C791.22 818.35 798.4 828.18 796.73 838.18C795.07 848.15 785.52 855.12 775.59 853.62Z" fill="#075AB7"/>
<path d="M981.15 613.32C979.72 623.39 969.93 630.64 959.89 629.06C949.94 627.49 942.9 617.99 944.31 608.03C945.74 597.96 955.53 590.71 965.57 592.29C975.52 593.86 982.56 603.36 981.15 613.32Z" fill="#075AB7"/>
<path d="M768.35 903.11C758.37 901.65 751.33 892.25 752.72 882.23C754.12 872.12 763.85 864.92 773.91 866.55C783.91 868.17 790.85 877.64 789.32 887.6C787.78 897.6 778.35 904.58 768.35 903.12V903.11Z" fill="#075AB7"/>
<path d="M1330.18 1068.01C1331.59 1058.03 1340.97 1050.97 1351.02 1052.32C1361.12 1053.67 1368.35 1063.38 1366.77 1073.46C1365.2 1083.46 1355.74 1090.42 1345.77 1088.93C1335.78 1087.44 1328.77 1078.03 1330.19 1068.01H1330.18Z" fill="#075AB7"/>
<path d="M1176.1 1214.95C1165.96 1213.55 1159.01 1204.3 1160.48 1194.15C1161.94 1184.02 1171.24 1177.11 1181.36 1178.64C1191.34 1180.14 1198.15 1189.2 1196.82 1199.21C1195.47 1209.35 1186.26 1216.35 1176.11 1214.94L1176.1 1214.95Z" fill="#075AB7"/>
<path d="M782.79 804.42C772.64 802.87 765.93 793.62 767.57 783.45C769.18 773.49 778.31 766.87 788.32 768.4C798.47 769.95 805.18 779.2 803.54 789.37C801.93 799.33 792.8 805.95 782.79 804.42Z" fill="#075AB7"/>
<path d="M1115.17 601.73C1105.02 600.18 1098.31 590.92 1099.96 580.75C1101.57 570.79 1110.7 564.17 1120.72 565.7C1130.87 567.25 1137.58 576.51 1135.93 586.68C1134.32 596.64 1125.19 603.26 1115.17 601.73Z" fill="#075AB7"/>
<path d="M1185.49 593.63C1184.03 603.65 1175.03 610.42 1165.04 609.01C1154.84 607.57 1148.05 598.43 1149.61 588.26C1151.14 578.28 1160.21 571.61 1170.22 573.11C1180.22 574.6 1186.94 583.64 1185.49 593.64V593.63Z" fill="#075AB7"/>
<path d="M838.36 1114.99C828.36 1113.5 821.63 1104.47 823.08 1094.47C824.55 1084.29 833.72 1077.55 843.91 1079.14C853.87 1080.7 860.5 1089.81 858.96 1099.83C857.43 1109.81 848.36 1116.49 838.35 1114.99H838.36Z" fill="#075AB7"/>
<path d="M816.63 1042.92C815.1 1052.89 805.92 1059.56 795.89 1057.98C785.95 1056.42 779.33 1047.2 780.94 1037.15C782.51 1027.39 791.61 1020.78 801.46 1022.25C811.45 1023.74 818.17 1032.89 816.63 1042.91V1042.92Z" fill="#075AB7"/>
<path d="M1331.94 715.81C1333.44 705.82 1342.58 699.11 1352.61 700.65C1362.58 702.18 1369.24 711.37 1367.66 721.4C1366.12 731.18 1357.05 737.83 1347.21 736.39C1337.19 734.92 1330.44 725.82 1331.94 715.8V715.81Z" fill="#075AB7"/>
<path d="M745.86 931.86C747.29 921.9 756.5 915.08 766.45 916.6C776.22 918.09 782.96 927.18 781.55 936.97C780.11 946.93 770.91 953.75 760.96 952.24C751.19 950.75 744.45 941.66 745.86 931.87V931.86Z" fill="#075AB7"/>
<path d="M1086.17 579.15C1084.65 589.07 1075.37 595.78 1065.4 594.18C1055.68 592.61 1049.04 583.44 1050.54 573.64C1052.06 563.72 1061.34 557 1071.31 558.61C1081.03 560.18 1087.67 569.35 1086.17 579.15Z" fill="#075AB7"/>
<path d="M1326.13 664.2C1324.76 673.93 1315.66 680.84 1305.93 679.52C1296.04 678.18 1289.06 668.88 1290.55 659.01C1292.02 649.3 1301.2 642.49 1310.92 643.91C1320.64 645.33 1327.5 654.47 1326.13 664.2Z" fill="#075AB7"/>
<path d="M1374.53 772.18C1375.85 762.53 1385.21 755.54 1394.86 757.01C1404.38 758.46 1411.17 767.55 1409.87 777.11C1408.55 786.76 1399.19 793.75 1389.54 792.28C1380.02 790.83 1373.23 781.74 1374.53 772.18Z" fill="#075AB7"/>
<path d="M1213.17 615.8C1203.46 613.92 1196.86 604.3 1198.83 594.88C1200.83 585.29 1210.18 578.89 1219.52 580.7C1229.23 582.58 1235.83 592.2 1233.86 601.62C1231.86 611.21 1222.51 617.61 1213.17 615.81V615.8Z" fill="#075AB7"/>
<path d="M1281.77 1180.16C1272.11 1178.83 1265.14 1169.47 1266.61 1159.82C1268.07 1150.3 1277.17 1143.51 1286.73 1144.83C1296.39 1146.16 1303.36 1155.52 1301.89 1165.17C1300.43 1174.69 1291.33 1181.48 1281.77 1180.16Z" fill="#075AB7"/>
<path d="M880.18 1170.74C870.53 1169.43 863.54 1160.07 865 1150.42C866.44 1140.9 875.54 1134.11 885.1 1135.41C894.75 1136.72 901.74 1146.08 900.28 1155.73C898.84 1165.25 889.74 1172.04 880.18 1170.74Z" fill="#075AB7"/>
<path d="M790.36 754.48C780.7 753.12 773.75 743.73 775.26 734.1C776.75 724.58 785.88 717.81 795.41 719.16C805.07 720.52 812.02 729.91 810.52 739.54C809.03 749.06 799.9 755.83 790.36 754.48Z" fill="#075AB7"/>
<path d="M1395.3 976.53C1397.02 966.86 1406.13 960.5 1415.73 962.27C1425.39 964.05 1431.7 973.19 1429.88 982.78C1428.08 992.28 1419.15 998.52 1409.68 996.9C1400.01 995.24 1393.59 986.15 1395.3 976.54V976.53Z" fill="#075AB7"/>
<path d="M1417.33 947.34C1407.65 945.89 1401.06 936.92 1402.57 927.26C1404.09 917.58 1413.09 911.04 1422.73 912.61C1432.26 914.16 1438.7 922.92 1437.33 932.47C1435.94 942.15 1427 948.79 1417.33 947.34Z" fill="#075AB7"/>
<path d="M854.61 663.02C844.84 661.65 838.29 652.89 839.76 643.14C841.2 633.55 849.82 627.11 859.41 628.45C869.18 629.82 875.73 638.58 874.26 648.33C872.82 657.92 864.2 664.36 854.61 663.02Z" fill="#075AB7"/>
<path d="M1020.65 1241.76C1010.92 1240.26 1004.51 1231.4 1006.11 1221.66C1007.67 1212.12 1016.4 1205.8 1025.99 1207.28C1035.72 1208.78 1042.13 1217.64 1040.53 1227.38C1038.97 1236.92 1030.24 1243.24 1020.65 1241.76Z" fill="#075AB7"/>
<path d="M1016.87 586.43C1007.14 584.93 1000.73 576.07 1002.33 566.32C1003.89 556.78 1012.62 550.46 1022.21 551.94C1031.94 553.44 1038.35 562.3 1036.75 572.05C1035.19 581.59 1026.46 587.9 1016.87 586.43Z" fill="#075AB7"/>
<path d="M1338.8 1137.52C1329.02 1136.17 1322.46 1127.43 1323.9 1117.68C1325.32 1108.09 1333.93 1101.62 1343.52 1102.95C1353.3 1104.3 1359.86 1113.04 1358.42 1122.79C1357 1132.38 1348.39 1138.85 1338.8 1137.52Z" fill="#075AB7"/>
<path d="M1225.55 1221.25C1215.95 1219.77 1209.6 1211.07 1211.08 1201.42C1212.56 1191.82 1221.26 1185.47 1230.91 1186.95C1240.51 1188.43 1246.86 1197.13 1245.38 1206.78C1243.9 1216.38 1235.2 1222.73 1225.55 1221.25Z" fill="#075AB7"/>
<path d="M931.09 605.99C929.67 615.62 921.02 622.05 911.39 620.63C901.76 619.21 895.33 610.56 896.75 600.93C898.17 591.3 906.82 584.87 916.45 586.29C926.08 587.71 932.51 596.36 931.09 605.99Z" fill="#075AB7"/>
<path d="M1090.04 1234.63C1088.52 1244.2 1079.78 1250.5 1070.12 1248.97C1060.55 1247.46 1054.25 1238.71 1055.78 1229.05C1057.3 1219.48 1066.04 1213.18 1075.7 1214.71C1085.27 1216.22 1091.57 1224.97 1090.04 1234.63Z" fill="#075AB7"/>
<path d="M773.64 985.95C772.15 995.54 763.42 1001.86 753.77 1000.36C744.18 998.87 737.86 990.14 739.36 980.49C740.85 970.9 749.58 964.58 759.23 966.08C768.82 967.57 775.14 976.3 773.64 985.95Z" fill="#075AB7"/>
<path d="M1424.42 898.22C1414.88 896.74 1408.55 887.95 1410.08 878.33C1411.59 868.81 1420.42 862.53 1430.05 864.1C1439.39 865.62 1445.66 874.32 1444.23 883.77C1442.78 893.34 1434.04 899.72 1424.42 898.22Z" fill="#075AB7"/>
<path d="M1402.82 1046.2C1393.3 1044.82 1386.79 1036.01 1388.25 1026.49C1389.69 1017.16 1398.39 1010.73 1407.74 1012.09C1417.26 1013.47 1423.77 1022.28 1422.31 1031.8C1420.87 1041.13 1412.17 1047.56 1402.82 1046.2Z" fill="#075AB7"/>
<path d="M956.7 1214.52C958.17 1205.05 967.07 1198.63 976.59 1200.2C985.88 1201.72 992.2 1210.51 990.75 1219.87C989.28 1229.34 980.38 1235.76 970.86 1234.19C961.57 1232.67 955.25 1223.88 956.7 1214.52Z" fill="#075AB7"/>
<path d="M1119.04 1255.96C1109.79 1254.47 1103.28 1245.45 1104.83 1236.27C1106.39 1227.02 1115.44 1220.56 1124.6 1222.17C1133.71 1223.77 1140.05 1232.56 1138.65 1241.64C1137.22 1250.89 1128.25 1257.45 1119.04 1255.96Z" fill="#075AB7"/>
<path d="M1263.6 622.53C1254.36 621.28 1247.67 612.4 1248.99 603.13C1250.31 593.88 1259.22 587.25 1268.47 588.63C1277.57 589.99 1284.09 598.65 1282.91 607.8C1281.72 617.04 1272.88 623.78 1263.6 622.52V622.53Z" fill="#075AB7"/>
<path d="M816.86 690.13C815.16 699.35 806.35 705.54 797.3 703.88C788.08 702.18 781.89 693.37 783.55 684.32C785.25 675.11 794.06 668.91 803.11 670.57C812.32 672.27 818.52 681.08 816.86 690.12V690.13Z" fill="#075AB7"/>
<path d="M927.68 1193.59C936.83 1195.09 942.82 1203.52 941.3 1212.76C939.8 1221.91 931.37 1227.9 922.13 1226.38C912.98 1224.88 906.99 1216.45 908.51 1207.21C910.01 1198.06 918.44 1192.07 927.68 1193.59Z" fill="#075AB7"/>
<path d="M953.37 559.52C954.67 550.33 962.89 544.06 972.1 545.25C981.45 546.46 987.85 554.86 986.53 564.2C985.21 573.54 976.74 579.84 967.42 578.41C958.25 577 952.08 568.71 953.38 559.52H953.37Z" fill="#075AB7"/>
<path d="M774.9 1087.2C776.32 1077.88 784.86 1071.67 794.17 1073.2C803.33 1074.71 809.4 1083.07 808 1092.25C806.58 1101.57 798.04 1107.78 788.73 1106.25C779.57 1104.74 773.5 1096.38 774.9 1087.2Z" fill="#075AB7"/>
<path d="M1431.99 848.12C1422.66 846.72 1416.43 838.2 1417.94 828.89C1419.42 819.73 1427.77 813.63 1436.95 815C1446.28 816.4 1452.51 824.92 1451 834.23C1449.52 843.39 1441.17 849.49 1431.99 848.12Z" fill="#075AB7"/>
<path d="M1397.03 742.2C1387.82 740.86 1381.67 732.56 1383.05 723.36C1384.43 714.17 1392.75 708.07 1401.97 709.49C1410.97 710.88 1417.07 719.09 1415.79 728.11C1414.48 737.34 1406.23 743.54 1397.03 742.2Z" fill="#075AB7"/>
<path d="M1354.71 685.28C1345.51 683.92 1339.38 675.61 1340.79 666.4C1342.18 657.23 1350.54 651.15 1359.76 652.59C1368.75 653.99 1374.82 662.23 1373.52 671.25C1372.19 680.47 1363.92 686.65 1354.72 685.28H1354.71Z" fill="#075AB7"/>
<path d="M727.2 844.33C718.05 843.01 711.85 834.63 713.25 825.48C714.62 816.53 722.9 810.4 731.88 811.7C741.03 813.02 747.23 821.4 745.83 830.55C744.46 839.5 736.18 845.63 727.21 844.33H727.2Z" fill="#075AB7"/>
<path d="M719.78 893.91C710.65 892.55 704.5 884.14 705.94 874.98C707.35 866.05 715.67 859.97 724.65 861.31C733.78 862.67 739.93 871.08 738.49 880.24C737.08 889.17 728.76 895.25 719.78 893.91Z" fill="#075AB7"/>
<path d="M1381.7 1075.61C1383.04 1066.4 1391.33 1060.23 1400.53 1061.61C1409.72 1062.98 1415.84 1071.3 1414.42 1080.52C1413.04 1089.53 1404.83 1095.63 1395.82 1094.36C1386.58 1093.06 1380.37 1084.81 1381.7 1075.62V1075.61Z" fill="#075AB7"/>
<path d="M831.5 1162.24C822.28 1160.91 816.1 1152.64 817.47 1143.44C818.83 1134.24 827.14 1128.12 836.35 1129.52C845.36 1130.89 851.48 1139.09 850.22 1148.1C848.93 1157.34 840.68 1163.57 831.5 1162.25V1162.24Z" fill="#075AB7"/>
<path d="M1168.93 1262.63C1159.99 1261.32 1153.74 1252.94 1155.05 1243.99C1156.36 1235.05 1164.74 1228.8 1173.69 1230.11C1182.63 1231.42 1188.88 1239.8 1187.57 1248.75C1186.26 1257.69 1177.88 1263.94 1168.93 1262.63Z" fill="#075AB7"/>
<path d="M746.68 1049.05C737.75 1047.68 731.57 1039.25 732.94 1030.31C734.31 1021.38 742.74 1015.2 751.68 1016.57C760.61 1017.94 766.79 1026.37 765.42 1035.31C764.05 1044.24 755.62 1050.42 746.68 1049.05Z" fill="#075AB7"/>
<path d="M734.47 795.41C725.61 794.17 719.25 785.69 720.55 776.82C721.85 767.96 730.37 761.65 739.22 763.01C747.92 764.35 754.13 772.64 752.97 781.38C751.8 790.23 743.33 796.65 734.46 795.41H734.47Z" fill="#075AB7"/>
<path d="M1299.42 610.45C1300.75 601.75 1309.16 595.51 1317.87 596.77C1326.71 598.05 1333.09 606.76 1331.6 615.52C1330.12 624.24 1321.64 630.37 1312.99 628.98C1304.28 627.58 1298.1 619.13 1299.42 610.45Z" fill="#075AB7"/>
<path d="M1317.77 1167.12C1319.3 1158.4 1327.81 1152.3 1336.44 1153.74C1345.31 1155.22 1351.54 1164.02 1349.87 1172.71C1348.19 1181.46 1339.63 1187.44 1331.05 1185.87C1322.31 1184.27 1316.27 1175.73 1317.78 1167.12H1317.77Z" fill="#075AB7"/>
<path d="M1261.05 1208.93C1262.36 1200.2 1270.71 1194.02 1279.43 1195.32C1288.16 1196.63 1294.34 1204.98 1293.04 1213.7C1291.73 1222.43 1283.38 1228.61 1274.66 1227.31C1265.93 1226 1259.75 1217.65 1261.05 1208.93Z" fill="#075AB7"/>
<path d="M1122.77 550.1C1114.03 548.71 1107.9 540.31 1109.29 531.63C1110.68 522.89 1119.08 516.76 1127.76 518.15C1136.5 519.54 1142.63 527.94 1141.24 536.62C1139.85 545.36 1131.45 551.49 1122.77 550.1Z" fill="#075AB7"/>
<path d="M1159 539.28C1160.21 530.4 1168.35 524.3 1177.22 525.63C1185.94 526.94 1191.9 534.88 1190.71 543.63C1189.5 552.51 1181.36 558.61 1172.49 557.28C1163.77 555.97 1157.81 548.03 1159 539.28Z" fill="#075AB7"/>
<path d="M699.08 924.76C700.45 915.9 708.7 909.93 717.53 911.41C726.23 912.87 732.06 920.93 730.71 929.63C729.34 938.49 721.09 944.46 712.26 942.98C703.56 941.52 697.73 933.46 699.08 924.76Z" fill="#075AB7"/>
<path d="M848.49 593.91C849.71 585.19 857.62 579.16 866.37 580.27C875.25 581.4 881.42 589.49 880.17 598.38C878.93 607.25 870.76 613.33 861.9 611.96C853.18 610.62 847.26 602.65 848.48 593.91H848.49Z" fill="#075AB7"/>
<path d="M1073.27 542.49C1064.47 541.15 1058.64 533.22 1059.98 524.4C1061.32 515.6 1069.25 509.77 1078.07 511.11C1086.87 512.45 1092.7 520.38 1091.36 529.2C1090.02 538 1082.09 543.83 1073.27 542.49Z" fill="#075AB7"/>
<path d="M741.79 745.22C732.99 743.93 727.15 736.04 728.47 727.24C729.79 718.46 737.72 712.67 746.53 714.03C755.13 715.36 760.91 723.16 759.68 731.79C758.43 740.61 750.57 746.51 741.78 745.22H741.79Z" fill="#075AB7"/>
<path d="M873.04 1218.27C864.24 1216.98 858.4 1209.09 859.73 1200.29C861.06 1191.51 868.98 1185.72 877.8 1187.09C886.4 1188.43 892.17 1196.23 890.95 1204.85C889.7 1213.67 881.84 1219.56 873.05 1218.28L873.04 1218.27Z" fill="#075AB7"/>
<path d="M1426.16 779.8C1427.41 770.98 1435.26 765.08 1444.05 766.36C1452.85 767.65 1458.7 775.54 1457.38 784.33C1456.08 792.96 1448.32 798.79 1439.71 797.6C1430.87 796.38 1424.92 788.57 1426.16 779.79V779.8Z" fill="#075AB7"/>
<path d="M822.97 640.61C821.73 649.25 813.92 655.17 805.32 653.98C796.5 652.76 790.56 644.81 791.89 636.02C793.2 627.42 801.08 621.6 809.71 622.87C818.33 624.14 824.2 631.99 822.97 640.6V640.61Z" fill="#075AB7"/>
<path d="M1406.27 1129.67C1405.09 1138.21 1397.16 1144.23 1388.64 1143.06C1380.1 1141.88 1374.08 1133.95 1375.25 1125.43C1376.43 1116.89 1384.36 1110.87 1392.88 1112.04C1401.42 1113.22 1407.44 1121.15 1406.27 1129.67Z" fill="#075AB7"/>
<path d="M1239.16 550.92C1237.91 559.44 1229.92 565.39 1221.4 564.15C1212.88 562.9 1206.93 554.91 1208.17 546.39C1209.42 537.87 1217.41 531.92 1225.93 533.16C1234.45 534.41 1240.4 542.4 1239.15 550.92H1239.16Z" fill="#075AB7"/>
<path d="M918.87 570.14C910.35 568.89 904.4 560.9 905.64 552.38C906.89 543.86 914.88 537.91 923.4 539.15C931.92 540.4 937.87 548.39 936.63 556.91C935.38 565.43 927.39 571.38 918.87 570.14Z" fill="#075AB7"/>
<path d="M1466.43 952.59C1457.95 951.31 1451.96 943.1 1453.36 934.67C1454.73 926.35 1462.74 920.51 1471.06 921.76C1479.54 923.04 1485.53 931.25 1484.13 939.68C1482.76 948 1474.75 953.84 1466.43 952.59Z" fill="#075AB7"/>
<path d="M1218.56 1269.11C1210.09 1267.82 1204.11 1259.59 1205.52 1251.16C1206.91 1242.84 1214.93 1237.02 1223.25 1238.29C1231.72 1239.58 1237.7 1247.81 1236.29 1256.24C1234.9 1264.56 1226.88 1270.38 1218.56 1269.11Z" fill="#075AB7"/>
<path d="M1446.07 984.62C1447.2 976.35 1455.13 970.32 1463.47 971.39C1471.88 972.46 1478.05 980.69 1476.75 989.1C1475.47 997.39 1467.47 1003.31 1459.18 1002.11C1450.9 1000.91 1444.93 992.94 1446.06 984.63L1446.07 984.62Z" fill="#075AB7"/>
<path d="M705.41 991.35C697.13 990.12 691.17 982.14 692.33 973.83C693.51 965.41 701.78 959.31 710.15 960.7C718.44 962.08 724.3 970.13 723.01 978.38C721.71 986.67 713.69 992.58 705.41 991.35Z" fill="#075AB7"/>
<path d="M1024.59 534.93C1016.31 533.7 1010.35 525.73 1011.51 517.42C1012.68 509 1020.96 502.9 1029.32 504.28C1037.61 505.65 1043.48 513.71 1042.18 521.96C1040.88 530.25 1032.87 536.16 1024.59 534.93Z" fill="#075AB7"/>
<path d="M1031.02 1276.39C1029.75 1284.74 1022.16 1290.37 1013.81 1289.16C1005.31 1287.93 999.59 1280.11 1000.99 1271.64C1002.37 1263.31 1010.04 1257.78 1018.37 1259.1C1026.71 1260.42 1032.29 1268.06 1031.02 1276.39Z" fill="#075AB7"/>
<path d="M1063.28 1296.46C1054.94 1295.18 1049.32 1287.57 1050.55 1279.22C1051.8 1270.72 1059.62 1265.02 1068.09 1266.43C1076.41 1267.82 1081.94 1275.51 1080.6 1283.83C1079.26 1292.16 1071.62 1297.73 1063.28 1296.45V1296.46Z" fill="#075AB7"/>
<path d="M1473.62 903.38C1465.28 902.08 1459.68 894.46 1460.93 886.12C1462.2 877.62 1470.04 871.94 1478.5 873.37C1486.82 874.78 1492.33 882.48 1490.97 890.8C1489.61 899.13 1481.96 904.69 1473.62 903.38Z" fill="#075AB7"/>
<path d="M781.91 1153.56C773.57 1152.26 767.96 1144.65 769.2 1136.31C770.46 1127.81 778.29 1122.12 786.76 1123.55C795.08 1124.95 800.6 1132.64 799.25 1140.97C797.9 1149.3 790.25 1154.86 781.91 1153.57V1153.56Z" fill="#075AB7"/>
<path d="M1451.72 1051.23C1443.34 1049.91 1437.87 1042.3 1439.24 1033.87C1440.6 1025.51 1448.24 1020.08 1456.68 1021.5C1464.88 1022.87 1470.26 1030.36 1469 1038.63C1467.72 1047.03 1460.15 1052.55 1451.72 1051.23Z" fill="#075AB7"/>
<path d="M1404.67 691.17C1396.23 689.99 1390.59 682.52 1391.81 674.11C1393 665.84 1400.55 659.61 1408.52 661.44C1416.28 663.22 1423.09 669.04 1421.69 678.22C1420.41 686.66 1413.07 692.35 1404.67 691.17Z" fill="#075AB7"/>
<path d="M756.66 1084.64C755.41 1093.01 747.83 1098.52 739.43 1097.19C731.25 1095.89 725.81 1088.41 727.05 1080.18C728.3 1071.81 735.88 1066.3 744.28 1067.63C752.46 1068.93 757.9 1076.41 756.66 1084.64Z" fill="#075AB7"/>
<path d="M964.38 1281.62C955.96 1280.44 950.34 1272.95 951.6 1264.56C952.83 1256.34 960.23 1250.79 968.43 1251.94C976.85 1253.12 982.47 1260.61 981.21 1269C979.98 1277.22 972.58 1282.77 964.38 1281.62Z" fill="#075AB7"/>
<path d="M766.11 682.42C764.81 690.55 757.19 696.04 749 694.73C740.87 693.43 735.38 685.81 736.69 677.62C737.99 669.49 745.61 664 753.8 665.31C761.93 666.61 767.42 674.23 766.11 682.42Z" fill="#075AB7"/>
<path d="M1129.09 1290.82C1127.89 1298.9 1120.19 1304.57 1112.12 1303.31C1104.05 1302.06 1098.43 1294.33 1099.74 1286.26C1101.02 1278.35 1108.55 1272.8 1116.49 1273.93C1124.58 1275.08 1130.3 1282.74 1129.09 1290.82Z" fill="#075AB7"/>
<path d="M1463.59 735.49C1462.3 743.4 1454.64 748.98 1446.76 747.76C1438.71 746.52 1433.01 738.59 1434.44 730.62C1435.86 722.71 1443.59 717.23 1451.43 718.57C1459.34 719.92 1464.87 727.61 1463.59 735.48V735.49Z" fill="#075AB7"/>
<path d="M823.78 1209.98C815.87 1208.42 810.5 1200.62 811.97 1192.83C813.49 1184.77 821.56 1179.29 829.43 1180.97C837.34 1182.66 842.61 1190.53 841.02 1198.28C839.4 1206.19 831.56 1211.51 823.79 1209.98H823.78Z" fill="#075AB7"/>
<path d="M1497.79 840.94C1496.6 848.84 1488.87 854.52 1481.01 853.27C1473.09 852.01 1467.47 844.24 1468.79 836.41C1470.1 828.63 1477.56 823.15 1485.35 824.24C1493.25 825.35 1498.98 833.04 1497.79 840.94Z" fill="#075AB7"/>
<path d="M974.98 526.77C967.06 525.49 961.44 517.72 962.78 509.89C964.13 501.97 971.95 496.4 979.74 497.8C987.53 499.2 992.95 506.71 991.77 514.45C990.57 522.35 982.83 528.03 974.98 526.76V526.77Z" fill="#075AB7"/>
<path d="M1324.39 1233.14C1316.48 1231.9 1310.84 1224.14 1312.14 1216.3C1313.46 1208.38 1321.25 1202.79 1329.06 1204.16C1336.85 1205.53 1342.29 1213.02 1341.14 1220.78C1339.97 1228.68 1332.26 1234.38 1324.38 1233.14H1324.39Z" fill="#075AB7"/>
<path d="M1444.7 1099.52C1436.82 1098.3 1431.38 1090.95 1432.53 1083.07C1433.7 1075.05 1441.33 1069.49 1449.28 1070.85C1457.15 1072.2 1462.5 1079.63 1461.23 1087.46C1459.95 1095.34 1452.56 1100.73 1444.7 1099.52Z" fill="#075AB7"/>
<path d="M714.57 1027.55C713.47 1035.52 706.37 1040.92 698.42 1039.82C690.45 1038.72 685.06 1031.62 686.15 1023.67C687.25 1015.7 694.35 1010.3 702.3 1011.4C710.27 1012.5 715.66 1019.6 714.57 1027.55Z" fill="#075AB7"/>
<path d="M931.79 1261.55C930.68 1269.51 923.56 1274.9 915.61 1273.78C907.65 1272.67 902.27 1265.55 903.38 1257.6C904.49 1249.64 911.61 1244.26 919.56 1245.37C927.52 1246.48 932.91 1253.6 931.79 1261.55Z" fill="#075AB7"/>
<path d="M1267.61 1274.97C1259.62 1273.78 1254.4 1266.61 1255.67 1258.6C1256.91 1250.81 1263.97 1245.66 1271.82 1246.83C1279.81 1248.02 1285.03 1255.18 1283.75 1263.2C1282.51 1270.99 1275.45 1276.14 1267.6 1274.97H1267.61Z" fill="#075AB7"/>
<path d="M812.69 602.9C804.69 601.73 799.44 594.59 800.69 586.58C801.91 578.78 808.95 573.6 816.79 574.75C824.79 575.92 830.04 583.06 828.79 591.07C827.57 598.87 820.53 604.05 812.69 602.9Z" fill="#075AB7"/>
<path d="M885.61 549.41C884.43 557.4 877.28 562.64 869.27 561.38C861.47 560.15 856.31 553.1 857.47 545.26C858.65 537.27 865.8 532.03 873.81 533.29C881.61 534.52 886.77 541.57 885.61 549.41Z" fill="#075AB7"/>
<path d="M1369.36 1175.08C1370.53 1167.09 1377.68 1161.84 1385.69 1163.1C1393.49 1164.32 1398.66 1171.37 1397.51 1179.21C1396.34 1187.21 1389.19 1192.45 1381.18 1191.19C1373.38 1189.96 1368.21 1182.92 1369.36 1175.08Z" fill="#075AB7"/>
<path d="M686.61 872.41C685.44 880.2 678.31 885.45 670.5 884.28C662.71 883.11 657.46 875.98 658.64 868.17C659.81 860.38 666.94 855.13 674.75 856.3C682.54 857.47 687.79 864.6 686.61 872.41Z" fill="#075AB7"/>
<path d="M1162.05 1309.98C1154.22 1308.88 1148.88 1301.82 1149.98 1294.03C1151.08 1286.2 1158.14 1280.86 1165.93 1281.96C1173.76 1283.06 1179.1 1290.12 1178 1297.91C1176.9 1305.74 1169.84 1311.08 1162.05 1309.98Z" fill="#075AB7"/>
<path d="M693.96 822.63C692.86 830.46 685.8 835.8 678.01 834.7C670.18 833.6 664.84 826.54 665.94 818.75C667.04 810.92 674.1 805.58 681.89 806.68C689.72 807.78 695.06 814.84 693.96 822.63Z" fill="#075AB7"/>
<path d="M701.02 773.91C699.92 781.41 692.74 786.8 685.22 785.76C677.58 784.71 672.08 777.26 673.31 769.65C674.53 762.16 681.8 756.87 689.28 758.02C696.78 759.18 702.12 766.4 701.02 773.9V773.91Z" fill="#075AB7"/>
<path d="M678.9 921.95C677.75 929.38 670.75 934.56 663.32 933.49C655.75 932.39 650.43 925.11 651.73 917.6C653.01 910.17 660.1 905.08 667.48 906.29C674.91 907.5 680.05 914.55 678.91 921.95H678.9Z" fill="#075AB7"/>
<path d="M1488.61 802.79C1481.19 801.71 1475.95 794.73 1476.97 787.28C1478 779.71 1485.25 774.35 1492.78 775.59C1500.21 776.81 1505.34 783.86 1504.2 791.26C1503.05 798.69 1496.04 803.87 1488.61 802.79Z" fill="#075AB7"/>
<path d="M772.19 633.36C770.99 640.79 763.95 645.94 756.54 644.8C748.97 643.64 743.7 636.33 745.04 628.84C746.38 621.41 753.5 616.36 760.85 617.62C768.28 618.89 773.38 625.97 772.18 633.35L772.19 633.36Z" fill="#075AB7"/>
<path d="M1118.95 482.7C1119.92 475.29 1126.84 469.97 1134.33 470.88C1141.89 471.8 1147.33 478.99 1146.2 486.56C1145.09 493.98 1138.1 499.2 1130.66 498.15C1123.24 497.11 1117.98 490.15 1118.95 482.69V482.7Z" fill="#075AB7"/>
<path d="M881.44 1254.12C880.38 1261.71 873.61 1266.79 866.04 1265.69C858.47 1264.58 853.43 1257.77 854.59 1250.21C855.72 1242.8 862.35 1237.82 869.77 1238.81C877.37 1239.82 882.5 1246.56 881.45 1254.13L881.44 1254.12Z" fill="#075AB7"/>
<path d="M1195.62 493.72C1194.56 501.31 1187.79 506.39 1180.22 505.28C1172.65 504.17 1167.61 497.37 1168.77 489.8C1169.9 482.39 1176.53 477.41 1183.95 478.4C1191.55 479.41 1196.68 486.15 1195.63 493.72H1195.62Z" fill="#075AB7"/>
<path d="M941.76 507C940.67 514.46 934.05 519.43 926.61 518.38C918.98 517.31 913.98 510.54 915.18 502.92C916.35 495.5 923.04 490.63 930.5 491.76C937.94 492.89 942.86 499.54 941.77 506.99L941.76 507Z" fill="#075AB7"/>
<path d="M1080.86 490.49C1073.44 489.32 1068.57 482.64 1069.7 475.18C1070.85 467.59 1077.69 462.68 1085.32 463.97C1092.69 465.21 1097.47 471.98 1096.26 479.45C1095.06 486.85 1088.33 491.67 1080.86 490.5V490.49Z" fill="#075AB7"/>
<path d="M1426.25 1132.92C1427.3 1125.44 1433.88 1120.42 1441.32 1121.43C1448.97 1122.47 1454.02 1129.19 1452.87 1136.8C1451.74 1144.24 1445.09 1149.16 1437.64 1148.07C1430.18 1146.98 1425.21 1140.37 1426.26 1132.92H1426.25Z" fill="#075AB7"/>
<path d="M732.61 1144.42C725.25 1143.3 720.31 1136.57 721.44 1129.18C722.56 1121.82 729.29 1116.88 736.68 1118.01C744.04 1119.13 748.98 1125.87 747.85 1133.25C746.73 1140.61 740 1145.55 732.61 1144.42Z" fill="#075AB7"/>
<path d="M692.5 735.5C685.12 734.4 680.16 727.69 681.26 720.31C682.36 712.93 689.07 707.97 696.45 709.07C703.83 710.17 708.79 716.88 707.69 724.26C706.59 731.64 699.88 736.6 692.5 735.5Z" fill="#075AB7"/>
<path d="M790.04 1190.26C788.86 1197.53 781.86 1202.51 774.59 1201.23C767.5 1199.98 762.63 1193.13 763.79 1186C764.97 1178.73 771.97 1173.75 779.24 1175.03C786.33 1176.28 791.2 1183.13 790.04 1190.26Z" fill="#075AB7"/>
<path d="M1211.48 1316.42C1204.2 1315.26 1199.22 1308.26 1200.48 1300.99C1201.72 1293.89 1208.56 1289.02 1215.69 1290.16C1222.97 1291.32 1227.95 1298.32 1226.69 1305.59C1225.45 1312.69 1218.61 1317.56 1211.48 1316.42Z" fill="#075AB7"/>
<path d="M1032.09 482.94C1025 481.76 1019.97 474.68 1021.27 467.72C1022.58 460.74 1029.37 455.92 1036.27 457.06C1043.36 458.24 1048.39 465.32 1047.09 472.28C1045.78 479.25 1038.99 484.08 1032.09 482.94Z" fill="#075AB7"/>
<path d="M1531.33 946.23C1530.42 953.3 1523.49 958.51 1516.41 957.46C1509.48 956.42 1504.45 949.74 1505.35 942.76C1506.26 935.69 1513.19 930.48 1520.27 931.53C1527.2 932.57 1532.23 939.25 1531.33 946.23Z" fill="#075AB7"/>
<path d="M706 1077.18C704.9 1084.27 697.87 1089.36 690.87 1088.13C683.91 1086.91 679.02 1080.14 680.09 1073.22C681.19 1066.13 688.22 1061.04 695.22 1062.27C702.17 1063.49 707.07 1070.26 706 1077.18Z" fill="#075AB7"/>
<path d="M645.15 966.6C646.33 959.51 653.41 954.48 660.37 955.78C667.35 957.09 672.17 963.88 671.02 970.78C669.84 977.87 662.76 982.9 655.8 981.59C648.82 980.28 644 973.49 645.15 966.59V966.6Z" fill="#075AB7"/>
<path d="M1286.55 563.21C1283.31 569.13 1277.28 572.18 1270.9 571.17C1264.56 570.17 1259.45 565.24 1258.21 558.92C1256.97 552.58 1259.79 546.04 1265.41 542.91C1266.42 542.35 1268.67 542.26 1269.25 542.93C1275.15 549.58 1280.82 556.44 1286.54 563.22L1286.55 563.21Z" fill="#075AB7"/>
<path d="M1508.98 1006.85C1501.91 1005.71 1497.12 999.11 1498.25 992.06C1499.39 984.99 1505.99 980.2 1513.04 981.33C1520.11 982.47 1524.9 989.07 1523.77 996.12C1522.63 1003.19 1516.03 1007.98 1508.98 1006.85Z" fill="#075AB7"/>
<path d="M1056.44 1342.72C1049.44 1341.65 1044.82 1335.33 1045.89 1328.31C1046.96 1321.31 1053.28 1316.69 1060.3 1317.76C1067.3 1318.83 1071.92 1325.15 1070.85 1332.17C1069.78 1339.17 1063.46 1343.79 1056.44 1342.72Z" fill="#075AB7"/>
<path d="M1007.02 1335.43C999.99 1334.43 995.28 1328.17 996.28 1321.17C997.28 1314.14 1003.54 1309.43 1010.54 1310.43C1017.57 1311.43 1022.28 1317.69 1021.28 1324.69C1020.28 1331.72 1014.02 1336.43 1007.02 1335.43Z" fill="#075AB7"/>
<path d="M1538.05 897.42C1537.05 904.46 1530.81 909.18 1523.8 908.19C1516.76 907.19 1512.04 900.95 1513.03 893.94C1514.03 886.9 1520.27 882.18 1527.28 883.17C1534.32 884.17 1539.04 890.41 1538.05 897.42Z" fill="#075AB7"/>
<path d="M1363.75 1224.02C1364.82 1217.03 1371.14 1212.41 1378.17 1213.48C1385.16 1214.55 1389.78 1220.87 1388.71 1227.9C1387.64 1234.89 1381.32 1239.51 1374.29 1238.44C1367.29 1237.37 1362.68 1231.05 1363.75 1224.02Z" fill="#075AB7"/>
<path d="M1317.36 1280.7C1310.37 1279.62 1305.75 1273.3 1306.83 1266.28C1307.9 1259.29 1314.23 1254.67 1321.25 1255.75C1328.24 1256.82 1332.86 1263.15 1331.78 1270.17C1330.71 1277.16 1324.38 1281.78 1317.36 1280.7Z" fill="#075AB7"/>
<path d="M699.97 685.11C693.01 684.08 688.3 677.63 689.42 670.67C690.51 663.9 696.83 659.28 703.63 660.28C710.59 661.31 715.3 667.76 714.18 674.72C713.09 681.49 706.77 686.11 699.97 685.11Z" fill="#075AB7"/>
<path d="M1501.81 1056.08C1494.87 1055.03 1490.17 1048.55 1491.32 1041.6C1492.43 1034.84 1498.78 1030.25 1505.58 1031.28C1512.52 1032.33 1517.21 1038.81 1516.07 1045.76C1514.96 1052.52 1508.61 1057.11 1501.81 1056.08Z" fill="#075AB7"/>
<path d="M817.51 1257.41C810.78 1256.51 805.91 1250.13 806.81 1243.38C807.71 1236.65 814.09 1231.78 820.84 1232.68C827.57 1233.58 832.44 1239.96 831.54 1246.71C830.64 1253.44 824.26 1258.31 817.51 1257.41Z" fill="#075AB7"/>
<path d="M957.45 1327.95C950.73 1327 945.9 1320.58 946.85 1313.85C947.8 1307.13 954.22 1302.3 960.95 1303.25C967.67 1304.2 972.5 1310.62 971.55 1317.35C970.6 1324.07 964.18 1328.9 957.45 1327.95Z" fill="#075AB7"/>
<path d="M820.23 552.36C813.5 551.43 808.66 545.02 809.59 538.28C810.52 531.55 816.93 526.71 823.67 527.64C830.4 528.57 835.24 534.98 834.31 541.72C833.38 548.45 826.97 553.29 820.23 552.36Z" fill="#075AB7"/>
<path d="M1495.87 752.84C1490.38 752 1486.2 747.84 1485.29 742.34C1484.43 737.08 1487.01 731.84 1491.76 729.23C1496.09 726.85 1498.75 727.15 1502.57 730.42C1503.63 731.33 1504.8 732.11 1505.83 733.05C1510.86 737.6 1511.69 740.69 1509.33 745.71C1506.91 750.85 1501.52 753.7 1495.87 752.84Z" fill="#075AB7"/>
<path d="M1105.39 1349.7C1098.72 1348.72 1093.87 1342.08 1094.98 1335.47C1096.08 1328.93 1102.46 1324.26 1108.99 1325.22C1115.66 1326.2 1120.51 1332.84 1119.4 1339.45C1118.3 1345.99 1111.92 1350.66 1105.39 1349.7Z" fill="#075AB7"/>
<path d="M996.68 464.39C995.76 470.98 989.49 475.7 982.88 474.77C976.29 473.85 971.57 467.58 972.5 460.97C973.42 454.38 979.69 449.66 986.3 450.59C992.89 451.51 997.61 457.78 996.68 464.39Z" fill="#075AB7"/>
<path d="M777.99 583.52C776.93 590.12 770.59 594.73 764.02 593.67C757.42 592.61 752.81 586.27 753.87 579.7C754.93 573.1 761.27 568.49 767.84 569.55C774.44 570.61 779.05 576.95 777.99 583.52Z" fill="#075AB7"/>
<path d="M1430.51 1196.44C1423.92 1195.5 1419.22 1189.21 1420.17 1182.61C1421.11 1176.02 1427.4 1171.32 1434 1172.27C1440.59 1173.21 1445.29 1179.5 1444.34 1186.1C1443.4 1192.69 1437.11 1197.39 1430.51 1196.44Z" fill="#075AB7"/>
<path d="M639.02 1016.68C639.95 1010.03 645.77 1005.61 652.38 1006.53C659.03 1007.46 663.45 1013.28 662.53 1019.89C661.6 1026.54 655.78 1030.96 649.17 1030.04C642.52 1029.11 638.1 1023.29 639.02 1016.68Z" fill="#075AB7"/>
<path d="M866.96 496.18C867.86 489.4 873.86 484.87 880.61 485.87C887.21 486.85 891.63 492.71 890.75 499.3C889.85 506.08 883.85 510.61 877.1 509.61C870.5 508.64 866.08 502.78 866.96 496.18Z" fill="#075AB7"/>
<path d="M1521 844.33C1522 837.58 1528.07 833.15 1534.82 834.25C1541.39 835.32 1545.72 841.25 1544.74 847.85C1543.74 854.6 1537.67 859.03 1530.92 857.93C1524.35 856.86 1520.03 850.93 1521 844.33Z" fill="#075AB7"/>
<path d="M1508.21 1094.33C1507.19 1100.93 1501.28 1105.24 1494.65 1104.21C1488.05 1103.19 1483.74 1097.28 1484.77 1090.65C1485.79 1084.05 1491.7 1079.74 1498.33 1080.77C1504.93 1081.79 1509.24 1087.7 1508.21 1094.33Z" fill="#075AB7"/>
<path d="M1250.67 1308.72C1251.66 1302.11 1257.55 1297.77 1264.17 1298.76C1270.78 1299.75 1275.12 1305.64 1274.13 1312.26C1273.14 1318.87 1267.25 1323.21 1260.63 1322.22C1254.02 1321.23 1249.68 1315.34 1250.67 1308.72Z" fill="#075AB7"/>
<path d="M922.02 1310.15C921.03 1316.71 915 1321.08 908.42 1320C902.05 1318.95 897.77 1313.04 898.73 1306.62C899.72 1300.06 905.75 1295.69 912.33 1296.77C918.7 1297.82 922.98 1303.73 922.02 1310.14V1310.15Z" fill="#075AB7"/>
<path d="M1155.23 1356.27C1148.98 1355.45 1144.36 1349.29 1145.32 1343.04C1146.26 1336.93 1152.18 1332.49 1158.33 1333.29C1164.58 1334.11 1169.2 1340.27 1168.24 1346.52C1167.3 1352.63 1161.38 1357.07 1155.23 1356.27Z" fill="#075AB7"/>
<path d="M1217.99 496.13C1218.79 492.2 1221.49 488.83 1225.94 486.74C1228.3 485.63 1229.72 486.28 1231.04 488.4C1234.17 493.42 1237.32 498.44 1240.74 503.27C1242.29 505.46 1242.03 506.91 1240.23 508.63C1236.18 512.51 1230.11 513.48 1225.06 510.93C1219.86 508.31 1216.96 502.73 1217.99 496.14V496.13Z" fill="#075AB7"/>
<path d="M716.02 1179.19C716.9 1172.98 722.85 1168.57 729.04 1169.52C735.26 1170.47 739.61 1176.44 738.6 1182.63C737.61 1188.7 731.9 1192.94 725.8 1192.14C719.58 1191.32 715.13 1185.43 716.02 1179.2V1179.19Z" fill="#075AB7"/>
<path d="M641.68 814.89C640.86 821.11 634.97 825.56 628.74 824.67C622.53 823.79 618.12 817.84 619.07 811.65C620 805.58 625.67 801.29 631.79 802.03C638 802.78 642.51 808.64 641.69 814.89H641.68Z" fill="#075AB7"/>
<path d="M621.28 874.25C615.06 873.27 610.73 867.29 611.76 861.11C612.8 854.9 618.84 850.61 624.98 851.71C631.05 852.79 635.22 858.56 634.33 864.63C633.42 870.84 627.46 875.23 621.27 874.26L621.28 874.25Z" fill="#075AB7"/>
<path d="M635.76 775.6C629.57 774.6 625.55 769.06 626.51 762.84C627.49 756.49 633.21 752.41 639.58 753.53C645.73 754.62 649.66 760.24 648.61 766.45C647.57 772.62 641.98 776.6 635.77 775.59L635.76 775.6Z" fill="#075AB7"/>
<path d="M696.9 1125.72C695.95 1131.93 690.44 1136 684.22 1135.09C677.85 1134.16 673.72 1128.48 674.79 1122.11C675.83 1115.94 681.41 1111.96 687.63 1112.96C693.82 1113.96 697.84 1119.5 696.89 1125.72H696.9Z" fill="#075AB7"/>
<path d="M697.91 622.39C698.76 616.15 704.19 611.97 710.4 612.77C716.8 613.59 721.04 619.2 720.08 625.56C719.14 631.77 713.64 635.85 707.43 634.96C701.2 634.07 697.07 628.61 697.92 622.39H697.91Z" fill="#075AB7"/>
<path d="M1538.52 807.43C1532.33 806.49 1528.29 800.93 1529.28 794.72C1530.26 788.56 1535.86 784.56 1542.07 785.59C1548.06 786.58 1552.02 792.03 1551.15 798.08C1550.25 804.28 1544.72 808.38 1538.53 807.43H1538.52Z" fill="#075AB7"/>
<path d="M946.6 457.25C945.63 463.18 940.03 467.23 934.08 466.31C927.99 465.37 923.88 459.58 924.97 453.49C926.03 447.59 931.7 443.64 937.65 444.65C943.56 445.66 947.57 451.3 946.6 457.25Z" fill="#075AB7"/>
<path d="M1150.55 437.4C1149.63 443.28 1143.86 447.45 1138.02 446.47C1132.15 445.49 1128.03 439.68 1129.07 433.86C1130.09 428.14 1135.65 424.12 1141.38 424.96C1147.26 425.82 1151.48 431.54 1150.56 437.41L1150.55 437.4Z" fill="#075AB7"/>
<path d="M614.11 923.32C608.23 922.44 604.02 916.71 604.96 910.85C605.9 904.97 611.67 900.82 617.51 901.81C623.24 902.79 627.29 908.31 626.49 914.06C625.67 919.94 619.98 924.2 614.1 923.32H614.11Z" fill="#075AB7"/>
<path d="M850.04 1299.3C851.02 1293.43 856.83 1289.3 862.65 1290.34C868.52 1291.38 872.59 1297.23 871.5 1303.03C870.42 1308.75 864.83 1312.72 859.11 1311.83C853.23 1310.91 849.06 1305.15 850.04 1299.3Z" fill="#075AB7"/>
<path d="M1491.06 1131.36C1496.92 1132.43 1500.98 1138.29 1499.86 1144.08C1498.73 1149.94 1492.84 1153.94 1487.06 1152.77C1481.35 1151.61 1477.44 1145.96 1478.41 1140.28C1479.41 1134.41 1485.24 1130.3 1491.05 1131.36H1491.06Z" fill="#075AB7"/>
<path d="M1187.51 453.63C1181.77 452.57 1177.75 446.81 1178.79 441.17C1179.85 435.43 1185.61 431.41 1191.25 432.45C1196.99 433.51 1201.01 439.27 1199.97 444.91C1198.91 450.65 1193.15 454.67 1187.51 453.63Z" fill="#075AB7"/>
<path d="M758.97 1236.06C759.88 1230.33 765.55 1226.19 771.25 1227.1C776.98 1228.01 781.12 1233.68 780.21 1239.38C779.3 1245.11 773.63 1249.25 767.93 1248.34C762.2 1247.43 758.06 1241.76 758.97 1236.06Z" fill="#075AB7"/>
<path d="M1088.85 438.83C1082.96 438.06 1078.93 432.73 1079.8 426.86C1080.65 421.14 1085.82 417.23 1091.55 417.98C1097.44 418.75 1101.47 424.08 1100.6 429.95C1099.75 435.67 1094.58 439.58 1088.85 438.83Z" fill="#075AB7"/>
<path d="M1195.95 1350.67C1196.73 1344.95 1201.87 1340.97 1207.6 1341.65C1213.49 1342.35 1217.59 1347.65 1216.78 1353.52C1215.98 1359.4 1210.6 1363.4 1204.74 1362.48C1199.03 1361.59 1195.16 1356.39 1195.94 1350.66L1195.95 1350.67Z" fill="#075AB7"/>
<path d="M1367.41 1285.96C1361.69 1285.14 1357.75 1279.98 1358.47 1274.25C1359.21 1268.36 1364.53 1264.3 1370.4 1265.14C1376.28 1265.98 1380.24 1271.38 1379.28 1277.24C1378.35 1282.95 1373.13 1286.78 1367.4 1285.96H1367.41Z" fill="#075AB7"/>
<path d="M643.32 725.36C637.45 724.48 633.53 719.06 634.51 713.2C635.47 707.5 640.72 703.7 646.44 704.56C652.31 705.44 656.23 710.86 655.24 716.72C654.28 722.42 649.03 726.22 643.31 725.36H643.32Z" fill="#075AB7"/>
<path d="M633.21 1066.5C634.01 1060.64 639.08 1056.8 644.91 1057.64C650.75 1058.48 654.54 1063.59 653.66 1069.43C652.8 1075.1 647.84 1078.86 642.18 1078.12C636.31 1077.36 632.42 1072.31 633.21 1066.5Z" fill="#075AB7"/>
<path d="M1423.51 1243.38C1417.68 1242.51 1413.92 1237.38 1414.83 1231.54C1415.74 1225.74 1420.91 1222.02 1426.75 1222.97C1432.39 1223.89 1436.06 1228.91 1435.26 1234.59C1434.43 1240.43 1429.33 1244.25 1423.5 1243.38H1423.51Z" fill="#075AB7"/>
<path d="M783.22 534.43C782.33 540.02 777.2 543.75 771.59 542.9C765.84 542.03 762.05 536.73 763.07 530.97C764.05 525.42 769.26 521.78 774.86 522.72C780.43 523.65 784.11 528.82 783.22 534.43Z" fill="#075AB7"/>
<path d="M1310.54 1327.85C1305.05 1327.06 1301.12 1321.76 1301.97 1316.28C1302.82 1310.79 1308.16 1306.92 1313.62 1307.82C1318.95 1308.7 1322.74 1313.82 1322.03 1319.17C1321.3 1324.66 1316.03 1328.64 1310.54 1327.85Z" fill="#075AB7"/>
<path d="M819.24 488.97C820.03 483.48 825.33 479.55 830.81 480.4C836.3 481.25 840.17 486.59 839.27 492.05C838.39 497.38 833.27 501.17 827.92 500.46C822.43 499.73 818.45 494.46 819.24 488.97Z" fill="#075AB7"/>
<path d="M607.08 971.4C601.59 970.62 597.65 965.33 598.48 959.85C599.31 954.36 604.65 950.47 610.12 951.36C615.45 952.23 619.25 957.34 618.55 962.69C617.83 968.18 612.58 972.17 607.08 971.4Z" fill="#075AB7"/>
<path d="M1051.29 422.58C1050.55 427.88 1045.31 431.83 1039.99 431.09C1034.69 430.35 1030.74 425.11 1031.48 419.79C1032.22 414.49 1037.46 410.54 1042.78 411.28C1048.08 412.02 1052.03 417.26 1051.29 422.58Z" fill="#075AB7"/>
<path d="M1577.03 953.28C1576.17 958.59 1570.85 962.44 1565.58 961.58C1560.27 960.72 1556.42 955.4 1557.28 950.13C1558.14 944.82 1563.46 940.97 1568.73 941.83C1574.04 942.69 1577.89 948.01 1577.03 953.28Z" fill="#075AB7"/>
<path d="M1569.7 1002.94C1568.79 1008.25 1563.44 1012.06 1558.18 1011.16C1552.87 1010.25 1549.06 1004.9 1549.96 999.64C1550.87 994.33 1556.22 990.52 1561.48 991.42C1566.79 992.33 1570.6 997.68 1569.7 1002.94Z" fill="#075AB7"/>
<path d="M650.95 674.72C645.73 674.01 642.15 669.32 642.86 664.11C643.57 658.88 648.26 655.31 653.47 656.02C658.69 656.73 662.27 661.42 661.56 666.63C660.85 671.85 656.16 675.43 650.95 674.72Z" fill="#075AB7"/>
<path d="M810.56 1303.19C805.36 1302.41 801.86 1297.66 802.64 1292.45C803.42 1287.25 808.17 1283.75 813.38 1284.53C818.58 1285.31 822.08 1290.06 821.3 1295.27C820.52 1300.47 815.77 1303.97 810.56 1303.19Z" fill="#075AB7"/>
<path d="M1572.85 912.32C1567.46 911.47 1564.04 906.7 1564.94 901.28C1565.83 895.92 1570.64 892.54 1576.06 893.48C1581.26 894.38 1584.59 899.04 1583.81 904.3C1583 909.71 1578.27 913.18 1572.85 912.32Z" fill="#075AB7"/>
<path d="M706.88 572.93C707.66 567.51 712.37 564.02 717.79 564.84C723.19 565.66 726.64 570.42 725.77 575.83C724.93 581.06 720.33 584.47 715.08 583.75C709.65 583.01 706.1 578.33 706.88 572.92V572.93Z" fill="#075AB7"/>
<path d="M1000.21 1381.86C994.98 1381.15 991.41 1376.46 992.11 1371.26C992.82 1366.03 997.51 1362.45 1002.71 1363.16C1007.94 1363.87 1011.52 1368.56 1010.81 1373.76C1010.1 1378.99 1005.41 1382.56 1000.21 1381.86Z" fill="#075AB7"/>
<path d="M1551.04 1060.2C1545.85 1059.39 1542.38 1054.62 1543.19 1049.41C1544 1044.22 1548.77 1040.75 1553.98 1041.56C1559.17 1042.37 1562.64 1047.14 1561.83 1052.35C1561.02 1057.54 1556.25 1061.01 1551.04 1060.2Z" fill="#075AB7"/>
<path d="M1480.51 1200.92C1475.44 1200.19 1471.78 1195.2 1472.63 1190.15C1473.45 1185.24 1478.26 1181.72 1483.18 1182.43C1488.25 1183.16 1491.91 1188.15 1491.06 1193.2C1490.24 1198.11 1485.43 1201.63 1480.51 1200.92Z" fill="#075AB7"/>
<path d="M1049.88 1389.1C1044.81 1388.47 1041.07 1383.53 1041.82 1378.47C1042.55 1373.56 1047.29 1369.96 1052.23 1370.57C1057.3 1371.2 1061.04 1376.14 1060.29 1381.2C1059.56 1386.11 1054.82 1389.71 1049.88 1389.1Z" fill="#075AB7"/>
<path d="M884.86 457.24C879.94 456.52 876.33 451.63 877.11 446.73C877.89 441.82 882.84 438.25 887.7 439.09C892.47 439.91 895.92 444.59 895.28 449.38C894.63 454.29 889.77 457.95 884.85 457.24H884.86Z" fill="#075AB7"/>
<path d="M687.33 1174.82C686.64 1179.79 682.25 1183.11 677.28 1182.42C672.31 1181.73 668.99 1177.34 669.68 1172.37C670.37 1167.4 674.76 1164.08 679.73 1164.77C684.7 1165.46 688.02 1169.85 687.33 1174.82Z" fill="#075AB7"/>
<path d="M943.04 1364.03C943.7 1359.05 948.07 1355.7 953.03 1356.35C958.01 1357.01 961.36 1361.38 960.71 1366.34C960.05 1371.31 955.68 1374.67 950.72 1374.02C945.75 1373.36 942.39 1368.99 943.04 1364.03Z" fill="#075AB7"/>
<path d="M983.01 412.39C983.83 407.45 988.32 404.25 993.27 405.08C998.21 405.9 1001.41 410.39 1000.58 415.34C999.76 420.28 995.27 423.48 990.32 422.65C985.38 421.83 982.18 417.34 983.01 412.39Z" fill="#075AB7"/>
<path d="M1572.87 852.01C1573.59 847.04 1578 843.76 1582.97 844.48C1587.94 845.2 1591.22 849.61 1590.5 854.58C1589.78 859.55 1585.37 862.83 1580.4 862.11C1575.43 861.39 1572.15 856.98 1572.87 852.01Z" fill="#075AB7"/>
<path d="M1091.07 1385.67C1091.84 1380.72 1096.29 1377.47 1101.25 1378.25C1106.2 1379.02 1109.45 1383.47 1108.67 1388.43C1107.9 1393.38 1103.45 1396.63 1098.49 1395.85C1093.54 1395.08 1090.29 1390.63 1091.07 1385.67Z" fill="#075AB7"/>
<path d="M1253.83 1368.11C1248.87 1367.34 1245.62 1362.9 1246.39 1357.94C1247.16 1352.98 1251.6 1349.73 1256.56 1350.5C1261.52 1351.27 1264.77 1355.71 1264 1360.67C1263.23 1365.63 1258.79 1368.88 1253.83 1368.11Z" fill="#075AB7"/>
<path d="M599.99 1019.6C595.12 1018.92 591.9 1014.71 592.53 1009.87C593.19 1004.83 597.55 1001.56 602.57 1002.36C607.4 1003.13 610.53 1007.41 609.81 1012.26C609.09 1017.1 604.84 1020.29 599.99 1019.61V1019.6Z" fill="#075AB7"/>
<path d="M711.47 1229.23C712.12 1224.49 716.53 1221.18 721.26 1221.88C725.99 1222.58 729.25 1227.03 728.5 1231.75C727.77 1236.32 723.52 1239.51 718.93 1238.94C714.19 1238.34 710.82 1233.97 711.47 1229.23Z" fill="#075AB7"/>
<path d="M1553.82 1100.9C1553.15 1105.63 1548.73 1108.93 1544 1108.21C1539.27 1107.49 1536.03 1103.03 1536.8 1098.31C1537.54 1093.75 1541.81 1090.57 1546.4 1091.16C1551.14 1091.77 1554.49 1096.16 1553.82 1100.9Z" fill="#075AB7"/>
<path d="M644.39 1117.89C643.74 1122.32 639.57 1125.45 635.13 1124.85C630.54 1124.23 627.32 1119.84 628.12 1115.29C628.89 1110.87 633.12 1107.84 637.54 1108.55C641.96 1109.26 645.04 1113.46 644.39 1117.89Z" fill="#075AB7"/>
<path d="M894.92 1356.71C895.62 1352.29 899.81 1349.19 904.24 1349.83C908.82 1350.49 912 1354.91 911.17 1359.45C910.36 1363.86 906.09 1366.86 901.68 1366.11C897.26 1365.36 894.22 1361.13 894.91 1356.71H894.92Z" fill="#075AB7"/>
<path d="M1141.54 1393.38C1142.13 1388.76 1146.04 1385.79 1150.63 1386.47C1155.06 1387.13 1157.94 1390.92 1157.37 1395.34C1156.78 1399.96 1152.86 1402.93 1148.28 1402.25C1143.85 1401.59 1140.97 1397.8 1141.54 1393.38Z" fill="#075AB7"/>
<path d="M658.27 624.45C653.68 623.78 650.79 619.81 651.56 615.21C652.29 610.81 656.15 608.01 660.58 608.66C665.17 609.33 668.06 613.3 667.29 617.9C666.56 622.3 662.7 625.1 658.27 624.45Z" fill="#075AB7"/>
<path d="M1360.35 1332.88C1356.02 1332.2 1353.11 1328.15 1353.84 1323.81C1354.57 1319.49 1358.66 1316.63 1362.99 1317.41C1367.15 1318.16 1369.94 1322.07 1369.33 1326.26C1368.7 1330.61 1364.68 1333.56 1360.35 1332.88Z" fill="#075AB7"/>
<path d="M1425.48 1283.85C1424.87 1288.2 1420.87 1291.17 1416.53 1290.51C1412.19 1289.85 1409.27 1285.81 1409.98 1281.47C1410.67 1277.29 1414.52 1274.43 1418.71 1274.98C1423.07 1275.54 1426.09 1279.51 1425.48 1283.85Z" fill="#075AB7"/>
<path d="M589.27 807.48C588.54 811.8 584.45 814.66 580.12 813.88C575.82 813.1 573 808.96 573.84 804.65C574.64 800.51 578.58 797.76 582.77 798.42C587.1 799.1 590.01 803.15 589.28 807.49L589.27 807.48Z" fill="#075AB7"/>
<path d="M581.83 857.03C581.13 861.13 576.9 864.1 572.85 863.35C568.76 862.59 565.84 858.32 566.65 854.29C567.44 850.36 571.47 847.52 575.4 848.14C579.5 848.78 582.53 852.96 581.83 857.03Z" fill="#075AB7"/>
<path d="M1349.11 617.05C1356.78 622.76 1363.91 628.07 1371.42 633.66C1365.75 636.53 1360.67 636.13 1355.91 632.99C1350.53 629.44 1348.41 624.24 1349.11 617.06V617.05Z" fill="#075AB7"/>
<path d="M787.83 484.2C787.28 488.28 783.55 491.13 779.46 490.58C775.38 490.03 772.53 486.3 773.08 482.21C773.63 478.13 777.36 475.28 781.45 475.83C785.53 476.38 788.38 480.11 787.83 484.2Z" fill="#075AB7"/>
<path d="M941.8 414C937.73 413.34 934.98 409.53 935.64 405.46C936.3 401.39 940.11 398.64 944.18 399.3C948.25 399.96 951 403.77 950.34 407.84C949.68 411.91 945.87 414.66 941.8 414Z" fill="#075AB7"/>
<path d="M587.76 764.72C583.68 764.17 580.83 760.44 581.37 756.35C581.92 752.27 585.65 749.42 589.74 749.96C593.82 750.5 596.67 754.24 596.13 758.33C595.59 762.41 591.85 765.26 587.76 764.72Z" fill="#075AB7"/>
<path d="M761.39 1293.91C757.31 1293.36 754.46 1289.63 755 1285.54C755.55 1281.46 759.28 1278.61 763.37 1279.16C767.45 1279.71 770.3 1283.44 769.76 1287.53C769.21 1291.61 765.48 1294.46 761.39 1293.91Z" fill="#075AB7"/>
<path d="M1545.09 1150.21C1544.55 1154.27 1541.09 1156.93 1537.06 1156.4C1533 1155.86 1530.34 1152.4 1530.87 1148.37C1531.41 1144.31 1534.87 1141.65 1538.9 1142.18C1542.96 1142.72 1545.62 1146.18 1545.09 1150.21Z" fill="#075AB7"/>
<path d="M573.83 906.53C573.19 910.27 569.56 912.88 565.81 912.29C561.91 911.68 559.22 907.83 560 903.97C560.75 900.25 564.46 897.74 568.18 898.43C571.91 899.12 574.47 902.79 573.83 906.53Z" fill="#075AB7"/>
<path d="M722.55 532.44C718.8 531.91 716.08 528.35 716.56 524.59C717.06 520.67 720.83 517.88 724.72 518.55C728.46 519.19 731.07 522.82 730.48 526.57C729.89 530.32 726.3 532.98 722.54 532.44H722.55Z" fill="#075AB7"/>
<path d="M860.45 1351.5C860 1355.26 856.49 1358.05 852.72 1357.65C848.8 1357.24 845.93 1353.52 846.51 1349.62C847.07 1345.87 850.64 1343.18 854.4 1343.69C858.16 1344.2 860.9 1347.73 860.44 1351.5H860.45Z" fill="#075AB7"/>
<path d="M1297.8 1365.74C1298.28 1361.98 1301.79 1359.21 1305.57 1359.64C1309.49 1360.08 1312.33 1363.81 1311.73 1367.71C1311.14 1371.46 1307.56 1374.12 1303.8 1373.59C1300.05 1373.06 1297.33 1369.5 1297.81 1365.74H1297.8Z" fill="#075AB7"/>
<path d="M1473.67 1247.46C1469.91 1246.94 1467.19 1243.4 1467.65 1239.63C1468.13 1235.71 1471.89 1232.91 1475.78 1233.56C1479.52 1234.18 1482.15 1237.8 1481.58 1241.55C1481.01 1245.3 1477.43 1247.98 1473.67 1247.46Z" fill="#075AB7"/>
<path d="M1192.28 1400.67C1192.84 1397 1196.65 1394.27 1200.27 1394.95C1203.79 1395.61 1206.36 1399.21 1205.83 1402.72C1205.27 1406.39 1201.46 1409.12 1197.84 1408.44C1194.32 1407.78 1191.75 1404.18 1192.28 1400.67Z" fill="#075AB7"/>
<path d="M829.81 439.86C830.33 436.19 834.11 433.43 837.75 434.07C841.26 434.69 843.87 438.27 843.37 441.79C842.85 445.46 839.07 448.22 835.43 447.58C831.92 446.96 829.31 443.38 829.81 439.86Z" fill="#075AB7"/>
<path d="M1146.17 392.91C1142.51 392.4 1139.74 388.62 1140.36 384.98C1140.97 381.47 1144.54 378.85 1148.07 379.34C1151.73 379.85 1154.51 383.63 1153.88 387.27C1153.27 390.78 1149.7 393.4 1146.17 392.91Z" fill="#075AB7"/>
<path d="M595.15 1053.82C598.81 1054.55 601.38 1058.47 600.54 1062.03C599.71 1065.55 596.02 1067.98 592.57 1067.28C588.91 1066.55 586.34 1062.63 587.18 1059.07C588.01 1055.55 591.7 1053.12 595.15 1053.82Z" fill="#075AB7"/>
<path d="M595.03 714.17C591.43 713.59 589.12 710.43 589.65 706.81C590.2 703.05 593.56 700.67 597.31 701.37C600.87 702.04 603.1 705.29 602.47 708.89C601.84 712.48 598.65 714.74 595.03 714.16V714.17Z" fill="#075AB7"/>
<path d="M1091.33 377.7C1091.95 374.16 1095.28 371.91 1098.82 372.64C1102.18 373.33 1104.32 376.5 1103.72 379.91C1103.1 383.45 1099.77 385.7 1096.23 384.97C1092.87 384.28 1090.73 381.11 1091.33 377.7Z" fill="#075AB7"/>
<path d="M558.65 960.2C555.39 959.63 553 956.13 553.68 952.93C554.34 949.83 557.64 947.58 560.72 948.12C563.98 948.69 566.37 952.19 565.69 955.39C565.03 958.49 561.73 960.74 558.65 960.2Z" fill="#075AB7"/>
<path d="M1611.07 958.1C1611.59 954.9 1614.37 952.87 1617.58 953.34C1620.93 953.83 1623.04 956.82 1622.4 960.15C1621.79 963.31 1618.92 965.26 1615.72 964.69C1612.54 964.12 1610.55 961.3 1611.07 958.1Z" fill="#075AB7"/>
<path d="M665.84 572.65C662.64 572.14 660.6 569.37 661.05 566.16C661.53 562.81 664.51 560.68 667.85 561.32C671.01 561.92 672.97 564.78 672.41 567.98C671.85 571.16 669.04 573.16 665.84 572.65Z" fill="#075AB7"/>
<path d="M670.45 1228.65C667.45 1228.24 665.36 1225.55 665.72 1222.55C666.1 1219.39 668.99 1217.23 672.12 1217.77C675.11 1218.28 677.09 1221.03 676.63 1224.03C676.17 1227.03 673.45 1229.06 670.45 1228.65Z" fill="#075AB7"/>
<path d="M1047.79 377.03C1044.8 376.53 1042.81 373.78 1043.27 370.78C1043.75 367.63 1046.7 365.57 1049.83 366.2C1052.78 366.8 1054.69 369.64 1054.13 372.62C1053.58 375.59 1050.78 377.54 1047.79 377.03Z" fill="#075AB7"/>
<path d="M1603.95 1007.94C1604.33 1004.93 1607 1002.81 1610 1003.14C1613.17 1003.48 1615.36 1006.34 1614.86 1009.49C1614.38 1012.48 1611.65 1014.5 1608.65 1014.07C1605.64 1013.64 1603.58 1010.95 1603.96 1007.94H1603.95Z" fill="#075AB7"/>
<path d="M623.68 1165.45C624.12 1162.71 626.89 1160.65 629.65 1161.03C632.54 1161.43 634.7 1164.46 634.13 1167.3C633.58 1170.02 630.7 1171.99 628 1171.5C625.26 1171.01 623.25 1168.19 623.69 1165.45H623.68Z" fill="#075AB7"/>
<path d="M803.85 1348.69C801.11 1348.27 799.03 1345.51 799.39 1342.75C799.77 1339.86 802.79 1337.68 805.63 1338.24C808.35 1338.78 810.34 1341.64 809.87 1344.35C809.39 1347.09 806.58 1349.11 803.85 1348.69Z" fill="#075AB7"/>
<path d="M892.68 404.59C889.94 404.22 887.81 401.49 888.13 398.72C888.46 395.84 891.45 393.61 894.3 394.11C897.04 394.6 899.06 397.41 898.63 400.14C898.2 402.88 895.43 404.95 892.68 404.58V404.59Z" fill="#075AB7"/>
<path d="M1529.95 1204.14C1527.21 1203.78 1525.08 1201.05 1525.38 1198.28C1525.7 1195.4 1528.68 1193.16 1531.54 1193.66C1534.28 1194.14 1536.3 1196.95 1535.88 1199.68C1535.46 1202.42 1532.69 1204.5 1529.94 1204.14H1529.95Z" fill="#075AB7"/>
<path d="M598.13 657.54C598.44 654.81 601.17 652.63 603.93 652.89C606.81 653.16 609.09 656.11 608.64 658.99C608.21 661.73 605.43 663.8 602.68 663.42C599.94 663.05 597.82 660.31 598.14 657.54H598.13Z" fill="#075AB7"/>
<path d="M993.64 1425.99C990.29 1425.51 988.58 1423.51 989 1420.57C989.4 1417.81 992.17 1415.72 994.94 1416.08C997.69 1416.44 999.83 1419.19 999.51 1421.97C999.17 1424.91 996.9 1426.46 993.64 1426V1425.99Z" fill="#075AB7"/>
<path d="M1442.83 684.24C1448.68 688.57 1453.86 692.4 1459.2 696.34C1451.64 698.83 1444.23 693.61 1442.83 684.24Z" fill="#075AB7"/>
<path d="M1606.93 1058.84C1606.56 1061.66 1604.18 1063.44 1601.37 1063.02C1598.56 1062.59 1596.77 1060.17 1597.32 1057.38C1597.89 1054.51 1599.73 1053.13 1602.64 1053.38C1605.47 1053.63 1607.3 1056.04 1606.93 1058.84Z" fill="#075AB7"/>
<path d="M717.44 1279.88C716.66 1282.61 714.92 1284.23 712.05 1283.74C709.21 1283.26 707.78 1281.22 708.27 1278.38C708.73 1275.74 710.67 1274.32 713.34 1274.65C716.23 1275.01 717.45 1277.03 717.44 1279.88Z" fill="#075AB7"/>
<path d="M1048.64 1430.53C1046.14 1430.56 1043.62 1430.64 1041.1 1430.61C1038.49 1430.58 1038.06 1429.02 1038.88 1426.96C1039.98 1424.2 1042.14 1422.96 1045.06 1423.54C1048.07 1424.14 1049.3 1426.68 1048.64 1430.54V1430.53Z" fill="#075AB7"/>
<path d="M944.51 1417.12C942.45 1416.53 939.56 1416.5 940.15 1413.14C940.62 1410.49 942.6 1409.06 945.28 1409.47C948.15 1409.9 949.56 1411.89 949.2 1414.78C948.85 1417.62 946.94 1417.95 944.5 1417.13L944.51 1417.12Z" fill="#075AB7"/>
<path d="M581.97 1107.83C583.69 1106.94 585.39 1105.37 587.13 1105.33C589.84 1105.27 591.22 1107.39 590.75 1110.12C590.31 1112.67 588.4 1114.19 586.03 1113.38C584.36 1112.82 583.15 1110.9 581.73 1109.59C581.81 1109 581.89 1108.42 581.97 1107.83Z" fill="#075AB7"/>
<path d="M997.72 368.99C996.79 367.3 995.16 365.63 995.08 363.9C994.96 361.2 997.02 359.75 999.78 360.16C1002.33 360.54 1003.91 362.4 1003.16 364.8C1002.64 366.49 1000.76 367.75 999.48 369.2C998.89 369.13 998.31 369.06 997.72 369V368.99Z" fill="#075AB7"/>
<path d="M550.75 1008.4C549.89 1006.67 548.36 1004.94 548.34 1003.2C548.32 1000.47 550.47 999.15 553.19 999.65C555.73 1000.12 557.22 1002.07 556.37 1004.43C555.78 1006.09 553.84 1007.27 552.5 1008.67C551.92 1008.58 551.33 1008.49 550.75 1008.4Z" fill="#075AB7"/>
<path d="M1625.1 915.86C1621.16 915.97 1618.96 914.58 1618.36 911.52C1617.75 908.44 1618.86 905.99 1622.46 904.71C1623.34 908.42 1624.17 911.91 1625.1 915.86Z" fill="#075AB7"/>
<path d="M726.49 474.47C728.13 473.66 730.01 471.92 731.33 472.28C732.74 472.66 734.39 475 734.43 476.53C734.46 477.58 731.85 479.62 730.53 479.53C729.04 479.43 727.68 477.44 726.27 476.26C726.34 475.66 726.42 475.07 726.49 474.47Z" fill="#075AB7"/>
<path d="M1590.55 1105.51C1592.2 1104.73 1594 1103.15 1595.45 1103.42C1596.75 1103.66 1598.79 1106.29 1598.49 1107.26C1598.03 1108.75 1595.89 1110.6 1594.42 1110.64C1593.07 1110.68 1591.67 1108.51 1590.29 1107.31C1590.37 1106.71 1590.45 1106.11 1590.54 1105.51H1590.55Z" fill="#075AB7"/>
<path d="M786.98 438.53C785.76 435.93 784.3 434.27 784.63 433.13C784.98 431.92 787.16 430.32 788.28 430.5C789.4 430.68 790.96 432.89 790.91 434.15C790.86 435.34 788.96 436.45 786.98 438.53Z" fill="#075AB7"/>
<path d="M605.72 608.41C608.35 607.27 610.05 605.86 611.18 606.22C612.38 606.61 613.91 608.84 613.7 609.95C613.48 611.06 611.23 612.56 609.97 612.47C608.78 612.38 607.73 610.44 605.72 608.41Z" fill="#075AB7"/>
<path d="M673.43 522.43C672.27 520.32 670.81 518.82 671.12 517.96C671.55 516.78 673.31 516.08 674.5 515.18C675.31 516.33 676.79 517.5 676.75 518.61C676.71 519.67 675.07 520.65 673.43 522.43Z" fill="#075AB7"/>
<path d="M946.02 356.66C948.1 355.44 949.56 353.94 950.43 354.22C951.62 354.61 952.37 356.36 953.3 357.53C952.18 358.38 951.05 359.89 949.94 359.87C948.88 359.85 947.84 358.24 946.02 356.65V356.66Z" fill="#075AB7"/>
<path d="M843.13 395.42C842.35 393.54 841.35 392.28 841.64 391.51C841.95 390.67 843.46 389.88 844.46 389.87C845.01 389.87 846.16 391.6 846.01 392.35C845.82 393.27 844.57 393.98 843.14 395.42H843.13Z" fill="#075AB7"/>
</g>
<mask id="mask0_1_1382" style="mask-type:luminance" maskUnits="userSpaceOnUse" x="0" y="204" width="1520" height="1190">
<path d="M1511.25 560.32C1502.71 537.91 1487.7 517.9 1479.36 495.41C1479.11 494.75 1478.89 494.08 1478.65 493.41V721.7C1509.31 672.11 1533.07 617.61 1511.24 560.32H1511.25ZM1455.89 756.59C1423.79 804.23 1392.26 851.9 1372.21 905.71C1363.53 928.99 1356.92 953.45 1345.53 975.93C1330.53 1005.53 1310.89 1028.7 1309.13 1062.62C1307.5 1093.99 1310.06 1124.7 1304.97 1157.19C1294.95 1221.19 1255.91 1293.21 1212.08 1337.34C1163.49 1386.27 1051.13 1431.21 1019.9 1344.87C1009.95 1317.36 1009 1295.27 1023.37 1270.36C1036.31 1247.92 1051.86 1243.24 1076.64 1231.08C1091 1241.86 1067.91 1206.34 1057.39 1175.99C1050.14 1155.07 1045.21 1134.83 1040.87 1112.71C1014.15 976.47 1019.99 829.56 1053.89 695.49C1070.24 630.8 1099.86 567.16 1126.36 505.88C1148.66 454.3 1170.34 396.41 1198.23 347.91C1220.39 309.37 1245.71 270.88 1293.99 275.14C1372.31 282.04 1435.06 344.6 1459.14 417.42C1467.43 442.48 1469.93 468.83 1478.67 493.43V204.79H0V1393.77H1478.65V721.7C1471.28 733.62 1463.51 745.26 1455.88 756.59H1455.89Z" fill="white"/>
</mask>
<g mask="url(#mask0_1_1382)">
<path opacity="0.53" d="M676.18 297.51C839.94 311.94 858.5 230.73 1042.93 234.25C1115.3 235.63 1299.6 239.14 1405.71 376.15C1412.92 385.47 1505.69 508.96 1470.87 645.2C1437.23 776.8 1324.08 765.61 1261.44 911.87C1202.63 1049.2 1279.23 1113.15 1210.48 1221.68C1138.24 1335.72 993.76 1359.68 959.45 1365.37C949.41 1367.04 773.63 1393.37 625.88 1279.75C528.03 1204.5 556.19 1155.3 458.51 1039.99C301.71 854.88 163.19 903.81 84.86 753.23C26.95 641.91 43.1 500.69 99.56 397.76C111.3 376.35 192.99 232.46 340.73 207.94C470.86 186.35 502.61 282.21 676.18 297.51Z" fill="#075AB7"/>
<path d="M629.2 320.56C792.96 334.99 811.52 253.78 995.95 257.3C1068.32 258.68 1252.62 262.19 1358.73 399.2C1365.94 408.52 1458.71 532.01 1423.89 668.25C1390.25 799.85 1277.1 788.66 1214.46 934.92C1155.65 1072.25 1232.25 1136.2 1163.5 1244.73C1091.26 1358.77 946.78 1382.73 912.47 1388.42C902.43 1390.09 726.65 1416.42 578.9 1302.8C481.05 1227.55 509.21 1178.35 411.53 1063.04C254.73 877.93 116.21 926.86 37.88 776.28C-20.03 664.96 -3.88 523.74 52.58 420.81C64.32 399.4 146.01 255.51 293.75 230.99C423.88 209.4 455.63 305.26 629.2 320.56Z" stroke="#FFD514" stroke-width="3.14" stroke-miterlimit="10"/>
</g>
<mask id="mask1_1_1382" style="mask-type:luminance" maskUnits="userSpaceOnUse" x="1012" y="274" width="508" height="1120">
<path d="M1076.62 1231.08C1051.84 1243.24 1036.3 1247.92 1023.35 1270.36C1008.98 1295.27 1009.93 1317.36 1019.88 1344.87C1051.11 1431.21 1163.47 1386.27 1212.06 1337.34C1255.89 1293.2 1294.93 1221.19 1304.95 1157.19C1310.04 1124.71 1307.48 1093.99 1309.11 1062.62C1310.87 1028.7 1330.52 1005.53 1345.51 975.93C1356.9 953.44 1363.51 928.99 1372.19 905.71C1392.24 851.9 1423.77 804.23 1455.87 756.59C1495.23 698.17 1538.3 631.38 1511.23 560.32C1502.69 537.91 1487.68 517.9 1479.34 495.41C1470.01 470.25 1467.62 443.14 1459.1 417.4C1435.02 344.58 1372.27 282.02 1293.95 275.12C1245.67 270.87 1220.35 309.35 1198.19 347.89C1170.3 396.39 1148.63 454.29 1126.32 505.86C1099.82 567.14 1070.2 630.78 1053.85 695.47C1019.96 829.55 1014.11 976.46 1040.83 1112.69C1045.17 1134.81 1050.1 1155.05 1057.35 1175.97C1067.87 1206.32 1090.96 1241.84 1076.6 1231.06C1090.96 1241.84 1051.82 1243.22 1076.6 1231.06L1076.62 1231.08Z" fill="white"/>
</mask>
<g mask="url(#mask1_1_1382)">
<path d="M629.2 320.56C792.96 334.99 811.52 253.78 995.95 257.3C1068.32 258.68 1252.62 262.19 1358.73 399.2C1365.94 408.52 1458.71 532.01 1423.89 668.25C1390.25 799.85 1277.1 788.66 1214.46 934.92C1155.65 1072.25 1232.25 1136.2 1163.5 1244.73C1091.26 1358.77 946.78 1382.73 912.47 1388.42C902.43 1390.09 726.65 1416.42 578.9 1302.8C481.05 1227.55 509.21 1178.35 411.53 1063.04C254.73 877.93 116.21 926.86 37.88 776.28C-20.03 664.96 -3.88 523.74 52.58 420.81C64.32 399.4 146.01 255.51 293.75 230.99C423.88 209.4 455.63 305.26 629.2 320.56Z" stroke="#FFD514" stroke-width="3.14" stroke-miterlimit="10"/>
<path opacity="0.53" d="M676.18 297.51C839.94 311.94 858.5 230.73 1042.93 234.25C1115.3 235.63 1299.6 239.14 1405.71 376.15C1412.92 385.47 1505.69 508.96 1470.87 645.2C1437.23 776.8 1324.08 765.61 1261.44 911.87C1202.63 1049.2 1279.23 1113.15 1210.48 1221.68C1138.24 1335.72 993.76 1359.68 959.45 1365.37C949.41 1367.04 773.63 1393.37 625.88 1279.75C528.03 1204.5 556.19 1155.3 458.51 1039.99C301.71 854.88 163.19 903.81 84.86 753.23C26.95 641.91 43.1 500.69 99.56 397.76C111.3 376.35 192.99 232.46 340.73 207.94C470.86 186.35 502.61 282.21 676.18 297.51Z" fill="#075AB7"/>
</g>
<path d="M1149.06 724.9C1035.34 835.13 1082.82 899.83 964.03 1032.01C917.42 1083.87 798.71 1215.96 632.01 1206.93C620.67 1206.32 472.23 1196.09 394.9 1084.85C320.21 977.4 399.67 902 332.57 764.19C269.57 634.79 174.7 650.3 138.94 531.81C101.37 407.3 174.96 286.92 192.44 258.34C197.55 249.97 289.14 105.29 465.05 69.24C581.55 45.36 599.65 96.89 745.23 98.38C978.93 100.78 1030.57 -30.99 1189.66 6.83001C1307.27 34.79 1400 135.55 1439.41 241.56C1447.61 263.61 1500.98 413.82 1425.74 536.92C1359.46 645.35 1269.6 608.07 1149.07 724.9H1149.06Z" fill="#075AB7"/>
</g>
</svg>
