<?xml version="1.0" encoding="UTF-8"?>
<svg id="Layer_2" data-name="Layer 2" xmlns="http://www.w3.org/2000/svg" xmlns:xlink="http://www.w3.org/1999/xlink" viewBox="0 0 242 267">
  <defs>
    <style>
      .cls-1 {
        letter-spacing: -.02em;
      }

      .cls-2, .cls-3, .cls-4 {
        fill: #fff;
      }

      .cls-3 {
        stroke: #fff;
        stroke-width: .25px;
      }

      .cls-3, .cls-4 {
        stroke-miterlimit: 10;
      }

      .cls-5 {
        font-size: 5.26px;
      }

      .cls-5, .cls-6 {
        fill: #0045ea;
      }

      .cls-5, .cls-7 {
        font-family: Inter-Regular, Inter;
        font-variation-settings: 'wght' 400, 'slnt' 0;
      }

      .cls-8 {
        letter-spacing: -.02em;
      }

      .cls-9 {
        letter-spacing: -.01em;
      }

      .cls-4 {
        stroke: #7da0ef;
        stroke-width: .5px;
      }

      .cls-10 {
        letter-spacing: -.02em;
      }

      .cls-11 {
        letter-spacing: 0em;
      }

      .cls-12 {
        letter-spacing: -.02em;
      }

      .cls-13 {
        letter-spacing: -.05em;
      }

      .cls-14 {
        fill-rule: evenodd;
      }

      .cls-14, .cls-15, .cls-7 {
        fill: #8cb1f4;
      }

      .cls-16 {
        letter-spacing: .01em;
      }

      .cls-17 {
        letter-spacing: -.02em;
      }

      .cls-18 {
        letter-spacing: 0em;
      }

      .cls-19 {
        fill: #3f5ca8;
      }

      .cls-7 {
        font-size: 5.02px;
      }

      .cls-20 {
        letter-spacing: 0em;
      }

      .cls-21 {
        letter-spacing: -.02em;
      }

      .cls-22 {
        letter-spacing: -.02em;
      }

      .cls-23 {
        fill: #d6e1ff;
        filter: url(#drop-shadow-1);
      }

      .cls-24 {
        letter-spacing: .03em;
      }

      .cls-25 {
        letter-spacing: .01em;
      }

      .cls-26 {
        fill: url(#linear-gradient);
      }
    </style>
    <filter id="drop-shadow-1" filterUnits="userSpaceOnUse">
      <feOffset dx="9" dy="18"/>
      <feGaussianBlur result="blur" stdDeviation="9"/>
      <feFlood flood-color="#021123" flood-opacity=".1"/>
      <feComposite in2="blur" operator="in"/>
      <feComposite in="SourceGraphic"/>
    </filter>
    <linearGradient id="linear-gradient" x1="202.69" y1="109.89" x2="20.84" y2="109.89" gradientUnits="userSpaceOnUse">
      <stop offset="0" stop-color="#40c4e5"/>
      <stop offset="1" stop-color="#4d63ad"/>
    </linearGradient>
  </defs>
  <g id="Layer_1-2" data-name="Layer 1">
    <g>
      <rect class="cls-23" x="18.5" y="9.19" width="187.49" height="212.29" rx="8.93" ry="8.93"/>
      <g>
        <g>
          <path class="cls-4" d="m196.94,175.18v-34.84c0-3.01-2.49-5.44-5.55-5.44H33.1c-3.07,0-5.55,2.44-5.55,5.44v67.33c0,3.01,2.49,5.44,5.55,5.44h158.29c3.07,0,5.55-2.44,5.55-5.44v-32.49Z"/>
          <path class="cls-4" d="m196.94,142.64v-2.8c0-2.73-2.26-4.94-5.05-4.94H32.59c-2.79,0-5.05,2.21-5.05,4.94v10.09h169.4v-7.29Z"/>
          <g>
            <path class="cls-15" d="m35.52,145.03c.21.09.41.13.6.13,1.07,0,1.6-.47,1.6-1.4,0-.32-.06-.57-.17-.75-.08-.12-.16-.23-.26-.31s-.19-.15-.29-.19-.21-.08-.34-.1c-.13-.02-.25-.04-.36-.04s-.24,0-.4,0c-.21,0-.35.01-.43.04,0,.15,0,.37,0,.66,0,.3,0,.51,0,.66,0,.02,0,.12,0,.28s0,.3,0,.4,0,.22.02.35.03.22.05.28Zm-.06-3.11c.12.02.27.03.46.03.23,0,.44-.02.61-.05.17-.04.33-.1.47-.19s.25-.21.32-.37.11-.36.11-.59c0-.19-.04-.37-.12-.51s-.19-.26-.34-.34-.3-.14-.46-.18-.34-.06-.53-.06c-.14,0-.33.02-.55.05,0,.14,0,.35.02.63s.02.49.02.63c0,.08,0,.19,0,.33s0,.26,0,.33c0,.13,0,.22,0,.29Zm-2.31,3.71v-.39c.05-.01.17-.03.37-.07.2-.03.35-.07.45-.11.02-.03.04-.07.05-.11s.03-.09.04-.14.02-.1.02-.14.01-.09.01-.16,0-.11,0-.14v-.27c0-2.73-.03-4.16-.09-4.28-.01-.02-.04-.04-.09-.06-.05-.02-.11-.03-.19-.05s-.15-.02-.21-.03-.13-.01-.21-.02-.12,0-.13-.01l-.02-.35c.28,0,.76-.02,1.45-.05.69-.03,1.22-.04,1.59-.04.07,0,.16,0,.29,0s.23,0,.29,0c.2,0,.39.02.58.05s.37.09.55.18.33.18.46.3.24.26.32.44.12.37.12.57c0,.14-.02.28-.07.4s-.1.22-.17.3-.16.16-.27.24-.22.14-.31.19-.21.1-.36.17c.44.1.8.28,1.09.56s.44.62.44,1.04c0,.28-.05.53-.15.75s-.23.4-.4.54-.36.26-.59.36-.46.16-.7.2-.49.06-.75.06c-.12,0-.31,0-.56-.01s-.44-.01-.56-.01c-.3,0-.74.02-1.31.05s-.9.05-.98.05Z"/>
            <path class="cls-15" d="m49.2,145.15c0,.09.02.16.06.21.04.05.11.08.19.1.09.02.21.03.38.04l-.04.18c-.29-.02-.69-.03-1.19-.03s-.92,0-1.2.03l.05-.18c.22,0,.39-.03.5-.07.11-.04.2-.11.26-.22.07-.11.13-.27.19-.5l1.24-4.57c.05-.19.08-.34.08-.44,0-.09-.02-.16-.06-.21-.04-.05-.11-.08-.19-.1-.09-.02-.21-.03-.37-.04l.05-.18c.26.02.65.03,1.19.03.5,0,.91,0,1.2-.03l-.05.18c-.23,0-.4.03-.51.07-.11.04-.2.11-.27.22s-.13.27-.19.5l-1.24,4.57c-.05.2-.08.35-.08.44Z"/>
            <path class="cls-15" d="m59.71,139.62c-.11,0-.17-.01-.19-.02v-.37s.08,0,.16,0c.17,0,.33,0,.48.02.37.02.61.03.71.03.24,0,.48,0,.72-.01.33-.01.54-.02.62-.02.16,0,.28,0,.37,0v.06s0,.27,0,.27v.04c-.17.03-.35.04-.53.04-.17,0-.28.03-.34.1-.04.04-.06.22-.06.55,0,.04,0,.08,0,.14s0,.09,0,.11v.96s.06,1.17.06,1.17c.02.35.09.63.22.84.1.16.24.29.41.38.25.13.5.2.75.2.3,0,.57-.04.81-.12.16-.05.3-.12.42-.21.14-.1.23-.19.28-.27.1-.16.18-.31.23-.48.06-.2.09-.52.09-.96,0-.22,0-.4-.01-.53s-.03-.31-.05-.51-.04-.43-.06-.67l-.02-.25c-.01-.19-.05-.31-.1-.37-.1-.1-.21-.14-.33-.14h-.43s-.06,0-.06,0v-.36h.37l.87.04c.22,0,.49,0,.83-.04h.08c.02.11.03.19.03.22,0,.02,0,.06-.02.13-.13.03-.25.05-.36.05-.21.03-.32.05-.34.07-.04.04-.06.1-.06.17,0,.02,0,.06,0,.11s0,.1,0,.13c.02.05.05.6.09,1.65.02.54,0,.97-.06,1.27-.04.21-.1.38-.17.51-.11.18-.27.35-.48.51-.21.16-.47.28-.78.37-.31.09-.67.14-1.09.14-.47,0-.88-.06-1.21-.19-.34-.13-.59-.3-.76-.51-.17-.21-.29-.48-.35-.81-.05-.22-.07-.55-.07-.99v-1.39c0-.52-.02-.82-.07-.89-.07-.1-.28-.15-.63-.16Zm6.34,5.88v-.27s-.01-.07-.04-.1-.06-.04-.1-.04h-6.27s-.07.01-.1.04-.04.06-.04.1v.27s.01.07.04.1.06.04.1.04h6.27s.07-.01.1-.04.04-.06.04-.1Z"/>
            <path class="cls-15" d="m76.83,139.81c0-.18.15-.33.33-.33h5.34c.18,0,.33.15.33.33s-.15.33-.33.33h-5.34c-.18,0-.33-.15-.33-.33Zm5.67,2.29h-5.34c-.18,0-.33.15-.33.33s.15.33.33.33h5.34c.18,0,.33-.15.33-.33s-.15-.33-.33-.33Zm0,2.62h-5.34c-.18,0-.33.15-.33.33s.15.33.33.33h5.34c.18,0,.33-.15.33-.33s-.15-.33-.33-.33Zm-7.18-2.78c-.28,0-.5.22-.5.49s.22.49.5.49.5-.22.5-.49-.22-.49-.5-.49Zm0-2.62c-.28,0-.5.22-.5.49s.22.49.5.49.5-.22.5-.49-.22-.49-.5-.49Zm0,5.23c-.28,0-.5.22-.5.49s.22.49.5.49.5-.22.5-.49-.22-.49-.5-.49Z"/>
            <g>
              <g>
                <path class="cls-15" d="m96.75,142.63h-4.75c-.17,0-.3-.13-.3-.29s.13-.29.3-.29h4.75c.17,0,.3.13.3.29s-.13.29-.3.29Z"/>
                <path class="cls-15" d="m96.75,145.29h-4.75c-.17,0-.3-.13-.3-.29s.13-.29.3-.29h4.75c.17,0,.3.13.3.29s-.13.29-.3.29Z"/>
                <path class="cls-15" d="m96.75,139.97h-4.75c-.17,0-.3-.13-.3-.29s.13-.29.3-.29h4.75c.17,0,.3.13.3.29s-.13.29-.3.29Z"/>
              </g>
              <path class="cls-14" d="m90.22,140.68v-1.44h-.03l-.46.31v-.41l.49-.32h.49v1.87h-.49Z"/>
              <path class="cls-14" d="m89.56,142.05c0-.38.31-.64.75-.64s.71.23.71.56c0,.22-.1.37-.41.64l-.38.33v.02h.8v.37h-1.45v-.32l.68-.61c.24-.21.28-.29.28-.4,0-.13-.09-.24-.26-.24-.18,0-.28.12-.28.28h-.45Zm.48,3.14v-.32h.25c.16,0,.27-.09.27-.23,0-.13-.1-.22-.26-.22s-.28.09-.28.24h-.44c0-.36.3-.6.75-.6s.69.23.69.51c0,.23-.15.38-.36.42v.02c.28.04.43.21.43.45,0,.33-.33.57-.79.57s-.76-.24-.78-.61h.46c0,.14.13.23.31.23s.3-.09.3-.24-.11-.24-.3-.24h-.25Z"/>
            </g>
          </g>
          <text class="cls-7" transform="translate(171.33 208.57) scale(1.02 1)"><tspan class="cls-13" x="0" y="0">W</tspan><tspan x="4.51" y="0">o</tspan><tspan class="cls-12" x="7.5" y="0">r</tspan><tspan x="9.28" y="0">ds:0</tspan></text>
          <text class="cls-7" transform="translate(33.48 158.68) scale(1.02 1)"><tspan x="0" y="0">Sta</tspan><tspan class="cls-24" x="7.86" y="0">r</tspan><tspan x="9.9" y="0">t writing...</tspan></text>
        </g>
        <g>
          <rect class="cls-4" x="27.35" y="17.57" width="169.79" height="68.43" rx="6.29" ry="6.29"/>
          <g>
            <text class="cls-5" transform="translate(32.88 43.44) scale(.97 1)"><tspan class="cls-11" x="0" y="0">R</tspan><tspan x="3.33" y="0">esul</tspan><tspan class="cls-20" x="13.46" y="0">t</tspan><tspan x="15.32" y="0">s-dri</tspan><tspan class="cls-21" x="26.97" y="0">v</tspan><tspan x="29.79" y="0">en mar</tspan><tspan class="cls-8" x="46.92" y="0">k</tspan><tspan x="49.67" y="0">eting manager wi</tspan><tspan class="cls-16" x="92.49" y="0">t</tspan><tspan x="94.47" y="0">h 3+ </tspan><tspan class="cls-21" x="107.35" y="0">y</tspan><tspan x="110.18" y="0">ears of </tspan><tspan class="cls-9" x="128.92" y="0">e</tspan><tspan x="131.91" y="0">xperience in </tspan><tspan x="0" y="6.93">d</tspan><tspan class="cls-1" x="3.27" y="6.93">e</tspan><tspan class="cls-10" x="6.24" y="6.93">v</tspan><tspan x="9.07" y="6.93">eloping and implementing successful mar</tspan><tspan class="cls-8" x="111.98" y="6.93">k</tspan><tspan x="114.73" y="6.93">eting campaigns </tspan><tspan x="0" y="13.85">ac</tspan><tspan class="cls-1" x="5.91" y="13.85">r</tspan><tspan x="7.78" y="13.85">oss multiple channels. </tspan><tspan x="0" y="20.78">Skilled in identifying ta</tspan><tspan class="cls-1" x="56.14" y="20.78">r</tspan><tspan x="58.01" y="20.78">get audiences, and </tspan><tspan class="cls-16" x="106.87" y="20.78">t</tspan><tspan x="108.84" y="20.78">hri</tspan><tspan class="cls-21" x="115.16" y="20.78">v</tspan><tspan x="117.99" y="20.78">es in a </tspan><tspan class="cls-17" x="135.54" y="20.78">f</tspan><tspan x="137.36" y="20.78">as</tspan><tspan class="cls-21" x="143.08" y="20.78">t</tspan><tspan x="144.89" y="20.78">-paced </tspan><tspan x="0" y="27.71">e</tspan><tspan class="cls-21" x="3.07" y="27.71">n</tspan><tspan x="6.04" y="27.71">vi</tspan><tspan class="cls-22" x="10.22" y="27.71">r</tspan><tspan x="12.09" y="27.71">onment, enj</tspan><tspan class="cls-21" x="41.29" y="27.71">o</tspan><tspan x="44.33" y="27.71">ys collaborating wi</tspan><tspan class="cls-25" x="90.83" y="27.71">t</tspan><tspan x="92.8" y="27.71">h c</tspan><tspan class="cls-22" x="100.33" y="27.71">r</tspan><tspan x="102.2" y="27.71">oss-functional </tspan><tspan class="cls-11" x="139.32" y="27.71">t</tspan><tspan x="141.2" y="27.71">eams </tspan><tspan class="cls-18" x="156.04" y="27.71">t</tspan><tspan x="157.93" y="27.71">o </tspan><tspan x="0" y="34.63">achi</tspan><tspan class="cls-1" x="10.26" y="34.63">e</tspan><tspan class="cls-10" x="13.24" y="34.63">v</tspan><tspan x="16.07" y="34.63">e business objecti</tspan><tspan class="cls-21" x="60.89" y="34.63">v</tspan><tspan x="63.71" y="34.63">es.</tspan></text>
            <g>
              <g>
                <path class="cls-6" d="m159.64,28.34v-.65h3.2v.65h-3.2Zm1.28,1.32v-3.28h.64v3.28h-.64Z"/>
                <g>
                  <path class="cls-6" d="m166.29,30.24h-.71l1.59-4.53h.77l1.59,4.53h-.71l-1.25-3.71h-.03l-1.25,3.71Zm.12-1.77h2.29v.58h-2.29v-.58Z"/>
                  <path class="cls-6" d="m171.29,30.31c-.27,0-.5-.07-.71-.21-.21-.14-.37-.34-.49-.6s-.18-.58-.18-.94.06-.68.18-.94.28-.46.49-.6c.21-.14.45-.21.71-.21.21,0,.37.04.5.11.13.07.22.15.29.24.07.09.12.17.16.25h.04v-1.68h.64v4.53h-.63v-.53h-.05c-.04.07-.09.15-.17.25-.07.09-.17.17-.3.24-.13.07-.29.1-.49.1Zm.14-.56c.19,0,.34-.05.47-.15.13-.1.23-.24.29-.42s.1-.39.1-.63-.03-.44-.1-.62-.16-.31-.29-.41-.29-.15-.47-.15-.36.05-.48.15c-.13.1-.23.24-.29.42s-.1.38-.1.6.03.43.1.61.16.32.29.43.29.16.48.16Z"/>
                  <path class="cls-6" d="m175.09,30.31c-.27,0-.5-.07-.71-.21-.21-.14-.37-.34-.49-.6s-.18-.58-.18-.94.06-.68.18-.94.28-.46.49-.6c.21-.14.45-.21.71-.21.21,0,.37.04.5.11.13.07.22.15.29.24.07.09.12.17.16.25h.04v-1.68h.64v4.53h-.63v-.53h-.05c-.04.07-.09.15-.17.25-.07.09-.17.17-.3.24-.13.07-.29.1-.49.1Zm.14-.56c.19,0,.34-.05.47-.15.13-.1.23-.24.29-.42s.1-.39.1-.63-.03-.44-.1-.62-.16-.31-.29-.41-.29-.15-.47-.15-.36.05-.48.15c-.13.1-.23.24-.29.42s-.1.38-.1.6.03.43.1.61.16.32.29.43.29.16.48.16Z"/>
                  <path class="cls-6" d="m182.86,25.71v4.53h-.61l-2.24-3.32h-.04v3.32h-.67v-4.53h.62l2.24,3.33h.04v-3.33h.66Z"/>
                  <path class="cls-6" d="m185.21,30.31c-.33,0-.61-.07-.84-.22-.23-.14-.42-.35-.54-.61-.13-.26-.19-.57-.19-.92s.06-.66.19-.92c.13-.27.31-.47.53-.62s.5-.22.8-.22c.19,0,.37.03.54.1s.33.16.47.3c.14.14.25.31.33.53.08.22.12.48.12.79v.23h-2.63v-.5h2c0-.17-.03-.33-.1-.46-.07-.14-.17-.24-.29-.32-.12-.08-.27-.12-.44-.12-.18,0-.34.05-.47.14s-.24.21-.31.35-.11.3-.11.47v.39c0,.23.04.42.12.58.08.16.19.28.33.36.14.08.31.13.49.13.12,0,.23-.02.33-.05.1-.04.19-.09.26-.16.07-.07.13-.16.17-.27l.61.11c-.05.18-.14.35-.26.48-.13.14-.28.24-.47.32-.19.08-.4.11-.65.11Z"/>
                  <path class="cls-6" d="m188.05,30.24l-.97-3.4h.67l.65,2.5h.03l.65-2.5h.67l.65,2.49h.03l.64-2.49h.67l-.97,3.4h-.66l-.67-2.45h-.05l-.67,2.45h-.65Z"/>
                </g>
              </g>
              <g>
                <path class="cls-6" d="m32.76,30.23v-5.8h2.01c.44,0,.8.08,1.09.25.29.16.5.39.65.67.14.28.21.6.21.96s-.07.68-.22.96c-.14.28-.36.51-.65.67-.29.17-.65.25-1.09.25h-1.38v-.74h1.31c.28,0,.5-.05.67-.15.17-.1.3-.23.38-.41s.12-.37.12-.59-.04-.41-.12-.58-.21-.3-.38-.4c-.17-.1-.4-.14-.68-.14h-1.07v5.05h-.85Z"/>
                <path class="cls-6" d="m37.65,30.23v-4.35h.8v.69h.04c.08-.23.21-.42.41-.55s.42-.2.67-.2c.05,0,.11,0,.18,0,.07,0,.13,0,.17.01v.81s-.09-.02-.18-.03c-.08-.01-.17-.02-.25-.02-.19,0-.37.04-.52.13-.15.08-.27.2-.36.35-.09.15-.13.32-.13.51v2.65h-.82Z"/>
                <path class="cls-6" d="m42.26,30.32c-.4,0-.74-.09-1.04-.28-.3-.19-.52-.45-.69-.78-.16-.34-.25-.73-.25-1.18s.08-.85.25-1.18c.16-.34.39-.6.69-.79.3-.19.64-.28,1.04-.28s.74.09,1.04.28.53.45.69.79c.16.34.25.73.25,1.18s-.08.84-.25,1.18c-.16.34-.39.6-.69.78s-.64.28-1.04.28Zm0-.71c.26,0,.47-.07.64-.21s.29-.33.38-.56c.08-.23.12-.49.12-.77s-.04-.53-.12-.77c-.08-.23-.21-.42-.38-.56-.17-.14-.38-.21-.64-.21s-.47.07-.64.21c-.17.14-.3.33-.38.56s-.12.49-.12.77.04.54.12.77.21.42.38.56c.17.14.38.21.64.21Z"/>
                <path class="cls-6" d="m47.16,25.88v.68h-2.39v-.68h2.39Zm-1.74,4.35v-4.85c0-.27.06-.5.17-.68.12-.18.27-.32.46-.4.19-.09.4-.13.62-.13.17,0,.31.01.42.04.12.03.2.05.26.07l-.19.68s-.09-.02-.15-.04-.13-.02-.22-.02c-.2,0-.34.05-.43.15-.09.1-.13.25-.13.44v4.74h-.82Z"/>
                <path class="cls-6" d="m49.66,30.32c-.42,0-.78-.09-1.08-.28-.3-.18-.53-.44-.69-.78-.16-.33-.24-.73-.24-1.18s.08-.84.24-1.18.39-.6.68-.8c.29-.19.64-.29,1.03-.29.24,0,.47.04.69.12.22.08.43.21.6.38s.32.4.42.68c.1.28.15.61.15,1.01v.3h-3.36v-.63h2.56c0-.22-.04-.42-.13-.59-.09-.17-.21-.31-.37-.41-.16-.1-.34-.15-.56-.15-.23,0-.43.06-.6.17-.17.12-.3.27-.4.45-.09.19-.14.39-.14.6v.49c0,.29.05.54.15.74.1.2.24.36.42.47s.39.16.63.16c.16,0,.3-.02.43-.07.13-.05.24-.12.33-.21.09-.09.17-.21.22-.34l.78.14c-.06.24-.17.44-.33.62-.16.18-.36.31-.6.41-.24.1-.52.15-.83.15Z"/>
                <path class="cls-6" d="m55.56,26.94l-.75.14c-.03-.1-.08-.19-.15-.28-.07-.09-.16-.16-.27-.22-.11-.06-.26-.08-.43-.08-.23,0-.43.05-.58.16s-.23.24-.23.41c0,.15.05.26.16.35.1.09.27.16.51.22l.67.16c.39.09.68.24.87.43.19.19.29.44.29.75,0,.26-.07.49-.22.69-.15.2-.35.36-.61.48s-.56.17-.9.17c-.47,0-.86-.1-1.16-.31-.3-.21-.48-.51-.55-.89l.8-.12c.05.21.15.37.31.48.15.11.36.16.6.16.27,0,.49-.06.65-.17.16-.12.24-.26.24-.43,0-.14-.05-.25-.15-.34s-.25-.16-.45-.21l-.72-.16c-.39-.09-.69-.24-.87-.44-.19-.2-.28-.46-.28-.77,0-.26.07-.48.21-.67.14-.19.33-.34.58-.45.25-.11.53-.16.85-.16.46,0,.82.1,1.08.3.26.2.44.47.52.81Z"/>
                <path class="cls-6" d="m59.72,26.94l-.75.14c-.03-.1-.08-.19-.15-.28-.07-.09-.16-.16-.27-.22-.11-.06-.26-.08-.43-.08-.23,0-.43.05-.58.16s-.23.24-.23.41c0,.15.05.26.16.35.1.09.27.16.51.22l.67.16c.39.09.68.24.87.43.19.19.29.44.29.75,0,.26-.07.49-.22.69-.15.2-.35.36-.61.48s-.56.17-.9.17c-.47,0-.86-.1-1.16-.31-.3-.21-.48-.51-.55-.89l.8-.12c.05.21.15.37.31.48.15.11.36.16.6.16.27,0,.49-.06.65-.17.16-.12.24-.26.24-.43,0-.14-.05-.25-.15-.34s-.25-.16-.45-.21l-.72-.16c-.39-.09-.69-.24-.87-.44-.19-.2-.28-.46-.28-.77,0-.26.07-.48.21-.67.14-.19.33-.34.58-.45.25-.11.53-.16.85-.16.46,0,.82.1,1.08.3.26.2.44.47.52.81Z"/>
                <path class="cls-6" d="m61.12,25.21c-.14,0-.27-.05-.37-.15-.1-.1-.15-.22-.15-.36s.05-.26.15-.36c.1-.1.22-.15.37-.15s.27.05.37.15c.1.1.15.22.15.36s-.05.26-.15.36c-.1.1-.22.15-.37.15Zm-.42,5.02v-4.35h.82v4.35h-.82Z"/>
                <path class="cls-6" d="m64.42,30.32c-.4,0-.74-.09-1.04-.28-.3-.19-.52-.45-.69-.78-.16-.34-.25-.73-.25-1.18s.08-.85.25-1.18c.16-.34.39-.6.69-.79.3-.19.64-.28,1.04-.28s.74.09,1.04.28.53.45.69.79c.16.34.25.73.25,1.18s-.08.84-.25,1.18c-.16.34-.39.6-.69.78s-.64.28-1.04.28Zm0-.71c.26,0,.47-.07.64-.21s.29-.33.38-.56c.08-.23.12-.49.12-.77s-.04-.53-.12-.77c-.08-.23-.21-.42-.38-.56-.17-.14-.38-.21-.64-.21s-.47.07-.64.21c-.17.14-.3.33-.38.56s-.12.49-.12.77.04.54.12.77.21.42.38.56c.17.14.38.21.64.21Z"/>
                <path class="cls-6" d="m68.13,27.65v2.58h-.82v-4.35h.79v.71h.05c.1-.23.25-.41.46-.55s.47-.21.79-.21c.29,0,.54.06.76.19s.38.31.5.55c.12.24.18.54.18.9v2.76h-.82v-2.66c0-.31-.08-.56-.24-.74-.16-.18-.38-.27-.66-.27-.19,0-.36.04-.51.13-.15.08-.26.21-.35.37-.09.16-.13.36-.13.59Z"/>
                <path class="cls-6" d="m73.17,30.32c-.27,0-.51-.05-.73-.15s-.39-.25-.51-.45-.19-.44-.19-.72c0-.25.05-.45.14-.61.09-.16.22-.28.37-.38.16-.09.33-.16.52-.21.19-.05.39-.08.59-.11.25-.03.46-.05.62-.07s.27-.05.34-.1c.07-.05.11-.12.11-.22v-.02c0-.25-.07-.44-.2-.57s-.34-.2-.6-.2-.5.06-.65.19c-.16.13-.27.26-.33.42l-.77-.18c.09-.26.23-.48.4-.64.18-.16.38-.28.61-.36.23-.07.47-.11.73-.11.17,0,.35.02.54.06s.37.11.53.22c.17.11.3.26.41.46.11.2.16.46.16.77v2.89h-.8v-.59h-.03c-.05.11-.13.22-.24.32-.11.11-.24.19-.41.26-.17.07-.37.1-.6.1Zm.18-.68c.23,0,.42-.05.59-.14.16-.09.29-.21.37-.36.09-.15.13-.31.13-.48v-.56s-.09.06-.17.08c-.08.03-.18.05-.29.07s-.21.03-.31.05c-.1.01-.19.03-.25.04-.16.02-.31.06-.44.1-.13.05-.24.12-.31.21s-.12.21-.12.36c0,.21.08.37.23.47.15.11.34.16.58.16Z"/>
                <path class="cls-6" d="m77.18,24.43v5.8h-.82v-5.8h.82Z"/>
                <path class="cls-6" d="m83.48,25.96c-.03-.27-.15-.48-.36-.62-.21-.15-.48-.22-.8-.22-.23,0-.43.04-.6.11-.17.07-.3.18-.39.31-.09.13-.14.28-.14.44,0,.14.03.26.1.36s.15.18.25.25.22.12.33.17c.12.04.23.08.34.11l.55.15c.18.05.36.11.55.18.19.08.36.18.53.31s.29.28.39.47c.1.19.15.41.15.67,0,.33-.08.62-.25.87-.16.25-.4.46-.71.6-.31.15-.69.22-1.13.22s-.79-.07-1.1-.21c-.31-.14-.55-.33-.72-.59-.17-.25-.27-.55-.29-.9h.85c.02.21.08.38.2.52.12.14.27.24.45.31.18.07.38.1.6.1.24,0,.45-.04.64-.12.19-.08.34-.19.44-.33s.16-.31.16-.49c0-.17-.05-.31-.14-.42s-.22-.2-.38-.27-.34-.14-.54-.19l-.67-.19c-.45-.13-.81-.31-1.07-.56s-.4-.57-.4-.97c0-.33.09-.63.26-.87.18-.25.42-.44.72-.58.3-.14.64-.21,1.02-.21s.72.07,1.01.21.52.33.69.57.26.52.26.83h-.82Z"/>
                <path class="cls-6" d="m88.01,28.43v-2.54h.83v4.35h-.81v-.75h-.04c-.1.23-.25.43-.47.58s-.48.23-.8.23c-.27,0-.51-.06-.72-.19-.21-.12-.37-.31-.49-.55-.12-.24-.18-.54-.18-.9v-2.77h.82v2.66c0,.3.08.53.24.71s.37.26.62.26c.15,0,.31-.04.46-.12.15-.08.28-.2.38-.36s.15-.36.15-.61Z"/>
                <path class="cls-6" d="m89.94,30.23v-4.35h.79v.71h.05c.09-.24.23-.43.43-.56.2-.14.44-.2.72-.2s.52.07.71.2c.19.14.33.32.43.56h.04c.1-.23.26-.42.48-.56.22-.14.48-.21.79-.21.38,0,.7.12.94.37.24.25.36.62.36,1.12v2.91h-.82v-2.84c0-.29-.08-.51-.23-.64-.16-.13-.34-.2-.56-.2-.27,0-.48.08-.63.25-.15.17-.22.39-.22.65v2.77h-.82v-2.89c0-.24-.07-.43-.21-.57-.14-.14-.33-.22-.56-.22-.16,0-.3.04-.43.13-.13.08-.24.2-.32.35s-.12.32-.12.52v2.68h-.82Z"/>
                <path class="cls-6" d="m96.79,30.23v-4.35h.79v.71h.05c.09-.24.23-.43.43-.56.2-.14.44-.2.72-.2s.52.07.71.2c.19.14.33.32.43.56h.04c.1-.23.26-.42.48-.56.22-.14.48-.21.79-.21.38,0,.7.12.94.37.24.25.36.62.36,1.12v2.91h-.82v-2.84c0-.29-.08-.51-.23-.64-.16-.13-.34-.2-.56-.2-.27,0-.48.08-.63.25-.15.17-.22.39-.22.65v2.77h-.82v-2.89c0-.24-.07-.43-.21-.57-.14-.14-.33-.22-.56-.22-.16,0-.3.04-.43.13-.13.08-.24.2-.32.35s-.12.32-.12.52v2.68h-.82Z"/>
                <path class="cls-6" d="m104.88,30.32c-.27,0-.51-.05-.73-.15s-.39-.25-.51-.45-.19-.44-.19-.72c0-.25.05-.45.14-.61.09-.16.22-.28.37-.38.16-.09.33-.16.52-.21.19-.05.39-.08.59-.11.25-.03.46-.05.62-.07s.27-.05.34-.1c.07-.05.11-.12.11-.22v-.02c0-.25-.07-.44-.2-.57s-.34-.2-.6-.2-.5.06-.65.19c-.16.13-.27.26-.33.42l-.77-.18c.09-.26.23-.48.4-.64.18-.16.38-.28.61-.36.23-.07.47-.11.73-.11.17,0,.35.02.54.06s.37.11.53.22c.17.11.3.26.41.46.11.2.16.46.16.77v2.89h-.8v-.59h-.03c-.05.11-.13.22-.24.32-.11.11-.24.19-.41.26-.17.07-.37.1-.6.1Zm.18-.68c.23,0,.42-.05.59-.14.16-.09.29-.21.37-.36.09-.15.13-.31.13-.48v-.56s-.09.06-.17.08c-.08.03-.18.05-.29.07s-.21.03-.31.05c-.1.01-.19.03-.25.04-.16.02-.31.06-.44.1-.13.05-.24.12-.31.21s-.12.21-.12.36c0,.21.08.37.23.47.15.11.34.16.58.16Z"/>
                <path class="cls-6" d="m108.06,30.23v-4.35h.8v.69h.04c.08-.23.21-.42.41-.55s.42-.2.67-.2c.05,0,.11,0,.18,0,.07,0,.13,0,.17.01v.81s-.09-.02-.18-.03c-.08-.01-.17-.02-.25-.02-.19,0-.37.04-.52.13-.15.08-.27.2-.36.35-.09.15-.13.32-.13.51v2.65h-.82Z"/>
                <path class="cls-6" d="m111.69,31.86c-.12,0-.23,0-.34-.03s-.18-.04-.23-.06l.2-.69c.15.04.28.06.4.05.12,0,.22-.05.31-.14.09-.08.17-.22.24-.42l.1-.29-1.55-4.4h.88l1.07,3.37h.04l1.07-3.37h.88l-1.74,4.93c-.08.23-.18.42-.31.58s-.27.28-.45.36c-.17.08-.37.12-.6.12Z"/>
              </g>
            </g>
          </g>
        </g>
        <g>
          <rect class="cls-26" x="27.15" y="93.9" width="170.18" height="31.99" rx="5.71" ry="5.71"/>
          <g>
            <g>
              <g>
                <path class="cls-19" d="m162.32,106.66v-3.5h1.27c.28,0,.51.05.69.15.18.1.32.23.41.41.09.17.14.36.14.58s-.05.41-.14.58c-.09.17-.23.31-.41.41-.18.1-.41.15-.69.15h-.87v-.45h.83c.18,0,.32-.03.43-.09.11-.06.19-.14.24-.24s.08-.22.08-.35-.03-.25-.08-.35-.13-.18-.24-.24c-.11-.06-.25-.09-.43-.09h-.68v3.04h-.54Z"/>
                <path class="cls-19" d="m166.51,106.71c-.25,0-.47-.06-.66-.17-.19-.11-.33-.27-.44-.47-.1-.2-.16-.44-.16-.71s.05-.51.16-.71c.1-.2.25-.36.44-.47.19-.11.41-.17.66-.17s.47.06.66.17.33.27.44.47c.1.2.16.44.16.71s-.05.51-.16.71c-.1.2-.25.36-.44.47s-.41.17-.66.17Zm0-.43c.16,0,.3-.04.4-.13s.19-.2.24-.34c.05-.14.08-.29.08-.46s-.03-.32-.08-.46c-.05-.14-.13-.25-.24-.34-.11-.09-.24-.13-.4-.13s-.3.04-.41.13c-.11.09-.19.2-.24.34s-.08.29-.08.46.03.32.08.46.13.25.24.34c.11.08.24.13.41.13Z"/>
                <path class="cls-19" d="m168.84,106.66l-.79-2.62h.54l.52,1.93h.03l.53-1.93h.54l.52,1.92h.03l.52-1.92h.54l-.79,2.62h-.53l-.54-1.89h-.04l-.54,1.89h-.53Z"/>
                <path class="cls-19" d="m173.37,106.71c-.26,0-.49-.06-.68-.17-.19-.11-.34-.27-.44-.47-.1-.2-.15-.44-.15-.71s.05-.51.15-.71.25-.36.43-.48c.19-.11.4-.17.65-.17.15,0,.3.02.44.07.14.05.27.13.38.23s.2.24.27.41c.06.17.1.37.1.61v.18h-2.13v-.38h1.62c0-.13-.03-.25-.08-.36-.06-.1-.13-.19-.23-.25-.1-.06-.22-.09-.35-.09-.15,0-.27.03-.38.1-.11.07-.19.16-.25.27-.06.11-.09.23-.09.36v.3c0,.18.03.32.1.45.06.12.15.22.27.28s.25.1.4.1c.1,0,.19-.01.27-.04.08-.03.15-.07.21-.13.06-.06.1-.12.14-.21l.49.09c-.04.14-.11.27-.21.37-.1.11-.23.19-.38.25-.15.06-.33.09-.52.09Z"/>
                <path class="cls-19" d="m175.1,106.66v-2.62h.5v.42h.03c.05-.14.14-.25.26-.33s.26-.12.42-.12c.03,0,.07,0,.12,0,.04,0,.08,0,.11,0v.49s-.06-.01-.11-.02c-.05,0-.11-.01-.16-.01-.12,0-.23.03-.33.08-.1.05-.17.12-.23.21-.06.09-.08.19-.08.3v1.6h-.52Z"/>
                <path class="cls-19" d="m178.04,106.71c-.26,0-.49-.06-.68-.17-.19-.11-.34-.27-.44-.47-.1-.2-.15-.44-.15-.71s.05-.51.15-.71.25-.36.43-.48c.19-.11.4-.17.65-.17.15,0,.3.02.44.07.14.05.27.13.38.23s.2.24.27.41c.06.17.1.37.1.61v.18h-2.13v-.38h1.62c0-.13-.03-.25-.08-.36-.06-.1-.13-.19-.23-.25-.1-.06-.22-.09-.35-.09-.15,0-.27.03-.38.1-.11.07-.19.16-.25.27-.06.11-.09.23-.09.36v.3c0,.18.03.32.1.45.06.12.15.22.27.28s.25.1.4.1c.1,0,.19-.01.27-.04.08-.03.15-.07.21-.13.06-.06.1-.12.14-.21l.49.09c-.04.14-.11.27-.21.37-.1.11-.23.19-.38.25-.15.06-.33.09-.52.09Z"/>
                <path class="cls-19" d="m180.78,106.71c-.22,0-.41-.05-.58-.16-.17-.11-.3-.26-.4-.47-.1-.2-.14-.44-.14-.73s.05-.53.15-.73.23-.36.4-.46c.17-.11.36-.16.58-.16.17,0,.3.03.4.08.1.05.18.12.24.19.06.07.1.13.13.19h.03v-1.3h.52v3.5h-.51v-.41h-.04c-.03.06-.08.12-.14.19-.06.07-.14.13-.24.19-.1.05-.23.08-.4.08Zm.12-.44c.15,0,.28-.04.38-.12.1-.08.18-.19.24-.33.05-.14.08-.3.08-.48s-.03-.34-.08-.48-.13-.24-.24-.32c-.1-.08-.23-.11-.38-.11s-.29.04-.39.12c-.1.08-.18.19-.24.33-.05.14-.08.29-.08.47s.03.33.08.47.13.25.24.33c.11.08.24.12.39.12Z"/>
                <path class="cls-19" d="m184.19,106.66v-3.5h.52v1.3h.03c.03-.05.07-.12.13-.19.06-.07.14-.13.24-.19.1-.05.23-.08.4-.08.22,0,.41.05.58.16.17.11.3.26.4.46s.15.44.15.73-.05.53-.14.73c-.1.2-.23.36-.4.47s-.36.16-.58.16c-.16,0-.3-.03-.4-.08-.1-.05-.18-.12-.24-.19-.06-.07-.1-.14-.13-.19h-.04v.41h-.51Zm.51-1.31c0,.18.03.35.08.48.05.14.13.25.24.33.1.08.23.12.38.12s.29-.04.39-.12c.1-.08.18-.19.24-.33.05-.14.08-.3.08-.47s-.03-.33-.08-.47c-.05-.14-.13-.25-.24-.33-.11-.08-.24-.12-.39-.12s-.28.04-.38.11-.18.18-.24.32-.08.3-.08.48Z"/>
                <path class="cls-19" d="m187.45,107.64c-.08,0-.15,0-.21-.02s-.11-.02-.14-.04l.13-.42c.1.03.18.04.25.03.07,0,.14-.03.2-.08.06-.05.11-.13.15-.25l.06-.17-.98-2.66h.56l.68,2.04h.03l.68-2.04h.56l-1.1,2.97c-.05.14-.12.25-.2.35s-.17.17-.28.21c-.11.05-.24.07-.38.07Z"/>
              </g>
              <g>
                <path class="cls-19" d="m161.59,116.62c-.54-.02-1-.2-1.38-.58-.05-.05-.1-.07-.17-.06-.75.1-1.37-.14-1.83-.72-.4-.5-.5-1.07-.33-1.69.01-.05,0-.08-.03-.12-.31-.37-.46-.79-.45-1.26.01-.81.59-1.55,1.39-1.77.11-.03.17-.08.22-.19.27-.61.74-1,1.41-1.13.68-.13,1.28.06,1.77.54.03.03.06.05.11.04.89-.15,1.75.29,2.11,1.1.19.42.22.85.09,1.29-.02.06,0,.1.03.14.39.48.54,1.02.39,1.62-.18.73-.65,1.22-1.39,1.43-.07.02-.11.05-.14.12-.24.59-.67.98-1.3,1.15-.17.05-.34.06-.51.08Zm.12-6.73s-.05-.05-.08-.07c-.34-.23-.71-.32-1.11-.24-.67.12-1.17.7-1.18,1.36,0,.58,0,1.15,0,1.73,0,.05.02.08.06.1.18.1.35.2.53.3.07.04.08.03.09-.05,0-.04,0-.09,0-.13,0-.62,0-1.25,0-1.87,0-.12.05-.21.16-.27.44-.24.87-.49,1.3-.74.08-.04.15-.09.24-.14Zm-.17,1.8s.06.05.09.06c.58.33,1.15.66,1.73.98.12.07.17.15.17.29,0,.54,0,1.07,0,1.61,0,.02,0,.05,0,.07,0,.02.03.03.05.03.02,0,.04-.01.06-.02.51-.25.81-.65.84-1.21.03-.55-.2-.99-.67-1.28-.51-.31-1.03-.59-1.55-.88-.04-.02-.08-.03-.12,0-.06.04-.13.07-.19.11-.13.07-.26.15-.41.23Zm.49,2.4c0-.1,0-.2,0-.31,0-.06-.02-.07-.07-.04-.01,0-.03.01-.04.02-.58.33-1.16.66-1.75.99-.1.06-.19.06-.29,0-.22-.12-.44-.25-.65-.37-.27-.16-.55-.31-.82-.47-.08-.05-.1-.04-.1.05,0,.15,0,.31.03.46.17.81,1.06,1.31,1.86,1.03.22-.08.42-.2.63-.32.38-.21.76-.43,1.13-.64.06-.03.08-.07.08-.14,0-.09,0-.19,0-.28Zm-1.67-2.13s.07-.03.1-.05c.57-.32,1.15-.65,1.72-.97.13-.07.23-.07.36,0,.44.25.88.5,1.32.75.06.04.12.07.2.11.01-.04.02-.07.02-.11.02-.25-.01-.49-.12-.72-.35-.76-1.29-1.07-2.03-.66-.51.28-1.01.57-1.51.85-.05.03-.07.06-.07.11,0,.19,0,.39,0,.58,0,.02,0,.05,0,.09Zm.32,3.83s.02.02.03.03c.32.24.69.35,1.09.29.73-.1,1.25-.69,1.25-1.41,0-.56,0-1.13,0-1.69,0-.06-.02-.09-.07-.12-.17-.1-.34-.19-.52-.29-.02-.01-.05-.02-.08-.03,0,.04,0,.08,0,.11,0,.64,0,1.28,0,1.92,0,.15-.05.25-.19.33-.48.26-.95.54-1.43.81-.02.01-.05.03-.07.05Zm-1.83-4.87s-.07.02-.09.03c-.47.22-.75.57-.84,1.07-.1.57.18,1.15.69,1.45.5.29,1.01.57,1.51.86.05.03.09.03.13,0,.17-.1.34-.19.51-.29.09-.05.09-.06,0-.11-.58-.33-1.15-.66-1.73-.98-.13-.07-.18-.17-.18-.31,0-.54,0-1.07,0-1.61v-.11Zm1.51,1.92h0c0,.14,0,.28,0,.41,0,.03.03.07.05.09.24.14.49.27.73.41.04.02.07.02.11,0,.24-.14.48-.27.72-.41.05-.03.06-.06.06-.11,0-.27,0-.54,0-.81,0-.05-.02-.08-.06-.1-.24-.13-.48-.27-.72-.4-.05-.03-.08-.02-.13,0-.24.14-.48.28-.72.41-.04.02-.05.05-.05.1,0,.14,0,.27,0,.41Z"/>
                <g>
                  <path class="cls-19" d="m166.75,112.34c.01-.24.02-.49.05-.73.09-.75.63-1.32,1.38-1.47.48-.1.96-.08,1.42.1.57.23.91.66,1.03,1.24.04.17.05.35.06.53,0,.25,0,.5,0,.75-.01.41-.11.8-.37,1.14-.26.35-.62.56-1.05.65-.45.1-.9.08-1.34-.07-.57-.2-.93-.59-1.09-1.15-.05-.16-.07-.33-.08-.49-.01-.17,0-.33,0-.5,0,0-.01,0-.02,0Zm.83,0s-.02,0-.03,0c.02.26.02.51.06.77.05.29.19.53.45.69.27.17.58.2.89.16.2-.03.38-.09.54-.22.28-.22.38-.53.4-.86.02-.27,0-.54,0-.81,0-.15,0-.3-.03-.44-.06-.36-.24-.65-.59-.8-.26-.12-.54-.13-.82-.08-.22.04-.41.12-.56.28-.2.2-.29.44-.31.71-.02.2,0,.41,0,.61Z"/>
                  <path class="cls-19" d="m172.17,114.09s0,.05,0,.08c0,.45,0,.9,0,1.35,0,.09,0,.09-.1.1-.2,0-.39,0-.59,0-.07,0-.09-.02-.09-.09,0-1.38,0-2.76,0-4.13,0-.07.02-.09.09-.08.19,0,.37,0,.56,0,.08,0,.1.02.09.09,0,.12,0,.24,0,.36h.02s.03-.02.04-.04c.2-.32.51-.46.87-.49.29-.02.58.02.83.17.36.21.56.54.62.95.05.37.05.75,0,1.13-.08.59-.56,1.04-1.17,1.09-.28.02-.54,0-.79-.14-.12-.06-.22-.15-.29-.26-.02-.03-.05-.06-.07-.09,0,0-.02,0-.03,0Zm1.61-1.18s0,0-.01,0c0-.11,0-.22,0-.33-.02-.38-.25-.68-.65-.74-.46-.08-.88.2-.93.65-.03.24-.03.49-.02.74.03.41.25.66.63.74.41.08.85-.1.94-.59.03-.15.03-.32.04-.47Z"/>
                  <path class="cls-19" d="m182.18,114.5s.02-.05.02-.07c.26-.7.51-1.41.77-2.11.25-.69.51-1.39.76-2.08.02-.05.05-.07.1-.07.23,0,.45,0,.68,0,.07,0,.1.02.13.09.22.6.43,1.19.65,1.79.29.78.57,1.56.86,2.35.01.03.02.07.04.11-.03,0-.05.01-.08.01-.21,0-.42,0-.63,0-.06,0-.08-.02-.1-.07-.08-.26-.17-.51-.25-.77-.02-.07-.06-.1-.14-.1-.55,0-1.09,0-1.64,0-.07,0-.1.02-.12.09-.08.26-.17.51-.25.77-.02.06-.05.09-.12.09-.2,0-.4,0-.6,0-.03,0-.06,0-.09,0Zm2.02-3.71s-.02,0-.02,0c-.01.03-.03.06-.04.09-.22.66-.43,1.33-.65,1.99-.03.09-.02.1.07.1.41,0,.82,0,1.23,0,.11,0,.11,0,.08-.1-.19-.59-.38-1.18-.57-1.76-.03-.1-.07-.21-.1-.31Z"/>
                  <path class="cls-19" d="m187.65,112.34c0-.49,0-.97,0-1.46,0-.11,0-.11-.11-.11-.25,0-.5,0-.76,0-.06,0-.09-.02-.08-.08,0-.15,0-.3,0-.45,0-.06.02-.07.08-.07.85,0,1.71,0,2.56,0,.06,0,.08.02.08.08,0,.15,0,.29,0,.44,0,.06-.02.08-.08.08-.26,0-.52,0-.78,0-.1,0-.1,0-.1.1,0,.98,0,1.97,0,2.95,0,.09,0,.09.09.09.26,0,.52,0,.78,0,.07,0,.09.02.09.08,0,.14,0,.28,0,.41,0,.1,0,.1-.1.1-.71,0-1.43,0-2.14,0-.13,0-.26,0-.39,0-.07,0-.09-.02-.09-.09,0-.14,0-.29,0-.43,0-.06.02-.08.08-.08.25,0,.5,0,.76,0,.11,0,.11,0,.11-.12,0-.48,0-.97,0-1.45Z"/>
                  <path class="cls-19" d="m179.4,111.81s.04-.05.05-.07c.15-.31.41-.45.74-.49.28-.04.57-.02.83.12.27.14.43.37.5.66.03.14.05.29.05.43,0,.65,0,1.31,0,1.96q0,.1-.1.1c-.19,0-.38,0-.57,0q-.11,0-.11-.1c0-.61,0-1.22,0-1.83,0-.12-.02-.24-.06-.35-.08-.21-.26-.31-.49-.35-.28-.04-.57.06-.7.28-.08.13-.11.28-.11.44,0,.6,0,1.2,0,1.8q0,.11-.11.11c-.19,0-.38,0-.58,0-.07,0-.09-.02-.09-.09,0-1.01,0-2.02,0-3.03,0-.06.02-.08.08-.08.19,0,.38,0,.57,0,.06,0,.09.02.09.08,0,.11,0,.21,0,.32,0,.02,0,.05.01.09Z"/>
                  <path class="cls-19" d="m176.97,113.16c-.33,0-.67,0-1,0-.1,0-.11,0-.1.1.01.13.02.26.07.38.1.28.33.4.62.42.36.02.65-.11.88-.37.04-.04.07-.05.12-.02.11.07.23.13.35.2.05.03.05.06.02.1-.2.29-.47.49-.82.56-.41.09-.83.08-1.22-.09-.42-.18-.66-.5-.74-.93-.07-.41-.08-.83.02-1.23.12-.52.45-.85.97-.98.41-.1.81-.09,1.2.09.36.17.57.45.67.82.08.3.05.6.06.91,0,.05-.03.05-.06.05-.12,0-.23,0-.35,0-.23,0-.46,0-.68,0Zm-.35-.51c.19,0,.38,0,.58,0,.18,0,.18.03.17-.18,0-.21-.06-.41-.23-.55-.21-.19-.47-.21-.73-.16-.23.04-.4.18-.47.39-.04.13-.05.27-.07.4-.01.07.02.09.09.09.22,0,.44,0,.66,0Z"/>
                </g>
              </g>
            </g>
            <g>
              <g>
                <path class="cls-2" d="m59.31,108.36h-.79c-.03-.17-.09-.31-.17-.44-.08-.13-.19-.23-.31-.32s-.25-.15-.4-.2c-.15-.04-.31-.07-.47-.07-.3,0-.57.07-.81.22-.24.15-.42.36-.56.65-.14.29-.21.63-.21,1.05s.07.77.21,1.05c.14.29.32.5.56.65.24.15.5.22.8.22.16,0,.32-.02.47-.07.15-.04.28-.11.4-.2.12-.09.22-.19.31-.32s.14-.27.17-.43h.79c-.04.25-.12.48-.25.69-.12.21-.28.39-.47.54-.19.15-.41.27-.65.35-.24.08-.51.12-.79.12-.45,0-.85-.11-1.21-.32-.35-.21-.63-.51-.83-.9-.2-.39-.3-.86-.3-1.4s.1-1.01.31-1.4c.2-.39.48-.69.83-.9.35-.21.75-.32,1.2-.32.28,0,.53.04.77.12s.46.19.65.34.35.33.48.54.21.46.25.73Z"/>
                <path class="cls-2" d="m60.95,106.7v5.11h-.76v-5.11h.76Z"/>
                <path class="cls-2" d="m62.35,107.39c-.13,0-.25-.04-.34-.13-.09-.09-.14-.19-.14-.31s.05-.23.14-.32c.09-.09.21-.13.34-.13s.25.04.34.13c.09.09.14.19.14.31s-.05.23-.14.32c-.09.09-.21.13-.34.13Zm-.38,4.42v-3.83h.76v3.83h-.76Z"/>
                <path class="cls-2" d="m65.4,111.88c-.38,0-.7-.08-.98-.25s-.48-.4-.63-.7-.22-.64-.22-1.02.07-.73.22-1.03c.15-.3.36-.53.63-.7.27-.17.59-.25.96-.25.3,0,.56.05.79.16.23.11.42.26.56.45.14.19.23.42.26.68h-.74c-.04-.18-.13-.33-.28-.46-.15-.13-.34-.19-.58-.19-.21,0-.4.05-.56.16-.16.11-.28.26-.37.46-.09.2-.13.44-.13.71s.04.52.13.72c.09.2.21.36.37.47s.35.17.56.17c.14,0,.27-.03.39-.08.12-.05.22-.13.3-.23.08-.1.14-.22.17-.35h.74c-.03.25-.11.47-.25.66s-.32.35-.55.46-.5.17-.81.17Z"/>
                <path class="cls-2" d="m67.82,111.81v-5.11h.76v5.11h-.76Zm.7-1.3v-.91s.13,0,.13,0l1.56-1.62h.91l-1.78,1.85h-.12l-.7.69Zm1.77,1.3l-1.4-1.82.52-.52,1.81,2.34h-.93Z"/>
                <path class="cls-2" d="m74.47,109.53v2.27h-.76v-5.11h.75v1.9h.05c.09-.21.23-.37.42-.49.19-.12.43-.18.74-.18.27,0,.5.05.7.16.2.11.36.27.47.48.11.21.17.48.17.8v2.44h-.76v-2.35c0-.28-.07-.5-.22-.65-.15-.16-.35-.23-.62-.23-.18,0-.34.04-.48.11-.14.07-.25.18-.33.33-.08.14-.12.32-.12.52Z"/>
                <path class="cls-2" d="m79.7,111.88c-.38,0-.72-.08-.99-.24-.28-.16-.49-.39-.64-.69-.15-.29-.23-.64-.23-1.04s.08-.74.23-1.04.36-.53.63-.7c.27-.17.59-.25.95-.25.22,0,.43.04.64.11.21.07.39.18.56.34s.29.35.39.59c.09.24.14.54.14.89v.26h-3.11v-.56h2.36c0-.2-.04-.37-.12-.52-.08-.15-.2-.27-.34-.36-.15-.09-.32-.13-.52-.13-.21,0-.4.05-.56.15-.16.1-.28.24-.37.4-.09.16-.13.34-.13.53v.44c0,.26.05.47.14.65.09.18.22.32.39.41s.36.14.58.14c.14,0,.28-.02.39-.06.12-.04.22-.1.31-.18.09-.08.15-.18.2-.3l.72.13c-.06.21-.16.39-.31.54-.15.16-.33.28-.56.36-.22.09-.48.13-.76.13Z"/>
                <path class="cls-2" d="m82.23,111.81v-3.83h.74v.61h.04c.07-.21.2-.37.38-.49s.39-.18.61-.18c.05,0,.1,0,.17,0,.07,0,.12,0,.15.01v.71s-.08-.02-.16-.03c-.08-.01-.16-.02-.23-.02-.18,0-.34.04-.48.11-.14.07-.25.18-.33.31-.08.13-.12.28-.12.45v2.34h-.76Z"/>
                <path class="cls-2" d="m86.52,111.88c-.38,0-.72-.08-.99-.24-.28-.16-.49-.39-.64-.69-.15-.29-.23-.64-.23-1.04s.08-.74.23-1.04.36-.53.63-.7c.27-.17.59-.25.95-.25.22,0,.43.04.64.11.21.07.39.18.56.34s.29.35.39.59c.09.24.14.54.14.89v.26h-3.11v-.56h2.36c0-.2-.04-.37-.12-.52-.08-.15-.2-.27-.34-.36-.15-.09-.32-.13-.52-.13-.21,0-.4.05-.56.15-.16.1-.28.24-.37.4-.09.16-.13.34-.13.53v.44c0,.26.05.47.14.65.09.18.22.32.39.41s.36.14.58.14c.14,0,.28-.02.39-.06.12-.04.22-.1.31-.18.09-.08.15-.18.2-.3l.72.13c-.06.21-.16.39-.31.54-.15.16-.33.28-.56.36-.22.09-.48.13-.76.13Z"/>
                <path class="cls-2" d="m92.81,107.98v.6h-2.21v-.6h2.21Zm-1.6,3.83v-4.27c0-.24.05-.44.16-.6.11-.16.25-.28.42-.36.18-.08.37-.12.58-.12.15,0,.28.01.39.04.11.02.19.05.24.07l-.18.6s-.08-.02-.14-.04-.12-.02-.2-.02c-.19,0-.32.04-.4.13-.08.09-.12.22-.12.39v4.17h-.76Z"/>
                <path class="cls-2" d="m95.08,111.88c-.37,0-.69-.08-.96-.25-.27-.16-.48-.39-.64-.69-.15-.3-.23-.64-.23-1.04s.08-.74.23-1.04c.15-.3.36-.53.64-.69.27-.16.59-.25.96-.25s.69.08.96.25.49.4.64.69c.15.3.23.65.23,1.04s-.08.74-.23,1.04c-.15.3-.36.53-.64.69s-.59.25-.96.25Zm0-.63c.24,0,.43-.06.59-.18s.27-.29.35-.49c.08-.2.11-.43.11-.68s-.04-.47-.11-.67c-.08-.21-.19-.37-.35-.5-.16-.12-.35-.19-.59-.19s-.44.06-.59.19c-.16.12-.27.29-.35.5s-.11.43-.11.67.04.47.11.68.19.37.35.49c.16.12.36.18.59.18Z"/>
                <path class="cls-2" d="m97.75,111.81v-3.83h.74v.61h.04c.07-.21.2-.37.38-.49s.39-.18.61-.18c.05,0,.1,0,.17,0,.07,0,.12,0,.15.01v.71s-.08-.02-.16-.03c-.08-.01-.16-.02-.23-.02-.18,0-.34.04-.48.11-.14.07-.25.18-.33.31-.08.13-.12.28-.12.45v2.34h-.76Z"/>
                <path class="cls-2" d="m105.33,108.91l-.69.12c-.03-.09-.07-.17-.14-.25-.06-.08-.15-.14-.25-.19-.1-.05-.24-.07-.39-.07-.22,0-.4.05-.54.14s-.22.21-.22.36c0,.13.05.23.15.31.1.08.25.14.47.19l.62.14c.36.08.63.21.8.38.18.17.26.39.26.66,0,.23-.07.43-.2.61-.14.18-.32.32-.56.42s-.52.15-.83.15c-.44,0-.79-.09-1.07-.28-.28-.18-.45-.45-.51-.78l.74-.11c.05.19.14.33.28.43.14.1.33.14.56.14.25,0,.45-.05.6-.15.15-.1.22-.23.22-.38,0-.12-.05-.22-.14-.3s-.23-.14-.42-.18l-.66-.14c-.36-.08-.63-.21-.81-.39-.17-.18-.26-.4-.26-.68,0-.23.06-.42.19-.59.13-.17.31-.3.53-.4.23-.1.49-.14.78-.14.42,0,.76.09,1,.27.24.18.4.42.48.72Z"/>
                <path class="cls-2" d="m108.72,110.22v-2.24h.76v3.83h-.75v-.66h-.04c-.09.2-.23.37-.43.51s-.44.2-.74.2c-.25,0-.47-.05-.67-.16-.19-.11-.34-.27-.45-.48-.11-.21-.16-.48-.16-.8v-2.44h.76v2.35c0,.26.07.47.22.62s.34.23.58.23c.14,0,.28-.03.43-.1.14-.07.26-.18.35-.32s.14-.32.14-.54Z"/>
                <path class="cls-2" d="m112.14,113.32c-.31,0-.58-.04-.8-.12-.22-.08-.4-.19-.55-.32-.14-.13-.25-.27-.32-.43l.65-.26c.05.07.11.15.18.23.08.08.18.15.32.21.13.06.3.09.52.09.29,0,.53-.07.72-.21s.28-.36.28-.65v-.75h-.05c-.05.08-.11.17-.2.27s-.2.19-.35.26c-.15.07-.34.11-.58.11-.31,0-.59-.07-.83-.21-.25-.14-.44-.35-.59-.63s-.21-.62-.21-1.03.07-.76.21-1.05c.14-.29.34-.51.58-.67.25-.16.53-.23.84-.23.24,0,.44.04.59.12s.27.17.35.28c.08.1.15.2.19.28h.06v-.62h.75v3.91c0,.33-.08.6-.23.81s-.37.37-.63.47-.56.15-.9.15Zm0-2.19c.22,0,.4-.05.56-.15s.27-.25.35-.43c.08-.19.12-.42.12-.68s-.04-.48-.12-.68c-.08-.2-.19-.35-.34-.46-.15-.11-.34-.17-.56-.17s-.42.06-.57.17c-.15.12-.27.27-.34.47-.08.2-.12.42-.12.66s.04.47.12.66.19.34.35.44c.15.11.34.16.57.16Z"/>
                <path class="cls-2" d="m116.56,113.32c-.31,0-.58-.04-.8-.12-.22-.08-.4-.19-.55-.32-.14-.13-.25-.27-.32-.43l.65-.26c.05.07.11.15.18.23.08.08.18.15.32.21.13.06.3.09.52.09.29,0,.53-.07.72-.21s.28-.36.28-.65v-.75h-.05c-.05.08-.11.17-.2.27s-.2.19-.35.26c-.15.07-.34.11-.58.11-.31,0-.59-.07-.83-.21-.25-.14-.44-.35-.59-.63s-.21-.62-.21-1.03.07-.76.21-1.05c.14-.29.34-.51.58-.67.25-.16.53-.23.84-.23.24,0,.44.04.59.12s.27.17.35.28c.08.1.15.2.19.28h.06v-.62h.75v3.91c0,.33-.08.6-.23.81s-.37.37-.63.47-.56.15-.9.15Zm0-2.19c.22,0,.4-.05.56-.15s.27-.25.35-.43c.08-.19.12-.42.12-.68s-.04-.48-.12-.68c-.08-.2-.19-.35-.34-.46-.15-.11-.34-.17-.56-.17s-.42.06-.57.17c-.15.12-.27.27-.34.47-.08.2-.12.42-.12.66s.04.47.12.66.19.34.35.44c.15.11.34.16.57.16Z"/>
                <path class="cls-2" d="m121.03,111.88c-.38,0-.72-.08-.99-.24-.28-.16-.49-.39-.64-.69-.15-.29-.23-.64-.23-1.04s.08-.74.23-1.04.36-.53.63-.7c.27-.17.59-.25.95-.25.22,0,.43.04.64.11.21.07.39.18.56.34s.29.35.39.59c.09.24.14.54.14.89v.26h-3.11v-.56h2.36c0-.2-.04-.37-.12-.52-.08-.15-.2-.27-.34-.36-.15-.09-.32-.13-.52-.13-.21,0-.4.05-.56.15-.16.1-.28.24-.37.4-.09.16-.13.34-.13.53v.44c0,.26.05.47.14.65.09.18.22.32.39.41s.36.14.58.14c.14,0,.28-.02.39-.06.12-.04.22-.1.31-.18.09-.08.15-.18.2-.3l.72.13c-.06.21-.16.39-.31.54-.15.16-.33.28-.56.36-.22.09-.48.13-.76.13Z"/>
                <path class="cls-2" d="m126.48,108.91l-.69.12c-.03-.09-.07-.17-.14-.25-.06-.08-.15-.14-.25-.19-.1-.05-.24-.07-.39-.07-.22,0-.4.05-.54.14s-.22.21-.22.36c0,.13.05.23.15.31.1.08.25.14.47.19l.62.14c.36.08.63.21.8.38.18.17.26.39.26.66,0,.23-.07.43-.2.61-.14.18-.32.32-.56.42s-.52.15-.83.15c-.44,0-.79-.09-1.07-.28-.28-.18-.45-.45-.51-.78l.74-.11c.05.19.14.33.28.43.14.1.33.14.56.14.25,0,.45-.05.6-.15.15-.1.22-.23.22-.38,0-.12-.05-.22-.14-.3s-.23-.14-.42-.18l-.66-.14c-.36-.08-.63-.21-.81-.39-.17-.18-.26-.4-.26-.68,0-.23.06-.42.19-.59.13-.17.31-.3.53-.4.23-.1.49-.14.78-.14.42,0,.76.09,1,.27.24.18.4.42.48.72Z"/>
                <path class="cls-2" d="m129.22,107.98v.6h-2.13v-.6h2.13Zm-1.56-.92h.76v3.62c0,.14.02.25.07.33.04.07.1.12.17.15.07.03.15.04.23.04.06,0,.11,0,.16-.01.05,0,.08-.02.11-.02l.14.62s-.11.03-.19.05-.18.03-.31.03c-.2,0-.39-.03-.56-.1-.17-.07-.31-.19-.42-.34-.11-.15-.16-.34-.16-.58v-3.78Z"/>
                <path class="cls-2" d="m130.44,107.39c-.13,0-.25-.04-.34-.13-.09-.09-.14-.19-.14-.31s.05-.23.14-.32c.09-.09.21-.13.34-.13s.25.04.34.13c.09.09.14.19.14.31s-.05.23-.14.32c-.09.09-.21.13-.34.13Zm-.38,4.42v-3.83h.76v3.83h-.76Z"/>
                <path class="cls-2" d="m133.49,111.88c-.37,0-.69-.08-.96-.25-.27-.16-.48-.39-.64-.69-.15-.3-.23-.64-.23-1.04s.08-.74.23-1.04c.15-.3.36-.53.64-.69.27-.16.59-.25.96-.25s.69.08.96.25.49.4.64.69c.15.3.23.65.23,1.04s-.08.74-.23,1.04c-.15.3-.36.53-.64.69s-.59.25-.96.25Zm0-.63c.24,0,.43-.06.59-.18s.27-.29.35-.49c.08-.2.11-.43.11-.68s-.04-.47-.11-.67c-.08-.21-.19-.37-.35-.5-.16-.12-.35-.19-.59-.19s-.44.06-.59.19c-.16.12-.27.29-.35.5s-.11.43-.11.67.04.47.11.68.19.37.35.49c.16.12.36.18.59.18Z"/>
                <path class="cls-2" d="m136.92,109.53v2.27h-.76v-3.83h.73v.62h.05c.09-.2.23-.37.42-.49s.44-.18.73-.18c.27,0,.5.05.7.16s.36.27.47.49c.11.21.17.48.17.8v2.44h-.76v-2.35c0-.28-.07-.49-.22-.65-.15-.16-.35-.24-.61-.24-.18,0-.33.04-.47.11-.14.07-.24.18-.32.33-.08.14-.12.32-.12.52Z"/>
                <path class="cls-2" d="m143.36,108.91l-.69.12c-.03-.09-.07-.17-.14-.25-.06-.08-.15-.14-.25-.19-.1-.05-.24-.07-.39-.07-.22,0-.4.05-.54.14s-.22.21-.22.36c0,.13.05.23.15.31.1.08.25.14.47.19l.62.14c.36.08.63.21.8.38.18.17.26.39.26.66,0,.23-.07.43-.2.61-.14.18-.32.32-.56.42s-.52.15-.83.15c-.44,0-.79-.09-1.07-.28-.28-.18-.45-.45-.51-.78l.74-.11c.05.19.14.33.28.43.14.1.33.14.56.14.25,0,.45-.05.6-.15.15-.1.22-.23.22-.38,0-.12-.05-.22-.14-.3s-.23-.14-.42-.18l-.66-.14c-.36-.08-.63-.21-.81-.39-.17-.18-.26-.4-.26-.68,0-.23.06-.42.19-.59.13-.17.31-.3.53-.4.23-.1.49-.14.78-.14.42,0,.76.09,1,.27.24.18.4.42.48.72Z"/>
              </g>
              <g>
                <rect class="cls-3" x="35.07" y="108.57" width=".92" height="2.65" rx=".45" ry=".45"/>
                <rect class="cls-3" x="48.01" y="108.57" width=".92" height="2.65" rx=".45" ry=".45"/>
                <g>
                  <g>
                    <g>
                      <ellipse class="cls-3" cx="39.83" cy="109.24" rx=".74" ry=".73"/>
                      <ellipse class="cls-3" cx="44.16" cy="109.24" rx=".74" ry=".73"/>
                    </g>
                    <path class="cls-3" d="m41.99,112.67c-.1,0-.2,0-.3-.01-1.45-.1-2.41-.91-2.76-1.26-.09-.09-.09-.23,0-.32.09-.09.23-.09.32,0,.31.31,1.18,1.03,2.47,1.12,1.62.12,2.73-.83,3.03-1.12.09-.09.23-.09.32,0,.09.09.09.23,0,.32-.32.31-1.43,1.27-3.08,1.27Z"/>
                  </g>
                  <g>
                    <path class="cls-3" d="m44.29,117.09l-3.05-2.99h-3.66c-.82,0-1.49-.66-1.49-1.46v-5.42c0-.81.67-1.46,1.49-1.46h8.82c.82,0,1.49.65,1.49,1.46v5.43c0,.81-.67,1.46-1.49,1.46h-2.12v2.99Zm-6.71-10.89c-.57,0-1.03.45-1.03,1.01v5.43c0,.56.46,1.01,1.03,1.01h3.85l2.4,2.35v-2.35h2.57c.57,0,1.03-.46,1.03-1.01v-5.42c0-.56-.46-1.01-1.03-1.01h-8.82Z"/>
                    <ellipse class="cls-3" cx="41.99" cy="103.62" rx=".94" ry=".92"/>
                    <rect class="cls-3" x="41.77" y="103.89" width=".46" height="2.12"/>
                  </g>
                </g>
              </g>
            </g>
          </g>
        </g>
      </g>
    </g>
  </g>
</svg>