<svg width="210" height="177" viewBox="0 0 210 177" fill="none" xmlns="http://www.w3.org/2000/svg">
<circle cx="3.5208" cy="3.5208" r="3.5208" fill="#FDFDFD"/>
<circle cx="3.5208" cy="71.1199" r="3.5208" fill="#FDFDFD"/>
<circle cx="3.5208" cy="37.3206" r="3.5208" fill="#FDFDFD"/>
<circle cx="3.5208" cy="104.92" r="3.5208" fill="#FDFDFD"/>
<circle cx="3.5208" cy="155.619" r="3.5208" fill="#FDFDFD"/>
<circle cx="3.5208" cy="20.4207" r="3.5208" fill="#FDFDFD"/>
<circle cx="3.5208" cy="88.0203" r="3.5208" fill="#FDFDFD"/>
<circle cx="3.5208" cy="138.72" r="3.5208" fill="#FDFDFD"/>
<circle cx="3.5208" cy="54.2205" r="3.5208" fill="#FDFDFD"/>
<circle cx="3.5208" cy="121.82" r="3.5208" fill="#FDFDFD"/>
<circle cx="3.5208" cy="172.52" r="3.5208" fill="#FDFDFD"/>
<circle cx="20.4192" cy="3.5208" r="3.5208" fill="#FDFDFD"/>
<circle cx="20.4192" cy="71.1199" r="3.5208" fill="#FDFDFD"/>
<circle cx="20.4192" cy="37.3206" r="3.5208" fill="#FDFDFD"/>
<circle cx="20.4192" cy="104.92" r="3.5208" fill="#FDFDFD"/>
<circle cx="20.4192" cy="155.619" r="3.5208" fill="#FDFDFD"/>
<circle cx="20.4192" cy="20.4207" r="3.5208" fill="#FDFDFD"/>
<circle cx="20.4192" cy="88.0203" r="3.5208" fill="#FDFDFD"/>
<circle cx="20.4192" cy="138.72" r="3.5208" fill="#FDFDFD"/>
<circle cx="20.4192" cy="54.2205" r="3.5208" fill="#FDFDFD"/>
<circle cx="20.4192" cy="121.82" r="3.5208" fill="#FDFDFD"/>
<circle cx="20.4192" cy="172.52" r="3.5208" fill="#FDFDFD"/>
<circle cx="37.3177" cy="3.5208" r="3.5208" fill="#FDFDFD"/>
<circle cx="37.3177" cy="71.1199" r="3.5208" fill="#FDFDFD"/>
<circle cx="37.3177" cy="37.3206" r="3.5208" fill="#FDFDFD"/>
<circle cx="37.3177" cy="104.92" r="3.5208" fill="#FDFDFD"/>
<circle cx="37.3177" cy="155.619" r="3.5208" fill="#FDFDFD"/>
<circle cx="37.3177" cy="20.4207" r="3.5208" fill="#FDFDFD"/>
<circle cx="37.3177" cy="88.0203" r="3.5208" fill="#FDFDFD"/>
<circle cx="37.3177" cy="138.72" r="3.5208" fill="#FDFDFD"/>
<circle cx="37.3177" cy="54.2205" r="3.5208" fill="#FDFDFD"/>
<circle cx="37.3177" cy="121.82" r="3.5208" fill="#FDFDFD"/>
<circle cx="37.3177" cy="172.52" r="3.5208" fill="#FDFDFD"/>
<circle cx="54.2239" cy="3.5208" r="3.5208" fill="#FDFDFD"/>
<circle cx="54.2239" cy="71.1199" r="3.5208" fill="#FDFDFD"/>
<circle cx="54.2239" cy="37.3206" r="3.5208" fill="#FDFDFD"/>
<circle cx="54.2239" cy="104.92" r="3.5208" fill="#FDFDFD"/>
<circle cx="54.2239" cy="155.619" r="3.5208" fill="#FDFDFD"/>
<circle cx="54.2239" cy="20.4207" r="3.5208" fill="#FDFDFD"/>
<circle cx="54.2239" cy="88.0203" r="3.5208" fill="#FDFDFD"/>
<circle cx="54.2239" cy="138.72" r="3.5208" fill="#FDFDFD"/>
<circle cx="54.2239" cy="54.2205" r="3.5208" fill="#FDFDFD"/>
<circle cx="54.2239" cy="121.82" r="3.5208" fill="#FDFDFD"/>
<circle cx="54.2239" cy="172.52" r="3.5208" fill="#FDFDFD"/>
<circle cx="71.1224" cy="3.5208" r="3.5208" fill="#FDFDFD"/>
<circle cx="71.1224" cy="71.1199" r="3.5208" fill="#FDFDFD"/>
<circle cx="71.1224" cy="37.3206" r="3.5208" fill="#FDFDFD"/>
<circle cx="71.1224" cy="104.92" r="3.5208" fill="#FDFDFD"/>
<circle cx="71.1224" cy="155.619" r="3.5208" fill="#FDFDFD"/>
<circle cx="71.1224" cy="20.4207" r="3.5208" fill="#FDFDFD"/>
<circle cx="71.1224" cy="88.0203" r="3.5208" fill="#FDFDFD"/>
<circle cx="71.1224" cy="138.72" r="3.5208" fill="#FDFDFD"/>
<circle cx="71.1224" cy="54.2205" r="3.5208" fill="#FDFDFD"/>
<circle cx="71.1224" cy="121.82" r="3.5208" fill="#FDFDFD"/>
<circle cx="71.1224" cy="172.52" r="3.5208" fill="#FDFDFD"/>
<circle cx="88.0208" cy="3.5208" r="3.5208" fill="#FDFDFD"/>
<circle cx="88.0208" cy="71.1199" r="3.5208" fill="#FDFDFD"/>
<circle cx="88.0208" cy="37.3206" r="3.5208" fill="#FDFDFD"/>
<circle cx="88.0208" cy="104.92" r="3.5208" fill="#FDFDFD"/>
<circle cx="88.0208" cy="155.619" r="3.5208" fill="#FDFDFD"/>
<circle cx="88.0208" cy="20.4207" r="3.5208" fill="#FDFDFD"/>
<circle cx="88.0208" cy="88.0203" r="3.5208" fill="#FDFDFD"/>
<circle cx="88.0208" cy="138.72" r="3.5208" fill="#FDFDFD"/>
<circle cx="88.0208" cy="54.2205" r="3.5208" fill="#FDFDFD"/>
<circle cx="88.0208" cy="121.82" r="3.5208" fill="#FDFDFD"/>
<circle cx="88.0208" cy="172.52" r="3.5208" fill="#FDFDFD"/>
<circle cx="104.919" cy="3.5208" r="3.5208" fill="#FDFDFD"/>
<circle cx="104.919" cy="71.1199" r="3.5208" fill="#FDFDFD"/>
<circle cx="104.919" cy="37.3206" r="3.5208" fill="#FDFDFD"/>
<circle cx="104.919" cy="104.92" r="3.5208" fill="#FDFDFD"/>
<circle cx="104.919" cy="155.619" r="3.5208" fill="#FDFDFD"/>
<circle cx="104.919" cy="20.4207" r="3.5208" fill="#FDFDFD"/>
<circle cx="104.919" cy="88.0203" r="3.5208" fill="#FDFDFD"/>
<circle cx="104.919" cy="138.72" r="3.5208" fill="#FDFDFD"/>
<circle cx="104.919" cy="54.2205" r="3.5208" fill="#FDFDFD"/>
<circle cx="104.919" cy="121.82" r="3.5208" fill="#FDFDFD"/>
<circle cx="104.919" cy="172.52" r="3.5208" fill="#FDFDFD"/>
<circle cx="121.818" cy="3.5208" r="3.5208" fill="#FDFDFD"/>
<circle cx="121.818" cy="71.1199" r="3.5208" fill="#FDFDFD"/>
<circle cx="121.818" cy="37.3206" r="3.5208" fill="#FDFDFD"/>
<circle cx="121.818" cy="104.92" r="3.5208" fill="#FDFDFD"/>
<circle cx="121.818" cy="155.619" r="3.5208" fill="#FDFDFD"/>
<circle cx="121.818" cy="20.4207" r="3.5208" fill="#FDFDFD"/>
<circle cx="121.818" cy="88.0203" r="3.5208" fill="#FDFDFD"/>
<circle cx="121.818" cy="138.72" r="3.5208" fill="#FDFDFD"/>
<circle cx="121.818" cy="54.2205" r="3.5208" fill="#FDFDFD"/>
<circle cx="121.818" cy="121.82" r="3.5208" fill="#FDFDFD"/>
<circle cx="121.818" cy="172.52" r="3.5208" fill="#FDFDFD"/>
<circle cx="138.716" cy="3.5208" r="3.5208" fill="#FDFDFD"/>
<circle cx="138.716" cy="71.1199" r="3.5208" fill="#FDFDFD"/>
<circle cx="138.716" cy="37.3206" r="3.5208" fill="#FDFDFD"/>
<circle cx="138.716" cy="104.92" r="3.5208" fill="#FDFDFD"/>
<circle cx="138.716" cy="155.619" r="3.5208" fill="#FDFDFD"/>
<circle cx="138.716" cy="20.4207" r="3.5208" fill="#FDFDFD"/>
<circle cx="138.716" cy="88.0203" r="3.5208" fill="#FDFDFD"/>
<circle cx="138.716" cy="138.72" r="3.5208" fill="#FDFDFD"/>
<circle cx="138.716" cy="54.2205" r="3.5208" fill="#FDFDFD"/>
<circle cx="138.716" cy="121.82" r="3.5208" fill="#FDFDFD"/>
<circle cx="138.716" cy="172.52" r="3.5208" fill="#FDFDFD"/>
<circle cx="155.622" cy="3.5208" r="3.5208" fill="#FDFDFD"/>
<circle cx="155.622" cy="71.1199" r="3.5208" fill="#FDFDFD"/>
<circle cx="155.622" cy="37.3206" r="3.5208" fill="#FDFDFD"/>
<circle cx="155.622" cy="104.92" r="3.5208" fill="#FDFDFD"/>
<circle cx="155.622" cy="155.619" r="3.5208" fill="#FDFDFD"/>
<circle cx="155.622" cy="20.4207" r="3.5208" fill="#FDFDFD"/>
<circle cx="155.622" cy="88.0203" r="3.5208" fill="#FDFDFD"/>
<circle cx="155.622" cy="138.72" r="3.5208" fill="#FDFDFD"/>
<circle cx="155.622" cy="54.2205" r="3.5208" fill="#FDFDFD"/>
<circle cx="155.622" cy="121.82" r="3.5208" fill="#FDFDFD"/>
<circle cx="155.622" cy="172.52" r="3.5208" fill="#FDFDFD"/>
<circle cx="172.521" cy="3.5208" r="3.5208" fill="#FDFDFD"/>
<circle cx="172.521" cy="71.1199" r="3.5208" fill="#FDFDFD"/>
<circle cx="172.521" cy="37.3206" r="3.5208" fill="#FDFDFD"/>
<circle cx="172.521" cy="104.92" r="3.5208" fill="#FDFDFD"/>
<circle cx="172.521" cy="155.619" r="3.5208" fill="#FDFDFD"/>
<circle cx="172.521" cy="20.4207" r="3.5208" fill="#FDFDFD"/>
<circle cx="172.521" cy="88.0203" r="3.5208" fill="#FDFDFD"/>
<circle cx="172.521" cy="138.72" r="3.5208" fill="#FDFDFD"/>
<circle cx="172.521" cy="54.2205" r="3.5208" fill="#FDFDFD"/>
<circle cx="172.521" cy="121.82" r="3.5208" fill="#FDFDFD"/>
<circle cx="172.521" cy="172.52" r="3.5208" fill="#FDFDFD"/>
<circle cx="189.419" cy="3.5208" r="3.5208" fill="#FDFDFD"/>
<circle cx="189.419" cy="71.1199" r="3.5208" fill="#FDFDFD"/>
<circle cx="189.419" cy="37.3206" r="3.5208" fill="#FDFDFD"/>
<circle cx="189.419" cy="104.92" r="3.5208" fill="#FDFDFD"/>
<circle cx="189.419" cy="155.619" r="3.5208" fill="#FDFDFD"/>
<circle cx="189.419" cy="20.4207" r="3.5208" fill="#FDFDFD"/>
<circle cx="189.419" cy="88.0203" r="3.5208" fill="#FDFDFD"/>
<circle cx="189.419" cy="138.72" r="3.5208" fill="#FDFDFD"/>
<circle cx="189.419" cy="54.2205" r="3.5208" fill="#FDFDFD"/>
<circle cx="189.419" cy="121.82" r="3.5208" fill="#FDFDFD"/>
<circle cx="189.419" cy="172.52" r="3.5208" fill="#FDFDFD"/>
<circle cx="206.318" cy="3.5208" r="3.5208" fill="#FDFDFD"/>
<circle cx="206.318" cy="71.1199" r="3.5208" fill="#FDFDFD"/>
<circle cx="206.318" cy="37.3206" r="3.5208" fill="#FDFDFD"/>
<circle cx="206.318" cy="104.92" r="3.5208" fill="#FDFDFD"/>
<circle cx="206.318" cy="155.619" r="3.5208" fill="#FDFDFD"/>
<circle cx="206.318" cy="20.4207" r="3.5208" fill="#FDFDFD"/>
<circle cx="206.318" cy="88.0203" r="3.5208" fill="#FDFDFD"/>
<circle cx="206.318" cy="138.72" r="3.5208" fill="#FDFDFD"/>
<circle cx="206.318" cy="54.2205" r="3.5208" fill="#FDFDFD"/>
<circle cx="206.318" cy="121.82" r="3.5208" fill="#FDFDFD"/>
<circle cx="206.318" cy="172.52" r="3.5208" fill="#FDFDFD"/>
</svg>
