<?xml version="1.0" encoding="UTF-8"?>
<svg id="Layer_1" data-name="Layer 1" xmlns="http://www.w3.org/2000/svg" xmlns:xlink="http://www.w3.org/1999/xlink" viewBox="0 0 550.8 626.88">
  <defs>
    <style>
      .cls-1 {
        fill-rule: evenodd;
      }

      .cls-1, .cls-2, .cls-3, .cls-4 {
        fill: #0145fd;
      }

      .cls-2 {
        font-family: Inter-Light, Inter;
        font-size: 14.23px;
        font-variation-settings: 'wght' 300, 'slnt' 0;
        font-weight: 300;
      }

      .cls-5 {
        stroke: #d7dff1;
      }

      .cls-5, .cls-6 {
        fill: #fff;
      }

      .cls-5, .cls-7 {
        stroke-miterlimit: 10;
      }

      .cls-8 {
        letter-spacing: -.02em;
      }

      .cls-9 {
        letter-spacing: .03em;
      }

      .cls-10 {
        fill: #e0e6f4;
        filter: url(#drop-shadow-1);
      }

      .cls-11 {
        letter-spacing: -.01em;
      }

      .cls-3 {
        font-family: Inter-Regular, Inter;
        font-size: 12.73px;
        font-variation-settings: 'wght' 400, 'slnt' 0;
      }

      .cls-12 {
        letter-spacing: -.05em;
      }

      .cls-13 {
        letter-spacing: -.02em;
      }

      .cls-14 {
        letter-spacing: .01em;
      }

      .cls-15 {
        letter-spacing: -.02em;
      }

      .cls-16 {
        letter-spacing: -.02em;
      }

      .cls-17 {
        letter-spacing: -.02em;
      }

      .cls-18 {
        letter-spacing: 0em;
      }

      .cls-19 {
        fill: #3f5ca8;
      }

      .cls-20 {
        letter-spacing: -.02em;
      }

      .cls-7 {
        fill: #d7dff1;
        stroke: #fff;
      }

      .cls-21 {
        fill: url(#linear-gradient);
      }

      .cls-22 {
        letter-spacing: -.02em;
      }

      .cls-23 {
        letter-spacing: 0em;
      }
    </style>
    <filter id="drop-shadow-1" filterUnits="userSpaceOnUse">
      <feOffset dx="-9" dy="0"/>
      <feGaussianBlur result="blur" stdDeviation="5"/>
      <feFlood flood-color="#000" flood-opacity=".4"/>
      <feComposite in2="blur" operator="in"/>
      <feComposite in="SourceGraphic"/>
    </filter>
    <linearGradient id="linear-gradient" x1="528.33" y1="306.47" x2="37.87" y2="306.47" gradientUnits="userSpaceOnUse">
      <stop offset="0" stop-color="#40c4e5"/>
      <stop offset="1" stop-color="#4d63ad"/>
    </linearGradient>
  </defs>
  <rect class="cls-10" x="24.06" y="15.08" width="520.64" height="596.57" rx="23.62" ry="23.62"/>
  <g>
    <rect class="cls-21" x="54.9" y="253.97" width="458.97" height="105" rx="5.71" ry="5.71"/>
    <g>
      <g>
        <g>
          <path class="cls-19" d="m416.19,296.4v-10.88h3.88c.85,0,1.55.15,2.1.46.56.31.97.73,1.25,1.26.28.53.41,1.13.41,1.8s-.14,1.27-.42,1.8c-.28.53-.7.95-1.25,1.26-.56.31-1.26.47-2.1.47h-2.67v-1.39h2.52c.53,0,.97-.09,1.3-.28.33-.19.58-.44.73-.76s.23-.69.23-1.1-.08-.78-.23-1.09-.4-.57-.74-.75c-.33-.18-.77-.27-1.32-.27h-2.06v9.47h-1.64Z"/>
          <path class="cls-19" d="m428.95,296.57c-.76,0-1.43-.18-2-.53-.57-.35-1.01-.84-1.33-1.47-.31-.63-.47-1.37-.47-2.21s.16-1.59.47-2.22c.32-.63.76-1.13,1.33-1.48.57-.35,1.24-.53,2-.53s1.43.18,2,.53c.57.35,1.01.84,1.33,1.48.32.63.47,1.37.47,2.22s-.16,1.58-.47,2.21c-.31.63-.76,1.12-1.33,1.47-.57.35-1.24.53-2,.53Zm0-1.33c.5,0,.91-.13,1.23-.39s.57-.61.73-1.05c.16-.44.24-.92.24-1.44s-.08-1-.24-1.44c-.16-.44-.4-.79-.73-1.05-.33-.27-.74-.4-1.23-.4s-.91.13-1.24.4c-.33.27-.57.62-.73,1.05s-.24.92-.24,1.44.08,1,.24,1.44c.16.44.4.78.73,1.05.33.26.74.39,1.24.39Z"/>
          <path class="cls-19" d="m436.05,296.4l-2.4-8.16h1.64l1.6,5.99h.08l1.6-5.99h1.64l1.59,5.96h.08l1.59-5.96h1.64l-2.4,8.16h-1.62l-1.66-5.89h-.12l-1.66,5.89h-1.61Z"/>
          <path class="cls-19" d="m449.88,296.57c-.8,0-1.49-.17-2.07-.52-.58-.34-1.02-.83-1.34-1.46-.31-.63-.47-1.37-.47-2.21s.16-1.57.47-2.21.75-1.13,1.32-1.49c.57-.36,1.23-.54,1.98-.54.46,0,.91.08,1.34.23.43.15.82.39,1.16.72.34.33.61.75.81,1.27.2.52.3,1.15.3,1.89v.56h-6.49v-1.19h4.93c0-.42-.08-.79-.25-1.11-.17-.32-.41-.58-.71-.77-.31-.19-.66-.28-1.08-.28-.45,0-.83.11-1.17.33-.33.22-.59.5-.76.85-.18.35-.27.73-.27,1.13v.93c0,.55.1,1.01.29,1.39.19.38.46.67.81.87s.75.3,1.22.3c.3,0,.58-.04.82-.13.25-.09.46-.22.64-.39.18-.17.32-.39.41-.64l1.5.27c-.12.44-.34.83-.65,1.16-.31.33-.7.59-1.16.77-.47.18-1,.27-1.59.27Z"/>
          <path class="cls-19" d="m455.15,296.4v-8.16h1.54v1.3h.08c.15-.44.41-.79.79-1.04s.8-.38,1.28-.38c.1,0,.22,0,.35.01.14,0,.24.02.32.03v1.52c-.06-.02-.18-.04-.34-.06-.16-.02-.33-.03-.49-.03-.38,0-.71.08-1,.24-.29.16-.52.38-.69.65-.17.28-.25.59-.25.95v4.98h-1.59Z"/>
          <path class="cls-19" d="m464.12,296.57c-.8,0-1.49-.17-2.07-.52-.58-.34-1.02-.83-1.34-1.46-.31-.63-.47-1.37-.47-2.21s.16-1.57.47-2.21.75-1.13,1.32-1.49c.57-.36,1.23-.54,1.98-.54.46,0,.91.08,1.34.23.43.15.82.39,1.16.72.34.33.61.75.81,1.27.2.52.3,1.15.3,1.89v.56h-6.49v-1.19h4.93c0-.42-.08-.79-.25-1.11-.17-.32-.41-.58-.71-.77-.31-.19-.66-.28-1.08-.28-.45,0-.83.11-1.17.33-.33.22-.59.5-.76.85-.18.35-.27.73-.27,1.13v.93c0,.55.1,1.01.29,1.39.19.38.46.67.81.87s.75.3,1.22.3c.3,0,.58-.04.82-.13.25-.09.46-.22.64-.39.18-.17.32-.39.41-.64l1.5.27c-.12.44-.34.83-.65,1.16-.31.33-.7.59-1.16.77-.47.18-1,.27-1.59.27Z"/>
          <path class="cls-19" d="m472.44,296.56c-.66,0-1.25-.17-1.76-.51-.52-.34-.92-.82-1.21-1.45-.29-.63-.44-1.38-.44-2.27s.15-1.64.44-2.26.7-1.11,1.22-1.44c.52-.33,1.1-.5,1.76-.5.51,0,.91.08,1.22.25.31.17.55.36.72.59.17.22.31.42.4.59h.1v-4.04h1.59v10.88h-1.55v-1.27h-.13c-.1.17-.23.37-.41.59-.18.22-.42.42-.74.58-.31.17-.72.25-1.21.25Zm.35-1.35c.46,0,.84-.12,1.16-.36.32-.24.56-.58.72-1.01.16-.43.25-.93.25-1.51s-.08-1.06-.24-1.49-.4-.76-.72-.99c-.32-.24-.7-.36-1.17-.36s-.88.12-1.2.37c-.32.25-.56.59-.72,1.01-.16.43-.24.91-.24,1.45s.08,1.04.24,1.47.4.78.73,1.03c.32.25.72.38,1.19.38Z"/>
          <path class="cls-19" d="m482.83,296.4v-10.88h1.59v4.04h.1c.09-.17.22-.37.4-.59.17-.22.41-.42.72-.59.31-.17.72-.25,1.22-.25.66,0,1.25.17,1.76.5.52.33.92.81,1.22,1.44s.44,1.38.44,2.26-.15,1.64-.44,2.27c-.29.63-.7,1.11-1.21,1.45s-1.1.51-1.76.51c-.5,0-.9-.08-1.21-.25-.31-.17-.56-.36-.74-.58-.18-.22-.31-.42-.41-.59h-.13v1.27h-1.55Zm1.56-4.08c0,.57.08,1.08.25,1.51.17.43.41.77.72,1.01.32.24.7.36,1.16.36s.87-.13,1.19-.38c.32-.25.56-.6.72-1.03.17-.44.25-.93.25-1.47s-.08-1.02-.24-1.45c-.16-.43-.4-.77-.72-1.01-.32-.25-.72-.37-1.2-.37s-.85.12-1.17.36-.56.57-.72.99-.24.92-.24,1.49Z"/>
          <path class="cls-19" d="m492.78,299.46c-.24,0-.45-.02-.65-.06s-.34-.08-.44-.12l.38-1.3c.29.08.55.11.78.1.23-.01.43-.09.6-.25.18-.16.33-.42.46-.78l.2-.54-2.98-8.26h1.7l2.07,6.33h.09l2.07-6.33h1.7l-3.36,9.25c-.16.43-.35.79-.6,1.08s-.53.52-.86.67c-.33.15-.72.22-1.16.22Z"/>
        </g>
        <g>
          <path class="cls-19" d="m413.96,327.41c-1.64-.07-3.04-.64-4.19-1.79-.16-.16-.31-.2-.53-.17-2.28.31-4.17-.42-5.58-2.23-1.22-1.56-1.53-3.34-1.02-5.26.04-.16,0-.26-.09-.38-.93-1.14-1.39-2.45-1.37-3.93.04-2.51,1.8-4.83,4.22-5.52.34-.1.52-.26.67-.59.82-1.9,2.26-3.11,4.3-3.5,2.08-.4,3.89.18,5.4,1.67.1.1.18.17.34.14,2.71-.48,5.33.91,6.44,3.42.58,1.3.68,2.64.29,4-.05.18-.02.3.1.44,1.2,1.49,1.64,3.19,1.2,5.03-.54,2.28-1.97,3.79-4.25,4.44-.21.06-.33.16-.41.37-.73,1.84-2.05,3.04-3.95,3.58-.51.14-1.04.18-1.57.26Zm.36-20.94c-.1-.09-.17-.16-.25-.22-1.02-.73-2.16-.99-3.39-.76-2.05.39-3.56,2.16-3.6,4.24-.03,1.8,0,3.59,0,5.39,0,.15.05.25.18.32.54.31,1.08.62,1.62.93.21.12.25.09.26-.14,0-.13,0-.27,0-.4,0-1.94,0-3.87,0-5.81,0-.38.15-.64.48-.83,1.33-.76,2.65-1.53,3.98-2.29.23-.13.46-.27.72-.42Zm-.51,5.59c.13.09.2.15.28.19,1.76,1.02,3.51,2.04,5.28,3.05.36.21.51.48.51.9-.01,1.67,0,3.34,0,5.01,0,.07-.02.16,0,.22.02.05.1.1.16.11.06,0,.13-.04.18-.07,1.56-.77,2.46-2.02,2.55-3.76.09-1.7-.6-3.07-2.05-3.97-1.54-.96-3.14-1.83-4.71-2.75-.13-.07-.24-.08-.37,0-.19.12-.38.23-.57.34-.4.23-.8.46-1.25.72Zm1.49,7.47c0-.32,0-.64,0-.95,0-.2-.05-.22-.23-.13-.04.02-.08.04-.12.06-1.77,1.02-3.55,2.04-5.32,3.07-.3.17-.58.18-.88,0-.66-.39-1.33-.77-2-1.15-.84-.48-1.68-.97-2.51-1.45-.25-.14-.29-.14-.29.16,0,.48-.01.97.08,1.43.52,2.53,3.22,4.08,5.66,3.22.67-.23,1.28-.63,1.91-.98,1.16-.65,2.3-1.33,3.46-1.99.18-.1.25-.22.24-.42-.01-.29,0-.58,0-.86Zm-5.1-6.62c.13-.06.22-.1.3-.15,1.75-1.01,3.5-2.01,5.24-3.02.38-.22.71-.23,1.1,0,1.34.79,2.68,1.56,4.03,2.33.19.11.38.21.61.34.03-.14.07-.23.07-.33.07-.77-.04-1.52-.36-2.23-1.07-2.37-3.92-3.32-6.19-2.04-1.54.87-3.07,1.77-4.61,2.65-.15.09-.2.19-.2.36,0,.61,0,1.21,0,1.82,0,.07.01.14.02.27Zm.97,11.91c.05.05.06.08.09.09.98.76,2.09,1.08,3.31.9,2.22-.32,3.8-2.13,3.82-4.37.02-1.75,0-3.5,0-5.25,0-.18-.06-.29-.21-.37-.53-.3-1.05-.6-1.57-.91-.07-.04-.14-.06-.24-.1,0,.14-.02.24-.02.34,0,2-.01,3.99,0,5.99,0,.48-.17.78-.59,1.02-1.46.82-2.91,1.67-4.36,2.51-.07.04-.14.1-.23.16Zm-5.59-15.15c-.13.04-.21.06-.28.1-1.43.67-2.3,1.77-2.56,3.33-.3,1.77.54,3.59,2.1,4.5,1.53.89,3.07,1.77,4.6,2.67.15.09.26.08.41,0,.51-.31,1.04-.6,1.55-.9.26-.15.26-.17-.01-.33-1.76-1.02-3.51-2.04-5.28-3.05-.39-.22-.55-.52-.54-.96,0-1.67,0-3.34,0-5.01v-.34Zm4.6,5.97h0c0,.43,0,.86,0,1.29,0,.1.08.23.16.28.74.44,1.49.85,2.23,1.28.13.07.23.07.35,0,.72-.43,1.45-.85,2.18-1.27.14-.08.19-.18.19-.34,0-.84-.01-1.67-.01-2.51,0-.15-.05-.24-.19-.32-.73-.41-1.47-.83-2.19-1.25-.14-.08-.25-.08-.39,0-.72.43-1.45.86-2.18,1.27-.13.07-.17.17-.17.3,0,.42,0,.84,0,1.26Z"/>
          <g>
            <path class="cls-19" d="m429.69,314.07c.04-.76.05-1.52.14-2.28.28-2.33,1.92-4.09,4.22-4.57,1.47-.3,2.93-.26,4.34.31,1.75.71,2.76,2.05,3.15,3.87.12.54.15,1.1.17,1.65.03.78.02,1.55,0,2.33-.03,1.28-.35,2.49-1.11,3.54-.8,1.09-1.89,1.73-3.19,2.01-1.38.3-2.75.26-4.09-.21-1.72-.61-2.82-1.82-3.31-3.57-.14-.49-.21-1.01-.25-1.53-.04-.51,0-1.03,0-1.55-.02,0-.04,0-.05,0Zm2.52.01s-.07,0-.1,0c.06.79.07,1.6.2,2.38.14.89.59,1.64,1.38,2.13.84.53,1.76.61,2.71.49.6-.08,1.16-.29,1.64-.68.84-.7,1.16-1.64,1.22-2.68.05-.83.03-1.67.02-2.51,0-.46-.02-.92-.1-1.37-.19-1.12-.72-2.01-1.79-2.5-.8-.37-1.65-.4-2.5-.25-.66.11-1.24.39-1.71.87-.6.62-.89,1.38-.96,2.21-.05.63,0,1.27,0,1.9Z"/>
            <path class="cls-19" d="m446.21,319.54c0,.09,0,.17,0,.26,0,1.4,0,2.79,0,4.19,0,.29,0,.3-.3.3-.6,0-1.2,0-1.8,0-.21,0-.27-.08-.27-.27,0-4.29,0-8.57,0-12.86,0-.21.07-.26.27-.26.57,0,1.14.01,1.71,0,.23,0,.29.08.28.3-.02.37,0,.75,0,1.12l.06.02s.09-.09.13-.15c.61-.99,1.54-1.43,2.66-1.51.9-.07,1.76.06,2.54.53,1.11.67,1.7,1.69,1.88,2.94.16,1.17.15,2.35,0,3.51-.24,1.85-1.71,3.23-3.57,3.39-.84.07-1.65-.02-2.41-.44-.36-.2-.67-.46-.9-.81-.07-.1-.15-.19-.22-.29-.03,0-.06.02-.08.03Zm4.92-3.67s-.02,0-.04,0c0-.34.02-.68,0-1.02-.07-1.18-.75-2.1-1.97-2.31-1.39-.24-2.67.63-2.84,2.04-.09.76-.1,1.54-.05,2.3.09,1.28.75,2.06,1.91,2.3,1.25.25,2.58-.32,2.87-1.82.09-.48.08-.98.12-1.48Z"/>
            <path class="cls-19" d="m476.73,320.82c.03-.1.05-.16.07-.23.78-2.19,1.56-4.38,2.35-6.57.77-2.16,1.55-4.32,2.33-6.48.06-.16.14-.21.31-.21.69,0,1.38.01,2.06,0,.21,0,.31.07.38.27.66,1.86,1.33,3.71,1.99,5.57.87,2.43,1.75,4.86,2.62,7.3.04.1.07.21.11.35-.09.01-.16.04-.24.04-.64,0-1.27,0-1.91,0-.17,0-.25-.07-.3-.22-.25-.8-.51-1.59-.75-2.39-.07-.23-.18-.31-.42-.31-1.66.01-3.33,0-4.99,0-.21,0-.32.06-.38.27-.24.8-.51,1.59-.76,2.39-.06.19-.15.27-.36.27-.61-.01-1.21,0-1.82,0-.09,0-.17-.01-.29-.02Zm6.15-11.54s-.05,0-.07,0c-.04.09-.08.18-.11.28-.66,2.07-1.32,4.13-1.98,6.2-.09.28-.07.3.22.3,1.25,0,2.5,0,3.75,0,.32,0,.34-.02.24-.32-.58-1.83-1.16-3.66-1.73-5.49-.1-.32-.21-.64-.31-.96Z"/>
            <path class="cls-19" d="m493.38,314.08c0-1.52,0-3.03,0-4.55,0-.34,0-.34-.35-.34-.77,0-1.54,0-2.31,0-.19,0-.26-.06-.25-.25.01-.47,0-.93,0-1.4,0-.17.06-.23.23-.23,2.6,0,5.21,0,7.81,0,.18,0,.24.07.24.25,0,.46-.01.92,0,1.37,0,.19-.06.26-.25.26-.79,0-1.58,0-2.37,0-.29,0-.3,0-.3.3,0,3.06,0,6.12,0,9.18,0,.28.01.29.29.29.79,0,1.58,0,2.37,0,.2,0,.28.05.27.26-.01.43,0,.86,0,1.29,0,.32,0,.32-.32.32-2.17,0-4.35,0-6.52,0-.39,0-.78,0-1.18,0-.21,0-.27-.07-.26-.27.01-.45.01-.9,0-1.35,0-.19.06-.26.25-.25.77,0,1.54,0,2.31,0,.35,0,.35,0,.35-.36,0-1.51,0-3.02,0-4.52Z"/>
            <path class="cls-19" d="m468.26,312.44c.08-.1.12-.15.15-.21.45-.96,1.26-1.41,2.26-1.53.87-.11,1.73-.07,2.53.36.82.45,1.3,1.15,1.51,2.04.1.44.16.89.16,1.34.02,2.03,0,4.07,0,6.1q0,.3-.31.3c-.58,0-1.15,0-1.73,0q-.33,0-.33-.33c0-1.89,0-3.79,0-5.68,0-.36-.07-.74-.2-1.08-.25-.66-.79-.97-1.48-1.08-.86-.13-1.73.2-2.14.86-.26.41-.34.88-.34,1.36,0,1.86,0,3.73,0,5.59q0,.35-.35.35c-.58,0-1.17,0-1.75,0-.2,0-.27-.07-.27-.27,0-3.14,0-6.29,0-9.43,0-.2.07-.26.26-.25.58,0,1.15,0,1.73,0,.2,0,.28.05.27.26-.01.33,0,.67,0,1,0,.08.02.15.04.29Z"/>
            <path class="cls-19" d="m460.83,316.63c-1.02,0-2.04,0-3.06,0-.32,0-.34,0-.31.32.04.4.07.82.2,1.19.32.86,1.01,1.24,1.89,1.3,1.09.07,1.97-.36,2.69-1.15.12-.14.21-.16.37-.06.35.21.7.42,1.06.61.16.09.16.17.07.31-.6.91-1.43,1.51-2.49,1.75-1.26.28-2.52.25-3.72-.28-1.27-.56-2.02-1.56-2.25-2.91-.21-1.27-.23-2.57.05-3.83.36-1.6,1.36-2.65,2.97-3.05,1.24-.32,2.48-.27,3.66.29,1.08.52,1.74,1.4,2.05,2.54.25.93.15,1.88.17,2.82,0,.14-.09.15-.19.15-.35,0-.71,0-1.06,0-.7,0-1.39,0-2.09,0Zm-1.08-1.57c.58,0,1.17,0,1.75,0,.56,0,.54.08.52-.54-.03-.65-.18-1.26-.69-1.72-.64-.59-1.42-.65-2.23-.49-.7.14-1.2.55-1.42,1.23-.13.4-.16.84-.23,1.26-.03.21.06.29.27.28.67-.01,1.35,0,2.02,0Z"/>
          </g>
        </g>
      </g>
      <g>
        <g>
          <path class="cls-6" d="m73.26,319.89c-.13-.09-.24-.2-.34-.32.37.44.82.81,1.34,1.06l-1-.74Z"/>
          <path class="cls-6" d="m109.63,300.36c-.4-.97-1.26-1.2-1.84-1.26v-5.91c0-2.19-1.78-3.97-3.98-3.97h-11.92v-2.76c.6-.55.99-1.33.99-2.21,0-1.65-1.33-2.98-2.98-2.98s-2.98,1.33-2.98,2.98c0,.88.39,1.66.99,2.21v2.76h-11.92c-2.19,0-3.97,1.78-3.97,3.97v5.96h-.16c-1.04.09-1.85.95-1.85,1.99v3.98c0,1.1.89,1.99,1.99,1.99h.02v9.94c0,.89.3,1.71.8,2.38.04.05.07.1.11.14,0,0,0,0,0,0,.1.11.22.22.34.32l1,.74h0s14.44,10.65,14.44,10.65c.35.26.76.39,1.18.39s.83-.13,1.18-.39c.7-.52.98-1.43.69-2.26l-2.84-8h14.89c2.19,0,3.98-1.78,3.98-3.98v-9.94c1.1,0,1.99-.89,1.99-1.99v-3.86c.02-.31-.03-.62-.15-.9Zm-5.82,4.77v11.91h-18.41c-1.03.37-1.45,1.85-1.08,2.88l.39,1.1,1.14,3.23-4.38-3.23-5.39-3.98h-.1v-23.85h27.82v7.94s0,0,0,0v3.98h0Z"/>
          <ellipse class="cls-6" cx="82.94" cy="301.14" rx="2.98" ry="3.98"/>
          <ellipse class="cls-6" cx="96.85" cy="301.14" rx="2.98" ry="3.98"/>
          <path class="cls-6" d="m90,314.47c-.08,0-.17,0-.25,0-4.64-.12-7.84-3.61-7.98-3.76-.73-.81-.67-2.07.14-2.8.81-.73,2.06-.67,2.79.14.06.06,2.27,2.4,5.17,2.46,1.78.04,3.56-.81,5.27-2.53.77-.77,2.03-.77,2.8,0,.77.77.77,2.03,0,2.8-2.45,2.45-5.13,3.69-7.96,3.69Z"/>
        </g>
        <g>
          <path class="cls-6" d="m140.63,302.25h-2.14c-.08-.46-.24-.86-.46-1.21-.22-.35-.5-.64-.82-.89s-.69-.43-1.09-.55c-.4-.12-.82-.18-1.27-.18-.81,0-1.53.2-2.17.61-.64.41-1.14,1-1.51,1.79-.37.79-.55,1.75-.55,2.88s.18,2.11.55,2.9c.37.79.87,1.38,1.51,1.78.64.4,1.36.6,2.16.6.44,0,.87-.06,1.27-.18.4-.12.76-.3,1.09-.54.32-.24.6-.53.83-.87s.38-.74.47-1.19h2.14c-.11.7-.33,1.33-.66,1.91-.33.58-.75,1.08-1.25,1.5-.51.42-1.09.74-1.75.97-.65.23-1.37.34-2.14.34-1.22,0-2.3-.29-3.25-.87-.95-.58-1.7-1.41-2.25-2.49-.55-1.08-.82-2.37-.82-3.86s.27-2.79.82-3.87c.55-1.08,1.3-1.91,2.25-2.48.95-.58,2.03-.87,3.25-.87.75,0,1.44.11,2.09.32.65.21,1.23.52,1.75.93.52.41.94.91,1.28,1.5s.57,1.26.69,2.01Z"/>
          <path class="cls-6" d="m145.06,297.68v14.05h-2.05v-14.05h2.05Z"/>
          <path class="cls-6" d="m148.86,299.57c-.36,0-.66-.12-.92-.36-.25-.24-.38-.53-.38-.86s.13-.63.38-.87c.25-.24.56-.36.92-.36s.66.12.92.36c.25.24.38.53.38.86s-.13.63-.38.87c-.25.24-.56.36-.92.36Zm-1.04,12.17v-10.54h2.05v10.54h-2.05Z"/>
          <path class="cls-6" d="m157.07,311.95c-1.02,0-1.9-.23-2.63-.7s-1.3-1.11-1.69-1.92-.59-1.76-.59-2.81.2-2.02.6-2.84c.4-.82.97-1.46,1.7-1.92.73-.46,1.59-.69,2.59-.69.8,0,1.51.15,2.14.44.63.29,1.13.71,1.52,1.24.39.53.62,1.15.69,1.86h-2c-.11-.49-.36-.92-.75-1.28-.39-.36-.91-.54-1.57-.54-.57,0-1.07.15-1.5.45-.43.3-.76.72-1,1.28-.24.55-.36,1.2-.36,1.95s.12,1.43.35,1.99c.23.56.56.99.99,1.3s.93.46,1.51.46c.39,0,.74-.07,1.06-.22.32-.14.59-.35.8-.62.22-.27.37-.59.46-.97h2c-.07.68-.29,1.29-.67,1.83s-.87.96-1.49,1.26c-.62.31-1.35.46-2.18.46Z"/>
          <path class="cls-6" d="m163.6,311.74v-14.05h2.05v14.05h-2.05Zm1.89-3.58v-2.51s.34,0,.34,0l4.2-4.46h2.46l-4.79,5.08h-.32l-1.89,1.89Zm4.77,3.58l-3.77-5.01,1.41-1.43,4.88,6.44h-2.52Z"/>
          <path class="cls-6" d="m181.53,305.48v6.26h-2.05v-14.05h2.02v5.23h.13c.25-.57.62-1.02,1.13-1.35.51-.33,1.17-.5,1.99-.5.72,0,1.35.15,1.9.45.54.3.96.74,1.26,1.33.3.59.45,1.32.45,2.2v6.7h-2.05v-6.46c0-.77-.2-1.37-.6-1.8-.4-.43-.95-.64-1.66-.64-.49,0-.92.1-1.3.31-.38.21-.68.51-.9.9-.22.4-.33.87-.33,1.43Z"/>
          <path class="cls-6" d="m195.65,311.95c-1.04,0-1.93-.22-2.68-.67-.75-.45-1.32-1.07-1.73-1.89-.4-.81-.61-1.76-.61-2.86s.2-2.03.61-2.85c.4-.82.97-1.47,1.7-1.93.73-.46,1.58-.69,2.56-.69.59,0,1.17.1,1.73.29.56.2,1.06.51,1.5.93.44.42.79.97,1.05,1.64.26.67.38,1.48.38,2.44v.73h-8.38v-1.54h6.37c0-.54-.11-1.02-.33-1.44-.22-.42-.53-.75-.92-.99-.4-.24-.86-.36-1.39-.36-.58,0-1.08.14-1.51.42-.43.28-.76.65-.99,1.1-.23.45-.35.94-.35,1.47v1.2c0,.7.12,1.3.37,1.8.25.49.6.87,1.05,1.13s.97.39,1.57.39c.39,0,.74-.06,1.06-.17.32-.11.6-.28.83-.5.23-.22.41-.5.54-.83l1.94.35c-.16.57-.43,1.07-.83,1.5-.4.43-.9.76-1.5,1-.6.24-1.29.35-2.06.35Z"/>
          <path class="cls-6" d="m202.46,311.74v-10.54h1.98v1.67h.11c.19-.57.53-1.01,1.02-1.34s1.04-.49,1.66-.49c.13,0,.28,0,.46.01.18,0,.31.02.42.03v1.96c-.08-.02-.23-.05-.44-.08-.21-.03-.42-.04-.63-.04-.49,0-.92.1-1.29.3-.38.2-.68.49-.9.84-.22.36-.33.77-.33,1.22v6.44h-2.05Z"/>
          <path class="cls-6" d="m214.04,311.95c-1.04,0-1.93-.22-2.68-.67-.75-.45-1.32-1.07-1.73-1.89-.4-.81-.61-1.76-.61-2.86s.2-2.03.61-2.85.97-1.47,1.7-1.93c.73-.46,1.58-.69,2.56-.69.59,0,1.17.1,1.73.29.56.2,1.06.51,1.5.93s.79.97,1.05,1.64c.26.67.38,1.48.38,2.44v.73h-8.38v-1.54h6.37c0-.54-.11-1.02-.33-1.44-.22-.42-.53-.75-.92-.99-.4-.24-.86-.36-1.39-.36-.58,0-1.08.14-1.51.42-.43.28-.76.65-.99,1.1-.23.45-.35.94-.35,1.47v1.2c0,.7.12,1.3.37,1.8.25.49.6.87,1.05,1.13s.97.39,1.57.39c.39,0,.74-.06,1.06-.17.32-.11.6-.28.83-.5.23-.22.41-.5.54-.83l1.94.35c-.16.57-.43,1.07-.83,1.5-.4.43-.9.76-1.5,1-.6.24-1.29.35-2.06.35Z"/>
          <path class="cls-6" d="m230.98,301.2v1.65h-5.96v-1.65h5.96Zm-4.32,10.54v-11.76c0-.66.14-1.21.43-1.64.29-.44.67-.76,1.15-.98.48-.22.99-.33,1.55-.33.41,0,.76.03,1.06.1.29.07.51.13.65.18l-.48,1.66c-.1-.03-.22-.06-.37-.1s-.33-.06-.55-.06c-.5,0-.85.12-1.07.37-.21.25-.32.6-.32,1.07v11.49h-2.05Z"/>
          <path class="cls-6" d="m237.12,311.95c-.99,0-1.85-.23-2.59-.68-.74-.45-1.31-1.09-1.72-1.9-.41-.81-.61-1.77-.61-2.86s.2-2.05.61-2.87c.41-.82.98-1.45,1.72-1.91.74-.45,1.6-.68,2.59-.68s1.85.23,2.59.68c.74.45,1.31,1.09,1.72,1.91.41.82.61,1.78.61,2.87s-.2,2.04-.61,2.86c-.41.81-.98,1.45-1.72,1.9-.74.45-1.6.68-2.59.68Zm0-1.72c.64,0,1.17-.17,1.59-.51s.73-.79.94-1.35c.2-.56.3-1.18.3-1.86s-.1-1.29-.3-1.86c-.2-.57-.52-1.02-.94-1.36-.42-.34-.95-.51-1.59-.51s-1.18.17-1.6.51c-.42.34-.74.8-.94,1.36-.2.57-.31,1.18-.31,1.86s.1,1.3.31,1.86.52,1.01.94,1.35c.42.34.96.51,1.6.51Z"/>
          <path class="cls-6" d="m244.32,311.74v-10.54h1.98v1.67h.11c.19-.57.53-1.01,1.02-1.34s1.04-.49,1.66-.49c.13,0,.28,0,.46.01.18,0,.31.02.42.03v1.96c-.08-.02-.23-.05-.44-.08-.21-.03-.42-.04-.63-.04-.49,0-.92.1-1.29.3-.38.2-.68.49-.9.84-.22.36-.33.77-.33,1.22v6.44h-2.05Z"/>
          <path class="cls-6" d="m264.76,303.77l-1.86.33c-.08-.24-.2-.46-.37-.68-.17-.21-.39-.39-.68-.53-.28-.14-.64-.21-1.06-.21-.58,0-1.07.13-1.46.39s-.58.59-.58,1c0,.35.13.64.39.85.26.22.68.39,1.26.53l1.67.38c.97.22,1.69.57,2.17,1.04.48.47.71,1.07.71,1.82,0,.63-.18,1.19-.55,1.68-.36.49-.87.88-1.52,1.16s-1.4.42-2.25.42c-1.18,0-2.14-.25-2.89-.76-.75-.51-1.2-1.22-1.37-2.16l1.98-.3c.12.52.38.91.76,1.17.38.26.89.39,1.5.39.67,0,1.21-.14,1.61-.42.4-.28.6-.63.6-1.03,0-.33-.12-.61-.37-.83s-.62-.39-1.12-.51l-1.78-.39c-.98-.22-1.71-.58-2.18-1.07-.47-.49-.7-1.11-.7-1.86,0-.62.17-1.17.52-1.63.35-.47.83-.83,1.44-1.09.61-.26,1.31-.39,2.11-.39,1.14,0,2.04.25,2.69.74.65.49,1.09,1.15,1.3,1.97Z"/>
          <path class="cls-6" d="m273.89,307.37v-6.17h2.06v10.54h-2.02v-1.83h-.11c-.24.56-.63,1.03-1.16,1.4-.53.37-1.2.56-1.99.56-.68,0-1.27-.15-1.79-.45-.52-.3-.93-.74-1.22-1.33-.3-.59-.44-1.32-.44-2.19v-6.71h2.05v6.46c0,.72.2,1.29.6,1.72s.92.64,1.55.64c.38,0,.77-.1,1.15-.29.38-.19.7-.48.95-.87s.38-.88.37-1.48Z"/>
          <path class="cls-6" d="m283.12,315.91c-.84,0-1.56-.11-2.16-.33-.6-.22-1.09-.51-1.47-.87-.38-.36-.66-.76-.85-1.19l1.76-.73c.12.2.29.42.5.64.21.23.49.42.85.58.36.16.82.24,1.39.24.78,0,1.42-.19,1.93-.57s.76-.98.76-1.8v-2.07h-.13c-.12.22-.3.47-.53.75s-.55.51-.95.71c-.4.2-.93.3-1.57.3-.83,0-1.58-.2-2.25-.59-.67-.39-1.19-.97-1.58-1.74s-.58-1.71-.58-2.83.19-2.08.57-2.88c.38-.8.91-1.41,1.57-1.84.67-.43,1.42-.64,2.27-.64.65,0,1.18.11,1.59.33.4.22.72.47.94.76.23.29.4.54.53.76h.15v-1.71h2.01v10.77c0,.91-.21,1.65-.63,2.23-.42.58-.99,1.01-1.71,1.29-.72.28-1.52.42-2.42.42Zm-.02-6.03c.59,0,1.09-.14,1.5-.42.41-.28.72-.67.93-1.19.21-.52.32-1.14.32-1.87s-.11-1.33-.32-1.87c-.21-.54-.52-.96-.93-1.27-.41-.3-.91-.46-1.51-.46s-1.13.16-1.54.48c-.41.32-.72.75-.93,1.29-.21.54-.31,1.15-.31,1.83s.1,1.3.32,1.82.52.93.94,1.22c.41.29.93.44,1.53.44Z"/>
          <path class="cls-6" d="m295.05,315.91c-.84,0-1.56-.11-2.16-.33-.6-.22-1.09-.51-1.47-.87-.38-.36-.66-.76-.85-1.19l1.76-.73c.12.2.29.42.5.64.21.23.49.42.85.58.36.16.82.24,1.39.24.78,0,1.42-.19,1.93-.57s.76-.98.76-1.8v-2.07h-.13c-.12.22-.3.47-.53.75s-.55.51-.95.71c-.4.2-.93.3-1.57.3-.83,0-1.58-.2-2.25-.59-.67-.39-1.19-.97-1.58-1.74s-.58-1.71-.58-2.83.19-2.08.57-2.88c.38-.8.91-1.41,1.57-1.84.67-.43,1.42-.64,2.27-.64.65,0,1.18.11,1.59.33.4.22.72.47.94.76.23.29.4.54.53.76h.15v-1.71h2.01v10.77c0,.91-.21,1.65-.63,2.23-.42.58-.99,1.01-1.71,1.29s-1.52.42-2.42.42Zm-.02-6.03c.59,0,1.09-.14,1.5-.42.41-.28.72-.67.93-1.19.21-.52.32-1.14.32-1.87s-.11-1.33-.32-1.87c-.21-.54-.52-.96-.93-1.27-.41-.3-.91-.46-1.51-.46s-1.13.16-1.54.48c-.41.32-.72.75-.93,1.29-.21.54-.31,1.15-.31,1.83s.1,1.3.32,1.82.52.93.94,1.22c.41.29.93.44,1.53.44Z"/>
          <path class="cls-6" d="m307.1,311.95c-1.04,0-1.93-.22-2.68-.67-.75-.45-1.32-1.07-1.73-1.89-.4-.81-.61-1.76-.61-2.86s.2-2.03.61-2.85.97-1.47,1.7-1.93c.73-.46,1.58-.69,2.56-.69.59,0,1.17.1,1.73.29.56.2,1.06.51,1.5.93.44.42.79.97,1.05,1.64.26.67.38,1.48.38,2.44v.73h-8.38v-1.54h6.37c0-.54-.11-1.02-.33-1.44-.22-.42-.53-.75-.92-.99-.4-.24-.86-.36-1.39-.36-.58,0-1.08.14-1.51.42-.43.28-.76.65-.99,1.1-.23.45-.35.94-.35,1.47v1.2c0,.7.12,1.3.37,1.8.25.49.6.87,1.05,1.13s.97.39,1.57.39c.39,0,.74-.06,1.06-.17.32-.11.6-.28.83-.5.23-.22.41-.5.54-.83l1.94.35c-.16.57-.43,1.07-.83,1.5-.4.43-.9.76-1.5,1-.6.24-1.29.35-2.06.35Z"/>
          <path class="cls-6" d="m321.81,303.77l-1.86.33c-.08-.24-.2-.46-.37-.68-.17-.21-.39-.39-.68-.53-.28-.14-.64-.21-1.06-.21-.58,0-1.07.13-1.46.39s-.58.59-.58,1c0,.35.13.64.39.85.26.22.68.39,1.26.53l1.67.38c.97.22,1.69.57,2.17,1.04.48.47.71,1.07.71,1.82,0,.63-.18,1.19-.55,1.68-.36.49-.87.88-1.52,1.16s-1.4.42-2.25.42c-1.18,0-2.14-.25-2.89-.76-.75-.51-1.2-1.22-1.37-2.16l1.98-.3c.12.52.38.91.76,1.17.38.26.89.39,1.5.39.67,0,1.21-.14,1.61-.42.4-.28.6-.63.6-1.03,0-.33-.12-.61-.37-.83s-.62-.39-1.12-.51l-1.78-.39c-.98-.22-1.71-.58-2.18-1.07-.47-.49-.7-1.11-.7-1.86,0-.62.17-1.17.52-1.63.35-.47.83-.83,1.44-1.09.61-.26,1.31-.39,2.11-.39,1.14,0,2.04.25,2.69.74.65.49,1.09,1.15,1.3,1.97Z"/>
          <path class="cls-6" d="m329.18,301.2v1.65h-5.76v-1.65h5.76Zm-4.21-2.53h2.05v9.97c0,.4.06.7.18.9.12.2.27.33.46.4.19.07.4.11.62.11.16,0,.31-.01.43-.03.12-.02.22-.04.29-.06l.37,1.7c-.12.05-.29.09-.51.14s-.49.07-.82.08c-.54,0-1.04-.09-1.51-.29-.47-.2-.84-.51-1.13-.93-.29-.42-.43-.95-.43-1.59v-10.4Z"/>
          <path class="cls-6" d="m332.48,299.57c-.36,0-.66-.12-.92-.36-.25-.24-.38-.53-.38-.86s.13-.63.38-.87c.25-.24.56-.36.92-.36s.66.12.92.36c.25.24.38.53.38.86s-.13.63-.38.87c-.25.24-.56.36-.92.36Zm-1.04,12.17v-10.54h2.05v10.54h-2.05Z"/>
          <path class="cls-6" d="m340.7,311.95c-.99,0-1.85-.23-2.59-.68-.74-.45-1.31-1.09-1.72-1.9-.41-.81-.61-1.77-.61-2.86s.2-2.05.61-2.87c.41-.82.98-1.45,1.72-1.91.74-.45,1.6-.68,2.59-.68s1.85.23,2.59.68c.74.45,1.31,1.09,1.72,1.91.41.82.61,1.78.61,2.87s-.2,2.04-.61,2.86c-.41.81-.98,1.45-1.72,1.9-.74.45-1.6.68-2.59.68Zm0-1.72c.64,0,1.17-.17,1.59-.51s.73-.79.94-1.35c.2-.56.3-1.18.3-1.86s-.1-1.29-.3-1.86c-.2-.57-.52-1.02-.94-1.36-.42-.34-.95-.51-1.59-.51s-1.18.17-1.6.51c-.42.34-.74.8-.94,1.36-.2.57-.31,1.18-.31,1.86s.1,1.3.31,1.86.52,1.01.94,1.35c.42.34.96.51,1.6.51Z"/>
          <path class="cls-6" d="m349.95,305.48v6.26h-2.05v-10.54h1.97v1.72h.13c.24-.56.62-1.01,1.14-1.34s1.17-.51,1.97-.51c.72,0,1.35.15,1.89.45s.96.74,1.26,1.34c.3.59.45,1.32.45,2.19v6.7h-2.05v-6.46c0-.76-.2-1.36-.6-1.79-.4-.43-.94-.65-1.64-.65-.48,0-.9.1-1.27.31-.37.21-.66.51-.87.9-.21.4-.32.87-.32,1.43Z"/>
          <path class="cls-6" d="m367.34,303.77l-1.86.33c-.08-.24-.2-.46-.37-.68-.17-.21-.39-.39-.68-.53-.28-.14-.64-.21-1.06-.21-.58,0-1.07.13-1.46.39s-.58.59-.58,1c0,.35.13.64.39.85.26.22.68.39,1.26.53l1.67.38c.97.22,1.69.57,2.17,1.04.48.47.71,1.07.71,1.82,0,.63-.18,1.19-.55,1.68-.36.49-.87.88-1.52,1.16s-1.4.42-2.25.42c-1.18,0-2.14-.25-2.89-.76-.75-.51-1.2-1.22-1.37-2.16l1.98-.3c.12.52.38.91.76,1.17.38.26.89.39,1.5.39.67,0,1.21-.14,1.61-.42.4-.28.6-.63.6-1.03,0-.33-.12-.61-.37-.83s-.62-.39-1.12-.51l-1.78-.39c-.98-.22-1.71-.58-2.18-1.07-.47-.49-.7-1.11-.7-1.86,0-.62.17-1.17.52-1.63.35-.47.83-.83,1.44-1.09.61-.26,1.31-.39,2.11-.39,1.14,0,2.04.25,2.69.74.65.49,1.09,1.15,1.3,1.97Z"/>
        </g>
      </g>
    </g>
  </g>
  <g>
    <g>
      <path class="cls-4" d="m416.88,72.5v-1.78h8.94v1.78h-8.94Zm3.58,3.58v-8.93h1.78v8.93h-1.78Z"/>
      <g>
        <path class="cls-4" d="m435.47,77.69h-1.98l4.44-12.33h2.15l4.44,12.33h-1.97l-3.49-10.09h-.1l-3.49,10.09Zm.33-4.83h6.41v1.57h-6.41v-1.57Z"/>
        <path class="cls-4" d="m449.46,77.87c-.75,0-1.41-.19-2-.58-.59-.38-1.04-.93-1.37-1.64-.33-.71-.5-1.57-.5-2.57s.17-1.85.5-2.57c.34-.71.8-1.25,1.38-1.63.59-.38,1.25-.57,1.99-.57.57,0,1.04.1,1.39.29.35.19.62.41.82.67.19.25.35.48.46.67h.11v-4.58h1.8v12.33h-1.76v-1.44h-.15c-.11.2-.26.42-.47.67-.2.25-.48.47-.83.66-.35.19-.81.28-1.37.28Zm.4-1.54c.52,0,.96-.14,1.32-.41.36-.28.63-.66.82-1.15s.28-1.06.28-1.71-.09-1.2-.28-1.69-.46-.86-.81-1.13-.8-.4-1.32-.4-.99.14-1.35.42c-.36.28-.63.66-.82,1.15s-.27,1.03-.27,1.64.09,1.17.28,1.67.46.88.82,1.17.81.43,1.35.43Z"/>
        <path class="cls-4" d="m460.07,77.87c-.75,0-1.41-.19-2-.58-.59-.38-1.04-.93-1.37-1.64s-.5-1.57-.5-2.57.17-1.85.5-2.57c.34-.71.8-1.25,1.38-1.63.59-.38,1.25-.57,1.99-.57.57,0,1.04.1,1.39.29.35.19.62.41.82.67.19.25.35.48.46.67h.11v-4.58h1.8v12.33h-1.76v-1.44h-.15c-.11.2-.26.42-.47.67-.2.25-.48.47-.83.66-.35.19-.81.28-1.37.28Zm.4-1.54c.52,0,.96-.14,1.32-.41.36-.28.63-.66.82-1.15.19-.49.28-1.06.28-1.71s-.09-1.2-.28-1.69-.46-.86-.81-1.13-.8-.4-1.32-.4-.99.14-1.35.42c-.36.28-.63.66-.82,1.15s-.27,1.03-.27,1.64.09,1.17.28,1.67.46.88.82,1.17c.36.29.81.43,1.35.43Z"/>
        <path class="cls-4" d="m481.81,65.36v12.33h-1.71l-6.27-9.04h-.11v9.04h-1.86v-12.33h1.72l6.27,9.05h.11v-9.05h1.84Z"/>
        <path class="cls-4" d="m488.36,77.88c-.91,0-1.7-.2-2.35-.59-.66-.39-1.16-.94-1.52-1.66-.35-.71-.53-1.55-.53-2.51s.18-1.78.53-2.51c.36-.72.85-1.29,1.49-1.69.64-.41,1.39-.61,2.25-.61.52,0,1.03.09,1.52.26.49.17.93.44,1.32.81.39.37.7.85.92,1.44.22.59.34,1.3.34,2.14v.64h-7.35v-1.35h5.59c0-.47-.1-.89-.29-1.26-.19-.37-.46-.66-.81-.87-.35-.21-.75-.32-1.22-.32-.51,0-.95.12-1.32.37s-.66.57-.87.96-.3.82-.3,1.29v1.05c0,.62.11,1.14.33,1.58.22.43.52.76.92.99.39.23.85.34,1.38.34.34,0,.65-.05.93-.15.28-.1.52-.25.73-.44.21-.2.36-.44.47-.73l1.7.31c-.14.5-.38.94-.73,1.32-.35.38-.79.67-1.32.87-.53.21-1.13.31-1.8.31Z"/>
        <path class="cls-4" d="m496.31,77.69l-2.72-9.25h1.86l1.81,6.79h.09l1.82-6.79h1.86l1.81,6.76h.09l1.8-6.76h1.86l-2.72,9.25h-1.84l-1.88-6.68h-.14l-1.88,6.68h-1.83Z"/>
      </g>
    </g>
    <g>
      <path class="cls-4" d="m62.17,77.66v-15.77h5.62c1.23,0,2.24.22,3.05.67.81.45,1.41,1.06,1.81,1.83.4.77.6,1.64.6,2.61s-.2,1.84-.6,2.61c-.4.77-1.01,1.38-1.82,1.83-.81.45-1.82.67-3.05.67h-3.87v-2.02h3.65c.77,0,1.4-.13,1.89-.4.48-.27.84-.64,1.06-1.1s.34-1,.34-1.59-.11-1.12-.34-1.59-.58-.82-1.07-1.09c-.48-.26-1.12-.39-1.91-.39h-2.99v13.73h-2.38Z"/>
      <path class="cls-4" d="m75.84,77.66v-11.83h2.23v1.88h.12c.22-.64.6-1.14,1.14-1.51.55-.37,1.17-.55,1.86-.55.14,0,.31,0,.51.01.2.01.35.02.47.04v2.2c-.09-.03-.26-.06-.49-.09-.24-.03-.47-.05-.71-.05-.54,0-1.03.11-1.45.34-.42.23-.76.54-1.01.95-.25.4-.37.86-.37,1.37v7.22h-2.3Z"/>
      <path class="cls-4" d="m88.73,77.89c-1.11,0-2.08-.25-2.9-.76-.83-.51-1.47-1.22-1.92-2.13-.46-.91-.69-1.98-.69-3.2s.23-2.3.69-3.22c.46-.92,1.1-1.63,1.92-2.14.83-.51,1.79-.76,2.9-.76s2.08.25,2.9.76,1.47,1.22,1.92,2.14c.46.92.69,1.99.69,3.22s-.23,2.29-.69,3.2c-.46.91-1.1,1.62-1.92,2.13s-1.79.76-2.9.76Zm0-1.93c.72,0,1.31-.19,1.79-.57s.82-.89,1.05-1.52c.23-.63.34-1.33.34-2.09s-.11-1.45-.34-2.08c-.23-.63-.58-1.14-1.05-1.53-.47-.38-1.07-.58-1.79-.58s-1.32.19-1.8.58c-.47.39-.83.89-1.05,1.53s-.34,1.33-.34,2.08.11,1.46.34,2.09.58,1.14,1.05,1.52c.48.38,1.07.57,1.8.57Z"/>
      <path class="cls-4" d="m102.43,65.83v1.85h-6.68v-1.85h6.68Zm-4.85,11.83v-13.2c0-.74.16-1.35.49-1.84.32-.49.75-.86,1.29-1.1.53-.24,1.11-.37,1.74-.37.46,0,.86.04,1.19.11.33.07.57.14.73.2l-.54,1.86c-.11-.03-.25-.07-.42-.11s-.37-.07-.62-.07c-.56,0-.96.14-1.2.42-.24.28-.36.68-.36,1.2v12.89h-2.3Z"/>
      <path class="cls-4" d="m109.43,77.89c-1.16,0-2.17-.25-3.01-.75-.84-.5-1.49-1.21-1.94-2.12-.45-.91-.68-1.98-.68-3.21s.23-2.28.68-3.2c.45-.92,1.09-1.65,1.91-2.16.82-.52,1.78-.78,2.88-.78.67,0,1.31.11,1.94.33.63.22,1.19.57,1.69,1.04.5.47.89,1.08,1.18,1.84.29.75.43,1.66.43,2.74v.82h-9.4v-1.72h7.15c0-.61-.12-1.14-.37-1.61-.25-.47-.59-.84-1.04-1.11-.44-.27-.96-.41-1.56-.41-.65,0-1.21.16-1.69.47-.48.32-.85.73-1.11,1.23-.26.51-.39,1.05-.39,1.64v1.35c0,.79.14,1.46.42,2.02.28.55.67.98,1.17,1.27s1.09.44,1.76.44c.44,0,.83-.06,1.19-.19.36-.13.67-.31.93-.57.26-.25.46-.56.6-.93l2.18.39c-.17.64-.49,1.2-.94,1.68-.45.48-1.01.85-1.69,1.12-.68.26-1.44.4-2.31.4Z"/>
      <path class="cls-4" d="m125.93,68.72l-2.09.37c-.09-.27-.22-.52-.41-.76-.19-.24-.44-.44-.76-.59-.32-.15-.72-.23-1.19-.23-.65,0-1.2.15-1.63.44s-.65.66-.65,1.12c0,.4.15.71.44.95.29.24.76.44,1.42.59l1.88.43c1.09.25,1.9.64,2.43,1.16.53.52.8,1.2.8,2.04,0,.71-.2,1.34-.61,1.89-.41.55-.98.98-1.7,1.3-.73.31-1.57.47-2.52.47-1.32,0-2.41-.28-3.24-.85-.84-.57-1.35-1.37-1.54-2.42l2.23-.34c.14.58.42,1.02.85,1.31.43.29.99.44,1.69.44.75,0,1.36-.16,1.81-.47.45-.32.68-.7.68-1.16,0-.37-.14-.68-.41-.93s-.69-.44-1.26-.57l-2-.44c-1.1-.25-1.92-.65-2.44-1.2-.53-.55-.79-1.25-.79-2.09,0-.7.19-1.31.58-1.83.39-.52.93-.93,1.62-1.23.69-.3,1.47-.44,2.36-.44,1.28,0,2.28.28,3.02.83.73.55,1.22,1.29,1.46,2.21Z"/>
      <path class="cls-4" d="m137.55,68.72l-2.09.37c-.09-.27-.22-.52-.41-.76-.19-.24-.44-.44-.76-.59-.32-.15-.72-.23-1.19-.23-.65,0-1.2.15-1.63.44s-.65.66-.65,1.12c0,.4.15.71.44.95.29.24.76.44,1.42.59l1.88.43c1.09.25,1.9.64,2.43,1.16.53.52.8,1.2.8,2.04,0,.71-.2,1.34-.61,1.89-.41.55-.98.98-1.7,1.3-.73.31-1.57.47-2.52.47-1.32,0-2.41-.28-3.24-.85-.84-.57-1.35-1.37-1.54-2.42l2.23-.34c.14.58.42,1.02.85,1.31.43.29.99.44,1.69.44.75,0,1.36-.16,1.81-.47.45-.32.68-.7.68-1.16,0-.37-.14-.68-.41-.93s-.69-.44-1.26-.57l-2-.44c-1.1-.25-1.92-.65-2.44-1.2-.53-.55-.79-1.25-.79-2.09,0-.7.19-1.31.58-1.83.39-.52.93-.93,1.62-1.23.69-.3,1.47-.44,2.36-.44,1.28,0,2.28.28,3.02.83.73.55,1.22,1.29,1.46,2.21Z"/>
      <path class="cls-4" d="m141.47,64c-.4,0-.74-.13-1.03-.4-.28-.27-.43-.59-.43-.97s.14-.71.43-.97c.28-.27.63-.4,1.03-.4s.74.13,1.03.4c.28.27.43.59.43.97s-.14.7-.43.97c-.28.27-.63.4-1.03.4Zm-1.16,13.65v-11.83h2.3v11.83h-2.3Z"/>
      <path class="cls-4" d="m150.68,77.89c-1.11,0-2.08-.25-2.9-.76-.83-.51-1.47-1.22-1.92-2.13-.46-.91-.69-1.98-.69-3.2s.23-2.3.69-3.22c.46-.92,1.1-1.63,1.92-2.14.83-.51,1.79-.76,2.9-.76s2.08.25,2.9.76,1.47,1.22,1.92,2.14c.46.92.69,1.99.69,3.22s-.23,2.29-.69,3.2c-.46.91-1.1,1.62-1.92,2.13s-1.79.76-2.9.76Zm0-1.93c.72,0,1.31-.19,1.79-.57s.82-.89,1.05-1.52c.23-.63.34-1.33.34-2.09s-.11-1.45-.34-2.08c-.23-.63-.58-1.14-1.05-1.53-.47-.38-1.07-.58-1.79-.58s-1.32.19-1.8.58c-.47.39-.83.89-1.05,1.53-.23.63-.34,1.33-.34,2.08s.11,1.46.34,2.09.58,1.14,1.05,1.52c.48.38,1.07.57,1.8.57Z"/>
      <path class="cls-4" d="m161.06,70.63v7.02h-2.3v-11.83h2.21v1.92h.15c.27-.63.7-1.13,1.28-1.51s1.32-.57,2.21-.57c.81,0,1.51.17,2.12.5.61.34,1.08.84,1.41,1.5.33.66.5,1.48.5,2.46v7.52h-2.3v-7.25c0-.86-.22-1.53-.67-2.01-.45-.49-1.06-.73-1.84-.73-.53,0-1.01.12-1.42.35-.41.23-.74.57-.98,1.01-.24.44-.36.98-.36,1.61Z"/>
      <path class="cls-4" d="m175.15,77.92c-.75,0-1.43-.14-2.03-.42-.61-.28-1.09-.69-1.44-1.22-.35-.53-.53-1.19-.53-1.96,0-.67.13-1.22.39-1.65.26-.43.6-.77,1.04-1.02.44-.25.92-.44,1.46-.57.54-.13,1.09-.23,1.65-.29.71-.08,1.28-.15,1.72-.2s.76-.14.96-.27c.2-.12.3-.32.3-.6v-.05c0-.67-.19-1.19-.57-1.56-.38-.37-.94-.55-1.68-.55s-1.38.17-1.83.51c-.44.34-.75.72-.92,1.14l-2.16-.49c.26-.72.63-1.3,1.13-1.74.5-.44,1.07-.77,1.71-.97.65-.2,1.33-.3,2.04-.3.47,0,.97.06,1.51.17.53.11,1.03.31,1.49.6.46.29.84.71,1.14,1.25.3.54.45,1.24.45,2.11v7.85h-2.25v-1.62h-.09c-.15.3-.37.59-.67.88-.3.29-.68.53-1.15.72-.47.19-1.03.28-1.68.28Zm.5-1.85c.64,0,1.18-.13,1.64-.38.45-.25.8-.58,1.04-.99.24-.41.36-.85.36-1.31v-1.52c-.08.08-.24.16-.47.23-.23.07-.5.13-.8.18-.3.05-.59.09-.87.13-.28.04-.52.07-.71.1-.45.06-.85.15-1.22.28-.37.13-.66.33-.88.57s-.33.58-.33.99c0,.57.21,1,.63,1.29.42.29.96.44,1.61.44Z"/>
      <path class="cls-4" d="m186.36,61.89v15.77h-2.3v-15.77h2.3Z"/>
      <path class="cls-4" d="m203.98,66.03c-.08-.73-.42-1.29-1.02-1.7-.6-.4-1.34-.6-2.25-.6-.65,0-1.21.1-1.68.3-.47.2-.84.48-1.1.83-.26.35-.39.75-.39,1.2,0,.37.09.7.27.97s.41.5.7.68.6.33.94.45c.33.12.65.22.96.3l1.54.4c.5.12,1.02.29,1.55.5.53.21,1.02.49,1.47.83s.82.77,1.1,1.28c.28.51.42,1.12.42,1.83,0,.89-.23,1.69-.69,2.38-.46.69-1.12,1.24-1.99,1.64-.87.4-1.92.6-3.15.6s-2.2-.19-3.06-.56c-.86-.37-1.54-.91-2.03-1.6-.49-.69-.76-1.51-.81-2.46h2.39c.05.57.23,1.04.56,1.42.33.38.74.66,1.26.84.51.18,1.07.27,1.68.27.67,0,1.27-.11,1.8-.32.53-.21.94-.51,1.24-.89s.45-.83.45-1.34c0-.47-.13-.85-.4-1.15s-.62-.54-1.07-.74-.96-.37-1.52-.52l-1.86-.51c-1.26-.34-2.26-.85-3-1.52s-1.11-1.55-1.11-2.65c0-.91.25-1.7.74-2.38.49-.68,1.16-1.2,2-1.58.84-.38,1.79-.57,2.85-.57s2.01.19,2.83.56c.82.37,1.46.89,1.94,1.54s.72,1.4.74,2.25h-2.29Z"/>
      <path class="cls-4" d="m216.64,72.75v-6.92h2.31v11.83h-2.26v-2.05h-.12c-.27.63-.71,1.16-1.3,1.58s-1.34.63-2.23.63c-.76,0-1.43-.17-2.01-.5-.58-.34-1.04-.84-1.37-1.5-.33-.66-.5-1.48-.5-2.46v-7.52h2.3v7.25c0,.81.22,1.45.67,1.92s1.03.72,1.74.72c.43,0,.86-.11,1.29-.32.43-.22.79-.54,1.07-.98.28-.44.42-.99.42-1.66Z"/>
      <path class="cls-4" d="m222.04,77.66v-11.83h2.21v1.92h.15c.25-.65.65-1.16,1.21-1.53.56-.37,1.23-.55,2.01-.55s1.45.18,1.99.55c.54.37.93.88,1.19,1.52h.12c.28-.63.73-1.13,1.35-1.51.62-.38,1.35-.57,2.2-.57,1.07,0,1.95.34,2.63,1.01.68.67,1.02,1.69,1.02,3.04v7.93h-2.3v-7.72c0-.8-.22-1.38-.65-1.74-.44-.36-.96-.54-1.56-.54-.75,0-1.33.23-1.75.69-.42.46-.62,1.05-.62,1.77v7.54h-2.29v-7.86c0-.64-.2-1.16-.6-1.55-.4-.39-.92-.59-1.56-.59-.44,0-.84.11-1.2.34-.37.23-.66.55-.89.95s-.34.88-.34,1.41v7.29h-2.3Z"/>
      <path class="cls-4" d="m241.19,77.66v-11.83h2.21v1.92h.15c.25-.65.65-1.16,1.21-1.53.56-.37,1.23-.55,2.01-.55s1.45.18,1.99.55c.54.37.93.88,1.19,1.52h.12c.28-.63.73-1.13,1.35-1.51.62-.38,1.35-.57,2.2-.57,1.07,0,1.95.34,2.63,1.01.68.67,1.02,1.69,1.02,3.04v7.93h-2.3v-7.72c0-.8-.22-1.38-.65-1.74-.44-.36-.96-.54-1.56-.54-.75,0-1.33.23-1.75.69-.42.46-.62,1.05-.62,1.77v7.54h-2.29v-7.86c0-.64-.2-1.16-.6-1.55-.4-.39-.92-.59-1.56-.59-.44,0-.84.11-1.2.34-.37.23-.66.55-.89.95s-.34.88-.34,1.41v7.29h-2.3Z"/>
      <path class="cls-4" d="m263.79,77.92c-.75,0-1.43-.14-2.03-.42-.61-.28-1.09-.69-1.44-1.22s-.53-1.19-.53-1.96c0-.67.13-1.22.39-1.65.26-.43.6-.77,1.04-1.02.44-.25.92-.44,1.46-.57.54-.13,1.09-.23,1.65-.29.71-.08,1.28-.15,1.72-.2s.76-.14.96-.27c.2-.12.3-.32.3-.6v-.05c0-.67-.19-1.19-.57-1.56s-.94-.55-1.68-.55-1.38.17-1.83.51c-.44.34-.75.72-.92,1.14l-2.16-.49c.26-.72.63-1.3,1.13-1.74.5-.44,1.07-.77,1.71-.97.65-.2,1.33-.3,2.04-.3.47,0,.97.06,1.51.17.53.11,1.03.31,1.49.6.46.29.84.71,1.14,1.25.3.54.45,1.24.45,2.11v7.85h-2.25v-1.62h-.09c-.15.3-.37.59-.67.88-.3.29-.68.53-1.15.72-.47.19-1.03.28-1.68.28Zm.5-1.85c.64,0,1.18-.13,1.64-.38.45-.25.8-.58,1.04-.99.24-.41.36-.85.36-1.31v-1.52c-.08.08-.24.16-.47.23-.23.07-.5.13-.8.18-.3.05-.59.09-.87.13-.28.04-.52.07-.71.1-.45.06-.85.15-1.22.28-.37.13-.66.33-.88.57s-.33.58-.33.99c0,.57.21,1,.63,1.29.42.29.96.44,1.61.44Z"/>
      <path class="cls-4" d="m272.69,77.66v-11.83h2.23v1.88h.12c.22-.64.6-1.14,1.14-1.51.55-.37,1.17-.55,1.86-.55.14,0,.31,0,.51.01.2.01.35.02.47.04v2.2c-.09-.03-.26-.06-.49-.09-.24-.03-.47-.05-.71-.05-.54,0-1.03.11-1.45.34-.42.23-.76.54-1.01.95-.25.4-.37.86-.37,1.37v7.22h-2.3Z"/>
      <path class="cls-4" d="m282.85,82.09c-.34,0-.66-.03-.94-.08s-.49-.11-.63-.17l.55-1.89c.42.11.8.16,1.12.15.33-.01.62-.14.87-.37.25-.23.48-.61.67-1.13l.28-.79-4.33-11.98h2.46l3,9.18h.12l3-9.18h2.47l-4.87,13.41c-.23.62-.51,1.14-.86,1.57s-.76.75-1.25.97c-.48.21-1.04.32-1.68.32Z"/>
    </g>
  </g>
  <rect class="cls-6" x="62.17" y="106.47" width="444.42" height="127.85" rx="6.29" ry="6.29"/>
  <g>
    <path class="cls-5" d="m512.81,488.48v-95.88c0-8.27-6.71-14.98-14.98-14.98H70.93c-8.27,0-14.98,6.71-14.98,14.98v185.3c0,8.27,6.71,14.98,14.98,14.98h426.9c8.27,0,14.98-6.71,14.98-14.98v-89.41Z"/>
    <path class="cls-7" d="m512.81,398.92v-7.71c0-7.51-6.1-13.6-13.63-13.6H69.58c-7.52,0-13.63,6.09-13.63,13.6v27.77h456.86v-20.06Z"/>
    <g>
      <path class="cls-4" d="m77.46,405.52c.57.25,1.1.37,1.61.37,2.88,0,4.32-1.28,4.32-3.85,0-.87-.16-1.56-.47-2.07-.21-.34-.44-.62-.71-.85s-.52-.41-.78-.53c-.25-.13-.56-.22-.93-.29-.36-.07-.69-.11-.97-.12s-.64-.02-1.09-.02c-.56,0-.95.04-1.16.11,0,.41,0,1.02,0,1.83,0,.81,0,1.42,0,1.82,0,.06,0,.32-.01.78s0,.83,0,1.11.02.6.05.96.08.61.14.76Zm-.16-8.57c.32.05.74.08,1.25.08.63,0,1.18-.05,1.64-.15.47-.1.89-.27,1.26-.51s.66-.58.86-1.03.29-.99.29-1.63c0-.54-.11-1.01-.33-1.41s-.52-.72-.91-.94-.8-.39-1.24-.5c-.44-.11-.92-.16-1.43-.16-.38,0-.88.05-1.49.15,0,.38.02.96.05,1.74.03.77.05,1.36.05,1.75,0,.21,0,.51,0,.92s0,.71,0,.91c0,.35,0,.62.01.79Zm-6.22,10.22l.02-1.08c.11-.03.44-.09.98-.18.54-.09.94-.2,1.22-.31.05-.09.1-.2.14-.31s.07-.24.1-.38.04-.27.06-.37.03-.25.03-.43,0-.31,0-.39v-.75c0-7.52-.08-11.45-.25-11.78-.03-.06-.11-.12-.25-.17-.14-.05-.31-.09-.51-.13s-.39-.06-.57-.08-.36-.04-.56-.05-.31-.03-.35-.03l-.05-.95c.75-.02,2.05-.06,3.91-.13,1.85-.07,3.28-.11,4.29-.11.18,0,.44,0,.79,0s.61,0,.78,0c.54,0,1.06.05,1.57.15s1,.26,1.48.48c.48.22.89.49,1.24.82s.64.72.85,1.2c.21.48.32,1.01.32,1.58,0,.4-.06.76-.19,1.1s-.28.61-.45.83-.42.44-.74.66c-.32.22-.6.39-.84.52s-.56.28-.97.46c1.18.27,2.16.78,2.95,1.54.79.76,1.18,1.71,1.18,2.85,0,.77-.13,1.45-.4,2.06s-.63,1.11-1.07,1.5-.98.72-1.59.98-1.24.45-1.88.56-1.32.16-2.02.16c-.34,0-.84-.01-1.52-.03-.67-.02-1.18-.03-1.52-.03-.81,0-1.99.04-3.53.13s-2.42.13-2.65.14Z"/>
      <path class="cls-4" d="m114.35,405.84c0,.25.06.44.17.57.11.13.29.23.53.28.24.05.58.09,1.01.11l-.1.51c-.79-.05-1.86-.07-3.22-.07s-2.49.02-3.23.07l.14-.51c.59-.02,1.04-.09,1.34-.2.3-.11.53-.31.71-.6.18-.29.35-.75.51-1.38l3.34-12.57c.14-.54.21-.94.21-1.21,0-.26-.06-.45-.17-.58-.12-.13-.29-.22-.53-.28-.23-.05-.57-.09-1.01-.11l.12-.51c.69.05,1.76.07,3.22.07,1.36,0,2.44-.02,3.24-.07l-.12.51c-.62.02-1.08.09-1.38.2-.3.11-.54.31-.72.59s-.35.75-.51,1.39l-3.34,12.57c-.14.54-.21.95-.21,1.22Z"/>
      <path class="cls-4" d="m142.7,390.6c-.28-.02-.46-.03-.52-.05l-.03-1.01c.1,0,.25-.01.46-.01.46,0,.89.02,1.29.05,1.01.05,1.65.08,1.91.08.66,0,1.3-.01,1.93-.03.89-.03,1.45-.05,1.68-.06.43,0,.76,0,.99-.02v.16s.01.74.01.74v.1c-.46.07-.93.1-1.42.1-.46,0-.76.1-.91.29-.1.11-.15.61-.15,1.52,0,.1,0,.22,0,.37s0,.25,0,.29v2.63s.17,3.22.17,3.22c.05.95.24,1.72.59,2.32.27.45.64.8,1.1,1.06.67.36,1.35.54,2.03.54.8,0,1.53-.11,2.19-.32.43-.14.81-.33,1.14-.59.37-.28.62-.52.75-.74.28-.43.48-.87.61-1.31.16-.56.24-1.44.24-2.63,0-.61-.01-1.1-.04-1.47s-.07-.84-.13-1.41-.11-1.17-.16-1.83l-.05-.68c-.04-.51-.13-.85-.28-1.01-.26-.27-.56-.4-.88-.39l-1.15.02-.16-.03.02-.99h.97l2.36.11c.58.02,1.33-.02,2.25-.11l.21.02c.05.29.07.49.07.59,0,.05-.02.17-.05.36-.34.09-.67.14-.97.15-.56.08-.86.15-.91.2-.11.11-.17.27-.17.47,0,.05,0,.16.02.31s.02.27.02.36c.06.15.15,1.66.25,4.55.05,1.49-.01,2.66-.17,3.49-.11.58-.27,1.05-.47,1.4-.29.5-.72.97-1.29,1.41-.57.44-1.27.78-2.09,1.02-.83.25-1.81.38-2.93.38-1.28,0-2.37-.18-3.26-.53-.91-.36-1.6-.83-2.06-1.4-.47-.58-.79-1.33-.95-2.24-.12-.61-.18-1.52-.18-2.72v-3.83c0-1.44-.07-2.26-.2-2.45-.19-.28-.75-.43-1.69-.45Zm17.1,16.19v-.74c0-.11-.03-.2-.1-.26s-.16-.1-.26-.1h-16.91c-.11,0-.2.03-.26.1s-.1.16-.1.26v.74c0,.11.03.2.1.26s.16.1.26.1h16.91c.11,0,.2-.03.26-.1s.1-.16.1-.26Z"/>
      <path class="cls-4" d="m188.87,391.13c0-.5.4-.9.9-.9h14.4c.5,0,.9.4.9.9s-.4.9-.9.9h-14.4c-.5,0-.9-.4-.9-.9Zm15.3,6.3h-14.4c-.5,0-.9.4-.9.9s.4.9.9.9h14.4c.5,0,.9-.4.9-.9s-.4-.9-.9-.9Zm0,7.2h-14.4c-.5,0-.9.4-.9.9s.4.9.9.9h14.4c.5,0,.9-.4.9-.9s-.4-.9-.9-.9Zm-19.35-7.65c-.75,0-1.35.6-1.35,1.35s.6,1.35,1.35,1.35,1.35-.6,1.35-1.35-.6-1.35-1.35-1.35Zm0-7.2c-.75,0-1.35.6-1.35,1.35s.6,1.35,1.35,1.35,1.35-.6,1.35-1.35-.6-1.35-1.35-1.35Zm0,14.4c-.75,0-1.35.6-1.35,1.35s.6,1.35,1.35,1.35,1.35-.6,1.35-1.35-.6-1.35-1.35-1.35Z"/>
      <g>
        <g>
          <path class="cls-4" d="m242.6,398.91h-12.8c-.45,0-.81-.36-.81-.81s.36-.81.81-.81h12.8c.45,0,.81.36.81.81s-.36.81-.81.81Z"/>
          <path class="cls-4" d="m242.6,406.23h-12.8c-.45,0-.81-.36-.81-.81s.36-.81.81-.81h12.8c.45,0,.81.36.81.81s-.36.81-.81.81Z"/>
          <path class="cls-4" d="m242.6,391.59h-12.8c-.45,0-.81-.36-.81-.81s.36-.81.81-.81h12.8c.45,0,.81.36.81.81s-.36.81-.81.81Z"/>
        </g>
        <path class="cls-1" d="m225,393.53v-3.97h-.07l-1.24.84v-1.13l1.31-.89h1.31v5.16h-1.31Z"/>
        <path class="cls-1" d="m223.21,397.31c0-1.05.83-1.76,2.03-1.76s1.9.65,1.9,1.53c0,.61-.27,1.01-1.09,1.76l-1.01.92v.07h2.17v1.02h-3.92v-.88l1.84-1.67c.64-.58.74-.8.74-1.11,0-.36-.25-.65-.7-.65-.48,0-.76.33-.76.77h-1.2Zm1.3,8.65v-.89h.66c.44,0,.72-.25.72-.63,0-.35-.27-.61-.71-.61s-.75.25-.77.66h-1.19c.02-.99.8-1.64,2.03-1.64s1.87.63,1.87,1.4c0,.62-.4,1.03-.96,1.16v.07c.74.1,1.17.56,1.17,1.24,0,.92-.88,1.56-2.12,1.56s-2.06-.66-2.1-1.68h1.25c.02.4.34.64.84.64s.8-.26.8-.65-.31-.65-.81-.65h-.66Z"/>
      </g>
    </g>
    <text class="cls-2" transform="translate(443.73 580.7)"><tspan class="cls-12" x="0" y="0">W</tspan><tspan x="12.51" y="0">o</tspan><tspan class="cls-8" x="20.92" y="0">r</tspan><tspan x="25.75" y="0">ds:0</tspan></text>
  </g>
  <text class="cls-3" transform="translate(75.16 129.24)"><tspan class="cls-23" x="0" y="0">R</tspan><tspan x="8.06" y="0">esul</tspan><tspan class="cls-18" x="32.54" y="0">t</tspan><tspan x="37.04" y="0">s-dri</tspan><tspan class="cls-22" x="65.21" y="0">v</tspan><tspan x="72.04" y="0">en mar</tspan><tspan class="cls-20" x="113.46" y="0">k</tspan><tspan x="120.09" y="0">eting manager wi</tspan><tspan class="cls-14" x="223.64" y="0">t</tspan><tspan x="228.42" y="0">h 3+ </tspan><tspan class="cls-15" x="259.58" y="0">y</tspan><tspan x="266.42" y="0">ears of </tspan><tspan class="cls-11" x="311.74" y="0">e</tspan><tspan x="318.97" y="0">xperience in </tspan><tspan x="0" y="18.18">d</tspan><tspan class="cls-16" x="7.9" y="18.18">e</tspan><tspan class="cls-22" x="15.1" y="18.18">v</tspan><tspan x="21.93" y="18.18">eloping and implementing successful mar</tspan><tspan class="cls-13" x="270.77" y="18.18">k</tspan><tspan x="277.41" y="18.18">eting campaigns ac</tspan><tspan class="cls-16" x="394.26" y="18.18">r</tspan><tspan x="398.78" y="18.18">oss </tspan><tspan x="0" y="36.36">multiple channels. </tspan><tspan x="0" y="54.54">Skilled in identifying ta</tspan><tspan class="cls-16" x="135.75" y="54.54">r</tspan><tspan x="140.27" y="54.54">get audiences, and </tspan><tspan class="cls-14" x="258.41" y="54.54">t</tspan><tspan x="263.18" y="54.54">hri</tspan><tspan class="cls-15" x="278.46" y="54.54">v</tspan><tspan x="285.29" y="54.54">es in a </tspan><tspan class="cls-17" x="327.74" y="54.54">f</tspan><tspan x="332.13" y="54.54">as</tspan><tspan class="cls-22" x="345.96" y="54.54">t</tspan><tspan x="350.33" y="54.54">-paced </tspan><tspan x="0" y="72.73">e</tspan><tspan class="cls-22" x="7.41" y="72.73">n</tspan><tspan x="14.61" y="72.73">vi</tspan><tspan class="cls-16" x="24.71" y="72.73">r</tspan><tspan x="29.23" y="72.73">onment, enj</tspan><tspan class="cls-15" x="99.85" y="72.73">o</tspan><tspan x="107.18" y="72.73">ys collaborating wi</tspan><tspan class="cls-14" x="219.61" y="72.73">t</tspan><tspan x="224.38" y="72.73">h c</tspan><tspan class="cls-16" x="242.59" y="72.73">r</tspan><tspan x="247.11" y="72.73">oss-functional </tspan><tspan class="cls-23" x="336.87" y="72.73">t</tspan><tspan x="341.42" y="72.73">eams </tspan><tspan class="cls-23" x="377.31" y="72.73">t</tspan><tspan x="381.86" y="72.73">o </tspan><tspan x="0" y="90.91">achi</tspan><tspan class="cls-16" x="24.82" y="90.91">e</tspan><tspan class="cls-22" x="32.02" y="90.91">v</tspan><tspan x="38.85" y="90.91">e business objecti</tspan><tspan class="cls-15" x="147.23" y="90.91">v</tspan><tspan x="154.06" y="90.91">es.</tspan></text>
  <text class="cls-3" transform="translate(71.96 442.27)"><tspan x="0" y="0">Sta</tspan><tspan class="cls-9" x="19.92" y="0">r</tspan><tspan x="25.09" y="0">t writing...</tspan></text>
</svg>