<svg width="20" height="20" viewBox="0 0 20 20" fill="none" xmlns="http://www.w3.org/2000/svg">
<g id="Frame">
<path id="Vector" fill-rule="evenodd" clip-rule="evenodd" d="M10 1.80111C12.6722 1.80111 12.9878 1.81333 14.0389 1.86C15.0156 1.90333 15.5433 2.06667 15.8944 2.20333C16.3589 2.38333 16.6956 2.60222 17.0433 2.94889C17.3944 3.3 17.61 3.63222 17.7933 4.09778C17.93 4.44889 18.0944 4.98111 18.1367 5.95333C18.1833 7.00778 18.1956 7.32444 18.1956 9.99222C18.1956 12.66 18.1833 12.98 18.1367 14.0311C18.0933 15.0078 17.93 15.5356 17.7933 15.8867C17.6332 16.3202 17.3785 16.7127 17.0478 17.0356C16.6967 17.3867 16.3644 17.6022 15.8989 17.7856C15.5478 17.9222 15.0156 18.0867 14.0433 18.1289C12.9889 18.1756 12.6722 18.1878 10.0044 18.1878C7.33667 18.1878 7.01667 18.1756 5.96556 18.1289C4.98889 18.0856 4.46111 17.9222 4.11 17.7856C3.67644 17.6254 3.28399 17.3707 2.96111 17.04C2.62916 16.7173 2.373 16.3249 2.21111 15.8911C2.07444 15.54 1.91 15.0078 1.86778 14.0356C1.82111 12.9811 1.80889 12.6644 1.80889 9.99667C1.80889 7.32889 1.82111 7.00889 1.86778 5.95778C1.91111 4.98111 2.07444 4.45333 2.21111 4.10222C2.39111 3.63778 2.61 3.30111 2.95667 2.95333C3.30778 2.60222 3.64 2.38667 4.10556 2.20333C4.45667 2.06667 4.98889 1.90222 5.96111 1.86C7.01222 1.81333 7.32778 1.80111 10 1.80111ZM10 0C7.28556 0 6.94556 0.0122222 5.87889 0.0588889C4.81667 0.105556 4.08556 0.277778 3.45333 0.523333C2.78465 0.774372 2.17927 1.16923 1.68 1.68C1.17006 2.17865 0.775288 2.78276 0.523333 3.45C0.277778 4.08667 0.105556 4.81333 0.0588889 5.87556C0.0122222 6.94556 0 7.28556 0 10C0 12.7144 0.0122222 13.0544 0.0588889 14.1211C0.105556 15.1833 0.277778 15.9144 0.523333 16.5467C0.774372 17.2154 1.16923 17.8207 1.68 18.32C2.17882 18.8287 2.78297 19.222 3.45 19.4722C4.08667 19.7178 4.81333 19.89 5.87556 19.9367C6.94222 19.9833 7.28222 19.9956 9.99667 19.9956C12.7111 19.9956 13.0511 19.9833 14.1178 19.9367C15.18 19.89 15.9111 19.7178 16.5433 19.4722C17.21 19.2213 17.814 18.8281 18.3133 18.32C18.8689 17.7656 19.2122 17.2067 19.4656 16.55C19.7111 15.9133 19.8833 15.1867 19.93 14.1244C19.9767 13.0578 19.9889 12.7178 19.9889 10.0033C19.9889 7.28889 19.9767 6.94889 19.93 5.88222C19.8833 4.82 19.7111 4.08889 19.4656 3.45667C19.2248 2.7845 18.8333 2.17637 18.3211 1.67889C17.8223 1.17022 17.2181 0.776934 16.5511 0.526667C15.9144 0.281111 15.1878 0.108889 14.1256 0.0622222C13.0556 0.0111111 12.7156 0 10 0ZM10 4.86333C8.63785 4.86392 7.33166 5.40529 6.36848 6.36848C5.40529 7.33166 4.86392 8.63785 4.86333 10C4.86392 11.3621 5.40529 12.6683 6.36848 13.6315C7.33166 14.5947 8.63785 15.1361 10 15.1367C11.3621 15.1361 12.6683 14.5947 13.6315 13.6315C14.5947 12.6683 15.1361 11.3621 15.1367 10C15.1361 8.63785 14.5947 7.33166 13.6315 6.36848C12.6683 5.40529 11.3621 4.86392 10 4.86333ZM10 13.3322C9.55721 13.3403 9.11725 13.2601 8.70582 13.0962C8.29439 12.9324 7.91973 12.6882 7.60374 12.3779C7.28774 12.0676 7.03674 11.6975 6.8654 11.2891C6.69406 10.8807 6.60581 10.4423 6.60581 9.99944C6.60581 9.55658 6.69406 9.11816 6.8654 8.70979C7.03674 8.30142 7.28774 7.93128 7.60374 7.621C7.91973 7.31073 8.29439 7.06653 8.70582 6.90267C9.11725 6.73881 9.55721 6.65858 10 6.66667C10.8841 6.66667 11.7319 7.01786 12.357 7.64298C12.9821 8.2681 13.3333 9.11595 13.3333 10C13.3333 10.8841 12.9821 11.7319 12.357 12.357C11.7319 12.9821 10.8841 13.3333 10 13.3333V13.3322ZM15.34 5.85889C15.658 5.85889 15.9629 5.73258 16.1877 5.50774C16.4126 5.28291 16.5389 4.97796 16.5389 4.66C16.5389 4.34203 16.4126 4.03709 16.1877 3.81226C15.9629 3.58742 15.658 3.46111 15.34 3.46111C15.022 3.46111 14.7171 3.58742 14.4923 3.81226C14.2674 4.03709 14.1411 4.34203 14.1411 4.66C14.1411 4.97796 14.2674 5.28291 14.4923 5.50774C14.7171 5.73258 15.022 5.85889 15.34 5.85889Z" fill="white"/>
</g>
</svg>
