<svg width="18" height="17" viewBox="0 0 18 17" fill="none" xmlns="http://www.w3.org/2000/svg">
<path id="Vector" fill-rule="evenodd" clip-rule="evenodd" d="M1.9285 3.85699C2.99303 3.85699 3.85699 2.99303 3.85699 1.9285C3.85699 0.863968 2.99303 0 1.9285 0C0.863968 0 0 0.863968 0 1.9285C0 2.99303 0.863968 3.85699 1.9285 3.85699ZM0 16.7139V5.14283H3.85699V16.7139H0ZM6.429 5.14283H9.98644V6.9659H10.0379C10.5328 6.07752 11.7439 5.14283 13.5503 5.14283C17.3057 5.14283 18 7.48017 18 10.5207V16.7139H14.2908V11.224C14.2908 9.91522 14.2638 8.22971 12.3623 8.22971C10.4313 8.22971 10.1356 9.65551 10.1356 11.1289V16.7139H6.429V5.14283Z" fill="white"/>
</svg>
