<svg width="20" height="16" viewBox="0 0 20 16" fill="none" xmlns="http://www.w3.org/2000/svg">
<path id="Vector" d="M1.79444 15.5556C1.28333 15.5556 0.856667 15.3844 0.514445 15.0422C0.171482 14.6993 0 14.2722 0 13.7611V1.79444C0 1.28333 0.171482 0.856667 0.514445 0.514444C0.856667 0.171481 1.28333 0 1.79444 0H18.2056C18.7167 0 19.1433 0.171481 19.4856 0.514444C19.8285 0.856667 20 1.28333 20 1.79444V13.7611C20 14.2722 19.8289 14.6989 19.4867 15.0411C19.1437 15.3841 18.7167 15.5556 18.2056 15.5556H1.79444ZM10 7.90556L18.8889 2.09444L18.5467 1.11111L10 6.66667L1.45333 1.11111L1.11111 2.09444L10 7.90556Z" fill="white"/>
</svg>
